<svg xmlns="http://www.w3.org/2000/svg" xmlns:xlink="http://www.w3.org/1999/xlink" viewBox="0 0 4400 2475"><defs><style>.cls-1{fill:none;}.cls-2{clip-path:url(#clip-path);}.cls-3{fill:#1c1917;}.cls-4{fill:#fff;}.cls-5{clip-path:url(#clip-path-2);}</style><clipPath id="clip-path"><rect class="cls-1" width="4400" height="690"/></clipPath><clipPath id="clip-path-2"><rect class="cls-1" y="2114.6" width="4400" height="360.4"/></clipPath></defs><title>CAMBIO_DE_MANDO_SIN_TEXTO</title><g id="Capa_2" data-name="Capa 2"><g id="Capa_1-2" data-name="Capa 1"><g class="cls-2"><rect class="cls-3" width="4400" height="690"/></g><path class="cls-4" d="M486.87,442.35A105.56,105.56,0,0,1,448.62,435a102.78,102.78,0,0,1-33.75-21.15l23.7-28.2A85.21,85.21,0,0,0,462.12,401a63.77,63.77,0,0,0,25.65,5.7q14.7,0,22.2-5.55t7.5-15.45q0-6.9-3.75-10.95a34.13,34.13,0,0,0-10.2-7.2q-6.45-3.15-15.15-6.75l-25.8-11.1a90,90,0,0,1-19.05-11.1,53.72,53.72,0,0,1-14.85-17.25q-5.7-10.35-5.7-24.75a49.76,49.76,0,0,1,8.85-28.8,63.4,63.4,0,0,1,24.3-20.7q15.45-7.8,35.25-7.8a88.65,88.65,0,0,1,33.45,6.6,85.26,85.26,0,0,1,28.65,18.9l-20.7,26.1A78,78,0,0,0,513.27,279a57.36,57.36,0,0,0-21.9-4.05q-12,0-19.35,5.1a16.21,16.21,0,0,0-7.35,14.1,15.24,15.24,0,0,0,3.9,10.8,33.13,33.13,0,0,0,10.95,7.35q7.05,3.15,15.45,6.75l25.2,10.2a77.24,77.24,0,0,1,20.7,12,52,52,0,0,1,13.65,17.25q5,10,5,23.85a55.15,55.15,0,0,1-8.55,29.85q-8.55,13.65-24.9,21.9T486.87,442.35Z"/><path class="cls-4" d="M593.36,438.75V242.85h121.2v34.5h-80.1v42.9h68.1v34.5h-68.1v49.5h83.1v34.5Z"/><path class="cls-4" d="M855.56,438.75V277.35H801v-34.5h150.6v34.5h-54.9v161.4Z"/><path class="cls-4" d="M982.76,438.75V242.85H1104v34.5h-80.1v42.9H1092v34.5h-68.1v49.5H1107v34.5Z"/><path class="cls-4" d="M1146.26,438.75V242.85h69a119.11,119.11,0,0,1,37.5,5.55q16.8,5.55,26.85,18.6t10.05,35.85q0,21.9-10.05,36a58.37,58.37,0,0,1-26.85,20.7q-16.8,6.6-37.5,6.6h-27.9v72.6Zm41.1-105.3h24.3q18.3,0,28-7.65t9.75-22.95q0-15.3-9.75-21.3t-28-6h-24.3Zm65.1,105.3-44.7-83.4,28.8-25.8,62.1,109.2Z"/><path class="cls-4" d="M1328.06,438.75V242.85h45.3l32.7,90q3,8.7,5.85,18.15t5.85,18.75h1.2q3-9.3,5.85-18.75t5.85-18.15l31.8-90h45.3v195.9h-37.5v-77.7q0-9.3.9-20.85t2.1-23.25q1.18-11.7,2.1-21h-1.2l-15.9,45.9-29.1,79.5h-23.4l-29.1-79.5-15.6-45.9h-1.2q.9,9.3,2.1,21t2.1,23.25q.9,11.55.9,20.85v77.7Z"/><path class="cls-4" d="M1555.15,438.75V242.85h41.1v195.9Z"/><path class="cls-4" d="M1643.65,438.75V242.85H1686l54.3,101.7,19.5,42.6h1.2q-1.5-15.6-3.3-34.2t-1.8-35.7v-74.4h39v195.9h-42l-54.3-101.7-19.8-42.6h-1.2q1.5,15.9,3.45,34.2a331.59,331.59,0,0,1,2,35.1v75Z"/><path class="cls-4" d="M1817.05,438.75l62.4-195.9h48.9l62.1,195.9H1947L1920,338q-4.2-15-8.25-31.5t-8.25-32.1h-1.2q-3.6,15.6-7.65,32.1t-8.25,31.5l-27.3,100.8Zm39.6-48.9v-31.8h93.6v31.8Z"/><path class="cls-4" d="M2072.65,438.75V242.85h41.1v161.4h78.6v34.5Z"/><path class="cls-4" d="M2199.84,438.75l62.41-195.9h48.89l62.11,195.9h-43.5l-27-100.8q-4.22-15-8.25-31.5t-8.25-32.1h-1.2q-3.62,15.6-7.66,32.1t-8.25,31.5l-27.3,100.8Zm39.6-48.9v-31.8h93.61v31.8Z"/><path class="cls-4" d="M2455.44,438.75V242.85h121.2v34.5h-80.1v42.9h68.1v34.5h-68.1v49.5h83.1v34.5Z"/><path class="cls-4" d="M2618.94,438.75V242.85h69a119.11,119.11,0,0,1,37.5,5.55q16.8,5.55,26.85,18.6t10.05,35.85q0,21.9-10.05,36a58.37,58.37,0,0,1-26.85,20.7q-16.8,6.6-37.5,6.6H2660v72.6Zm41.1-105.3h24.3q18.3,0,28-7.65t9.75-22.95q0-15.3-9.75-21.3t-28-6H2660Zm65.1,105.3-44.7-83.4,28.8-25.8,62.1,109.2Z"/><path class="cls-4" d="M2773.44,438.75l62.4-195.9h48.9l62.1,195.9h-43.5l-27-100.8q-4.2-15-8.25-31.5t-8.25-32.1h-1.2q-3.6,15.6-7.65,32.1t-8.25,31.5l-27.3,100.8Zm39.6-48.9v-31.8h93.6v31.8Z"/><path class="cls-4" d="M3029,438.75V242.85h65.4q21.6,0,39,5.85t27.75,19.35q10.35,13.5,10.35,36.9,0,22.5-10.2,37.05a59.81,59.81,0,0,1-27.45,21.45,102.14,102.14,0,0,1-38.25,6.9h-25.5v68.4Zm41.1-101.1h22.8q19.5,0,28.95-8.25t9.45-24.45q0-16.2-10.05-22.8t-29.55-6.6h-21.6Z"/><path class="cls-4" d="M3206.64,438.75V242.85h41.1v195.9Z"/><path class="cls-4" d="M3295.14,438.75V242.85h42.3l54.3,101.7,19.5,42.6h1.2q-1.52-15.6-3.3-34.2t-1.8-35.7v-74.4h39v195.9h-42L3350,337.05l-19.8-42.6H3329q1.49,15.9,3.45,34.2a334.27,334.27,0,0,1,2,35.1v75Zm97.8-208.5a34.07,34.07,0,0,1-14.1-2.7,61.39,61.39,0,0,1-10.8-6.15c-3.21-2.3-6.15-4.4-8.85-6.3a13.85,13.85,0,0,0-8-2.85,10,10,0,0,0-7.65,3.45q-3.15,3.45-4.05,12.15l-26.4-2.1q1.18-21.9,11.25-31.95t25.35-10.05a35.2,35.2,0,0,1,14.25,2.7,60.75,60.75,0,0,1,11,6.15c3.19,2.3,6.15,4.35,8.85,6.15a14.29,14.29,0,0,0,7.95,2.7,9.69,9.69,0,0,0,7.35-3.45q3.15-3.45,4-11.85l26.7,1.8q-1.22,21.9-11.4,32.1T3392.94,230.25Z"/><path class="cls-4" d="M3493.73,438.75V242.85h121.2v34.5h-80.1v42.9h68.1v34.5h-68.1v49.5h83.1v34.5Z"/><path class="cls-4" d="M3657.23,438.75V242.85h69a119.11,119.11,0,0,1,37.5,5.55q16.8,5.55,26.85,18.6t10.05,35.85q0,21.9-10.05,36a58.37,58.37,0,0,1-26.85,20.7q-16.8,6.6-37.5,6.6h-27.9v72.6Zm41.1-105.3h24.3q18.3,0,28-7.65t9.75-22.95q0-15.3-9.75-21.3t-28-6h-24.3Zm65.1,105.3-44.7-83.4,28.8-25.8,62.1,109.2Z"/><path class="cls-4" d="M3811.73,438.75l62.4-195.9H3923l62.1,195.9h-43.5l-27-100.8q-4.2-15-8.25-31.5t-8.25-32.1h-1.2q-3.6,15.6-7.65,32.1T3881,338l-27.3,100.8Zm39.6-48.9v-31.8h93.6v31.8Z"/><g class="cls-5"><rect class="cls-3" y="2114.6" width="4400" height="360.4"/></g><rect class="cls-1" width="4400" height="2475"/></g></g></svg>