<svg xmlns="http://www.w3.org/2000/svg" xmlns:xlink="http://www.w3.org/1999/xlink" viewBox="0 0 4400 2475"><defs><style>.cls-1{fill:none;}.cls-2{clip-path:url(#clip-path);}.cls-3{fill:#1c1917;}.cls-4{fill:#fff;}.cls-5{clip-path:url(#clip-path-2);}</style><clipPath id="clip-path"><rect class="cls-1" width="4400" height="690"/></clipPath><clipPath id="clip-path-2"><rect class="cls-1" y="2114.6" width="4400" height="360.4"/></clipPath></defs><title>CAMBIO_DE_MANDO_TEXTO</title><g id="Capa_2" data-name="Capa 2"><g id="Capa_1-2" data-name="Capa 1"><g class="cls-2"><rect class="cls-3" width="4400" height="690"/></g><path class="cls-4" d="M486.87,442.35A105.56,105.56,0,0,1,448.62,435a102.78,102.78,0,0,1-33.75-21.15l23.7-28.2A85.21,85.21,0,0,0,462.12,401a63.77,63.77,0,0,0,25.65,5.7q14.7,0,22.2-5.55t7.5-15.45q0-6.9-3.75-10.95a34.13,34.13,0,0,0-10.2-7.2q-6.45-3.15-15.15-6.75l-25.8-11.1a90,90,0,0,1-19.05-11.1,53.72,53.72,0,0,1-14.85-17.25q-5.7-10.35-5.7-24.75a49.76,49.76,0,0,1,8.85-28.8,63.4,63.4,0,0,1,24.3-20.7q15.45-7.8,35.25-7.8a88.65,88.65,0,0,1,33.45,6.6,85.26,85.26,0,0,1,28.65,18.9l-20.7,26.1A78,78,0,0,0,513.27,279a57.36,57.36,0,0,0-21.9-4.05q-12,0-19.35,5.1a16.21,16.21,0,0,0-7.35,14.1,15.24,15.24,0,0,0,3.9,10.8,33.13,33.13,0,0,0,10.95,7.35q7.05,3.15,15.45,6.75l25.2,10.2a77.24,77.24,0,0,1,20.7,12,52,52,0,0,1,13.65,17.25q5,10,5,23.85a55.15,55.15,0,0,1-8.55,29.85q-8.55,13.65-24.9,21.9T486.87,442.35Z"/><path class="cls-4" d="M593.36,438.75V242.85h121.2v34.5h-80.1v42.9h68.1v34.5h-68.1v49.5h83.1v34.5Z"/><path class="cls-4" d="M855.56,438.75V277.35H801v-34.5h150.6v34.5h-54.9v161.4Z"/><path class="cls-4" d="M982.76,438.75V242.85H1104v34.5h-80.1v42.9H1092v34.5h-68.1v49.5H1107v34.5Z"/><path class="cls-4" d="M1146.26,438.75V242.85h69a119.11,119.11,0,0,1,37.5,5.55q16.8,5.55,26.85,18.6t10.05,35.85q0,21.9-10.05,36a58.37,58.37,0,0,1-26.85,20.7q-16.8,6.6-37.5,6.6h-27.9v72.6Zm41.1-105.3h24.3q18.3,0,28-7.65t9.75-22.95q0-15.3-9.75-21.3t-28-6h-24.3Zm65.1,105.3-44.7-83.4,28.8-25.8,62.1,109.2Z"/><path class="cls-4" d="M1328.06,438.75V242.85h45.3l32.7,90q3,8.7,5.85,18.15t5.85,18.75h1.2q3-9.3,5.85-18.75t5.85-18.15l31.8-90h45.3v195.9h-37.5v-77.7q0-9.3.9-20.85t2.1-23.25q1.18-11.7,2.1-21h-1.2l-15.9,45.9-29.1,79.5h-23.4l-29.1-79.5-15.6-45.9h-1.2q.9,9.3,2.1,21t2.1,23.25q.9,11.55.9,20.85v77.7Z"/><path class="cls-4" d="M1555.15,438.75V242.85h41.1v195.9Z"/><path class="cls-4" d="M1643.65,438.75V242.85H1686l54.3,101.7,19.5,42.6h1.2q-1.5-15.6-3.3-34.2t-1.8-35.7v-74.4h39v195.9h-42l-54.3-101.7-19.8-42.6h-1.2q1.5,15.9,3.45,34.2a331.59,331.59,0,0,1,2,35.1v75Z"/><path class="cls-4" d="M1817.05,438.75l62.4-195.9h48.9l62.1,195.9H1947L1920,338q-4.2-15-8.25-31.5t-8.25-32.1h-1.2q-3.6,15.6-7.65,32.1t-8.25,31.5l-27.3,100.8Zm39.6-48.9v-31.8h93.6v31.8Z"/><path class="cls-4" d="M2072.65,438.75V242.85h41.1v161.4h78.6v34.5Z"/><path class="cls-4" d="M2199.84,438.75l62.41-195.9h48.89l62.11,195.9h-43.5l-27-100.8q-4.22-15-8.25-31.5t-8.25-32.1h-1.2q-3.62,15.6-7.66,32.1t-8.25,31.5l-27.3,100.8Zm39.6-48.9v-31.8h93.61v31.8Z"/><path class="cls-4" d="M2455.44,438.75V242.85h121.2v34.5h-80.1v42.9h68.1v34.5h-68.1v49.5h83.1v34.5Z"/><path class="cls-4" d="M2618.94,438.75V242.85h69a119.11,119.11,0,0,1,37.5,5.55q16.8,5.55,26.85,18.6t10.05,35.85q0,21.9-10.05,36a58.37,58.37,0,0,1-26.85,20.7q-16.8,6.6-37.5,6.6H2660v72.6Zm41.1-105.3h24.3q18.3,0,28-7.65t9.75-22.95q0-15.3-9.75-21.3t-28-6H2660Zm65.1,105.3-44.7-83.4,28.8-25.8,62.1,109.2Z"/><path class="cls-4" d="M2773.44,438.75l62.4-195.9h48.9l62.1,195.9h-43.5l-27-100.8q-4.2-15-8.25-31.5t-8.25-32.1h-1.2q-3.6,15.6-7.65,32.1t-8.25,31.5l-27.3,100.8Zm39.6-48.9v-31.8h93.6v31.8Z"/><path class="cls-4" d="M3029,438.75V242.85h65.4q21.6,0,39,5.85t27.75,19.35q10.35,13.5,10.35,36.9,0,22.5-10.2,37.05a59.81,59.81,0,0,1-27.45,21.45,102.14,102.14,0,0,1-38.25,6.9h-25.5v68.4Zm41.1-101.1h22.8q19.5,0,28.95-8.25t9.45-24.45q0-16.2-10.05-22.8t-29.55-6.6h-21.6Z"/><path class="cls-4" d="M3206.64,438.75V242.85h41.1v195.9Z"/><path class="cls-4" d="M3295.14,438.75V242.85h42.3l54.3,101.7,19.5,42.6h1.2q-1.52-15.6-3.3-34.2t-1.8-35.7v-74.4h39v195.9h-42L3350,337.05l-19.8-42.6H3329q1.49,15.9,3.45,34.2a334.27,334.27,0,0,1,2,35.1v75Zm97.8-208.5a34.07,34.07,0,0,1-14.1-2.7,61.39,61.39,0,0,1-10.8-6.15c-3.21-2.3-6.15-4.4-8.85-6.3a13.85,13.85,0,0,0-8-2.85,10,10,0,0,0-7.65,3.45q-3.15,3.45-4.05,12.15l-26.4-2.1q1.18-21.9,11.25-31.95t25.35-10.05a35.2,35.2,0,0,1,14.25,2.7,60.75,60.75,0,0,1,11,6.15c3.19,2.3,6.15,4.35,8.85,6.15a14.29,14.29,0,0,0,7.95,2.7,9.69,9.69,0,0,0,7.35-3.45q3.15-3.45,4-11.85l26.7,1.8q-1.22,21.9-11.4,32.1T3392.94,230.25Z"/><path class="cls-4" d="M3493.73,438.75V242.85h121.2v34.5h-80.1v42.9h68.1v34.5h-68.1v49.5h83.1v34.5Z"/><path class="cls-4" d="M3657.23,438.75V242.85h69a119.11,119.11,0,0,1,37.5,5.55q16.8,5.55,26.85,18.6t10.05,35.85q0,21.9-10.05,36a58.37,58.37,0,0,1-26.85,20.7q-16.8,6.6-37.5,6.6h-27.9v72.6Zm41.1-105.3h24.3q18.3,0,28-7.65t9.75-22.95q0-15.3-9.75-21.3t-28-6h-24.3Zm65.1,105.3-44.7-83.4,28.8-25.8,62.1,109.2Z"/><path class="cls-4" d="M3811.73,438.75l62.4-195.9H3923l62.1,195.9h-43.5l-27-100.8q-4.2-15-8.25-31.5t-8.25-32.1h-1.2q-3.6,15.6-7.65,32.1T3881,338l-27.3,100.8Zm39.6-48.9v-31.8h93.6v31.8Z"/><g class="cls-5"><rect class="cls-3" y="2114.6" width="4400" height="360.4"/></g><rect class="cls-1" width="4400" height="2475"/><path class="cls-4" d="M1512.16,2268.57a28.82,28.82,0,0,1-14.34-3.61,26.52,26.52,0,0,1-10.36-10.74q-3.9-7.12-3.89-17.48a38.59,38.59,0,0,1,2.28-13.72,29.58,29.58,0,0,1,6.31-10.22,27.59,27.59,0,0,1,9.31-6.36,28.61,28.61,0,0,1,11.07-2.19,23,23,0,0,1,10.69,2.43,29.45,29.45,0,0,1,7.74,5.55l-6.93,8.36a25.14,25.14,0,0,0-5-3.61,12.86,12.86,0,0,0-6.17-1.42,13.8,13.8,0,0,0-8.08,2.52,16.88,16.88,0,0,0-5.7,7.12,26.7,26.7,0,0,0-2.09,11.07,30.22,30.22,0,0,0,1.9,11.35,15.48,15.48,0,0,0,5.46,7.17,15.18,15.18,0,0,0,15.3.76,21.64,21.64,0,0,0,5.46-4.27l6.94,8.17a25.65,25.65,0,0,1-8.84,6.79A26,26,0,0,1,1512.16,2268.57Z"/><path class="cls-4" d="M1541.7,2267.43v-62h38.38v10.93h-25.36v13.58h21.56v10.93h-21.56v15.67H1581v10.93Z"/><path class="cls-4" d="M1593.48,2267.43v-62h21.85a37.7,37.7,0,0,1,11.87,1.76,17.33,17.33,0,0,1,8.51,5.89q3.18,4.14,3.18,11.35,0,6.95-3.18,11.4a18.5,18.5,0,0,1-8.51,6.56,32.25,32.25,0,0,1-11.87,2.09h-8.84v23Zm13-33.35h7.7c3.86,0,6.82-.8,8.88-2.42s3.09-4,3.09-7.27-1-5.47-3.09-6.74-5-1.9-8.88-1.9h-7.7Zm20.62,33.35L1613,2241l9.12-8.17,19.67,34.58Z"/><path class="cls-4" d="M1651.05,2267.43v-62h38.38v10.93h-25.37v13.58h21.57v10.93h-21.57v15.67h26.32v10.93Z"/><path class="cls-4" d="M1702.82,2267.43v-62h14.35l10.35,28.5c.64,1.84,1.25,3.76,1.86,5.75s1.21,4,1.85,5.94h.38q.95-2.94,1.85-5.94t1.85-5.75l10.07-28.5h14.35v62h-11.88v-24.61q0-2.94.29-6.6t.66-7.36q.39-3.71.67-6.65h-.38l-5,14.53-9.21,25.18h-7.41l-9.22-25.18-4.94-14.53h-.38q.28,2.94.67,6.65t.66,7.36q.29,3.66.29,6.6v24.61Z"/><path class="cls-4" d="M1799.63,2268.57a27.24,27.24,0,0,1-14.59-3.9,26,26,0,0,1-9.83-11.16,39.5,39.5,0,0,1-3.51-17.34q0-10.07,3.51-17.19a25.64,25.64,0,0,1,9.83-10.93,27.82,27.82,0,0,1,14.59-3.8,27.5,27.5,0,0,1,14.53,3.8A25.81,25.81,0,0,1,1824,2219q3.51,7.13,3.51,17.19a39.5,39.5,0,0,1-3.51,17.34,26.15,26.15,0,0,1-9.79,11.16A26.93,26.93,0,0,1,1799.63,2268.57Zm0-11.31a12,12,0,0,0,7.64-2.56,16.44,16.44,0,0,0,5.09-7.32,31.56,31.56,0,0,0,1.8-11.21,30.41,30.41,0,0,0-1.8-11.06,15.87,15.87,0,0,0-5.09-7.08,12.31,12.31,0,0,0-7.64-2.47,12.51,12.51,0,0,0-7.75,2.47,15.55,15.55,0,0,0-5,7.08,31.1,31.1,0,0,0-1.76,11.06,32.29,32.29,0,0,0,1.76,11.21,16.11,16.11,0,0,0,5,7.32A12.21,12.21,0,0,0,1799.63,2257.26Z"/><path class="cls-4" d="M1839.43,2267.43v-62h13.4L1870,2237.6l6.18,13.49h.38q-.48-4.93-1-10.83T1875,2229v-23.56h12.35v62H1874l-17.19-32.21-6.27-13.49h-.38c.31,3.36.68,7,1.09,10.83a105.61,105.61,0,0,1,.62,11.12v23.75Z"/><path class="cls-4" d="M1902.32,2267.43v-62h13v62Z"/><path class="cls-4" d="M1922.37,2267.43l19.76-62h15.48l19.67,62H1963.5l-8.55-31.92q-1.34-4.76-2.61-10t-2.61-10.16h-.38q-1.14,4.93-2.43,10.16t-2.61,10l-8.64,31.92Zm12.54-15.49v-10.07h29.64v10.07Z"/><path class="cls-4" d="M2003.3,2267.43v-62h17.2a37.6,37.6,0,0,1,16.43,3.33,23.58,23.58,0,0,1,10.69,10.12q3.75,6.79,3.75,17.33t-3.75,17.48a24.14,24.14,0,0,1-10.5,10.36,34.62,34.62,0,0,1-15.86,3.42Zm13-10.55h3.42a21,21,0,0,0,9.64-2.09,14.13,14.13,0,0,0,6.37-6.6q2.22-4.52,2.23-12t-2.23-11.92a13.46,13.46,0,0,0-6.37-6.36,22.36,22.36,0,0,0-9.64-1.95h-3.42Z"/><path class="cls-4" d="M2063.34,2267.43v-62h38.38v10.93h-25.36v13.58h21.56v10.93h-21.56v15.67h26.31v10.93Z"/><path class="cls-4" d="M2159.67,2268.57a28.85,28.85,0,0,1-14.34-3.61,26.52,26.52,0,0,1-10.36-10.74q-3.88-7.12-3.89-17.48a38.59,38.59,0,0,1,2.28-13.72,29.45,29.45,0,0,1,6.32-10.22,27.49,27.49,0,0,1,9.31-6.36,28.53,28.53,0,0,1,11.06-2.19,22.94,22.94,0,0,1,10.69,2.43,29.12,29.12,0,0,1,7.74,5.55l-6.93,8.36a24.86,24.86,0,0,0-5-3.61,12.86,12.86,0,0,0-6.17-1.42,13.8,13.8,0,0,0-8.08,2.52,17,17,0,0,0-5.7,7.12,26.7,26.7,0,0,0-2.09,11.07,30.42,30.42,0,0,0,1.9,11.35,15.43,15.43,0,0,0,5.47,7.17,15.16,15.16,0,0,0,15.29.76,21.64,21.64,0,0,0,5.46-4.27l6.94,8.17a25.65,25.65,0,0,1-8.84,6.79A26,26,0,0,1,2159.67,2268.57Z"/><path class="cls-4" d="M2181.24,2267.43l19.76-62h15.48l19.67,62h-13.78l-8.55-31.92q-1.34-4.76-2.61-10t-2.61-10.16h-.38q-1.14,4.93-2.43,10.16t-2.61,10l-8.64,31.92Zm12.54-15.49v-10.07h29.64v10.07Z"/><path class="cls-4" d="M2243.18,2267.43v-62h14.34l10.36,28.5q.95,2.76,1.85,5.75t1.85,5.94h.38q.95-2.94,1.85-5.94c.61-2,1.22-3.91,1.86-5.75l10.07-28.5h14.34v62h-11.87v-24.61q0-2.94.28-6.6t.67-7.36q.38-3.71.66-6.65h-.38l-5,14.53-9.22,25.18h-7.41l-9.21-25.18-4.94-14.53h-.38q.28,2.94.66,6.65c.25,2.47.48,4.92.67,7.36s.28,4.64.28,6.6v24.61Z"/><path class="cls-4" d="M2315.09,2267.43v-62h20.81a42.91,42.91,0,0,1,11.49,1.43,16.53,16.53,0,0,1,8.12,4.75q3,3.33,3,9.21a16,16,0,0,1-2.24,8.08,11.51,11.51,0,0,1-6.12,5.32v.38a15.49,15.49,0,0,1,8.21,4.75q3.29,3.61,3.28,9.88a16,16,0,0,1-3.23,10.31,19.05,19.05,0,0,1-8.64,6,35.74,35.74,0,0,1-12.16,1.95Zm13-37h7c3.68,0,6.37-.69,8.08-2.09a7,7,0,0,0,2.57-5.7c0-2.59-.88-4.44-2.62-5.55s-4.38-1.67-7.93-1.67h-7.12Zm0,26.89h8.35q6.09,0,9.27-2.23a7.76,7.76,0,0,0,3.18-6.8,6.77,6.77,0,0,0-3.13-6.22q-3.14-2-9.32-2h-8.35Z"/><path class="cls-4" d="M2372.37,2267.43v-62h13v62Z"/><path class="cls-4" d="M2425.29,2268.57a27.18,27.18,0,0,1-14.58-3.9,26,26,0,0,1-9.84-11.16,39.5,39.5,0,0,1-3.51-17.34q0-10.07,3.51-17.19a25.66,25.66,0,0,1,9.84-10.93,29.79,29.79,0,0,1,29.12,0,25.79,25.79,0,0,1,9.78,10.93q3.51,7.13,3.51,17.19a39.5,39.5,0,0,1-3.51,17.34,26.13,26.13,0,0,1-9.78,11.16A27,27,0,0,1,2425.29,2268.57Zm0-11.31a12.07,12.07,0,0,0,7.65-2.56,16.42,16.42,0,0,0,5.08-7.32,31.56,31.56,0,0,0,1.81-11.21,30.4,30.4,0,0,0-1.81-11.06,15.85,15.85,0,0,0-5.08-7.08,13.22,13.22,0,0,0-15.39,0,15.49,15.49,0,0,0-5,7.08,31.1,31.1,0,0,0-1.76,11.06,32.29,32.29,0,0,0,1.76,11.21,16.05,16.05,0,0,0,5,7.32A12.16,12.16,0,0,0,2425.29,2257.26Z"/><path class="cls-4" d="M2484.09,2267.43v-62h17.2a37.6,37.6,0,0,1,16.43,3.33,23.58,23.58,0,0,1,10.69,10.12q3.75,6.79,3.75,17.33t-3.75,17.48a24.14,24.14,0,0,1-10.5,10.36,34.62,34.62,0,0,1-15.86,3.42Zm13-10.55h3.42a21,21,0,0,0,9.64-2.09,14.13,14.13,0,0,0,6.37-6.6q2.22-4.52,2.23-12t-2.23-11.92a13.46,13.46,0,0,0-6.37-6.36,22.36,22.36,0,0,0-9.64-1.95h-3.42Z"/><path class="cls-4" d="M2544.13,2267.43v-62h38.38v10.93h-25.36v13.58h21.56v10.93h-21.56v15.67h26.31v10.93Z"/><path class="cls-4" d="M2614.91,2267.43v-62h14.34l10.36,28.5q.94,2.76,1.85,5.75t1.85,5.94h.38c.64-2,1.25-3.94,1.85-5.94s1.22-3.91,1.86-5.75l10.07-28.5h14.34v62h-11.87v-24.61q0-2.94.28-6.6t.67-7.36q.38-3.71.66-6.65h-.38l-5,14.53-9.22,25.18h-7.41l-9.21-25.18-4.94-14.53H2625q.29,2.94.66,6.65c.25,2.47.48,4.92.67,7.36s.28,4.64.28,6.6v24.61Z"/><path class="cls-4" d="M2678.84,2267.43l19.76-62h15.49l19.66,62H2720l-8.55-31.92q-1.33-4.76-2.62-10t-2.61-10.16h-.38q-1.14,4.93-2.42,10.16t-2.61,10l-8.65,31.92Zm12.54-15.49v-10.07H2721v10.07Z"/><path class="cls-4" d="M2740.78,2267.43v-62h13.4l17.19,32.21,6.18,13.49h.38q-.48-4.93-1-10.83t-.57-11.31v-23.56h12.35v62h-13.3l-17.19-32.21-6.27-13.49h-.38c.31,3.36.68,7,1.09,10.83a105.61,105.61,0,0,1,.62,11.12v23.75Z"/><path class="cls-4" d="M2803.67,2267.43v-62h17.2a37.6,37.6,0,0,1,16.43,3.33,23.68,23.68,0,0,1,10.69,10.12q3.75,6.79,3.75,17.33t-3.75,17.48a24.19,24.19,0,0,1-10.5,10.36,34.66,34.66,0,0,1-15.87,3.42Zm13-10.55h3.42a21,21,0,0,0,9.64-2.09,14.16,14.16,0,0,0,6.36-6.6q2.23-4.52,2.24-12t-2.24-11.92a13.48,13.48,0,0,0-6.36-6.36,22.39,22.39,0,0,0-9.64-1.95h-3.42Z"/><path class="cls-4" d="M2888.6,2268.57a27.18,27.18,0,0,1-14.58-3.9,26,26,0,0,1-9.84-11.16,39.5,39.5,0,0,1-3.51-17.34q0-10.07,3.51-17.19a25.66,25.66,0,0,1,9.84-10.93,29.77,29.77,0,0,1,29.11,0,25.75,25.75,0,0,1,9.79,10.93q3.51,7.13,3.51,17.19a39.5,39.5,0,0,1-3.51,17.34,26.09,26.09,0,0,1-9.79,11.16A26.93,26.93,0,0,1,2888.6,2268.57Zm0-11.31a12.07,12.07,0,0,0,7.65-2.56,16.5,16.5,0,0,0,5.08-7.32,31.56,31.56,0,0,0,1.8-11.21,30.41,30.41,0,0,0-1.8-11.06,15.93,15.93,0,0,0-5.08-7.08,13.22,13.22,0,0,0-15.39,0,15.49,15.49,0,0,0-5,7.08,31.1,31.1,0,0,0-1.76,11.06,32.29,32.29,0,0,0,1.76,11.21,16.05,16.05,0,0,0,5,7.32A12.16,12.16,0,0,0,2888.6,2257.26Z"/><path class="cls-4" d="M1634.88,2362.23l-15.72-51.59h11.45l6.56,24.65c.84,2.9,1.57,5.67,2.17,8.33s1.31,5.44,2.1,8.34h.31c.85-2.9,1.58-5.68,2.22-8.34s1.31-5.43,2-8.33l6.48-24.65h11.06l-15.72,51.59Z"/><path class="cls-4" d="M1669.32,2362.23v-51.59h10.83v51.59Z"/><path class="cls-4" d="M1692.63,2362.23v-51.59h31.91v9.09h-21.09V2331h17.93v9.09h-17.93v13h21.88v9.09Z"/><path class="cls-4" d="M1735.68,2362.23v-51.59h18.17a31.5,31.5,0,0,1,9.88,1.46,14.43,14.43,0,0,1,7.07,4.9q2.64,3.43,2.64,9.44a16,16,0,0,1-2.64,9.48,15.37,15.37,0,0,1-7.07,5.45,26.78,26.78,0,0,1-9.88,1.74h-7.34v19.12Zm10.83-27.73h6.39q4.83,0,7.39-2a7.23,7.23,0,0,0,2.57-6q0-4-2.57-5.61t-7.39-1.58h-6.39Zm17.14,27.73-11.77-22,7.58-6.8,16.35,28.76Z"/><path class="cls-4" d="M1783.56,2362.23v-51.59h11.13l14.3,26.78,5.14,11.22h.31q-.39-4.11-.86-9t-.48-9.4v-19.59h10.27v51.59h-11.06l-14.3-26.78-5.21-11.22h-.32q.4,4.18.91,9a87.81,87.81,0,0,1,.51,9.24v19.75Z"/><path class="cls-4" d="M1835.85,2362.23v-51.59h31.92v9.09h-21.09V2331h17.93v9.09h-17.93v13h21.88v9.09Z"/><path class="cls-4" d="M1894.47,2363.18a27.78,27.78,0,0,1-10.07-1.94,27.1,27.1,0,0,1-8.89-5.57l6.24-7.42a22.47,22.47,0,0,0,6.2,4,16.68,16.68,0,0,0,6.76,1.51,9.69,9.69,0,0,0,5.84-1.47,4.76,4.76,0,0,0,2-4.06,4.07,4.07,0,0,0-1-2.89,9,9,0,0,0-2.68-1.89c-1.14-.56-2.47-1.15-4-1.78l-6.8-2.92a23.65,23.65,0,0,1-5-2.93,14.07,14.07,0,0,1-3.91-4.54,14.07,14.07,0,0,1,.82-14.1,16.72,16.72,0,0,1,6.4-5.45,20.35,20.35,0,0,1,9.29-2.06,23.28,23.28,0,0,1,8.8,1.74,22.48,22.48,0,0,1,7.55,5l-5.45,6.87a20.5,20.5,0,0,0-5.14-3.12,15.07,15.07,0,0,0-5.76-1.07,8.74,8.74,0,0,0-5.1,1.35,4.27,4.27,0,0,0-1.94,3.71,4,4,0,0,0,1,2.84,8.74,8.74,0,0,0,2.89,1.94c1.23.55,2.59,1.15,4.06,1.78l6.64,2.68a20.59,20.59,0,0,1,5.45,3.16,13.71,13.71,0,0,1,3.6,4.55,14.19,14.19,0,0,1,1.3,6.28,14.55,14.55,0,0,1-2.25,7.86,16,16,0,0,1-6.56,5.76A22.64,22.64,0,0,1,1894.47,2363.18Z"/><path class="cls-4" d="M1935.23,2362.23v-8.77h11.06v-30.34H1937v-6.71a39,39,0,0,0,6.76-1.78,32.63,32.63,0,0,0,5.41-2.65h8v41.48h9.56v8.77Z"/><path class="cls-4" d="M1973,2362.23v-8.77h11.06v-30.34h-9.33v-6.71a38.79,38.79,0,0,0,6.76-1.78,32.63,32.63,0,0,0,5.41-2.65h8v41.48h9.56v8.77Z"/><path class="cls-4" d="M2029.64,2362.23v-51.59h14.3a31.21,31.21,0,0,1,13.66,2.77,19.56,19.56,0,0,1,8.89,8.41q3.12,5.66,3.12,14.42t-3.12,14.53a20,20,0,0,1-8.73,8.61,28.78,28.78,0,0,1-13.19,2.85Zm10.82-8.77h2.85a17.5,17.5,0,0,0,8-1.74,11.82,11.82,0,0,0,5.3-5.49,22.8,22.8,0,0,0,1.85-10q0-6.24-1.85-9.92a11.24,11.24,0,0,0-5.3-5.29,18.59,18.59,0,0,0-8-1.62h-2.85Z"/><path class="cls-4" d="M2079.56,2362.23v-51.59h31.92v9.09h-21.09V2331h17.93v9.09h-17.93v13h21.88v9.09Z"/><path class="cls-4" d="M2138.42,2362.23v-51.59h11.93l8.61,23.7q.79,2.29,1.54,4.78t1.54,4.94h.32c.52-1.63,1-3.28,1.54-4.94s1-3.25,1.54-4.78l8.37-23.7h11.93v51.59h-9.87v-20.46c0-1.63.07-3.47.23-5.49s.34-4.07.56-6.13.39-3.89.55-5.53h-.32l-4.18,12.09-7.67,20.94h-6.16l-7.66-20.94-4.11-12.09h-.32q.24,2.46.56,5.53t.55,6.13c.16,2,.24,3.86.24,5.49v20.46Z"/><path class="cls-4" d="M2191.59,2362.23l16.43-51.59h12.87l16.36,51.59h-11.46l-7.11-26.55q-1.11-3.94-2.17-8.29c-.71-2.9-1.44-5.71-2.17-8.45H2214c-.63,2.74-1.3,5.55-2,8.45s-1.44,5.66-2.18,8.29l-7.18,26.55Zm10.42-12.88V2341h24.65v8.37Z"/><path class="cls-4" d="M2243.09,2362.23v-51.59h18.17a31.5,31.5,0,0,1,9.88,1.46,14.43,14.43,0,0,1,7.07,4.9q2.64,3.43,2.65,9.44a16,16,0,0,1-2.65,9.48,15.37,15.37,0,0,1-7.07,5.45,26.78,26.78,0,0,1-9.88,1.74h-7.34v19.12Zm10.83-27.73h6.39q4.83,0,7.39-2a7.23,7.23,0,0,0,2.57-6q0-4-2.57-5.61t-7.39-1.58h-6.39Zm17.14,27.73-11.77-22,7.58-6.8,16.35,28.76Z"/><path class="cls-4" d="M2286.86,2362.23v-6.56l23.54-35.94h-21.33v-9.09h34.68v6.56l-23.54,35.94h23.7v9.09Z"/><path class="cls-4" d="M2352,2363.18a22.6,22.6,0,0,1-12.12-3.24,21.69,21.69,0,0,1-8.18-9.28,32.83,32.83,0,0,1-2.92-14.42,32,32,0,0,1,2.92-14.3,21.29,21.29,0,0,1,8.18-9.09,24.77,24.77,0,0,1,24.21,0,21.4,21.4,0,0,1,8.14,9.09,32,32,0,0,1,2.92,14.3,32.83,32.83,0,0,1-2.92,14.42,21.8,21.8,0,0,1-8.14,9.28A22.43,22.43,0,0,1,2352,2363.18Zm0-9.4a10,10,0,0,0,6.36-2.14,13.62,13.62,0,0,0,4.23-6.08,26.21,26.21,0,0,0,1.5-9.32,25.32,25.32,0,0,0-1.5-9.21,13.13,13.13,0,0,0-4.23-5.88,10.25,10.25,0,0,0-6.36-2.06,10.42,10.42,0,0,0-6.44,2.06,12.91,12.91,0,0,0-4.18,5.88,25.8,25.8,0,0,0-1.46,9.21,26.71,26.71,0,0,0,1.46,9.32,13.39,13.39,0,0,0,4.18,6.08A10.18,10.18,0,0,0,2352,2353.78Z"/><path class="cls-4" d="M2398.09,2346.11v-7.74h19.2v7.74Z"/><path class="cls-4" d="M2439.64,2362.23v-8.77h11.06v-30.34h-9.32v-6.71a39,39,0,0,0,6.76-1.78,33,33,0,0,0,5.41-2.65h8v41.48h9.56v8.77Z"/><path class="cls-4" d="M2477.25,2362.23V2356q6.55-6.24,11.53-11.34a63.37,63.37,0,0,0,7.74-9.32,14.56,14.56,0,0,0,2.77-7.86,8.21,8.21,0,0,0-1.94-5.85,7.27,7.27,0,0,0-5.57-2,8.58,8.58,0,0,0-5,1.58,24.55,24.55,0,0,0-4.19,3.63l-5.93-5.84a28.73,28.73,0,0,1,7.47-5.89,19.36,19.36,0,0,1,9.12-2,17.93,17.93,0,0,1,8.58,2,14.36,14.36,0,0,1,5.72,5.53,16.3,16.3,0,0,1,2.06,8.3,18.48,18.48,0,0,1-2.37,8.77,52.66,52.66,0,0,1-6.2,9q-3.84,4.54-8.26,9.13c1.32-.16,2.75-.29,4.31-.4s2.93-.16,4.14-.16h10.83v9.09Z"/><path class="cls-4" d="M2527.1,2337.11a6.32,6.32,0,0,1-4.71-2,7.33,7.33,0,0,1,0-9.91,6.35,6.35,0,0,1,4.71-2,6.24,6.24,0,0,1,4.77,2,7.53,7.53,0,0,1,0,9.91A6.2,6.2,0,0,1,2527.1,2337.11Zm0,26.07a6.32,6.32,0,0,1-4.71-2,7.33,7.33,0,0,1,0-9.91,6.35,6.35,0,0,1,4.71-2,6.24,6.24,0,0,1,4.77,2,7.53,7.53,0,0,1,0,9.91A6.2,6.2,0,0,1,2527.1,2363.18Z"/><path class="cls-4" d="M2559.33,2363.18a15.07,15.07,0,0,1-12.88-6.76q-4.82-6.75-4.82-19.55t4.82-19.32a15.88,15.88,0,0,1,25.67,0q4.83,6.57,4.82,19.28t-4.82,19.55A15,15,0,0,1,2559.33,2363.18Zm0-8.38a5.35,5.35,0,0,0,3.75-1.58q1.7-1.57,2.69-5.49a47.11,47.11,0,0,0,1-10.86,45.12,45.12,0,0,0-1-10.67,10.59,10.59,0,0,0-2.69-5.29,5.53,5.53,0,0,0-3.75-1.5,5.61,5.61,0,0,0-3.83,1.5c-1.14,1-2,2.77-2.65,5.29a46.51,46.51,0,0,0-.95,10.67,48.56,48.56,0,0,0,.95,10.86q.95,3.92,2.65,5.49A5.43,5.43,0,0,0,2559.33,2354.8Z"/><path class="cls-4" d="M2600.64,2363.18a15.06,15.06,0,0,1-12.87-6.76q-4.83-6.75-4.82-19.55t4.82-19.32a15.88,15.88,0,0,1,25.67,0q4.82,6.57,4.82,19.28t-4.82,19.55A15,15,0,0,1,2600.64,2363.18Zm0-8.38a5.39,5.39,0,0,0,3.76-1.58q1.7-1.57,2.68-5.49a46.47,46.47,0,0,0,1-10.86,44.51,44.51,0,0,0-1-10.67c-.66-2.52-1.55-4.29-2.68-5.29a5.57,5.57,0,0,0-3.76-1.5,5.63,5.63,0,0,0-3.83,1.5c-1.13,1-2,2.77-2.64,5.29a46,46,0,0,0-1,10.67,48,48,0,0,0,1,10.86q.95,3.92,2.64,5.49A5.45,5.45,0,0,0,2600.64,2354.8Z"/><path class="cls-4" d="M2643.3,2362.23v-51.59h10.83v20.15h18.8v-20.15h10.82v51.59h-10.82v-22h-18.8v22Z"/><path class="cls-4" d="M2696.23,2362.23v-51.59h18.17a31.5,31.5,0,0,1,9.88,1.46,14.43,14.43,0,0,1,7.07,4.9q2.64,3.43,2.64,9.44a16,16,0,0,1-2.64,9.48,15.37,15.37,0,0,1-7.07,5.45,26.78,26.78,0,0,1-9.88,1.74h-7.34v19.12Zm10.83-27.73h6.4q4.82,0,7.38-2a7.23,7.23,0,0,0,2.57-6q0-4-2.57-5.61t-7.38-1.58h-6.4Zm17.14,27.73-11.77-22,7.58-6.8,16.36,28.76Z"/><path class="cls-4" d="M2758.56,2363.18a27.78,27.78,0,0,1-10.07-1.94,27.21,27.21,0,0,1-8.89-5.57l6.24-7.42a22.52,22.52,0,0,0,6.21,4,16.64,16.64,0,0,0,6.75,1.51,9.74,9.74,0,0,0,5.85-1.47,4.78,4.78,0,0,0,2-4.06,4.07,4.07,0,0,0-1-2.89,9,9,0,0,0-2.68-1.89c-1.14-.56-2.46-1.15-4-1.78l-6.8-2.92a23.9,23.9,0,0,1-5-2.93,14.07,14.07,0,0,1-3.91-4.54,13.34,13.34,0,0,1-1.5-6.52,13,13,0,0,1,2.33-7.58,16.57,16.57,0,0,1,6.4-5.45,20.28,20.28,0,0,1,9.28-2.06,23.33,23.33,0,0,1,8.81,1.74,22.43,22.43,0,0,1,7.54,5l-5.45,6.87a20.63,20.63,0,0,0-5.13-3.12,15.16,15.16,0,0,0-5.77-1.07,8.74,8.74,0,0,0-5.1,1.35,4.26,4.26,0,0,0-1.93,3.71,4,4,0,0,0,1,2.84,8.74,8.74,0,0,0,2.89,1.94c1.24.55,2.59,1.15,4.07,1.78l6.63,2.68a20.59,20.59,0,0,1,5.45,3.16,13.71,13.71,0,0,1,3.6,4.55,14.05,14.05,0,0,1,1.3,6.28,14.55,14.55,0,0,1-2.25,7.86,16,16,0,0,1-6.56,5.76A22.64,22.64,0,0,1,2758.56,2363.18Z"/></g></g></svg>