<svg xmlns="http://www.w3.org/2000/svg" xmlns:xlink="http://www.w3.org/1999/xlink" viewBox="0 0 4400 690"><defs><style>.cls-1{fill:none;}.cls-2{clip-path:url(#clip-path);}.cls-3{fill:#1c1917;}.cls-4{fill:#fff;}</style><clipPath id="clip-path"><rect class="cls-1" width="4400" height="690"/></clipPath></defs><title>CierreDeMesas</title><g id="Capa_2" data-name="Capa 2"><g id="Capa_1-2" data-name="Capa 1"><g class="cls-2"><rect class="cls-3" width="4400" height="690"/></g><path class="cls-4" d="M1241.81,457.89q-24.9,0-45.29-11.4t-32.71-33.9q-12.3-22.5-12.29-55.2,0-24.3,7.19-43.35a93.14,93.14,0,0,1,20-32.25,86.47,86.47,0,0,1,29.39-20.1,90.45,90.45,0,0,1,35-6.9q18.9,0,33.75,7.65A93,93,0,0,1,1301.21,280l-21.9,26.4a77.83,77.83,0,0,0-15.89-11.4,40.73,40.73,0,0,0-19.5-4.5,43.51,43.51,0,0,0-25.5,7.95q-11.42,7.95-18,22.5t-6.61,34.95q0,21,6,35.85t17.25,22.65q11.25,7.8,26.25,7.8a44.8,44.8,0,0,0,22.06-5.4,69.09,69.09,0,0,0,17.25-13.5l21.9,25.8a81.26,81.26,0,0,1-27.9,21.45A82.12,82.12,0,0,1,1241.81,457.89Z"/><path class="cls-4" d="M1335.11,454.29V258.39h41.1v195.9Z"/><path class="cls-4" d="M1423.61,454.29V258.39h121.2v34.5h-80.1v42.9h68.1v34.5h-68.1v49.5h83.1v34.5Z"/><path class="cls-4" d="M1587.11,454.29V258.39h69a119.11,119.11,0,0,1,37.5,5.55q16.8,5.55,26.85,18.6t10,35.85q0,21.9-10,36a58.37,58.37,0,0,1-26.85,20.7q-16.8,6.6-37.5,6.6h-27.9v72.6Zm41.1-105.3h24.3q18.3,0,28-7.65t9.75-22.95q0-15.3-9.75-21.3t-28-6h-24.3Zm65.1,105.3-44.7-83.4,28.8-25.8,62.1,109.2Z"/><path class="cls-4" d="M1768.91,454.29V258.39h69a119.16,119.16,0,0,1,37.5,5.55,54.62,54.62,0,0,1,26.85,18.6q10,13.05,10,35.85,0,21.9-10,36a58.47,58.47,0,0,1-26.85,20.7q-16.82,6.6-37.5,6.6H1810v72.6ZM1810,349h24.3q18.29,0,28-7.65t9.75-22.95q0-15.3-9.75-21.3t-28-6H1810Zm65.1,105.3-44.7-83.4,28.8-25.8,62.1,109.2Z"/><path class="cls-4" d="M1950.7,454.29V258.39h121.2v34.5h-80.1v42.9h68.1v34.5h-68.1v49.5h83.1v34.5Z"/><path class="cls-4" d="M2174.2,454.29V258.39h54.3q30,0,51.9,10.5a74.53,74.53,0,0,1,33.75,31.95Q2326,322.29,2326,355.59t-11.85,55.2q-11.85,21.9-33.15,32.7t-50.1,10.8Zm41.1-33.3h10.8q17.4,0,30.45-6.6t20.1-20.85q7-14.25,7-38t-7-37.65q-7.05-13.95-20.1-20.1t-30.45-6.15h-10.8Z"/><path class="cls-4" d="M2363.8,454.29V258.39H2485v34.5h-80.1v42.9H2473v34.5h-68.1v49.5H2488v34.5Z"/><path class="cls-4" d="M2587.3,454.29V258.39h45.3l32.7,90q3,8.7,5.85,18.15t5.85,18.75h1.2q3-9.3,5.85-18.75t5.85-18.15l31.8-90H2767v195.9h-37.5v-77.7q0-9.3.9-20.85t2.1-23.25q1.18-11.7,2.1-21h-1.2l-15.9,45.9-29.1,79.5H2665l-29.1-79.5-15.6-45.9h-1.2q.9,9.3,2.1,21t2.1,23.25q.9,11.55.9,20.85v77.7Z"/><path class="cls-4" d="M2814.39,454.29V258.39h121.2v34.5h-80.1v42.9h68.1v34.5h-68.1v49.5h83.1v34.5Z"/><path class="cls-4" d="M3037,457.89a105.77,105.77,0,0,1-38.25-7.35A103,103,0,0,1,2965,429.39l23.7-28.2a85.21,85.21,0,0,0,23.55,15.3,63.77,63.77,0,0,0,25.65,5.7q14.7,0,22.2-5.55t7.5-15.45q0-6.9-3.75-10.95a34.13,34.13,0,0,0-10.2-7.2q-6.45-3.15-15.15-6.75l-25.8-11.1a90,90,0,0,1-19.05-11.1,53.85,53.85,0,0,1-14.85-17.25q-5.7-10.35-5.7-24.75a49.76,49.76,0,0,1,8.85-28.8,63.4,63.4,0,0,1,24.3-20.7q15.45-7.8,35.25-7.8a88.62,88.62,0,0,1,33.45,6.6,85.16,85.16,0,0,1,28.65,18.9l-20.7,26.1a77.79,77.79,0,0,0-19.5-11.85,57.32,57.32,0,0,0-21.9-4.05q-12,0-19.35,5.1a16.23,16.23,0,0,0-7.35,14.1,15.24,15.24,0,0,0,3.9,10.8,33.23,33.23,0,0,0,10.95,7.35q7.05,3.15,15.45,6.75l25.2,10.2a77.09,77.09,0,0,1,20.7,12A52,52,0,0,1,3104.64,374q5,10.05,5,23.85a55.15,55.15,0,0,1-8.55,29.85q-8.55,13.65-24.9,21.9T3037,457.89Z"/><path class="cls-4" d="M3118.29,454.29l62.4-195.9h48.9l62.1,195.9h-43.5l-27-100.8q-4.21-15-8.25-31.5t-8.25-32.1h-1.2q-3.6,15.6-7.65,32.1t-8.25,31.5l-27.3,100.8Zm39.6-48.9v-31.8h93.6v31.8Z"/><path class="cls-4" d="M3373,457.89a105.69,105.69,0,0,1-38.25-7.35A102.78,102.78,0,0,1,3301,429.39l23.7-28.2a85.07,85.07,0,0,0,23.55,15.3,63.77,63.77,0,0,0,25.65,5.7q14.68,0,22.2-5.55t7.5-15.45c0-4.6-1.26-8.25-3.75-10.95a34.39,34.39,0,0,0-10.2-7.2q-6.46-3.15-15.15-6.75l-25.8-11.1a89.74,89.74,0,0,1-19.05-11.1,53.6,53.6,0,0,1-14.85-17.25q-5.72-10.35-5.7-24.75a49.69,49.69,0,0,1,8.85-28.8q8.83-12.9,24.3-20.7t35.25-7.8a88.65,88.65,0,0,1,33.45,6.6,85.36,85.36,0,0,1,28.65,18.9l-20.7,26.1a78,78,0,0,0-19.5-11.85,57.36,57.36,0,0,0-21.9-4.05q-12,0-19.35,5.1a16.21,16.21,0,0,0-7.35,14.1,15.2,15.2,0,0,0,3.9,10.8,33,33,0,0,0,10.95,7.35q7,3.15,15.45,6.75l25.2,10.2a77.4,77.4,0,0,1,20.7,12A52.09,52.09,0,0,1,3440.64,374q5,10.05,5,23.85a55.15,55.15,0,0,1-8.55,29.85q-8.55,13.65-24.9,21.9T3373,457.89Z"/></g></g></svg>