<svg xmlns="http://www.w3.org/2000/svg" xmlns:xlink="http://www.w3.org/1999/xlink" viewBox="0 0 4400 690"><defs><style>.cls-1{fill:none;}.cls-2{clip-path:url(#clip-path);}.cls-3{fill:#1c1917;}.cls-4{fill:#fff;}</style><clipPath id="clip-path"><rect class="cls-1" width="4400" height="690"/></clipPath></defs><title>ContadorDEBATE_ANATEL</title><g id="Capa_2" data-name="Capa 2"><g id="Capa_1-2" data-name="Capa 1"><g class="cls-2"><rect class="cls-3" width="4400" height="690"/></g><path class="cls-4" d="M1186.46,438.75V242.85h54.3q30,0,51.9,10.5a74.53,74.53,0,0,1,33.75,32q11.85,21.45,11.85,54.75t-11.85,55.2q-11.85,21.9-33.15,32.7t-50.1,10.8Zm41.1-33.3h10.8q17.4,0,30.45-6.6t20.1-20.85q7-14.25,7-37.95t-7-37.65q-7-13.95-20.1-20.1t-30.45-6.15h-10.8Z"/><path class="cls-4" d="M1376.06,438.75V242.85h121.2v34.5h-80.1v42.9h68.1v34.5h-68.1v49.5h83.1v34.5Z"/><path class="cls-4" d="M1539.56,438.75V242.85h65.7a135.66,135.66,0,0,1,36.3,4.5q16.2,4.5,25.65,15t9.45,29.1a50.71,50.71,0,0,1-7.05,25.5q-7.06,12.3-19.35,16.8V335a49.09,49.09,0,0,1,26,15q10.35,11.4,10.35,31.2t-10.2,32.55q-10.21,12.75-27.3,18.9t-38.4,6.15Zm41.1-116.7h22.2q17.39,0,25.5-6.6t8.1-18q0-12.3-8.25-17.55t-25-5.25h-22.5Zm0,84.9h26.4q19.18,0,29.25-7.05t10-21.45q0-13.5-9.9-19.65t-29.4-6.15h-26.4Z"/><path class="cls-4" d="M1695.26,438.75l62.4-195.9h48.9l62.1,195.9h-43.5l-27-100.8q-4.22-15-8.25-31.5t-8.25-32.1h-1.2q-3.6,15.6-7.65,32.1t-8.25,31.5l-27.3,100.8Zm39.6-48.9v-31.8h93.6v31.8Z"/><path class="cls-4" d="M1908.56,438.75V277.35H1854v-34.5h150.6v34.5h-54.9v161.4Z"/><path class="cls-4" d="M2035.75,438.75V242.85H2157v34.5h-80.1v42.9H2145v34.5h-68.1v49.5H2160v34.5Z"/><path class="cls-4" d="M2234.05,438.75l62.4-195.9h48.9l62.1,195.9H2364L2337,338q-4.2-15-8.25-31.5t-8.25-32.1h-1.2q-3.6,15.6-7.65,32.1t-8.25,31.5l-27.3,100.8Zm39.6-48.9v-31.8h93.6v31.8Z"/><path class="cls-4" d="M2429.65,438.75V242.85H2472l54.3,101.7,19.5,42.6h1.2q-1.5-15.6-3.3-34.2t-1.8-35.7v-74.4h39v195.9h-42l-54.3-101.7-19.8-42.6h-1.2q1.5,15.9,3.45,34.2a331.59,331.59,0,0,1,1.95,35.1v75Z"/><path class="cls-4" d="M2603.05,438.75l62.4-195.9h48.9l62.1,195.9H2733L2706,338q-4.22-15-8.25-31.5t-8.25-32.1h-1.2q-3.6,15.6-7.65,32.1t-8.25,31.5l-27.3,100.8Zm39.6-48.9v-31.8h93.6v31.8Z"/><path class="cls-4" d="M2816.35,438.75V277.35h-54.6v-34.5h150.6v34.5h-54.9v161.4Z"/><path class="cls-4" d="M2943.55,438.75V242.85h121.2v34.5h-80.1v42.9h68.1v34.5h-68.1v49.5h83.1v34.5Z"/><path class="cls-4" d="M3107,438.75V242.85h41.1v161.4h78.6v34.5Z"/></g></g></svg>