<svg xmlns="http://www.w3.org/2000/svg" xmlns:xlink="http://www.w3.org/1999/xlink" viewBox="0 0 4400 690"><defs><style>.cls-1{fill:none;}.cls-2{clip-path:url(#clip-path);}.cls-3{fill:#1c1917;}.cls-4{fill:#fff;}</style><clipPath id="clip-path"><rect class="cls-1" width="4400" height="690"/></clipPath></defs><title>ContadorPiñera_Cafe</title><g id="Capa_2" data-name="Capa 2"><g id="Capa_1-2" data-name="Capa 1"><g class="cls-2"><rect class="cls-3" width="4400" height="690"/></g><path class="cls-4" d="M797.51,438.75V242.85h121.8v34.5h-80.7v48.9h69v34.5h-69v78Z"/><path class="cls-4" d="M953.51,438.75V242.85h41.1v195.9Z"/><path class="cls-4" d="M1042,438.75V242.85h42.3l54.3,101.7,19.5,42.6h1.2q-1.5-15.6-3.3-34.2t-1.8-35.7v-74.4h39v195.9h-42l-54.3-101.7-19.8-42.6h-1.2q1.5,15.9,3.45,34.2a331.59,331.59,0,0,1,2,35.1v75Z"/><path class="cls-4" d="M1300.61,438.75V242.85h54.3q30,0,51.9,10.5a74.62,74.62,0,0,1,33.75,32q11.84,21.45,11.85,54.75t-11.85,55.2q-11.86,21.9-33.15,32.7t-50.1,10.8Zm41.1-33.3h10.8q17.38,0,30.45-6.6t20.1-20.85q7-14.25,7-37.95t-7-37.65q-7.07-13.95-20.1-20.1t-30.45-6.15h-10.8Z"/><path class="cls-4" d="M1490.2,438.75V242.85h121.2v34.5h-80.1v42.9h68.1v34.5h-68.1v49.5h83.1v34.5Z"/><path class="cls-4" d="M1713.7,438.75V242.85h41.1v161.4h78.6v34.5Z"/><path class="cls-4" d="M1840.9,438.75l62.4-195.9h48.9l62.1,195.9h-43.5l-27-100.8q-4.2-15-8.25-31.5t-8.25-32.1h-1.2q-3.6,15.6-7.65,32.1T1910.2,338l-27.3,100.8Zm39.6-48.9v-31.8h93.6v31.8Z"/><path class="cls-4" d="M2096.5,438.75V242.85h121.2v34.5h-80.1v42.9h68.1v34.5h-68.1v49.5h83.1v34.5Z"/><path class="cls-4" d="M2260,438.75V242.85h69a119.16,119.16,0,0,1,37.5,5.55,54.54,54.54,0,0,1,26.84,18.6q10,13,10.06,35.85,0,21.9-10.06,36a58.4,58.4,0,0,1-26.84,20.7q-16.82,6.6-37.5,6.6h-27.91v72.6Zm41.09-105.3h24.31q18.29,0,28-7.65t9.75-22.95q0-15.3-9.75-21.3t-28-6h-24.31Zm65.11,105.3-44.7-83.4,28.8-25.8,62.1,109.2Z"/><path class="cls-4" d="M2414.5,438.75l62.4-195.9h48.9l62.1,195.9h-43.5l-27-100.8q-4.21-15-8.25-31.5t-8.25-32.1h-1.2q-3.6,15.6-7.65,32.1T2483.8,338l-27.3,100.8Zm39.59-48.9v-31.8h93.61v31.8Z"/><path class="cls-4" d="M2670.09,438.75V242.85h65.4q21.6,0,39,5.85t27.75,19.35q10.35,13.5,10.35,36.9,0,22.5-10.2,37.05a59.81,59.81,0,0,1-27.45,21.45,102.14,102.14,0,0,1-38.25,6.9h-25.5v68.4Zm41.1-101.1H2734q19.5,0,29-8.25t9.45-24.45q0-16.2-10-22.8t-29.55-6.6h-21.6Z"/><path class="cls-4" d="M2847.69,438.75V242.85h41.1v195.9Z"/><path class="cls-4" d="M2936.19,438.75V242.85h42.3l54.3,101.7,19.5,42.6h1.2q-1.5-15.6-3.3-34.2t-1.8-35.7v-74.4h39v195.9h-42l-54.3-101.7-19.8-42.6h-1.2q1.5,15.9,3.45,34.2a331.59,331.59,0,0,1,1.95,35.1v75Zm97.8-208.5a34.11,34.11,0,0,1-14.1-2.7,62.12,62.12,0,0,1-10.8-6.15q-4.8-3.45-8.85-6.3a13.82,13.82,0,0,0-7.95-2.85,10,10,0,0,0-7.65,3.45q-3.15,3.45-4,12.15l-26.4-2.1q1.2-21.9,11.25-31.95t25.35-10.05a35.17,35.17,0,0,1,14.25,2.7A60.07,60.07,0,0,1,3016,192.6q4.8,3.45,8.85,6.15a14.32,14.32,0,0,0,7.95,2.7,9.67,9.67,0,0,0,7.35-3.45q3.15-3.45,4.05-11.85l26.7,1.8q-1.2,21.9-11.4,32.1T3034,230.25Z"/><path class="cls-4" d="M3134.79,438.75V242.85H3256v34.5h-80.1v42.9H3244v34.5h-68.1v49.5H3259v34.5Z"/><path class="cls-4" d="M3298.29,438.75V242.85h69a119.16,119.16,0,0,1,37.5,5.55,54.62,54.62,0,0,1,26.85,18.6q10,13,10.05,35.85,0,21.9-10.05,36a58.47,58.47,0,0,1-26.85,20.7q-16.82,6.6-37.5,6.6h-27.9v72.6Zm41.1-105.3h24.3q18.29,0,28-7.65t9.75-22.95q0-15.3-9.75-21.3t-28-6h-24.3Zm65.1,105.3-44.7-83.4,28.8-25.8,62.1,109.2Z"/><path class="cls-4" d="M3452.79,438.75l62.4-195.9h48.9l62.1,195.9h-43.5l-27-100.8q-4.21-15-8.25-31.5t-8.25-32.1H3538q-3.6,15.6-7.65,32.1t-8.25,31.5l-27.3,100.8Zm39.6-48.9v-31.8H3586v31.8Z"/></g></g></svg>