<svg xmlns="http://www.w3.org/2000/svg" xmlns:xlink="http://www.w3.org/1999/xlink" viewBox="0 0 4400 690"><defs><style>.cls-1{clip-path:url(#clip-path);}.cls-2{fill:#fff;}</style><clipPath id="clip-path"><rect width="4400" height="690"/></clipPath></defs><title>Contador_Para_2022</title><g id="Capa_2" data-name="Capa 2"><g id="Capa_1-2" data-name="Capa 1"><rect width="4400" height="690"/><g class="cls-1"><rect width="4400" height="690"/></g><path class="cls-2" d="M1153.31,442.35a105.56,105.56,0,0,1-38.25-7.35,103,103,0,0,1-33.75-21.15l23.7-28.2a85.21,85.21,0,0,0,23.55,15.3,63.77,63.77,0,0,0,25.65,5.7q14.7,0,22.2-5.55t7.5-15.45q0-6.9-3.75-10.95a34.13,34.13,0,0,0-10.2-7.2q-6.45-3.15-15.15-6.75l-25.8-11.1a90,90,0,0,1-19-11.1,53.85,53.85,0,0,1-14.85-17.25q-5.7-10.35-5.7-24.75a49.76,49.76,0,0,1,8.85-28.8,63.4,63.4,0,0,1,24.3-20.7q15.45-7.8,35.25-7.8a88.62,88.62,0,0,1,33.45,6.6,85.16,85.16,0,0,1,28.65,18.9l-20.7,26.1a77.79,77.79,0,0,0-19.5-11.85,57.32,57.32,0,0,0-21.9-4.05q-12,0-19.35,5.1a16.23,16.23,0,0,0-7.35,14.1A15.24,15.24,0,0,0,1135,305a33.23,33.23,0,0,0,11,7.35q7.05,3.15,15.45,6.75l25.2,10.2a77.09,77.09,0,0,1,20.7,12A52,52,0,0,1,1221,358.5q4.95,10,5,23.85a55.15,55.15,0,0,1-8.55,29.85q-8.55,13.65-24.9,21.9T1153.31,442.35Z"/><path class="cls-2" d="M1259.81,438.75V242.85H1381v34.5h-80.1v42.9H1369v34.5h-68.1v49.5H1384v34.5Z"/><path class="cls-2" d="M1522,438.75V277.35h-54.6v-34.5H1618v34.5h-54.9v161.4Z"/><path class="cls-2" d="M1649.21,438.75V242.85h121.2v34.5h-80.1v42.9h68.1v34.5h-68.1v49.5h83.1v34.5Z"/><path class="cls-2" d="M1812.71,438.75V242.85h69a119.16,119.16,0,0,1,37.5,5.55,54.62,54.62,0,0,1,26.85,18.6q10,13,10,35.85,0,21.9-10,36a58.47,58.47,0,0,1-26.85,20.7q-16.82,6.6-37.5,6.6h-27.9v72.6Zm41.1-105.3h24.3q18.29,0,28.05-7.65t9.75-22.95q0-15.3-9.75-21.3t-28.05-6h-24.3Zm65.1,105.3-44.7-83.4,28.8-25.8,62.1,109.2Z"/><path class="cls-2" d="M1994.5,438.75V242.85h45.3l32.7,90q3,8.7,5.85,18.15t5.85,18.75h1.2q3-9.3,5.85-18.75t5.85-18.15l31.8-90h45.3v195.9h-37.5v-77.7q0-9.3.9-20.85t2.1-23.25q1.2-11.7,2.1-21h-1.2l-15.9,45.9-29.1,79.5h-23.4l-29.1-79.5L2027.5,296h-1.2q.9,9.3,2.1,21t2.1,23.25q.9,11.55.9,20.85v77.7Z"/><path class="cls-2" d="M2221.6,438.75V242.85h41.1v195.9Z"/><path class="cls-2" d="M2310.1,438.75V242.85h42.3l54.3,101.7,19.5,42.6h1.2q-1.5-15.6-3.3-34.2t-1.8-35.7v-74.4h39v195.9h-42L2365,337.05l-19.8-42.6H2344q1.5,15.9,3.45,34.2a331.59,331.59,0,0,1,2,35.1v75Z"/><path class="cls-2" d="M2483.49,438.75l62.4-195.9h48.9l62.1,195.9h-43.5l-27-100.8q-4.2-15-8.25-31.5t-8.25-32.1h-1.2q-3.6,15.6-7.65,32.1t-8.25,31.5l-27.3,100.8Zm39.6-48.9v-31.8h93.6v31.8Z"/><path class="cls-2" d="M2726.79,438.75v-23.7q24.9-23.7,43.8-43.05t29.4-35.4q10.5-16.05,10.5-29.85,0-14.4-7.35-22.2t-21.15-7.8a32.62,32.62,0,0,0-18.9,6,94.9,94.9,0,0,0-15.9,13.8l-22.5-22.2q13.8-14.7,28.35-22.35t34.65-7.65q18.6,0,32.55,7.5a54.29,54.29,0,0,1,21.75,21q7.8,13.5,7.8,31.5,0,16.5-9,33.3a199.08,199.08,0,0,1-23.55,34.05q-14.55,17.25-31.35,34.65,7.5-.9,16.35-1.5t15.75-.6h41.1v34.5Z"/><path class="cls-2" d="M2950.89,442.35q-30.6,0-48.9-25.65t-18.3-74.25q0-48.6,18.3-73.35t48.9-24.75q30.3,0,48.6,24.9t18.3,73.2q0,48.6-18.3,74.25T2950.89,442.35Zm0-31.8q7.8,0,14.25-6t10.2-20.85q3.75-14.85,3.75-41.25,0-26.1-3.75-40.5t-10.2-20.1a21,21,0,0,0-14.25-5.7,21.4,21.4,0,0,0-14.55,5.7q-6.45,5.7-10.05,20.1t-3.6,40.5q0,26.4,3.6,41.25t10.05,20.85A20.82,20.82,0,0,0,2950.89,410.55Z"/><path class="cls-2" d="M3040.59,438.75v-23.7q24.9-23.7,43.8-43.05t29.4-35.4q10.5-16.05,10.5-29.85,0-14.4-7.35-22.2t-21.15-7.8a32.62,32.62,0,0,0-18.9,6,94.9,94.9,0,0,0-15.9,13.8l-22.5-22.2q13.78-14.7,28.35-22.35t34.65-7.65q18.6,0,32.55,7.5a54.29,54.29,0,0,1,21.75,21q7.8,13.5,7.8,31.5,0,16.5-9,33.3A199.08,199.08,0,0,1,3131,371.7q-14.55,17.25-31.35,34.65c5-.6,10.45-1.1,16.35-1.5s11.14-.6,15.75-.6h41.1v34.5Z"/><path class="cls-2" d="M3198.09,438.75v-33.3h42V290.25h-35.4v-25.5a145.56,145.56,0,0,0,25.65-6.75A126.38,126.38,0,0,0,3250.89,248h30.3v157.5h36.3v33.3Z"/></g></g></svg>