<svg xmlns="http://www.w3.org/2000/svg" xmlns:xlink="http://www.w3.org/1999/xlink" viewBox="0 0 4400 690"><defs><style>.cls-1{fill:none;}.cls-2{clip-path:url(#clip-path);}.cls-3{fill:#1c1917;}.cls-4{fill:#fff;}</style><clipPath id="clip-path"><rect class="cls-1" width="4400" height="690"/></clipPath></defs><title>ContadorDEBATE_ANATEL_2</title><g id="Capa_2" data-name="Capa 2"><g id="Capa_1-2" data-name="Capa 1"><g class="cls-2"><rect class="cls-3" width="4400" height="690"/></g><path class="cls-4" d="M306.63,430.31V252h49.42q27.29,0,47.22,9.56A67.88,67.88,0,0,1,434,290.67q10.77,19.53,10.78,49.83T434,390.73a69.53,69.53,0,0,1-30.17,29.75q-19.38,9.84-45.59,9.83ZM344,400h9.83q15.83,0,27.71-6t18.29-19q6.42-13,6.42-34.53t-6.42-34.27q-6.42-12.69-18.29-18.29t-27.71-5.59H344Z"/><path class="cls-4" d="M479.16,430.31V252h110.3v31.4H516.57v39h62v31.39h-62v45.05h75.62v31.39Z"/><path class="cls-4" d="M628,430.31V252h59.79a123.4,123.4,0,0,1,33,4.1q14.75,4.1,23.34,13.65t8.6,26.48a46.13,46.13,0,0,1-6.41,23.21q-6.42,11.19-17.61,15.28v1.09a44.67,44.67,0,0,1,23.61,13.66q9.42,10.37,9.42,28.39t-9.28,29.62q-9.29,11.61-24.85,17.2t-34.94,5.59Zm37.4-106.19h20.2q15.84,0,23.21-6t7.37-16.38q0-11.19-7.51-16T685.83,281H665.35Zm0,77.26h24q17.48,0,26.62-6.42t9.15-19.52q0-12.29-9-17.88T689.37,352h-24Z"/><path class="cls-4" d="M769.64,430.31,826.42,252h44.5l56.51,178.27H887.85l-24.58-91.72q-3.82-13.65-7.5-28.67t-7.51-29.21h-1.09q-3.28,14.19-7,29.21t-7.51,28.67l-24.84,91.72Zm36-44.5V356.88h85.18v28.93Z"/><path class="cls-4" d="M963.74,430.31V283.44H914.05V252h137v31.4h-50V430.31Z"/><path class="cls-4" d="M1079.49,430.31V252h110.29v31.4h-72.89v39h62v31.39h-62v45.05h75.62v31.39Z"/><path class="cls-4" d="M1282.87,430.31V252h59.52a111,111,0,0,1,35.49,5.33A51.71,51.71,0,0,1,1403.13,275q9.42,12.28,9.42,33.58,0,20.47-9.28,33.71a54.41,54.41,0,0,1-25,19.52,92.9,92.9,0,0,1-34.81,6.28h-23.21v62.24Zm37.4-92H1341q17.74,0,26.35-7.5t8.6-22.25q0-14.74-9.15-20.75t-26.89-6h-19.66Z"/><path class="cls-4" d="M1444.49,430.31V252h62.79a108.55,108.55,0,0,1,34.12,5A49.67,49.67,0,0,1,1565.84,274q9.14,11.88,9.14,32.62,0,19.94-9.14,32.76a53.1,53.1,0,0,1-24.44,18.84,92.46,92.46,0,0,1-34.12,6h-25.39v66.06Zm37.4-95.82H1504q16.65,0,25.53-7t8.87-20.89q0-13.92-8.87-19.38T1504,281.8h-22.11Zm59.24,95.82-40.68-75.89,26.21-23.48,56.51,99.37Z"/><path class="cls-4" d="M1609.92,430.31V252h110.29v31.4h-72.89v39h62v31.39h-62v45.05h75.62v31.39Z"/><path class="cls-4" d="M1812.49,433.59a96.06,96.06,0,0,1-34.81-6.69A93.48,93.48,0,0,1,1747,407.65L1768.53,382A77.48,77.48,0,0,0,1790,395.92a58.1,58.1,0,0,0,23.34,5.18q13.37,0,20.2-5.05t6.82-14.06c0-4.18-1.13-7.51-3.41-10a31.08,31.08,0,0,0-9.28-6.55q-5.88-2.88-13.79-6.15l-23.48-10.1a81.46,81.46,0,0,1-17.33-10.1,48.84,48.84,0,0,1-13.51-15.7q-5.19-9.42-5.19-22.52a45.3,45.3,0,0,1,8.05-26.21,57.69,57.69,0,0,1,22.12-18.83q14.06-7.1,32.07-7.1a80.7,80.7,0,0,1,30.44,6,77.58,77.58,0,0,1,26.07,17.2l-18.83,23.75a71,71,0,0,0-17.75-10.78,52.09,52.09,0,0,0-19.93-3.68q-10.92,0-17.61,4.64a14.76,14.76,0,0,0-6.68,12.83,13.91,13.91,0,0,0,3.54,9.83,30.23,30.23,0,0,0,10,6.68q6.4,2.86,14.06,6.15l22.93,9.28a70.1,70.1,0,0,1,18.84,10.92,47.35,47.35,0,0,1,12.42,15.7q4.5,9.15,4.5,21.7a50.14,50.14,0,0,1-7.78,27.16q-7.77,12.44-22.66,19.93T1812.49,433.59Z"/><path class="cls-4" d="M1909.4,430.31V252h37.4V430.31Z"/><path class="cls-4" d="M1989.93,430.31V252h49.42q27.29,0,47.23,9.56a67.85,67.85,0,0,1,30.71,29.07q10.78,19.53,10.78,49.83t-10.78,50.23a69.48,69.48,0,0,1-30.17,29.75q-19.38,9.84-45.59,9.83Zm37.4-30.3h9.83q15.84,0,27.71-6t18.29-19q6.42-13,6.42-34.53t-6.42-34.27q-6.4-12.69-18.29-18.29t-27.71-5.59h-9.83Z"/><path class="cls-4" d="M2162.47,430.31V252h110.29v31.4h-72.89v39h62v31.39h-62v45.05h75.62v31.39Z"/><path class="cls-4" d="M2311.25,430.31V252h38.49l49.42,92.55,17.74,38.77H2418q-1.36-14.19-3-31.13t-1.64-32.48V252h35.49V430.31h-38.22l-49.41-92.54-18-38.77h-1.09q1.37,14.47,3.14,31.12a302.63,302.63,0,0,1,1.77,31.94v68.25Z"/><path class="cls-4" d="M2565.41,433.59a83.07,83.07,0,0,1-41.22-10.37q-18.57-10.38-29.76-30.85t-11.19-50.24q0-22.11,6.55-39.44a84.84,84.84,0,0,1,18.15-29.35,78.92,78.92,0,0,1,26.76-18.29,82.17,82.17,0,0,1,31.8-6.28q17.2,0,30.72,7a84.56,84.56,0,0,1,22.24,16l-19.92,24a71.28,71.28,0,0,0-14.47-10.37,37.06,37.06,0,0,0-17.75-4.09,39.63,39.63,0,0,0-23.2,7.23q-10.38,7.23-16.38,20.47t-6,31.81q0,19.11,5.46,32.62t15.7,20.61a43.6,43.6,0,0,0,44,2.19,62.62,62.62,0,0,0,15.7-12.29l19.93,23.48a73.78,73.78,0,0,1-25.39,19.52A74.54,74.54,0,0,1,2565.41,433.59Z"/><path class="cls-4" d="M2650.31,430.31V252h37.4V430.31Z"/><path class="cls-4" d="M2707.91,430.31,2764.7,252h44.5l56.51,178.27h-39.59l-24.57-91.72q-3.83-13.65-7.51-28.67t-7.5-29.21h-1.1q-3.27,14.19-7,29.21t-7.5,28.67l-24.85,91.72Zm36-44.5V356.88h85.17v28.93Z"/><path class="cls-4" d="M2885.91,430.31V252h37.4V398.92h71.52v31.39Z"/><path class="cls-4" d="M3070.72,374.62V347.87h66.34v26.75Z"/><path class="cls-4" d="M3202,430.31,3258.82,252h44.5l56.51,178.27h-39.59l-24.57-91.72q-3.83-13.65-7.51-28.67t-7.5-29.21h-1.09q-3.29,14.19-7,29.21t-7.5,28.67l-24.85,91.72Zm36-44.5V356.88h85.17v28.93Z"/><path class="cls-4" d="M3380,430.31V252h38.49l49.41,92.55,17.75,38.77h1.09q-1.36-14.19-3-31.13t-1.64-32.48V252h35.49V430.31H3479.4L3430,337.77,3412,299h-1.09q1.35,14.47,3.14,31.12a302.63,302.63,0,0,1,1.77,31.94v68.25Z"/><path class="cls-4" d="M3537.82,430.31,3594.6,252h44.5l56.51,178.27H3656l-24.57-91.72q-3.83-13.65-7.51-28.67t-7.51-29.21h-1.09q-3.27,14.19-7,29.21t-7.51,28.67L3576,430.31Zm36-44.5V356.88H3659v28.93Z"/><path class="cls-4" d="M3731.92,430.31V283.44h-49.68V252h137v31.4h-50V430.31Z"/><path class="cls-4" d="M3847.67,430.31V252H3958v31.4h-72.89v39h62v31.39h-62v45.05h75.62v31.39Z"/><path class="cls-4" d="M3996.46,430.31V252h37.4V398.92h71.52v31.39Z"/></g></g></svg>