<svg xmlns="http://www.w3.org/2000/svg" xmlns:xlink="http://www.w3.org/1999/xlink" viewBox="0 0 4400 690"><defs><style>.cls-1{clip-path:url(#clip-path);}.cls-2{fill:#fff;}</style><clipPath id="clip-path"><rect width="4400" height="690"/></clipPath></defs><title>ContadorPiñera_Negro</title><g id="Capa_2" data-name="Capa 2"><g id="Capa_1-2" data-name="Capa 1"><rect width="4400" height="690"/><g class="cls-1"><rect width="4400" height="690"/></g><path class="cls-2" d="M1090,438.75V242.85h65.4q21.6,0,39,5.85t27.75,19.35q10.35,13.5,10.35,36.9,0,22.5-10.2,37.05a59.81,59.81,0,0,1-27.45,21.45,102.14,102.14,0,0,1-38.25,6.9h-25.5v68.4Zm41.1-101.1h22.8q19.5,0,28.95-8.25t9.45-24.45q0-16.2-10-22.8t-29.55-6.6h-21.6Z"/><path class="cls-2" d="M1267.61,438.75V242.85h41.1v195.9Z"/><path class="cls-2" d="M1356.11,438.75V242.85h42.3l54.3,101.7,19.5,42.6h1.2q-1.5-15.6-3.3-34.2t-1.8-35.7v-74.4h39v195.9h-42L1411,337.05l-19.8-42.6H1390q1.5,15.9,3.45,34.2a331.59,331.59,0,0,1,2,35.1v75Zm97.8-208.5a34.11,34.11,0,0,1-14.1-2.7,62.12,62.12,0,0,1-10.8-6.15q-4.8-3.45-8.85-6.3a13.82,13.82,0,0,0-8-2.85,10,10,0,0,0-7.65,3.45q-3.15,3.45-4,12.15l-26.4-2.1q1.2-21.9,11.25-31.95t25.35-10.05a35.17,35.17,0,0,1,14.25,2.7,60.07,60.07,0,0,1,11,6.15q4.8,3.45,8.85,6.15a14.32,14.32,0,0,0,8,2.7,9.67,9.67,0,0,0,7.35-3.45q3.15-3.45,4-11.85l26.7,1.8q-1.2,21.9-11.4,32.1T1453.91,230.25Z"/><path class="cls-2" d="M1554.71,438.75V242.85h121.2v34.5h-80.1v42.9h68.1v34.5h-68.1v49.5h83.1v34.5Z"/><path class="cls-2" d="M1718.21,438.75V242.85h69a119.11,119.11,0,0,1,37.5,5.55,54.57,54.57,0,0,1,26.85,18.6q10.05,13,10,35.85,0,21.9-10,36a58.42,58.42,0,0,1-26.85,20.7q-16.8,6.6-37.5,6.6h-27.9v72.6Zm41.1-105.3h24.3q18.29,0,28.05-7.65t9.75-22.95q0-15.3-9.75-21.3t-28.05-6h-24.3Zm65.1,105.3-44.7-83.4,28.8-25.8,62.1,109.2Z"/><path class="cls-2" d="M1872.71,438.75l62.4-195.9H1984l62.1,195.9h-43.5l-27-100.8q-4.21-15-8.25-31.5t-8.25-32.1h-1.2q-3.6,15.6-7.65,32.1T1942,338l-27.3,100.8Zm39.6-48.9v-31.8h93.6v31.8Z"/><path class="cls-2" d="M2187.4,442.35a105.56,105.56,0,0,1-38.25-7.35,103,103,0,0,1-33.75-21.15l23.7-28.2a85.21,85.21,0,0,0,23.55,15.3,63.77,63.77,0,0,0,25.65,5.7q14.7,0,22.2-5.55t7.5-15.45q0-6.9-3.75-10.95a34.13,34.13,0,0,0-10.2-7.2q-6.45-3.15-15.15-6.75l-25.8-11.1a90,90,0,0,1-19-11.1,53.85,53.85,0,0,1-14.85-17.25q-5.7-10.35-5.7-24.75a49.76,49.76,0,0,1,8.85-28.8,63.4,63.4,0,0,1,24.3-20.7q15.45-7.8,35.25-7.8a88.62,88.62,0,0,1,33.45,6.6,85.16,85.16,0,0,1,28.65,18.9l-20.7,26.1A77.79,77.79,0,0,0,2213.8,279a57.32,57.32,0,0,0-21.9-4.05q-12,0-19.35,5.1a16.23,16.23,0,0,0-7.35,14.1,15.24,15.24,0,0,0,3.9,10.8,33.23,33.23,0,0,0,11,7.35q7,3.15,15.45,6.75l25.2,10.2a77.09,77.09,0,0,1,20.7,12,52,52,0,0,1,13.65,17.25q4.95,10,4.95,23.85a55.15,55.15,0,0,1-8.55,29.85q-8.55,13.65-24.9,21.9T2187.4,442.35Z"/><path class="cls-2" d="M2293.9,438.75V242.85h121.2v34.5H2335v42.9h68.1v34.5H2335v49.5h83.1v34.5Z"/><path class="cls-2" d="M2551.6,438.75l-59.7-195.9h43.5l24.9,93.6q4.8,16.5,8.25,31.65t7.95,31.65h1.2q4.8-16.5,8.4-31.65t7.8-31.65l24.6-93.6h42l-59.7,195.9Z"/><path class="cls-2" d="M2652.1,438.75l62.4-195.9h48.9l62.1,195.9H2782L2755,338q-4.22-15-8.25-31.5t-8.25-32.1h-1.2q-3.6,15.6-7.65,32.1T2721.4,338l-27.3,100.8Zm39.6-48.9v-31.8h93.6v31.8Z"/><path class="cls-2" d="M2907.69,438.75V242.85h121.2v34.5h-80.1v42.9h68.1v34.5h-68.1v49.5h83.1v34.5Z"/><path class="cls-2" d="M3071.19,438.75V242.85h42.3l54.3,101.7,19.5,42.6h1.2q-1.5-15.6-3.3-34.2t-1.8-35.7v-74.4h39v195.9h-42l-54.3-101.7-19.8-42.6h-1.2q1.5,15.9,3.45,34.2a331.59,331.59,0,0,1,1.95,35.1v75Z"/><path class="cls-2" d="M3289.89,343.35A23.81,23.81,0,0,1,3272,335.7a26,26,0,0,1-7.35-18.75q0-11.4,7.35-18.9a24,24,0,0,1,17.85-7.5q11.1,0,18.15,7.5t7.05,18.9A26.69,26.69,0,0,1,3308,335.7Q3301,343.35,3289.89,343.35Zm0,99A23.81,23.81,0,0,1,3272,434.7a26,26,0,0,1-7.35-18.75q0-11.4,7.35-18.9a24,24,0,0,1,17.85-7.5q11.1,0,18.15,7.5t7.05,18.9A26.69,26.69,0,0,1,3308,434.7Q3301,442.35,3289.89,442.35Z"/></g></g></svg>