<svg xmlns="http://www.w3.org/2000/svg" xmlns:xlink="http://www.w3.org/1999/xlink" viewBox="0 0 4400 2475"><defs><style>.cls-1{fill:none;}.cls-2{clip-path:url(#clip-path);}.cls-3{fill:#1c1917;}.cls-4{fill:#fff;}.cls-5{clip-path:url(#clip-path-2);}</style><clipPath id="clip-path"><rect class="cls-1" width="4400" height="690"/></clipPath><clipPath id="clip-path-2"><rect class="cls-1" y="2114.6" width="4400" height="360.4"/></clipPath></defs><title>ContadorNAVIDAD</title><g id="Capa_2" data-name="Capa 2"><g id="Capa_1-2" data-name="Capa 1"><g class="cls-2"><rect class="cls-3" width="4400" height="690"/></g><path class="cls-4" d="M1641.71,438.75V242.85H1684l54.3,101.7,19.5,42.6h1.2q-1.5-15.6-3.3-34.2t-1.8-35.7v-74.4h39v195.9h-42l-54.3-101.7-19.8-42.6h-1.2q1.5,15.9,3.45,34.2a331.59,331.59,0,0,1,2,35.1v75Z"/><path class="cls-4" d="M1815.1,438.75l62.4-195.9h48.9l62.1,195.9H1945L1918,338q-4.2-15-8.25-31.5t-8.25-32.1h-1.2q-3.6,15.6-7.65,32.1T1884.4,338l-27.3,100.8Zm39.61-48.9v-31.8h93.59v31.8Z"/><path class="cls-4" d="M2039.8,438.75l-59.7-195.9h43.5l24.9,93.6q4.8,16.5,8.25,31.65t7.95,31.65h1.2q4.8-16.5,8.4-31.65t7.8-31.65l24.6-93.6h42L2089,438.75Z"/><path class="cls-4" d="M2170.6,438.75V242.85h41.1v195.9Z"/><path class="cls-4" d="M2259.1,438.75V242.85h54.3q30,0,51.9,10.5a74.53,74.53,0,0,1,33.75,32q11.85,21.45,11.85,54.75t-11.85,55.2q-11.85,21.9-33.15,32.7t-50.1,10.8Zm41.1-33.3H2311q17.4,0,30.45-6.6t20.1-20.85q7-14.25,7-37.95t-7-37.65q-7.05-13.95-20.1-20.1T2311,276.15h-10.8Z"/><path class="cls-4" d="M2420.5,438.75l62.4-195.9h48.9l62.1,195.9h-43.5l-27-100.8q-4.21-15-8.25-31.5t-8.25-32.1h-1.2q-3.6,15.6-7.65,32.1T2489.8,338l-27.3,100.8Zm39.6-48.9v-31.8h93.6v31.8Z"/><path class="cls-4" d="M2616.1,438.75V242.85h54.3q30,0,51.89,10.5a74.53,74.53,0,0,1,33.75,32q11.85,21.45,11.86,54.75T2756,395.25q-11.85,21.9-33.14,32.7t-50.11,10.8Zm41.1-33.3H2668q17.39,0,30.45-6.6T2718.54,378q7-14.25,7.06-37.95t-7.06-37.65q-7-13.95-20.09-20.1T2668,276.15h-10.8Z"/><g class="cls-5"><rect class="cls-3" y="2114.6" width="4400" height="360.4"/></g><rect class="cls-1" width="4400" height="2475"/></g></g></svg>