<svg xmlns="http://www.w3.org/2000/svg" xmlns:xlink="http://www.w3.org/1999/xlink" viewBox="0 0 4400 690"><defs><style>.cls-1{fill:none;}.cls-2{clip-path:url(#clip-path);}.cls-3{fill:#1c1917;}.cls-4{isolation:isolate;}.cls-5{fill:#fff;}</style><clipPath id="clip-path" transform="translate(0)"><rect class="cls-1" width="4400" height="690"/></clipPath></defs><title>DebateARCHI_3</title><g id="Capa_2" data-name="Capa 2"><g id="Capa_1-2" data-name="Capa 1"><g class="cls-2"><rect class="cls-3" width="4400" height="690"/><g class="cls-4"><path class="cls-5" d="M574.06,453.86V291.26h45.07q24.9,0,43.08,8.72a61.93,61.93,0,0,1,28,26.51q9.84,17.81,9.84,45.45t-9.84,45.81a63.38,63.38,0,0,1-27.51,27.14q-17.69,9-41.59,9Zm34.12-27.64h9q14.45,0,25.27-5.48a37.17,37.17,0,0,0,16.69-17.31Q665,391.61,665,371.94t-5.85-31.25A35.46,35.46,0,0,0,642.41,324q-10.83-5.1-25.27-5.1h-9Z" transform="translate(0)"/><path class="cls-5" d="M731.43,453.86V291.26H832V319.9H765.54v35.6h56.52v28.64H765.54v41.08h69v28.64Z" transform="translate(0)"/><path class="cls-5" d="M867.13,453.86V291.26h54.53A113,113,0,0,1,951.79,295q13.46,3.74,21.29,12.45t7.85,24.16a42,42,0,0,1-5.86,21.16A30.13,30.13,0,0,1,959,366.71v1a40.8,40.8,0,0,1,21.54,12.45q8.6,9.47,8.59,25.9t-8.46,27q-8.48,10.57-22.66,15.68a93.54,93.54,0,0,1-31.87,5.11ZM901.25,357h18.42q14.45,0,21.17-5.48t6.72-14.94q0-10.21-6.85-14.57t-20.79-4.36H901.25Zm0,70.46h21.91q15.93,0,24.28-5.85t8.34-17.8q0-11.21-8.22-16.31t-24.4-5.11H901.25Z" transform="translate(0)"/><path class="cls-5" d="M996.36,453.86l51.79-162.6h40.59l51.54,162.6h-36.1l-22.41-83.67q-3.49-12.45-6.85-26.14t-6.85-26.65h-1q-3,13-6.35,26.65t-6.85,26.14l-22.66,83.67Zm32.87-40.59V386.88h77.69v26.39Z" transform="translate(0)"/><path class="cls-5" d="M1173.4,453.86v-134h-45.32V291.26h125V319.9h-45.56v134Z" transform="translate(0)"/><path class="cls-5" d="M1279,453.86V291.26h100.59V319.9h-66.48v35.6h56.52v28.64h-56.52v41.08h69v28.64Z" transform="translate(0)"/><path class="cls-5" d="M1464.48,453.86V291.26h54.28a101.14,101.14,0,0,1,32.37,4.86,47.11,47.11,0,0,1,23,16.06q8.58,11.2,8.59,30.62,0,18.68-8.47,30.75a49.66,49.66,0,0,1-22.78,17.81,84.76,84.76,0,0,1-31.75,5.72h-21.17v56.78Zm34.11-83.92h18.93q16.18,0,24-6.84t7.84-20.3q0-13.44-8.34-18.92t-24.53-5.48h-17.93Z" transform="translate(0)"/><path class="cls-5" d="M1611.89,453.86V291.26h57.27a98.9,98.9,0,0,1,31.12,4.61,45.28,45.28,0,0,1,22.29,15.43q8.34,10.84,8.34,29.76,0,18.18-8.34,29.88a48.42,48.42,0,0,1-22.29,17.18,84.53,84.53,0,0,1-31.12,5.48H1646v60.26Zm34.11-87.4h20.17q15.18,0,23.28-6.35t8.09-19.05q0-12.71-8.09-17.68t-23.28-5H1646Zm54,87.4-37.1-69.22,23.91-21.42,51.54,90.64Z" transform="translate(0)"/><path class="cls-5" d="M1762.78,453.86V291.26h100.59V319.9h-66.48v35.6h56.52v28.64h-56.52v41.08h69v28.64Z" transform="translate(0)"/><path class="cls-5" d="M1947.54,456.85a87.75,87.75,0,0,1-31.75-6.1,85.33,85.33,0,0,1-28-17.56l19.67-23.41a70.44,70.44,0,0,0,19.54,12.7,52.83,52.83,0,0,0,21.29,4.73q12.2,0,18.43-4.6a15.05,15.05,0,0,0,6.22-12.83q0-5.71-3.11-9.08a28.45,28.45,0,0,0-8.46-6q-5.37-2.61-12.58-5.6l-21.41-9.22a74.29,74.29,0,0,1-15.81-9.21,44.46,44.46,0,0,1-12.33-14.32q-4.74-8.58-4.73-20.54a41.33,41.33,0,0,1,7.34-23.9A52.57,52.57,0,0,1,1922,294.75q12.83-6.48,29.26-6.48a73.59,73.59,0,0,1,27.76,5.48,70.52,70.52,0,0,1,23.78,15.69l-17.18,21.66a64.93,64.93,0,0,0-16.18-9.84,47.62,47.62,0,0,0-18.18-3.36q-10,0-16.06,4.24a13.46,13.46,0,0,0-6.1,11.7,12.63,12.63,0,0,0,3.24,9,27.28,27.28,0,0,0,9.09,6.1q5.83,2.63,12.82,5.61l20.92,8.46a64.44,64.44,0,0,1,17.18,10,43.28,43.28,0,0,1,11.33,14.32q4.1,8.34,4.1,19.8a45.76,45.76,0,0,1-7.09,24.77q-7.1,11.34-20.67,18.18T1947.54,456.85Z" transform="translate(0)"/><path class="cls-5" d="M2035.93,453.86V291.26H2070v162.6Z" transform="translate(0)"/><path class="cls-5" d="M2109.38,453.86V291.26h45.07q24.9,0,43.08,8.72a61.93,61.93,0,0,1,28,26.51q9.84,17.81,9.84,45.45t-9.84,45.81A63.38,63.38,0,0,1,2198,444.89q-17.69,9-41.59,9Zm34.12-27.64h9q14.43,0,25.27-5.48a37.17,37.17,0,0,0,16.69-17.31q5.84-11.82,5.85-31.49t-5.85-31.25A35.46,35.46,0,0,0,2177.73,324q-10.83-5.1-25.27-5.1h-9Z" transform="translate(0)"/><path class="cls-5" d="M2266.75,453.86V291.26h100.59V319.9h-66.48v35.6h56.52v28.64h-56.52v41.08h69v28.64Z" transform="translate(0)"/><path class="cls-5" d="M2402.45,453.86V291.26h35.11l45.07,84.41L2498.81,411h1q-1.24-12.94-2.74-28.39T2495.58,353V291.26H2528v162.6h-34.86L2448,369.45l-16.44-35.36h-1q1.24,13.2,2.86,28.38a275.1,275.1,0,0,1,1.62,29.14v62.25Z" transform="translate(0)"/><path class="cls-5" d="M2634.27,456.85a75.74,75.74,0,0,1-37.6-9.47q-16.93-9.45-27.14-28.13t-10.21-45.82q0-20.18,6-36a77.39,77.39,0,0,1,16.56-26.77,72,72,0,0,1,24.4-16.68,75.05,75.05,0,0,1,29-5.73,60.35,60.35,0,0,1,28,6.35,77.33,77.33,0,0,1,20.29,14.57l-18.18,21.91a64.51,64.51,0,0,0-13.19-9.46A33.79,33.79,0,0,0,2636,317.9a36.11,36.11,0,0,0-21.16,6.6q-9.48,6.6-14.94,18.68t-5.48,29q0,17.43,5,29.75t14.31,18.8a39.79,39.79,0,0,0,40.09,2,57,57,0,0,0,14.32-11.2l18.18,21.41a67.24,67.24,0,0,1-23.16,17.81A68.08,68.08,0,0,1,2634.27,456.85Z" transform="translate(0)"/><path class="cls-5" d="M2711.7,453.86V291.26h34.12v162.6Z" transform="translate(0)"/><path class="cls-5" d="M2764.24,453.86,2816,291.26h40.59l51.54,162.6h-36.1l-22.41-83.67q-3.49-12.45-6.85-26.14T2836,317.4h-1q-3,13-6.35,26.65t-6.85,26.14l-22.66,83.67Zm32.87-40.59V386.88h77.69v26.39Z" transform="translate(0)"/><path class="cls-5" d="M2926.59,453.86V291.26h34.11v134h65.24v28.64Z" transform="translate(0)"/><path class="cls-5" d="M3083.2,453.86l51.8-162.6h40.58l51.55,162.6H3191l-22.41-83.67q-3.49-12.45-6.85-26.14t-6.84-26.65h-1q-3,13-6.35,26.65t-6.85,26.14l-22.66,83.67Zm32.87-40.59V386.88h77.69v26.39Z" transform="translate(0)"/><path class="cls-5" d="M3245.55,453.86V291.26h57.27a99,99,0,0,1,31.13,4.61,45.25,45.25,0,0,1,22.28,15.43q8.34,10.84,8.34,29.76,0,18.18-8.34,29.88A48.39,48.39,0,0,1,3334,388.12a84.58,84.58,0,0,1-31.13,5.48h-23.16v60.26Zm34.11-87.4h20.17q15.2,0,23.28-6.35t8.1-19.05q0-12.71-8.1-17.68t-23.28-5h-20.17Zm54,87.4-37.1-69.22,23.9-21.42L3372,453.86Z" transform="translate(0)"/><path class="cls-5" d="M3463.42,456.85a75.74,75.74,0,0,1-37.6-9.47q-16.93-9.45-27.14-28.13t-10.21-45.82q0-20.18,6-36A77.24,77.24,0,0,1,3411,310.68a71.93,71.93,0,0,1,24.4-16.68,75,75,0,0,1,29-5.73,60.31,60.31,0,0,1,28,6.35,77,77,0,0,1,20.29,14.57l-18.17,21.91a64.3,64.3,0,0,0-13.2-9.46,33.78,33.78,0,0,0-16.18-3.74,36.14,36.14,0,0,0-21.17,6.6q-9.47,6.6-14.94,18.68t-5.48,29q0,17.43,5,29.75t14.32,18.8a39.79,39.79,0,0,0,40.09,2,57.4,57.4,0,0,0,14.32-11.2l18.17,21.41a67.3,67.3,0,0,1-23.15,17.81A68.13,68.13,0,0,1,3463.42,456.85Z" transform="translate(0)"/><path class="cls-5" d="M3540.86,453.86V291.26H3575v63.5h59.26v-63.5h34.12v162.6h-34.12V384.64H3575v69.22Z" transform="translate(0)"/><path class="cls-5" d="M3707.69,453.86V291.26h34.11v162.6Z" transform="translate(0)"/><path class="cls-5" d="M3797.83,374.68a19.79,19.79,0,0,1-14.82-6.35,23.06,23.06,0,0,1,0-31.25,20,20,0,0,1,14.82-6.23,19.76,19.76,0,0,1,15.06,6.23q5.85,6.23,5.85,15.68a22.14,22.14,0,0,1-5.85,15.57A19.58,19.58,0,0,1,3797.83,374.68Zm0,82.17A19.79,19.79,0,0,1,3783,450.5a23.06,23.06,0,0,1,0-31.25,20,20,0,0,1,14.82-6.23,19.76,19.76,0,0,1,15.06,6.23q5.85,6.22,5.85,15.68a22.14,22.14,0,0,1-5.85,15.57A19.58,19.58,0,0,1,3797.83,456.85Z" transform="translate(0)"/></g></g></g></g></svg>