<svg xmlns="http://www.w3.org/2000/svg" xmlns:xlink="http://www.w3.org/1999/xlink" viewBox="0 0 545.62 250"><defs><style>.cls-1,.cls-2,.cls-3{fill:none;}.cls-1,.cls-2{clip-rule:evenodd;}.cls-2{clip-path:url(#clip-path);}.cls-4{fill:#fff;}.cls-5{fill:#a644ff;}.cls-6{clip-path:url(#clip-path-2);}.cls-7{clip-path:url(#clip-path-3);}</style><clipPath id="clip-path"><polygon class="cls-1" points="294.57 277 571.57 277 571.57 0 294.57 0 294.57 277 294.57 277"/></clipPath><clipPath id="clip-path-2" transform="translate(0 -13.42)"><polygon class="cls-2" points="294.57 0 571.57 0 571.57 277 294.57 277 294.57 0 294.57 0"/></clipPath><clipPath id="clip-path-3" transform="translate(0 -13.42)"><polygon class="cls-3" points="294.57 277 571.57 277 571.57 0 294.57 0 294.57 277 294.57 277"/></clipPath></defs><title>Icono_Twitch_Video_4</title><g id="Capa_2" data-name="Capa 2"><g id="Capa_1-2" data-name="Capa 1"><polygon class="cls-4" points="196.43 116.07 160.71 151.79 125 151.79 93.75 183.04 93.75 151.79 53.57 151.79 53.57 17.86 196.43 17.86 196.43 116.07"/><path class="cls-5" d="M44.64,13.42,0,58.06V218.78H53.57v44.64l44.64-44.64h35.72l80.36-80.36v-125ZM196.43,129.49l-35.72,35.72H125L93.75,196.42V165.21H53.57V31.28H196.43Z" transform="translate(0 -13.42)"/><rect class="cls-5" x="151.79" y="49.11" width="17.86" height="53.57"/><rect class="cls-5" x="102.68" y="49.11" width="17.86" height="53.57"/><g class="cls-6"><g class="cls-7"><path d="M528.5,182.68h-194V57.09h194V182.68ZM534.21,40H328.81A11.45,11.45,0,0,0,317.4,51.38v137a11.45,11.45,0,0,0,11.41,11.42h79.88v17.12H380.16v17.13h102.7V216.93H454.33V199.81h79.88a11.45,11.45,0,0,0,11.41-11.42v-137A11.45,11.45,0,0,0,534.21,40Z" transform="translate(0 -13.42)"/></g></g></g></g></svg>