<svg xmlns="http://www.w3.org/2000/svg" xmlns:xlink="http://www.w3.org/1999/xlink" viewBox="0 0 569.32 250"><defs><style>.cls-1,.cls-2{fill:none;}.cls-2{clip-path:url(#clip-path);}.cls-3{fill:#fff;}.cls-4{fill:#a644ff;}.cls-5{clip-path:url(#clip-path-2);}.cls-6{clip-path:url(#clip-path-3);}</style><clipPath id="clip-path"><polygon class="cls-1" points="297.39 300 597.39 300 597.39 0 297.39 0 297.39 300 297.39 300"/></clipPath><clipPath id="clip-path-2" transform="translate(0 -25)"><polygon class="cls-2" points="297.39 0 597.39 0 597.39 300 297.39 300 297.39 0 297.39 0"/></clipPath><clipPath id="clip-path-3" transform="translate(0 -25)"><polygon class="cls-1" points="297.39 300 597.39 300 597.39 0 297.39 0 297.39 300 297.39 300"/></clipPath></defs><title>Recurso 3</title><g id="Capa_2" data-name="Capa 2"><g id="Capa_1-2" data-name="Capa 1"><polygon class="cls-3" points="196.43 116.07 160.71 151.79 125 151.79 93.75 183.04 93.75 151.79 53.57 151.79 53.57 17.86 196.43 17.86 196.43 116.07"/><path class="cls-4" d="M44.64,25,0,69.64V230.36H53.57V275l44.64-44.64h35.72L214.29,150V25ZM196.43,141.07l-35.72,35.72H125L93.75,208V176.79H53.57V42.86H196.43Z" transform="translate(0 -25)"/><rect class="cls-4" x="151.79" y="49.11" width="17.86" height="53.57"/><rect class="cls-4" x="102.68" y="49.11" width="17.86" height="53.57"/><g class="cls-5"><g class="cls-6"><path d="M427.16,83.47H476.6V74.2a12.42,12.42,0,0,0-12.36-12.38H334.47A12.42,12.42,0,0,0,322.12,74.2v83.46A12.41,12.41,0,0,0,334.48,170H353v30.91L383.92,170h18.53V108.2a24.79,24.79,0,0,1,24.72-24.73Z" transform="translate(0 -25)"/><path d="M556.93,95.83H427.16A12.41,12.41,0,0,0,414.8,108.2v83.46A12.41,12.41,0,0,0,427.16,204h80.4l30.89,30.91V204H557a12.39,12.39,0,0,0,12.33-12.34V108.2A12.4,12.4,0,0,0,557,95.83Z" transform="translate(0 -25)"/></g></g></g></g></svg>