<svg viewBox="0 0 96 96" xmlns="http://www.w3.org/2000/svg" xmlns:xlink="http://www.w3.org/1999/xlink" id="Icons_SatelliteDish" overflow="hidden"><g><path d="M70.1 20 70.1 54 53.3 37.2 70.1 20ZM33.1 17 67.4 17 50.5 34.5 33.1 17ZM32.1 71.2 28.5 67.6 32.1 59.8 35.7 67.6 32.1 71.2ZM34.9 74.1 37.5 71.5 42.1 81.3 34.9 74.1ZM22.1 81.2 26.7 71.4 29.3 74 22.1 81.2ZM32.1 76.8 38.3 83 25.9 83 32.1 76.8ZM79.2 63.2 74.1 58 74.1 19 75.1 18C76.8 16.3 76.8 13.7 75.1 12 73.4 10.3 70.8 10.3 69.1 12L68.1 13 29.1 13 25 9C21.9 14.6 20.1 21.2 20.1 28.1 20.1 38.3 23.9 47.5 30.1 54.6L17 82.8C16.6 83.7 16.6 84.8 17.2 85.7 17.8 86.6 18.7 87.1 19.7 87.1L44.6 87.1C45.6 87.1 46.6 86.6 47.1 85.7 47.6 84.8 47.7 83.8 47.3 82.8L36.9 60.6C43.5 65.2 51.5 68 60.1 68 67 68.1 73.5 66.2 79.2 63.2Z"/></g></svg>