<svg xmlns="http://www.w3.org/2000/svg" viewBox="0 0 186.09 185.99"><defs><style>.cls-1{fill:#1877f2;}.cls-2{fill:#fff;}</style></defs><title>Icono_Facebook</title><g id="Capa_2" data-name="Capa 2"><g id="Layer_1" data-name="Layer 1"><g id="g13"><path id="path9" class="cls-1" d="M186.09,93A93,93,0,1,0,78.55,184.94v-65H54.77V93H78.55V72.5c0-23.31,13.79-36.25,35-36.25a132,132,0,0,1,20.73,2V60.93H122.69c-11.57,0-15.25,7.26-15.25,14.57V93h25.83l-4.16,26.88H107.38v65A93,93,0,0,0,186.09,93Z"/><path id="path11" class="cls-2" d="M129.11,119.85,133.27,93H107.44V75.5c0-7.37,3.68-14.57,15.25-14.57h11.63V38.14a132.6,132.6,0,0,0-20.73-1.94c-21.25,0-35,12.94-35,36.25V93H54.77v26.88H78.55v65a94.87,94.87,0,0,0,28.94,0v-65Z"/></g></g></g></svg>