<svg xmlns="http://www.w3.org/2000/svg" viewBox="0 0 843.64 341"><title>Icono_YT_ARG</title><g id="Capa_2" data-name="Capa 2"><g id="Capa_1-2" data-name="Capa 1"><rect x="26.51" y="43.94" width="405" height="253.13" style="fill:#74acff"/><rect x="26.51" y="128.31" width="405" height="84.38" style="fill:#fff"/><g id="rays"><path id="ray1" d="M227.41,171.16l14.4,31.39s.25.6.65.43.15-.76.15-.76l-12-32.38m-.34,12.21c-.18,4.77,2.76,7.4,2.38,11.66s2,6.67,2.5,8.33-.59,2.65-.1,2.88,1.55-1.07,1.2-3.43-2.13-3.05-1.71-8.26-2.13-6.42-1.51-11.17" style="fill:#f6b40e;stroke:#85340a;stroke-width:1.1116000413894653px"/><path d="M227.27,170.5l1.3,34.51s0,.65.43.65.44-.65.44-.65l1.3-34.51m-5,11.15c-2,4.34-.28,7.89-2.26,11.68s-.75,6.92-.88,8.65-1.56,2.23-1.2,2.63,1.85-.4,2.43-2.71-.8-3.64,1.58-8.29.49-6.74,2.88-10.89" style="fill:#f6b40e;stroke:#85340a;stroke-width:1.1116000413894653px"/><path d="M227.41,169.84l-12,32.37s-.25.6.15.77.65-.43.65-.43l14.4-31.39m-8.87,8.39c-3.5,3.25-3.28,7.19-6.57,9.93s-3.33,6.1-4.12,7.66-2.29,1.45-2.11,2,1.86.34,3.28-1.58.65-3.67,4.63-7.05,3-6,6.83-9" style="fill:#f6b40e;stroke:#85340a;stroke-width:1.1116000413894653px"/><path d="M227.78,169.28,204.3,194.59s-.46.46-.15.77.76-.15.76-.15l25.32-23.49m-11.41,4.36c-4.48,1.66-5.78,5.38-9.87,6.66s-5.41,4.36-6.74,5.49-2.67.48-2.7,1,1.59,1,3.63-.2,2-3.15,7-4.75,5.11-4.42,9.74-5.67" style="fill:#f6b40e;stroke:#85340a;stroke-width:1.1116000413894653px"/><path id="ray2" d="M231.19,182.86c.23,4.58,2.83,6.61,2.32,10.79,1.12-3.31-1.59-5.87-1.43-10.74m-3.87-12,9.86,21.55-8.27-22.22" style="fill:#85340a"/><path d="M226.29,182.75c-1.54,4.32.08,7.19-2,10.86,2.3-2.63.79-6,2.8-10.47m1-12.6.87,23.69.86-23.69" style="fill:#85340a"/><path d="M221.81,180.78c-3.08,3.4-2.68,6.68-6,9.27,3.13-1.54,3-5.26,6.59-8.61m5.76-11.24-8.26,22.22,9.86-21.56" style="fill:#85340a"/><path d="M218.42,177.24c-4.14,2-5,5.15-9.08,6.28,3.48-.23,4.81-3.71,9.38-5.43m9.63-8.18-16.14,17.36,17.36-16.14" style="fill:#85340a"/></g><path d="M228.34,168.9,197,183.31s-.6.24-.44.64.77.15.77.15l32.38-12m-12.21-.35c-4.78-.17-7.4,2.76-11.66,2.38s-6.68,2-8.33,2.5-2.65-.59-2.89-.1,1.08,1.56,3.43,1.21,3.06-2.14,8.26-1.72,6.42-2.13,11.17-1.51" style="fill:#f6b40e;stroke:#85340a;stroke-width:1.1116000413894653px"/><path d="M229,168.77l-34.51,1.3s-.65,0-.65.43.65.43.65.43l34.51,1.3m-11.15-5c-4.35-2-7.9-.28-11.69-2.27s-6.91-.74-8.65-.87-2.22-1.56-2.63-1.2.4,1.85,2.71,2.43,3.64-.81,8.29,1.57,6.75.49,10.9,2.88" style="fill:#f6b40e;stroke:#85340a;stroke-width:1.1116000413894653px"/><path d="M229.67,168.9l-32.38-12s-.6-.24-.76.16.43.64.43.64l31.38,14.41M220,163.22c-3.25-3.5-7.18-3.28-9.92-6.56s-6.11-3.34-7.66-4.13-1.46-2.28-2-2.11-.34,1.86,1.57,3.28,3.67.65,7.06,4.63,6,3,9,6.83" style="fill:#f6b40e;stroke:#85340a;stroke-width:1.1116000413894653px"/><path d="M230.23,169.28l-25.32-23.49s-.46-.46-.76-.15.15.76.15.76l23.48,25.32m-4.35-11.41c-1.67-4.48-5.38-5.78-6.66-9.86s-4.36-5.42-5.5-6.74-.47-2.67-1-2.71-1,1.59.2,3.64,3.14,2,4.75,7,4.42,5.12,5.66,9.74" style="fill:#f6b40e;stroke:#85340a;stroke-width:1.1116000413894653px"/><path d="M216.65,172.68c-4.59.23-6.62,2.83-10.79,2.32,3.3,1.12,5.86-1.58,10.74-1.43m12-3.87-21.56,9.87,22.22-8.27" style="fill:#85340a"/><path d="M216.75,167.79c-4.32-1.55-7.19.08-10.85-2,2.62,2.3,6,.78,10.47,2.79m12.59,1-23.69.86,23.69.87" style="fill:#85340a"/><path d="M218.72,163.3c-3.4-3.07-6.67-2.67-9.26-6,1.54,3.13,5.26,3,8.6,6.59m11.24,5.77-22.21-8.27,21.55,9.87" style="fill:#85340a"/><path d="M222.26,159.92c-2-4.15-5.14-5-6.27-9.08.23,3.48,3.7,4.81,5.43,9.37m8.18,9.63-17.36-16.13,16.14,17.36" style="fill:#85340a"/><path d="M230.61,169.84,216.2,138.45s-.25-.6-.65-.43-.15.76-.15.76l12,32.38m.34-12.21c.18-4.77-2.76-7.4-2.38-11.66s-2-6.67-2.5-8.33.59-2.65.1-2.88-1.55,1.07-1.2,3.43,2.13,3.05,1.71,8.26,2.13,6.42,1.51,11.17" style="fill:#f6b40e;stroke:#85340a;stroke-width:1.1116000413894653px"/><path d="M230.74,170.5,229.44,136s0-.65-.43-.65-.44.65-.44.65l-1.29,34.51m5-11.15c2-4.34.28-7.89,2.26-11.68s.75-6.92.88-8.65,1.56-2.23,1.2-2.63-1.85.4-2.43,2.71.8,3.64-1.58,8.29-.49,6.74-2.88,10.89" style="fill:#f6b40e;stroke:#85340a;stroke-width:1.1116000413894653px"/><path d="M230.61,171.16l12-32.37s.25-.6-.15-.77-.65.43-.65.43l-14.4,31.39m8.88-8.39c3.49-3.25,3.27-7.19,6.56-9.93s3.33-6.1,4.12-7.66,2.29-1.45,2.11-2-1.86-.34-3.28,1.58-.65,3.67-4.63,7.05-3,6-6.82,9" style="fill:#f6b40e;stroke:#85340a;stroke-width:1.1116000413894653px"/><path d="M230.23,171.72l23.48-25.31s.46-.46.16-.77-.77.15-.77.15l-25.32,23.49m11.42-4.36c4.47-1.66,5.77-5.38,9.86-6.66s5.41-4.36,6.74-5.49,2.67-.48,2.7-1-1.59-1-3.63.2-2,3.15-7,4.75-5.11,4.42-9.74,5.67" style="fill:#f6b40e;stroke:#85340a;stroke-width:1.1116000413894653px"/><path d="M226.82,158.14c-.23-4.58-2.82-6.61-2.31-10.79-1.12,3.31,1.58,5.87,1.42,10.74m3.88,12-9.87-21.55,8.27,22.22" style="fill:#85340a"/><path d="M231.72,158.25c1.54-4.32-.08-7.19,2-10.86-2.3,2.63-.79,6-2.8,10.47m-1,12.6L229,146.77l-.86,23.69" style="fill:#85340a"/><path d="M236.2,160.22c3.08-3.4,2.68-6.68,6-9.27-3.13,1.54-3,5.26-6.59,8.61m-5.76,11.24,8.26-22.22-9.86,21.56" style="fill:#85340a"/><path d="M239.59,163.76c4.14-2,5-5.15,9.08-6.28-3.48.23-4.81,3.71-9.38,5.43m-9.63,8.18,16.14-17.36-17.36,16.14" style="fill:#85340a"/><path d="M229.67,172.1l31.38-14.41s.6-.24.44-.64-.77-.15-.77-.15l-32.38,12m12.21.35c4.78.17,7.4-2.76,11.66-2.38s6.68-2,8.33-2.5,2.65.59,2.89.1-1.07-1.56-3.43-1.21-3.06,2.14-8.26,1.72-6.42,2.13-11.17,1.51" style="fill:#f6b40e;stroke:#85340a;stroke-width:1.1116000413894653px"/><path d="M229,172.23l34.5-1.3s.65,0,.65-.43-.65-.43-.65-.43l-34.5-1.3m11.15,5c4.34,2,7.89.28,11.68,2.27s6.91.74,8.65.87,2.22,1.56,2.63,1.2-.4-1.85-2.71-2.43-3.64.81-8.29-1.57-6.74-.49-10.89-2.88" style="fill:#f6b40e;stroke:#85340a;stroke-width:1.1116000413894653px"/><path d="M228.34,172.1l32.38,12s.6.24.77-.16-.44-.64-.44-.64L229.67,168.9m8.39,8.88c3.25,3.5,7.18,3.28,9.92,6.56s6.11,3.34,7.66,4.13,1.46,2.28,2,2.11.34-1.86-1.57-3.28-3.67-.65-7.06-4.63-6-3-9-6.83" style="fill:#f6b40e;stroke:#85340a;stroke-width:1.1116000413894653px"/><path d="M227.78,171.72l25.32,23.49s.46.46.76.15-.15-.76-.15-.76l-23.48-25.32m4.35,11.41c1.67,4.48,5.39,5.78,6.66,9.86s4.36,5.42,5.5,6.74.47,2.67,1,2.71,1-1.59-.2-3.64-3.14-2-4.74-7-4.43-5.12-5.67-9.74" style="fill:#f6b40e;stroke:#85340a;stroke-width:1.1116000413894653px"/><path d="M241.36,168.32c4.59-.23,6.62-2.83,10.79-2.32-3.3-1.12-5.86,1.58-10.74,1.43m-12,3.87,21.56-9.87-22.22,8.27" style="fill:#85340a"/><path d="M241.26,173.21c4.32,1.55,7.19-.08,10.85,2-2.62-2.3-6-.78-10.47-2.79m-12.59-1,23.69-.86-23.69-.87" style="fill:#85340a"/><path d="M239.29,177.7c3.4,3.07,6.67,2.67,9.27,6-1.55-3.13-5.27-3-8.61-6.59m-11.24-5.77,22.21,8.27-21.55-9.87" style="fill:#85340a"/><path d="M235.75,181.08c2,4.15,5.14,5,6.27,9.08-.23-3.48-3.7-4.81-5.43-9.37m-8.18-9.63,17.36,16.13-16.14-17.36" style="fill:#85340a"/><circle cx="229.01" cy="170.5" r="14.06" style="fill:#f6b40e;stroke:#85340a;stroke-width:1.5px"/><path id="loweyecontour" d="M233.8,167.49a2.79,2.79,0,0,0-2.42,1.28,4.38,4.38,0,0,0,5.09-.11,3.73,3.73,0,0,0-2.67-1.17Zm0,.22c.94,0,1.81.42,1.93.84a2.85,2.85,0,0,1-3.89.22,2.33,2.33,0,0,1,2-1.06Z" style="fill:#843511"/><path id="uppalpebra" d="M234,166.82a2.88,2.88,0,0,0-2.38.87,2.84,2.84,0,0,1-1.08.54c-.11.11,0,.43.22.33a6.4,6.4,0,0,0,1.29-.87,2.71,2.71,0,0,1,1.95-.54c2,0,3,1.62,3.25,1.51s-1.09-1.84-3.25-1.84Z" style="fill:#85340a"/><path id="eyebrow_nose" data-name="eyebrow nose" d="M237.88,167.47c-2.49-2.16-5.63-2.49-7.36-.86a4.23,4.23,0,0,0-.81,1.8,5.24,5.24,0,0,0,1.13,3.93.84.84,0,0,0-.43.22,7.72,7.72,0,0,1-.88-4.94,6.6,6.6,0,0,1,.34-1.23c2.38-1.95,5.62-2.16,8,1.08Z" style="fill:#85340a"/><circle id="pupil" cx="233.77" cy="168.55" r="0.97" style="fill:#85340a"/><path id="lowpalpebra" d="M236.58,169.2a4.25,4.25,0,0,1-4.76.65c-1.08-.65-1.08-.86-.87-.86s.44.21,1.3.65,2.16.43,4.33-.44Z" style="fill:#85340a"/><path d="M226.85,172.44a1,1,0,0,0-.79,1,1,1,0,0,0,1,1,1,1,0,0,0,.79-.41,2.15,2.15,0,0,0,1.18.32h.12a2.1,2.1,0,0,0,1.17-.32,1,1,0,0,0,.79.41,1,1,0,0,0,1-1,1,1,0,0,0-.79-1,.67.67,0,0,1,.43.62.65.65,0,0,1-.65.65.66.66,0,0,1-.65-.62,1.59,1.59,0,0,1-1.34.87,1.63,1.63,0,0,1-1.35-.87.65.65,0,0,1-1.29,0,.66.66,0,0,1,.42-.62Z" style="fill:#85340a"/><path d="M227.91,175.32c-1.08,0-1.51,1-2.48,1.63a17.83,17.83,0,0,0,1.72-1.07c.76-.43,1.41.09,1.84.09h0c.44,0,1.08-.52,1.84-.09a19.05,19.05,0,0,0,1.74,1.07c-1-.64-1.42-1.63-2.5-1.63a2.9,2.9,0,0,0-1.08.34h0A2.85,2.85,0,0,0,227.91,175.32Z" style="fill:#85340a"/><path d="M227.55,176.61a7.15,7.15,0,0,0-1.81.34c1.95-.43,2.38.22,3.25.22h0c.87,0,1.3-.65,3.25-.22a5.78,5.78,0,0,0-3.25-.22h0a10.5,10.5,0,0,0-1.44-.12Z" style="fill:#85340a"/><path d="M225.84,176.94a3,3,0,0,0-.41,0c2.27.21,1.18,1.51,3.56,1.51h0c2.38,0,1.3-1.3,3.57-1.51-2.38-.22-1.63,1.18-3.57,1.18h0c-1.83,0-1.26-1.22-3.15-1.2Z" style="fill:#85340a"/><path d="M231,180.45a1.95,1.95,0,0,0-3.89,0,2,2,0,0,1,3.89,0Z" style="fill:#85340a"/><path d="M220.26,167.47c2.49-2.16,5.63-2.49,7.36-.86a4.35,4.35,0,0,1,.81,1.8,5.25,5.25,0,0,1-1.14,3.93.83.83,0,0,1,.44.22,7.72,7.72,0,0,0,.88-4.94,7.47,7.47,0,0,0-.34-1.23c-2.38-1.95-5.63-2.16-8,1.08Z" style="fill:#85340a"/><path d="M224.16,166.82a2.88,2.88,0,0,1,2.38.87,2.84,2.84,0,0,0,1.08.54c.1.11,0,.43-.22.33a6.66,6.66,0,0,1-1.3-.87,2.69,2.69,0,0,0-1.94-.54c-1.95,0-3,1.62-3.25,1.51s1.08-1.84,3.25-1.84Z" style="fill:#85340a"/><path d="M224.09,167.49a2.79,2.79,0,0,0-2.42,1.28,4.38,4.38,0,0,0,5.09-.11,3.73,3.73,0,0,0-2.67-1.17Zm0,.22c.94,0,1.81.42,1.93.84a2.85,2.85,0,0,1-3.89.22,2.33,2.33,0,0,1,2-1.06Z" style="fill:#843511"/><circle cx="224.22" cy="168.55" r="0.97" style="fill:#85340a"/><path d="M221.56,169.2a4.25,4.25,0,0,0,4.76.65c1.08-.65,1.08-.86.86-.86s-.43.21-1.29.65-2.17.43-4.33-.44Z" style="fill:#85340a"/><g id="g5"><path id="path7" d="M810.88,93.05a40.35,40.35,0,0,0-28.39-28.38c-25.19-6.9-126-6.9-126-6.9s-100.79,0-126,6.63a41.18,41.18,0,0,0-28.38,28.65c-6.63,25.2-6.63,77.45-6.63,77.45s0,52.52,6.63,77.45a40.34,40.34,0,0,0,28.38,28.38c25.46,6.9,126,6.9,126,6.9s100.79,0,126-6.63a40.37,40.37,0,0,0,28.39-28.39c6.63-25.19,6.63-77.44,6.63-77.44S817.77,118.25,810.88,93.05Z" style="fill:red"/><polygon id="polygon9" points="708.23 170.5 624.41 122.23 624.41 218.77 708.23 170.5" style="fill:#fff"/></g><rect width="843.64" height="341" style="fill:none"/></g></g></svg>