<?xml version="1.0" encoding="utf-8"?>
<!-- Generator: Adobe Illustrator 23.0.2, SVG Export Plug-In . SVG Version: 6.00 Build 0)  -->
<svg version="1.1" id="Capa_1" xmlns="http://www.w3.org/2000/svg" xmlns:xlink="http://www.w3.org/1999/xlink" x="0px" y="0px"
	 viewBox="0 0 2079 632.6" style="enable-background:new 0 0 2079 632.6;" xml:space="preserve">
<style type="text/css">
	.st0{fill:#39AA1A;}
	.st1{fill:#FFFFFF;}
</style>
<title>Icono_SeñalNueva</title>
<path class="st0" d="M113.8,0h1851.4c62.8,0,113.8,50.9,113.8,113.8v405c0,62.8-50.9,113.8-113.8,113.8H113.8
	C50.9,632.6,0,581.6,0,518.8v-405C0,50.9,50.9,0,113.8,0z"/>
<path class="st1" d="M219.6,498.7V134.7h78.6l100.9,188.9l36.2,79.1h2.2c-1.9-19.3-3.9-40.5-6.1-63.5c-2.2-23-3.3-45.1-3.3-66.3
	V134.7h72.4v363.9h-78L321.6,309.7l-36.8-79.1h-2.2c1.9,19.7,4,40.9,6.4,63.5c2.4,21.7,3.6,43.4,3.6,65.2v139.3H219.6z"/>
<path class="st1" d="M729.6,505.4c-22.7,0-42.9-3.3-60.8-10c-17.3-6.3-32.7-16.8-44.9-30.6c-12.1-13.7-21.3-31.6-27.6-53.5
	c-6.3-21.9-9.5-47.9-9.5-78V134.7h76.4v205.7c0,24.5,2.6,44,7.8,58.5c5.2,14.5,12.8,24.8,22.8,30.9c10,6.1,21.9,9.2,35.7,9.2
	c14.1,0,26.2-3.1,36.2-9.2c10-6.1,17.8-16.4,23.4-30.9c5.6-14.5,8.4-34,8.4-58.5V134.7h73.6v198.4c0,30.1-3.1,56.1-9.2,78
	s-15.2,39.7-27.3,53.5c-12.1,13.8-27.4,24.3-44.6,30.7C772.4,502,752.2,505.4,729.6,505.4z"/>
<path class="st1" d="M957.5,498.7V134.7h225.2v64.1h-148.8v79.7h126.5v64.1h-126.5v92h154.4v64.1L957.5,498.7z"/>
<path class="st1" d="M1324.8,498.7l-110.9-363.9h80.8l46.3,173.9c5.9,20.4,11,40,15.3,58.8c4.3,18.8,9.2,38.4,14.8,58.8h2.2
	c5.9-20.4,11.1-40,15.6-58.8c4.5-18.8,9.3-38.4,14.5-58.8l45.7-173.9h78l-110.9,363.9H1324.8z"/>
<path class="st1" d="M1708.2,505.4c-32.3,0-60.8-7.6-85.6-22.9c-24.7-15.2-43.9-37.1-57.7-65.5c-13.7-28.4-20.6-62.3-20.6-101.7
	s6.9-73,20.6-100.9c13.7-27.9,33-49.2,57.7-64.1s53.2-22.3,85.5-22.3c32.3,0,60.7,7.4,85.3,22.3s43.7,36.2,57.4,64.1
	c13.8,27.9,20.6,61.5,20.6,100.9c0,39.4-6.9,73.3-20.6,101.7c-13.7,28.4-32.9,50.2-57.4,65.5S1740.6,505.3,1708.2,505.4z
	 M1708.2,439c17.1,0,32-5,44.9-15s22.8-24.3,29.8-42.9c7.1-18.6,10.6-40.5,10.6-65.8c0-25.3-3.5-46.9-10.6-64.9
	c-7.1-18-17-31.8-29.8-41.5c-12.8-9.7-27.8-14.5-44.9-14.5c-17.5,0-32.6,4.8-45.4,14.5s-22.7,23.5-29.5,41.5
	c-6.9,18-10.3,39.6-10.3,64.9c0,25.3,3.4,47.2,10.3,65.8c6.9,18.6,16.7,32.9,29.5,42.9C1675.6,434.1,1690.8,439,1708.2,439
	L1708.2,439z"/>
</svg>
