<svg xmlns="http://www.w3.org/2000/svg" viewBox="0 0 464.39 377.37"><defs><style>.cls-1{fill:#1da1f2;}</style></defs><title>Logo_Twitter_3</title><g id="Capa_2" data-name="Capa 2"><g id="Capa_1-2" data-name="Capa 1"><g id="svg6"><g id="g4"><path id="path2" class="cls-1" d="M464.39,44.64a190.92,190.92,0,0,1-54.71,15A95.51,95.51,0,0,0,451.56,7a189.78,189.78,0,0,1-60.49,23.11,95.33,95.33,0,0,0-164.81,65.2A97.16,97.16,0,0,0,228.72,117,270.58,270.58,0,0,1,32.33,17.38a95.45,95.45,0,0,0,29.5,127.21,95,95,0,0,1-43.16-11.93v1.23A95.34,95.34,0,0,0,95.1,227.32a96.69,96.69,0,0,1-43,1.63,95.34,95.34,0,0,0,89,66.15A191.26,191.26,0,0,1,22.74,336,196.45,196.45,0,0,1,0,334.57a269.43,269.43,0,0,0,146,42.8c175.27,0,271.09-145.16,271.09-271.07,0-4.09-.1-8.22-.28-12.31A193.94,193.94,0,0,0,464.32,44.7Z"/></g></g></g></g></svg>