<svg xmlns="http://www.w3.org/2000/svg" viewBox="0 0 80 92.45"><title>Icono_Cam_Vivo</title><g id="Capa_2" data-name="Capa 2"><g id="Icons_Camera" data-name="Icons Camera"><path d="M40,58A18,18,0,1,1,58,40,17.93,17.93,0,0,1,40,58ZM20,26H8V18H20ZM76,10H56L50,0H30L24,10H4a4,4,0,0,0-4,4V62a4,4,0,0,0,4,4H76a4,4,0,0,0,4-4V14A4,4,0,0,0,76,10Z"/><path d="M40,30A10,10,0,1,0,50,40,9.9,9.9,0,0,0,40,30Zm0,24A14,14,0,1,1,54,40,13.91,13.91,0,0,1,40,54Z"/><text transform="translate(18.64 86.36)" style="font-size:22px;fill:red;font-family:Assistant-Bold, Assistant;font-weight:700">VI<tspan x="18.59" y="0" style="letter-spacing:-0.010986328125em">V</tspan><tspan x="30.45" y="0">O</tspan></text></g></g></svg>