<svg width="352" height="352" xmlns="http://www.w3.org/2000/svg" xmlns:xlink="http://www.w3.org/1999/xlink" overflow="hidden"><defs><clipPath id="clip0"><rect x="367" y="129" width="352" height="352"/></clipPath></defs><g clip-path="url(#clip0)" transform="translate(-367 -129)"><path d="M699.2 422.333 555.833 173C550.333 163.1 536.033 163.1 530.533 173L386.8 422.333C381.3 432.233 388.267 444.333 399.633 444.333L543 444.333 686.367 444.333C697.733 444.333 704.7 432.233 699.2 422.333ZM532 231.667 554 231.667 554 360 532 360 532 231.667ZM543 411.333C532.733 411.333 524.667 403.267 524.667 393 524.667 382.733 532.733 374.667 543 374.667 553.267 374.667 561.333 382.733 561.333 393 561.333 403.267 553.267 411.333 543 411.333Z" fill="#FF0000"/></g></svg>