<svg width="216" height="297" xmlns="http://www.w3.org/2000/svg" xmlns:xlink="http://www.w3.org/1999/xlink" overflow="hidden"><defs><clipPath id="clip0"><rect x="391" y="177" width="216" height="297"/></clipPath></defs><g clip-path="url(#clip0)" transform="translate(-391 -177)"><path d="M100.566 296.687C65.8608 294.274 34.6123 275.46 16.239 245.882 10.8569 237.229 6.6348 227.625 3.96696 217.951-3.10861 192.27-0.603163 165.104 11.0425 141.511 15.4735 132.534 19.6724 126.2 26.7248 117.849 27.5135 116.898 44.1933 95.207 63.7497 69.6654 85.046 41.8503 99.8235 22.7578 100.589 22.0619 104.904 18.1181 110.843 18.1181 115.158 22.0619 115.923 22.7578 130.701 41.8503 151.997 69.6654 171.554 95.207 188.233 116.898 189.022 117.849 196.075 126.2 200.273 132.534 204.704 141.511 217.835 168.12 219.296 199.554 208.741 227.23 200.552 248.643 186.308 266.413 167.03 279.241 147.891 291.978 123.788 298.288 100.566 296.687ZM113.534 244.397C118.73 243.724 122.767 242.518 127.476 240.221 140.305 234.004 149.074 222.683 152.113 208.347 152.693 205.656 152.74 204.983 152.763 199.856 152.763 193.662 152.531 191.852 151.139 186.981 147.404 173.966 137.544 163.04 124.924 157.913 120.262 156.011 116.457 155.129 111.191 154.688 104.37 154.108 97.4341 155.222 90.8225 157.913 78.2025 163.04 68.3431 173.966 64.6081 186.981 63.2162 191.852 62.9842 193.662 62.9842 199.856 63.0074 204.983 63.0538 205.656 63.6337 208.347 66.232 220.572 73.0524 230.733 83.167 237.391 87.2731 240.082 93.3047 242.657 97.9445 243.678 102.793 244.745 108.778 245.024 113.534 244.397Z" fill="#FF0000" transform="matrix(1.00117 0 0 -1 391 473.971)"/></g></svg>