<svg width="1629" height="1628" xmlns="http://www.w3.org/2000/svg" xmlns:xlink="http://www.w3.org/1999/xlink" overflow="hidden"><defs><clipPath id="clip0"><rect x="1385" y="423" width="1629" height="1628"/></clipPath></defs><g clip-path="url(#clip0)" transform="translate(-1385 -423)"><path d="M2790.92 987.901C2756.95 987.977 2723 988.07 2689.03 988.159 2612.65 816.82 2462.72 693.06 2273.34 663.374 2062.34 630.306 1860.39 728.343 1739.98 900.823 1686.5 977.417 1812.19 1049.14 1865.23 973.173 2030.38 736.625 2383.01 758.001 2527.92 988.558 2496.55 988.634 2465.17 988.713 2433.8 988.789 2425.02 988.802 2418.79 992.723 2414.93 998.23 2408.63 1005 2406.23 1014.87 2412.83 1025.11 2472.58 1117.86 2532.33 1210.63 2592.09 1303.38 2602.13 1318.96 2623.81 1318.84 2633.76 1303.22 2693.04 1210.18 2752.33 1117.13 2811.61 1024.07 2821.43 1008.69 2808.51 987.864 2790.92 987.901Z" fill="#FFFFFF" fill-rule="evenodd"/><path d="M2534.84 1496.64C2371.05 1731.52 2022.72 1712.27 1875.83 1486.62 1905.89 1486.55 1935.95 1486.47 1966 1486.39 1974.75 1486.37 1980.97 1482.48 1984.84 1476.99 1991.15 1470.23 1993.56 1460.32 1986.96 1450.05 1927.26 1357.25 1867.53 1264.42 1807.82 1171.63 1797.8 1156.03 1776.12 1156.16 1766.17 1171.79 1706.92 1264.88 1647.65 1357.98 1588.38 1451.09 1578.58 1466.5 1591.49 1487.33 1609.07 1487.29 1644.08 1487.2 1679.06 1487.11 1714.07 1487.02 1791.16 1655.64 1939.7 1777.24 2126.97 1806.62 2337.87 1839.71 2539.71 1741.62 2660.04 1569.04 2713.48 1492.38 2587.83 1420.63 2534.84 1496.64Z" fill="#FFFFFF" fill-rule="evenodd"/></g></svg>