<svg xmlns="http://www.w3.org/2000/svg" viewBox="0 0 464.39 377.42"><defs><style>.cls-1{fill:#fff;}</style></defs><title>Icono_Twitter</title><g id="Capa_2" data-name="Capa 2"><g id="svg6"><g id="g4"><path id="path2" class="cls-1" d="M464.39,44.69a190.74,190.74,0,0,1-54.71,15A95.49,95.49,0,0,0,451.56,7a189.8,189.8,0,0,1-60.49,23.11A95.33,95.33,0,0,0,226.26,95.31,97.1,97.1,0,0,0,228.72,117,270.6,270.6,0,0,1,32.33,17.43a95.44,95.44,0,0,0,29.5,127.21,95,95,0,0,1-43.16-11.93v1.23A95.34,95.34,0,0,0,95.1,227.37a96.7,96.7,0,0,1-43,1.63,95.34,95.34,0,0,0,89,66.15A191.22,191.22,0,0,1,22.74,336,194.2,194.2,0,0,1,0,334.62a269.43,269.43,0,0,0,146,42.8c175.27,0,271.09-145.16,271.09-271.07,0-4.09-.1-8.22-.28-12.31a193.93,193.93,0,0,0,47.51-49.29Z"/></g></g></g></svg>