<svg width="2063" height="511" xmlns="http://www.w3.org/2000/svg" xmlns:xlink="http://www.w3.org/1999/xlink" xml:space="preserve" overflow="hidden"><defs><clipPath id="clip0"><rect x="1152" y="964" width="2063" height="511"/></clipPath></defs><g clip-path="url(#clip0)" transform="translate(-1152 -964)"><path d="M2417.01 1357.44 2416.33 1357.44C2416.67 1357.44 2416.67 1357.79 2417.01 1357.79L2417.36 1357.79 2417.01 1357.44ZM2417.01 1357.79C2414.26 1357.79 2407.05 1359.16 2399.49 1359.16 2375.77 1359.16 2367.53 1348.17 2367.53 1333.74L2367.53 1238.23 2415.98 1238.23C2418.73 1238.23 2420.79 1235.83 2420.79 1232.39L2420.79 1180.52C2420.79 1177.77 2418.39 1175.37 2415.98 1175.37L2367.53 1175.37 2367.53 1110.78C2367.53 1108.37 2365.81 1107 2363.06 1107L2297.08 1107C2294.33 1107 2292.95 1108.72 2292.95 1110.78L2292.95 1177.08C2292.95 1177.08 2259.62 1185.33 2257.55 1185.67 2255.15 1186.36 2253.77 1188.42 2253.77 1190.83L2253.77 1232.39C2253.77 1235.83 2256.18 1238.23 2258.93 1238.23L2292.61 1238.23 2292.61 1338.55C2292.61 1413.1 2344.5 1420.66 2379.9 1420.66 2396.05 1420.66 2415.64 1415.5 2418.73 1413.79 2420.45 1413.1 2421.48 1411.04 2421.48 1408.98L2421.48 1363.28C2421.48 1360.54 2419.76 1358.48 2417.01 1357.79L2417.01 1357.79ZM3140.77 1290.8C3140.77 1235.49 3118.43 1228.27 3095.06 1230.68 3076.85 1231.71 3062.07 1240.98 3062.07 1240.98L3062.07 1348.51C3062.07 1348.51 3076.85 1358.82 3099.19 1359.51 3130.46 1360.19 3140.77 1348.86 3140.77 1290.8L3140.77 1290.8ZM3215 1285.99C3215 1390.77 3180.98 1420.66 3121.87 1420.66 3071.69 1420.66 3044.89 1395.23 3044.89 1395.23 3044.89 1395.23 3043.86 1409.32 3042.14 1411.04 3041.11 1412.76 3039.73 1413.44 3037.67 1413.44L2992.65 1413.44C2989.56 1413.44 2986.81 1411.04 2986.81 1408.29L2987.49 1069.21C2987.49 1066.46 2989.9 1064.06 2992.65 1064.06L3057.6 1064.06C3060.35 1064.06 3062.76 1066.46 3062.76 1069.21L3062.76 1184.3C3062.76 1184.3 3087.84 1168.15 3124.62 1168.15L3124.27 1167.46C3160.7 1167.46 3215 1181.21 3215 1285.99L3215 1285.99ZM2948.66 1175.71 2884.4 1175.71C2880.96 1175.71 2879.24 1178.11 2879.24 1181.55L2879.24 1347.48C2879.24 1347.48 2862.4 1359.16 2839.38 1359.16 2816.69 1359.16 2809.82 1348.86 2809.82 1325.84L2809.82 1180.86C2809.82 1178.11 2807.42 1175.71 2804.67 1175.71L2739.37 1175.71C2736.62 1175.71 2734.22 1178.11 2734.22 1180.86L2734.22 1337.18C2734.22 1404.17 2771.67 1421 2823.22 1421 2865.84 1421 2900.2 1397.64 2900.2 1397.64 2900.2 1397.64 2901.92 1409.66 2902.61 1411.38 2903.3 1412.76 2905.36 1414.13 2907.42 1414.13L2948.32 1414.13C2951.75 1414.13 2953.47 1411.72 2953.47 1408.98L2954.16 1180.86C2954.5 1178.11 2951.75 1175.71 2948.66 1175.71L2948.66 1175.71ZM2224.91 1175.37 2159.95 1175.37C2157.2 1175.37 2154.8 1178.11 2154.8 1181.55L2154.8 1405.54C2154.8 1411.72 2158.92 1413.79 2164.08 1413.79L2222.84 1413.79C2229.03 1413.79 2230.4 1411.04 2230.4 1405.54L2230.4 1180.52C2230.06 1177.77 2227.66 1175.37 2224.91 1175.37L2224.91 1175.37ZM2192.6 1071.96C2169.23 1071.96 2150.33 1090.51 2150.33 1114.21 2150.33 1137.58 2168.89 1156.47 2192.6 1156.47 2215.63 1156.47 2234.19 1137.92 2234.19 1114.21 2234.19 1090.85 2215.63 1071.96 2192.6 1071.96L2192.6 1071.96ZM2696.41 1064.4 2631.8 1064.4C2629.05 1064.4 2626.65 1066.81 2626.65 1069.55L2626.65 1194.26 2525.61 1194.26 2525.61 1069.55C2525.61 1066.81 2523.21 1064.4 2520.46 1064.4L2455.5 1064.4C2452.75 1064.4 2450.35 1066.81 2450.35 1069.55L2450.35 1408.63C2450.35 1411.38 2453.1 1413.79 2455.5 1413.79L2520.46 1413.79C2523.21 1413.79 2525.61 1411.38 2525.61 1408.63L2525.61 1263.66 2626.65 1263.66 2625.96 1408.63C2625.96 1411.38 2628.37 1413.79 2631.12 1413.79L2696.07 1413.79C2698.82 1413.79 2701.22 1411.38 2701.22 1408.63L2701.22 1069.55C2701.57 1066.81 2699.16 1064.4 2696.41 1064.4L2696.41 1064.4ZM2120.09 1214.53 2120.09 1389.74C2120.09 1390.77 2119.74 1393.17 2118.37 1393.52 2118.37 1393.52 2080.22 1420.66 2017.33 1420.66 1941.38 1420.66 1851 1396.95 1851 1239.95 1851 1082.95 1929.7 1050.66 2006.68 1051 2073.35 1051 2100.16 1066.12 2104.28 1068.87 2105.31 1070.58 2106 1071.62 2106 1072.99L2093.63 1127.61C2093.63 1130.36 2090.88 1133.8 2087.44 1132.77 2076.44 1129.33 2059.95 1122.8 2021.11 1122.8 1976.09 1122.8 1927.98 1135.51 1927.98 1236.86 1927.98 1337.86 1973.69 1349.89 2006.68 1349.89 2034.86 1349.89 2044.83 1346.45 2044.83 1346.45L2044.83 1276.37 1999.81 1276.37C1996.37 1276.37 1993.96 1273.96 1993.96 1271.21L1993.96 1214.87C1993.96 1212.13 1996.37 1209.72 1999.81 1209.72L2114.25 1209.72C2117.68 1209.38 2120.09 1211.78 2120.09 1214.53L2120.09 1214.53Z" fill-rule="evenodd"/><path d="M1414 964C1269.25 964 1152 1081.26 1152 1226.03 1152 1341.92 1226.96 1439.92 1331.14 1474.65 1344.2 1476.72 1349.36 1469.15 1349.36 1462.28 1349.36 1456.09 1349.02 1435.45 1349.02 1413.45 1283.34 1425.48 1266.15 1397.28 1260.99 1382.84 1257.9 1375.27 1245.18 1351.89 1234.18 1345.7 1224.89 1340.89 1211.83 1328.51 1233.83 1328.16 1254.46 1327.82 1269.25 1347.08 1274.06 1354.99 1297.78 1394.53 1335.26 1383.53 1350.39 1376.65 1352.8 1359.8 1359.67 1348.11 1367.24 1341.57 1309.13 1335.04 1247.93 1312.35 1247.93 1212.28 1247.93 1183.74 1258.24 1160.01 1274.75 1141.78 1272 1135.25 1263.06 1108.43 1277.5 1072.32 1277.5 1072.32 1299.5 1065.44 1349.7 1099.14 1370.68 1093.3 1393.03 1090.2 1415.03 1090.2 1437.38 1090.2 1459.39 1093.3 1480.36 1099.14 1530.56 1065.1 1552.22 1072.32 1552.22 1072.32 1566.66 1108.43 1557.38 1135.25 1554.97 1141.78 1571.82 1160.01 1581.79 1183.39 1581.79 1212.28 1581.79 1312.69 1520.59 1335.04 1462.14 1341.57 1471.76 1349.83 1480.02 1365.3 1480.02 1390.06 1480.02 1425.14 1479.67 1453.33 1479.67 1461.93 1479.67 1468.81 1484.49 1477.06 1497.55 1474.31 1604.14 1438.2 1676 1338.14 1676 1225.69 1676 1081.26 1558.75 964 1414 964L1414 964Z" fill-rule="evenodd"/></g></svg>