<svg xmlns="http://www.w3.org/2000/svg" viewBox="0 0 1675.74 1188"><defs><style>.cls-1{fill:#ff0;}</style></defs><title>Icono_Ocasional_1</title><g id="Capa_2" data-name="Capa 2"><g id="Capa_1-2" data-name="Capa 1"><rect class="cls-1" width="1675.74" height="1188" rx="255.38"/><path d="M430.28,942.45v-595H228.47V257.55H738.75v89.92H536.94v595Z"/><path d="M1189.13,955q-87.84,0-154.76-43.39T929.29,787.7q-38.19-80.52-38.17-190.31,0-110.83,38.17-189.79t105.08-120.77Q1101.29,245,1189.13,245t155.28,41.83q67.44,41.84,105.09,120.77t37.64,189.79q0,109.79-37.64,190.31T1344.41,911.61Q1277,955,1189.13,955Zm0-93.06q57.49,0,99.86-32.94t65.35-92q23-59.06,23-139.59t-23-138.55q-23-58-65.35-89.41t-99.86-31.37q-56.46,0-98.81,31.37t-65.88,89.41q-23.52,58-23.53,138.55T1024.44,737q23.54,59.09,65.88,92T1189.13,861.94Z"/></g></g></svg>