<svg xmlns="http://www.w3.org/2000/svg" viewBox="0 0 3115.21 632.57"><defs><style>.cls-1{fill:#ff4900;}.cls-2{fill:#fff;}</style></defs><title>Icono_SeñalOcasional</title><g id="Capa_2" data-name="Capa 2"><g id="Capa_1-2" data-name="Capa 1"><rect class="cls-1" width="3115.21" height="632.57" rx="113.79"/><path class="cls-2" d="M353.63,506.35q-48.49,0-85.55-22.85T210.39,418q-20.62-42.64-20.62-101.72t20.62-100.88q20.61-41.79,57.69-64.09T353.63,129q48.48,0,85.27,22.29t57.4,64.09q20.62,41.81,20.63,100.88T496.3,418q-20.62,42.63-57.4,65.48T353.63,506.35Zm0-66.32q25.62,0,44.86-15t29.82-42.91q10.57-27.87,10.59-65.77t-10.59-64.93q-10.59-27-29.82-41.52t-44.86-14.49q-26.2,0-45.43,14.49t-29.53,41.52q-10.32,27-10.32,64.93t10.32,65.77Q289,409.94,308.2,425T353.63,440Z"/><path class="cls-2" d="M737.07,506.35q-46.26,0-84.15-21.18t-60.75-63q-22.86-41.81-22.85-102.55,0-45.15,13.37-80.54t37.06-59.91a160.93,160.93,0,0,1,54.62-37.34A167.84,167.84,0,0,1,739.3,129q35.12,0,62.7,14.21t45.43,32.6L806.74,224.9a144.43,144.43,0,0,0-29.54-21.18q-15.62-8.35-36.23-8.36a81,81,0,0,0-47.37,14.77q-21.18,14.77-33.44,41.8T647.9,316.86q0,39,11.15,66.6t32,42.08Q712,440,739.86,440q22.85,0,41-10a127.91,127.91,0,0,0,32-25.08l40.69,47.93a150.63,150.63,0,0,1-51.84,39.85Q772.19,506.35,737.07,506.35Z"/><path class="cls-2" d="M863.58,499.66,979.51,135.73h90.84l115.37,363.93h-80.81L1054.75,312.4q-7.82-27.86-15.33-58.52t-15.33-59.63h-2.23q-6.69,29-14.21,59.63T992.32,312.4L941.61,499.66Zm73.57-90.84V349.74H1111v59.08Z"/><path class="cls-2" d="M1336.75,506.35a196.15,196.15,0,0,1-71.06-13.65,191.16,191.16,0,0,1-62.7-39.29L1247,401a158,158,0,0,0,43.75,28.42Q1315,440,1338.42,440q27.32,0,41.25-10.31T1393.6,401q0-12.82-7-20.35t-18.94-13.37q-12-5.85-28.15-12.54l-47.93-20.62a166.51,166.51,0,0,1-35.39-20.63,99.73,99.73,0,0,1-27.59-32q-10.59-19.23-10.59-46A92.48,92.48,0,0,1,1234.48,182q16.44-24,45.15-38.45T1345.11,129a164.78,164.78,0,0,1,62.15,12.26,158.48,158.48,0,0,1,53.22,35.11L1422,224.9a144.89,144.89,0,0,0-36.23-22q-18.39-7.51-40.69-7.52t-35.94,9.47q-13.67,9.49-13.66,26.2,0,12.27,7.25,20.06t20.34,13.66q13.08,5.85,28.7,12.54l46.82,18.95a143.5,143.5,0,0,1,38.45,22.29,96.48,96.48,0,0,1,25.36,32.05q9.19,18.68,9.2,44.31a102.43,102.43,0,0,1-15.89,55.45q-15.88,25.37-46.25,40.69T1336.75,506.35Z"/><path class="cls-2" d="M1534.6,499.66V135.73H1611V499.66Z"/><path class="cls-2" d="M1845,506.35q-48.48,0-85.55-22.85T1701.8,418q-20.62-42.64-20.62-101.72t20.62-100.88q20.61-41.79,57.68-64.09T1845,129q48.49,0,85.28,22.29t57.4,64.09q20.61,41.81,20.62,100.88T1987.71,418q-20.62,42.63-57.4,65.48T1845,506.35Zm0-66.32q25.63,0,44.87-15t29.82-42.91q10.58-27.87,10.59-65.77t-10.59-64.93q-10.59-27-29.82-41.52T1845,195.36q-26.19,0-45.42,14.49t-29.54,41.52q-10.32,27-10.31,64.93t10.31,65.77q10.31,27.87,29.54,42.91T1845,440Z"/><path class="cls-2" d="M2078.56,499.66V135.73h78.58L2258,324.66l36.23,79.14h2.22q-2.79-29-6.13-63.53T2287,273.94V135.73h72.45V499.66h-78L2180.55,310.73l-36.79-79.14h-2.22q2.77,29.53,6.41,63.53a617.58,617.58,0,0,1,3.62,65.21V499.66Z"/><path class="cls-2" d="M2400.69,499.66l115.92-363.93h90.85l115.37,363.93H2642L2591.85,312.4q-7.8-27.86-15.32-58.52t-15.33-59.63H2559q-6.69,29-14.21,59.63t-15.33,58.52l-50.71,187.26Zm73.57-90.84V349.74h173.89v59.08Z"/><path class="cls-2" d="M2764.07,499.66V135.73h76.35V435.57h146v64.09Z"/></g></g></svg>