<svg width="373" height="373" xmlns="http://www.w3.org/2000/svg" xmlns:xlink="http://www.w3.org/1999/xlink" overflow="hidden"><defs><clipPath id="clip0"><rect x="146" y="100" width="373" height="373"/></clipPath></defs><g clip-path="url(#clip0)" transform="translate(-146 -100)"><path d="M303.748 270.958C295.2 270.958 288.206 263.965 288.206 255.417 288.206 246.869 295.2 239.875 303.748 239.875 312.296 239.875 319.29 246.869 319.29 255.417 319.29 263.965 312.296 270.958 303.748 270.958ZM465.381 261.245 257.511 174.989 221.766 261.245 292.092 290.774 292.092 305.927C292.092 323.023 278.104 337.01 261.008 337.01L202.727 337.01 202.727 154.396 179.415 154.396 179.415 418.604 202.727 418.604 202.727 360.323 261.008 360.323C290.926 360.323 315.404 335.845 315.404 305.927L315.404 300.099 381.456 327.297 465.381 261.245Z"/><path d="M457.222 287.666 422.642 314.864 451.005 326.52 485.585 299.322Z"/></g></svg>