<svg xmlns="http://www.w3.org/2000/svg" viewBox="0 0 350 392.02"><defs><style>.cls-1{fill-rule:evenodd;}</style></defs><title>Icono_LabPadre</title><g id="Capa_2" data-name="Capa 2"><g id="Capa_1-2" data-name="Capa 1"><path class="cls-1" d="M126.29,289.93a11,11,0,0,1-8.2-2.2l-27.7-20.9-76.8,5.7c-4.5.3-9-2.5-11.6-7.4a17.27,17.27,0,0,1-.3-15.5l41.6-83a11,11,0,0,1,7.9-6.3l84.3-14.1c6.5-1.1,12.9,4.6,14.2,12.6s-2.9,15.4-9.4,16.5l-79.1,13.2-26.4,52.9,56.3-4.2a10.81,10.81,0,0,1,7.3,2.3l31.1,23.5a17.39,17.39,0,0,1,4.7,20.3A10.3,10.3,0,0,1,126.29,289.93Z"/><path class="cls-1" d="M37.79,361.93a10.3,10.3,0,0,1-9.5-4.1c-4.2-5.2-4.3-13.3-.2-18l68.8-79.5c4.1-4.7,10.8-4.3,15,1s4.3,13.3.2,18l-68.8,79.5A9.28,9.28,0,0,1,37.79,361.93Z"/><path class="cls-1" d="M191,388.93a11,11,0,0,1-6.2-.9,15.27,15.27,0,0,1-7.7-10l-16.3-60.8c-2.1-7.8,1.3-15.8,7.7-17.9s13.2,2.7,15.2,10.6l11.1,41.6,55.1-42.9-14.9-68a15.91,15.91,0,0,1,3.4-14.2c.9-1,88.7-94.9,87.5-195.5l-.6.1c-80.4,13.4-143.5,91.9-144.2,92.6-4.5,5.6-12.1,5.5-17.1-.3s-5.4-15.1-.9-20.8c3.1-3.9,76.8-95.6,172.3-102.5,6.6-.5,12.6,5.7,13.5,13.8,5.4,51.3-8.9,106.7-42.5,164.5a441.53,441.53,0,0,1-46.2,64.9l15.3,69.7c1.3,6-.5,12.2-4.7,15.4l-75.3,58.6A11.5,11.5,0,0,1,191,388.93Z"/><path class="cls-1" d="M101.59,391.93a9.76,9.76,0,0,1-9.3-4.1c-4.1-5.3-4.3-13.5-.3-18.3l29.2-35.1c4-4.8,10.6-4.4,14.7.9s4.3,13.5.3,18.3L107,388.73A9.18,9.18,0,0,1,101.59,391.93Z"/></g></g></svg>