<svg xmlns="http://www.w3.org/2000/svg" xmlns:xlink="http://www.w3.org/1999/xlink" viewBox="0 0 4606.61 2062"><defs><style>.cls-1{fill:none;}.cls-2{clip-path:url(#clip-path);}.cls-3{fill:red;}.cls-4{fill:#fff;}.cls-5{fill:#282828;}</style><clipPath id="clip-path" transform="translate(-105.76)"><rect class="cls-1" width="2063" height="2062"/></clipPath></defs><title>Icono_AlertaYT</title><g id="Capa_2" data-name="Capa 2"><g id="Capa_1-2" data-name="Capa 1"><rect class="cls-1" x="742.24" width="2175" height="2062"/><g class="cls-2"><g class="cls-2"><g class="cls-2"><path class="cls-3" d="M1947,1718.33,1107.18,257.75c-32.22-58-116-58-148.21,0L117,1718.33c-32.22,58,8.59,128.88,75.17,128.88H1871.84C1938.42,1847.21,1979.23,1776.33,1947,1718.33ZM967.56,601.42h128.88v751.77H967.56ZM1032,1653.9c-60.14,0-107.4-47.26-107.4-107.4s47.26-107.4,107.4-107.4,107.4,47.26,107.4,107.4S1092.14,1653.9,1032,1653.9Z" transform="translate(-105.76)"/></g></g></g><g id="g7433"><path id="path7429" class="cls-3" d="M2745.07,306.53a114.15,114.15,0,0,0-80.31-80.31c-71.31-19.52-356.53-19.52-356.53-19.52s-285.22,0-356.53,18.77c-38.28,10.5-69.8,42-80.31,81.06-18.77,71.31-18.77,219.17-18.77,219.17s0,148.62,18.77,219.17a114.18,114.18,0,0,0,80.31,80.32c72.06,19.51,356.53,19.51,356.53,19.51s285.22,0,356.53-18.76a114.18,114.18,0,0,0,80.31-80.32c18.77-71.3,18.77-219.17,18.77-219.17s.75-148.61-18.77-219.92Z" transform="translate(-105.76)"/><path id="polygon7431" class="cls-4" d="M2217.41,389.09V662.31L2454.59,525.7Z" transform="translate(-105.76)"/></g><g id="g7451"><g id="g7449"><path id="path7435" class="cls-5" d="M3175.91,787.66c-18-12-30.77-30.78-38.28-57-7.51-25.52-11.26-60.05-11.26-102.08V570.74c0-42.79,4.5-77.31,12.76-103.58,9-26.28,22.52-45,40.53-57.05,18.77-12,42.79-18,72.81-18,29.27,0,53.29,6,71.31,18s30.77,31.53,39,57.05,12.76,60,12.76,103.58v57.79c0,42.79-3.76,76.56-12,102.83-8.26,25.52-21,45-39,57s-42.79,18-73.56,18c-31.53-.75-57-6.75-75.06-18.76Zm101.33-63c5.25-12.76,7.5-34.53,7.5-63.8V536.21c0-28.52-2.25-49.54-7.5-63.05s-13.51-19.52-26.27-19.52c-12,0-21,6.76-25.52,19.52-5.26,13.51-7.51,34.53-7.51,63.05v124.6c0,29.27,2.25,51,7.51,63.8,4.5,12.76,13.51,19.51,26.27,19.51C3263.73,744.12,3272,738.12,3277.24,724.61Z" transform="translate(-105.76)"/><path id="path7437" class="cls-5" d="M4561.5,629.28v20.27c0,25.52.75,45,2.25,57.79s4.5,22.52,9.75,27.78q6.77,9,22.52,9c13.51,0,22.52-5.25,27.77-15.76s7.51-27.77,8.26-52.54l77.31,4.5c.75,3.76.75,8.26.75,14.26,0,36.78-9.76,64.55-30,82.57s-48.79,27-85.57,27c-44.28,0-75.06-14.26-93.07-42s-27-70.56-27-129.1V563.23c0-60.05,9-103.58,27.77-131.35s50.29-41.28,94.57-41.28c30.78,0,54.8,6,71.31,17.26s27.77,29.27,34.53,52.54c6.75,24,9.75,57,9.75,99.08v68.3H4561.5Zm11.25-168.13c-4.5,6-7.5,15-9,27.77s-2.25,32.28-2.25,58.55V576h66.05V547.47q0-38.28-2.25-58.55c-1.51-13.51-5.26-22.52-9.76-27.77s-12-8.26-21-8.26c-10.51-.75-17.26,2.26-21.77,8.26Z" transform="translate(-105.76)"/><path id="path7439" class="cls-5" d="M2956.74,621.78l-102.08-370H2944l36,167.38Q2993.51,481,3000.27,525h2.25c3-21,9.76-55.54,20.27-105.08l37.53-168.13h89.32l-103.58,370V798.92h-88.57V621.78Z" transform="translate(-105.76)"/><path id="path7441" class="cls-5" d="M3666,399.6V799.67h-70.55L3588,750.88h-2.25c-18.76,36.78-48,55.54-86.32,55.54-26.27,0-45.78-9-58.54-26.27s-18.77-44.28-18.77-81.81V399.6h90.07V693.08c0,18,2.25,30.78,6,38.28s10.51,11.26,19.51,11.26c7.51,0,15-2.25,22.52-7.5a36.57,36.57,0,0,0,15.76-18V399.6Z" transform="translate(-105.76)"/><path id="path7443" class="cls-5" d="M4127.66,399.6V799.67H4057.1l-7.51-48.79h-2.25c-18.76,36.78-48,55.54-86.32,55.54-26.27,0-45.78-9-58.54-26.27s-18.77-44.28-18.77-81.81V399.6h90.07V693.08c0,18,2.26,30.78,6,38.28s10.51,11.26,19.51,11.26c7.51,0,15-2.25,22.52-7.5a36.57,36.57,0,0,0,15.76-18V399.6Z" transform="translate(-105.76)"/><path id="path7445" class="cls-5" d="M3910.74,324.54h-89.32V798.92H3733.6V324.54h-89.32v-72.8h266.46Z" transform="translate(-105.76)"/><path id="path7447" class="cls-5" d="M4425.64,463.4c-5.26-25.52-14.26-43.53-26.27-54.79s-29.27-17.26-50.29-17.26a80.91,80.91,0,0,0-46.54,14.26,91.66,91.66,0,0,0-33,36.78h-.75V231.47H4181.7V798.92H4256l9-37.53h2.25c6.76,13.51,17.27,24,31.53,32.27,14.26,7.51,29.27,12,46.54,12,30.77,0,52.54-14.26,66.8-42s21.76-72.06,21.76-131.36v-63c-.75-45.79-3-81.07-8.25-105.84Zm-82.57,162.88c0,29.27-1.5,51.79-3.75,68.3s-6.75,28.53-12,35.28c-6,6.76-13.51,10.51-22.52,10.51-7.5,0-14.26-1.5-20.26-5.25a43.32,43.32,0,0,1-15-15.77V492.68a61.36,61.36,0,0,1,15.76-27c7.5-6.75,15.76-10.5,24-10.5,9,0,16.51,3.75,21,10.5,5.26,7.51,8.26,19.52,10.51,36,2.25,17.27,3,41.28,3,72.06v52.54Z" transform="translate(-105.76)"/></g></g></g></g></svg>