<svg width="521" height="515" xmlns="http://www.w3.org/2000/svg" xmlns:xlink="http://www.w3.org/1999/xlink" overflow="hidden"><defs><clipPath id="clip0"><rect x="271" y="82" width="521" height="515"/></clipPath></defs><g clip-path="url(#clip0)" transform="translate(-271 -82)"><path d="M323.213 538.688C204.702 538.688 107.738 441.724 107.738 323.213 107.738 204.702 204.702 107.738 323.213 107.738 441.724 107.738 538.688 204.702 538.688 323.213 538.688 441.724 441.724 538.688 323.213 538.688ZM323.213 67.336C181.807 67.336 67.336 181.807 67.336 323.213 67.336 464.619 181.807 579.09 323.213 579.09 464.619 579.09 579.09 464.619 579.09 323.213 579.09 181.807 464.619 67.336 323.213 67.336Z" fill="#3904FC" transform="matrix(1 0 0 1.00029 206.293 16.0909)"/><path d="M336.68 188.541 309.746 188.541 309.746 323.213C309.746 327.253 311.093 330.62 313.786 332.64L408.73 427.584 427.584 408.73 336.68 317.826 336.68 188.541Z" fill="#3904FC" transform="matrix(1 0 0 1.00029 206.293 16.0909)"/><path d="M336.68 148.139C336.68 155.577 330.651 161.607 323.213 161.607 315.775 161.607 309.746 155.577 309.746 148.139 309.746 140.702 315.775 134.672 323.213 134.672 330.651 134.672 336.68 140.702 336.68 148.139Z" fill="#3904FC" transform="matrix(1 0 0 1.00029 206.293 16.0909)"/><path d="M336.68 498.287C336.68 505.724 330.651 511.754 323.213 511.754 315.775 511.754 309.746 505.724 309.746 498.287 309.746 490.849 315.775 484.82 323.213 484.82 330.651 484.82 336.68 490.849 336.68 498.287Z" fill="#3904FC" transform="matrix(1 0 0 1.00029 206.293 16.0909)"/><path d="M161.607 323.213C161.607 330.651 155.577 336.68 148.139 336.68 140.702 336.68 134.672 330.651 134.672 323.213 134.672 315.775 140.702 309.746 148.139 309.746 155.577 309.746 161.607 315.775 161.607 323.213Z" fill="#3904FC" transform="matrix(1 0 0 1.00029 206.293 16.0909)"/><path d="M511.754 323.213C511.754 330.651 505.724 336.68 498.287 336.68 490.849 336.68 484.82 330.651 484.82 323.213 484.82 315.775 490.849 309.746 498.287 309.746 505.724 309.746 511.754 315.775 511.754 323.213Z" fill="#3904FC" transform="matrix(1 0 0 1.00029 206.293 16.0909)"/></g></svg>