<svg xmlns="http://www.w3.org/2000/svg" xmlns:xlink="http://www.w3.org/1999/xlink" viewBox="0 0 582.73 250"><defs><style>.cls-1,.cls-2{fill:none;}.cls-2{clip-path:url(#clip-path);}.cls-3{fill:#fff;}.cls-4{fill:#a644ff;}.cls-5{clip-path:url(#clip-path-2);}.cls-6{clip-path:url(#clip-path-3);}</style><clipPath id="clip-path"><polygon class="cls-1" points="280.89 333 613.89 333 613.89 0 280.89 0 280.89 333 280.89 333"/></clipPath><clipPath id="clip-path-2" transform="translate(0 -41.5)"><polygon class="cls-2" points="280.89 0 613.89 0 613.89 333 280.89 333 280.89 0 280.89 0"/></clipPath><clipPath id="clip-path-3" transform="translate(0 -41.5)"><polygon class="cls-1" points="280.89 333 613.89 333 613.89 0 280.89 0 280.89 333 280.89 333"/></clipPath></defs><title>Icono_Twitch_Chat_1</title><g id="Capa_2" data-name="Capa 2"><g id="Capa_1-2" data-name="Capa 1"><polygon class="cls-3" points="196.43 116.07 160.71 151.79 125 151.79 93.75 183.04 93.75 151.79 53.57 151.79 53.57 17.86 196.43 17.86 196.43 116.07"/><path class="cls-4" d="M44.64,41.5,0,86.14V246.86H53.57V291.5l44.64-44.64h35.72l80.36-80.36V41.5ZM196.43,157.57l-35.72,35.72H125L93.75,224.5V193.29H53.57V59.36H196.43Z" transform="translate(0 -41.5)"/><rect class="cls-4" x="151.79" y="49.11" width="17.86" height="53.57"/><rect class="cls-4" x="102.68" y="49.11" width="17.86" height="53.57"/><g class="cls-5"><g class="cls-6"><path d="M424.93,92.65h54.88V82.36a13.78,13.78,0,0,0-13.72-13.74h-144a13.78,13.78,0,0,0-13.71,13.74V175a13.77,13.77,0,0,0,13.72,13.73h20.58V223l34.3-34.31h20.57V120.11A27.52,27.52,0,0,1,425,92.65Z" transform="translate(0 -41.5)"/><path d="M569,106.37h-144a13.78,13.78,0,0,0-13.72,13.74v92.64a13.78,13.78,0,0,0,13.72,13.69h89.25l34.28,34.31V226.44H569a13.76,13.76,0,0,0,13.69-13.69V120.11A13.76,13.76,0,0,0,569,106.37Z" transform="translate(0 -41.5)"/></g></g></g></g></svg>