<svg viewBox="0 0 96 96" xmlns="http://www.w3.org/2000/svg" xmlns:xlink="http://www.w3.org/1999/xlink" id="Icons_Camera" overflow="hidden"><path d="M48 73C38 73 30 65 30 55 30 45 38 37 48 37 58 37 66 45 66 55 66 65 58 73 48 73ZM28 41 16 41 16 33 28 33 28 41ZM84 25 64 25 58 15 38 15 32 25 12 25C9.8 25 8 26.8 8 29L8 77C8 79.2 9.8 81 12 81L84 81C86.2 81 88 79.2 88 77L88 29C88 26.8 86.2 25 84 25Z"/><path d="M48 45C42.4 45 38 49.4 38 55 38 60.6 42.4 65 48 65 53.6 65 58 60.6 58 55 58 49.4 53.6 45 48 45ZM48 69C40.2 69 34 62.8 34 55 34 47.2 40.2 41 48 41 55.8 41 62 47.2 62 55 62 62.8 55.8 69 48 69Z"/></svg>