<svg width="373" height="373" xmlns="http://www.w3.org/2000/svg" xmlns:xlink="http://www.w3.org/1999/xlink" overflow="hidden"><defs><clipPath id="clip0"><rect x="819" y="59" width="373" height="373"/></clipPath></defs><g clip-path="url(#clip0)" transform="translate(-819 -59)"><path d="M850.083 315.438 850.083 136.708 1160.92 136.708 1160.92 315.438 850.083 315.438ZM1036.58 362.062 974.417 362.062 974.417 338.75 1036.58 338.75 1036.58 362.062ZM1184.23 338.75 1184.23 113.396 826.771 113.396 826.771 338.75 951.104 338.75 951.104 362.062 881.167 362.062C876.893 362.062 873.396 365.559 873.396 369.833L873.396 377.604 1137.6 377.604 1137.6 369.833C1137.6 365.559 1134.11 362.062 1129.83 362.062L1059.9 362.062 1059.9 338.75 1184.23 338.75Z"/></g></svg>