<svg xmlns="http://www.w3.org/2000/svg" viewBox="0 0 471.78 188.71"><title>Logo_NTV</title><g id="Capa_2" data-name="Capa 2"><g id="Capa_1-2" data-name="Capa 1"><path d="M287.23,39.65v128c0,12.37-7.48,21-18.41,21s-19.57-8.34-19.57-20.43V39.36h-6.62c-13.52,0-27,.29-40.28,0a19.16,19.16,0,0,1-.58-38.27H341.62c14.68,0,19.28,3.45,24.17,17.55,10.36,29.35,20.72,58.41,31.37,87.77.57,1.72,1.44,3.45,2.59,6.61,2.59-6.9,4.6-12.66,6.61-18.41l28.49-79.42c3.74-10.07,12.09-15.54,21.3-13.81,12.66,2.3,18.7,14.1,14.1,27.33C457,65.83,443.48,103.53,430,141.22c-3.74,10.94-7.77,21.59-11.51,32.52-3.45,9.78-10.36,15.25-19.28,15s-15-5.18-18.42-15c-15.25-42.88-30.79-86-46-128.91-1.44-4.32-3.45-5.76-7.77-5.47-11.22.29-22.44,0-33.38,0-2,0-4,.29-6.33.29" style="fill:red"/><path d="M57.27,31.67c3.5-4.85,6.15-9.31,9.55-13.09C81.42,2.37,100.56-1.2,121.07.32A70.75,70.75,0,0,1,141,4.73c23.25,8.92,33.38,27.81,37.1,51.06a107.24,107.24,0,0,1,1.1,15.93q.27,32.49.2,65c0,7.4,1.84,13.45,7.95,18.39,6.47,5.22,8.17,12.75,5.4,20.41-2.92,8.09-9.38,12.23-18.11,12.6-16.62.69-30.69-9.27-35-25.4A68.12,68.12,0,0,1,137.2,146c-.25-22.49-.07-45,0-67.5,0-9.94-1.08-19.62-6.41-28.37A27.61,27.61,0,0,0,113,37.31C90.5,31.76,70.55,43.84,65.23,66.7A97.44,97.44,0,0,0,62.9,88c-.19,26,.08,52,.13,78a21.71,21.71,0,0,1-21.28,21.47c-11.31.19-20.68-9-20.89-21-.22-13.32,0-26.66,0-40,.05-24.34-.13-48.67.24-73C21.25,43.93,18.56,37.14,9.4,33A15.74,15.74,0,0,1,.24,15.79,17.56,17.56,0,0,1,14.42,1.48C23.11-.15,31.89.08,40,3.66,51.49,8.76,57.86,17.74,57.27,31.67Z" style="fill:red"/></g></g></svg>