<svg width="2585" height="341" xmlns="http://www.w3.org/2000/svg" xmlns:xlink="http://www.w3.org/1999/xlink" overflow="hidden"><defs><clipPath id="clip0"><rect x="24" y="190" width="2585" height="341"/></clipPath><clipPath id="clip1"><rect x="33" y="247" width="322" height="226"/></clipPath><clipPath id="clip2"><rect x="33" y="247" width="322" height="226"/></clipPath><clipPath id="clip3"><rect x="33" y="247" width="322" height="226"/></clipPath><clipPath id="clip4"><rect x="437" y="233" width="2128" height="254"/></clipPath><clipPath id="clip5"><rect x="437" y="233" width="2128" height="254"/></clipPath><clipPath id="clip6"><rect x="437" y="233" width="2128" height="254"/></clipPath></defs><g clip-path="url(#clip0)" transform="translate(-24 -190)"><g clip-path="url(#clip1)"><g clip-path="url(#clip2)"><g clip-path="url(#clip3)"><path d="M314.31 35.1583C310.609 21.4122 299.771 10.5739 286.025 6.87305 260.912 0 160.459 0 160.459 0 160.459 0 60.007 0 34.894 6.6087 21.4122 10.3096 10.3096 21.4122 6.6087 35.1583 0 60.2714 0 112.348 0 112.348 0 112.348 0 164.689 6.6087 189.538 10.3096 203.284 21.1479 214.122 34.894 217.823 60.2714 224.696 160.459 224.696 160.459 224.696 160.459 224.696 260.912 224.696 286.025 218.087 299.771 214.386 310.609 203.548 314.31 189.802 320.919 164.689 320.919 112.612 320.919 112.612 320.919 112.612 321.183 60.2714 314.31 35.1583Z" fill="#FF0000" transform="matrix(1.00337 0 0 1 33 247.652)"/><path d="M212.007 112.348 128.473 64.2366 128.473 160.459Z" fill="#FFFFFF" transform="matrix(1.00337 0 0 1 33 247.652)"/></g></g></g><g clip-path="url(#clip4)"><g clip-path="url(#clip5)"><g clip-path="url(#clip6)"><path d="M-214.877 898.695C-232.45 923.822-260.682 938.837-290.615 938.837-334.168 938.837-372.543 906.924-381.855 862.959L-382.195 861.361-220.757 861.361-175.613 861.361-169.302 861.361C-168.027 852.719-168.389 843.294-168.389 843.294L-168.395 843.312C-168.395 843.043-168.376 842.758-168.376 842.479-168.376 773.007-223.217 716.472-290.617 716.472-358 716.472-412.834 773.005-412.834 842.479-412.834 911.984-358 968.51-290.617 968.51-244.707 968.51-203.067 942.329-181.927 900.189L-178.907 894.049-211.838 894.049C-212.983 895.931-214.083 897.563-214.877 898.695M-383.259 830.209C-377.256 782.272-337.431 746.143-290.615 746.143-243.784 746.143-203.952 782.272-197.974 830.209L-197.785 831.676-383.436 831.676-383.259 830.209Z" fill="#003865" transform="matrix(1 0 0 1.00303 849.832 -485.245)"/><path d="M-31.2667 968.572C-44.8284 968.572-57.805 966.144-69.8325 961.356-81.7705 956.589-92.3233 949.682-101.22 940.831-110.296 931.83-117.361 921.113-122.217 908.997-127.252 896.343-129.282 882.548-129.216 867.979L-129.219 721.356-100.937 721.356-100.942 865.596C-100.984 876.879-99.6074 887.433-95.8983 896.971-92.3829 906.051-87.282 914.082-80.7363 920.843-74.3715 927.414-66.8681 932.528-58.4391 936.046-49.8867 939.612-40.7618 941.421-31.3284 941.421-21.6801 941.41-12.519 939.595-3.97936 936.02 4.49008 932.47 12.0211 927.342 18.4029 920.762 24.9508 914.038 30.0878 906.015 33.6777 896.914 37.4592 887.325 39.7659 876.77 39.7872 865.57L39.7872 721.358 68.013 721.358 68.0088 868.007C67.9641 882.611 64.987 896.392 59.8883 908.956 54.9599 921.081 47.8566 931.787 38.7679 940.785 29.7941 949.65 19.218 956.553 7.31394 961.311-4.71139 966.118-17.6922 968.559-31.2624 968.576L-31.2667 968.572-31.2667 968.572Z" fill="#003865" transform="matrix(1 0 0 1.00303 849.832 -485.245)"/><path d="M108.396 962.018 108.396 823.223C108.409 812.9 109.635 802.799 112.039 793.195 115.35 779.88 120.836 768.004 128.35 757.898 137.697 745.319 150.194 735.441 165.495 728.542 183.219 720.577 204.929 716.544 230.022 716.544L234.765 716.544 234.765 746.711 230.139 746.709C211.838 746.709 196.14 749.116 183.389 753.857 172.172 758.019 162.941 764.063 155.961 771.819 149.881 778.591 145.359 786.809 142.523 796.229 140.095 804.303 138.846 813.394 138.816 823.249L138.816 962.016 108.396 962.016 108.396 962.018Z" fill="#003865" transform="matrix(1 0 0 1.00303 849.832 -485.245)"/><path d="M689.293 962.011 689.293 835.217C689.336 825.396 688.291 816.273 685.125 808.104 682.203 800.513 677.979 793.829 672.574 788.228 667.385 782.855 661.268 778.669 654.398 775.794 647.357 772.853 639.828 771.362 632.02 771.362 624.076 771.366 616.471 772.866 609.429 775.822 602.52 778.729 596.368 782.938 591.141 788.33 585.724 793.916 581.463 800.609 578.467 808.231 575.237 816.456 573.168 825.566 573.156 835.315L573.151 962.02 517.187 962.02 517.183 832.782C517.234 816.09 520.636 800.302 526.484 785.849 532.209 771.734 540.463 759.262 551.026 748.767 561.473 738.412 573.773 730.347 587.59 724.803 601.46 719.249 616.375 716.419 631.935 716.393 647.518 716.393 662.444 719.204 676.306 724.748 690.189 730.304 702.485 738.378 712.852 748.737 723.401 759.245 731.613 771.734 737.258 785.856 743.04 800.428 745.379 816.248 745.304 832.895L745.304 962.018 689.293 962.018Z" fill="#003865" transform="matrix(1 0 0 1.00303 849.832 -485.245)"/><path d="M894.862 968.423C827.46 968.423 772.656 911.901 772.656 842.422 772.656 772.922 827.46 716.385 894.862 716.385 962.241 716.385 1017.06 772.922 1017.06 842.422 1017.06 848.844 1016.58 855.305 1015.63 861.653L1015.34 863.555 824.508 863.555 825.324 866.143C835.219 897.088 863.179 917.887 894.862 917.887 912.082 917.887 928.295 911.799 941.651 900.295 941.651 900.295 945.219 897.222 945.668 896.792L1005.15 896.792 1003.47 900.144C982.364 942.251 940.734 968.423 894.862 968.423M894.862 766.918C863.179 766.918 835.225 787.711 825.324 818.678L824.508 821.261 965.18 821.261 964.365 818.678C954.476 787.711 926.55 766.918 894.862 766.918" fill="#003865" transform="matrix(1 0 0 1.00303 849.832 -485.245)"/><path d="M1036.11 722.79 1036.11 721.358 1096.73 721.358C1104.13 779.393 1123.16 871.412 1139.6 913.012 1157.01 871.412 1177.32 779.391 1184.74 721.358L1235.02 721.358C1242.76 779.393 1262.76 867.558 1280.48 913.012 1296.93 867.556 1315.62 779.391 1323.36 721.358L1383.65 721.358 1383.65 722.792C1369.79 813.398 1343.35 906.562 1320.78 962.013L1245.35 962.013C1232.78 931.709 1217.62 885.282 1209.88 843.69 1202.46 885.282 1186.03 934.29 1174.74 962.013L1099.3 962.013C1072.84 901.41 1044.1 799.756 1036.11 722.79" fill="#003865" transform="matrix(1 0 0 1.00303 849.832 -485.245)"/><path d="M1408.56 951.452 1408.56 905.49 1411.09 905.49C1424.72 909.616 1454.2 915.327 1475.43 915.327L1487.81 915.327C1507.44 915.327 1522.35 909.301 1522.35 889.327 1522.35 874.436 1509.35 868.422 1495.08 864.611L1458 854.79C1430.74 847.819 1408.56 828.79 1408.56 787.903 1408.56 739.735 1448.18 719.762 1496.34 719.762L1508.71 719.762C1523.6 719.762 1553.4 723.575 1567.02 728.64L1567.02 774.281 1564.49 774.281C1552.12 770.789 1522.34 766.995 1508.71 766.995L1497.61 766.995C1480.19 766.995 1465.28 770.47 1465.28 787.903 1465.28 801.543 1475.43 806.923 1487.8 810.091L1524.88 820.233C1560.68 829.741 1579.38 850.979 1579.38 889.327 1579.38 942.578 1541.04 962.545 1487.79 962.545L1475.42 962.545C1456.72 962.548 1425.67 957.481 1408.56 951.452" fill="#003865" transform="matrix(1 0 0 1.00303 849.832 -485.245)"/><path d="M1715.17 911.799C1715.17 939.855 1692.43 962.59 1664.37 962.59 1636.33 962.59 1613.59 939.848 1613.59 911.799 1613.59 883.75 1636.33 861.012 1664.37 861.012 1692.43 861.01 1715.17 883.752 1715.17 911.799" fill="#003865" transform="matrix(1 0 0 1.00303 849.832 -485.245)"/><path d="M366.648 716.959C298.739 716.959 243.686 773.377 243.686 842.975 243.686 912.576 298.739 968.993 366.648 968.993 434.557 968.993 489.61 912.574 489.61 842.975 489.61 773.381 434.557 716.959 366.648 716.959M366.648 934.624C319.27 934.624 280.726 893.511 280.726 842.971 280.726 792.437 319.27 751.32 366.648 751.32 414.024 751.32 452.572 792.437 452.572 842.971 452.572 893.511 414.024 934.624 366.648 934.624" fill="#003865" transform="matrix(1 0 0 1.00303 849.832 -485.245)"/></g></g></g></g></svg>