<svg width="1257" height="341" xmlns="http://www.w3.org/2000/svg" xmlns:xlink="http://www.w3.org/1999/xlink" overflow="hidden"><defs><clipPath id="clip0"><rect x="24" y="190" width="1257" height="341"/></clipPath><clipPath id="clip1"><rect x="379" y="190" width="742" height="340"/></clipPath><clipPath id="clip2"><rect x="379" y="190" width="742" height="340"/></clipPath><clipPath id="clip3"><rect x="379" y="190" width="742" height="340"/></clipPath><clipPath id="clip4"><rect x="33" y="247" width="322" height="226"/></clipPath><clipPath id="clip5"><rect x="33" y="247" width="322" height="226"/></clipPath><clipPath id="clip6"><rect x="33" y="247" width="322" height="226"/></clipPath></defs><g clip-path="url(#clip0)" transform="translate(-24 -190)"><g clip-path="url(#clip1)"><g clip-path="url(#clip2)"><g clip-path="url(#clip3)"><path d="M59.9866 270.845 177.58 270.845 238.666 69.516 351.032 69.516 369.554 0.000620756 19.3225 0.000620756-0.000414189 69.516 119.98 69.516Z" fill="#128BEF" fill-rule="evenodd" transform="matrix(1 0 0 1.0018 445.438 224.334)"/><path d="M358.979 80.1103 246.608 80.1103 188.726 270.845 293.175 270.845 330.358 135.397 411.975 270.845 531.669 270.845 609.125 0.000620756 491.503 0.000620756 451.87 135.386 377.303 12.9786Z" fill="#FF3939" fill-rule="evenodd" transform="matrix(1 0 0 1.0018 445.438 224.334)"/></g></g></g><g clip-path="url(#clip4)"><g clip-path="url(#clip5)"><g clip-path="url(#clip6)"><path d="M314.31 35.1583C310.609 21.4122 299.771 10.5739 286.025 6.87305 260.912 0 160.459 0 160.459 0 160.459 0 60.007 0 34.894 6.6087 21.4122 10.3096 10.3096 21.4122 6.6087 35.1583 0 60.2714 0 112.348 0 112.348 0 112.348 0 164.689 6.6087 189.538 10.3096 203.284 21.1479 214.122 34.894 217.823 60.2714 224.696 160.459 224.696 160.459 224.696 160.459 224.696 260.912 224.696 286.025 218.087 299.771 214.386 310.609 203.548 314.31 189.802 320.919 164.689 320.919 112.612 320.919 112.612 320.919 112.612 321.183 60.2714 314.31 35.1583Z" fill="#FF0000" transform="matrix(1.00337 0 0 1 33 247.652)"/><path d="M212.007 112.348 128.473 64.2366 128.473 160.459Z" fill="#FFFFFF" transform="matrix(1.00337 0 0 1 33 247.652)"/></g></g></g></g></svg>