<?xml version="1.0" encoding="UTF-8"?>
<svg id="Capa_1" xmlns="http://www.w3.org/2000/svg" version="1.1" viewBox="0 0 223.9 217.6">
  <!-- Generator: Adobe Illustrator 29.2.1, SVG Export Plug-In . SVG Version: 2.1.0 Build 116)  -->
  <defs>
    <style>
      .st0 {
        fill: #fa6428;
      }
    </style>
  </defs>
  <path class="st0" d="M223.4,205.6c-2-5.8-9.7-9.2-10.7-9.7-8.1-4.1-16.4-7.8-25-10.9,2.9-1.7,5.6-3.6,8.1-5.6,12.7-10.4,19.1-24.5,19.1-41.8,0-10.7-2.8-20.2-8.2-28.2-3.7-5.4-8.9-10-15.2-13.6-.5-.3-.8-.8-.9-1.4,0-.6.2-1.1.8-1.5,4.8-3.3,8.9-7.4,12.3-12.1,5.6-7.6,8.4-16.1,8.4-25.2,0-17.3-5.9-31-17.7-41C183,5,166.9,0,146.8,0h-.1c-11.6,0-22.3,2.2-32,6.7-9.8,4.5-17.6,10.9-23.1,19-4.4,6.4-7.1,13.6-8,21.3-.3,2.5.5,5,2.2,7,1.7,1.9,4.2,3,6.7,3h25.8c4.2,0,7.8-2.9,8.7-7.2.7-3.3,2.4-6.1,5.3-8.5,4-3.2,9.1-4.9,15.1-4.9s12,1.8,15.6,5.2c3.6,3.4,5.4,8.2,5.4,14.5,0,6.7-1.9,11.9-5.6,15.8-3.7,3.8-9.7,5.8-17.8,5.8h-2.9c-9.8,0-17.8,8-17.8,17.8,0,4.8,1.8,9.2,5.2,12.6,3.4,3.4,7.8,5.2,12.6,5.2h2.7c9,0,15.7,2,20,5.9,4.3,3.9,6.4,9.8,6.4,17.9s-2,11.6-6.2,15.4c-4.2,3.9-10.1,5.8-17.8,5.8s-12.2-1.9-16.6-5.7c-3.4-2.9-5.3-6.2-6.1-10.3-.8-4.3-4.4-7.4-8.7-7.4h-26c-2.5,0-4.9,1-6.5,2.9-1.7,1.8-2.5,4.3-2.3,6.8,1,10.7,4.8,20,11.3,27.9-5.7.5-11.3,1.2-16.9,2.2l-.2-168h0c0-2.2-1.1-4.2-2.9-5.5-1.8-1.3-4.1-1.6-6.2-.8L13.1,19.8c-2.5.9-4.2,3.3-4.2,6v18.9c0,2.1,1,4,2.7,5.3,1.7,1.2,3.8,1.6,5.8,1l18.9-5.9.2,139.2c0,.2,0,.5,0,.7-8.7,3.1-17.1,6.9-25.4,11.1-1,.4-8.7,3.8-10.7,9.7-.8,2.5-.6,5,.9,7.4,1.6,2.9,4.8,4.4,9,4.4h.2c2.8,0,5.2-.7,5.7-.9,31.3-6.4,63.4-9.7,95.6-9.8,32.2,0,64.4,3.3,95.6,9.7.5.2,2.9.8,5.7.9h.4c4.2,0,7.2-1.6,8.8-4.4,1.4-2.5,1.7-5,.9-7.4h0Z"/>
</svg>