<?xml version="1.0" encoding="utf-8"?>
<!-- Generator: Adobe Illustrator 23.0.2, SVG Export Plug-In . SVG Version: 6.00 Build 0)  -->
<svg version="1.1" id="Capa_1" xmlns="http://www.w3.org/2000/svg" xmlns:xlink="http://www.w3.org/1999/xlink" x="0px" y="0px"
	 viewBox="0 0 251.9 47.2" style="enable-background:new 0 0 251.9 47.2;" xml:space="preserve">
<style type="text/css">
	.st0{fill:#FF6C1C;}
</style>
<title>T13_ENVIVO</title>
<path class="st0" d="M30.7,0h-30C0.4,0,0.1,0.2,0,0.4v8.1C0,8.8,0.3,9,0.7,9.2H11c0.3,0,0.6,0.1,0.7,0.4v23.5c0.2,3.1,1.1,6,2.8,8.6
	c1.7,2,3.9,3.6,6.4,4.6c0.3,0.3,0.7,0,0.8-0.3V10c0-0.3,0.1-0.6,0.4-0.7h1.3c0.3,0,0.4,0,0.4-0.3l7.4-8c0.3-0.1,0.5-0.5,0.4-0.8
	C31.3,0,31,0,30.7,0"/>
<path class="st0" d="M42.2,0h-7.8C34.1,0,34,0,34,0.3l-7.4,8c-0.3,0.3-0.3,0.5,0,0.8c0.3,0,0.3,0.3,0.4,0.3h5.3
	c0.3,0,0.5,0.3,0.7,0.7V34c0,3.2,1.2,6.2,3.2,8.6c1.7,1.6,3.7,2.9,5.8,3.9c0.3,0.3,0.7,0,0.8-0.3V0.7C42.6,0.4,42.4,0.2,42.2,0"/>
<path class="st0" d="M68.6,0H45.1c-0.3,0-0.6,0.1-0.7,0.4v8.1c0,0.3,0.1,0.6,0.4,0.7h9.4c0.3,0,0.5,0.3,0.7,0.7c0,0.3,0,0.3-0.3,0.4
	L48,17.5c0,0.3-0.3,0.3-0.3,0.4v7c0,0.3,0.3,0.5,0.7,0.7h7.5c0.4,0,5.4,1.1,4.7,7.2c0,2.5-1.7,4.8-4.2,5.4H44.9
	c-0.3,0-0.6,0.1-0.7,0.4v7.9c0,0.3,0.1,0.6,0.4,0.7h12.1c0,0,12.8-0.4,12.8-14.9c0.3-5.8-3.6-11-9.2-12.4c-0.3,0-0.4-0.4-0.4-0.7
	c0-0.1,0.1-0.2,0.1-0.3l8.4-9.2c0-0.3,0.3-0.3,0.3-0.4V1.1C68.9,0.8,68.9,0.3,68.6,0"/>
<path class="st0" d="M98.5,14.1c4,0,7,1.2,8.8,3.7s2.2,6.2,1.3,11.2l-0.4,1.9H91.9c-0.3,1.3,0.1,2.6,1.1,3.5c1.4,0.8,3,1.2,4.6,1.1
	c3.1,0,6.1-0.5,9-1.4l-2.6,7.5c-2,0.9-4.9,1.3-8.8,1.3c-4.9,0-8.4-1.3-10.4-3.9s-2.6-6.4-1.8-11.4C84.6,18.6,89.8,14.1,98.5,14.1
	 M97.7,20.7c-2.5,0-4.1,1.6-4.9,4.9h8C101.2,22.3,100.2,20.7,97.7,20.7"/>
<path class="st0" d="M132.5,14.1c2.6,0,4.5,0.9,5.7,2.8s1.5,4.4,1,7.6L136,42.4h-9.7l3-16.7c0.3-1,0.2-2.1-0.2-3
	c-0.5-0.7-1.3-1.1-2.1-1c-1-0.1-1.9,0.3-2.6,1c-0.7,0.8-1.1,1.9-1.2,3l-3,16.7h-9.8l4.9-27.7h8.7l0.5,2.6
	C126.6,15.2,129.5,14,132.5,14.1"/>
<polygon class="st0" points="171.6,14.7 182.1,14.7 167.8,42.4 158.1,42.4 153.5,14.7 163.3,14.7 164.6,31.7 "/>
<path class="st0" d="M179.8,42.4l4.9-27.7h9.7l-4.9,27.7H179.8z M185.4,11.1l1.1-6.3h9.7l-1.1,6.3H185.4z"/>
<polygon class="st0" points="215.1,14.7 225.6,14.7 211.4,42.4 201.6,42.4 197,14.7 206.8,14.7 208.1,31.7 "/>
<path class="st0" d="M234.8,43c-8.8,0-12.3-5-10.6-14.9c0.9-5,2.5-8.5,5-10.7s6-3.3,10.7-3.3c8.8,0,12.3,4.9,10.6,14.7
	c-0.9,5.1-2.5,8.7-4.9,10.9S239.6,43,234.8,43 M233.8,33.8c0.3,1,1.3,1.7,2.4,1.5c1.2,0.1,2.3-0.5,2.9-1.5c0.7-1,1.2-2.8,1.7-5.4
	s0.5-4.3,0.1-5.3c-0.3-1-1.3-1.7-2.4-1.5c-1.2-0.1-2.3,0.5-2.9,1.5c-0.7,1-1.2,2.8-1.6,5.4S233.4,32.9,233.8,33.8"/>
</svg>
