<svg id="Capa_1" data-name="Capa 1" xmlns="http://www.w3.org/2000/svg" xmlns:xlink="http://www.w3.org/1999/xlink" viewBox="0 0 376.95 294"><defs><clipPath id="clip-path" transform="translate(-0.02)"><rect x="-1" y="-1" width="1222" height="296" style="fill:none"/></clipPath></defs><title>Logo_24HTVN</title><g style="clip-path:url(#clip-path)"><path d="M66.19,200.76c-4.85,0-8.73-2.19-10.43-6.08s-.48-8.25,2.91-11.9c9.22-9.95,18.2-17.48,27.66-25.5,4.85-4.13,10-8.5,15.28-13.36,7.76-6.07,11.65-16,9-23.56-1.94-5.83-7.52-9-15.29-9-6.55,0-13.34,3.89-17.22,10.21a10.44,10.44,0,0,1-9.22,5.1h0a10,10,0,0,1-8.73-4.62c-2.18-3.4-2.18-7.77-.24-12.14C66.44,97.29,79.29,90,95.3,90c17.47,0,31.06,8.26,36.63,21.86,6.07,15.06.73,33-13.82,47.36a187.22,187.22,0,0,1-27.9,20.41c2.43,0,5.09-.25,7.76-.49,3.88-.24,7.77-.49,11.16-.49h18.2c6.79,0,10.67,6.08,10.67,11.66a10.72,10.72,0,0,1-2.67,7.29,10.23,10.23,0,0,1-8,3.4H66.19Z" transform="translate(-0.02)" style="fill:red;fill-rule:evenodd"/><path d="M205.79,201c-5.35,0-11.18-3.14-11.18-9.92V178.75H150.88c-5.83,0-10-2.17-11.91-5.8-1.94-4.11-1-9.43,2.92-14l52.72-63.36c2.92-3.14,5.83-5.56,11.91-5.56,7.77,0,10.44,6.53,10.44,11.85V157.5h6a9.27,9.27,0,0,1,7.53,3.39,10.51,10.51,0,0,1,2.43,7.25c0,5.56-3.4,11.12-10,11.12h-6V191.6C217.21,197.61,211.38,201,205.79,201Zm-10-44,.24-32.41L168.86,157Z" transform="translate(-0.02)" style="fill:red;fill-rule:evenodd"/><path d="M144.86,294A146.82,146.82,0,0,1,.15,171.5a10.38,10.38,0,0,1,8.48-11.89,10.38,10.38,0,0,1,11.88,8.49,126.58,126.58,0,1,0,0-41.72,10.38,10.38,0,0,1-11.88,8.49A10.39,10.39,0,0,1,.15,123,147.27,147.27,0,0,1,145.1,0C226.07,0,292,66,292,147,291.76,228,225.82,294,144.86,294Z" transform="translate(-0.02)" style="fill:red;fill-rule:evenodd"/><path d="M333,119.17c0-7,4.54-9.22,10-5.09l29.85,22.78c5.49,4.12,5.49,11.16,0,15.28L343,174.92c-5.49,4.13-10,1.94-10-5.09Z" transform="translate(-0.02)" style="fill:red;fill-rule:evenodd"/></g></svg>