<svg width="1598" height="480" xmlns="http://www.w3.org/2000/svg" xmlns:xlink="http://www.w3.org/1999/xlink" overflow="hidden"><defs><clipPath id="clip0"><rect x="-136" y="120" width="1598" height="480"/></clipPath><clipPath id="clip1"><rect x="-135" y="121" width="478" height="478"/></clipPath><clipPath id="clip2"><rect x="-135" y="121" width="478" height="478"/></clipPath><clipPath id="clip3"><rect x="-135" y="121" width="478" height="478"/></clipPath><clipPath id="clip4"><rect x="976" y="220" width="398" height="280"/></clipPath><clipPath id="clip5"><rect x="976" y="220" width="398" height="280"/></clipPath><clipPath id="clip6"><rect x="976" y="220" width="398" height="280"/></clipPath></defs><g clip-path="url(#clip0)" transform="translate(136 -120)"><path d="M591.239 453.883C588.315 454.32 585.342 453.523 583.026 451.682L555.347 430.808 478.548 436.514C474.003 436.859 469.52 433.983 466.997 429.11 464.461 424.274 464.334 418.525 466.652 413.58L508.28 330.568C509.749 327.299 512.714 324.953 516.227 324.281L600.549 310.134C607.053 309.049 613.401 314.692 614.748 322.709 616.096 330.725 611.896 338.145 605.344 339.229L526.242 352.465 499.832 405.39 556.162 401.193C558.799 401.037 561.402 401.854 563.481 403.488L594.608 426.957C600.527 431.911 602.446 440.203 599.31 447.265 597.878 450.675 594.856 453.153 591.239 453.883Z" fill-rule="evenodd"/><path d="M502.683 525.925C499 526.373 495.366 524.79 493.211 521.801 489.012 516.552 488.918 508.475 493.006 503.757L561.83 424.253C565.903 419.566 572.611 419.987 576.795 425.237 580.978 430.486 581.088 438.563 577 443.265L508.176 522.785C506.782 524.447 504.834 525.561 502.683 525.925Z" fill-rule="evenodd"/><path d="M655.906 552.875C653.795 553.206 651.632 552.877 649.716 551.933 645.827 549.88 643.019 546.251 642.015 541.98L625.698 481.199C623.603 473.35 627.037 465.36 633.368 463.334 639.699 461.309 646.519 466.05 648.614 473.899L659.733 515.467 714.858 472.58 699.943 404.531C698.699 399.521 699.967 394.22 703.345 390.309 704.274 389.335 792.08 295.4 790.836 194.856L790.206 194.966C709.771 208.34 646.708 286.829 646.047 287.582 641.574 293.218 633.935 293.061 628.99 287.237 624.044 281.413 623.635 272.12 628.108 266.485 631.257 262.592 704.951 170.854 800.38 164.025 806.995 163.554 812.98 169.708 813.878 177.792 819.311 229.14 804.995 284.537 771.353 342.273 757.962 365.255 742.489 386.966 725.127 407.137L740.404 476.819C741.727 482.847 739.869 488.985 735.679 492.187L660.395 550.771C659.098 551.834 657.555 552.557 655.906 552.875Z" fill-rule="evenodd"/><path d="M566.499 555.919C562.889 556.387 559.317 554.8 557.19 551.782 553.048 546.473 552.924 538.278 556.911 533.476L586.094 498.337C590.082 493.582 596.676 493.931 600.818 499.241 604.96 504.55 605.069 512.745 601.082 517.547L571.898 552.686C570.539 554.393 568.621 555.541 566.499 555.919Z" fill-rule="evenodd"/><g clip-path="url(#clip1)"><g clip-path="url(#clip2)"><g clip-path="url(#clip3)"><path d="M104 484.479C54.2083 484.479 14.375 444.646 14.375 394.854 14.375 345.062 54.2083 305.229 104 305.229 153.792 305.229 193.625 345.062 193.625 394.854 193.625 444.646 153.792 484.479 104 484.479ZM4.41666 325.146-55.3333 325.146-55.3333 285.312 4.41666 285.312 4.41666 325.146ZM283.25 245.479 183.667 245.479 153.792 195.688 54.2083 195.688 24.3333 245.479-75.25 245.479C-86.2042 245.479-95.1667 254.442-95.1667 265.396L-95.1667 504.396C-95.1667 515.35-86.2042 524.312-75.25 524.312L283.25 524.312C294.204 524.312 303.167 515.35 303.167 504.396L303.167 265.396C303.167 254.442 294.204 245.479 283.25 245.479Z"/><path d="M104 345.062C76.1167 345.062 54.2083 366.971 54.2083 394.854 54.2083 422.737 76.1167 444.646 104 444.646 131.883 444.646 153.792 422.737 153.792 394.854 153.792 366.971 131.883 345.062 104 345.062ZM104 464.562C65.1625 464.562 34.2917 433.692 34.2917 394.854 34.2917 356.017 65.1625 325.146 104 325.146 142.837 325.146 173.708 356.017 173.708 394.854 173.708 433.692 142.837 464.562 104 464.562Z"/></g></g></g><g clip-path="url(#clip4)"><g clip-path="url(#clip5)"><g clip-path="url(#clip6)"><path d="M389.41 43.5589C384.825 26.5284 371.397 13.1004 354.367 8.51528 323.253 0 198.799 0 198.799 0 198.799 0 74.3449 0 43.2314 8.18777 26.5284 12.7729 12.7729 26.5284 8.18777 43.5589 0 74.6724 0 139.192 0 139.192 0 139.192 0 204.039 8.18777 234.825 12.7729 251.856 26.2009 265.284 43.2314 269.869 74.6724 278.384 198.799 278.384 198.799 278.384 198.799 278.384 323.253 278.384 354.367 270.196 371.397 265.611 384.825 252.183 389.41 235.153 397.598 204.039 397.598 139.52 397.598 139.52 397.598 139.52 397.925 74.6724 389.41 43.5589Z" fill="#FF0000" transform="matrix(1.00101 0 0 1 976 220.808)"/><path d="M262.664 139.192 159.17 79.5851 159.17 198.799Z" fill="#FFFFFF" transform="matrix(1.00101 0 0 1 976 220.808)"/></g></g></g></g></svg>