<svg xmlns="http://www.w3.org/2000/svg" viewBox="0 0 811.4 130.01"><defs><style>.cls-1,.cls-2{stroke:#000;stroke-miterlimit:10;}.cls-2{stroke-width:3px;}.cls-3{fill:#00fdfd;}.cls-4{fill:#00fb00;}.cls-5{fill:#fd00fd;}.cls-6{fill:#fefe00;}.cls-7{fill:#0000fb;}</style></defs><title>Logo_UCHILETV_2</title><g id="Capa_2" data-name="Capa 2"><g id="Capa_1-2" data-name="Capa 1"><path d="M392.67,76.76V63.54c0-19.78,8.7-31,23.91-31,12.93,0,22,9.2,22,23v.32h-6.41v-.32a15.74,15.74,0,0,0-14.79-16.64q-.42,0-.84,0c-11.5,0-17.39,8.51-17.39,24.54V76.67c0,16,5.89,24.54,17.39,24.54a14.76,14.76,0,0,0,15.61-13.89,11.11,11.11,0,0,0,0-1.29v-.31h6.46V86a21.3,21.3,0,0,1-20.95,21.65c-.4,0-.8,0-1.21,0C401.37,107.71,392.67,96.65,392.67,76.76Z"/><path d="M462.94,62.07a17.31,17.31,0,0,1,14.69-9.51c10.23,0,16.15,7.85,16.15,19.14v34.57h-6.52V73.14c0-8.16-3.22-14.28-11.07-14.28-6.75,0-13.5,5.8-13.5,15.52v31.89h-6.52V33.82h6.52V62.07Z"/><path d="M514.77,60.63V54.4h25.12V100h18.42v6.23H514.77V100H533.3V60.63Zm16.87-23.5a4.72,4.72,0,0,1,4.58-4.86h.27a5,5,0,0,1,4.86,4.86,4.86,4.86,0,1,1-9.71,0Z"/><path d="M574.78,40V33.82h25V100h18.43v6.23H574.78V100h18.53V40Z"/><path d="M633,84.43V76.16C633,62,641.41,53,654.57,53s21.52,9,21.52,23.2v5.57H639.56V83.6c0,11.25,5.58,18,15,18a13.64,13.64,0,0,0,12.73-7.34h7.24a20.06,20.06,0,0,1-19.93,13.34C641.32,107.6,633,98.72,633,84.43Zm21.57-25.57c-9.11,0-14.71,6.63-15,17.3h30C669.25,65.49,663.61,58.86,654.61,58.86Z"/><path class="cls-1" d="M302.37,76.16V36.5h6.5V76.07c0,15,6.32,23.61,17.09,23.61S343,90.93,343,76.07V36.5h6.52V76.16c0,18.78-8.71,29.75-23.6,29.75S302.37,94.94,302.37,76.16Z"/><path class="cls-2" d="M748.18,37.86v5.71H727.6v61h-6.52v-61H700.27V37.86Z"/><path class="cls-2" d="M784.51,97.87l18.11-60h6.75l-20.54,66.69h-9.2L759.14,37.86h6.75l18.1,60Z"/><rect x="179.02" y="121.98" width="73" height="8.03"/><rect class="cls-3" x="174.62" y="94.53" width="73" height="8.03" transform="translate(-20.07 69.7) rotate(-17.91)"/><rect class="cls-4" x="161.55" y="69.7" width="73" height="8.03" transform="translate(-5.07 132.01) rotate(-36.43)"/><rect class="cls-5" x="141.8" y="50.23" width="73" height="8.03" transform="translate(28.12 164.6) rotate(-53.23)"/><rect class="cls-6" x="116.93" y="37.61" width="73" height="8.03" transform="translate(65.83 174.29) rotate(-71.74)"/><rect class="cls-7" x="122.04" width="8.03" height="73"/><rect x="94.98" y="5.13" width="8.03" height="73" transform="translate(-7.97 32.09) rotate(-17.71)"/><rect x="69.38" y="17.22" width="8.03" height="73" transform="translate(-17.56 54.08) rotate(-36.43)"/><rect class="cls-6" x="49.46" y="37.21" width="8.03" height="73" transform="translate(-37.59 73.17) rotate(-53.7)"/><rect class="cls-7" x="37.44" y="62.36" width="8.03" height="73" transform="translate(-65.41 107.25) rotate(-71.74)"/><rect class="cls-5" y="121.98" width="73" height="8.03"/></g></g></svg>