<svg xmlns="http://www.w3.org/2000/svg" viewBox="0 0 701.98 171.96"><title>Logo_LARED2</title><g id="Capa_2" data-name="Capa 2"><g id="Capa_1-2" data-name="Capa 1"><rect width="701.98" height="171.93" style="fill:#fff"/><rect x="307.83" width="116.44" height="110.82" rx="53.15" style="fill:#2cbec3"/><rect x="533.01" y="1.04" width="168.96" height="170.92" rx="76.64" style="fill:#2cbec3"/><path d="M360.63,32.93h1.53A21.37,21.37,0,0,1,383.53,54.3v4.23a21.37,21.37,0,0,1-21.37,21.37h-1.53a21.38,21.38,0,0,1-21.38-21.38V54.3a21.37,21.37,0,0,1,21.37-21.37Z" style="fill:#fff"/><rect x="333.55" y="32.93" width="27.84" height="46.98" style="fill:#fff"/><rect x="291.44" width="42.11" height="171.93" style="fill:#2cbec3"/><rect x="327.72" width="42.47" height="13.36" style="fill:#2cbec3"/><rect x="329.57" y="101.31" width="35" height="9.51" style="fill:#2cbec3"/><polygon points="385.53 171.94 430.7 171.96 394.9 101.71 352.89 105.57 385.53 171.94" style="fill:#2cbec3"/><rect x="567.44" y="33.03" width="93.08" height="106.71" rx="36.86" style="fill:#fff"/><rect x="567.44" y="1.04" width="42.11" height="170.92" style="fill:#2cbec3"/><rect x="516.62" width="50.82" height="171.88" style="fill:#fff"/><rect x="438.52" y="0.96" width="118" height="41" style="fill:#2cbec3"/><rect x="438.52" y="68.04" width="118" height="31.9" style="fill:#2cbec3"/><rect x="438.52" y="130.46" width="118" height="41.51" style="fill:#2cbec3"/><polygon points="0 0.24 0.05 171.65 143.81 171.69 166.96 79.91 190.56 171.69 246 171.62 192.32 0.24 142.19 0.24 103.98 128.42 50.33 128.39 50.34 0.24 0 0.24" style="fill:#2cbec3"/></g></g></svg>