<?xml version="1.0" encoding="utf-8"?>
<!-- Generator: Adobe Illustrator 23.0.2, SVG Export Plug-In . SVG Version: 6.00 Build 0)  -->
<svg version="1.1" id="Capa_1" xmlns="http://www.w3.org/2000/svg" xmlns:xlink="http://www.w3.org/1999/xlink" x="0px" y="0px"
	 viewBox="0 0 88.9 32" style="enable-background:new 0 0 88.9 32;" xml:space="preserve">
<style type="text/css">
	.st0{fill:#003247;}
</style>
<path class="st0" d="M27.6,22.7"/>
<g transform="translate(36.458 7.2)">
	<path class="st0" d="M27.5,7.3C26.1,7,24.5,7,23.7,6.1c-0.3-0.4-0.4-1-0.2-1.5c0.7-1.1,2-1.6,3.3-1.4c1.1,0,2.2,0.6,2.7,1.6
		c0.2,0.4,0.3,0.9,0.3,1.3h3.8c0-1.5-0.5-2.9-1.5-4c-2-1.7-4.7-2.5-7.3-2c-1.8,0.3-4.3,1.3-5.1,3.7c-0.7,1.9-0.2,4,1.4,5.3
		c1.7,1.3,5,1.7,6.3,2c1.5,0.3,2.3,0.5,2.5,1.4c0.2,0.6,0.1,1.2-0.2,1.7c-1,1.3-2.9,1.4-4.5,0.9c-1.3-0.4-1.9-1.5-2.1-2.9h-4
		c0,1.2,0.4,2.3,1.1,3.3c1,1.6,2.7,2.6,4.6,2.8c2.2,0.4,4.4,0.2,6.4-0.7c0.8-0.5,1.5-1.1,2.1-1.9c1.2-1.7,1.3-4,0.3-5.8
		C32.4,8.1,29.8,7.7,27.5,7.3z"/>
	<path class="st0" d="M14.4,2.6c-1.9-2-4.6-2.9-7.3-2.4C4.7,0.5,2.6,1.9,1.4,4C0.8,5.1,0.3,6.4,0.1,7.7C-0.3,10.8,0.5,16,6,18.1
		c2.8,1,5.8,0.5,8.2-1.2c1.5-1.2,2.5-2.9,2.8-4.7h-4.5c-0.2,0.8-0.7,1.5-1.3,2c-1.5,1-3.4,0.9-4.8-0.2C5,13,4.5,11.3,4.5,8.9
		c0-1.3,0.4-3.3,1.4-4.3c1.1-0.9,2.6-1.2,4-0.8c1.5,0.5,2.5,2,2.5,3.6H5.9v3.2H17c0.1-1.1,0-2.3-0.3-3.4C16.3,5.5,15.5,3.9,14.4,2.6
		z"/>
	<path class="st0" d="M51.9,13.7V8.2c0-1.4-0.1-2.8-0.4-4.2c-0.3-1.3-1.5-3.5-5.2-4C45.6,0,44.9,0,44.1,0h0c-1.2,0-2.5,0.3-3.6,0.7
		c-2.1,0.9-3.5,3.1-3.4,5.4h4.1c-0.1-1.1,0.6-2.1,1.6-2.5c0.4-0.2,0.9-0.3,1.4-0.3l0,0c1-0.1,2,0.2,2.7,0.9c0.5,0.5,0.6,1.1,0.5,1.7
		c-0.3,1.1-1.4,1.4-3.2,1.7v0c-0.6,0.1-1.3,0.1-2,0.2c-2.1,0.3-5.2,1.3-5.9,4.4c-0.3,1.9,0.4,3.8,1.8,4.9c1.3,0.9,2.8,1.4,4.4,1.4
		c0.6,0,1.2,0,1.7-0.2v0c1.3-0.3,2.5-0.9,3.6-1.8c0.1,0.5,0.3,1,0.5,1.5h4.3C52,16.6,51.8,15.1,51.9,13.7z M47.3,13
		c-0.6,1.3-1.9,2.1-3.3,2.1v0c-0.3,0.1-0.7,0.1-1,0c-0.9,0-1.8-0.5-2.2-1.3c-0.3-0.6-0.3-1.4,0.1-2c0.6-1.1,1.7-1.3,3.2-1.6v0
		c0.5-0.1,1-0.2,1.5-0.3c0.7-0.1,1.4-0.4,1.9-0.9C47.6,10.4,47.5,11.7,47.3,13L47.3,13z"/>
</g>
<path class="st0" d="M21.8,26.2c-7.2-2.5-8.5-9.2-6.7-13.8c1.8-4.3,6.7-6.3,11-4.5c0.5,0.2,1,0.5,1.5,0.8c4.4,3.1,3.9,9.1,3.9,9.1
	H20.2v-3.2h6.5c0.1-0.9-0.3-1.8-0.9-2.4c-1.2-1.4-3.2-1.7-4.8-0.8c-1.3,0.7-2.9,3.4-1.9,7.4c0.9,3,3.7,4.2,6.3,4.2l0,0
	c3.8,0,6.7-2.6,6.7-7c0-8.8-7.1-16-16-16S0,7.1,0,16s7.1,16,16,16c4.7,0,9.2-2.1,12.2-5.6C26.1,27,23.9,26.9,21.8,26.2z M7.7,18
	c-1,0-1.8-0.8-1.8-1.8c0-1,0.8-1.8,1.8-1.8c1,0,1.8,0.8,1.8,1.8c0,0,0,0,0,0C9.5,17.2,8.7,18,7.7,18z"/>
</svg>
