<svg xmlns="http://www.w3.org/2000/svg" viewBox="0 0 424.55 130.01"><defs><style>.cls-1,.cls-2{stroke:#000;stroke-miterlimit:10;}.cls-2{stroke-width:3px;}.cls-3{fill:#00fdfd;}.cls-4{fill:#00fb00;}.cls-5{fill:#fd00fd;}.cls-6{fill:#fefe00;}.cls-7{fill:#0000fb;}</style></defs><title>Logo_UCHILETV</title><g id="Capa_2" data-name="Capa 2"><g id="Capa_1-2" data-name="Capa 1"><path d="M298.55,67.88V62c0-8.79,3.87-13.8,10.63-13.8,5.75,0,9.8,4.09,9.8,10.21v.14h-2.85v-.14A7,7,0,0,0,309.18,51c-5.11,0-7.73,3.78-7.73,10.91v5.93c0,7.13,2.62,10.91,7.73,10.91A6.57,6.57,0,0,0,316.13,72v-.14H319V72a9.47,9.47,0,0,1-9.85,9.62C302.42,81.64,298.55,76.72,298.55,67.88Z"/><path d="M329.79,61.35a7.69,7.69,0,0,1,6.53-4.23c4.55,0,7.18,3.49,7.18,8.51V81h-2.9V66.27c0-3.63-1.43-6.35-4.92-6.35-3,0-6,2.58-6,6.9V81h-2.9V48.79h2.9V61.35Z"/><path d="M352.83,60.71V57.94H364V78.23h8.19V81H352.83V78.23h8.24V60.71Zm7.5-10.45a2.1,2.1,0,0,1,2.16-2.16,2.22,2.22,0,0,1,2.16,2.16,2.16,2.16,0,0,1-4.32,0Z"/><path d="M379.51,51.55V48.79h11.13V78.23h8.19V81H379.51V78.23h8.24V51.55Z"/><path d="M405.41,71.29V67.61c0-6.31,3.72-10.31,9.57-10.31s9.57,4,9.57,10.31v2.48H408.31v.83c0,5,2.48,8,6.67,8a6.06,6.06,0,0,0,5.66-3.26h3.22A8.92,8.92,0,0,1,415,81.59C409.09,81.59,405.41,77.64,405.41,71.29ZM415,59.92c-4.05,0-6.54,2.95-6.67,7.69h13.34C421.51,62.87,419,59.92,415,59.92Z"/><path class="cls-1" d="M297.82,25.35V7.72h2.89V25.31c0,6.66,2.81,10.5,7.6,10.5s7.59-3.89,7.59-10.5V7.72h2.9V25.35c0,8.35-3.87,13.23-10.49,13.23S297.82,33.7,297.82,25.35Z"/><path class="cls-2" d="M318.93,96.72v2.54h-9.15v27.11h-2.9V99.26h-9.25V96.72Z"/><path class="cls-2" d="M335.08,123.4l8.05-26.68h3L337,126.37h-4.09l-9.11-29.65h3l8.05,26.68Z"/><rect x="179.02" y="121.98" width="73" height="8.03"/><rect class="cls-3" x="174.62" y="94.54" width="73" height="8.03" transform="translate(-20.08 69.69) rotate(-17.91)"/><rect class="cls-4" x="161.55" y="69.71" width="73" height="8.03" transform="translate(-5.08 132.01) rotate(-36.43)"/><rect class="cls-5" x="141.8" y="50.23" width="73" height="8.03" transform="translate(28.12 164.6) rotate(-53.23)"/><rect class="cls-6" x="116.94" y="37.62" width="73" height="8.03" transform="translate(241.05 -91.04) rotate(108.26)"/><rect class="cls-7" x="89.55" y="32.49" width="73" height="8.03" transform="translate(162.56 -89.55) rotate(90)"/><rect x="62.5" y="37.62" width="73" height="8.03" transform="translate(108.54 -65.34) rotate(72.29)"/><rect x="36.89" y="49.71" width="73" height="8.03" transform="translate(73.04 -37.23) rotate(53.57)"/><rect class="cls-6" x="16.97" y="69.7" width="73" height="8.03" transform="translate(54.02 -17.35) rotate(36.3)"/><rect class="cls-7" x="4.96" y="94.84" width="73" height="8.03" transform="translate(33.06 -8.01) rotate(18.26)"/><rect class="cls-5" y="121.98" width="73" height="8.03"/></g></g></svg>