<svg viewBox="0 0 229.9 66.8" xmlns="http://www.w3.org/2000/svg" xmlns:xlink="http://www.w3.org/1999/xlink" id="Layer_1" overflow="hidden"><g><g><path d="M161.1 59.2C161.1 55 164.5 51.6 168.7 51.6 172.9 51.6 176.3 55 176.3 59.2 176.3 63.4 172.9 66.8 168.7 66.8 164.5 66.8 161.1 63.4 161.1 59.2Z" fill="#FF0000"/></g><g><path d="M177.9 46.8C177.9 34.8 186.4 26.8 199.2 26.8 204.4 26.8 209.1 28.6 212.7 31.4L205.9 39.6C204.3 38.1 202.2 37.1 199.4 37.1 194 37.1 190.4 41 190.4 46.8 190.4 52.6 193.9 56.5 199.4 56.5 202.7 56.5 205.3 55.6 207.2 53.4L214 61.4C210.2 65.1 204.9 66.8 198.9 66.8 186.4 66.8 177.9 58.8 177.9 46.8Z" fill="#FF0000"/></g><g><path d="M217.9 10.9 229.9 10.9 229.9 66.1 217.9 66.1 217.9 10.9Z" fill="#FF0000"/></g></g><g><g><path d="M36 14.8 36 17.4C36 31.4 36 45.3 36 59.3 36 63.6 33.4 66.6 29.6 66.6 25.7 66.7 22.8 63.7 22.8 59.5 22.8 45.5 22.8 31.4 22.8 17.4L22.8 14.7C21.9 14.7 21.2 14.7 20.5 14.7 15.8 14.7 11.1 14.8 6.5 14.7 2.9 14.6 0.2 11.7 0.1 8.1 0.1 4.6 2.7 1.7 6.3 1.4 6.9 1.4 7.5 1.4 8.1 1.4 23.7 1.4 39.3 1.4 54.9 1.4 60 1.4 61.6 2.6 63.3 7.5 66.9 17.7 70.5 27.8 74.2 38 74.4 38.6 74.7 39.2 75.1 40.3 76 37.9 76.7 35.9 77.4 33.9 80.7 24.7 84 15.5 87.3 6.3 88.6 2.8 91.5 0.9 94.7 1.5 99.1 2.3 101.2 6.4 99.6 11 95 23.9 90.3 37 85.6 50.1 84.3 53.9 82.9 57.6 81.6 61.4 80.4 64.8 78 66.7 74.9 66.6 71.9 66.5 69.7 64.8 68.5 61.4 63.2 46.5 57.8 31.5 52.5 16.6 52 15.1 51.3 14.6 49.8 14.7 45.9 14.8 42 14.7 38.2 14.7 37.5 14.7 36.8 14.8 36 14.8" fill="#FF0000"/></g><g><path d="M115.2 66.3 102.1 66.3 102.1 1.7 114.8 1.7 114.8 7.6C115.6 7 115.9 6.7 116.3 6.3 124.8-1.8 137.4-0.9 144.9 2.9 150.7 5.9 153.1 11.4 154.1 17.7 154.5 20.2 154.5 22.9 154.5 25.4 154.5 38.3 154.5 51.1 154.5 64L154.5 66.3 141.3 66.3 141.3 64C141.3 51.1 141.3 38.1 141.3 25.2 141.3 24 141.2 22.9 141.1 21.7 140 14.7 135.5 11.5 128.7 12.7 120.1 14.3 115.4 20.4 115.4 29.9 115.4 41.3 115.4 52.6 115.4 64 115.2 64.8 115.2 65.5 115.2 66.3" fill="#FF0000"/></g></g></svg>