<svg id="Capa_1" data-name="Capa 1" xmlns="http://www.w3.org/2000/svg" viewBox="0 0 555.89 66.79"><title>Logo_MEGANOTICIAS</title><path d="M94.67,87.46a9.16,9.16,0,0,1-11.84-4.67L68,51.33a8.92,8.92,0,0,1,4.67-11.68,9.16,9.16,0,0,1,11.84,4.67L99.34,75.94a8.8,8.8,0,0,1-4.67,11.52m-29.59,0a9.16,9.16,0,0,1-11.84-4.67L38.45,51.33A8.93,8.93,0,0,1,43,39.65a8.32,8.32,0,0,1,3.27-.78h.94a8.32,8.32,0,0,1,3.27.78,8.16,8.16,0,0,1,4.67,5L69.75,75.78a8.93,8.93,0,0,1-4.67,11.68M40.16,82.79a9,9,0,0,1-11.84,4.67,8.8,8.8,0,0,1-4.67-11.68l8.1-17.44,9.81,21ZM107.44,72.2,92.64,40.74a18,18,0,0,0-31.14-2.8h0a18.1,18.1,0,0,0-14.18-7.79h-1.4A18.15,18.15,0,0,0,30.19,40.74L15.55,72A17.63,17.63,0,0,0,24.74,95.4a18.12,18.12,0,0,0,22-6.23,17.86,17.86,0,0,0,22,6.23A17.09,17.09,0,0,0,76.29,89a18.19,18.19,0,0,0,22,6.38,17.23,17.23,0,0,0,9.19-23.2" transform="translate(-14.01 -30.15)" style="fill:#1ea88b"/><path d="M293.9,81,280,45a1.37,1.37,0,0,0-1.4-.9H268.5a1.74,1.74,0,0,0-1.5,1.1L253.1,81a1.53,1.53,0,0,0,1.4,2.1h8.8a1.75,1.75,0,0,0,1.5-1c.3-.7,2.3-6,2.3-6h13l2.3,6a1.35,1.35,0,0,0,1.5,1h8.8a1.66,1.66,0,0,0,1.2-2.1M269.1,68l4.5-12,4.2,12Z" transform="translate(-14.01 -30.15)" style="fill:#454e5c"/><path d="M163.5,44h-7a1.58,1.58,0,0,0-1.3.8c-.3.6-10.2,17.3-10.2,17.3a1.19,1.19,0,0,1-.9.5,1.59,1.59,0,0,1-1-.5s-9.9-16.6-10.2-17.2a1.47,1.47,0,0,0-1.3-.8H123V83h11V68.5a.38.38,0,0,1,.7-.2s8.2,9.9,8.4,10.2a1.09,1.09,0,0,0,.9.4,1.49,1.49,0,0,0,.9-.4c.2-.3,8.4-10.2,8.4-10.2a.38.38,0,0,1,.7.2V83h10.8V45.2a1.38,1.38,0,0,0-1.3-1.2" transform="translate(-14.01 -30.15)" style="fill:#454e5c"/><path d="M176.1,44h27.8a1.11,1.11,0,0,1,1.1,1.1v7.8H189a2.07,2.07,0,0,0-2,2v4h10v8.9H187V74h18.8v9H176Z" transform="translate(-14.01 -30.15)" style="fill:#454e5c"/><path d="M246.5,65h-7.9a1.56,1.56,0,0,0-1.5,1.6v4.9a9.06,9.06,0,0,1-8.5.9c-3.5-1.4-6.6-4.8-6.6-8.9a9.79,9.79,0,0,1,8.5-9.6,9.64,9.64,0,0,1,6.5,1.9c.8.5,1.6.8,2.4.1l5.7-6c.6-.6.6-1.3-.2-2A21.12,21.12,0,0,0,231.5,43a20.5,20.5,0,1,0,.1,41c9.8,0,16.4-7.3,16.4-8.3V66.5A1.54,1.54,0,0,0,246.5,65Z" transform="translate(-14.01 -30.15)" style="fill:#454e5c"/><path d="M301.1,45.1a1.14,1.14,0,0,1,.3-.8,1.22,1.22,0,0,1,.9-.3H311a3.09,3.09,0,0,1,.8.2,1.34,1.34,0,0,1,.7.6c2.2,3.6,4.5,7.1,6.8,10.6s4.6,7,6.9,10.6V45a1.61,1.61,0,0,1,.4-.7.91.91,0,0,1,.7-.3h7.5a1.22,1.22,0,0,1,.9.3,1.27,1.27,0,0,1,.4.9V81.9a1.14,1.14,0,0,1-.3.8,1.22,1.22,0,0,1-.9.3h-8.5a1.42,1.42,0,0,1-.6-.2l-.6-.6c-2.3-3.8-4.7-7.7-7-11.4s-4.7-7.5-7-11.4V81.9a1.06,1.06,0,0,1-1.2,1.2h-7.6a1.22,1.22,0,0,1-.9-.3,1.14,1.14,0,0,1-.3-.8l-.1-36.9Z" transform="translate(-14.01 -30.15)" style="fill:#454e5c"/><path d="M343,63.5a19,19,0,0,1,.7-5.4,20.48,20.48,0,0,1,5.3-9,20.22,20.22,0,0,1,14.5-6,19,19,0,0,1,5.4.7,21.3,21.3,0,0,1,4.9,2.1,25.89,25.89,0,0,1,4.2,3.2,21.49,21.49,0,0,1,3.2,4.1A19.59,19.59,0,0,1,384,63.5a19,19,0,0,1-.7,5.4,20.48,20.48,0,0,1-5.3,9,20.22,20.22,0,0,1-14.5,6,19,19,0,0,1-5.4-.7,21.3,21.3,0,0,1-4.9-2.1,25.89,25.89,0,0,1-4.2-3.2,21.49,21.49,0,0,1-3.2-4.1,19.58,19.58,0,0,1-2.1-4.9A23.47,23.47,0,0,1,343,63.5Zm9,.1a13.3,13.3,0,0,0,.8,4.5,9.9,9.9,0,0,0,2.4,3.6,11.35,11.35,0,0,0,19.6-8.1,13.3,13.3,0,0,0-.8-4.5,11.23,11.23,0,0,0-2.4-3.7,11.6,11.6,0,0,0-3.6-2.5,12.21,12.21,0,0,0-9.2,0,10.14,10.14,0,0,0-3.6,2.5,10.77,10.77,0,0,0-2.4,3.7A13.3,13.3,0,0,0,352,63.6Z" transform="translate(-14.01 -30.15)" style="fill:#454e5c"/><path d="M387,44.3a1.61,1.61,0,0,1,.3-.9,1.4,1.4,0,0,1,.9-.3h28.5a1.14,1.14,0,0,1,.8.3,1.27,1.27,0,0,1,.4.9v7.3a1.61,1.61,0,0,1-.3.9,1.19,1.19,0,0,1-.9.5h-8.8V82.7a1.61,1.61,0,0,1-.3.9,1.09,1.09,0,0,1-.9.4h-8.5a1.14,1.14,0,0,1-.8-.3,1.09,1.09,0,0,1-.4-.9V53h-8.7a1.4,1.4,0,0,1-.9-.3,1.49,1.49,0,0,1-.3-1l-.1-7.4Z" transform="translate(-14.01 -30.15)" style="fill:#454e5c"/><path d="M425,44.3a1.61,1.61,0,0,1,.3-.9,1.22,1.22,0,0,1,.9-.3h7.6a1.33,1.33,0,0,1,.8.3,1,1,0,0,1,.4.9V82.8a1.06,1.06,0,0,1-1.2,1.2h-7.6c-.8,0-1.1-.4-1.1-1.2L425,44.3Z" transform="translate(-14.01 -30.15)" style="fill:#454e5c"/><path d="M474.5,46.4a2.34,2.34,0,0,1,.7.7c.2.3.1.6-.1,1l-4.6,6.5c-.2.3-.4.5-.6.5s-.5-.1-.8-.2a8.93,8.93,0,0,0-2.9-1.5,12.76,12.76,0,0,0-3.4-.6,11.09,11.09,0,0,0-4.1.8,10.45,10.45,0,0,0-3.2,2.3,10.78,10.78,0,0,0-2.1,3.4,11.58,11.58,0,0,0-.7,4.2,10.68,10.68,0,0,0,2.8,7.5,8.75,8.75,0,0,0,3.2,2.2,9.11,9.11,0,0,0,4.1.8,9.74,9.74,0,0,0,3.4-.6,9,9,0,0,0,2.9-1.6.88.88,0,0,1,.8-.2c.2.1.5.2.6.5l4.6,6.6a1.21,1.21,0,0,1,.1,1,2.34,2.34,0,0,1-.7.7A22,22,0,0,1,462.8,84a20.24,20.24,0,0,1-5.5-.7,19.58,19.58,0,0,1-4.9-2.1,25.89,25.89,0,0,1-4.2-3.2,20.22,20.22,0,0,1-6-14.5,19,19,0,0,1,.7-5.4,21.3,21.3,0,0,1,2.1-4.9,25.89,25.89,0,0,1,3.2-4.2,22.18,22.18,0,0,1,4.2-3.2,21.3,21.3,0,0,1,4.9-2.1,20.24,20.24,0,0,1,5.5-.7,20,20,0,0,1,6.1.9A17.76,17.76,0,0,1,474.5,46.4Z" transform="translate(-14.01 -30.15)" style="fill:#454e5c"/><path d="M482,44.3a1.61,1.61,0,0,1,.3-.9,1.22,1.22,0,0,1,.9-.3h7.6a1.33,1.33,0,0,1,.8.3,1,1,0,0,1,.4.9V82.8a1.06,1.06,0,0,1-1.2,1.2h-7.6c-.8,0-1.1-.4-1.1-1.2L482,44.3Z" transform="translate(-14.01 -30.15)" style="fill:#454e5c"/><path d="M512.6,44.2c0-.1.1-.2.2-.3l.3-.3c.2-.1.3-.2.5-.3a.9.9,0,0,1,.5-.1H521a1.14,1.14,0,0,1,.8.3c.2.2.4.3.5.5l.7,1.6,14.2,37.3a.74.74,0,0,1-.1.9,1.49,1.49,0,0,1-1,.3h-7.8a3,3,0,0,1-1-.2,1.58,1.58,0,0,1-.5-.8c-.3-.9-.7-2.3-1-3.3s-.7-1.8-1-2.8H510.4c-.3.9-.7,1.8-1,2.8s-.7,2.3-1,3.3a1.31,1.31,0,0,1-1.4,1h-8a1.14,1.14,0,0,1-.8-.3.61.61,0,0,1-.1-.8ZM517.5,56c-.3.9-.7,2-1,3.1s-.7,2.3-1,3.4-.7,2.3-1,3.4-.7,2.1-1,3.1h8.3Z" transform="translate(-14.01 -30.15)" style="fill:#454e5c"/><path d="M545.8,70.5c.3.2.7.6,1.2,1s1,.9,1.6,1.3a11.61,11.61,0,0,0,2.7,1.4,9.18,9.18,0,0,0,2.8.5,7.55,7.55,0,0,0,2.3-.3,3.77,3.77,0,0,0,1.5-.9,3.6,3.6,0,0,0,.8-1.2A1.81,1.81,0,0,0,559,71a2,2,0,0,0-.6-1.5,4.81,4.81,0,0,0-1.6-1.2c-.6-.3-1.2-.6-1.9-.9a18.94,18.94,0,0,0-1.8-.6,30.43,30.43,0,0,1-5.7-2.5,18.89,18.89,0,0,1-4.1-3,10.33,10.33,0,0,1-2.4-3.6,11.76,11.76,0,0,1-.8-4.3,10,10,0,0,1,1-4.6,9,9,0,0,1,2.9-3.5,19,19,0,0,1,4.5-2.3,21.58,21.58,0,0,1,5.9-.8,18.35,18.35,0,0,1,4.7.6,21.14,21.14,0,0,1,4.5,1.8,17.39,17.39,0,0,1,1.8,1.1c.6.4,1,.7,1.5,1.1a9.43,9.43,0,0,1,1,1,1.61,1.61,0,0,1,.3.9.85.85,0,0,1-.2.6,6.82,6.82,0,0,0-.5.7l-4.1,4.4a1.38,1.38,0,0,1-.9.5,1.85,1.85,0,0,1-.7-.2c-.2-.2-.5-.3-.7-.6l-.2-.2c-.3-.3-.7-.6-1.2-1s-.9-.6-1.4-.9a4.42,4.42,0,0,0-1.6-.6,5.08,5.08,0,0,0-1.7-.3,9.85,9.85,0,0,0-1.7.2,4.57,4.57,0,0,0-1.4.5,2.84,2.84,0,0,0-1,.9,2.5,2.5,0,0,0-.3,1.3,1.84,1.84,0,0,0,.4,1.3,2.71,2.71,0,0,0,1.1,1,11.39,11.39,0,0,0,1.9.9,25.58,25.58,0,0,0,2.6.9,53.6,53.6,0,0,1,5.3,2,17.29,17.29,0,0,1,4.2,2.5,11.32,11.32,0,0,1,2.8,3.4,10.3,10.3,0,0,1,1,4.8,11.91,11.91,0,0,1-1.2,5.4,12.33,12.33,0,0,1-3.3,4.2,16,16,0,0,1-5,2.7,20.65,20.65,0,0,1-6.2,1,18.26,18.26,0,0,1-6.1-1.1,23.21,23.21,0,0,1-5.6-3,9.51,9.51,0,0,1-1.8-1.5,13.1,13.1,0,0,1-1.2-1.3l-.1-.1a.1.1,0,0,0-.1-.1.1.1,0,0,1-.1-.1.1.1,0,0,0-.1-.1.1.1,0,0,1-.1-.1c-.4-.5-.6-.8-.6-1.1a1.37,1.37,0,0,1,.6-1l4.7-4.5a1.63,1.63,0,0,1,.9-.4c.2,0,.3.1.5.2A4.35,4.35,0,0,1,545.8,70.5Z" transform="translate(-14.01 -30.15)" style="fill:#454e5c"/></svg>