<svg width="341" height="341" xmlns="http://www.w3.org/2000/svg" xmlns:xlink="http://www.w3.org/1999/xlink" overflow="hidden"><defs><clipPath id="clip0"><rect x="24" y="190" width="341" height="341"/></clipPath><clipPath id="clip1"><rect x="33" y="247" width="322" height="226"/></clipPath><clipPath id="clip2"><rect x="33" y="247" width="322" height="226"/></clipPath><clipPath id="clip3"><rect x="33" y="247" width="322" height="226"/></clipPath></defs><g clip-path="url(#clip0)" transform="translate(-24 -190)"><g clip-path="url(#clip1)"><g clip-path="url(#clip2)"><g clip-path="url(#clip3)"><path d="M314.31 35.1583C310.609 21.4122 299.771 10.5739 286.025 6.87305 260.912 0 160.459 0 160.459 0 160.459 0 60.007 0 34.894 6.6087 21.4122 10.3096 10.3096 21.4122 6.6087 35.1583 0 60.2714 0 112.348 0 112.348 0 112.348 0 164.689 6.6087 189.538 10.3096 203.284 21.1479 214.122 34.894 217.823 60.2714 224.696 160.459 224.696 160.459 224.696 160.459 224.696 260.912 224.696 286.025 218.087 299.771 214.386 310.609 203.548 314.31 189.802 320.919 164.689 320.919 112.612 320.919 112.612 320.919 112.612 321.183 60.2714 314.31 35.1583Z" fill="#FF0000" transform="matrix(1.00337 0 0 1 33 247.652)"/><path d="M212.007 112.348 128.473 64.2366 128.473 160.459Z" fill="#FFFFFF" transform="matrix(1.00337 0 0 1 33 247.652)"/></g></g></g></g></svg>