<svg width="1257" height="341" xmlns="http://www.w3.org/2000/svg" xmlns:xlink="http://www.w3.org/1999/xlink" overflow="hidden"><defs><clipPath id="clip0"><rect x="24" y="190" width="1257" height="341"/></clipPath><clipPath id="clip1"><rect x="33" y="247" width="322" height="226"/></clipPath><clipPath id="clip2"><rect x="33" y="247" width="322" height="226"/></clipPath><clipPath id="clip3"><rect x="33" y="247" width="322" height="226"/></clipPath><clipPath id="clip4"><rect x="444" y="190" width="441" height="310"/></clipPath><clipPath id="clip5"><rect x="444" y="190" width="441" height="310"/></clipPath><clipPath id="clip6"><rect x="444" y="190" width="441" height="310"/></clipPath></defs><g clip-path="url(#clip0)" transform="translate(-24 -190)"><g clip-path="url(#clip1)"><g clip-path="url(#clip2)"><g clip-path="url(#clip3)"><path d="M314.31 35.1583C310.609 21.4122 299.771 10.5739 286.025 6.87305 260.912 0 160.459 0 160.459 0 160.459 0 60.007 0 34.894 6.6087 21.4122 10.3096 10.3096 21.4122 6.6087 35.1583 0 60.2714 0 112.348 0 112.348 0 112.348 0 164.689 6.6087 189.538 10.3096 203.284 21.1479 214.122 34.894 217.823 60.2714 224.696 160.459 224.696 160.459 224.696 160.459 224.696 260.912 224.696 286.025 218.087 299.771 214.386 310.609 203.548 314.31 189.802 320.919 164.689 320.919 112.612 320.919 112.612 320.919 112.612 321.183 60.2714 314.31 35.1583Z" fill="#FF0000" transform="matrix(1.00337 0 0 1 33 247.652)"/><path d="M212.007 112.348 128.473 64.2366 128.473 160.459Z" fill="#FFFFFF" transform="matrix(1.00337 0 0 1 33 247.652)"/></g></g></g><g clip-path="url(#clip4)"><g clip-path="url(#clip5)"><g clip-path="url(#clip6)"><path d="M237.176 0 246.949 0C266.231 0.773291 284.761 6.88117 302.603 13.8072 313.939 17.9986 325.135 22.5431 336.376 26.9699 346.014 30.2368 355.982 33.0666 366.215 33.3692 376.671 33.5653 387.553 31.6209 396.35 25.6811 404.101 20.5482 408.892 12.2326 413.005 4.12982 416.389 4.11301 419.774 4.0906 423.158 4.14103 419.947 14.0929 414.534 23.4061 407.076 30.7747 400.582 37.2581 392.495 42.0715 383.793 44.9405 372.883 48.566 361.2 49.216 349.808 48.3027 339.217 47.4173 328.901 44.5763 318.915 41.0236 308.078 37.1628 297.465 32.7192 286.751 28.5389 272.624 22.997 258.112 17.7521 242.875 16.4857 226.788 15.0456 209.915 17.0012 195.615 24.9246 179.953 33.4476 168.521 48.7061 163.355 65.6401 160.077 65.6345 156.799 65.6401 153.521 65.6457 158.822 48.3083 168.045 31.6209 182.401 20.184 197.979 7.97947 217.435 0.975019 237.176 0Z" fill="#FF0000" transform="matrix(1 0 0 1.00221 444.14 190)"/><path d="M428.667 4.11862C431.905 4.12422 435.15 4.07939 438.394 4.14663 432.981 21.8315 423.449 38.8439 408.6 50.2695 393.359 61.8185 374.597 68.6772 355.49 69.6242 342.848 70.3471 330.155 68.6772 317.923 65.528 309.742 63.5163 301.639 61.1124 293.822 57.952 283.024 53.8166 272.36 49.3505 261.596 45.1367 252.378 41.2646 242.69 38.4572 232.81 36.9331 220.27 35.3192 206.731 36.8154 195.928 43.8142 187.96 48.9247 183.096 57.4141 178.893 65.6345 175.542 65.6569 172.191 65.6289 168.84 65.6457 173.671 50.6057 183.875 37.0451 197.9 29.4971 212.06 21.7026 228.821 20.2681 244.645 21.9659 260.29 23.6694 275.028 29.5532 289.558 35.2688 302.317 40.2504 314.942 45.6746 328.116 49.5018 340.965 53.245 354.503 54.786 367.845 53.5084 378.794 52.5221 389.625 49.2945 399.023 43.5116 413.408 34.7084 423.775 20.1448 428.667 4.11862Z" fill="#FF0000" transform="matrix(1 0 0 1.00221 444.14 190)"/><path d="M176.165 100.567C183.914 98.9196 192.163 100.029 199.302 103.436 206.362 106.765 212.33 112.094 217.065 118.246 220.696 122.852 223.38 128.092 226.373 133.113 238.779 154.484 251.247 175.823 263.507 197.279 263.631 181.034 263.518 164.784 263.558 148.54 263.71 141.591 262.963 134.503 264.791 127.706 267.25 117.602 274.081 108.569 283.383 103.823 291.29 99.6374 300.805 98.7577 309.395 101.195 317.705 103.504 324.99 108.704 330.644 115.131 335.939 120.948 339.486 128.014 343.471 134.716 355.607 155.589 367.863 176.389 380.006 197.256 380.089 165.03 380.017 132.799 380.044 100.573 388.713 100.522 397.388 100.539 406.056 100.567 406.051 155.022 406.051 209.483 406.056 263.944 406.056 266.505 406.292 269.357 404.717 271.56 403.562 273.297 401.08 273.767 399.288 272.792 397.797 272.114 396.822 270.747 396.015 269.385 367.908 224.254 339.676 179.196 311.81 133.914 309.753 130.344 305.914 127.761 301.768 127.537 297.319 127.218 292.937 129.93 291.077 133.942 289.558 136.878 289.53 140.268 289.58 143.496 289.592 184.576 289.574 225.661 289.586 266.746 289.592 269.144 288.858 272.131 286.347 273.061 283.96 273.902 281.562 272.193 280.374 270.209 251.875 224.518 223.341 178.849 195.065 133.017 192.762 129.644 188.767 127.335 184.637 127.509 180.692 127.548 176.938 129.947 175.122 133.421 173.402 136.469 173.279 140.061 173.352 143.473 173.346 184.391 173.385 225.313 173.335 266.231 173.195 269.895 169.782 272.977 166.151 272.961 147.278 272.999 128.411 272.961 109.538 272.977 101.833 273.056 94.0781 272.663 86.5301 270.988 72.0449 267.956 58.4115 260.341 48.9079 248.91 37.7175 235.585 32.1868 217.911 32.8425 200.607 33.3748 182.967 40.3232 165.395 52.7855 152.787 63.5948 141.725 78.5002 135.135 93.8036 133.544 99.7545 132.81 105.762 133.023 111.746 132.995 121.11 132.989 130.479 133.006 139.842 132.989 139.938 141.568 139.865 150.153 139.882 158.731 130.512 158.748 121.143 158.731 111.774 158.738 106.563 158.766 101.318 158.553 96.1571 159.41 86.8383 160.816 77.8951 165.126 71.3109 171.928 63.1353 180.188 58.597 191.799 58.5796 203.387 58.5123 212.991 61.6167 222.669 67.6686 230.172 72.7342 236.593 79.8339 241.244 87.5332 243.906 93.6915 246.075 100.231 247.022 106.742 247.19 117.955 247.195 129.168 247.184 140.375 247.202 143.02 247.319 145.592 245.677 146.634 243.257 147.48 241.491 147.267 239.485 147.29 237.591 147.278 204.161 147.29 170.724 147.284 137.288 147.368 128.417 150.366 119.496 156.11 112.677 161.192 106.557 168.353 102.17 176.165 100.567Z" fill="#FF0000" transform="matrix(1 0 0 1.00221 444.14 190)"/><path d="M92.1953 101.43C102.427 100.242 112.738 100.601 123.015 100.545 128.641 100.573 134.272 100.483 139.898 100.589 139.865 109.247 139.898 117.904 139.882 126.562 128.081 126.568 116.279 126.568 104.478 126.562 94.9355 126.556 85.3254 127.744 76.2588 130.826 62.1715 135.46 49.6251 144.639 41.0236 156.725 29.4691 172.774 24.5884 193.284 26.9419 212.857 28.9256 229.644 36.2438 245.996 48.3867 257.893 59.0615 268.623 73.373 275.313 88.2056 277.869 94.8738 279.107 101.665 279.415 108.434 279.393 126.377 279.387 144.32 279.387 162.262 279.387 165.042 279.365 167.922 279.6 170.584 278.603 175.778 276.838 179.672 271.717 179.785 266.208 179.79 224.35 179.779 182.491 179.79 140.632 179.79 138.245 180.591 135.516 182.867 134.357 185.338 133.174 188.392 134.379 189.787 136.637 217.978 182.334 246.451 227.869 274.855 273.437 277.382 277.808 282.784 280.823 287.827 279.299 292.976 277.875 296.008 272.434 295.98 267.318 295.997 225.291 295.98 183.264 295.991 141.243 295.974 138.856 296.445 136.06 298.614 134.665 301.007 133.079 304.324 134.216 305.848 136.48 334.062 182.188 362.528 227.746 390.943 273.325 392.742 276.351 395.706 278.766 399.192 279.5 402.817 280.347 406.791 278.901 409.205 276.105 411.508 273.589 412.456 270.097 412.467 266.747 412.478 211.35 412.455 155.958 412.478 100.568 421.097 100.528 429.709 100.545 438.328 100.556 438.35 155.774 438.333 210.991 438.339 266.208 438.305 270.142 438.524 274.115 437.829 278.015 436.546 287.127 431.984 295.974 424.476 301.477 416.395 307.568 405.625 309.356 395.813 307.406 383.492 305.03 372.738 296.815 366.328 286.146 351.624 261.793 336.887 237.456 322.239 213.07 322.244 229.281 322.244 245.487 322.244 261.697 322.211 268.422 322.586 275.264 320.883 281.842 319.028 289.642 314.585 296.933 308.023 301.639 300.032 307.54 289.475 309.3 279.831 307.412 267.369 305.075 256.503 296.753 250.054 285.961 235.395 261.642 220.635 237.378 206.071 213.003 205.92 230.901 206.071 248.804 205.993 266.702 205.769 275.6 203.555 284.767 198.053 291.929 193.133 298.474 185.618 302.738 177.689 304.459 170.786 306.095 163.658 305.658 156.626 305.713 140.252 305.691 123.873 305.753 107.494 305.68 86.7717 305.371 65.7751 300.564 48.0006 289.626 34.5521 281.434 23.1881 269.874 15.1812 256.313-3.88775 224.283-4.34164 181.993 14.4135 149.716 24.0348 132.928 38.9851 119.323 56.5298 111.186 67.747 105.924 79.8955 102.78 92.1953 101.43Z" fill="#FF0000" transform="matrix(1 0 0 1.00221 444.14 190)"/></g></g></g></g></svg>