<svg xmlns="http://www.w3.org/2000/svg" viewBox="0 0 1192.27 164.78"><defs><style>.cls-1{fill:#0d397f;}.cls-2{fill:#ff1a6a;}</style></defs><title>Logo_CHV_NOTICIAS</title><g id="Capa_2" data-name="Capa 2"><g id="Capa_1-2" data-name="Capa 1"><polygon class="cls-1" points="296.45 64.64 259.33 64.64 224.99 112.89 224.99 0.6 193.44 0.6 193.44 160.22 224.06 160.22 296.45 64.64"/><rect class="cls-1" x="126.62" y="0.6" width="31.55" height="64.03"/><rect class="cls-1" x="126.62" y="96.19" width="31.55" height="64.04"/><path class="cls-1" d="M91.5,159.75V128.27a58.88,58.88,0,0,1-6.9.41c-29.19,0-52.85-21.68-52.85-48.42S55.42,31.85,84.6,31.85a58.58,58.58,0,0,1,6.89.41V.78A82,82,0,0,0,80.2,0,80.27,80.27,0,1,0,91.5,159.75"/><path class="cls-2" d="M332,.42H353.6l80.81,109.09h.41V4.56h29.92V163.75H443.17L362.35,54.66h-.41v106H332Z"/><path class="cls-2" d="M555.12,164.78c-46.82,0-75.93-36.43-75.93-82.38,0-46.37,30.13-82,75.93-82s75.93,35.61,75.93,82C631.05,128.35,601.94,164.78,555.12,164.78Zm0-134.34c-28.29,0-45,25.46-45,50.71,0,24,11.81,53.62,45,53.62s45-29.6,45-53.62C600.11,55.9,583.42,30.44,555.12,30.44Z"/><path class="cls-2" d="M695.58,160.64H665.66V31.06H634.71V4.56h91.81v26.5H695.58Z"/><path class="cls-2" d="M767.44,160.64H737.51V4.56h29.93Z"/><path class="cls-2" d="M891.82,46A44,44,0,0,0,858,29.4c-28.7,0-45.19,26.91-45.19,53.82,0,26.29,17.1,52.58,45,52.58,12.82,0,25.65-6.83,34-16.56v36.23c-11.2,5.38-22.4,9.31-34.82,9.31-43.15,0-75.11-37.88-75.11-80.93,0-44.3,30.74-83.43,75.73-83.43a70.58,70.58,0,0,1,34.2,9.11Z"/><path class="cls-2" d="M941.48,160.64H911.56V4.56h29.92Z"/><path class="cls-2" d="M994.61,127.73,982,160.64H950.44L1010.29.42h23.2l58.22,160.22h-32L1048,127.73Zm25.86-81.56h-.41l-16.9,56.72h36.44Z"/><path class="cls-2" d="M1173.14,38.93c-5.7-7.87-13-12.84-23-12.84-9.56,0-18.72,7.45-18.72,17.6,0,26.29,60.86,15.32,60.86,67.69,0,31.25-19.13,53.4-50.48,53.4-21.17,0-36.64-12.42-47.23-30.43l19.34-19.25c4.07,12,14.86,22.77,27.68,22.77,12.22,0,19.75-10.55,19.75-22.56,0-16.15-14.66-20.7-26.67-25.46-19.74-8.28-34.2-18.42-34.2-42.64,0-25.88,18.94-46.79,44.79-46.79,13.64,0,32.57,6.83,41.93,17.39Z"/></g></g></svg>