<?xml version="1.0" encoding="UTF-8"?>
<svg id="Capa_1" xmlns="http://www.w3.org/2000/svg" version="1.1" viewBox="0 0 379.2 228.8">
  <!-- Generator: Adobe Illustrator 29.6.1, SVG Export Plug-In . SVG Version: 2.1.1 Build 9)  -->
  <defs>
    <style>
      .st0 {
        fill: #1e3259;
      }

      .st1 {
        fill: #ec6531;
      }
    </style>
  </defs>
  <path class="st1" d="M366.4,128.3c-4.3-6.2-10.1-11.4-17.2-15.5-.6-.3-.9-.9-1-1.5,0-.7.3-1.3.8-1.7,5.4-3.8,10.1-8.4,14-13.8,6.3-8.7,9.5-18.3,9.5-28.7,0-19.6-6.7-35.3-20.1-46.6-13.2-11.1-31.4-16.8-54.3-16.8h-.1c-13.1,0-25.4,2.6-36.4,7.6-11.2,5.1-20,12.4-26.2,21.6-5,7.3-8,15.5-9.1,24.3-.3,2.9.6,5.7,2.5,7.9,1.9,2.2,4.7,3.4,7.6,3.4h29.4c4.8,0,8.9-3.3,9.9-8.2.8-3.8,2.8-7,6.1-9.6,4.5-3.7,10.3-5.5,17.2-5.5,7.6,0,13.6,2,17.8,5.9,4.1,3.9,6.2,9.3,6.2,16.5,0,7.6-2.1,13.5-6.4,17.9-4.2,4.3-11,6.6-20.2,6.6h-3.3c-11.2,0-20.2,9.1-20.3,20.2,0,5.4,2.1,10.5,5.9,14.3,3.8,3.8,8.9,5.9,14.3,6h3c10.2,0,17.9,2.3,22.8,6.7,4.9,4.4,7.3,11.1,7.3,20.3,0,7.4-2.3,13.2-7,17.6-4.7,4.4-11.5,6.6-20.2,6.6-7.5,0-13.9-2.2-18.9-6.5-3.8-3.2-6.1-7.1-6.9-11.7-.9-4.9-5-8.4-9.9-8.4h-29.6c-2.8,0-5.5,1.2-7.4,3.3-1.9,2.1-2.9,4.9-2.6,7.7,1.5,16,8.5,29.4,20.9,39.7,13.9,11.5,31.8,17.4,53.5,17.4h.2c23,0,41.8-5.9,55.9-17.6,14.4-11.9,21.7-27.9,21.7-47.5,0-12.2-3.1-23-9.3-32Z"/>
  <path class="st1" d="M212.6,11.4c0-2.5-1.2-4.8-3.3-6.3-1.3-.9-2.8-1.4-4.4-1.4s-1.8.2-2.7.5l-60.6,22.1c-2.8,1-4.8,3.8-4.8,6.8v21.4c0,2.4,1.1,4.6,3.1,6,1.3,1,2.8,1.5,4.4,1.5s1.5-.1,2.2-.3l21.5-6.7h0v158.3c0,4.4,3.6,8,8,8h28.5c4.4,0,8-3.6,8-8V11.4c0,0,0,0,0,0Z"/>
  <path class="st0" d="M138,16.1l24.7-9c2-.7,1.5-3.6-.6-3.6H11.4c-4.4,0-8,3.6-8,8v28.5c0,4.4,3.6,8,8,8h45.9v165.4c0,4.4,3.6,8,8,8h28.5c4.4,0,8-3.6,8-8V47.9h24.3v-14.8c0-7.6,4.8-14.4,11.9-17Z"/>
</svg>