<svg xmlns="http://www.w3.org/2000/svg" viewBox="0 0 1743.7 234.63"><defs><style>.cls-1{fill:#562674;}.cls-2{fill:#71154c;}.cls-3{fill:#066938;}.cls-4{fill:#452776;}.cls-5{fill:#9b1560;}.cls-6{fill:#009841;}.cls-7{fill:#24387d;}.cls-8{fill:#5c8ecb;}.cls-9{fill:#43ad4c;}.cls-10{fill:#181b2e;}.cls-11{fill:#f6db3f;}.cls-12{fill:#d31a16;}.cls-13{fill:#f39020;}.cls-14{fill:#b6191b;}.cls-15{fill:#f2a122;}.cls-16{fill:#ef7d12;}.cls-17{fill:#ea5a25;}.cls-18{fill:#881819;}.cls-19{fill:#f1d40b;}.cls-20{fill:#020203;}</style></defs><title>Logo_Convencion_Constitucional_Señal_7</title><g id="Capa_2" data-name="Capa 2"><g id="Capa_1-2" data-name="Capa 1"><path d="M1636.81,234.63a18.1,18.1,0,0,1-12.27-4.54,14.68,14.68,0,0,1-5.21-11.6,19.92,19.92,0,0,1,1.68-7.73l84.71-187.23,3.69,7.39H1606.55a15.48,15.48,0,0,1-15.79-15.79,14.36,14.36,0,0,1,4.53-10.76A15.62,15.62,0,0,1,1606.55,0h119.33a18.54,18.54,0,0,1,12.61,4.54,14.69,14.69,0,0,1,5.21,11.59,18.54,18.54,0,0,1-1.68,7.74l-89.75,200a17,17,0,0,1-15.46,10.76Z"/><path class="cls-1" d="M39.77,158.61a9.72,9.72,0,0,1-5.1-1.5,9.34,9.34,0,0,1-2.7-12.9,295.88,295.88,0,0,1,24.9-32.9,9.32,9.32,0,0,1,13.1-.9,9.44,9.44,0,0,1,.9,13.2,268.51,268.51,0,0,0-23.4,30.8A9,9,0,0,1,39.77,158.61Z"/><path class="cls-2" d="M105.67,87.31a9.15,9.15,0,0,1-7.5-3.8,9.27,9.27,0,0,1,1.9-13,280.88,280.88,0,0,1,34.8-22.2,9.3,9.3,0,0,1,12.6,3.8,9.41,9.41,0,0,1-3.8,12.7,263.41,263.41,0,0,0-32.5,20.8A9.67,9.67,0,0,1,105.67,87.31Z"/><path class="cls-3" d="M197.77,41.61a9.28,9.28,0,0,1-9-6.9,9.44,9.44,0,0,1,6.6-11.5,293,293,0,0,1,40.5-8,9.41,9.41,0,0,1,10.4,8.1,9.28,9.28,0,0,1-8.1,10.4,270,270,0,0,0-37.9,7.4A5.87,5.87,0,0,1,197.77,41.61Z"/><path class="cls-4" d="M9.37,221.81a10.47,10.47,0,0,1-3-.5,9.37,9.37,0,0,1-5.9-11.8c1.7-5.2,3.7-10.6,5.8-15.7a9.38,9.38,0,0,1,17.4,7c-1.9,4.8-3.8,9.8-5.4,14.7A9.67,9.67,0,0,1,9.37,221.81Z"/><path class="cls-5" d="M107.47,154.21a9.72,9.72,0,0,1-6.4-2.5,9.33,9.33,0,0,1-.4-13.2,239.54,239.54,0,0,1,33-29.1,9.3,9.3,0,0,1,11,15,215.92,215.92,0,0,0-30.4,26.9A8.86,8.86,0,0,1,107.47,154.21Z"/><path class="cls-6" d="M194.07,96.51a9.36,9.36,0,0,1-8.7-6.1,9.51,9.51,0,0,1,5.6-12,241.63,241.63,0,0,1,42.5-11.1,9.23,9.23,0,0,1,10.7,7.7,9.38,9.38,0,0,1-7.7,10.8A221.54,221.54,0,0,0,197.27,96,12.48,12.48,0,0,1,194.07,96.51Z"/><path class="cls-7" d="M63.47,221.81a11.49,11.49,0,0,1-3.6-.7,9.38,9.38,0,0,1-5-12.2,247.82,247.82,0,0,1,12.2-24.8,9.34,9.34,0,1,1,16.2,9.3A202.85,202.85,0,0,0,72,216.31,9.09,9.09,0,0,1,63.47,221.81Z"/><path class="cls-8" d="M120,221.81a9.57,9.57,0,0,1-4.6-1.2,9.42,9.42,0,0,1-3.4-12.8,191.17,191.17,0,0,1,29-38,9.33,9.33,0,0,1,13.3,13.1,169.55,169.55,0,0,0-26.1,34.1A9.52,9.52,0,0,1,120,221.81Z"/><path class="cls-9" d="M199.67,148.61a9.37,9.37,0,0,1-3.9-17.9,187.24,187.24,0,0,1,45.8-13.6,9.37,9.37,0,0,1,3,18.5,168.46,168.46,0,0,0-41.2,12.2A9.46,9.46,0,0,1,199.67,148.61Z"/><circle class="cls-10" cx="272.07" cy="125.51" r="9.4"/><circle class="cls-10" cx="171.47" cy="158.11" r="9.4"/><path class="cls-11" d="M424.17,221.81a9.19,9.19,0,0,1-8-4.6,166,166,0,0,0-26.1-34.1,9.33,9.33,0,1,1,13.3-13.1,184.75,184.75,0,0,1,29,38,9.54,9.54,0,0,1-3.4,12.8A14.22,14.22,0,0,1,424.17,221.81Z"/><path class="cls-12" d="M344.57,148.61a10.8,10.8,0,0,1-3.8-.8,167.17,167.17,0,0,0-41.2-12.2,9.23,9.23,0,0,1-7.7-10.7,9.37,9.37,0,0,1,10.7-7.8,185.48,185.48,0,0,1,45.8,13.6,9.37,9.37,0,0,1-3.8,17.9Z"/><circle class="cls-10" cx="372.67" cy="158.11" r="9.4"/><circle class="cls-10" cx="89.77" cy="165.71" r="9.4"/><circle class="cls-10" cx="165.67" cy="99.51" r="9.4"/><circle class="cls-10" cx="272.07" cy="72.71" r="9.4"/><path class="cls-13" d="M436.57,154.21a9.55,9.55,0,0,1-6.8-2.9,221.65,221.65,0,0,0-30.4-26.9,9.3,9.3,0,1,1,11-15,253.58,253.58,0,0,1,33,29.1,9.42,9.42,0,0,1-.4,13.2A8.66,8.66,0,0,1,436.57,154.21Z"/><path class="cls-14" d="M350.17,96.51a11.15,11.15,0,0,1-3.1-.5,221.54,221.54,0,0,0-39.2-10.2,9.4,9.4,0,0,1-7.7-10.8,9.16,9.16,0,0,1,10.7-7.7,239.37,239.37,0,0,1,42.5,11.1,9.43,9.43,0,0,1,5.6,12A9.7,9.7,0,0,1,350.17,96.51Z"/><path class="cls-15" d="M480.67,221.81a9.21,9.21,0,0,1-8.6-5.7,221.06,221.06,0,0,0-11.3-22.9,9.48,9.48,0,0,1,3.5-12.8,9.34,9.34,0,0,1,12.7,3.5,237.31,237.31,0,0,1,12.2,24.8,9.29,9.29,0,0,1-5,12.2A6.32,6.32,0,0,1,480.67,221.81Z"/><circle class="cls-10" cx="454.37" cy="165.71" r="9.4"/><circle class="cls-10" cx="378.47" cy="99.51" r="9.4"/><circle class="cls-10" cx="24.47" cy="174.51" r="9.4"/><circle class="cls-10" cx="82.77" cy="97.51" r="9.4"/><circle class="cls-10" cx="168.17" cy="42.41" r="9.4"/><circle class="cls-10" cx="272.07" cy="22.21" r="9.4"/><path class="cls-16" d="M504.37,158.61a9.3,9.3,0,0,1-7.8-4.2,260.07,260.07,0,0,0-23.4-30.8,9.35,9.35,0,0,1,.9-13.2,9.14,9.14,0,0,1,13.1.9,273.25,273.25,0,0,1,24.9,32.9,9.34,9.34,0,0,1-2.7,12.9A8.18,8.18,0,0,1,504.37,158.61Z"/><path class="cls-17" d="M438.37,87.31a10,10,0,0,1-5.6-1.8,271.13,271.13,0,0,0-32.5-20.8,9.35,9.35,0,0,1,8.8-16.5,293.05,293.05,0,0,1,34.8,22.2,9.28,9.28,0,0,1,1.9,13A8.69,8.69,0,0,1,438.37,87.31Z"/><path class="cls-18" d="M346.37,41.61a9.28,9.28,0,0,1-2.4-.3,270,270,0,0,0-37.9-7.4,9.32,9.32,0,0,1,2.3-18.5,293,293,0,0,1,40.5,8,9.39,9.39,0,0,1,6.6,11.5A9.67,9.67,0,0,1,346.37,41.61Z"/><path class="cls-19" d="M534.87,221.81a9.18,9.18,0,0,1-8.8-6.4c-1.7-4.9-3.5-9.9-5.4-14.7a9.38,9.38,0,0,1,17.4-7c2.1,5.2,4,10.4,5.8,15.7a9.29,9.29,0,0,1-5.9,11.8A7.12,7.12,0,0,1,534.87,221.81Z"/><circle class="cls-10" cx="519.67" cy="174.51" r="9.4"/><circle class="cls-10" cx="461.37" cy="97.51" r="9.4" transform="translate(285.29 534.97) rotate(-80.01)"/><circle class="cls-10" cx="375.97" cy="42.41" r="9.4"/><path class="cls-20" d="M607.65,114.06a50.16,50.16,0,0,0,16.28,10.79,50.71,50.71,0,0,0,19.87,3.77,62.77,62.77,0,0,0,11.14-1.2,52.47,52.47,0,0,0,10.45-3.25,83.8,83.8,0,0,0,8.74-4.46A3.47,3.47,0,0,0,676,116.8a5,5,0,0,0-.86-3.43,5.8,5.8,0,0,0-2.91-1.71,4.63,4.63,0,0,0-3.09.51,54.43,54.43,0,0,1-12,5.49,43.12,43.12,0,0,1-13.54,2,42.52,42.52,0,0,1-16.28-3.08A43.48,43.48,0,0,1,614,107.72a42.45,42.45,0,0,1-9.08-13.88,51,51,0,0,1-3.09-18.16A48.23,48.23,0,0,1,604.91,58a40.2,40.2,0,0,1,8.91-13.88,37.72,37.72,0,0,1,13.36-9.08A44.07,44.07,0,0,1,643.8,32,45.8,45.8,0,0,1,657.51,34a47.37,47.37,0,0,1,11.82,5.65,6.48,6.48,0,0,0,3.09.52A3,3,0,0,0,675,38.67a4.94,4.94,0,0,0,1-3.6A4.49,4.49,0,0,0,674,32.15a44.86,44.86,0,0,0-13.88-6.51A50.34,50.34,0,0,0,644,23.24a49.11,49.11,0,0,0-20,4,51.09,51.09,0,0,0-16.28,11.13A52.46,52.46,0,0,0,592.4,75.85a55.13,55.13,0,0,0,4.11,21.59A46.57,46.57,0,0,0,607.65,114.06Z"/><path class="cls-20" d="M701.72,113.54a47.49,47.49,0,0,0,15.59,11,49.35,49.35,0,0,0,19.7,3.94,50,50,0,0,0,19.71-3.94,43.58,43.58,0,0,0,15.59-11,49.55,49.55,0,0,0,10.28-16.62,59.75,59.75,0,0,0,3.6-21.07,59.14,59.14,0,0,0-3.6-21.08,48.5,48.5,0,0,0-10.28-16.62,45.9,45.9,0,0,0-15.59-11,51.13,51.13,0,0,0-39.41,0,43.55,43.55,0,0,0-15.59,11,49.13,49.13,0,0,0-10.11,16.62A60.49,60.49,0,0,0,688,75.85a59.75,59.75,0,0,0,3.6,21.07A48.6,48.6,0,0,0,701.72,113.54Zm.85-60.82a39.37,39.37,0,0,1,14-15.42c6-3.77,12.85-5.49,20.57-5.49,7.88,0,14.73,1.72,20.56,5.49a40.27,40.27,0,0,1,13.88,15.42c3.42,6.51,5.14,14.22,5.14,23a49.41,49.41,0,0,1-5.14,23,40.42,40.42,0,0,1-13.88,15.42c-5.83,3.77-12.68,5.48-20.56,5.48-7.72,0-14.57-1.71-20.57-5.48a38.27,38.27,0,0,1-14-15.42c-3.42-6.51-5.14-14.23-5.14-23A51.55,51.55,0,0,1,702.57,52.72Z"/><path class="cls-20" d="M881.8,24.44a6,6,0,0,0-2.91,1,4.47,4.47,0,0,0-1.2,2.92V110.8l-63.06-85a4.31,4.31,0,0,0-1.71-1.19,8.41,8.41,0,0,0-1.89-.35,4.52,4.52,0,0,0-2.91,1.2,4.3,4.3,0,0,0-1.2,3.09v94.06a4.38,4.38,0,0,0,1,2.92,4.52,4.52,0,0,0,2.91,1.2,5,5,0,0,0,3.09-1.2,4.92,4.92,0,0,0,1.2-2.92V40.72L878,125.37a3.49,3.49,0,0,0,1.54,1,6,6,0,0,0,1.89.35,4.15,4.15,0,0,0,3.08-1.2,4.51,4.51,0,0,0,1.37-3.43V28.39a4,4,0,0,0-1-2.92A6,6,0,0,0,881.8,24.44Z"/><path class="cls-20" d="M905.1,31.13,944,124.34a3.41,3.41,0,0,0,1.71,2,4.79,4.79,0,0,0,2.57.69,5.49,5.49,0,0,0,2.4-.69,4.69,4.69,0,0,0,1.88-2.22l39.07-93.39a6,6,0,0,0,.52-2.05,3.7,3.7,0,0,0-1.2-3.09,5.08,5.08,0,0,0-3.26-1.2c-1.71,0-3.08,1-4.28,2.92l-34.79,85L913.33,27.7A4.36,4.36,0,0,0,909,24.62a4.85,4.85,0,0,0-2.91,1.2,3.44,3.44,0,0,0-1.54,3.08,3,3,0,0,0,.17,1.2A2.5,2.5,0,0,0,905.1,31.13Z"/><path class="cls-20" d="M1015.28,127.08h53.63a4.9,4.9,0,0,0,3.08-1.2,4.16,4.16,0,0,0,0-6.17,4,4,0,0,0-3.08-1.37h-48.66V78.59h42.15a5,5,0,0,0,3.08-1.2,4.29,4.29,0,0,0,1.37-3.08,4.23,4.23,0,0,0-1.37-2.92A4,4,0,0,0,1062.4,70h-42.15V33.35h48.66a4.9,4.9,0,0,0,3.08-1.2,3.64,3.64,0,0,0,1.37-2.91,4.26,4.26,0,0,0-1.37-3.08,4.52,4.52,0,0,0-3.08-1.2h-53.63a4.92,4.92,0,0,0-3.09,1.2,4.93,4.93,0,0,0-1.2,3.08V123a4.15,4.15,0,0,0,1.2,3.08A6,6,0,0,0,1015.28,127.08Z"/><path class="cls-20" d="M1098.21,127.08a4.9,4.9,0,0,0,3.08-1.2,4.83,4.83,0,0,0,1.2-2.91V41.06l62.88,84.48a3.63,3.63,0,0,0,1.55,1,6.18,6.18,0,0,0,1.88.34,4.13,4.13,0,0,0,3.09-1.2,4.54,4.54,0,0,0,1.37-3.43V28.56a4.08,4.08,0,0,0-1-2.92,4.18,4.18,0,0,0-2.91-1.2,4.1,4.1,0,0,0-4.12,4.12V111l-63-85a3.13,3.13,0,0,0-1.72-1.2,8.93,8.93,0,0,0-1.88-.35,4.48,4.48,0,0,0-2.91,1.2,4.26,4.26,0,0,0-1.2,3.09v94.41a4.3,4.3,0,0,0,1,2.91A3.35,3.35,0,0,0,1098.21,127.08Z"/><path class="cls-20" d="M1256.53,127.42a52.47,52.47,0,0,0,10.45-3.25,83.8,83.8,0,0,0,8.74-4.46,3.46,3.46,0,0,0,1.88-2.91,4.92,4.92,0,0,0-.85-3.43,5.18,5.18,0,0,0-2.91-1.71,4.63,4.63,0,0,0-3.09.51,51.07,51.07,0,0,1-12,5.49,43.94,43.94,0,0,1-13.54,2,42.48,42.48,0,0,1-16.28-3.08,43.48,43.48,0,0,1-13.36-8.91,39.34,39.34,0,0,1-8.91-13.88,51,51,0,0,1-3.09-18.16A48.23,48.23,0,0,1,1206.67,58a40.2,40.2,0,0,1,8.91-13.88,37.72,37.72,0,0,1,13.36-9.08A44.07,44.07,0,0,1,1245.56,32,45.8,45.8,0,0,1,1259.27,34a47.2,47.2,0,0,1,11.82,5.65,6.48,6.48,0,0,0,3.09.52,3.26,3.26,0,0,0,2.57-1.54,4.94,4.94,0,0,0,1-3.6,4.49,4.49,0,0,0-2.06-2.92,44.86,44.86,0,0,0-13.88-6.51,50.34,50.34,0,0,0-16.11-2.4,48.56,48.56,0,0,0-20,4,51.09,51.09,0,0,0-16.28,11.13,52.46,52.46,0,0,0-15.25,37.53,55.13,55.13,0,0,0,4.11,21.59,49.3,49.3,0,0,0,11.31,16.62,52,52,0,0,0,16.28,10.79,50.71,50.71,0,0,0,19.87,3.77A49.36,49.36,0,0,0,1256.53,127.42Z"/><path class="cls-20" d="M1301.08,127.08a4.26,4.26,0,0,0,3.08-1.37,4.91,4.91,0,0,0,1.55-3.09V29.24a4.72,4.72,0,0,0-4.46-4.45,4.39,4.39,0,0,0-3.26,1.37,4,4,0,0,0-1.37,3.08v93.38a5,5,0,0,0,1.2,3.09A3.89,3.89,0,0,0,1301.08,127.08Z"/><path class="cls-20" d="M1420.85,96.92a59.75,59.75,0,0,0,3.6-21.07,59.14,59.14,0,0,0-3.6-21.08,51,51,0,0,0-10.11-16.62,46,46,0,0,0-15.59-11,49.37,49.37,0,0,0-19.71-4,50.15,50.15,0,0,0-19.87,4,46,46,0,0,0-15.6,11,49.65,49.65,0,0,0-10.28,16.62,60.48,60.48,0,0,0-3.59,21.08,59.75,59.75,0,0,0,3.59,21.07A50.23,50.23,0,0,0,1340,113.54a47.64,47.64,0,0,0,15.6,11,51.67,51.67,0,0,0,39.58,0,43.67,43.67,0,0,0,15.59-11A50.91,50.91,0,0,0,1420.85,96.92ZM1396,114.06c-5.82,3.77-12.68,5.48-20.56,5.48-7.71,0-14.56-1.71-20.56-5.48a38.2,38.2,0,0,1-14.05-15.42c-3.43-6.51-5.14-14.23-5.14-23a49.23,49.23,0,0,1,5.14-23,39.29,39.29,0,0,1,14.05-15.42c6-3.77,12.85-5.49,20.56-5.49s14.74,1.72,20.56,5.49a40.11,40.11,0,0,1,13.88,15.42c3.43,6.51,5.14,14.22,5.14,23a49.29,49.29,0,0,1-5.14,23A39.07,39.07,0,0,1,1396,114.06Z"/><path class="cls-20" d="M1375.61,17.76a3,3,0,0,1,1.72.17,5.46,5.46,0,0,1,1.54-.51l14.39-7.2a4.41,4.41,0,0,0,2.06-1.88A5.08,5.08,0,0,0,1396,5.6a4.13,4.13,0,0,0-1.2-3.09,4.93,4.93,0,0,0-3.08-1.2,5.38,5.38,0,0,0-2.4.52,6.66,6.66,0,0,0-1.88,1l-13,10.11a3.59,3.59,0,0,0-1,1.2,3.91,3.91,0,0,0-.35,1.37,2.19,2.19,0,0,0,.69,1.72A3.56,3.56,0,0,0,1375.61,17.76Z"/><path class="cls-20" d="M1449.29,127.08a4.1,4.1,0,0,0,2.91-1.2,4.83,4.83,0,0,0,1.2-2.91V41.06l62.89,84.48a3.53,3.53,0,0,0,1.54,1,6.18,6.18,0,0,0,1.88.34,4.13,4.13,0,0,0,3.09-1.2,4.54,4.54,0,0,0,1.37-3.43V28.56a4,4,0,0,0-1-2.92,4.25,4.25,0,0,0-3.08-1.2,4.18,4.18,0,0,0-2.92,1.2,4.52,4.52,0,0,0-1.2,2.92V111l-63-85a3.11,3.11,0,0,0-1.71-1.2,9,9,0,0,0-1.89-.35,5.37,5.37,0,0,0-3.08,1.2,4.26,4.26,0,0,0-1.2,3.09v94.41a4.3,4.3,0,0,0,1,2.91A5.57,5.57,0,0,0,1449.29,127.08Z"/><path class="cls-20" d="M650.14,216.69a6.83,6.83,0,0,0-4.45.69,18.48,18.48,0,0,1-5.66,1.88,24,24,0,0,1-6,.52,28.46,28.46,0,0,1-10.11-1.72,20.57,20.57,0,0,1-8.06-5,23.74,23.74,0,0,1-5.48-8.39,30.28,30.28,0,0,1-1.88-11.65,29.15,29.15,0,0,1,1.71-10.46,22.57,22.57,0,0,1,5-8.22,20.75,20.75,0,0,1,7.88-5.31,26.1,26.1,0,0,1,10.62-1.89,36.16,36.16,0,0,1,6.17.52,51.07,51.07,0,0,1,5.48,1.88,8.31,8.31,0,0,0,4.46.86,4.9,4.9,0,0,0,3.77-2.23,7.19,7.19,0,0,0,1.71-5.65,5.83,5.83,0,0,0-3.25-4.46,26.2,26.2,0,0,0-8.4-3.08,42.62,42.62,0,0,0-9.42-1,43.36,43.36,0,0,0-15.94,2.91,38.77,38.77,0,0,0-12.51,8.23,34.56,34.56,0,0,0-8.22,12.51,42.85,42.85,0,0,0-2.91,15.76,44.57,44.57,0,0,0,3.08,17.31,34.38,34.38,0,0,0,8.74,12.5,37.65,37.65,0,0,0,12.68,7.54A43.16,43.16,0,0,0,634,233.31a41.6,41.6,0,0,0,6.34-.51c2-.52,4.11-.86,6.16-1.54a61.24,61.24,0,0,0,5.83-2.4,5.6,5.6,0,0,0,3.26-4.29,6.62,6.62,0,0,0-1.72-5.65A6.73,6.73,0,0,0,650.14,216.69Z"/><path class="cls-20" d="M727.25,165a35.06,35.06,0,0,0-11.83-8.57,38,38,0,0,0-30,0A32.67,32.67,0,0,0,673.62,165a37,37,0,0,0-7.71,12.68,45.57,45.57,0,0,0,0,31.18,41.05,41.05,0,0,0,7.71,12.68,35.47,35.47,0,0,0,26.73,11.65,37.13,37.13,0,0,0,15.07-3.08,34.45,34.45,0,0,0,11.83-8.57A37.3,37.3,0,0,0,735,208.81a45.72,45.72,0,0,0,0-31.18A41.32,41.32,0,0,0,727.25,165Zm-6.69,41.8a23.24,23.24,0,0,1-8,9.6,21.78,21.78,0,0,1-24,0,23.39,23.39,0,0,1-8-9.6,32,32,0,0,1-2.91-13.53,29.53,29.53,0,0,1,2.91-13.54,23.43,23.43,0,0,1,8-9.59,21.78,21.78,0,0,1,24,0,23.27,23.27,0,0,1,8,9.59,31.19,31.19,0,0,1,0,27.07Z"/><path class="cls-20" d="M808.64,154.49a5.22,5.22,0,0,0-4.29,1.72,6.83,6.83,0,0,0-1.71,4.45v48l-40.1-51.58a6.91,6.91,0,0,0-2.39-1.88,6.59,6.59,0,0,0-3.09-.51,6.33,6.33,0,0,0-4.8,1.88,6.08,6.08,0,0,0-1.88,4.8v64.77a6.06,6.06,0,0,0,1.71,4.45,5.68,5.68,0,0,0,4.29,1.71,6.5,6.5,0,0,0,4.45-1.71,6.83,6.83,0,0,0,1.71-4.45V178.83l40.27,51.74a4.09,4.09,0,0,0,2.23,1.37,8,8,0,0,0,2.91.52,6.33,6.33,0,0,0,4.8-1.89,6.08,6.08,0,0,0,1.88-4.8V161a5.81,5.81,0,0,0-1.71-4.46A4.61,4.61,0,0,0,808.64,154.49Z"/><path class="cls-20" d="M877.52,193.56a22.11,22.11,0,0,0-8.23-4.28,110.73,110.73,0,0,0-11.48-2.92,46.33,46.33,0,0,1-8.74-2.22,11.65,11.65,0,0,1-5.48-3.43,7.66,7.66,0,0,1-1.88-5.48,7.31,7.31,0,0,1,1.71-5,11.49,11.49,0,0,1,5-3.26,25.57,25.57,0,0,1,7.88-1.2,28.33,28.33,0,0,1,6.17.86c2.23.69,4.28,1.54,6.34,2.4a23.69,23.69,0,0,1,4.8,2.91,4.6,4.6,0,0,0,2.91,1,5.24,5.24,0,0,0,4.28-1.89,6.86,6.86,0,0,0,1.89-4.45,7.41,7.41,0,0,0-3.09-5.83,28.94,28.94,0,0,0-9.94-5.48,40.93,40.93,0,0,0-13.19-2.06A34,34,0,0,0,842.56,156a23.62,23.62,0,0,0-9.94,7.71,19.9,19.9,0,0,0-3.77,12.33,23,23,0,0,0,1.55,8.57,17,17,0,0,0,4.45,6.51,24.59,24.59,0,0,0,7.54,4.63,58.25,58.25,0,0,0,10.45,2.74,42.4,42.4,0,0,1,10.28,2.57,13.17,13.17,0,0,1,6,3.94A8.38,8.38,0,0,1,871,210.7a7.46,7.46,0,0,1-2.06,5,14.9,14.9,0,0,1-5.48,3.43,21,21,0,0,1-7.54,1.37,24.15,24.15,0,0,1-10.11-1.88,32.09,32.09,0,0,1-8.23-5.31,6,6,0,0,0-3.77-1.38,5.61,5.61,0,0,0-4.45,1.89,6.86,6.86,0,0,0-1.89,4.45,10.13,10.13,0,0,0,.69,3.09,11.82,11.82,0,0,0,2.23,2.91,34.19,34.19,0,0,0,11.65,6.86A43.52,43.52,0,0,0,855.76,233a31.59,31.59,0,0,0,13.87-2.91,26.32,26.32,0,0,0,10.28-7.88,20.51,20.51,0,0,0,4-12.51,26.64,26.64,0,0,0-1.72-9.6A13.18,13.18,0,0,0,877.52,193.56Z"/><path class="cls-20" d="M947.25,154.49H898.59a6.9,6.9,0,0,0-4.8,1.72,6.63,6.63,0,0,0,0,9.25,7,7,0,0,0,4.8,1.89H915.9v58.08a6.32,6.32,0,0,0,1.88,4.8,8,8,0,0,0,10.28,0,6.23,6.23,0,0,0,2.06-4.8V167.35h17.3a6.88,6.88,0,0,0,4.8-1.72,6.6,6.6,0,0,0,0-9.25A7,7,0,0,0,947.25,154.49Z"/><path class="cls-20" d="M972.78,154.49a6.86,6.86,0,0,0-5.14,1.89,6.08,6.08,0,0,0-1.88,4.8v64.08a6.33,6.33,0,0,0,1.88,4.8,6.24,6.24,0,0,0,5,1.88,6.57,6.57,0,0,0,4.8-1.88,6.24,6.24,0,0,0,2.06-4.8h.17V161.18a6.49,6.49,0,0,0-2.06-4.8A6.85,6.85,0,0,0,972.78,154.49Z"/><path class="cls-20" d="M1046.29,154.49H997.63a6.88,6.88,0,0,0-4.8,1.72,5.72,5.72,0,0,0-1.88,4.62,6.32,6.32,0,0,0,1.88,4.63,7,7,0,0,0,4.8,1.89h17.3v58.08a6.33,6.33,0,0,0,1.89,4.8,8,8,0,0,0,10.28,0,6.23,6.23,0,0,0,2.06-4.8V167.35h17.3a6.88,6.88,0,0,0,4.8-1.72,6.63,6.63,0,0,0,0-9.25A6.71,6.71,0,0,0,1046.29,154.49Z"/><path class="cls-20" d="M1119.11,154.32c-1.88,0-3.43.52-4.28,1.89a7.42,7.42,0,0,0-1.72,4.8V201.1a17.43,17.43,0,0,1-2.57,9.6,18.28,18.28,0,0,1-6.68,6.34,17.65,17.65,0,0,1-8.91,2.22,15.63,15.63,0,0,1-8.22-2.22,16.17,16.17,0,0,1-6.34-6.34,17.36,17.36,0,0,1-2.4-9.6V161a6.49,6.49,0,0,0-2.06-4.8,6.1,6.1,0,0,0-4.45-1.89,6.84,6.84,0,0,0-5.14,1.89,6.09,6.09,0,0,0-1.89,4.8V201.1a33.66,33.66,0,0,0,3.94,16.28,29.35,29.35,0,0,0,10.8,11.14,30.66,30.66,0,0,0,15.93,4.11,30.27,30.27,0,0,0,15.94-4.11,29,29,0,0,0,10.62-11.14,33.66,33.66,0,0,0,3.94-16.28V161a6.88,6.88,0,0,0-1.71-4.8A5.87,5.87,0,0,0,1119.11,154.32Z"/><path class="cls-20" d="M1194.16,216.69a6.67,6.67,0,0,0-4.45.69,17.09,17.09,0,0,1-5.66,1.88,24.1,24.1,0,0,1-6,.52,28.54,28.54,0,0,1-10.11-1.72,20.6,20.6,0,0,1-8-5,21.29,21.29,0,0,1-5.31-8.39,30.27,30.27,0,0,1-1.89-11.65,29.15,29.15,0,0,1,1.72-10.46,22.57,22.57,0,0,1,5-8.22,20.6,20.6,0,0,1,7.88-5.31,26.1,26.1,0,0,1,10.62-1.89,37.78,37.78,0,0,1,6.17.52,51.07,51.07,0,0,1,5.48,1.88,8.61,8.61,0,0,0,4.46.86,4.9,4.9,0,0,0,3.77-2.23,7.19,7.19,0,0,0,1.71-5.65,5.83,5.83,0,0,0-3.25-4.46,27.85,27.85,0,0,0-8.4-3.08,42.62,42.62,0,0,0-9.42-1,43.36,43.36,0,0,0-15.94,2.91,39.52,39.52,0,0,0-12.68,8.23,34.43,34.43,0,0,0-8.22,12.51,42.85,42.85,0,0,0-2.92,15.76,44.56,44.56,0,0,0,3.09,17.31,34.38,34.38,0,0,0,8.74,12.5,37.65,37.65,0,0,0,12.68,7.54,43.06,43.06,0,0,0,14.9,2.57,41.4,41.4,0,0,0,6.34-.51c2.06-.52,4.12-.86,6.17-1.54a43.47,43.47,0,0,0,5.83-2.4,6,6,0,0,0,3.25-4.29,6.59,6.59,0,0,0-1.71-5.65A5.79,5.79,0,0,0,1194.16,216.69Z"/><path class="cls-20" d="M1218.15,154.49a6.84,6.84,0,0,0-5.14,1.89,6.09,6.09,0,0,0-1.89,4.8v64.08a6.34,6.34,0,0,0,1.89,4.8,6.22,6.22,0,0,0,5,1.88,6.56,6.56,0,0,0,4.79-1.88,6.21,6.21,0,0,0,2.06-4.8h.17V161.18a6.48,6.48,0,0,0-2-4.8A6.89,6.89,0,0,0,1218.15,154.49Z"/><path class="cls-20" d="M1301.42,165a34.93,34.93,0,0,0-11.82-8.57,37.63,37.63,0,0,0-29.82,0A32.84,32.84,0,0,0,1248,165a37.3,37.3,0,0,0-7.71,12.68,45.72,45.72,0,0,0,0,31.18,41.44,41.44,0,0,0,7.71,12.68,36.89,36.89,0,0,0,11.82,8.57,37.63,37.63,0,0,0,29.82,0,34.41,34.41,0,0,0,11.82-8.57,37,37,0,0,0,7.71-12.68,46.42,46.42,0,0,0,2.74-15.59,42.52,42.52,0,0,0-2.74-15.59A38,38,0,0,0,1301.42,165Zm-6.68,41.8a23.39,23.39,0,0,1-8,9.6,21.78,21.78,0,0,1-24,0,23.34,23.34,0,0,1-8.06-9.6,32,32,0,0,1-2.91-13.53,29.66,29.66,0,0,1,2.91-13.54,23.37,23.37,0,0,1,8.06-9.59,21.78,21.78,0,0,1,24,0,23.43,23.43,0,0,1,8,9.59,31.28,31.28,0,0,1,0,27.07Z"/><path class="cls-20" d="M1382.81,154.49a5.2,5.2,0,0,0-4.28,1.72,6.84,6.84,0,0,0-1.72,4.45v48l-40.09-51.58a7,7,0,0,0-2.4-1.88,6.57,6.57,0,0,0-3.08-.51,6.32,6.32,0,0,0-4.8,1.88,6.09,6.09,0,0,0-1.89,4.8v64.77a6.84,6.84,0,0,0,1.72,4.45,5.68,5.68,0,0,0,4.28,1.71,6.53,6.53,0,0,0,4.46-1.71,6.89,6.89,0,0,0,1.71-4.45V178.83L1377,230.57a4.93,4.93,0,0,0,2.23,1.37,8.09,8.09,0,0,0,2.91.52,6.33,6.33,0,0,0,4.8-1.89,6.09,6.09,0,0,0,1.89-4.8V161a5.82,5.82,0,0,0-1.72-4.46A4.6,4.6,0,0,0,1382.81,154.49Z"/><path class="cls-20" d="M1438.84,158.44a5.54,5.54,0,0,0-2.57-3.26,7.49,7.49,0,0,0-3.77-1.2,6.48,6.48,0,0,0-3.94,1,6.92,6.92,0,0,0-2.74,3.43l-27.42,66.48a10.26,10.26,0,0,0-.34,2.05,6.13,6.13,0,0,0,1.54,4.12,5.56,5.56,0,0,0,4.29,1.71,6.43,6.43,0,0,0,3.42-1.2,6.79,6.79,0,0,0,2.4-3.26l5.66-13.53h32.72l5.83,13.71a7,7,0,0,0,2.57,3.25,5.89,5.89,0,0,0,7.88-.68,6.1,6.1,0,0,0,1.88-4.8,18.76,18.76,0,0,0-.51-2.74Zm-18,43.52,11-26.05L1443,202Z"/><path class="cls-20" d="M1522.8,220.8a6.92,6.92,0,0,0-4.8-1.71v-.17h-28.61V161a6.49,6.49,0,0,0-2.06-4.8,6.21,6.21,0,0,0-4.63-1.89,6.86,6.86,0,0,0-5.14,1.89,6.08,6.08,0,0,0-1.88,4.8v64.08a6.44,6.44,0,0,0,6.68,6.68H1518a7,7,0,0,0,4.8-1.88,6,6,0,0,0,1.88-4.63A5.86,5.86,0,0,0,1522.8,220.8Z"/></g></g></svg>