<svg id="Capa_1" data-name="Capa 1" xmlns="http://www.w3.org/2000/svg" viewBox="0 0 80 74.81"><title>LogoTVCHILE</title><rect x="23.52" y="65.08" width="10.59" height="3.11" style="fill:red"/><rect x="42.35" y="58.81" width="3.78" height="16" style="fill:red"/><rect x="51.98" y="71.68" width="10.59" height="3.14" style="fill:red"/><rect x="68.46" y="65.16" width="10.6" height="3.11" style="fill:red"/><path d="M7911.76,6816.06l2.47,2.22c-.21.24-.39.48-.6.7a7.7,7.7,0,0,1-4.39,2.32,10.29,10.29,0,0,1-2.54.12,8.76,8.76,0,0,1-4.33-1.36,7.15,7.15,0,0,1-3.06-4.15,8.8,8.8,0,0,1,.07-5.23,7.07,7.07,0,0,1,4.27-4.54,9.85,9.85,0,0,1,3.43-.69,10.12,10.12,0,0,1,3.74.56,7.39,7.39,0,0,1,2.8,1.84l.07.08-2.29,2.35-.21-.25a4.34,4.34,0,0,0-1.94-1.26,5.41,5.41,0,0,0-3.11-.13,4.09,4.09,0,0,0-2.94,2.56,5.75,5.75,0,0,0,.06,4.6,4.24,4.24,0,0,0,3.43,2.55,5.49,5.49,0,0,0,2.28-.11,4.5,4.5,0,0,0,2.44-1.7Z" transform="translate(-7898.95 -6746.64)" style="fill:red"/><path d="M7927.59,6757.29a2.06,2.06,0,0,0,0,.21v34.75a5.28,5.28,0,0,1-4.72,5.37,5.3,5.3,0,0,1-5.8-4.35,7,7,0,0,1-.08-1.12v-34.86h-12.69a5.17,5.17,0,0,1-3.5-1.3,5.1,5.1,0,0,1-1.78-3.3,5.32,5.32,0,0,1,4.15-5.93,6.55,6.55,0,0,1,1.32-.12h38.85a6.08,6.08,0,0,1,3,.74,5.71,5.71,0,0,1,2.68,3.1c.63,1.7,1.22,3.42,1.82,5.13l7.73,21.87a.87.87,0,0,0,.14.27l.09-.22,2.4-6.79q3.54-10,7.07-20a5.94,5.94,0,0,1,2.1-2.88,5.69,5.69,0,0,1,2.76-1.12,5,5,0,0,1,2.76.36,5,5,0,0,1,2.95,3.74,4.88,4.88,0,0,1-.24,2.65l-4.41,12.49q-4.95,14-9.89,28a6.06,6.06,0,0,1-1.53,2.44,5.57,5.57,0,0,1-2.95,1.5,6.08,6.08,0,0,1-3.19-.25,5.69,5.69,0,0,1-2.92-2.37,6.44,6.44,0,0,1-.63-1.36q-5.78-16.3-11.53-32.63l-1.32-3.72c-.1-.27-.06-.25-.34-.25h-12.32Z" transform="translate(-7898.95 -6746.64)" style="fill:red"/><rect x="68.45" y="58.81" width="11.55" height="3.12" style="fill:red"/><rect x="51.98" y="58.81" width="3.79" height="13.18" style="fill:red"/><rect x="68.45" y="71.68" width="11.55" height="3.14" style="fill:red"/><rect x="68.45" y="58.81" width="3.8" height="16" style="fill:red"/><rect x="32.74" y="58.81" width="3.78" height="16" style="fill:red"/><rect x="21.09" y="58.81" width="3.78" height="16" style="fill:red"/></svg>