<svg xmlns="http://www.w3.org/2000/svg" viewBox="0 0 66.5 72.88"><defs><style>.cls-1{fill:#4a72b0;}</style></defs><title>Logo_BIOBIOCHILE</title><g id="Capa_2" data-name="Capa 2"><g id="Capa_1-2" data-name="Capa 1"><path class="cls-1" d="M34.49,66.22v6.66h-2.8V66.22A33.11,33.11,0,0,1,0,33.13V0H6.63V33.13A26.51,26.51,0,0,0,31.73,59.6V53A19.86,19.86,0,0,1,13.22,33.13V13.25h6.62V33.13A13.25,13.25,0,0,0,31.69,46.31V39.6a6.61,6.61,0,1,1,2.8,0v6.7a13.25,13.25,0,0,0-1.4-26.43H26.47V13.25h6.62A19.87,19.87,0,0,1,34.49,53V59.6a26.51,26.51,0,0,0-1.39-53H13.22V0H33.09a33.12,33.12,0,0,1,1.4,66.22Z"/></g></g></svg>