<svg xmlns="http://www.w3.org/2000/svg" viewBox="0 0 803.06 229.27"><defs><style>.cls-1{fill:#001661;}</style></defs><title>Logo_PoderJudicialTV</title><g id="Capa_2" data-name="Capa 2"><g id="Capa_1-2" data-name="Capa 1"><path class="cls-1" d="M250.21,42.07V25.28q0-3.6-.22-6.32a9,9,0,0,0-1.14-4.31,5.45,5.45,0,0,0-3.54-1.91,20.18,20.18,0,0,0-4.25-.32c-1.24,0-1.86-.33-1.86-1s.8-1,2.4-1c1.82,0,5.19.07,10.14.21,2.83.08,4.68.11,5.56.11,1.38,0,3.85,0,7.41-.11q5.78-.21,8.39-.21a44,44,0,0,1,8.39.7,30.82,30.82,0,0,1,5.89,1.69,23.33,23.33,0,0,1,3.6,1.86,15.67,15.67,0,0,1,2.4,2,18.74,18.74,0,0,1,3.76,5.5,17.25,17.25,0,0,1,1.69,7.47,28.15,28.15,0,0,1-2,10.57,24,24,0,0,1-5.61,8.45,25.4,25.4,0,0,1-8.56,5.45A29.25,29.25,0,0,1,272,56a15.2,15.2,0,0,1-2.29-.11h-.11a2.33,2.33,0,0,1-.87-.33.72.72,0,0,1-.33-.65q0-1.2,3.06-1.2a10.88,10.88,0,0,0,4.9-1.26,16.68,16.68,0,0,0,4.74-3.65,18.47,18.47,0,0,0,3.6-5.77,19.32,19.32,0,0,0,1.36-7.31,31.21,31.21,0,0,0-1.2-8.5,16.67,16.67,0,0,0-5.23-7.85,15,15,0,0,0-5.5-3.32,17.72,17.72,0,0,0-5.4-.93,14.75,14.75,0,0,0-4.25.44q-.87.33-.87,2.07v43.6q0,9.7.11,14.88t.43,8.45a11.39,11.39,0,0,0,1.15,4.08,3.91,3.91,0,0,0,3.1,1.8l2.73.27a26.55,26.55,0,0,0,2.83.17c1.16,0,1.75.29,1.75.87,0,.73-.69,1.09-2.07,1.09q-4.69,0-12-.22l-4.91-.11c-.58,0-2.29,0-5.12.11q-6.33.23-8.61.22c-1.46,0-2.18-.36-2.18-1.09q0-.87,1.74-.87a18.14,18.14,0,0,0,3.93-.44,2.83,2.83,0,0,0,2.12-1.74,19.51,19.51,0,0,0,1-4.25c.21-2.11.36-4.89.43-8.34s.11-8.41.11-14.88Z"/><path class="cls-1" d="M334,90.63a38.89,38.89,0,0,1-13.79-10,41.54,41.54,0,0,1-7.95-13.79,46.62,46.62,0,0,1-2.56-15.15,45.58,45.58,0,0,1,2.56-14.88,42.06,42.06,0,0,1,8-13.84,38.74,38.74,0,0,1,14.11-10.2,50.2,50.2,0,0,1,20.33-3.81,55.89,55.89,0,0,1,18.31,2.83A38.58,38.58,0,0,1,387,19.94a35.69,35.69,0,0,1,8.78,12.91,44.85,44.85,0,0,1,3,16.85,47.92,47.92,0,0,1-3.16,17.49,42.89,42.89,0,0,1-9.1,14.28A40.79,40.79,0,0,1,372.18,91a49.21,49.21,0,0,1-18.53,3.38A47.76,47.76,0,0,1,334,90.63Zm32-2.95a21.74,21.74,0,0,0,8.12-4.9q4-3.66,6.71-10.85t2.67-18.2a51.88,51.88,0,0,0-2.45-16.41,37.8,37.8,0,0,0-6.82-12.53,29.48,29.48,0,0,0-10.19-7.9,29.09,29.09,0,0,0-12.48-2.73,29.53,29.53,0,0,0-9.81,1.64,22.6,22.6,0,0,0-8.56,5.5,27,27,0,0,0-6.15,10.57,51.09,51.09,0,0,0-2.29,16.41,53.49,53.49,0,0,0,2.29,15.91,39.5,39.5,0,0,0,6.65,13,30.51,30.51,0,0,0,10.62,8.67,30.88,30.88,0,0,0,13.9,3.11A26.41,26.41,0,0,0,366,87.68Z"/><path class="cls-1" d="M421.56,42.07V25.28c0-2.4-.08-4.51-.22-6.32a9.22,9.22,0,0,0-1.14-4.31,5.45,5.45,0,0,0-3.55-1.91,20.11,20.11,0,0,0-4.25-.32c-1.23,0-1.85-.33-1.85-1s.8-1,2.4-1q2.71,0,10.13.21c2.84.08,4.69.11,5.56.11,1,0,2.95,0,5.78-.11q7.74-.21,11-.21,7.08,0,12.26.27a75,75,0,0,1,10.85,1.41,47.31,47.31,0,0,1,11,3.71,32.77,32.77,0,0,1,9.59,7,37.51,37.51,0,0,1,7.63,11.77,40.71,40.71,0,0,1,2.94,15.92A43.28,43.28,0,0,1,496.33,68a42.44,42.44,0,0,1-8.5,13,39.69,39.69,0,0,1-5.29,4.36,43.52,43.52,0,0,1-7.63,4.14,52.17,52.17,0,0,1-10.46,3.16,66.51,66.51,0,0,1-13.14,1.2c-1.89,0-3.86,0-5.94-.16s-4.67-.31-7.79-.6q-7.08-.56-9.48-.55c-.58,0-2.29,0-5.13.11q-6.32.23-8.61.22c-1.45,0-2.18-.36-2.18-1.09,0-.58.58-.87,1.75-.87a18.05,18.05,0,0,0,3.92-.44A2.83,2.83,0,0,0,420,88.72a19,19,0,0,0,1-4.25q.33-3.16.44-8.34t.11-14.88Zm13.62,12q0,8.82.06,14.6c0,3.85.09,6.32.16,7.41.07,1.89.2,3.62.38,5.18a7.5,7.5,0,0,0,.82,3.11q1.2,1.74,4.8,3a28.36,28.36,0,0,0,9.48,1.31,49.86,49.86,0,0,0,14.33-1.8,28.58,28.58,0,0,0,10.74-6,23.54,23.54,0,0,0,7-11.12,54.26,54.26,0,0,0,2.12-16,39.57,39.57,0,0,0-3.1-16.3,34.27,34.27,0,0,0-7.36-10.95A38.26,38.26,0,0,0,467,20.87a37.52,37.52,0,0,0-8.12-3.38A46.55,46.55,0,0,0,451.15,16a73,73,0,0,0-7.47-.38c-1.16,0-2.52.07-4.08.22a10.35,10.35,0,0,0-3,.54,2.14,2.14,0,0,0-1.31,2.18q-.1,3.7-.11,21.8Z"/><path class="cls-1" d="M522.49,42.07V25.28q0-3.6-.22-6.32a9,9,0,0,0-1.14-4.31,5.45,5.45,0,0,0-3.54-1.91,20.18,20.18,0,0,0-4.25-.32c-1.24,0-1.86-.33-1.86-1s.8-1,2.4-1c1.82,0,5.19.07,10.14.21,2.83.08,4.68.11,5.56.11q25.17,0,27.25-.11c2.39-.29,4-.5,4.68-.65a1.6,1.6,0,0,0,.66-.22,4.84,4.84,0,0,1,1.09-.22c.43,0,.65.33.65,1,0,.15,0,.48-.11,1a46.12,46.12,0,0,0-.76,6.1c0,.07,0,.84-.11,2.29-.07,1-.15,2-.22,2.89s-.14,1.58-.22,2c-.14.8-.51,1.2-1.09,1.2s-1-.5-1-1.52a13.1,13.1,0,0,0-.16-2,9.78,9.78,0,0,0-.49-2A5.41,5.41,0,0,0,557.7,18a13.12,13.12,0,0,0-5.23-1.36,21.52,21.52,0,0,0-2.46-.16l-5.17-.17c-3.35-.07-6-.11-7.85-.11-.51,0-.77.37-.77,1.09V44.9c0,.8.26,1.2.77,1.2q4.9,0,10.3-.06c3.6,0,6-.09,7.14-.16q4-.33,5.23-1.63a.35.35,0,0,0,.11-.22c.72-.8,1.27-1.2,1.63-1.2s.77.29.77.87c0,.07,0,.4-.11,1a53.17,53.17,0,0,0-.76,7c-.08.94-.17,2.23-.28,3.87s-.16,2.78-.16,3.43a6.06,6.06,0,0,1-.16,1.53.76.76,0,0,1-.82.54.86.86,0,0,1-1-1,7,7,0,0,0-.11-1,21.08,21.08,0,0,0-.33-2.94,5.06,5.06,0,0,0-1.85-2.84,8.59,8.59,0,0,0-4.25-1.41,23.71,23.71,0,0,0-2.73-.17c-1.38,0-3-.05-4.79-.05-3.49-.07-6.15-.11-8-.11-.44,0-.66.36-.66,1.09v25.5a21.36,21.36,0,0,0,.6,4.75,4.92,4.92,0,0,0,1.86,2.67,8.85,8.85,0,0,0,3.81,1.36,46.2,46.2,0,0,0,6.81.38c2.19,0,4.13-.07,5.84-.22A12.63,12.63,0,0,0,559.55,86a7.46,7.46,0,0,0,3.22-2.83,14.71,14.71,0,0,0,1.69-5.23c.21-1.09.61-1.64,1.2-1.64a.66.66,0,0,1,.7.44,4.79,4.79,0,0,1,.17,1.52c0,.59,0,1.4-.11,2.46s-.2,2.29-.38,3.7-.35,2.62-.49,3.6-.29,1.76-.44,2.34q-.54,2.07-1.53,2.46a15.3,15.3,0,0,1-4.36.38q-6.54,0-11-.11c-3-.08-6.62-.18-10.9-.33q-5.79-.23-8.29-.22c-.58,0-2.29,0-5.12.11q-6.33.23-8.61.22c-1.46,0-2.18-.36-2.18-1.09q0-.87,1.74-.87a18.14,18.14,0,0,0,3.93-.44,2.83,2.83,0,0,0,2.12-1.74,19.51,19.51,0,0,0,1-4.25c.21-2.11.36-4.89.43-8.34s.11-8.41.11-14.88Z"/><path class="cls-1" d="M591.38,42.07V25.28c0-2.4-.08-4.51-.22-6.32A9.22,9.22,0,0,0,590,14.65a5.45,5.45,0,0,0-3.55-1.91,20.11,20.11,0,0,0-4.25-.32c-1.23,0-1.85-.33-1.85-1s.8-1,2.4-1,3,0,4.3,0l6.27.16c2.54.08,4,.11,4.36.11q2,0,8.07-.22,5.78-.11,7.3-.1a56.66,56.66,0,0,1,11.06,1,24.36,24.36,0,0,1,9,3.7A17.79,17.79,0,0,1,638.19,21a17.6,17.6,0,0,1,2.35,9,24.76,24.76,0,0,1-3.22,12.2q-3.21,5.79-11.17,12.21l3.81,4.8q14.28,18,19.84,23.87a28.3,28.3,0,0,0,6.81,5.5,19.64,19.64,0,0,0,5.29,1.91H662a18.1,18.1,0,0,0,3,.33c.87,0,1.31.29,1.31.87,0,.73-.69,1.09-2.07,1.09H653.94a42.92,42.92,0,0,1-7-.44,15,15,0,0,1-4.63-1.63,24.8,24.8,0,0,1-6.54-5.34,129.36,129.36,0,0,1-8.39-10.68q-2.19-3-5.56-7.85l-3.87-5.4c-.55-.76-1-1.36-1.36-1.8a2.48,2.48,0,0,0-2-.76l-9.48-.22a.77.77,0,0,0-.87.87v1.53q0,9.7.11,14.93t.44,8.4a11.44,11.44,0,0,0,1.14,4.19,3.91,3.91,0,0,0,3.11,1.8l2.78.27a23.43,23.43,0,0,0,2.56.17c.87,0,1.3.29,1.3.87,0,.73-.72,1.09-2.17,1.09s-3,0-4.58,0l-8-.17c-1.82-.07-3-.11-3.49-.11s-2.07,0-4.47.11q-5.88.23-8.83.22c-1.45,0-2.18-.36-2.18-1.09,0-.58.59-.87,1.75-.87a18.05,18.05,0,0,0,3.92-.44,2.83,2.83,0,0,0,2.13-1.74,19,19,0,0,0,1-4.25q.33-3.16.44-8.34t.11-14.88Zm12.86,8.61a1.91,1.91,0,0,0,1,2,20.1,20.1,0,0,0,3.87.82,36.79,36.79,0,0,0,4.42.27,21.28,21.28,0,0,0,4.68-.38,9.19,9.19,0,0,0,3-1.47,14.82,14.82,0,0,0,4.64-6.11,25.24,25.24,0,0,0,1.79-10.24,25,25,0,0,0-1.58-9.38A16.91,16.91,0,0,0,622,19.88a15.38,15.38,0,0,0-5.45-3.32,17.19,17.19,0,0,0-5.5-1,24.19,24.19,0,0,0-5.78.43,1.44,1.44,0,0,0-1,1.53Z"/><path class="cls-1" d="M256.21,147.07V130.28q0-3.6-.22-6.32a9,9,0,0,0-1.14-4.31,5.45,5.45,0,0,0-3.54-1.91,20.18,20.18,0,0,0-4.25-.32c-1.24,0-1.86-.33-1.86-1s.8-1,2.4-1q3.71,0,10.25.21c2.68.08,4.43.11,5.23.11.58,0,2.36,0,5.34-.11q6.31-.21,8.39-.21c1.53,0,2.29.32,2.29,1s-.65,1-2,1a21,21,0,0,0-3.16.32,4.19,4.19,0,0,0-3,1.86,10.74,10.74,0,0,0-1,4.36q-.21,2.72-.21,6.32v36.95c0,1.45,0,3.82.11,7.09q.21,5.34.21,8.28a93.21,93.21,0,0,1-.54,10.3,39,39,0,0,1-2.07,9A33.12,33.12,0,0,1,261,212.57a51.82,51.82,0,0,1-12,9.92,58.19,58.19,0,0,1-5.45,2.84,4.28,4.28,0,0,1-2.18.65.77.77,0,0,1-.87-.87,1.06,1.06,0,0,1,.54-.82c.36-.25,1-.63,1.85-1.14A24.16,24.16,0,0,0,248,219a24.84,24.84,0,0,0,4.63-6.65,31.54,31.54,0,0,0,2.45-8.23,77.18,77.18,0,0,0,.93-10.25q.17-5.61.16-15.53Z"/><path class="cls-1" d="M296.87,147.07V130.28c0-2.4-.08-4.51-.22-6.32a9.09,9.09,0,0,0-1.15-4.31,5.4,5.4,0,0,0-3.54-1.91,20.11,20.11,0,0,0-4.25-.32c-1.24,0-1.85-.33-1.85-1s.8-1,2.4-1q3,0,10.13.21c3.13.08,5.05.11,5.78.11s2.69,0,5.45-.11q5.88-.21,8-.21c1.59,0,2.39.32,2.39,1s-.58,1-1.74,1a21,21,0,0,0-3.16.32,4.19,4.19,0,0,0-3,1.86,10.6,10.6,0,0,0-1,4.36q-.23,2.72-.22,6.32v32.05q0,11.22,2.12,17.27a21,21,0,0,0,6.38,9.54,17.13,17.13,0,0,0,6.65,3.6,27.87,27.87,0,0,0,7,.87,23.67,23.67,0,0,0,8-1.42,18.66,18.66,0,0,0,7-4.47,19,19,0,0,0,5.17-10.35,96.58,96.58,0,0,0,1.15-16.68V130.28q0-3.6-.22-6.32a9.22,9.22,0,0,0-1.14-4.31,5.45,5.45,0,0,0-3.55-1.91q-.54-.1-1.74-.21c-.8-.07-1.53-.11-2.18-.11-1.24,0-1.85-.33-1.85-1s.76-1,2.29-1c1.88,0,3.92,0,6.1.1l6.1.22h.33c.29,0,1.35,0,3.16-.11,1.45-.07,3.07-.12,4.85-.16s3.25-.05,4.42-.05c1.52,0,2.29.32,2.29,1s-.66,1-2,1a21,21,0,0,0-3.16.32,4.17,4.17,0,0,0-3,1.86,10.43,10.43,0,0,0-1,4.36q-.22,2.72-.22,6.32v28.45q0,5.34-.38,9.7A56.85,56.85,0,0,1,362,177a30.29,30.29,0,0,1-3.16,8,25,25,0,0,1-5.39,6.54,29.92,29.92,0,0,1-10.85,6.21,41.35,41.35,0,0,1-11.83,1.64c-1.88,0-3.75-.08-5.61-.22a45.05,45.05,0,0,1-6-.93,29.88,29.88,0,0,1-6.54-2.29,23.79,23.79,0,0,1-6.05-4.09,27.43,27.43,0,0,1-7.14-11q-2.56-6.81-2.56-17.93Z"/><path class="cls-1" d="M394.42,147.07V130.28q0-3.6-.22-6.32a9.1,9.1,0,0,0-1.14-4.31,5.45,5.45,0,0,0-3.54-1.91,20.22,20.22,0,0,0-4.26-.32c-1.23,0-1.85-.33-1.85-1s.8-1,2.4-1c1.82,0,5.19.07,10.14.21,2.83.08,4.68.11,5.56.11s2.94,0,5.77-.11q7.74-.21,11-.21,7.08,0,12.26.27a75,75,0,0,1,10.85,1.41,47,47,0,0,1,11,3.71,32.64,32.64,0,0,1,9.59,7,37.51,37.51,0,0,1,7.63,11.77,40.71,40.71,0,0,1,2.94,15.92A43.11,43.11,0,0,1,469.19,173a42.44,42.44,0,0,1-8.5,13,39.56,39.56,0,0,1-5.28,4.36,43.88,43.88,0,0,1-7.63,4.14,52.47,52.47,0,0,1-10.47,3.16,66.48,66.48,0,0,1-13.13,1.2q-2.83,0-5.94-.16t-7.8-.6q-7.08-.56-9.48-.55c-.58,0-2.29,0-5.12.11q-6.33.23-8.61.22c-1.46,0-2.18-.36-2.18-1.09s.58-.87,1.74-.87a18,18,0,0,0,3.92-.44,2.83,2.83,0,0,0,2.13-1.74,19.51,19.51,0,0,0,1-4.25c.21-2.11.36-4.89.43-8.34s.11-8.41.11-14.88Zm13.63,12q0,8.82.05,14.6t.16,7.41c.08,1.89.2,3.62.38,5.18a7.66,7.66,0,0,0,.82,3.11q1.2,1.74,4.8,3a28.4,28.4,0,0,0,9.48,1.31,49.81,49.81,0,0,0,14.33-1.8,28.58,28.58,0,0,0,10.74-6,23.54,23.54,0,0,0,7-11.12,54.24,54.24,0,0,0,2.13-16,39.57,39.57,0,0,0-3.11-16.3,34.1,34.1,0,0,0-7.36-11,38,38,0,0,0-7.63-5.61,37.52,37.52,0,0,0-8.12-3.38A46.55,46.55,0,0,0,424,121a72.9,72.9,0,0,0-7.46-.38c-1.17,0-2.53.07-4.09.22a10.43,10.43,0,0,0-3,.54,2.14,2.14,0,0,0-1.31,2.18q-.11,3.7-.1,21.8Z"/><path class="cls-1" d="M495.35,147.07V130.28q0-3.6-.21-6.32-.33-5.34-3.71-6.11a15.44,15.44,0,0,0-3.92-.43c-1.17,0-1.75-.36-1.75-1.09,0-.58.87-.87,2.62-.87q2.07,0,7.95.21c3.06.08,5.13.11,6.22.11.87,0,2.65,0,5.34-.11q5.67-.21,8-.21t2.28.87c0,.73-.58,1.09-1.74,1.09a21.45,21.45,0,0,0-3.27.32,4.21,4.21,0,0,0-3,1.86,10.6,10.6,0,0,0-1,4.36q-.22,2.72-.22,6.32v36q0,10.14.05,15.42c0,3.53.17,6.34.39,8.45a8.52,8.52,0,0,0,1.19,3.76,4.42,4.42,0,0,0,3.17,1.58l2.72.27a26.55,26.55,0,0,0,2.83.17c1.17,0,1.75.29,1.75.87s-.69,1.09-2.07,1.09q-4.57,0-12-.22c-2.33-.07-4-.11-5-.11-.58,0-2.29,0-5.12.11-4.22.15-7.08.22-8.61.22s-2.18-.36-2.18-1.09.58-.87,1.74-.87a18.14,18.14,0,0,0,3.93-.44q2.61-.54,3.16-5.45c.22-2.11.36-4.92.43-8.45s.11-8.62.11-15.31Z"/><path class="cls-1" d="M561.63,196.55a45,45,0,0,1-16.46-9,36.67,36.67,0,0,1-10.47-14.83,49.83,49.83,0,0,1-3.05-17.33,42.07,42.07,0,0,1,.6-6.81,45,45,0,0,1,2-7.69,39.73,39.73,0,0,1,3.92-8,36,36,0,0,1,6.21-7.36,42.44,42.44,0,0,1,14.5-8.61,59.87,59.87,0,0,1,20-2.94c3.12,0,5.85.09,8.17.27s4.87.46,7.63.82c1.24.15,3.09.47,5.56,1s4.18.73,5.34.87,1.64.51,1.64,1.31c0,.22,0,.65-.11,1.31a43.52,43.52,0,0,0-.44,4.69c-.07,1.3-.11,3.38-.11,6.21-.07,3.05-.14,4.9-.21,5.56-.08,1.67-.51,2.5-1.31,2.5s-1.09-.79-1.09-2.39a16,16,0,0,0-1.2-5.29,15.35,15.35,0,0,0-3.05-4.74q-2.73-2.94-8.78-4.85a44.25,44.25,0,0,0-13.35-1.91A36.74,36.74,0,0,0,565.71,121a24.48,24.48,0,0,0-8.66,5.07,27.65,27.65,0,0,0-7.8,12.21,53.15,53.15,0,0,0-2.23,16,41.64,41.64,0,0,0,3.16,16.62,36.78,36.78,0,0,0,8.29,12.26,36,36,0,0,0,11.17,7.42,30.52,30.52,0,0,0,11.71,2.5,47.63,47.63,0,0,0,12.27-1.25A15.55,15.55,0,0,0,601.3,187a17.3,17.3,0,0,0,3.71-7.19,5.32,5.32,0,0,1,.49-1.75,1,1,0,0,1,.92-.43c.66,0,1,.54,1,1.63,0,.37-.08,1.16-.22,2.4s-.33,2.56-.55,4-.47,2.89-.76,4.41a36.13,36.13,0,0,1-.87,3.71,6,6,0,0,1-.93,2,4.61,4.61,0,0,1-1.91,1.15,37.42,37.42,0,0,1-8.61,1.85,91.42,91.42,0,0,1-11,.66A71.39,71.39,0,0,1,561.63,196.55Z"/><path class="cls-1" d="M630.73,147.07V130.28q0-3.6-.22-6.32-.33-5.34-3.7-6.11a15.47,15.47,0,0,0-3.93-.43c-1.16,0-1.74-.36-1.74-1.09q0-.87,2.61-.87c1.38,0,4,.07,8,.21,3,.08,5.12.11,6.21.11.88,0,2.66,0,5.34-.11,3.78-.14,6.44-.21,8-.21s2.29.29,2.29.87c0,.73-.58,1.09-1.74,1.09a21.22,21.22,0,0,0-3.27.32,4.17,4.17,0,0,0-3,1.86,10.58,10.58,0,0,0-1,4.36q-.21,2.72-.21,6.32v36q0,10.14,0,15.42c0,3.53.16,6.34.38,8.45a8.64,8.64,0,0,0,1.2,3.76,4.39,4.39,0,0,0,3.16,1.58l2.73.27a26.4,26.4,0,0,0,2.83.17q1.74,0,1.74.87c0,.73-.69,1.09-2.07,1.09q-4.57,0-12-.22c-2.32-.07-4-.11-5-.11-.58,0-2.29,0-5.12.11q-6.33.23-8.61.22c-1.46,0-2.18-.36-2.18-1.09s.58-.87,1.74-.87a18,18,0,0,0,3.92-.44q2.63-.54,3.16-5.45c.22-2.11.37-4.92.44-8.45s.11-8.62.11-15.31Z"/><path class="cls-1" d="M684.36,169.41c-.44,0-.77.29-1,.87l-5.89,15.59a18.57,18.57,0,0,0-1.63,6.65,3.18,3.18,0,0,0,1,2.51,5.1,5.1,0,0,0,3.38.87h1.63c1.09,0,1.64.29,1.64.87s-.62,1.09-1.86,1.09-3.34,0-5.88-.11c-2.84-.15-4.73-.22-5.67-.22-.22,0-1,0-2.4.11-1.09,0-2.63,0-4.63.11s-3.94.11-5.83.11c-1.38,0-2.07-.36-2.07-1.09s.43-.87,1.3-.87a26.37,26.37,0,0,0,3.38-.22,8.11,8.11,0,0,0,5.45-2.78,26,26,0,0,0,3.82-7l27.36-68.45a18.5,18.5,0,0,1,1.63-3.44,1.82,1.82,0,0,1,1.42-.92q1.2,0,2.72,3.49.76,1.64,3.27,8T712,141l10.41,25.89,2.89,7.19q1.86,4.64,3.92,9.54,2.73,6.54,5,8.94a9.53,9.53,0,0,0,4.58,2.94,23.34,23.34,0,0,0,4.58.44q1.41,0,1.41.87c0,.44-.32.73-1,.87a22.62,22.62,0,0,1-4,.22H730.3q-4.63,0-11.06-.22h-.44c-1.89-.14-2.83-.43-2.83-.87s.5-.91,1.52-1a1.52,1.52,0,0,0,1.2-1.64,1.87,1.87,0,0,0-.22-.87l-8.72-23.11a1.12,1.12,0,0,0-1.09-.76ZM706.59,164c.37,0,.55-.22.55-.65l-9.81-26.93v-.11c-.15-.58-.33-.87-.55-.87s-.51.33-.65,1l-10,26.82c0,.51.15.76.44.76Z"/><path class="cls-1" d="M769.92,166.25q0,12.31.38,17.22c.26,3.27.89,5.34,1.91,6.21a9.15,9.15,0,0,0,4.31,1.86,51.67,51.67,0,0,0,8.88.54,45.89,45.89,0,0,0,8.07-.54,8.43,8.43,0,0,0,4.68-2.51,11.68,11.68,0,0,0,1.86-3,10.41,10.41,0,0,0,1-3.54c.14-1.09.54-1.63,1.2-1.63s.87.61.87,1.85c0,.36,0,1-.11,1.91s-.2,2.12-.38,3.65-.37,2.89-.55,4.08a21,21,0,0,1-.6,2.89,3.63,3.63,0,0,1-1.63,2.4c-.73.36-2.47.55-5.23.55-3.93,0-7.34,0-10.25-.11s-6.32-.18-10.25-.33q-7.3-.23-11.22-.22c-.58,0-2.29,0-5.13.11q-6.32.23-8.61.22c-1.45,0-2.18-.36-2.18-1.09s.58-.87,1.75-.87a18.12,18.12,0,0,0,3.92-.44,2.83,2.83,0,0,0,2.13-1.74,19,19,0,0,0,1-4.25c.22-2.11.36-4.89.44-8.34s.11-8.41.11-14.88v-36c0-2.4-.08-4.51-.22-6.32a9.09,9.09,0,0,0-1.15-4.31,5.4,5.4,0,0,0-3.54-1.91,16,16,0,0,0-3.59-.32c-1.24,0-1.86-.33-1.86-1s.8-1,2.4-1,4.87.07,9.37.21c3.06.08,4.91.11,5.56.11s2.51,0,5.78-.11q7-.21,9.05-.21c1.52,0,2.29.32,2.29,1s-.66,1-2,1a26.9,26.9,0,0,0-4.25.32,4.17,4.17,0,0,0-3,1.86,10.43,10.43,0,0,0-1,4.36q-.23,2.72-.22,6.32v36Z"/><path class="cls-1" d="M102,100.47l-6.86.18a16,16,0,0,0-3,.35,2.48,2.48,0,0,0-1.45,1,5.69,5.69,0,0,0-.78,1.61c-.09.37-.26.55-.51.55s-.41-.24-.41-.74a9.37,9.37,0,0,1,.11-1q.12-.74.33-1.8c.13-.7.26-1.29.36-1.77s.16-.72.16-.76c.13-.58.31-.87.56-.87a1.84,1.84,0,0,1,.5.14,4,4,0,0,0,1.48.41c.64.06,1.38.12,2.2.16s1.63.07,2.4.07h18.21a19.91,19.91,0,0,0,2.3-.11c.58-.08,1.14-.16,1.66-.26a2.74,2.74,0,0,1,.46-.09c.24,0,.37.32.37,1,0,.27,0,1.07,0,2.39q-.09,2.25-.09,2.94c-.06.5-.2.74-.42.74s-.47-.3-.5-.92l0-.51a2.35,2.35,0,0,0-1.36-1.79,8.75,8.75,0,0,0-4.07-.78l-5.79-.14v18.86q0,4.1,0,6.28c0,1.46.09,2.65.19,3.57a4.79,4.79,0,0,0,.48,1.72,1.66,1.66,0,0,0,1.31.76l1.15.11a10.37,10.37,0,0,0,1.2.07c.49,0,.73.13.73.37s-.29.46-.87.46q-1.89,0-5-.09l-2.21-.05-2.17.05q-2.66.09-3.63.09c-.61,0-.92-.15-.92-.46s.25-.37.74-.37a7.72,7.72,0,0,0,1.65-.18,1.25,1.25,0,0,0,.92-.76,6.38,6.38,0,0,0,.42-1.77c.09-.89.15-2.06.18-3.52s0-3.55,0-6.28Z"/><path class="cls-1" d="M124.31,102.4a7.43,7.43,0,0,0-1.45-2.46,4.87,4.87,0,0,0-2-1,3.22,3.22,0,0,0-.9-.16c-.29,0-.59,0-.89,0s-.55-.14-.55-.41.09-.26.29-.32a3.28,3.28,0,0,1,.9-.1c.89,0,2.22,0,4,.1,1.26,0,2.15,0,2.67,0,.34,0,1,0,1.89,0,1.53-.06,2.79-.1,3.77-.1a2.64,2.64,0,0,1,.76.1c.2.06.3.17.3.32s-.23.41-.69.41a3.24,3.24,0,0,0-1.8.33,1.1,1.1,0,0,0-.46,1,13.18,13.18,0,0,0,1.06,3.54l7.91,20.89h.19q.78-2,3.54-8.93.6-1.47,1.95-4.85c.91-2.25,1.48-3.69,1.73-4.32s.57-1.47,1-2.51l.88-2.3a5.11,5.11,0,0,0,.41-1.7.83.83,0,0,0-.6-.88,6.07,6.07,0,0,0-1.84-.23c-.52,0-.78-.12-.78-.37s.43-.46,1.29-.46c1,0,2.32,0,3.82.1.49,0,.83,0,1,0l1.61,0c1.35-.06,2.25-.1,2.71-.1.65,0,1,.14,1,.42s-.25.41-.74.41a7.24,7.24,0,0,0-1.15.09,3.12,3.12,0,0,0-1.1.46,4.7,4.7,0,0,0-1.08,1.25,20.85,20.85,0,0,0-1.45,2.89l-1.4,3.27c-.48,1.1-1,2.27-1.54,3.5-1,2.11-1.84,4-2.58,5.7q-2.07,4.7-4.28,9.84l-1.84,4.19-.27.55a22.94,22.94,0,0,1-1.11,2.33.89.89,0,0,1-.73.52.85.85,0,0,1-.72-.52c-.2-.36-.54-1.12-1-2.28Z"/><path class="cls-1" d="M176.13,174.38c.75-7,1.54-14.2,2.29-21.44q4-38.52,8-77c.21-2,.32-4.71,1.54-5.57,2.17-1.53,5.14-2.13,7.86-2.49.37,0,1.92,3.53,1.75,5.33-1.48,15.58-3.24,31.13-4.89,46.7q-3,28.83-6,57.66c-.71,6.81-3.72,8.72-10.52,7.34-15.94-3.26-31.84-7-47.93-9.19-23.87-3.32-47.89-5.56-71.84-8.22-2.75-.31-6.3-.67-5.51-4,.51-2.13,4.09-5.15,6.13-5,14.28.85,28.54,2.33,42.78,3.78,5.79.59,11.56,1.44,17.29,2.43,19.14,3.33,38.25,6.79,57.38,10.17C174.75,174.87,175.09,174.66,176.13,174.38Z"/><path class="cls-1" d="M18.61,167.07c12.36,1.6,24.74,3,37.06,4.85,19.21,2.89,38.47,5.6,57.52,9.32,16.76,3.27,33.27,7.79,49.87,11.83,2.82.69,5.91,1.74,4.5,5.64-1.29,3.57-4,5-7.95,4-13.05-3.26-26.05-6.8-39.22-9.45q-25.89-5.19-52-9.13c-17.23-2.63-34.58-4.57-51.87-6.85-3.14-.41-6.23-1.28-5.81-5.32C11.18,167.18,14.94,167.17,18.61,167.07Z"/><path class="cls-1" d="M159.9,5.62c-3.88,1.26-8,2-11.59,3.86C123.93,22,99.68,34.8,75.38,47.5A2.32,2.32,0,0,0,74,49l28.13-2.74c9.92-1,19.83-2.14,29.77-2.79,3.76-.24,7.27,1.34,10.05,5.08a22.87,22.87,0,0,1-3.78,1.07c-25.69,2.19-51.37,4.3-77.05,6.53-4.84.42-9.19-.22-13.85-4.29,5.59-3,10.62-5.64,15.67-8.29q40.85-21.4,81.7-42.82c4-2.11,12.71.72,15.1,5.08Z"/><path class="cls-1" d="M230.33,51.6c-3.15,4.88-6.54,6.56-11.11,6.66-25.15.55-50.31,1-75.44,2-24.62,1-49.22,2.5-73.81,4-7.78.47-15.53,1.6-23.9,2.5.85-5.1,5-6.36,8.61-7.14A110.45,110.45,0,0,1,72,57.39c30.92-1.65,61.85-3.27,92.78-4.58,19.81-.84,39.63-1.12,59.45-1.61C226,51.16,227.71,51.42,230.33,51.6Z"/><path class="cls-1" d="M157.41,164.68c3-24.59,5.77-47.53,8.55-70.46.84-6.94,1.47-13.9,2.63-20.78A13.24,13.24,0,0,1,172,66.57c1.18-1.18,4.16-1.54,5.8-.9,1.11.44,2,3.33,1.79,5-2.53,21.12-5.3,42.22-7.93,63.33-1.08,8.58-2,17.18-3,25.77-.24,1.95-.28,4.43-1.46,5.66-1.65,1.72-4.29,3.34-6.49,3.33C159.35,168.73,158,165.53,157.41,164.68Z"/><path class="cls-1" d="M65.32,151.59c-5.28-.06-6.83-1.86-5.82-5.87,6-23.87,12-47.76,18.25-71.57.56-2.09,2.81-4.73,4.78-5.27,5.24-1.44,7.47,1.18,6.14,6.46Q79.86,110.17,71,145C70.09,148.43,69.22,152.08,65.32,151.59Z"/><path class="cls-1" d="M44,153c1.66-6.81,3-12.29,4.34-17.76q7.06-28,14.18-56a2.51,2.51,0,0,1,.12-.49c1.35-2.6.39-7.51,5.72-6.18,4.21,1,5.89,4.72,4.72,9.32-2,7.74-3.88,15.48-5.85,23.21q-6.15,24.16-12.33,48.31c-.64,2.48-1.49,5.5-4.73,4.32C47.69,156.75,45.76,154.37,44,153Z"/><path class="cls-1" d="M0,180.74c15.76-5.84,189.76,32.88,216.09,48.53-1.85-.19-3.81,0-5.52-.62-13.51-4.58-26.83-9.74-40.47-13.86-11.88-3.59-24.07-6.2-36.2-8.95q-20.39-4.62-40.9-8.66-20.76-4.05-41.66-7.45C36.6,187.37,21.77,185.48,7,183.25,4.94,182.94,3,181.84,0,180.74Z"/><path class="cls-1" d="M159.9,5.62l-.18.17c1.42,0,3-.34,4.21.2,15,6.93,30,14,45,21,2.28,1.07,4.66,1.9,7,2.84-.1.46-.2.93-.29,1.39-1.16,0-2.49.38-3.45-.06Q187.08,19.75,162.06,8.09C161.15,7.67,160.61,6.46,159.9,5.62Z"/></g></g></svg>