<svg xmlns="http://www.w3.org/2000/svg" viewBox="0 0 767.96 303.35"><defs><style>.cls-1{fill:red;}</style></defs><title>Logotipo_NTV(Chile)</title><g id="Capa_2" data-name="Capa 2"><g id="Layer_1" data-name="Layer 1"><path class="cls-1" d="M298.86,247.41a3.58,3.58,0,0,1,.11-.35q-10.16-6.33-10.15-24.79V117a172.79,172.79,0,0,0-5.88-45.56Q277,49.88,264.37,34.17T231.57,9.23Q211.46,0,183,0q-20.41,0-35.89,4.93a94.65,94.65,0,0,0-26.62,12.93,71.52,71.52,0,0,0-18,18.16A88.67,88.67,0,0,0,92,57.26V45.56Q90.16,24,75,12.62T38.15,1.23q-18,0-23.83,4a18.92,18.92,0,0,0-1.85,1.46A27.54,27.54,0,0,0,0,29.5,27.5,27.5,0,0,0,10.61,50.83a4.3,4.3,0,0,0,.62.59,24,24,0,0,0,5.88,3.39c.27.06.52.14.78.21a28.92,28.92,0,0,0,3,1q12.9,5.3,12.9,25.29V191.23l-.34,0v77.43C33.48,287.09,49,302,67,302s33.51-15.39,33.51-33.34v-2.2h.15V131.14a89.16,89.16,0,0,1,3.72-24.63,85.24,85.24,0,0,1,11.14-24A59,59,0,0,1,135,64.33q12.08-7.08,28.78-7.08,29.72,0,43.64,17.55t13.93,45.87V231.51q0,36.94,16.4,54.18,16.19,17,45.4,17.23l.3-.33A30.6,30.6,0,0,0,311.88,279c2.68-12.19-3-24.77-13-31.54"/><path class="cls-1" d="M589.93,33.23A30.81,30.81,0,0,1,559.11,64H464.32V271.71a31.39,31.39,0,0,1-62.77,0V64H324.71a30.82,30.82,0,1,1,0-61.63H559.11a30.8,30.8,0,0,1,30.82,30.82"/><path class="cls-1" d="M765.39,46.15q-33,90.59-66.29,181c-6.37,17.37-12.65,34.76-19.16,52.08-5.75,15.34-16.56,23.78-30.25,24.06h-1.24c-13.69-.27-24.49-8.72-30.25-24.06-6.5-17.32-12.78-34.71-19.15-52.08-22.12-60.34-44.29-117-66.29-177.43-7.71-21.14,2.47-40,23.25-43.85,15.21-2.82,29.15,5.66,35.22,22,15.7,42.33,31.17,81.11,46.75,123.48,3.4,9.23,6.87,18.44,11.08,29.71,4.21-11.27,7.69-20.48,11.08-29.71q23.37-63.55,46.75-127.1C713,8,726.9-.52,742.11,2.3c20.81,3.85,31,22.71,23.28,43.85"/></g></g></svg>