<svg xmlns="http://www.w3.org/2000/svg" viewBox="0 0 589.97 562.66"><title>Logo_LARED_AINMcl</title><g id="AINMcl" data-name="Capa 2"><g id="Capa_1-2" data-name="Capa 1"><rect width="589.97" height="562.66" style="fill:#fff"/><rect x="126.4" y="197.84" width="116.44" height="110.82" rx="53.15" style="fill:#2cbec3"/><rect x="346.58" y="198.88" width="168.96" height="170.92" rx="76.64" style="fill:#2cbec3"/><path d="M308.77,525.7h0C173.7,525.7,64.21,416.2,64.21,281.13h0c0-135.06,109.49-244.56,244.56-244.56h0c135.07,0,244.56,109.5,244.56,244.56h0C553.33,416.2,443.84,525.7,308.77,525.7ZM590,281.33h0C590,126,464,0,308.64,0h0C153.27,0,27.31,126,27.31,281.33h0c0,155.37,126,281.33,281.33,281.33h0C464,562.66,590,436.7,590,281.33Z" style="fill:#2cbec3"/><path d="M179.2,230.77h1.53a21.37,21.37,0,0,1,21.37,21.37v4.23a21.37,21.37,0,0,1-21.37,21.37H179.2a21.38,21.38,0,0,1-21.38-21.38v-4.23A21.37,21.37,0,0,1,179.2,230.77Z" style="fill:#fff"/><rect x="152.12" y="230.77" width="27.84" height="46.98" style="fill:#fff"/><rect x="110.01" y="197.84" width="42.11" height="171.93" style="fill:#2cbec3"/><rect x="146.29" y="197.84" width="42.47" height="13.36" style="fill:#2cbec3"/><rect x="148.14" y="299.15" width="35" height="9.51" style="fill:#2cbec3"/><polygon points="204.09 369.79 249.27 369.81 213.47 299.55 171.46 303.41 204.09 369.79" style="fill:#2cbec3"/><rect x="381" y="230.87" width="93.08" height="106.71" rx="36.86" style="fill:#fff"/><rect x="381" y="198.88" width="42.11" height="170.92" style="fill:#2cbec3"/><rect x="330.19" y="189.3" width="50.82" height="184.18" style="fill:#fff"/><rect x="252.08" y="198.8" width="118" height="41" style="fill:#2cbec3"/><rect x="252.08" y="265.88" width="118" height="31.9" style="fill:#2cbec3"/><rect x="252.08" y="328.3" width="118" height="41.51" style="fill:#2cbec3"/><polygon points="39.56 198.98 78.35 198.98 137.21 107.91 124.72 68.44 0 68.44 0 197.84 39.56 198.98" style="fill:#fff"/><polygon points="0 82.8 0.03 181.8 83.06 181.83 96.43 128.82 110.06 181.83 142.08 181.79 111.08 82.8 82.13 82.8 60.05 156.84 29.07 156.82 29.08 82.8 0 82.8" style="fill:#2cbec3"/></g></g></svg>