<svg xmlns="http://www.w3.org/2000/svg" xmlns:xlink="http://www.w3.org/1999/xlink" viewBox="0 0 422.7 80.06"><defs><style>.cls-1{fill:none;}.cls-2{clip-path:url(#clip-path);}.cls-3,.cls-4{fill:#f81d28;}.cls-3{fill-rule:evenodd;}</style><clipPath id="clip-path"><rect class="cls-1" x="149.84" y="1.03" width="272.86" height="78"/></clipPath></defs><title>Logo_CANAL24H</title><g id="Capa_2" data-name="Capa 2"><g id="Capa_1-2" data-name="Capa 1"><g class="cls-2"><path class="cls-3" d="M288.06,30.27H294c3.08,0,5.36,1.39,5.36,4.36s-2.18,4.66-5.46,4.66h-6Zm-43.76-.5c5.48,0,9.92,4.75,9.92,10.61S249.78,51,244.3,51s-9.92-4.74-9.92-10.6S238.82,29.77,244.3,29.77Zm96.44-.59c.2,0,.3.2.4.59L345,43.85h-8.63l3.87-14.08C340.35,29.38,340.55,29.18,340.74,29.18Zm-63.8-9V60.4h10.92l.1-11.3h2c3.57,0,5.16,1,6.55,3.77l3.77,7.63v.1h12.11l-4.17-8.53c-1.79-3.66-3.18-6-5.16-7.33,4.76-1.49,7.74-5.85,7.74-11.2,0-8.92-7.34-13.38-16.87-13.38Zm-103.19,0V60.5h11V45.43h15.87V60.5h11V20.16h-11V35.32H184.77V20.16Zm70.55-.79a21,21,0,1,0,21.33,21A21.17,21.17,0,0,0,244.3,19.37Zm140.7-.1c-8.93,0-15.58,5.65-15.58,13.08,0,9.62,8.83,12,14.88,12.89,3.67.49,6.05.89,6.05,3.27,0,1.88-2.18,2.77-5.16,2.77-3.76,0-6.05-1.09-7.14-3.57l-9.23,4.56c2.78,5.95,8.74,9.12,16.37,9.12,8.94,0,16.18-5.65,16.18-13.08,0-9.71-8.43-12-14.39-12.89-3.87-.59-6.55-1.28-6.55-3.56,0-1.69,1.39-2.48,4.07-2.48,3.77,0,5.95,1.58,7.05,3.57l9.22-4.56C398,22.44,392,19.27,385,19.27Zm-44.46,0a10,10,0,0,0-9.82,7.33L320.3,60.5h11.31l1.89-6.84h14.19l1.88,6.84h11.22L350.37,26.6A10,10,0,0,0,340.54,19.27ZM169.68,1H402.86A19.83,19.83,0,0,1,422.7,20.85V59.21A19.83,19.83,0,0,1,402.86,79H169.68a19.83,19.83,0,0,1-19.84-19.82V20.85A19.83,19.83,0,0,1,169.68,1Z"/></g><path class="cls-4" d="M111,.46a7.33,7.33,0,0,0-8.2,2.2l-41,49.1a7.55,7.55,0,0,0-1,7.9,7.38,7.38,0,0,0,6.7,4.3l33.6.1v8.6a7.4,7.4,0,0,0,14.8,0V64h4.6a7.4,7.4,0,1,0,0-14.8h-4.7V7.36A7.08,7.08,0,0,0,111,.46Zm-9.9,48.7H83.29l17.8-21.4Z"/><path class="cls-4" d="M2.59,66.56a7.29,7.29,0,0,0-2.1,8.2,7.35,7.35,0,0,0,6.9,4.8h0l44.4-.2a7.4,7.4,0,0,0,0-14.8h0l-24.3.1c7.4-6.4,15.3-13.4,18.1-16.2C54.79,39,56,30.86,56,25a25.17,25.17,0,0,0-5.2-14.4c-3.2-4.2-9.3-9.3-19.7-9.7-20.7-.8-27.6,14.7-27.9,15.3h0a7.17,7.17,0,0,0-.6,2.9,7.38,7.38,0,0,0,7.4,7.4,7.56,7.56,0,0,0,6.9-4.6c.8-1.4,4.4-6.6,13.6-6.3,10.1.4,10.7,9.3,10.7,9.4,0,3.3-.5,7.3-6.3,13.2C30.59,42.56,10.09,60.16,2.59,66.56Z"/></g></g></svg>