<svg xmlns="http://www.w3.org/2000/svg" viewBox="0 0 1745.48 241.68"><defs><style>.cls-1{fill:#562674;}.cls-2{fill:#71154c;}.cls-3{fill:#066938;}.cls-4{fill:#452776;}.cls-5{fill:#9b1560;}.cls-6{fill:#009841;}.cls-7{fill:#24387d;}.cls-8{fill:#5c8ecb;}.cls-9{fill:#43ad4c;}.cls-10{fill:#181b2e;}.cls-11{fill:#f6db3f;}.cls-12{fill:#d31a16;}.cls-13{fill:#f39020;}.cls-14{fill:#b6191b;}.cls-15{fill:#f2a122;}.cls-16{fill:#ef7d12;}.cls-17{fill:#ea5a25;}.cls-18{fill:#881819;}.cls-19{fill:#f1d40b;}.cls-20{fill:#020203;}</style></defs><title>Logo_Convencion_Constitucional_Señal_6</title><g id="Capa_2" data-name="Capa 2"><g id="Capa_1-2" data-name="Capa 1"><path d="M1668.84,241.68q-18.83,0-33.44-7.39a71.35,71.35,0,0,1-24.54-20.17,93.62,93.62,0,0,1-15.13-28.74,104.78,104.78,0,0,1-5.21-32.77,173.58,173.58,0,0,1,3-30.09,191.38,191.38,0,0,1,10.08-35.29,168.28,168.28,0,0,1,18.66-35.13,139.73,139.73,0,0,1,28.9-30.42Q1668.5,8.06,1692.37,1a22.32,22.32,0,0,1,6.39-1,20.81,20.81,0,0,1,11.93,3.53q5.2,3.53,5.21,12.6a15.42,15.42,0,0,1-4,10.59,22.78,22.78,0,0,1-10.76,6.56,101.76,101.76,0,0,0-24.2,12.1,128.75,128.75,0,0,0-22.52,19.16,115.54,115.54,0,0,0-28.24,53.11l-8.4,1.34A78.7,78.7,0,0,1,1630.69,104a70.58,70.58,0,0,1,18.65-12.11,59,59,0,0,1,24.54-4.87,61.41,61.41,0,0,1,26.56,6,77.45,77.45,0,0,1,23,16.81,80.73,80.73,0,0,1,16.14,24.87,77,77,0,0,1,5.88,29.92,75.32,75.32,0,0,1-10.25,38.49,78,78,0,0,1-27.56,28.06A73.83,73.83,0,0,1,1668.84,241.68Zm-.34-31.26a41.61,41.61,0,0,0,37.65-22.18,48.13,48.13,0,0,0,5.72-23.53,50.62,50.62,0,0,0-5.38-23.53,44.23,44.23,0,0,0-15-16.81,39.42,39.42,0,0,0-22.35-6.39,42.52,42.52,0,0,0-23.2,6.39,45.17,45.17,0,0,0-15.8,17,49.08,49.08,0,0,0-5.71,23.69,47,47,0,0,0,5.71,22.69,42.21,42.21,0,0,0,38.32,22.69Z"/><path class="cls-1" d="M39.77,162.14a9.72,9.72,0,0,1-5.1-1.5,9.34,9.34,0,0,1-2.7-12.9,295.88,295.88,0,0,1,24.9-32.9,9.32,9.32,0,0,1,13.1-.9,9.44,9.44,0,0,1,.9,13.2,268.51,268.51,0,0,0-23.4,30.8A9,9,0,0,1,39.77,162.14Z"/><path class="cls-2" d="M105.67,90.84a9.15,9.15,0,0,1-7.5-3.8,9.27,9.27,0,0,1,1.9-13,280.88,280.88,0,0,1,34.8-22.2,9.3,9.3,0,0,1,12.6,3.8,9.41,9.41,0,0,1-3.8,12.7,263.41,263.41,0,0,0-32.5,20.8A9.67,9.67,0,0,1,105.67,90.84Z"/><path class="cls-3" d="M197.77,45.14a9.28,9.28,0,0,1-9-6.9,9.44,9.44,0,0,1,6.6-11.5,293,293,0,0,1,40.5-8,9.41,9.41,0,0,1,10.4,8.1,9.28,9.28,0,0,1-8.1,10.4,270,270,0,0,0-37.9,7.4A5.87,5.87,0,0,1,197.77,45.14Z"/><path class="cls-4" d="M9.37,225.34a10.47,10.47,0,0,1-3-.5A9.37,9.37,0,0,1,.47,213c1.7-5.2,3.7-10.6,5.8-15.7a9.38,9.38,0,0,1,17.4,7c-1.9,4.8-3.8,9.8-5.4,14.7A9.67,9.67,0,0,1,9.37,225.34Z"/><path class="cls-5" d="M107.47,157.74a9.72,9.72,0,0,1-6.4-2.5,9.33,9.33,0,0,1-.4-13.2,239.54,239.54,0,0,1,33-29.1,9.3,9.3,0,0,1,11,15,215.92,215.92,0,0,0-30.4,26.9A8.86,8.86,0,0,1,107.47,157.74Z"/><path class="cls-6" d="M194.07,100a9.36,9.36,0,0,1-8.7-6.1,9.51,9.51,0,0,1,5.6-12,241.63,241.63,0,0,1,42.5-11.1,9.23,9.23,0,0,1,10.7,7.7,9.38,9.38,0,0,1-7.7,10.8,221.54,221.54,0,0,0-39.2,10.2A12.48,12.48,0,0,1,194.07,100Z"/><path class="cls-7" d="M63.47,225.34a11.49,11.49,0,0,1-3.6-.7,9.38,9.38,0,0,1-5-12.2,247.82,247.82,0,0,1,12.2-24.8,9.34,9.34,0,1,1,16.2,9.3A202.85,202.85,0,0,0,72,219.84,9.09,9.09,0,0,1,63.47,225.34Z"/><path class="cls-8" d="M120,225.34a9.57,9.57,0,0,1-4.6-1.2,9.42,9.42,0,0,1-3.4-12.8,191.17,191.17,0,0,1,29-38,9.33,9.33,0,0,1,13.3,13.1,169.55,169.55,0,0,0-26.1,34.1A9.52,9.52,0,0,1,120,225.34Z"/><path class="cls-9" d="M199.67,152.14a9.37,9.37,0,0,1-3.9-17.9,187.24,187.24,0,0,1,45.8-13.6,9.37,9.37,0,0,1,3,18.5,168.46,168.46,0,0,0-41.2,12.2A9.46,9.46,0,0,1,199.67,152.14Z"/><circle class="cls-10" cx="272.07" cy="129.04" r="9.4"/><circle class="cls-10" cx="171.47" cy="161.64" r="9.4"/><path class="cls-11" d="M424.17,225.34a9.19,9.19,0,0,1-8-4.6,166,166,0,0,0-26.1-34.1,9.33,9.33,0,1,1,13.3-13.1,184.75,184.75,0,0,1,29,38,9.54,9.54,0,0,1-3.4,12.8A14.22,14.22,0,0,1,424.17,225.34Z"/><path class="cls-12" d="M344.57,152.14a10.8,10.8,0,0,1-3.8-.8,167.17,167.17,0,0,0-41.2-12.2,9.23,9.23,0,0,1-7.7-10.7,9.37,9.37,0,0,1,10.7-7.8,185.48,185.48,0,0,1,45.8,13.6,9.37,9.37,0,0,1-3.8,17.9Z"/><circle class="cls-10" cx="372.67" cy="161.64" r="9.4"/><circle class="cls-10" cx="89.77" cy="169.24" r="9.4"/><circle class="cls-10" cx="165.67" cy="103.04" r="9.4"/><circle class="cls-10" cx="272.07" cy="76.24" r="9.4"/><path class="cls-13" d="M436.57,157.74a9.55,9.55,0,0,1-6.8-2.9,221.65,221.65,0,0,0-30.4-26.9,9.3,9.3,0,1,1,11-15,253.58,253.58,0,0,1,33,29.1,9.42,9.42,0,0,1-.4,13.2A8.66,8.66,0,0,1,436.57,157.74Z"/><path class="cls-14" d="M350.17,100a11.15,11.15,0,0,1-3.1-.5,221.54,221.54,0,0,0-39.2-10.2,9.4,9.4,0,0,1-7.7-10.8,9.16,9.16,0,0,1,10.7-7.7,239.37,239.37,0,0,1,42.5,11.1,9.43,9.43,0,0,1,5.6,12A9.7,9.7,0,0,1,350.17,100Z"/><path class="cls-15" d="M480.67,225.34a9.21,9.21,0,0,1-8.6-5.7,221.06,221.06,0,0,0-11.3-22.9,9.48,9.48,0,0,1,3.5-12.8,9.34,9.34,0,0,1,12.7,3.5,237.31,237.31,0,0,1,12.2,24.8,9.29,9.29,0,0,1-5,12.2A6.32,6.32,0,0,1,480.67,225.34Z"/><circle class="cls-10" cx="454.37" cy="169.24" r="9.4"/><circle class="cls-10" cx="378.47" cy="103.04" r="9.4"/><circle class="cls-10" cx="24.47" cy="178.04" r="9.4"/><circle class="cls-10" cx="82.77" cy="101.04" r="9.4"/><circle class="cls-10" cx="168.17" cy="45.94" r="9.4"/><circle class="cls-10" cx="272.07" cy="25.74" r="9.4"/><path class="cls-16" d="M504.37,162.14a9.3,9.3,0,0,1-7.8-4.2,260.07,260.07,0,0,0-23.4-30.8,9.35,9.35,0,0,1,.9-13.2,9.14,9.14,0,0,1,13.1.9,273.25,273.25,0,0,1,24.9,32.9,9.34,9.34,0,0,1-2.7,12.9A8.18,8.18,0,0,1,504.37,162.14Z"/><path class="cls-17" d="M438.37,90.84a10,10,0,0,1-5.6-1.8,271.13,271.13,0,0,0-32.5-20.8,9.35,9.35,0,0,1,8.8-16.5,293.05,293.05,0,0,1,34.8,22.2,9.28,9.28,0,0,1,1.9,13A8.69,8.69,0,0,1,438.37,90.84Z"/><path class="cls-18" d="M346.37,45.14a9.28,9.28,0,0,1-2.4-.3,270,270,0,0,0-37.9-7.4,9.32,9.32,0,0,1,2.3-18.5,293,293,0,0,1,40.5,8,9.39,9.39,0,0,1,6.6,11.5A9.67,9.67,0,0,1,346.37,45.14Z"/><path class="cls-19" d="M534.87,225.34a9.18,9.18,0,0,1-8.8-6.4c-1.7-4.9-3.5-9.9-5.4-14.7a9.38,9.38,0,0,1,17.4-7c2.1,5.2,4,10.4,5.8,15.7a9.29,9.29,0,0,1-5.9,11.8A7.12,7.12,0,0,1,534.87,225.34Z"/><circle class="cls-10" cx="519.67" cy="178.04" r="9.4"/><circle class="cls-10" cx="461.37" cy="101.04" r="9.4" transform="translate(281.81 537.88) rotate(-80.01)"/><circle class="cls-10" cx="375.97" cy="45.94" r="9.4"/><path class="cls-20" d="M607.65,117.59a50.16,50.16,0,0,0,16.28,10.79,50.71,50.71,0,0,0,19.87,3.77,62.77,62.77,0,0,0,11.14-1.2,52.47,52.47,0,0,0,10.45-3.25,83.8,83.8,0,0,0,8.74-4.46,3.47,3.47,0,0,0,1.89-2.91,5,5,0,0,0-.86-3.43,5.73,5.73,0,0,0-2.91-1.71,4.63,4.63,0,0,0-3.09.51,53.93,53.93,0,0,1-12,5.48,45,45,0,0,1-29.82-1A43.48,43.48,0,0,1,614,111.25a42.45,42.45,0,0,1-9.08-13.88,51.07,51.07,0,0,1-3.09-18.16,48.19,48.19,0,0,1,3.09-17.65,40.2,40.2,0,0,1,8.91-13.88,37.72,37.72,0,0,1,13.36-9.08,44.07,44.07,0,0,1,16.62-3.09,45.8,45.8,0,0,1,13.71,2.06,47,47,0,0,1,11.82,5.65,6.48,6.48,0,0,0,3.09.52A3,3,0,0,0,675,42.2a4.94,4.94,0,0,0,1-3.6A4.49,4.49,0,0,0,674,35.68a44.86,44.86,0,0,0-13.88-6.51A50.34,50.34,0,0,0,644,26.77a49.11,49.11,0,0,0-20,3.95,50.93,50.93,0,0,0-16.28,11.13A52.46,52.46,0,0,0,592.4,79.38,55.13,55.13,0,0,0,596.51,101,46.57,46.57,0,0,0,607.65,117.59Z"/><path class="cls-20" d="M701.72,117.07a47.49,47.49,0,0,0,15.59,11A49.35,49.35,0,0,0,737,132,50,50,0,0,0,756.72,128a43.58,43.58,0,0,0,15.59-11,49.55,49.55,0,0,0,10.28-16.62,59.75,59.75,0,0,0,3.6-21.07,59.14,59.14,0,0,0-3.6-21.08,48.5,48.5,0,0,0-10.28-16.62,45.76,45.76,0,0,0-15.59-11,51.13,51.13,0,0,0-39.41,0,43.55,43.55,0,0,0-15.59,11A49.13,49.13,0,0,0,691.61,58.3,60.49,60.49,0,0,0,688,79.38a59.75,59.75,0,0,0,3.6,21.07A48.69,48.69,0,0,0,701.72,117.07Zm.85-60.82a39.47,39.47,0,0,1,14-15.43c6-3.77,12.85-5.48,20.57-5.48,7.88,0,14.73,1.71,20.56,5.48a40.37,40.37,0,0,1,13.88,15.43c3.42,6.51,5.14,14.22,5.14,23a49.41,49.41,0,0,1-5.14,23,40.42,40.42,0,0,1-13.88,15.42c-5.83,3.77-12.68,5.48-20.56,5.48-7.72,0-14.57-1.71-20.57-5.48a38.27,38.27,0,0,1-14-15.42c-3.42-6.52-5.14-14.23-5.14-23A51.55,51.55,0,0,1,702.57,56.25Z"/><path class="cls-20" d="M881.8,28a6,6,0,0,0-2.91,1,4.47,4.47,0,0,0-1.2,2.91v82.42l-63.06-85a4.42,4.42,0,0,0-1.71-1.2A8.93,8.93,0,0,0,811,27.8a4.52,4.52,0,0,0-2.91,1.2,4.3,4.3,0,0,0-1.2,3.09v94.06a4.38,4.38,0,0,0,1,2.92,4.52,4.52,0,0,0,2.91,1.2,5,5,0,0,0,3.09-1.2,4.92,4.92,0,0,0,1.2-2.92V44.25L878,128.9a3.49,3.49,0,0,0,1.54,1,6.24,6.24,0,0,0,1.89.35,4.15,4.15,0,0,0,3.08-1.2,4.51,4.51,0,0,0,1.37-3.43V31.91a4,4,0,0,0-1-2.91A6,6,0,0,0,881.8,28Z"/><path class="cls-20" d="M905.1,34.66,944,127.87a3.41,3.41,0,0,0,1.71,2,4.79,4.79,0,0,0,2.57.69,5.49,5.49,0,0,0,2.4-.69,4.69,4.69,0,0,0,1.88-2.22l39.07-93.39a6,6,0,0,0,.52-2.05,3.7,3.7,0,0,0-1.2-3.09,5.08,5.08,0,0,0-3.26-1.2c-1.71,0-3.08,1-4.28,2.92l-34.79,85L913.33,31.23A4.37,4.37,0,0,0,909,28.14a4.92,4.92,0,0,0-2.91,1.2,3.47,3.47,0,0,0-1.54,3.09,3,3,0,0,0,.17,1.2A2.5,2.5,0,0,0,905.1,34.66Z"/><path class="cls-20" d="M1015.28,130.61h53.63a5,5,0,0,0,3.08-1.2,4.16,4.16,0,0,0,0-6.17,4,4,0,0,0-3.08-1.37h-48.66V82.12h42.15a5,5,0,0,0,3.08-1.2,4.29,4.29,0,0,0,1.37-3.09,4.22,4.22,0,0,0-1.37-2.91,4,4,0,0,0-3.08-1.37h-42.15V36.88h48.66a4.9,4.9,0,0,0,3.08-1.2,3.64,3.64,0,0,0,1.37-2.91,4.26,4.26,0,0,0-1.37-3.08,4.52,4.52,0,0,0-3.08-1.2h-53.63a4.92,4.92,0,0,0-3.09,1.2,4.93,4.93,0,0,0-1.2,3.08V126.5a4.15,4.15,0,0,0,1.2,3.08A6.08,6.08,0,0,0,1015.28,130.61Z"/><path class="cls-20" d="M1098.21,130.61a5,5,0,0,0,3.08-1.2,4.85,4.85,0,0,0,1.2-2.91V44.59l62.88,84.48a3.53,3.53,0,0,0,1.55,1,5.88,5.88,0,0,0,1.88.35,4.17,4.17,0,0,0,3.09-1.2,4.54,4.54,0,0,0,1.37-3.43V32.09a4.08,4.08,0,0,0-1-2.92,4.18,4.18,0,0,0-2.91-1.2,4.1,4.1,0,0,0-4.12,4.12V114.5l-63-85a3.13,3.13,0,0,0-1.72-1.2,8.33,8.33,0,0,0-1.88-.35,4.48,4.48,0,0,0-2.91,1.2,4.26,4.26,0,0,0-1.2,3.09v94.41a4.3,4.3,0,0,0,1,2.91A3.35,3.35,0,0,0,1098.21,130.61Z"/><path class="cls-20" d="M1256.53,131A52.47,52.47,0,0,0,1267,127.7a83.8,83.8,0,0,0,8.74-4.46,3.46,3.46,0,0,0,1.88-2.91,4.92,4.92,0,0,0-.85-3.43,5.12,5.12,0,0,0-2.91-1.71,4.63,4.63,0,0,0-3.09.51,50.64,50.64,0,0,1-12,5.48,43.65,43.65,0,0,1-13.54,2.06,42.48,42.48,0,0,1-16.28-3.08,43.48,43.48,0,0,1-13.36-8.91,39.34,39.34,0,0,1-8.91-13.88,51.07,51.07,0,0,1-3.09-18.16,48.19,48.19,0,0,1,3.09-17.65,40.2,40.2,0,0,1,8.91-13.88,37.72,37.72,0,0,1,13.36-9.08,44.07,44.07,0,0,1,16.62-3.09,45.8,45.8,0,0,1,13.71,2.06,46.86,46.86,0,0,1,11.82,5.65,6.48,6.48,0,0,0,3.09.52,3.26,3.26,0,0,0,2.57-1.54,4.94,4.94,0,0,0,1-3.6,4.49,4.49,0,0,0-2.06-2.92,44.86,44.86,0,0,0-13.88-6.51,50.34,50.34,0,0,0-16.11-2.4,48.56,48.56,0,0,0-20,3.95,50.93,50.93,0,0,0-16.28,11.13,52.46,52.46,0,0,0-15.25,37.53,55.13,55.13,0,0,0,4.11,21.59,49.3,49.3,0,0,0,11.31,16.62,52,52,0,0,0,16.28,10.79,50.71,50.71,0,0,0,19.87,3.77A49.36,49.36,0,0,0,1256.53,131Z"/><path class="cls-20" d="M1301.08,130.61a4.29,4.29,0,0,0,3.08-1.37,4.91,4.91,0,0,0,1.55-3.09V32.77a4.72,4.72,0,0,0-4.46-4.45,4.39,4.39,0,0,0-3.26,1.37,4,4,0,0,0-1.37,3.08v93.38a5,5,0,0,0,1.2,3.09A3.92,3.92,0,0,0,1301.08,130.61Z"/><path class="cls-20" d="M1420.85,100.45a59.75,59.75,0,0,0,3.6-21.07,59.14,59.14,0,0,0-3.6-21.08,51,51,0,0,0-10.11-16.62,45.86,45.86,0,0,0-15.59-11,49.19,49.19,0,0,0-19.71-3.95,50,50,0,0,0-19.87,3.95,45.9,45.9,0,0,0-15.6,11,49.65,49.65,0,0,0-10.28,16.62,60.48,60.48,0,0,0-3.59,21.08,59.75,59.75,0,0,0,3.59,21.07A50.33,50.33,0,0,0,1340,117.07a47.64,47.64,0,0,0,15.6,11,51.67,51.67,0,0,0,39.58,0,43.67,43.67,0,0,0,15.59-11A50.91,50.91,0,0,0,1420.85,100.45ZM1396,117.59c-5.82,3.77-12.68,5.48-20.56,5.48-7.71,0-14.56-1.71-20.56-5.48a38.2,38.2,0,0,1-14.05-15.42c-3.43-6.52-5.14-14.23-5.14-23a49.23,49.23,0,0,1,5.14-23,39.39,39.39,0,0,1,14.05-15.43c6-3.77,12.85-5.48,20.56-5.48s14.74,1.71,20.56,5.48a40.22,40.22,0,0,1,13.88,15.43c3.43,6.51,5.14,14.22,5.14,23a49.29,49.29,0,0,1-5.14,23A39.07,39.07,0,0,1,1396,117.59Z"/><path class="cls-20" d="M1375.61,21.29a3,3,0,0,1,1.72.17,5.46,5.46,0,0,1,1.54-.51l14.39-7.2a4.41,4.41,0,0,0,2.06-1.88,5.08,5.08,0,0,0,.68-2.74A4.13,4.13,0,0,0,1394.8,6a4.93,4.93,0,0,0-3.08-1.2,5.38,5.38,0,0,0-2.4.52,6.66,6.66,0,0,0-1.88,1l-13,10.11a3.59,3.59,0,0,0-1,1.2,3.91,3.91,0,0,0-.35,1.37,2.2,2.2,0,0,0,.69,1.72A3.56,3.56,0,0,0,1375.61,21.29Z"/><path class="cls-20" d="M1449.29,130.61a4.14,4.14,0,0,0,2.91-1.2,4.85,4.85,0,0,0,1.2-2.91V44.59l62.89,84.48a3.44,3.44,0,0,0,1.54,1,5.88,5.88,0,0,0,1.88.35,4.17,4.17,0,0,0,3.09-1.2,4.54,4.54,0,0,0,1.37-3.43V32.09a4,4,0,0,0-1-2.92,4.25,4.25,0,0,0-3.08-1.2,4.18,4.18,0,0,0-2.92,1.2,4.52,4.52,0,0,0-1.2,2.92V114.5l-63-85a3.11,3.11,0,0,0-1.71-1.2,8.41,8.41,0,0,0-1.89-.35,5.37,5.37,0,0,0-3.08,1.2,4.26,4.26,0,0,0-1.2,3.09v94.41a4.3,4.3,0,0,0,1,2.91A5.57,5.57,0,0,0,1449.29,130.61Z"/><path class="cls-20" d="M650.14,220.22a6.83,6.83,0,0,0-4.45.69,18.48,18.48,0,0,1-5.66,1.88,24,24,0,0,1-6,.52,28.46,28.46,0,0,1-10.11-1.72,20.57,20.57,0,0,1-8.06-5,23.74,23.74,0,0,1-5.48-8.39,30.28,30.28,0,0,1-1.88-11.65,29.15,29.15,0,0,1,1.71-10.46,22.57,22.57,0,0,1,5-8.22,20.75,20.75,0,0,1,7.88-5.31,26.1,26.1,0,0,1,10.62-1.89,35.18,35.18,0,0,1,6.17.52,51.07,51.07,0,0,1,5.48,1.88,8.31,8.31,0,0,0,4.46.86,4.9,4.9,0,0,0,3.77-2.23,7.19,7.19,0,0,0,1.71-5.65,5.83,5.83,0,0,0-3.25-4.46,26.2,26.2,0,0,0-8.4-3.08,42.62,42.62,0,0,0-9.42-1,43.36,43.36,0,0,0-15.94,2.91,38.77,38.77,0,0,0-12.51,8.23,34.56,34.56,0,0,0-8.22,12.51,42.81,42.81,0,0,0-2.91,15.76,44.48,44.48,0,0,0,3.08,17.3,34.33,34.33,0,0,0,8.74,12.51,37.65,37.65,0,0,0,12.68,7.54A43.16,43.16,0,0,0,634,236.84a41.6,41.6,0,0,0,6.34-.51c2-.52,4.11-.86,6.16-1.54a61.24,61.24,0,0,0,5.83-2.4,5.6,5.6,0,0,0,3.26-4.29,6.62,6.62,0,0,0-1.72-5.65A6.73,6.73,0,0,0,650.14,220.22Z"/><path class="cls-20" d="M727.25,168.48a34.93,34.93,0,0,0-11.83-8.57,37.9,37.9,0,0,0-30,0,32.67,32.67,0,0,0-11.82,8.57,37,37,0,0,0-7.71,12.68,45.57,45.57,0,0,0,0,31.18A41.05,41.05,0,0,0,673.62,225a35.47,35.47,0,0,0,26.73,11.65,37.13,37.13,0,0,0,15.07-3.08A34.45,34.45,0,0,0,727.25,225,37.3,37.3,0,0,0,735,212.34a45.72,45.72,0,0,0,0-31.18A41.32,41.32,0,0,0,727.25,168.48Zm-6.69,41.8a23.24,23.24,0,0,1-8,9.6,21.78,21.78,0,0,1-24,0,23.39,23.39,0,0,1-8-9.6,32,32,0,0,1-2.91-13.53,29.53,29.53,0,0,1,2.91-13.54,23.36,23.36,0,0,1,8-9.59,21.78,21.78,0,0,1,24,0,23.21,23.21,0,0,1,8,9.59,31.19,31.19,0,0,1,0,27.07Z"/><path class="cls-20" d="M808.64,158a5.22,5.22,0,0,0-4.29,1.72,6.83,6.83,0,0,0-1.71,4.45v48l-40.1-51.58a6.91,6.91,0,0,0-2.39-1.88,6.59,6.59,0,0,0-3.09-.51,6.33,6.33,0,0,0-4.8,1.88,6.08,6.08,0,0,0-1.88,4.8v64.77a6.06,6.06,0,0,0,1.71,4.45,5.68,5.68,0,0,0,4.29,1.71,6.5,6.5,0,0,0,4.45-1.71,6.83,6.83,0,0,0,1.71-4.45v-47.3l40.27,51.75a4.09,4.09,0,0,0,2.23,1.37A8,8,0,0,0,808,236a6.33,6.33,0,0,0,4.8-1.89,6.08,6.08,0,0,0,1.88-4.8V164.53a5.8,5.8,0,0,0-1.71-4.45A4.61,4.61,0,0,0,808.64,158Z"/><path class="cls-20" d="M877.52,197.09a22,22,0,0,0-8.23-4.28,110.73,110.73,0,0,0-11.48-2.92,46.33,46.33,0,0,1-8.74-2.22,11.65,11.65,0,0,1-5.48-3.43,7.66,7.66,0,0,1-1.88-5.48,7.31,7.31,0,0,1,1.71-5,11.49,11.49,0,0,1,5-3.26,25.57,25.57,0,0,1,7.88-1.2,28.33,28.33,0,0,1,6.17.86,67.07,67.07,0,0,1,6.34,2.4,23.69,23.69,0,0,1,4.8,2.91,4.6,4.6,0,0,0,2.91,1,5.27,5.27,0,0,0,4.28-1.89,6.86,6.86,0,0,0,1.89-4.45,7.41,7.41,0,0,0-3.09-5.83,28.94,28.94,0,0,0-9.94-5.48,40.93,40.93,0,0,0-13.19-2.06,34,34,0,0,0-13.88,2.75,23.62,23.62,0,0,0-9.94,7.71,19.9,19.9,0,0,0-3.77,12.33,23,23,0,0,0,1.55,8.57,17,17,0,0,0,4.45,6.51,24.78,24.78,0,0,0,7.54,4.63,58.25,58.25,0,0,0,10.45,2.74,42.4,42.4,0,0,1,10.28,2.57,13.17,13.17,0,0,1,6,3.94,8.37,8.37,0,0,1,1.89,5.65,7.46,7.46,0,0,1-2.06,5,14.9,14.9,0,0,1-5.48,3.43,21,21,0,0,1-7.54,1.37,24.15,24.15,0,0,1-10.11-1.88,31.88,31.88,0,0,1-8.23-5.32,6,6,0,0,0-3.77-1.37,5.61,5.61,0,0,0-4.45,1.89,6.86,6.86,0,0,0-1.89,4.45,10.13,10.13,0,0,0,.69,3.09,11.82,11.82,0,0,0,2.23,2.91,34,34,0,0,0,11.65,6.85,43.23,43.23,0,0,0,13.71,1.89,31.59,31.59,0,0,0,13.87-2.91,26.25,26.25,0,0,0,10.28-7.89,20.46,20.46,0,0,0,4-12.5,26.64,26.64,0,0,0-1.72-9.6A13.13,13.13,0,0,0,877.52,197.09Z"/><path class="cls-20" d="M947.25,158H898.59a6.9,6.9,0,0,0-4.8,1.72,6.63,6.63,0,0,0,0,9.25,7,7,0,0,0,4.8,1.88H915.9V229a6.33,6.33,0,0,0,1.88,4.8,8,8,0,0,0,10.28,0,6.24,6.24,0,0,0,2.06-4.8V170.87h17.3a6.88,6.88,0,0,0,4.8-1.71,6.6,6.6,0,0,0,0-9.25A7,7,0,0,0,947.25,158Z"/><path class="cls-20" d="M972.78,158a6.86,6.86,0,0,0-5.14,1.89,6.08,6.08,0,0,0-1.88,4.8v64.08a6.33,6.33,0,0,0,1.88,4.8,6.24,6.24,0,0,0,5,1.88,6.57,6.57,0,0,0,4.8-1.88,6.24,6.24,0,0,0,2.06-4.8h.17V164.71a6.49,6.49,0,0,0-2.06-4.8A6.85,6.85,0,0,0,972.78,158Z"/><path class="cls-20" d="M1046.29,158H997.63a6.88,6.88,0,0,0-4.8,1.72,5.72,5.72,0,0,0-1.88,4.62,6.32,6.32,0,0,0,1.88,4.63,7,7,0,0,0,4.8,1.88h17.3V229a6.34,6.34,0,0,0,1.89,4.8,8,8,0,0,0,10.28,0,6.24,6.24,0,0,0,2.06-4.8V170.87h17.3a6.88,6.88,0,0,0,4.8-1.71,6.63,6.63,0,0,0,0-9.25A6.71,6.71,0,0,0,1046.29,158Z"/><path class="cls-20" d="M1119.11,157.85c-1.88,0-3.43.52-4.28,1.89a7.41,7.41,0,0,0-1.72,4.79v40.1a17.38,17.38,0,0,1-2.57,9.59,18.12,18.12,0,0,1-6.68,6.34,17.56,17.56,0,0,1-8.91,2.23,15.55,15.55,0,0,1-8.22-2.23,16,16,0,0,1-6.34-6.34,17.31,17.31,0,0,1-2.4-9.59v-40.1a6.48,6.48,0,0,0-2.06-4.79,6.1,6.1,0,0,0-4.45-1.89,6.84,6.84,0,0,0-5.14,1.89,6.08,6.08,0,0,0-1.89,4.79v40.1a33.66,33.66,0,0,0,3.94,16.28,29.32,29.32,0,0,0,10.8,11.13,30.57,30.57,0,0,0,15.93,4.12,30.18,30.18,0,0,0,15.94-4.12,28.94,28.94,0,0,0,10.62-11.13,33.66,33.66,0,0,0,3.94-16.28v-40.1a6.87,6.87,0,0,0-1.71-4.79A5.87,5.87,0,0,0,1119.11,157.85Z"/><path class="cls-20" d="M1194.16,220.22a6.67,6.67,0,0,0-4.45.69,17.09,17.09,0,0,1-5.66,1.88,24.1,24.1,0,0,1-6,.52,28.54,28.54,0,0,1-10.11-1.72,20.6,20.6,0,0,1-8-5,21.29,21.29,0,0,1-5.31-8.39,30.27,30.27,0,0,1-1.89-11.65,29.15,29.15,0,0,1,1.72-10.46,22.57,22.57,0,0,1,5-8.22,20.6,20.6,0,0,1,7.88-5.31,26.1,26.1,0,0,1,10.62-1.89,36.71,36.71,0,0,1,6.17.52,51.07,51.07,0,0,1,5.48,1.88,8.61,8.61,0,0,0,4.46.86,4.9,4.9,0,0,0,3.77-2.23,7.19,7.19,0,0,0,1.71-5.65,5.83,5.83,0,0,0-3.25-4.46,27.85,27.85,0,0,0-8.4-3.08,42.62,42.62,0,0,0-9.42-1,43.36,43.36,0,0,0-15.94,2.91,39.52,39.52,0,0,0-12.68,8.23,34.43,34.43,0,0,0-8.22,12.51,42.81,42.81,0,0,0-2.92,15.76,44.47,44.47,0,0,0,3.09,17.3,34.33,34.33,0,0,0,8.74,12.51,37.65,37.65,0,0,0,12.68,7.54,43.06,43.06,0,0,0,14.9,2.57,41.4,41.4,0,0,0,6.34-.51c2.06-.52,4.12-.86,6.17-1.54a43.47,43.47,0,0,0,5.83-2.4,6,6,0,0,0,3.25-4.29,6.59,6.59,0,0,0-1.71-5.65A5.79,5.79,0,0,0,1194.16,220.22Z"/><path class="cls-20" d="M1218.15,158a6.84,6.84,0,0,0-5.14,1.89,6.09,6.09,0,0,0-1.89,4.8v64.08a6.34,6.34,0,0,0,1.89,4.8,6.22,6.22,0,0,0,5,1.88,6.56,6.56,0,0,0,4.79-1.88,6.21,6.21,0,0,0,2.06-4.8h.17V164.71a6.48,6.48,0,0,0-2-4.8A6.89,6.89,0,0,0,1218.15,158Z"/><path class="cls-20" d="M1301.42,168.48a34.79,34.79,0,0,0-11.82-8.57,37.52,37.52,0,0,0-29.82,0,32.84,32.84,0,0,0-11.82,8.57,37.3,37.3,0,0,0-7.71,12.68,45.72,45.72,0,0,0,0,31.18A41.44,41.44,0,0,0,1248,225a36.89,36.89,0,0,0,11.82,8.57,37.63,37.63,0,0,0,29.82,0,34.41,34.41,0,0,0,11.82-8.57,37,37,0,0,0,7.71-12.68,46.42,46.42,0,0,0,2.74-15.59,42.48,42.48,0,0,0-2.74-15.59A38,38,0,0,0,1301.42,168.48Zm-6.68,41.8a23.39,23.39,0,0,1-8,9.6,21.78,21.78,0,0,1-24,0,23.34,23.34,0,0,1-8.06-9.6,32,32,0,0,1-2.91-13.53,29.66,29.66,0,0,1,2.91-13.54,23.31,23.31,0,0,1,8.06-9.59,21.78,21.78,0,0,1,24,0,23.36,23.36,0,0,1,8,9.59,31.28,31.28,0,0,1,0,27.07Z"/><path class="cls-20" d="M1382.81,158a5.2,5.2,0,0,0-4.28,1.72,6.84,6.84,0,0,0-1.72,4.45v48l-40.09-51.58a7,7,0,0,0-2.4-1.88,6.57,6.57,0,0,0-3.08-.51,6.32,6.32,0,0,0-4.8,1.88,6.09,6.09,0,0,0-1.89,4.8v64.77a6.84,6.84,0,0,0,1.72,4.45,5.68,5.68,0,0,0,4.28,1.71,6.53,6.53,0,0,0,4.46-1.71,6.89,6.89,0,0,0,1.71-4.45v-47.3L1377,234.1a4.93,4.93,0,0,0,2.23,1.37,8.09,8.09,0,0,0,2.91.52,6.33,6.33,0,0,0,4.8-1.89,6.09,6.09,0,0,0,1.89-4.8V164.53a5.81,5.81,0,0,0-1.72-4.45A4.6,4.6,0,0,0,1382.81,158Z"/><path class="cls-20" d="M1438.84,162a5.52,5.52,0,0,0-2.57-3.25,7.49,7.49,0,0,0-3.77-1.2,6.48,6.48,0,0,0-3.94,1,6.94,6.94,0,0,0-2.74,3.42l-27.42,66.49a10.26,10.26,0,0,0-.34,2.05,6.11,6.11,0,0,0,1.54,4.11,5.53,5.53,0,0,0,4.29,1.72,6.43,6.43,0,0,0,3.42-1.2,6.79,6.79,0,0,0,2.4-3.26l5.66-13.53h32.72l5.83,13.7a7,7,0,0,0,2.57,3.26,5.88,5.88,0,0,0,7.88-.69,6.06,6.06,0,0,0,1.88-4.79,18.76,18.76,0,0,0-.51-2.74Zm-18,43.53,11-26.05L1443,205.49Z"/><path class="cls-20" d="M1522.8,224.33a6.88,6.88,0,0,0-4.8-1.71v-.17h-28.61V164.53a6.48,6.48,0,0,0-2.06-4.79,6.21,6.21,0,0,0-4.63-1.89,6.86,6.86,0,0,0-5.14,1.89,6.08,6.08,0,0,0-1.88,4.79v64.09a6.44,6.44,0,0,0,6.68,6.68H1518a7.07,7.07,0,0,0,4.8-1.88,6,6,0,0,0,1.88-4.63A5.86,5.86,0,0,0,1522.8,224.33Z"/></g></g></svg>