<svg xmlns="http://www.w3.org/2000/svg" viewBox="0 0 1539.36 229.27"><defs><style>.cls-1{fill:#001661;}</style></defs><title>Logo_PoderJudicialTV2</title><g id="Capa_2" data-name="Capa 2"><g id="Capa_1-2" data-name="Capa 1"><path class="cls-1" d="M102,100.47l-6.86.18a16,16,0,0,0-3,.35,2.48,2.48,0,0,0-1.45,1,5.69,5.69,0,0,0-.78,1.61c-.09.37-.26.55-.51.55s-.41-.24-.41-.74a9.37,9.37,0,0,1,.11-1q.12-.74.33-1.8c.13-.7.26-1.29.36-1.77s.16-.72.16-.76c.13-.58.31-.87.56-.87a1.84,1.84,0,0,1,.5.14,4,4,0,0,0,1.48.41c.64.06,1.38.12,2.2.16s1.63.07,2.4.07h18.21a19.91,19.91,0,0,0,2.3-.11c.58-.08,1.14-.16,1.66-.26a2.74,2.74,0,0,1,.46-.09c.24,0,.37.32.37,1,0,.27,0,1.07,0,2.39q-.09,2.25-.09,2.94c-.06.5-.2.74-.42.74s-.47-.3-.5-.92l0-.51a2.35,2.35,0,0,0-1.36-1.79,8.75,8.75,0,0,0-4.07-.78l-5.79-.14v18.86q0,4.1,0,6.28c0,1.46.09,2.65.19,3.57a4.79,4.79,0,0,0,.48,1.72,1.66,1.66,0,0,0,1.31.76l1.15.11a10.37,10.37,0,0,0,1.2.07c.49,0,.73.13.73.37s-.29.46-.87.46q-1.89,0-5-.09l-2.21-.05-2.17.05q-2.66.09-3.63.09c-.61,0-.92-.15-.92-.46s.25-.37.74-.37a7.72,7.72,0,0,0,1.65-.18,1.25,1.25,0,0,0,.92-.76,6.38,6.38,0,0,0,.42-1.77c.09-.89.15-2.06.18-3.52s0-3.55,0-6.28Z"/><path class="cls-1" d="M124.31,102.4a7.43,7.43,0,0,0-1.45-2.46,4.87,4.87,0,0,0-2-1,3.22,3.22,0,0,0-.9-.16c-.29,0-.59,0-.89,0s-.55-.14-.55-.41.09-.26.29-.32a3.28,3.28,0,0,1,.9-.1c.89,0,2.22,0,4,.1,1.26,0,2.15,0,2.67,0,.34,0,1,0,1.89,0,1.53-.06,2.79-.1,3.77-.1a2.64,2.64,0,0,1,.76.1c.2.06.3.17.3.32s-.23.41-.69.41a3.24,3.24,0,0,0-1.8.33,1.1,1.1,0,0,0-.46,1,13.18,13.18,0,0,0,1.06,3.54l7.91,20.89h.19q.78-2,3.54-8.93.6-1.47,1.95-4.85c.91-2.25,1.48-3.69,1.73-4.32s.57-1.47,1-2.51l.88-2.3a5.11,5.11,0,0,0,.41-1.7.83.83,0,0,0-.6-.88,6.07,6.07,0,0,0-1.84-.23c-.52,0-.78-.12-.78-.37s.43-.46,1.29-.46c1,0,2.32,0,3.82.1.49,0,.83,0,1,0l1.61,0c1.35-.06,2.25-.1,2.71-.1.65,0,1,.14,1,.42s-.25.41-.74.41a7.24,7.24,0,0,0-1.15.09,3.12,3.12,0,0,0-1.1.46,4.7,4.7,0,0,0-1.08,1.25,20.85,20.85,0,0,0-1.45,2.89l-1.4,3.27c-.48,1.1-1,2.27-1.54,3.5-1,2.11-1.84,4-2.58,5.7q-2.07,4.7-4.28,9.84l-1.84,4.19-.27.55a22.94,22.94,0,0,1-1.11,2.33.89.89,0,0,1-.73.52.85.85,0,0,1-.72-.52c-.2-.36-.54-1.12-1-2.28Z"/><path class="cls-1" d="M176.13,174.38c.75-7,1.54-14.2,2.29-21.44q4-38.52,8-77c.21-2,.32-4.71,1.54-5.57,2.17-1.53,5.14-2.13,7.86-2.49.37,0,1.92,3.53,1.75,5.33-1.48,15.58-3.24,31.13-4.89,46.7q-3,28.83-6,57.66c-.71,6.81-3.72,8.72-10.52,7.34-15.94-3.26-31.84-7-47.93-9.19-23.87-3.32-47.89-5.56-71.84-8.22-2.75-.31-6.3-.67-5.51-4,.51-2.13,4.09-5.15,6.13-5,14.28.85,28.54,2.33,42.78,3.78,5.79.59,11.56,1.44,17.29,2.43,19.14,3.33,38.25,6.79,57.38,10.17C174.75,174.87,175.09,174.66,176.13,174.38Z"/><path class="cls-1" d="M18.61,167.07c12.36,1.6,24.74,3,37.06,4.85,19.21,2.89,38.47,5.6,57.52,9.32,16.76,3.27,33.27,7.79,49.87,11.83,2.82.69,5.91,1.74,4.5,5.64-1.29,3.57-4,5-7.95,4-13.05-3.26-26.05-6.8-39.22-9.45q-25.89-5.19-52-9.13c-17.23-2.63-34.58-4.57-51.87-6.85-3.14-.41-6.23-1.28-5.81-5.32C11.18,167.18,14.94,167.17,18.61,167.07Z"/><path class="cls-1" d="M159.9,5.62c-3.88,1.26-8,2-11.59,3.86C123.93,22,99.68,34.8,75.38,47.5A2.32,2.32,0,0,0,74,49l28.13-2.74c9.92-1,19.83-2.14,29.77-2.79,3.76-.24,7.27,1.34,10.05,5.08a22.87,22.87,0,0,1-3.78,1.07c-25.69,2.19-51.37,4.3-77.05,6.53-4.84.42-9.19-.22-13.85-4.29,5.59-3,10.62-5.64,15.67-8.29q40.85-21.4,81.7-42.82c4-2.11,12.71.72,15.1,5.08Z"/><path class="cls-1" d="M230.33,51.6c-3.15,4.88-6.54,6.56-11.11,6.66-25.15.55-50.31,1-75.44,2-24.62,1-49.22,2.5-73.81,4-7.78.47-15.53,1.6-23.9,2.5.85-5.1,5-6.36,8.61-7.14A110.45,110.45,0,0,1,72,57.39c30.92-1.65,61.85-3.27,92.78-4.58,19.81-.84,39.63-1.12,59.45-1.61C226,51.16,227.71,51.42,230.33,51.6Z"/><path class="cls-1" d="M157.41,164.68c3-24.59,5.77-47.53,8.55-70.46.84-6.94,1.47-13.9,2.63-20.78A13.24,13.24,0,0,1,172,66.57c1.18-1.18,4.16-1.54,5.8-.9,1.11.44,2,3.33,1.79,5-2.53,21.12-5.3,42.22-7.93,63.33-1.08,8.58-2,17.18-3,25.77-.24,1.95-.28,4.43-1.46,5.66-1.65,1.72-4.29,3.34-6.49,3.33C159.35,168.73,158,165.53,157.41,164.68Z"/><path class="cls-1" d="M65.32,151.59c-5.28-.06-6.83-1.86-5.82-5.87,6-23.87,12-47.76,18.25-71.57.56-2.09,2.81-4.73,4.78-5.27,5.24-1.44,7.47,1.18,6.14,6.46Q79.86,110.17,71,145C70.09,148.43,69.22,152.08,65.32,151.59Z"/><path class="cls-1" d="M44,153c1.66-6.81,3-12.29,4.34-17.76q7.06-28,14.18-56a2.51,2.51,0,0,1,.12-.49c1.35-2.6.39-7.51,5.72-6.18,4.21,1,5.89,4.72,4.72,9.32-2,7.74-3.88,15.48-5.85,23.21q-6.15,24.16-12.33,48.31c-.64,2.48-1.49,5.5-4.73,4.32C47.69,156.75,45.76,154.37,44,153Z"/><path class="cls-1" d="M0,180.74c15.76-5.84,189.76,32.88,216.09,48.53-1.85-.19-3.81,0-5.52-.62-13.51-4.58-26.83-9.74-40.47-13.86-11.88-3.59-24.07-6.2-36.2-8.95q-20.39-4.62-40.9-8.66-20.76-4.05-41.66-7.45C36.6,187.37,21.77,185.48,7,183.25,4.94,182.94,3,181.84,0,180.74Z"/><path class="cls-1" d="M159.9,5.62l-.18.17c1.42,0,3-.34,4.21.2,15,6.93,30,14,45,21,2.28,1.07,4.66,1.9,7,2.84-.1.46-.2.93-.29,1.39-1.16,0-2.49.38-3.45-.06Q187.08,19.75,162.06,8.09C161.15,7.67,160.61,6.46,159.9,5.62Z"/><path class="cls-1" d="M287.9,99V78q0-4.49-.27-7.89a11.27,11.27,0,0,0-1.43-5.37c-.77-1.13-2.24-1.93-4.42-2.38a24.36,24.36,0,0,0-5.3-.41c-1.54,0-2.31-.41-2.31-1.22s1-1.23,3-1.23q3.39,0,12.65.28,5.29.14,6.93.13c1.72,0,4.81,0,9.25-.13,4.81-.18,8.3-.28,10.47-.28a54.6,54.6,0,0,1,10.47.89,36.9,36.9,0,0,1,7.35,2.11,28.08,28.08,0,0,1,4.49,2.31,20.21,20.21,0,0,1,3,2.45,23.16,23.16,0,0,1,4.69,6.86,21.35,21.35,0,0,1,2.11,9.32,35.2,35.2,0,0,1-2.45,13.19,30,30,0,0,1-7,10.54,31.49,31.49,0,0,1-10.68,6.8,36.38,36.38,0,0,1-13.33,2.38,18.69,18.69,0,0,1-2.85-.13h-.14a3.14,3.14,0,0,1-1.09-.41.92.92,0,0,1-.41-.82c0-1,1.27-1.49,3.81-1.49a13.51,13.51,0,0,0,6.12-1.57,20.94,20.94,0,0,0,5.92-4.55,23.32,23.32,0,0,0,4.49-7.21,24.2,24.2,0,0,0,1.7-9.11,38.78,38.78,0,0,0-1.5-10.61,20.72,20.72,0,0,0-6.53-9.79,18.48,18.48,0,0,0-6.86-4.15A22.21,22.21,0,0,0,311,65.36a18.44,18.44,0,0,0-5.3.55c-.73.27-1.09,1.13-1.09,2.58v54.4q0,12.11.14,18.56t.54,10.54a14.24,14.24,0,0,0,1.43,5.1,4.86,4.86,0,0,0,3.87,2.25c1,.09,2.13.2,3.4.34a35,35,0,0,0,3.54.2c1.45,0,2.18.37,2.18,1.09,0,.91-.87,1.36-2.59,1.36q-5.85,0-15-.27-5.3-.13-6.12-.14-1.08,0-6.39.14-7.89.27-10.74.27c-1.82,0-2.72-.45-2.72-1.36,0-.72.72-1.09,2.17-1.09a22.7,22.7,0,0,0,4.9-.54,3.52,3.52,0,0,0,2.65-2.18,23.42,23.42,0,0,0,1.29-5.3c.28-2.63.45-6.1.55-10.41s.13-10.49.13-18.56Z"/><path class="cls-1" d="M392.49,159.54A48.42,48.42,0,0,1,375.28,147a51.93,51.93,0,0,1-9.93-17.2,58.34,58.34,0,0,1-3.19-18.91,56.92,56.92,0,0,1,3.19-18.56,52.87,52.87,0,0,1,10-17.27A48.38,48.38,0,0,1,393,62.37q10.82-4.75,25.37-4.76a69.3,69.3,0,0,1,22.84,3.54,48,48,0,0,1,17.34,10.2,44.43,44.43,0,0,1,10.95,16.11,55.74,55.74,0,0,1,3.81,21,59.61,59.61,0,0,1-3.94,21.83A53.14,53.14,0,0,1,458,148.12,50.92,50.92,0,0,1,440.09,160,61.42,61.42,0,0,1,417,164.23Q403,164.23,392.49,159.54Zm39.91-3.67a27.2,27.2,0,0,0,10.14-6.12q5-4.56,8.36-13.53t3.33-22.71A64.47,64.47,0,0,0,451.17,93a47.08,47.08,0,0,0-8.5-15.64A37.08,37.08,0,0,0,430,67.54a36.35,36.35,0,0,0-15.58-3.4,36.9,36.9,0,0,0-12.24,2,28.05,28.05,0,0,0-10.67,6.87,33.77,33.77,0,0,0-7.69,13.19q-2.85,8.36-2.85,20.47a67,67,0,0,0,2.85,19.85,49.8,49.8,0,0,0,8.3,16.19,37.89,37.89,0,0,0,30.6,14.68A33.23,33.23,0,0,0,432.4,155.87Z"/><path class="cls-1" d="M501.69,99V78q0-4.49-.27-7.89A11.27,11.27,0,0,0,500,64.75c-.77-1.13-2.24-1.93-4.42-2.38a24.3,24.3,0,0,0-5.3-.41c-1.54,0-2.31-.41-2.31-1.22s1-1.23,3-1.23q3.41,0,12.65.28c3.53.09,5.85.13,6.93.13,1.27,0,3.68,0,7.21-.13q9.66-.27,13.74-.28,8.84,0,15.3.34a94.17,94.17,0,0,1,13.53,1.77,58.56,58.56,0,0,1,13.74,4.63A40.61,40.61,0,0,1,586,75a46.48,46.48,0,0,1,9.52,14.69,50.62,50.62,0,0,1,3.68,19.85A54,54,0,0,1,595,131.25a53.2,53.2,0,0,1-10.61,16.26,50.4,50.4,0,0,1-6.59,5.44,54.51,54.51,0,0,1-9.52,5.16,65.24,65.24,0,0,1-13.06,3.95,82.81,82.81,0,0,1-16.39,1.49c-2.36,0-4.83-.06-7.41-.2s-5.83-.39-9.72-.75q-8.85-.67-11.84-.68-1.08,0-6.39.14-7.89.27-10.74.27c-1.82,0-2.72-.45-2.72-1.36,0-.72.72-1.09,2.17-1.09a22.64,22.64,0,0,0,4.9-.54,3.52,3.52,0,0,0,2.65-2.18,23.42,23.42,0,0,0,1.29-5.3q.42-3.95.55-10.41t.13-18.56Zm17,15q0,11,.07,18.23c0,4.8.11,7.89.21,9.25.08,2.35.24,4.51.47,6.46a9.33,9.33,0,0,0,1,3.87c1,1.45,3,2.72,6,3.81a35.29,35.29,0,0,0,11.83,1.63,62.45,62.45,0,0,0,17.88-2.24,35.56,35.56,0,0,0,13.4-7.55,29.41,29.41,0,0,0,8.77-13.87,67.75,67.75,0,0,0,2.65-20,49.41,49.41,0,0,0-3.87-20.34,42.82,42.82,0,0,0-9.18-13.66,48.07,48.07,0,0,0-9.52-7,47.09,47.09,0,0,0-10.14-4.21,58,58,0,0,0-9.65-1.91,91.87,91.87,0,0,0-9.32-.47q-2.17,0-5.1.27a13.26,13.26,0,0,0-3.74.68,2.65,2.65,0,0,0-1.63,2.72q-.14,4.62-.14,27.2Z"/><path class="cls-1" d="M627.63,99V78q0-4.49-.27-7.89a11.38,11.38,0,0,0-1.43-5.37c-.77-1.13-2.25-1.93-4.42-2.38A24.47,24.47,0,0,0,616.2,62c-1.54,0-2.31-.41-2.31-1.22s1-1.23,3-1.23q3.4,0,12.65.28,5.31.14,6.94.13,31.41,0,34-.13c3-.36,4.94-.64,5.85-.82a2.07,2.07,0,0,0,.81-.27,5.87,5.87,0,0,1,1.36-.27c.55,0,.82.4.82,1.22a12.17,12.17,0,0,1-.14,1.22,58.64,58.64,0,0,0-.95,7.62c0,.09-.05,1-.14,2.86q-.14,1.91-.27,3.6c-.09,1.14-.18,2-.27,2.52-.18,1-.63,1.49-1.36,1.49s-1.22-.63-1.22-1.9a16.21,16.21,0,0,0-.21-2.45,12,12,0,0,0-.61-2.45A6.68,6.68,0,0,0,671.56,69q-1.77-1.16-6.53-1.7a28.53,28.53,0,0,0-3.06-.21l-6.46-.2c-4.17-.09-7.44-.14-9.79-.14-.64,0-1,.46-1,1.36v34.41q0,1.5,1,1.5,6.12,0,12.85-.07c4.49,0,7.45-.11,8.91-.21,3.35-.27,5.53-.95,6.52-2a.38.38,0,0,0,.14-.27c.91-1,1.59-1.49,2-1.49.63,0,1,.36,1,1.08,0,.1,0,.5-.13,1.23a67.43,67.43,0,0,0-1,8.7c-.09,1.18-.2,2.79-.34,4.83s-.2,3.47-.2,4.28a7.22,7.22,0,0,1-.2,1.91,1,1,0,0,1-1,.68,1.09,1.09,0,0,1-1.23-1.23,8,8,0,0,0-.13-1.22,28.1,28.1,0,0,0-.41-3.67A6.35,6.35,0,0,0,670.2,113a10.88,10.88,0,0,0-5.31-1.77,33.05,33.05,0,0,0-3.4-.2c-1.72,0-3.72-.07-6-.07q-6.53-.14-9.93-.13c-.54,0-.82.45-.82,1.36V144a25.45,25.45,0,0,0,.75,5.92,6.11,6.11,0,0,0,2.31,3.33,11.18,11.18,0,0,0,4.76,1.7,58.35,58.35,0,0,0,8.5.47c2.72,0,5.15-.08,7.28-.27a16,16,0,0,0,5.51-1.36,9.2,9.2,0,0,0,4-3.53A18.24,18.24,0,0,0,680,143.7c.27-1.36.77-2,1.49-2a.85.85,0,0,1,.89.54,6.39,6.39,0,0,1,.2,1.91c0,.72,0,1.74-.13,3.06s-.25,2.85-.48,4.62-.43,3.26-.61,4.49-.37,2.2-.55,2.92c-.45,1.73-1.08,2.74-1.9,3.06a18.79,18.79,0,0,1-5.44.48q-8.16,0-13.74-.14t-13.6-.41c-4.8-.18-8.25-.27-10.33-.27q-1.1,0-6.39.14-7.89.27-10.75.27c-1.81,0-2.72-.45-2.72-1.36,0-.72.73-1.09,2.18-1.09a22.61,22.61,0,0,0,4.89-.54,3.53,3.53,0,0,0,2.66-2.18,24,24,0,0,0,1.29-5.3q.4-3.95.54-10.41t.14-18.56Z"/><path class="cls-1" d="M713.58,99V78q0-4.49-.27-7.89a11.27,11.27,0,0,0-1.43-5.37c-.77-1.13-2.24-1.93-4.42-2.38a24.42,24.42,0,0,0-5.3-.41c-1.55,0-2.32-.41-2.32-1.22s1-1.23,3-1.23,3.69,0,5.37.07l7.82.21c3.17.09,5,.13,5.44.13q2.44,0,10.06-.27c4.81-.09,7.84-.14,9.11-.14a71.12,71.12,0,0,1,13.81,1.23,30.41,30.41,0,0,1,11.22,4.62A23.61,23.61,0,0,1,774.92,84a30.82,30.82,0,0,1-4,15.24q-4,7.2-13.94,15.23l4.76,6q17.82,22.44,24.76,29.79a34.94,34.94,0,0,0,8.5,6.86,24.1,24.1,0,0,0,6.59,2.38h.14a22,22,0,0,0,3.81.41c1.08,0,1.63.37,1.63,1.09,0,.91-.87,1.36-2.59,1.36H791.64a53.93,53.93,0,0,1-8.77-.54,18.8,18.8,0,0,1-5.78-2,31.13,31.13,0,0,1-8.16-6.67,160.08,160.08,0,0,1-10.47-13.33q-2.73-3.66-6.94-9.79c-2.54-3.53-4.14-5.78-4.82-6.73s-1.25-1.7-1.7-2.24a3,3,0,0,0-2.45-1l-11.83-.27a1,1,0,0,0-1.09,1.09v1.9q0,12.1.13,18.64c.09,4.35.28,7.84.55,10.47a14.48,14.48,0,0,0,1.43,5.23,4.86,4.86,0,0,0,3.87,2.25c1.09.09,2.25.2,3.47.34a30.89,30.89,0,0,0,3.2.2c1.08,0,1.63.37,1.63,1.09,0,.91-.91,1.36-2.72,1.36s-3.72,0-5.71-.07l-9.93-.2c-2.27-.09-3.72-.14-4.35-.14s-2.59.05-5.58.14q-7.35.27-11,.27c-1.81,0-2.72-.45-2.72-1.36,0-.72.73-1.09,2.18-1.09a22.77,22.77,0,0,0,4.9-.54,3.53,3.53,0,0,0,2.65-2.18,24,24,0,0,0,1.29-5.3q.4-3.95.54-10.41t.14-18.56Zm16,10.75a2.4,2.4,0,0,0,1.22,2.45,25.44,25.44,0,0,0,4.83,1,46.83,46.83,0,0,0,5.51.34A26.07,26.07,0,0,0,747,113a11.36,11.36,0,0,0,3.8-1.84,18.38,18.38,0,0,0,5.78-7.61,31.49,31.49,0,0,0,2.25-12.79,31.32,31.32,0,0,0-2-11.69,21.08,21.08,0,0,0-5.17-7.82,19.33,19.33,0,0,0-6.8-4.15,21.26,21.26,0,0,0-6.87-1.22,30.25,30.25,0,0,0-7.21.54,1.78,1.78,0,0,0-1.22,1.9Z"/><path class="cls-1" d="M857.06,99V78q0-4.49-.28-7.89a11.28,11.28,0,0,0-1.42-5.37c-.77-1.13-2.25-1.93-4.42-2.38a24.47,24.47,0,0,0-5.31-.41c-1.54,0-2.31-.41-2.31-1.22s1-1.23,3-1.23q4.62,0,12.79.28c3.35.09,5.53.13,6.52.13q1.1,0,6.67-.13c5.26-.18,8.75-.28,10.47-.28,1.9,0,2.86.41,2.86,1.23S884.8,62,883.17,62a25.59,25.59,0,0,0-3.95.41,5.22,5.22,0,0,0-3.74,2.31,13.22,13.22,0,0,0-1.29,5.44q-.27,3.41-.27,7.89v46.1c0,1.82.05,4.76.14,8.84.18,4.45.27,7.89.27,10.34a116,116,0,0,1-.68,12.85,48,48,0,0,1-2.59,11.22A41.28,41.28,0,0,1,863,180.69a64.63,64.63,0,0,1-15,12.38,71.16,71.16,0,0,1-6.8,3.53,5.17,5.17,0,0,1-2.72.82,1,1,0,0,1-1.08-1.09,1.29,1.29,0,0,1,.68-1c.45-.32,1.22-.8,2.31-1.43a30,30,0,0,0,6.53-5.17,30.93,30.93,0,0,0,5.78-8.29,39.42,39.42,0,0,0,3.06-10.27,96.11,96.11,0,0,0,1.15-12.78q.21-7,.21-19.38Z"/><path class="cls-1" d="M907.78,99V78q0-4.49-.27-7.89a11.27,11.27,0,0,0-1.43-5.37c-.77-1.13-2.24-1.93-4.42-2.38a24.36,24.36,0,0,0-5.3-.41c-1.54,0-2.31-.41-2.31-1.22s1-1.23,3-1.23q3.81,0,12.65.28c3.89.09,6.3.13,7.2.13q1.64,0,6.8-.13c4.9-.18,8.21-.28,9.93-.28,2,0,3,.41,3,1.23S935.89,62,934.44,62a25.59,25.59,0,0,0-4,.41,5.22,5.22,0,0,0-3.74,2.31,13.22,13.22,0,0,0-1.29,5.44q-.27,3.41-.27,7.89v40q0,14,2.65,21.56a26.19,26.19,0,0,0,8,11.9,21.41,21.41,0,0,0,8.29,4.49A34.53,34.53,0,0,0,952.8,157a29.57,29.57,0,0,0,10-1.77,23.4,23.4,0,0,0,8.78-5.58A23.78,23.78,0,0,0,978,136.76,121.69,121.69,0,0,0,979.45,116V78q0-4.49-.27-7.89a11.27,11.27,0,0,0-1.43-5.37c-.77-1.13-2.24-1.93-4.42-2.38-.45-.09-1.17-.18-2.17-.27s-1.91-.14-2.72-.14c-1.54,0-2.31-.41-2.31-1.22s1-1.23,2.85-1.23q3.54,0,7.62.14l7.61.27h.41c.36,0,1.68,0,4-.13q2.71-.13,6-.21c2.22,0,4-.07,5.51-.07q2.85,0,2.85,1.23c0,.81-.81,1.22-2.45,1.22a25.48,25.48,0,0,0-3.94.41,5.22,5.22,0,0,0-3.74,2.31,13.22,13.22,0,0,0-1.29,5.44q-.27,3.41-.27,7.89v35.5q0,6.66-.48,12.1A72,72,0,0,1,989,136.35a37.65,37.65,0,0,1-3.94,9.93,31.21,31.21,0,0,1-6.73,8.16,37.34,37.34,0,0,1-13.54,7.75,51.5,51.5,0,0,1-14.75,2c-2.36,0-4.69-.09-7-.27a56.26,56.26,0,0,1-7.48-1.15,38.09,38.09,0,0,1-8.16-2.86,30,30,0,0,1-7.54-5.1A34.24,34.24,0,0,1,911,141.18q-3.19-8.49-3.2-22.37Z"/><path class="cls-1" d="M1029.5,99V78q0-4.49-.27-7.89a11.27,11.27,0,0,0-1.43-5.37c-.77-1.13-2.24-1.93-4.42-2.38a24.42,24.42,0,0,0-5.3-.41c-1.55,0-2.32-.41-2.32-1.22s1-1.23,3-1.23q3.39,0,12.64.28,5.31.14,6.94.13,1.9,0,7.21-.13,9.66-.27,13.73-.28,8.85,0,15.3.34a94.12,94.12,0,0,1,13.54,1.77,58.33,58.33,0,0,1,13.73,4.63,40.79,40.79,0,0,1,12,8.77,46.66,46.66,0,0,1,9.52,14.69,50.62,50.62,0,0,1,3.67,19.85,54,54,0,0,1-4.21,21.69,53.2,53.2,0,0,1-10.61,16.26,50.54,50.54,0,0,1-6.6,5.44,54.14,54.14,0,0,1-9.52,5.16,64.93,64.93,0,0,1-13,3.95,83,83,0,0,1-16.39,1.49c-2.36,0-4.83-.06-7.41-.2s-5.83-.39-9.73-.75q-8.84-.67-11.83-.68-1.1,0-6.39.14-7.89.27-10.75.27c-1.81,0-2.72-.45-2.72-1.36,0-.72.73-1.09,2.18-1.09a22.77,22.77,0,0,0,4.9-.54,3.53,3.53,0,0,0,2.65-2.18,23.42,23.42,0,0,0,1.29-5.3q.4-3.95.54-10.41t.14-18.56Zm17,15q0,11,.07,18.23c0,4.8.11,7.89.2,9.25.09,2.35.25,4.51.48,6.46a9,9,0,0,0,1,3.87c1,1.45,3,2.72,6,3.81a35.33,35.33,0,0,0,11.83,1.63,62.53,62.53,0,0,0,17.89-2.24,35.52,35.52,0,0,0,13.39-7.55,29.42,29.42,0,0,0,8.78-13.87,68.08,68.08,0,0,0,2.65-20q0-11.7-3.88-20.34a42.5,42.5,0,0,0-9.18-13.66,47.5,47.5,0,0,0-9.52-7,46.81,46.81,0,0,0-10.13-4.21,58,58,0,0,0-9.66-1.91,91.52,91.52,0,0,0-9.31-.47q-2.17,0-5.1.27a13.17,13.17,0,0,0-3.74.68,2.65,2.65,0,0,0-1.63,2.72q-.14,4.62-.14,27.2Z"/><path class="cls-1" d="M1155.44,99V78c0-3-.1-5.62-.28-7.89q-.4-6.66-4.62-7.61a18.86,18.86,0,0,0-4.9-.55c-1.45,0-2.17-.45-2.17-1.36,0-.72,1.09-1.09,3.26-1.09,1.72,0,5,.1,9.93.28q5.71.14,7.75.13,1.63,0,6.67-.13c4.71-.18,8-.28,9.92-.28s2.86.37,2.86,1.09c0,.91-.73,1.36-2.18,1.36a26.1,26.1,0,0,0-4.08.41,5.22,5.22,0,0,0-3.74,2.31,13.22,13.22,0,0,0-1.29,5.44q-.27,3.41-.27,7.89v44.88q0,12.64.07,19.24c0,4.4.2,7.92.47,10.54a10.85,10.85,0,0,0,1.5,4.7,5.47,5.47,0,0,0,3.94,2c1,.09,2.13.2,3.4.34a35,35,0,0,0,3.54.2c1.45,0,2.18.37,2.18,1.09,0,.91-.87,1.36-2.59,1.36q-5.71,0-15-.27c-2.9-.09-5-.14-6.25-.14q-1.1,0-6.4.14-7.89.27-10.74.27c-1.81,0-2.72-.45-2.72-1.36,0-.72.73-1.09,2.18-1.09a22.61,22.61,0,0,0,4.89-.54c2.18-.45,3.49-2.72,4-6.8q.4-3.94.54-10.54t.14-19.11Z"/><path class="cls-1" d="M1238.12,160.7a56.22,56.22,0,0,1-20.53-11.29,45.57,45.57,0,0,1-13.06-18.5,62,62,0,0,1-3.81-21.62,52.53,52.53,0,0,1,.75-8.5A56.9,56.9,0,0,1,1204,91.2a50.05,50.05,0,0,1,4.89-10,44.52,44.52,0,0,1,7.76-9.18,52.54,52.54,0,0,1,18.08-10.75q10.33-3.68,24.89-3.67,5.85,0,10.2.34c2.9.23,6.08.57,9.52,1q2.31.27,6.94,1.22t6.66,1.09c1.36.09,2,.64,2,1.63,0,.28,0,.82-.13,1.64a53.46,53.46,0,0,0-.55,5.84c-.09,1.64-.13,4.22-.13,7.76-.1,3.8-.19,6.12-.28,6.93-.09,2.09-.63,3.13-1.63,3.13s-1.36-1-1.36-3a19.72,19.72,0,0,0-1.49-6.6,19,19,0,0,0-3.81-5.91q-3.4-3.67-10.95-6.06A55.42,55.42,0,0,0,1258,64.27a46.13,46.13,0,0,0-14.76,2.11,30.49,30.49,0,0,0-10.81,6.33,34.57,34.57,0,0,0-9.72,15.23,66.32,66.32,0,0,0-2.79,20,52,52,0,0,0,3.94,20.74,46,46,0,0,0,10.34,15.3,45.14,45.14,0,0,0,13.94,9.25,38,38,0,0,0,14.62,3.13q9.66,0,15.3-1.57a19.45,19.45,0,0,0,9.59-6.05,21.3,21.3,0,0,0,4.62-9,6.93,6.93,0,0,1,.61-2.17A1.28,1.28,0,0,1,1294,137c.82,0,1.22.68,1.22,2q0,.69-.27,3c-.18,1.54-.41,3.19-.68,5s-.59,3.6-1,5.51a44.9,44.9,0,0,1-1.09,4.62,7.87,7.87,0,0,1-1.15,2.52,6,6,0,0,1-2.38,1.43,47.92,47.92,0,0,1-10.75,2.31,115.94,115.94,0,0,1-13.73.81A89.13,89.13,0,0,1,1238.12,160.7Z"/><path class="cls-1" d="M1324.35,99V78q0-4.49-.27-7.89-.42-6.66-4.63-7.61a18.86,18.86,0,0,0-4.9-.55c-1.45,0-2.17-.45-2.17-1.36,0-.72,1.09-1.09,3.26-1.09,1.72,0,5,.1,9.93.28q5.72.14,7.75.13,1.64,0,6.67-.13c4.71-.18,8-.28,9.93-.28s2.85.37,2.85,1.09c0,.91-.73,1.36-2.18,1.36a26.1,26.1,0,0,0-4.08.41,5.2,5.2,0,0,0-3.73,2.31,13,13,0,0,0-1.3,5.44q-.27,3.41-.27,7.89v44.88q0,12.64.07,19.24c0,4.4.2,7.92.48,10.54a10.73,10.73,0,0,0,1.49,4.7,5.5,5.5,0,0,0,4,2c1,.09,2.12.2,3.39.34a35,35,0,0,0,3.54.2c1.45,0,2.18.37,2.18,1.09,0,.91-.87,1.36-2.59,1.36q-5.7,0-15-.27-4.35-.13-6.25-.14-1.1,0-6.39.14-7.89.27-10.75.27c-1.81,0-2.72-.45-2.72-1.36,0-.72.73-1.09,2.18-1.09a22.61,22.61,0,0,0,4.89-.54c2.18-.45,3.49-2.72,4-6.8q.4-3.94.54-10.54t.14-19.11Z"/><path class="cls-1" d="M1391.26,126.83c-.55,0-1,.37-1.23,1.09l-7.34,19.45a23.25,23.25,0,0,0-2,8.3,4,4,0,0,0,1.22,3.12c.82.73,2.22,1.09,4.22,1.09h2c1.36,0,2,.37,2,1.09,0,.91-.77,1.36-2.31,1.36-1.73,0-4.17-.05-7.35-.14q-5.29-.27-7.07-.27c-.27,0-1.27.05-3,.14-1.36,0-3.29,0-5.78.13s-4.92.14-7.28.14c-1.72,0-2.58-.45-2.58-1.36,0-.72.54-1.09,1.63-1.09a34.3,34.3,0,0,0,4.22-.27,10.1,10.1,0,0,0,6.8-3.47,32.84,32.84,0,0,0,4.76-8.77L1406.35,62a23.14,23.14,0,0,1,2-4.28,2.27,2.27,0,0,1,1.77-1.16q1.5,0,3.4,4.35c.64,1.36,2,4.68,4.08,9.93l8.16,20.54,13,32.3q1.29,3.19,3.6,9t4.9,11.9q3.39,8.16,6.26,11.16a12,12,0,0,0,5.71,3.67,29.2,29.2,0,0,0,5.71.54c1.18,0,1.77.37,1.77,1.09,0,.54-.41.91-1.23,1.09a29.07,29.07,0,0,1-5,.27h-11.9q-5.77,0-13.8-.27h-.55c-2.35-.18-3.53-.55-3.53-1.09,0-.72.63-1.13,1.9-1.22a1.91,1.91,0,0,0,1.5-2,2.44,2.44,0,0,0-.27-1.09L1423,127.79a1.41,1.41,0,0,0-1.36-1ZM1419,120c.45,0,.68-.27.68-.81l-12.24-33.59v-.14c-.18-.72-.41-1.09-.68-1.09s-.63.41-.81,1.23l-12.52,33.45c0,.64.18,1,.55,1Z"/><path class="cls-1" d="M1498,122.89q0,15.37.47,21.49t2.38,7.75a11.5,11.5,0,0,0,5.38,2.31,63.22,63.22,0,0,0,11.08.68,56,56,0,0,0,10.06-.68,10.48,10.48,0,0,0,5.85-3.13,14.35,14.35,0,0,0,2.31-3.74,12.64,12.64,0,0,0,1.23-4.42c.18-1.36.68-2,1.49-2s1.09.78,1.09,2.32c0,.45,0,1.24-.13,2.38s-.25,2.65-.48,4.55-.45,3.61-.68,5.1a28.12,28.12,0,0,1-.75,3.61,4.51,4.51,0,0,1-2,3c-.91.45-3.08.68-6.53.68-4.89,0-9.16-.05-12.78-.14s-7.89-.23-12.78-.41q-9.12-.27-14-.27-1.1,0-6.39.14-7.89.27-10.75.27c-1.81,0-2.72-.45-2.72-1.36,0-.72.73-1.09,2.18-1.09a22.61,22.61,0,0,0,4.89-.54,3.53,3.53,0,0,0,2.66-2.18,24.55,24.55,0,0,0,1.29-5.3q.4-3.95.54-10.41t.14-18.56V78q0-4.49-.27-7.89a11.38,11.38,0,0,0-1.43-5.37c-.77-1.13-2.25-1.93-4.42-2.38a19.51,19.51,0,0,0-4.49-.41c-1.54,0-2.31-.41-2.31-1.22s1-1.23,3-1.23c2.18,0,6.07.1,11.7.28,3.8.09,6.12.13,6.93.13s3.13,0,7.21-.13c5.8-.18,9.56-.28,11.29-.28q2.85,0,2.85,1.23c0,.81-.81,1.22-2.44,1.22a32.53,32.53,0,0,0-5.31.41,5.22,5.22,0,0,0-3.74,2.31,13.22,13.22,0,0,0-1.29,5.44Q1498,73.53,1498,78v44.88Z"/></g></g></svg>