<svg xmlns="http://www.w3.org/2000/svg" viewBox="0 0 232.1 73"><defs><style>.cls-1{fill:#00adef;}</style></defs><title>Logo_UNTV</title><g id="Capa_2" data-name="Capa 2"><g id="Capa_1-2" data-name="Capa 1"><path class="cls-1" d="M9,20q1.65-1.35,3.9-3.3c.5-.5,1-.9,1.3-1.2a6.23,6.23,0,0,0,.9-1.2,17.08,17.08,0,0,0,.7-1.8c.2-.7.6-1.7,1-2.9h-.1a7,7,0,0,1-1.8,2.5,25,25,0,0,1-2.4,1.8c-.9.6-1.7,1.3-2.6,2a10.15,10.15,0,0,0-2.3,3.2V19c.6-1.8,1.1-3.3,1.4-4.5s.6-2.3.8-3.2a8.54,8.54,0,0,1,.9-2.4A6.4,6.4,0,0,1,12.5,7V6.9a9,9,0,0,0-4.4,3.4A9.57,9.57,0,0,0,6.4,16v7.1A13,13,0,0,1,9,20Zm4.9-8.7c.9-1,1.8-2,2.6-3s1.5-2,2.2-2.9a18.78,18.78,0,0,1,2.4-2.5L21,2.8A7.14,7.14,0,0,1,18.7,4a14.47,14.47,0,0,0-2.9,1.3,10,10,0,0,0-2.9,2.9A17.73,17.73,0,0,0,10.5,14,15,15,0,0,0,13.9,11.3ZM2.5,37.9a30,30,0,0,0,2.3,3,28,28,0,0,1,2.5,3.6h.1a8.6,8.6,0,0,1-.1-1.6V41.5a11.15,11.15,0,0,1,.6-2.7c.4-1.3.8-2.6,1.2-4.2s.8-3.1,1.1-4.6a15.67,15.67,0,0,0,.3-4.2h-.1a9.66,9.66,0,0,1-1.1,2.6c-.5.8-1,1.7-1.6,2.6a25.91,25.91,0,0,0-1.4,2.9,9.74,9.74,0,0,0-.6,3.4A14.93,14.93,0,0,0,5.9,39a4.34,4.34,0,0,1,.2,1.3H5.9A30.09,30.09,0,0,0,4.8,36c-.5-1.4-1-2.6-1.5-3.8S2.4,30,2.1,29.1a8,8,0,0,1-.5-2.3,7.12,7.12,0,0,1,.1-1.6c0-.4.1-.9.1-1.5H1.5a21.56,21.56,0,0,0-.8,2.6,13.93,13.93,0,0,0-.5,3.3,16.32,16.32,0,0,0,.6,4.9A12,12,0,0,0,2.5,37.9ZM21,65.5h1.1a7.57,7.57,0,0,0,1.5-.1q.75-.15,1.8-.3c.7-.1,1.7-.4,2.9-.7s2.8-.7,4.7-1.2c-1.3-.3-2.4-.7-3.4-1a7.37,7.37,0,0,1-2.8-1.8c-1.1-1-2.3-2.1-3.5-3.1-.9-.8-1.8-1.6-2.7-2.5-.3-.2-1.6-1.4-2-1.8v.3c.2.2,1.4,2.8,1.4,2.8a4,4,0,0,0,.3.4c.3.6.7,1.2,1,1.8.1.2.3.5.4.7a6.48,6.48,0,0,0,1.7,2,11.42,11.42,0,0,0,4.3,2.1v.1c-.9-.1-1.6-.3-2.2-.4s-1.1-.2-1.6-.3-1-.1-1.5-.2a11,11,0,0,1-1.8-.2,6.75,6.75,0,0,0-1.4-.2c-.5-.1-.9-.1-1.4-.2-.2,0-.5-.1-.7-.1a20,20,0,0,1-2.6-.5,7.66,7.66,0,0,1-2.3-1,10,10,0,0,1-2.4-1.9l-.1.1a7.71,7.71,0,0,0,1.4,1.9,13.36,13.36,0,0,0,2.1,2,12.57,12.57,0,0,0,3,1.8,15.62,15.62,0,0,0,4,1C20,65.4,20.6,65.4,21,65.5ZM5.1,33.6h.1c.1-.6.2-1.2.3-1.6a6.26,6.26,0,0,1,.8-1.7,19.88,19.88,0,0,1,1.6-2.4q1-1.35,2.7-3.9a11.91,11.91,0,0,0,1.6-3.6c.4-1.4.7-2.3.8-2.9h-.1a4.05,4.05,0,0,1-.5.9c-.2.2-.4.5-.7.8a11.3,11.3,0,0,1-1.1,1.1c-.4.4-1,.9-1.8,1.6a9.35,9.35,0,0,0-2.6,3.4,23.15,23.15,0,0,0-1,3.4h0c0-.5.1-1.1.1-1.6v-2c0-1-.1-2.2-.2-3.6s-.2-3.1-.2-5.3a4.06,4.06,0,0,1,.4-1.9c.3-.6.5-1.2.7-1.7H6a14.6,14.6,0,0,0-2.9,5,16,16,0,0,0-.8,4.7,14.22,14.22,0,0,0,1,5.3A52.56,52.56,0,0,1,5.1,33.6ZM15.7,60l4.2.9,2.2.5a19.71,19.71,0,0,1-2.2-2.9,12.23,12.23,0,0,1-1.3-2.8c-.4-1.1-1-2.6-1.7-4.4a5.93,5.93,0,0,0-.7-1.6,10.93,10.93,0,0,0-.8-1.5c-.3-.5-.7-1.1-1.1-1.7s-1-1.4-1.7-2.4l-.1.1c.2.7.5,1.9.9,3.7s.7,3.4,1.1,5a7.66,7.66,0,0,0,1.4,3.2,15.37,15.37,0,0,0,2.8,3l-.1.1a9.31,9.31,0,0,1-2.5-1.6,20.62,20.62,0,0,0-3.7-2.3,58.65,58.65,0,0,1-6.1-3.4,8.63,8.63,0,0,1-3.3-4l-.1.1a14.42,14.42,0,0,0,1.9,4.6,21.23,21.23,0,0,0,3,3.6,15.61,15.61,0,0,0,3.8,2.5A32.38,32.38,0,0,0,15.7,60ZM6.2,49.5l7.5,5c-.3-.7-.6-1.3-.8-1.9a11.7,11.7,0,0,1-.5-2c-.1-.7-.2-1.6-.3-2.5s-.2-2-.3-3.3c-.3-2.2-.5-4-.7-5.2a27.27,27.27,0,0,0-1.1-4H9.7a21.93,21.93,0,0,1-.2,2.9,12.4,12.4,0,0,1-.4,2.2,16.25,16.25,0,0,0-.4,1.9,11.24,11.24,0,0,0-.2,2,7.93,7.93,0,0,0,.7,2.9,17,17,0,0,0,1.2,2.9l-.1.1A37.47,37.47,0,0,0,6.9,46l-3-3.3a19.45,19.45,0,0,1-2.3-2.9A8.47,8.47,0,0,1,.3,36.2c-.1.3-.1.7-.2,1s-.1.6-.1,1a10.73,10.73,0,0,0,.6,3.5A16.58,16.58,0,0,0,2.1,45a18.9,18.9,0,0,0,2,2.7A14.54,14.54,0,0,0,6.2,49.5Zm61.7-44c.7.9,1.5,1.9,2.2,2.9a34.77,34.77,0,0,0,2.6,3,17.17,17.17,0,0,0,3.5,2.8,19,19,0,0,0-2.4-5.8,10,10,0,0,0-2.9-2.9A14.47,14.47,0,0,0,68,4.2,7.14,7.14,0,0,1,65.7,3l-.1.1A13.2,13.2,0,0,1,67.9,5.5Zm6.7,54.9a9.43,9.43,0,0,1-2.3,1,17.17,17.17,0,0,1-2.6.5c-.2,0-.5.1-.7.1-.5.1-.9.1-1.4.2s-.9.1-1.4.2-1.2.1-1.8.2a7.72,7.72,0,0,0-1.5.2c-.5.1-1,.2-1.6.3s-1.3.2-2.2.4v-.1a11.42,11.42,0,0,0,4.3-2.1,5.51,5.51,0,0,0,1.7-2c.1-.2.3-.5.4-.7.3-.6.7-1.2,1-1.8a4,4,0,0,0,.3-.4s1.3-2.5,1.4-2.8l-.1-.1c-.4.4-1.7,1.6-2,1.8a32,32,0,0,0-2.7,2.5c-1.1,1.1-2.3,2.1-3.5,3.1a7.37,7.37,0,0,1-2.8,1.8c-.9.3-2.1.6-3.3,1,2,.5,3.5.9,4.7,1.2s2.1.5,2.9.7,1.4.2,1.8.3a7.57,7.57,0,0,0,1.5.1,3.75,3.75,0,0,0,1.1-.1c.3,0,1-.1,1-.1a21.25,21.25,0,0,0,4-1,10.86,10.86,0,0,0,3-1.8,13.7,13.7,0,0,0,2.1-2,18.2,18.2,0,0,0,1.4-1.9l-.2-.6A18.39,18.39,0,0,1,74.6,60.4Zm5.7-8.6a58.65,58.65,0,0,1-6.1,3.4,20.62,20.62,0,0,0-3.7,2.3,8.33,8.33,0,0,1-2.4,1.6L68,59a15.37,15.37,0,0,0,2.8-3,7.66,7.66,0,0,0,1.4-3.2c.3-1.6.7-3.2,1.1-5s.7-3,.9-3.7l-.1-.1c-.7.9-1.2,1.7-1.7,2.4s-.8,1.2-1.1,1.7a10.93,10.93,0,0,0-.8,1.5c-.2.5-.5,1-.7,1.6-.7,1.8-1.3,3.3-1.7,4.4a14.63,14.63,0,0,1-1.3,2.8,19.71,19.71,0,0,1-2.2,2.9l2.2-.5,4.2-.9a16.59,16.59,0,0,0,4.1-1.4A19.2,19.2,0,0,0,78.9,56a13.1,13.1,0,0,0,3-3.6,14.42,14.42,0,0,0,1.9-4.6l-.1-.1A9.2,9.2,0,0,1,80.3,51.8Zm3.1-19.5c-.5,1.2-1,2.4-1.5,3.8a20.88,20.88,0,0,0-1.1,4.3h-.1c0-.1.1-.6.2-1.3a5.88,5.88,0,0,0,.2-1.7,9.34,9.34,0,0,0-.6-3.4,25.91,25.91,0,0,0-1.4-2.9c-.5-.9-1.1-1.8-1.6-2.6a8.49,8.49,0,0,1-1.1-2.6h-.1a15.93,15.93,0,0,0,.3,4.2c.3,1.6.7,3.1,1.1,4.6s.8,2.9,1.2,4.2a11.15,11.15,0,0,1,.6,2.7V43a8.6,8.6,0,0,1-.1,1.6h.1A20.65,20.65,0,0,1,82,41c.8-1,1.6-2,2.3-3a11.86,11.86,0,0,0,1.6-3.4,16.78,16.78,0,0,0,.6-4.9,15.58,15.58,0,0,0-.5-3.3,21.56,21.56,0,0,0-.8-2.6h-.1a6.62,6.62,0,0,0,.1,1.5c0,.4.1.9.1,1.6a8,8,0,0,1-.5,2.3C84.3,30.1,83.9,31.2,83.4,32.3Zm-3.1-7.1a11.35,11.35,0,0,0-2.6-3.4,20.93,20.93,0,0,0-1.8-1.6l-1.1-1.1c-.3-.3-.5-.6-.7-.8a3.6,3.6,0,0,1-.5-.9h-.1a28.26,28.26,0,0,0,.8,2.9,13.13,13.13,0,0,0,1.6,3.6q1.65,2.4,2.7,3.9c.7.9,1.2,1.8,1.6,2.4s.6,1.3.8,1.7.2,1,.3,1.6h.1a41.17,41.17,0,0,1,1.8-5.9,14.6,14.6,0,0,0,1-5.3,15.46,15.46,0,0,0-.8-4.7,16.81,16.81,0,0,0-2.9-5.1h-.1c.2.5.4,1.1.7,1.7a4.33,4.33,0,0,1,.4,1.9c0,2.2-.1,3.9-.2,5.3s-.2,2.5-.2,3.6v2c0,.5.1,1,.1,1.6h-.1A12.09,12.09,0,0,0,80.3,25.2ZM75.8,9.1a8.54,8.54,0,0,1,.9,2.4c.2.9.5,2,.8,3.2s.8,2.7,1.4,4.5v.1a10.15,10.15,0,0,0-2.3-3.2,15.1,15.1,0,0,0-2.6-2c-.9-.6-1.6-1.2-2.4-1.8a8,8,0,0,1-1.8-2.5h-.1c.4,1.2.7,2.2,1,2.9a17.08,17.08,0,0,0,.7,1.8,2.73,2.73,0,0,0,.9,1.2c.3.3.8.7,1.3,1.2q2.25,2,3.9,3.3a12.67,12.67,0,0,1,2.7,3V16.1a10.31,10.31,0,0,0-1.7-5.7A7.77,7.77,0,0,0,74,7.1v.1A6.4,6.4,0,0,1,75.8,9.1ZM64,67.5a4.68,4.68,0,0,1-1.7-.2c-.5-.1-1.1-.2-1.9-.4h0c-.6-.2-1.3-.4-2-.7s-1.7-.6-2.8-1c-1.9-.7-3.4-1.2-4.3-1.5a10.4,10.4,0,0,0-2.9-.5,11.28,11.28,0,0,0-3,.4c-1,.2-1.7.4-2.2.5-.4-.1-1.1-.3-2.1-.5a16.9,16.9,0,0,0-3-.3,10.4,10.4,0,0,0-2.9.5c-1,.3-2.4.8-4.3,1.5-2.2.8-3.9,1.4-5,1.7a12.57,12.57,0,0,1-3.3.5,6.15,6.15,0,0,1-1.4-.1,10.38,10.38,0,0,1-1.2-.3s-1-.3-1.5-.5a15.37,15.37,0,0,1-1.9-.9l-.1.1a21,21,0,0,0,3.6,2.7,11.14,11.14,0,0,0,5.6,1.6,15,15,0,0,0,2.2-.2,7,7,0,0,0,1.9-.6c.6-.3,1.4-.6,2.1-1a30.79,30.79,0,0,0,2.8-1.6c1.2-.7,2.1-1.3,2.9-1.8a6,6,0,0,1,2.7-.7,5,5,0,0,1,1.2.2,48.34,48.34,0,0,1-4.7,2.9,21.07,21.07,0,0,0-5,4.2L33.5,73a33.14,33.14,0,0,1,5-4.9,18.17,18.17,0,0,1,4.7-2.9,17.1,17.1,0,0,1,4.7,2.9,33.14,33.14,0,0,1,5,4.9l1.7-1.5a24.74,24.74,0,0,0-5.1-4.2c-1.8-1-3.3-1.9-4.7-2.7a8.32,8.32,0,0,1,1.3-.2,5,5,0,0,1,2.7.7,21.19,21.19,0,0,1,2.9,1.8c1,.6,1.9,1.1,2.7,1.6a10,10,0,0,0,2.1,1c.6.2,1.3.4,1.9.6a12.31,12.31,0,0,0,2,.2h.4a11.6,11.6,0,0,0,4.6-1,11.22,11.22,0,0,0,4.5-3.4v-.1a24.75,24.75,0,0,1-3.4,1.4A8.52,8.52,0,0,1,64,67.5ZM86.5,38v-.8a4.4,4.4,0,0,0-.2-1A8.16,8.16,0,0,1,85,39.8a26.37,26.37,0,0,1-2.3,2.9l-.2.2c-.9.9-1.8,2-2.9,3.1a28,28,0,0,0-3.3,4.4h0a17,17,0,0,0,1.2-2.9,9.34,9.34,0,0,0,.6-2.9,12.31,12.31,0,0,0-.2-2,16.25,16.25,0,0,0-.4-1.9c-.1-.7-.3-1.4-.4-2.2a23.28,23.28,0,0,1-.2-2.9h-.1v0h-.1a21.86,21.86,0,0,0-1.1,4c-.2,1.2-.4,2.9-.7,5.2q-.15,2-.3,3.3c-.1.9-.2,1.7-.3,2.5a11.7,11.7,0,0,1-.5,2,11.11,11.11,0,0,1-.7,1.6c-.1.1-.1.2-.2.3h0l2.5-1.7,5.1-3.3a10.42,10.42,0,0,0,2-1.8A13.09,13.09,0,0,0,84.4,45a12.44,12.44,0,0,0,1-2,6.94,6.94,0,0,0,.5-1.3,11.2,11.2,0,0,0,.6-3.5h0ZM57,8.1c.2.1.3.2.5.3s.2.3.3.4.2.2.3.2.3-.1.3-.2,0-.2-.1-.2-.1,0-.1-.2a.85.85,0,0,0-.2-.6.8.8,0,0,0-.9-.2c-.1-.1-.1-.1-.2-.1h-.1c-.2,0-.3.1-.3.2C56.7,8,56.8,8.1,57,8.1ZM46.2,5.7h.2a4.05,4.05,0,0,1,1.2-.3h1.5a.6.6,0,0,0,.6-.3c.1-.2.2-.3.3-.5a1.52,1.52,0,0,0-1.2-.7,4.59,4.59,0,0,0-1-.1,4.77,4.77,0,0,0-1.2.4,3.63,3.63,0,0,0-1.2.5.45.45,0,0,0-.6.2,3.81,3.81,0,0,0,.6.5C45.5,5.6,45.8,5.7,46.2,5.7ZM43.1,61.4A30.7,30.7,0,1,0,12.4,30.7,30.77,30.77,0,0,0,43.1,61.4ZM14,31.5h4.7a23.54,23.54,0,0,0,1,6c-.1,0-.2-.1-.4-.2l-.1-.1-.5-.7-.8.3c0,.5-.2.6-.5.5a.76.76,0,0,0-.4-.2,1,1,0,0,0-1,.9c-.1.6-.2,1-.2,1.2l.7,1.8c.1.2.3.2.6.1.3.3.5.6.6.7a.76.76,0,0,0,.5.2.27.27,0,0,0,.3-.3h.1a2.18,2.18,0,0,1,.4.5c.1.2.3.3.5.5v-.1a1.49,1.49,0,0,0,.9.4,1.68,1.68,0,0,0,.6,1.1,1,1,0,0,0,.8.4.76.76,0,0,0,.4-.2,4.34,4.34,0,0,0,.5,1,2.19,2.19,0,0,0,.5.3,1.38,1.38,0,0,1,.4.3h.2a1.77,1.77,0,0,0,.5.8,2.65,2.65,0,0,0,.6.5H25c.1.1.1.2.2.2l-3.3,3.3A29.26,29.26,0,0,1,14,31.5Zm22.5-8.6c-.1-.1-.2-.1-.3-.2l-.3-.3a11.22,11.22,0,0,1,6.4-2.7v3.2l-.1-.1-.1-.1h0a.35.35,0,0,0-.2-.1h-.3a.35.35,0,0,0-.2.1h-.1c-.1-.1-.1-.2-.1-.5h0a1.08,1.08,0,0,0-.5.4,4.08,4.08,0,0,1-.2.7c-.1.3-.2.5-.5.6a.92.92,0,0,0-.6.4l-.3-.2h-.5l-.3-.3c-.1,0-.1-.1-.2-.2s-.1-.1-.1,0-.2.1-.3.2l-.3-.3h.1v-.2C37.1,23.3,36.9,23.1,36.5,22.9Zm-1.7-1.6-3.1-3.1a16.94,16.94,0,0,1,10.7-4.4v4.4A12.92,12.92,0,0,0,34.8,21.3Zm1.8,14.8c.2-.2.1-.5.2-.7l-.4.3a3.28,3.28,0,0,0,.6-.8l.3-.6h0a2.09,2.09,0,0,0,.4.6l-2.9,2.9a11.29,11.29,0,0,1-2.4-4.6,1.85,1.85,0,0,1,.7.2c.1,0,.6.6.6.6a.6.6,0,0,0,.4-.1l.4.3c0,.3,0,.4.1.5s.1.2.3.3a.78.78,0,0,1,.4.4l.2-.1a.76.76,0,0,0-.1-.4c0-.2,0-.3.1-.3l.2.7.2.8h0C36.3,36.2,36.5,36.2,36.6,36.1Zm6.1,3.2c.2.2.3.3.3.4s-.3.3-.8.3c-.2,0-.3.2-.4.6s-.1.7-.2,1h-.2A10.39,10.39,0,0,1,36,39.1l2.8-2.8a6.76,6.76,0,0,0,3.8,1.8c0,.2,0,.4.1.4a.76.76,0,0,0-.2.5C42.4,39,42.5,39.1,42.7,39.3Zm-13.6.2a10.85,10.85,0,0,0-.2-1.7l-.3-.9a10.63,10.63,0,0,0-.3-1.4,6.39,6.39,0,0,0-1-1.3v-.6a3.93,3.93,0,0,0-.2-.6v-.1c0-.1.1-.2.2-.3s.5-.2,1.1-.4c0-.5,0-.8.1-.9l.7.1c.2,0,.3-.1.3-.4a3.93,3.93,0,0,0-.2-.6,1.23,1.23,0,0,1-.2-.7.54.54,0,0,1,.3-.4,1.42,1.42,0,0,1,.6-.2.67.67,0,0,1,.7.4,1.88,1.88,0,0,1,.2.8v.6c0,.2-.1.3-.1.5l.2.1c-.1.7-.4,1-.8,1a.55.55,0,0,1-.5-.3c-.1-.2-.2-.3-.4-.3s-.1,0-.1.1a.6.6,0,0,0,.1.4.75.75,0,0,1,.1.5c0,.5-.2.7-.6.5-.1.3,0,.4.4.4.1.4.3.6.4.5s.1-.3.2-.7.1-.7.2-.8l.1.1.4-.1V33h.1a12.51,12.51,0,0,0,2.9,6l-4.1,4.3a.62.62,0,0,1-.2-.7c.1-.4.5-.7.6-1.1l.1-.8A3.43,3.43,0,0,1,29.1,39.5Zm-2.5-6.4a.6.6,0,0,1,.1.4c0,.2-.1.3-.2.3h-.1c-.1-.8-.2-1.5-.3-2.3H27c0,.2,0,.3-.1.4s-.2.3-.3.4a.76.76,0,0,0-.2.4A.76.76,0,0,1,26.6,33.1Zm-.4-3.2a17.17,17.17,0,0,1,4.4-10.7l3.1,3.1-.1.1a.76.76,0,0,0-.5.2,2.65,2.65,0,0,1-.5.6,8.92,8.92,0,0,0-1,.5,5.72,5.72,0,0,0-.8.8,5.56,5.56,0,0,0-.8.4c-.1,0-.2.1-.4.3q.15.45,0,.6a4.28,4.28,0,0,0-1,.3c-.1,0-.1,0-.2.1l-.3.3a.6.6,0,0,0-.1.4.76.76,0,0,1-.1.4,1.21,1.21,0,0,0-.5.5,1.39,1.39,0,0,0,0,.9l.1,1h0c0,.1.1.2.1.3H26.2Zm8.6,10.2a13.29,13.29,0,0,0,5.4,2.8.6.6,0,0,1-.4.1.88.88,0,0,0-.6.7c-.1.4-.2.7-.5.8a.55.55,0,0,0-.3.5,2.92,2.92,0,0,1,.7,1.2,1.17,1.17,0,0,0,1,.9l.6.2a1.42,1.42,0,0,1,.6.2.75.75,0,0,1,.5.1,17.49,17.49,0,0,1-10.3-4.4Zm-4.2-23L27.5,14A22.61,22.61,0,0,1,42.3,7.8v4.4A18.26,18.26,0,0,0,30.6,17.1Zm-1.1,1.1A18.3,18.3,0,0,0,24.6,30H20.2a23.08,23.08,0,0,1,6.2-14.9ZM24.6,31.5a17.85,17.85,0,0,0,.2,2.3c-.1-.1-.1-.2-.2-.3-.2-.3-.4-.5-.6-.5s-.3.1-.4.3-.2.3-.3.5a4.13,4.13,0,0,1-1.1.5,2.28,2.28,0,0,0-.6,1.2.3.3,0,0,0,0,.4c.1.1.1.3-.2.4.1.3.2.4.1.5.1.1,0,.2-.1.2a.37.37,0,0,0-.3.1c-.1.1-.1.1-.1.2a21.23,21.23,0,0,1-.9-5.7h4.5ZM42.3,59.8a28.86,28.86,0,0,1-19.2-8l3.3-3.3a24.6,24.6,0,0,0,15.9,6.6Zm0-6.2a23,23,0,0,1-14.8-6.1,3.09,3.09,0,0,0,.8.2,3.09,3.09,0,0,0,.8-.2c.3-.1.6-.3.9-.4a2,2,0,0,0,.9-.2,1.1,1.1,0,0,0,.8,0c.2-.1.4-.2.4-.5a.72.72,0,0,0-.4-.6c-.2-.2-.4-.3-.4-.5s-.1-.2-.2-.3l-.7-.7h0a18.3,18.3,0,0,0,11.8,4.9v4.4Zm.9-11.4h0a2.15,2.15,0,0,1-1-.2c0-.1-.1-.2-.1-.3a1.07,1.07,0,0,1,.5-.3,1.55,1.55,0,0,1,.6-.3v-.3l.8-.6a.37.37,0,0,1,.3-.1,3.22,3.22,0,0,1,.6-.2,2.5,2.5,0,0,1,.8.4c.5.2.7.4.8.4l.1-.4c.1,0,.3.1.6.4a1.69,1.69,0,0,0,.5-.2.45.45,0,0,0,0-.5.37.37,0,0,1,.3.1c.1,0,.1,0,.2.1a.35.35,0,0,0,.2.1h.1a1.55,1.55,0,0,0,.6-.3,2.09,2.09,0,0,1,.6-.4c.1-.1.1-.1.2,0s.1.2.1.4a1.26,1.26,0,0,1-.9,1.2,7.72,7.72,0,0,1-1.5.6,1.07,1.07,0,0,0-.3.5c-.1.2-.2.4-.4.4a10.5,10.5,0,0,1-1.3-.2,1.63,1.63,0,0,1-.3-.6,1.7,1.7,0,0,0-.7.1l-.8.2Zm4.4-3.4c.1-.3.2-.6.5-.7a2.35,2.35,0,0,1,.8-.2q0,.3-.6.6a2.6,2.6,0,0,1-.7.3Zm3.2-2.5a.81.81,0,0,1,.4.8c0,.3-.1.4-.4.4s-.4-.2-.5-.7a1,1,0,0,1-.8-.7.56.56,0,0,1,.1-.6c.1-.1.3-.1.4-.2s.2.1.1.5A1.28,1.28,0,0,0,50.8,36.3Zm9.8-17.1c.1,0,.1,0,.2.1a1.45,1.45,0,0,1,.7.2A5.84,5.84,0,0,1,62.7,21q.15,0,.3.3c.1.2.2.3.4.3a1.69,1.69,0,0,0,.5-.2.37.37,0,0,1,.1-.3,23.08,23.08,0,0,1,2,8.7H61.7v-.1a2,2,0,0,0-.2-1.1,2,2,0,0,1-.1-1.5,3.44,3.44,0,0,0,.1-.9c-.2,0-.3,0-.4.1a1.07,1.07,0,0,0-.3.5l-.3.6v.1a.35.35,0,0,1-.1.2.77.77,0,0,1-.1.3c-.1.3-.1.5-.2.8a1.1,1.1,0,0,0,0,.8h0v.3H57.9a2.19,2.19,0,0,1,.5-.3h-.1l.6-.3c-.1-.1-.2-.2-.2-.3s0-.3.1-.4a3.93,3.93,0,0,0,.6-.2,4.34,4.34,0,0,0,.5-1,5.6,5.6,0,0,0,.8-2c0-.2-.2-.4-.2-.5a.6.6,0,0,1,.1-.4c0-.7.3-2-.6-2.2-.1,0-.1-.1-.1-.3.2-.1.3-.4.2-.8h-.6c0-.1,0-.2.2-.4s.2-.3.2-.5a.27.27,0,0,0-.3-.3.75.75,0,0,0-.5.1,1.62,1.62,0,0,1-.5.2h-.2c0-.1-.1-.1-.2-.2a2.11,2.11,0,0,0-.4-1,3.28,3.28,0,0,0-.8-.6h0v-.4l.9-.9,1.2.4a.78.78,0,0,0,.3.7,1.38,1.38,0,0,0,.4.3,1,1,0,0,1,.5.4v.1C60.4,19.1,60.5,19.2,60.6,19.2ZM56.4,48.9a.37.37,0,0,0-.3-.1.22.22,0,0,1-.2-.2.54.54,0,0,1,.3-.4,1.28,1.28,0,0,0,.5-.7,3.93,3.93,0,0,0,.2-.6c0-.1-.1-.2-.2-.3s-.2-.1-.4-.3-.3-.1-.5-.2l-.6-.3a.55.55,0,0,1-.3-.5c0-.1.1-.2.2-.5,0-.1.1-.2.1-.3s.2-.1.2-.2l2.4,2.4c0,.3.2.4.5.5l.3.3A17.09,17.09,0,0,1,56,49.6c0-.1.1-.2.2-.3l.1-.1A.37.37,0,0,0,56.4,48.9ZM55,37.7a.66.66,0,0,0-.6.1.9.9,0,0,0-.6.6c0,.1,0,.1-.1.1a.6.6,0,0,0-.4.1c-.2.1-.4.1-.5.2s-.3-.1-.3-.2.3-.3.9-.4a7.37,7.37,0,0,0,.5-.6c.1-.1.2-.1.5-.2s.5-.4.8-.8a4.57,4.57,0,0,0,.4-.6h.1c0,.3.1.5.4.5s.4-.2.5-.7a5.07,5.07,0,0,0,.9.2c.4,0,.6-.1.7-.4h1.3v.2h0a17.43,17.43,0,0,1-3.4,6.1v-.3s-.3-.9-.4-.9-.3.2-.5.7a4.13,4.13,0,0,1-.4.9l-1,.2a2.77,2.77,0,0,1-.9.1,2.52,2.52,0,0,1-.9-.4,3.08,3.08,0,0,0-.9-.4,6.37,6.37,0,0,0-.9-.2q-.6-.15-.6-.3c0-.2.1-.3.4-.3.1,0,.4.1.8.2l1.2.3c.4.1.8.2,1.1.3a3.93,3.93,0,0,0,.6.2l.6-.2a3.93,3.93,0,0,1,.2-.6,1.42,1.42,0,0,0,.2-.6,6.6,6.6,0,0,0,.4-1.1,7.38,7.38,0,0,0,.2-1.2Q55.3,37.7,55,37.7Zm2.7-6.2h2.4a15.44,15.44,0,0,1-.4,3,3.05,3.05,0,0,0-.5-.9l-.8-.8c-.1-.3-.1-.6-.2-.7s-.1-.1-.1-.2Zm1,12.5c-.2,0-.3.1-.3.2a1.76,1.76,0,0,1-.1.6l-1.5-1.5a19,19,0,0,0,4.3-7.9l.1-.1a.82.82,0,0,0,.7,0c.1-.1.2-.2.2-.3a1.46,1.46,0,0,0-.5-.8h-.1a12.41,12.41,0,0,0,.3-2.7h4.4A23.08,23.08,0,0,1,60,46.4l-.2-.2h0c-.1-.5-.1-.9-.2-1.4C59.3,44.2,59.1,44,58.7,44ZM57.6,21.8h0a.9.9,0,0,1-.1.5c-.1.2-.1.4-.2.5a3.05,3.05,0,0,0,.8.7,4.55,4.55,0,0,1,.9.7,8.66,8.66,0,0,1,.5,1.2,4.55,4.55,0,0,1,.3,1.1,4.88,4.88,0,0,1-.3.7,1.22,1.22,0,0,1-1,.6l-.1-.1a3.93,3.93,0,0,1,.2-.6,3.93,3.93,0,0,0,.2-.6.72.72,0,0,0,.4-.6c-.1-.1-.2-.1-.3-.2s-.2-.2-.5-.5q0-.3-.6-.3a.76.76,0,0,0-.5.2c-.1.1-.3.2-.5.4l-.2-.4a.6.6,0,0,0,.1-.4l-.8-1.4a4.33,4.33,0,0,0-1.1-.4,2.15,2.15,0,0,0-.8,0,2.15,2.15,0,0,1-.8,0,1.33,1.33,0,0,0-.8.3,2.34,2.34,0,0,0-.7.7c-.1.1,0,.3-.3.2l-.3-.3,4.6-4.6a.1.1,0,0,0,.1.1,2.74,2.74,0,0,1,.4.5,2.18,2.18,0,0,0,.4.5A9.74,9.74,0,0,0,57.6,21.8ZM46.5,52.4a5.39,5.39,0,0,0,1.3.7,26,26,0,0,1-3.9.5V49.2h0a5.07,5.07,0,0,0,.6.7c.1.1.4.1.9.2s.7.1.7.3a1.69,1.69,0,0,1-.2.5c-.1.2-.2.3-.2.5A1.77,1.77,0,0,0,46.5,52.4Zm-2.6,7.4V55.1a29.78,29.78,0,0,0,5.1-.7v.2c.5.4.9.7,1,1s.5.4,1.1.4a1.17,1.17,0,0,0,.7-.2c.1-.1.2-.3.4-.4a2.19,2.19,0,0,1,.5-.3,1.38,1.38,0,0,0,.4-.3,1.06,1.06,0,0,0,.7-.6,1.56,1.56,0,0,0,.6-.8.54.54,0,0,0,.4-.3,3.18,3.18,0,0,0,.4-1.1c.1,0,.1-.1.2-.1v-.2a20.26,20.26,0,0,0,4.4-3.3l3.3,3.3A28.48,28.48,0,0,1,43.9,59.8Zm20.3-9.1-3.3-3.3a24.6,24.6,0,0,0,6.6-15.9h4.7A28.86,28.86,0,0,1,64.2,50.7Zm8-20.8H67.5a24.48,24.48,0,0,0-4.7-13.6.76.76,0,0,0-.2-.4c-.1-.1-.2-.2-.3-.2a17.41,17.41,0,0,0-1.2-1.4A.37.37,0,0,1,61,14l3.2-3.2A28.41,28.41,0,0,1,72.2,29.9ZM43.9,1.6a28.86,28.86,0,0,1,19.2,8l-2.8,2.8c-.1-.1-.1-.3-.2-.4a1.73,1.73,0,0,0-.4-.3c-.3-.1-.4-.4-.5-.7a.91.91,0,0,0-.3-.7,1.47,1.47,0,0,1-1-.9c-.3-.5-.5-.7-.8-.7-.1.1-.4,0-.7-.1a2.54,2.54,0,0,0-.7-.2,1.48,1.48,0,0,0-.7.1c-.2.1-.5.1-.8.2l-.1.1a23.91,23.91,0,0,0-10-2.6c.3-.4.3-.7.1-.8s-.2,0-.4.2v-4Zm0,6.2a23.4,23.4,0,0,1,9.5,2.4v.1l.4.4.4.4a2.19,2.19,0,0,0,.3.9,2.19,2.19,0,0,1,.3.5,1,1,0,0,0,.2.9l.6.9a.76.76,0,0,0,.4-.1,4.33,4.33,0,0,0,.5-.1.91.91,0,0,1,.5.3,2.09,2.09,0,0,1,.4.6c0,.1.1.2.1.3l-1.3,1.3h0a12.34,12.34,0,0,0-.6-1.7c-.1-.2-.4-.3-.8-.3-.1-.1-.3-.4-.7-.9s-.6-.8-.7-.8a.37.37,0,0,0-.3.1c.1.1.1.3.2.4a3.22,3.22,0,0,1,.4.7.22.22,0,0,1-.2.2.64.64,0,0,0,.5.5l-.1.2.3.6a17.84,17.84,0,0,0-10.1-3.5V7.8Zm0,6a17.17,17.17,0,0,1,10.7,4.4l-3.2,3.1a12.38,12.38,0,0,0-7.5-3.1Zm0,6A11,11,0,0,1,50,22.2a.35.35,0,0,0-.2.1c-.1.1-.1.1-.2.1s-.1.1-.1.2.2.2.4.3l-1.2,1.2h0a2.19,2.19,0,0,0-.5.3,1.08,1.08,0,0,0-.5.4c0,.1-.1.2-.1.4l-.4.4H47c-.1,0-.3-.1-.6-.4s-.5-.4-.6-.4a.76.76,0,0,0-.5.2c-.1.1-.2.1-.4.1s0-.3.5-.5.7-.3.9-.4a1.82,1.82,0,0,0,.8-1.6c0-.3-.1-.5-.4-.5l-.3.3a1.79,1.79,0,0,0-.7.5l-.5.5c-.1-.1-.3-.1-.6-.1H44V19.8Zm-.9,7c.1.1.1.2.2.2a.76.76,0,0,1,.5.2.75.75,0,0,0,.5.1c0,.1.1.1.1.2a.52.52,0,0,0,.4.2.1.1,0,0,1,.1.1.1.1,0,0,0,.1.1c0,.1.1.2.2.4h0v.1a.49.49,0,0,0,.3.1h.3v.2h.1v.2c0,.2.1.3.1.5v.2c0,.1,0,.1-.1.1a.86.86,0,0,0-.3.6c0,.1.1.2.3.2s.3,0,.4.2a.85.85,0,0,1,.2.6v.9c0,.1.1.2.2.3s.2.1.2.2a2.49,2.49,0,0,1-.1.8,4.88,4.88,0,0,1-.3.7c-.1.1-.2.1-.5,0a2,2,0,0,0-.7-.1c-.1,0-.3.2-.4.6l-.3.9c-.1.3-.2.4-.4.4a.6.6,0,0,0-.4.1h-.1l-.3.6-.1.1a5.45,5.45,0,0,1-3.1-1.3l.5-.5a3.55,3.55,0,0,0,1-.2c.1,0,.1,0,.2-.1.5-.2.5-.7.8-1.2.2-.3.7-.7.3-1,.5-.8-1.7-.8-2-.6s-.2.7-.4,1-.3.2-.5.3a3.13,3.13,0,0,0-.8,1.1h0a1.91,1.91,0,0,1-.3-.8H39c0-.1-.1-.1,0-.2h.1v.1c.3.1.4.1.5,0s.1-.4.2-.6a3.09,3.09,0,0,1,.6-1.2c-.1-.1-.2-.2-.2-.3s-.1-.2-.2-.1-.2.2-.2.3a.71.71,0,0,1-.6.6.27.27,0,0,0-.3-.3.76.76,0,0,0-.4.2,5.13,5.13,0,0,0-1,.1,1.62,1.62,0,0,1-1,0c-.1-.1,0-.3.5-.4a1.29,1.29,0,0,1,.5-1.2,3.93,3.93,0,0,0,.6.2l.2-.2h.1c.2,0,.3.2.4.5s.1.5.3.5a.76.76,0,0,0,.4-.2v-.5a5.31,5.31,0,0,1,.3-1.1v-.3a2.19,2.19,0,0,1,.3-.5h.1a.76.76,0,0,1,.5-.2,3.93,3.93,0,0,0,.2-.6c.2-.1.6-.2,1.1-.4s.8-.4.8-.6V27c.2,0,.5-.1.7-.1C42.9,26.6,42.9,26.7,43,26.8ZM42.3,1.6V6.3a24.39,24.39,0,0,0-15.9,6.6L23.1,9.6A29.07,29.07,0,0,1,42.3,1.6ZM22,10.7,25.3,14a24.6,24.6,0,0,0-6.6,15.9H14A28.86,28.86,0,0,1,22,10.7Z"/><path d="M122,3.3V22a9.79,9.79,0,0,1-2.9,7.4c-1.9,1.8-4.6,2.7-8,2.7a11.56,11.56,0,0,1-7.9-2.6,9.77,9.77,0,0,1-3-7.2V3.3h5.9V22.1a5.46,5.46,0,0,0,1.3,4.1,4.92,4.92,0,0,0,3.7,1.3c3.3,0,5-1.7,5-5.2V3.3Z"/><path d="M131.6,10.6l.2,2.4a7.28,7.28,0,0,1,6.1-2.8,6.26,6.26,0,0,1,5,2,9,9,0,0,1,1.7,5.9V31.8H139V18.2a3.67,3.67,0,0,0-.8-2.6,3.67,3.67,0,0,0-2.6-.8,4,4,0,0,0-3.6,2V31.7h-5.6V10.6Z"/><path d="M149.4,5.1a3.23,3.23,0,0,1,.8-2.1,2.82,2.82,0,0,1,2.3-.8,3.37,3.37,0,0,1,2.3.8,2.58,2.58,0,0,1,.9,2.1,2.58,2.58,0,0,1-.9,2.1,3.71,3.71,0,0,1-4.6,0A2.86,2.86,0,0,1,149.4,5.1Zm6,26.6h-5.7V10.6h5.7Z"/><path d="M167.5,5.4v5.2h3.6v4.1h-3.6V25.3a2.67,2.67,0,0,0,.4,1.7,2.46,2.46,0,0,0,1.7.5,9.15,9.15,0,0,0,1.7-.1v4.3a12.7,12.7,0,0,1-3.4.5c-4,0-6-2-6.1-6V14.7h-3.1V10.6h3.1V5.4Z"/><path d="M184.6,32.1a10.57,10.57,0,0,1-7.6-2.9,10.25,10.25,0,0,1-2.9-7.6v-.5a13.22,13.22,0,0,1,1.2-5.7,8.87,8.87,0,0,1,3.5-3.9,9.75,9.75,0,0,1,5.1-1.4,8.67,8.67,0,0,1,6.8,2.7c1.7,1.8,2.5,4.4,2.5,7.8v2.3H179.7a4.84,4.84,0,0,0,1.7,3.3,5.13,5.13,0,0,0,3.5,1.2A6,6,0,0,0,190,25l2.8,3.1a8.57,8.57,0,0,1-3.4,2.8A10.65,10.65,0,0,1,184.6,32.1ZM184,14.7a3.69,3.69,0,0,0-2.7,1.1,5.89,5.89,0,0,0-1.3,3.3h7.9v-.5a4.22,4.22,0,0,0-1-2.9A4.62,4.62,0,0,0,184,14.7Z"/><path d="M195.6,21a12.76,12.76,0,0,1,2.2-7.9,7.1,7.1,0,0,1,6.1-2.9,6.47,6.47,0,0,1,5.1,2.3V1.7h5.7v30h-5.1l-.3-2.2a6.45,6.45,0,0,1-5.4,2.6,7.3,7.3,0,0,1-6-2.9A13.32,13.32,0,0,1,195.6,21Zm5.7.4a8.49,8.49,0,0,0,1,4.6,3.31,3.31,0,0,0,3,1.6,3.77,3.77,0,0,0,3.7-2.2V17a3.68,3.68,0,0,0-3.7-2.2C202.6,14.8,201.3,17,201.3,21.4Z"/><path d="M123.6,69.7h-5.9L106.3,51V69.7h-5.9V41.3h5.9L117.7,60V41.3h5.8V69.7Z"/><path d="M140.1,69.7a7.1,7.1,0,0,1-.6-1.9,6.88,6.88,0,0,1-5.3,2.3,7.22,7.22,0,0,1-5.1-1.8,5.59,5.59,0,0,1-2-4.5,6,6,0,0,1,2.5-5.2q2.55-1.8,7.2-1.8h2.6V55.6a3.2,3.2,0,0,0-.8-2.3,3,3,0,0,0-2.4-.9,2.92,2.92,0,0,0-2.2.7,2.56,2.56,0,0,0-.8,1.9h-5.6a6,6,0,0,1,1.1-3.4,8.14,8.14,0,0,1,3.2-2.5,11.44,11.44,0,0,1,4.6-.9,9.23,9.23,0,0,1,6.2,2,6.87,6.87,0,0,1,2.3,5.5v9.2a11.17,11.17,0,0,0,.8,4.6v.3h-5.7Zm-4.7-3.9a4.64,4.64,0,0,0,3.9-2.1V60.1h-2.1c-2.8,0-4.3,1-4.5,2.9v.3a2.06,2.06,0,0,0,.7,1.7A2.32,2.32,0,0,0,135.4,65.8Z"/><path d="M155.1,43.4v5.2h3.6v4.1h-3.6V63.3a2.67,2.67,0,0,0,.4,1.7,2.46,2.46,0,0,0,1.7.5,9.15,9.15,0,0,0,1.7-.1v4.3a12.7,12.7,0,0,1-3.4.5c-4,0-6-2-6.1-6V52.7h-3.1V48.6h3.1V43.4Z"/><path d="M161.3,43.1a3.23,3.23,0,0,1,.8-2.1,2.82,2.82,0,0,1,2.3-.8,3.37,3.37,0,0,1,2.3.8,2.9,2.9,0,0,1,0,4.2,3.71,3.71,0,0,1-4.6,0A2.86,2.86,0,0,1,161.3,43.1Zm6,26.6h-5.7V48.6h5.7Z"/><path d="M170.5,58.9a12.47,12.47,0,0,1,1.2-5.6,9.18,9.18,0,0,1,3.5-3.8,10.17,10.17,0,0,1,5.3-1.3,9.76,9.76,0,0,1,7,2.6,10.34,10.34,0,0,1,3,7.1v1.4a11.22,11.22,0,0,1-2.7,7.8,9.22,9.22,0,0,1-7.3,2.9,9.56,9.56,0,0,1-7.3-2.9c-1.8-1.9-2.7-4.6-2.7-8Zm5.7.5a8.44,8.44,0,0,0,1.1,4.6,4,4,0,0,0,6.4,0c.8-1,1.2-2.7,1.2-5a7.63,7.63,0,0,0-1.2-4.6,4,4,0,0,0-6.4,0C176.5,55.4,176.2,57.1,176.2,59.4Z"/><path d="M198.4,48.6l.2,2.4a7.28,7.28,0,0,1,6.1-2.8,6.26,6.26,0,0,1,5,2,9,9,0,0,1,1.7,5.9V69.8h-5.6V56.2a2.91,2.91,0,0,0-3.4-3.4,4,4,0,0,0-3.6,2V69.7h-5.7V48.6Z"/><path d="M226.5,63.9a1.72,1.72,0,0,0-1-1.6,11.38,11.38,0,0,0-3.3-1.1c-5-1.1-7.5-3.2-7.5-6.4a6,6,0,0,1,2.3-4.7,9.27,9.27,0,0,1,6.1-1.9,9.77,9.77,0,0,1,6.4,1.9,6,6,0,0,1,2.4,4.9h-5.6a2.79,2.79,0,0,0-.8-2,3.29,3.29,0,0,0-2.4-.8,3.4,3.4,0,0,0-2.2.6,2.09,2.09,0,0,0-.8,1.6,1.76,1.76,0,0,0,.9,1.5,9.37,9.37,0,0,0,3,1q2.1.45,3.6.9,4.5,1.65,4.5,5.7a5.5,5.5,0,0,1-2.5,4.7,10.76,10.76,0,0,1-6.4,1.8,11.59,11.59,0,0,1-4.7-.9,7,7,0,0,1-3.2-2.6,6,6,0,0,1-1.2-3.6h5.4a3,3,0,0,0,1.1,2.3,4.65,4.65,0,0,0,2.8.8,4.4,4.4,0,0,0,2.5-.6A1.89,1.89,0,0,0,226.5,63.9Z"/></g></g></svg>