<svg xmlns="http://www.w3.org/2000/svg" viewBox="0 0 1042.8 233.7"><title>Logo_TVNPLAY_2</title><g id="Capa_2" data-name="Capa 2"><g id="Capa_1-2" data-name="Capa 1"><path d="M125.79,51.55V207.47c0,15.07-9.11,25.58-22.43,25.58-13.66.35-23.82-10.16-23.82-24.87V51.2H71.48c-16.47,0-32.94.35-49.06,0C9.81,50.85.35,40.69,0,28.08A23.37,23.37,0,0,1,21.72,4.6H192c17.87,0,23.48,4.2,29.44,21.37,12.61,35.74,25.22,71.13,38.19,106.87.7,2.1,1.75,4.21,3.15,8.06,3.15-8.41,5.61-15.42,8.06-22.42q17.34-48.36,34.69-96.71C310.09,9.5,320.26,2.85,331.47,5c15.41,2.8,22.77,17.17,17.17,33.29-16.12,45.2-32.59,91.1-49.06,137-4.55,13.31-9.46,26.28-14,39.59-4.21,11.92-12.62,18.57-23.48,18.22-10.51-.35-18.22-6.3-22.42-18.22-18.57-52.21-37.5-104.76-56.07-157-1.75-5.26-4.2-7-9.46-6.66-13.66.35-27.33,0-40.64,0-2.45,0-4.91.35-7.71.35" style="fill:red"/><path d="M403.3,232H357.4V5.65h44.5V26.32a40.44,40.44,0,0,0,5.25-4.55C436.93-6.61,481.08-3.46,507.36,9.86c20.33,10.51,28.73,29.78,32.24,51.85,1.4,8.76,1.4,18.22,1.4,27V232H494.75V88c0-4.2-.35-8.06-.7-12.26C490.19,51.2,474.43,40,450.6,44.19c-30.13,5.61-46.6,27-46.6,60.27V223.94a31.45,31.45,0,0,0-.7,8.06" style="fill:red"/><path d="M1017.22,163.83c-5.56,4-10.2,8.18-15.55,11-27.68,14.71-62-3.44-65.64-34.53a150.72,150.72,0,0,1-1-16.59c-.11-20.2,0-40.39,0-60.58,0-7,2.85-12.3,9.15-15.31,8.38-4,18.77,1.87,20.37,11.35a31.94,31.94,0,0,1,.3,5.28c0,18.8-.17,37.61.13,56.41a43.11,43.11,0,0,0,2.69,14.73c6.66,17,29.44,18.67,39.86,11.31,5.56-3.92,8.26-9.75,9.15-16.38a63.89,63.89,0,0,0,.51-8.3c.05-19.44,0-38.87,0-58.31,0-9,4.24-15,11.75-16.83a13.19,13.19,0,0,1,12.34,3,5.16,5.16,0,0,1,1.45,3.53q.1,69.48-.08,139c0,3.07-1.62,6.3-3,9.18-8.89,18.11-24,27.74-43.49,30.84a79.19,79.19,0,0,1-53.86-10.31c-7.08-4.16-9.14-11-5.44-18.44,3.11-6.25,10.56-8.69,17.57-5.47a65.51,65.51,0,0,0,26.4,5.83c20.1.41,33.83-11.76,35.9-31.77C1017,169.67,1017.05,166.83,1017.22,163.83Z" style="fill:red"/><path d="M881.7,66.28c.25-3.59.39-6.07.61-8.54a10.8,10.8,0,0,1,10.3-10.2,73.5,73.5,0,0,1,7.57-.07c7.16.23,11.66,4.83,11.68,12.06q.06,33.14,0,66.27,0,21,0,42c0,8.22-4.35,12.63-12.53,12.79-2,0-4,.08-6.06,0-6.55-.39-10.71-4.61-11-11.12-.14-3-.27-6-.46-10.07-1.69,1.95-2.73,3.08-3.69,4.27-12.46,15.53-29.23,18.67-47.73,16.32-31.63-4-52.23-28.7-54.41-60.41-1.12-16.18,1.21-31.72,9.93-45.82,10.49-17,26-26,45.53-28.24,9.79-1.11,19.63-.9,29.06,3,7.84,3.24,13.83,8.63,19,15.11C880,64.2,880.43,64.76,881.7,66.28Zm0,48.08a43.4,43.4,0,0,0-4.85-21.14,36.15,36.15,0,0,0-49.46-16.48C813.29,84,804.74,100.58,806.21,118c1.12,13.35,7.18,23.59,19.59,29.21a44.43,44.43,0,0,0,31.08,2.1C873.05,144.75,881.73,132.31,881.75,114.36Z" style="fill:red"/><path d="M619.93,126v4.58c0,11.49.06,23,0,34.45,0,7.15-3.95,13.32-9.65,14.23-9,1.44-14.28.56-18.44-6.6a15.77,15.77,0,0,1-1.92-7.55q-.17-64.92-.07-129.84c0-6.24,3.12-9.42,9.28-9.44,17.16,0,34.33-.14,51.49,0,14.62.14,27.87,4.38,38.57,14.76,12.43,12.07,16,27,13.37,43.72-3.93,25.47-25.79,40.94-52,41.62-8.7.22-17.41,0-26.12,0Zm.63-77.88a12.75,12.75,0,0,0-.57,2.09c0,16.9,0,33.8-.09,50.69,0,2.38,1.26,2.61,3.12,2.59,7.31,0,14.62,0,21.94,0,14.89,0,25.11-8.34,28-22.87,2.86-14.19-5.09-28.16-19.31-30.75C642.93,47.89,631.68,48.59,620.56,48.1Z" style="fill:red"/><path d="M723.51,101.3q0-32.73,0-65.46c0-7.12,3.79-11.73,10.85-12.63a30.42,30.42,0,0,1,9.38.28c6.08,1.15,9.64,5.59,9.64,11.75q.07,66.22,0,132.45c0,6.82-4.77,11.52-11.62,11.85-1.89.09-3.78.08-5.67,0-8.11-.18-12.57-4.72-12.57-12.81Q723.5,134,723.51,101.3Z" style="fill:red"/></g></g></svg>