<svg width="3154" height="1039" xmlns="http://www.w3.org/2000/svg" xmlns:xlink="http://www.w3.org/1999/xlink" xml:space="preserve" overflow="hidden"><defs><clipPath id="clip0"><rect x="518" y="639" width="3154" height="1039"/></clipPath><clipPath id="clip1"><rect x="518" y="684" width="2181" height="950"/></clipPath><clipPath id="clip2"><rect x="518" y="684" width="2181" height="950"/></clipPath><clipPath id="clip3"><rect x="518" y="684" width="2181" height="950"/></clipPath></defs><g clip-path="url(#clip0)" transform="translate(-518 -639)"><g clip-path="url(#clip1)"><g clip-path="url(#clip2)"><g clip-path="url(#clip3)"><path d="M508.29 208.964 508.29 837.267C508.29 897.979 471.58 940.337 417.927 940.337 364.275 940.337 321.917 899.391 321.917 840.091L321.917 207.552 289.443 207.552C223.083 207.552 156.723 208.964 91.7746 207.552 39.878 205.596-0.606857 161.94 1.34896 110.044 3.16053 61.9743 40.9577 23.023 88.9508 19.7668L775.143 19.7668C847.15 19.7668 869.741 36.7098 893.744 105.894 944.573 249.909 995.402 392.513 1047.64 536.529 1050.47 545 1054.7 553.471 1060.35 569.003 1073.06 535.117 1082.94 506.878 1092.82 478.64L1232.6 88.9508C1250.96 39.5337 1291.9 12.7073 1337.09 21.1788 1399.21 32.4741 1428.86 90.3627 1406.27 155.311 1341.32 337.448 1274.96 522.409 1208.6 707.37 1190.25 761.023 1170.48 813.264 1152.12 866.917 1135.18 914.922 1101.3 941.749 1057.53 940.337 1013.76 938.925 984.106 914.922 967.163 866.917 892.332 656.541 816.088 444.754 741.256 234.378 734.197 213.199 724.313 206.14 703.135 207.552 648.07 208.964 593.005 207.552 539.352 207.552 529.469 207.552 519.586 208.964 508.29 208.964" fill="#FF0000" transform="matrix(1 0 0 1.00059 516.588 687.348)"/><path d="M1626.53 936.101 1441.57 936.101 1441.57 24.0026 1620.88 24.0026 1620.88 107.306C1628.45 101.806 1635.54 95.6654 1642.06 88.9508 1762.07-25.4145 1939.97-12.7073 2045.87 40.9456 2127.76 83.3031 2161.65 160.959 2175.76 249.909 2180.47 285.947 2182.34 322.296 2181.41 358.627L2181.41 936.101 1995.04 936.101 1995.04 355.803C1995.04 338.86 1993.63 323.329 1992.22 306.386 1976.68 207.552 1913.15 162.37 1817.14 179.313 1695.71 201.904 1629.35 288.031 1629.35 422.163L1629.35 903.627C1627.02 914.285 1626.08 925.2 1626.53 936.101" fill="#FF0000" transform="matrix(1 0 0 1.00059 516.588 687.348)"/><path d="M1529.11 855.481 1627.94 855.481 1627.94 934.972 1529.11 934.972Z" fill="#FF0000" transform="matrix(1 0 0 1.00059 518 688.62)"/></g></g></g><path d="M3152.5 639C3439.41 639 3672 871.588 3672 1158.5 3672 1445.41 3439.41 1678 3152.5 1678 2865.59 1678 2633 1445.41 2633 1158.5 2633 871.588 2865.59 639 3152.5 639ZM2948.98 848.499 2948.98 987.822 3200.33 987.822 3086.48 1110.76 3086.48 1224.58 3162.06 1224.58C3196.67 1224.58 3221.56 1230.2 3236.73 1241.43 3251.91 1252.66 3259.5 1267.68 3259.5 1286.5 3259.5 1307.75 3250.39 1324.14 3232.18 1335.68 3213.97 1347.21 3189.38 1352.98 3158.42 1352.98 3128.67 1352.98 3098.17 1348.42 3066.9 1339.32 3035.64 1330.21 3007.26 1317.16 2981.76 1300.16L2916.2 1435.84C2948.98 1455.88 2987.38 1471.36 3031.39 1482.29 3075.4 1493.21 3119.57 1498.68 3163.88 1498.68 3228.23 1498.68 3280.75 1488.51 3321.42 1468.17 3362.09 1447.83 3392.3 1421.58 3412.03 1389.4 3431.76 1357.23 3441.62 1322.93 3441.62 1286.5 3441.62 1230.65 3421.13 1184.97 3380.16 1149.46 3354.54 1127.26 3321.4 1112 3280.73 1103.68L3278.36 1103.29 3409.75 961.414 3409.75 848.499 2948.98 848.499Z" fill="#ED2953" fill-rule="evenodd"/><path d="M2760 1069 2897 1158 2760 1247Z" stroke="#DAE120" stroke-width="58.4375" stroke-linecap="round" stroke-linejoin="round" stroke-miterlimit="10" fill="#DAE120" fill-rule="evenodd"/></g></svg>