<svg xmlns="http://www.w3.org/2000/svg" viewBox="0 0 93.02 35.02"><title>WappTV</title><g id="Capa_2" data-name="Capa 2"><g id="Capa_1-2" data-name="Capa 1"><g id="logo"><path id="Fill-3" d="M60.4,14.86v4.39c0,1.11,0,2.22,0,3.33,0,.22-.29.6-.45.61-1.27,0-2.54,0-3.86,0,0-.31,0-.54,0-.77V8.58A8.25,8.25,0,0,1,58.66,2.1a9.57,9.57,0,0,1,10.67-.85A8.6,8.6,0,0,1,73,10.63a7.68,7.68,0,0,1-9.51,5.91,16.46,16.46,0,0,1-3.13-1.68m8.39-6.45a4.19,4.19,0,1,0-8.38,0,4.19,4.19,0,1,0,8.38,0" style="fill:#eb4bbb;fill-rule:evenodd"/><path id="Fill-5" d="M52.79,16.37h-4V14l-.18,0c-2.2,4.35-9.83,3.53-12.22-1.59C34.78,8.93,35.34,2.84,40.68.69,44.54-.87,49.16.29,51.35,3.4a8,8,0,0,1,1.47,4.38c.07,2.74,0,5.49,0,8.24a2,2,0,0,1-.06.35M48.44,8.45a4.18,4.18,0,1,0-8.35-.1,4.18,4.18,0,1,0,8.35.1" style="fill:#eb4bbb;fill-rule:evenodd"/><path id="Fill-7" d="M0,.17H5.82c0,.34,0,.65,0,1,0,3.72,0,7.43,0,11.14,0,.52,0,1,0,1.56.32,2.91,2.64,4.39,5.26,3.36a3.17,3.17,0,0,0,2-2.42,12.38,12.38,0,0,0,.26-2.43c0-3.71,0-7.43,0-11.14v-1h5.78c0,.29,0,.58,0,.87V12.69a9.06,9.06,0,0,0,.09,1.38c.47,2.76,2.52,4,5.07,3.18a3.51,3.51,0,0,0,2.3-3.45c.08-2.59.06-5.18.07-7.78,0-1.72,0-3.44,0-5.16,0-.55.14-.77.7-.76,1.5,0,3,0,4.51,0,.37,0,.65,0,.65.55,0,4.64.13,9.29-.17,13.92-.47,7.47-6.22,9.35-11,8.42-2.14-.42-3.07-1.1-5.16-3.44a1.19,1.19,0,0,0-.23.16c-2.34,3.15-5.49,3.94-9,3.3a8.22,8.22,0,0,1-6.9-8C0,11.75.05,8.47,0,5.19c0-1.66,0-3.31,0-5" style="fill:#eb4bbb;fill-rule:evenodd"/><path id="Fill-9" d="M80.15,14.86v4.39c0,1.11,0,2.22,0,3.33,0,.22-.28.6-.45.61-1.26,0-2.53,0-3.85,0,0-.31,0-.54,0-.77q0-6.93,0-13.87A8.26,8.26,0,0,1,78.41,2.1a9.57,9.57,0,0,1,10.66-.86,8.63,8.63,0,0,1,3.72,9.39,7.68,7.68,0,0,1-9.51,5.91,16.46,16.46,0,0,1-3.13-1.68m8.39-6.48a4.2,4.2,0,1,0-8.39,0,4.2,4.2,0,1,0,8.39,0" style="fill:#eb4bbb;fill-rule:evenodd"/><path id="Fill-11" d="M16.5,35A23.4,23.4,0,0,1,3,31c-1-.65-2.19-1.41-1.25-2.87s2.1-.78,3.27-.06q11.28,7,22.57-.05c1.09-.68,2.16-1.37,3.1,0,1.06,1.52-.16,2.36-1.25,3.07A23.27,23.27,0,0,1,16.5,35" style="fill:#eb4bbb;fill-rule:evenodd"/></g></g></g></svg>