<svg xmlns="http://www.w3.org/2000/svg" viewBox="0 0 69.51 47.21"><title>LogoT13</title><g id="Capa_2" data-name="Capa 2"><g id="Capa_1-2" data-name="Capa 1"><path d="M30.7,0H.7a.86.86,0,0,0-.7.4v8.1c0,.3.3.5.7.7H11a.76.76,0,0,1,.7.4v23.5a17.58,17.58,0,0,0,2.8,8.6,17.23,17.23,0,0,0,6.4,4.6c.3.3.7,0,.8-.3V10a.76.76,0,0,1,.4-.7h1.3c.3,0,.4,0,.4-.3l7.4-8a.74.74,0,0,0,.4-.8,1.37,1.37,0,0,0-.9-.2" style="fill:#ff662d"/><path d="M42.2,0H34.4c-.3,0-.4,0-.4.3l-7.4,8c-.3.3-.3.5,0,.8.3,0,.3.3.4.3h5.3c.3,0,.5.3.7.7V34a13.41,13.41,0,0,0,3.2,8.6,22.72,22.72,0,0,0,5.8,3.9c.3.3.7,0,.8-.3V.71a3.64,3.64,0,0,0-.6-.7" style="fill:#ff662d"/><path d="M68.6,0H45.1a.76.76,0,0,0-.7.4v8.1a.75.75,0,0,0,.4.7h9.4c.3,0,.5.3.7.7,0,.3,0,.3-.3.4L48,17.51c0,.3-.3.3-.3.4v7c0,.3.3.5.7.7h7.5c.4,0,5.4,1.1,4.7,7.2a5.63,5.63,0,0,1-4.2,5.4H44.9a.76.76,0,0,0-.7.4v7.9a.75.75,0,0,0,.4.7H56.7s12.8-.4,12.8-14.9a12.18,12.18,0,0,0-9.2-12.4c-.3,0-.4-.4-.4-.7a1.18,1.18,0,0,1,.1-.3l8.4-9.2c0-.3.3-.3.3-.4V1.11A.9.9,0,0,0,68.6,0" style="fill:#ff662d"/></g></g></svg>