<svg xmlns="http://www.w3.org/2000/svg" xmlns:xlink="http://www.w3.org/1999/xlink" viewBox="0 0 363.5 80.06"><defs><style>.cls-1{fill:none;}.cls-2,.cls-4{fill:#f81d28;}.cls-3{clip-path:url(#clip-path);}.cls-4{fill-rule:evenodd;}</style><clipPath id="clip-path"><rect class="cls-1" x="148.77" y="1.03" width="214.73" height="78"/></clipPath></defs><title>Logo_24PLAY</title><g id="Capa_2" data-name="Capa 2"><g id="Capa_1-2" data-name="Capa 1"><path class="cls-2" d="M111,.46a7.33,7.33,0,0,0-8.2,2.2l-41,49.1a7.55,7.55,0,0,0-1,7.9,7.38,7.38,0,0,0,6.7,4.3l33.6.1v8.6a7.4,7.4,0,0,0,14.8,0V64h4.6a7.4,7.4,0,1,0,0-14.8h-4.7V7.36A7.08,7.08,0,0,0,111,.46Zm-9.9,48.7H83.29l17.8-21.4Z"/><path class="cls-2" d="M2.59,66.56a7.29,7.29,0,0,0-2.1,8.2,7.35,7.35,0,0,0,6.9,4.8h0l44.4-.2a7.4,7.4,0,0,0,0-14.8h0l-24.3.1c7.4-6.4,15.3-13.4,18.1-16.2C54.79,39,56,30.86,56,25a25.17,25.17,0,0,0-5.2-14.4c-3.2-4.2-9.3-9.3-19.7-9.7-20.7-.8-27.6,14.7-27.9,15.3h0a7.17,7.17,0,0,0-.6,2.9,7.38,7.38,0,0,0,7.4,7.4,7.56,7.56,0,0,0,6.9-4.6c.8-1.4,4.4-6.6,13.6-6.3,10.1.4,10.7,9.3,10.7,9.4,0,3.3-.5,7.3-6.3,13.2C30.59,42.56,10.09,60.16,2.59,66.56Z"/><g class="cls-3"><path class="cls-4" d="M269.17,34.1l3.71,11.53h-7.43Zm-79.28-3h5a4.33,4.33,0,0,1,3.07,1.11,4.25,4.25,0,0,1,0,5.77,4.33,4.33,0,0,1-3.07,1.11h-5Zm101.5-10.39,16.32,27.38V59.86H320V47.73l16.37-27H322.63l-8.78,15.52L305,20.73Zm-76.63,0V55.06a4.68,4.68,0,0,0,4.79,4.8h26.39v-11H227V20.73Zm-32.35,0A4.74,4.74,0,0,0,179,22.09a4.83,4.83,0,0,0-1.37,3.43V59.86h12.28V49.51H196a15.59,15.59,0,0,0,11.15-4,13.67,13.67,0,0,0,4.36-10.35,13.48,13.48,0,0,0-4.36-10.3,14,14,0,0,0-4.93-3.08,18,18,0,0,0-6.22-1Zm86.76-.44q-6.3,0-8.4,5.5L248.06,59.86h12.87l1.61-5.07h13.25l1.62,5.07h12.87L277.57,25.79Q275.47,20.3,269.17,20.29ZM168.23,1H344A19.47,19.47,0,0,1,363.5,20.51V59.56A19.47,19.47,0,0,1,344,79H168.23a19.47,19.47,0,0,1-19.46-19.47v-39A19.47,19.47,0,0,1,168.23,1Z"/></g></g></g></svg>