<svg xmlns="http://www.w3.org/2000/svg" viewBox="0 0 544.38 373.5"><defs><style>.cls-1{fill:#562674;}.cls-2{fill:#71154c;}.cls-3{fill:#066938;}.cls-4{fill:#452776;}.cls-5{fill:#9b1560;}.cls-6{fill:#009841;}.cls-7{fill:#24387d;}.cls-8{fill:#5c8ecb;}.cls-9{fill:#43ad4c;}.cls-10{fill:#181b2e;}.cls-11{fill:#f6db3f;}.cls-12{fill:#d31a16;}.cls-13{fill:#f39020;}.cls-14{fill:#b6191b;}.cls-15{fill:#f2a122;}.cls-16{fill:#ef7d12;}.cls-17{fill:#ea5a25;}.cls-18{fill:#881819;}.cls-19{fill:#f1d40b;}.cls-20{fill:#020203;}</style></defs><title>Logo_ConvencionConstitucional_1</title><g id="Capa_2" data-name="Capa 2"><g id="Capa_1-2" data-name="Capa 1"><path class="cls-1" d="M39.77,145.8a9.72,9.72,0,0,1-5.1-1.5A9.34,9.34,0,0,1,32,131.4a295.88,295.88,0,0,1,24.9-32.9A9.32,9.32,0,0,1,70,97.6a9.44,9.44,0,0,1,.9,13.2,268.51,268.51,0,0,0-23.4,30.8A9,9,0,0,1,39.77,145.8Z"/><path class="cls-2" d="M105.67,74.5a9.15,9.15,0,0,1-7.5-3.8,9.27,9.27,0,0,1,1.9-13,280.88,280.88,0,0,1,34.8-22.2,9.3,9.3,0,0,1,12.6,3.8,9.41,9.41,0,0,1-3.8,12.7,263.41,263.41,0,0,0-32.5,20.8A9.67,9.67,0,0,1,105.67,74.5Z"/><path class="cls-3" d="M197.77,28.8a9.28,9.28,0,0,1-9-6.9,9.44,9.44,0,0,1,6.6-11.5,293,293,0,0,1,40.5-8,9.41,9.41,0,0,1,10.4,8.1,9.28,9.28,0,0,1-8.1,10.4,270,270,0,0,0-37.9,7.4A5.87,5.87,0,0,1,197.77,28.8Z"/><path class="cls-4" d="M9.37,209a10.47,10.47,0,0,1-3-.5,9.37,9.37,0,0,1-5.9-11.8c1.7-5.2,3.7-10.6,5.8-15.7a9.38,9.38,0,0,1,17.4,7c-1.9,4.8-3.8,9.8-5.4,14.7A9.67,9.67,0,0,1,9.37,209Z"/><path class="cls-5" d="M107.47,141.4a9.72,9.72,0,0,1-6.4-2.5,9.33,9.33,0,0,1-.4-13.2,239.54,239.54,0,0,1,33-29.1,9.3,9.3,0,0,1,11,15,215.92,215.92,0,0,0-30.4,26.9A8.86,8.86,0,0,1,107.47,141.4Z"/><path class="cls-6" d="M194.07,83.7a9.36,9.36,0,0,1-8.7-6.1,9.51,9.51,0,0,1,5.6-12,241.63,241.63,0,0,1,42.5-11.1,9.23,9.23,0,0,1,10.7,7.7,9.38,9.38,0,0,1-7.7,10.8,221.54,221.54,0,0,0-39.2,10.2A12.48,12.48,0,0,1,194.07,83.7Z"/><path class="cls-7" d="M63.47,209a11.49,11.49,0,0,1-3.6-.7,9.38,9.38,0,0,1-5-12.2,247.82,247.82,0,0,1,12.2-24.8,9.34,9.34,0,1,1,16.2,9.3A202.85,202.85,0,0,0,72,203.5,9.09,9.09,0,0,1,63.47,209Z"/><path class="cls-8" d="M120,209a9.57,9.57,0,0,1-4.6-1.2A9.42,9.42,0,0,1,112,195a191.17,191.17,0,0,1,29-38,9.33,9.33,0,0,1,13.3,13.1,169.55,169.55,0,0,0-26.1,34.1A9.52,9.52,0,0,1,120,209Z"/><path class="cls-9" d="M199.67,135.8a9.37,9.37,0,0,1-3.9-17.9,187.24,187.24,0,0,1,45.8-13.6,9.37,9.37,0,0,1,3,18.5,168.46,168.46,0,0,0-41.2,12.2A9.46,9.46,0,0,1,199.67,135.8Z"/><circle class="cls-10" cx="272.07" cy="112.7" r="9.4"/><circle class="cls-10" cx="171.47" cy="145.3" r="9.4"/><path class="cls-11" d="M424.17,209a9.19,9.19,0,0,1-8-4.6,166,166,0,0,0-26.1-34.1,9.33,9.33,0,1,1,13.3-13.1,184.75,184.75,0,0,1,29,38A9.54,9.54,0,0,1,429,208,14.22,14.22,0,0,1,424.17,209Z"/><path class="cls-12" d="M344.57,135.8a10.8,10.8,0,0,1-3.8-.8,167.17,167.17,0,0,0-41.2-12.2,9.23,9.23,0,0,1-7.7-10.7,9.37,9.37,0,0,1,10.7-7.8,185.48,185.48,0,0,1,45.8,13.6,9.37,9.37,0,0,1-3.8,17.9Z"/><circle class="cls-10" cx="372.67" cy="145.3" r="9.4"/><circle class="cls-10" cx="89.77" cy="152.9" r="9.4"/><circle class="cls-10" cx="165.67" cy="86.7" r="9.4"/><circle class="cls-10" cx="272.07" cy="59.9" r="9.4"/><path class="cls-13" d="M436.57,141.4a9.55,9.55,0,0,1-6.8-2.9,221.65,221.65,0,0,0-30.4-26.9,9.3,9.3,0,1,1,11-15,253.58,253.58,0,0,1,33,29.1,9.42,9.42,0,0,1-.4,13.2A8.66,8.66,0,0,1,436.57,141.4Z"/><path class="cls-14" d="M350.17,83.7a11.15,11.15,0,0,1-3.1-.5A221.54,221.54,0,0,0,307.87,73a9.4,9.4,0,0,1-7.7-10.8,9.16,9.16,0,0,1,10.7-7.7,239.37,239.37,0,0,1,42.5,11.1,9.43,9.43,0,0,1,5.6,12A9.7,9.7,0,0,1,350.17,83.7Z"/><path class="cls-15" d="M480.67,209a9.21,9.21,0,0,1-8.6-5.7,221.06,221.06,0,0,0-11.3-22.9,9.48,9.48,0,0,1,3.5-12.8,9.34,9.34,0,0,1,12.7,3.5,237.31,237.31,0,0,1,12.2,24.8,9.29,9.29,0,0,1-5,12.2A6.32,6.32,0,0,1,480.67,209Z"/><circle class="cls-10" cx="454.37" cy="152.9" r="9.4"/><circle class="cls-10" cx="378.47" cy="86.7" r="9.4"/><circle class="cls-10" cx="24.47" cy="161.7" r="9.4"/><circle class="cls-10" cx="82.77" cy="84.7" r="9.4"/><circle class="cls-10" cx="168.17" cy="29.6" r="9.4"/><circle class="cls-10" cx="272.07" cy="9.4" r="9.4"/><path class="cls-16" d="M504.37,145.8a9.3,9.3,0,0,1-7.8-4.2,260.07,260.07,0,0,0-23.4-30.8,9.35,9.35,0,0,1,.9-13.2,9.14,9.14,0,0,1,13.1.9,273.25,273.25,0,0,1,24.9,32.9,9.34,9.34,0,0,1-2.7,12.9A8.18,8.18,0,0,1,504.37,145.8Z"/><path class="cls-17" d="M438.37,74.5a10,10,0,0,1-5.6-1.8,271.13,271.13,0,0,0-32.5-20.8,9.35,9.35,0,0,1,8.8-16.5,293.05,293.05,0,0,1,34.8,22.2,9.28,9.28,0,0,1,1.9,13A8.69,8.69,0,0,1,438.37,74.5Z"/><path class="cls-18" d="M346.37,28.8a9.28,9.28,0,0,1-2.4-.3,270,270,0,0,0-37.9-7.4A9.28,9.28,0,0,1,298,10.7a9.21,9.21,0,0,1,10.4-8.1,293,293,0,0,1,40.5,8,9.39,9.39,0,0,1,6.6,11.5A9.67,9.67,0,0,1,346.37,28.8Z"/><path class="cls-19" d="M534.87,209a9.18,9.18,0,0,1-8.8-6.4c-1.7-4.9-3.5-9.9-5.4-14.7a9.38,9.38,0,0,1,17.4-7c2.1,5.2,4,10.4,5.8,15.7a9.29,9.29,0,0,1-5.9,11.8A7.12,7.12,0,0,1,534.87,209Z"/><circle class="cls-10" cx="519.67" cy="161.7" r="9.4"/><circle class="cls-10" cx="461.37" cy="84.7" r="9.4" transform="translate(297.91 524.38) rotate(-80.01)"/><circle class="cls-10" cx="375.97" cy="29.6" r="9.4"/><path class="cls-20" d="M9,303.9a29.2,29.2,0,0,0,9.5,6.3,29.59,29.59,0,0,0,11.6,2.2,36.88,36.88,0,0,0,6.5-.7,30.91,30.91,0,0,0,6.1-1.9,48,48,0,0,0,5.1-2.6,2,2,0,0,0,1.1-1.7,2.88,2.88,0,0,0-.5-2,3.35,3.35,0,0,0-1.7-1,2.67,2.67,0,0,0-1.8.3,31.52,31.52,0,0,1-7,3.2,25.15,25.15,0,0,1-7.9,1.2,24.73,24.73,0,0,1-9.5-1.8,25.37,25.37,0,0,1-7.8-5.2,24.74,24.74,0,0,1-5.3-8.1,29.85,29.85,0,0,1-1.8-10.6,28.19,28.19,0,0,1,1.8-10.3,23.5,23.5,0,0,1,5.2-8.1,22.06,22.06,0,0,1,7.8-5.3,25.75,25.75,0,0,1,9.7-1.8,26.73,26.73,0,0,1,8,1.2,27.45,27.45,0,0,1,6.9,3.3,3.81,3.81,0,0,0,1.8.3,1.76,1.76,0,0,0,1.5-.9,2.86,2.86,0,0,0,.6-2.1,2.59,2.59,0,0,0-1.2-1.7,26.17,26.17,0,0,0-8.1-3.8,29.33,29.33,0,0,0-9.4-1.4,28.75,28.75,0,0,0-11.7,2.3A29.75,29.75,0,0,0,9,259.7a30.63,30.63,0,0,0-8.9,21.9,32.15,32.15,0,0,0,2.4,12.6A27.17,27.17,0,0,0,9,303.9Z"/><path class="cls-20" d="M63.87,303.6A27.8,27.8,0,0,0,73,310a28.79,28.79,0,0,0,11.5,2.3A29.15,29.15,0,0,0,96,310a25.48,25.48,0,0,0,9.1-6.4,28.91,28.91,0,0,0,6-9.7,34.91,34.91,0,0,0,2.1-12.3,34.51,34.51,0,0,0-2.1-12.3,28.32,28.32,0,0,0-6-9.7,26.79,26.79,0,0,0-9.1-6.4,29.9,29.9,0,0,0-23,0,25.48,25.48,0,0,0-9.1,6.4,28.69,28.69,0,0,0-5.9,9.7,35.31,35.31,0,0,0-2.1,12.3A34.91,34.91,0,0,0,58,293.9,28.43,28.43,0,0,0,63.87,303.6Zm.5-35.5a23,23,0,0,1,8.2-9,22,22,0,0,1,12-3.2,21.55,21.55,0,0,1,12,3.2,23.54,23.54,0,0,1,8.1,9,31.43,31.43,0,0,1,0,26.8,23.54,23.54,0,0,1-8.1,9,21.55,21.55,0,0,1-12,3.2,22,22,0,0,1-12-3.2,22.28,22.28,0,0,1-8.2-9,28.48,28.48,0,0,1-3-13.4A30,30,0,0,1,64.37,268.1Z"/><path class="cls-20" d="M169,251.6a3.49,3.49,0,0,0-1.7.6,2.61,2.61,0,0,0-.7,1.7V302l-36.8-49.6a2.55,2.55,0,0,0-1-.7,5.16,5.16,0,0,0-1.1-.2,2.61,2.61,0,0,0-1.7.7,2.48,2.48,0,0,0-.7,1.8v54.9a2.52,2.52,0,0,0,.6,1.7,2.61,2.61,0,0,0,1.7.7,2.87,2.87,0,0,0,1.8-.7,2.84,2.84,0,0,0,.7-1.7V261.1l36.7,49.4a2,2,0,0,0,.9.6,3.59,3.59,0,0,0,1.1.2,2.41,2.41,0,0,0,1.8-.7,2.63,2.63,0,0,0,.8-2V253.9a2.35,2.35,0,0,0-.6-1.7A3.51,3.51,0,0,0,169,251.6Z"/><path class="cls-20" d="M182.57,255.5l22.7,54.4a2,2,0,0,0,1,1.2,2.82,2.82,0,0,0,1.5.4,3.26,3.26,0,0,0,1.4-.4,2.76,2.76,0,0,0,1.1-1.3l22.8-54.5a3.46,3.46,0,0,0,.3-1.2,2.14,2.14,0,0,0-.7-1.8,2.94,2.94,0,0,0-1.9-.7,3,3,0,0,0-2.5,1.7L208,302.9l-20.6-49.4a2.54,2.54,0,0,0-2.5-1.8,2.84,2.84,0,0,0-1.7.7,2,2,0,0,0-.9,1.8,1.7,1.7,0,0,0,.1.7A1.42,1.42,0,0,0,182.57,255.5Z"/><path class="cls-20" d="M246.87,311.5h31.3a2.87,2.87,0,0,0,1.8-.7,2.42,2.42,0,0,0,0-3.6,2.34,2.34,0,0,0-1.8-.8h-28.4V283.2h24.6a2.87,2.87,0,0,0,1.8-.7,2.5,2.5,0,0,0,.8-1.8,2.46,2.46,0,0,0-.8-1.7,2.34,2.34,0,0,0-1.8-.8h-24.6V256.8h28.4a2.87,2.87,0,0,0,1.8-.7,2.14,2.14,0,0,0,.8-1.7,2.5,2.5,0,0,0-.8-1.8,2.67,2.67,0,0,0-1.8-.7h-31.3a2.4,2.4,0,0,0-2.5,2.5v54.7a2.41,2.41,0,0,0,.7,1.8A3.51,3.51,0,0,0,246.87,311.5Z"/><path class="cls-20" d="M295.27,311.5a2.87,2.87,0,0,0,1.8-.7,2.84,2.84,0,0,0,.7-1.7V261.3l36.7,49.3a2,2,0,0,0,.9.6,3.59,3.59,0,0,0,1.1.2,2.41,2.41,0,0,0,1.8-.7,2.63,2.63,0,0,0,.8-2V254a2.35,2.35,0,0,0-.6-1.7,2.41,2.41,0,0,0-1.7-.7,2.39,2.39,0,0,0-2.4,2.4v48.1l-36.8-49.6a1.83,1.83,0,0,0-1-.7,5.16,5.16,0,0,0-1.1-.2,2.61,2.61,0,0,0-1.7.7,2.48,2.48,0,0,0-.7,1.8v55.1a2.52,2.52,0,0,0,.6,1.7A2,2,0,0,0,295.27,311.5Z"/><path class="cls-20" d="M387.67,311.7a30.91,30.91,0,0,0,6.1-1.9,48,48,0,0,0,5.1-2.6,2,2,0,0,0,1.1-1.7,2.88,2.88,0,0,0-.5-2,3,3,0,0,0-1.7-1,2.67,2.67,0,0,0-1.8.3,29.58,29.58,0,0,1-7,3.2,25.61,25.61,0,0,1-7.9,1.2,24.73,24.73,0,0,1-9.5-1.8,25.37,25.37,0,0,1-7.8-5.2,23,23,0,0,1-5.2-8.1,29.85,29.85,0,0,1-1.8-10.6,28.19,28.19,0,0,1,1.8-10.3,23.5,23.5,0,0,1,5.2-8.1,22.06,22.06,0,0,1,7.8-5.3,25.75,25.75,0,0,1,9.7-1.8,26.73,26.73,0,0,1,8,1.2,27.45,27.45,0,0,1,6.9,3.3,3.81,3.81,0,0,0,1.8.3,1.89,1.89,0,0,0,1.5-.9,2.86,2.86,0,0,0,.6-2.1,2.59,2.59,0,0,0-1.2-1.7,26.17,26.17,0,0,0-8.1-3.8,29.33,29.33,0,0,0-9.4-1.4,28.42,28.42,0,0,0-11.7,2.3,29.75,29.75,0,0,0-9.5,6.5,30.63,30.63,0,0,0-8.9,21.9,32.15,32.15,0,0,0,2.4,12.6,28.78,28.78,0,0,0,6.6,9.7,30.3,30.3,0,0,0,9.5,6.3,29.59,29.59,0,0,0,11.6,2.2A28.91,28.91,0,0,0,387.67,311.7Z"/><path class="cls-20" d="M413.67,311.5a2.5,2.5,0,0,0,1.8-.8,2.83,2.83,0,0,0,.9-1.8V254.4a2.74,2.74,0,0,0-2.6-2.6,2.56,2.56,0,0,0-1.9.8,2.34,2.34,0,0,0-.8,1.8v54.5a2.87,2.87,0,0,0,.7,1.8A2.27,2.27,0,0,0,413.67,311.5Z"/><path class="cls-20" d="M483.57,293.9a34.91,34.91,0,0,0,2.1-12.3,34.51,34.51,0,0,0-2.1-12.3,29.7,29.7,0,0,0-5.9-9.7,26.79,26.79,0,0,0-9.1-6.4,28.79,28.79,0,0,0-11.5-2.3,29.28,29.28,0,0,0-11.6,2.3,26.79,26.79,0,0,0-9.1,6.4,28.91,28.91,0,0,0-6,9.7,35.31,35.31,0,0,0-2.1,12.3,34.91,34.91,0,0,0,2.1,12.3,29.3,29.3,0,0,0,6,9.7,27.8,27.8,0,0,0,9.1,6.4,30.15,30.15,0,0,0,23.1,0,25.48,25.48,0,0,0,9.1-6.4A29.7,29.7,0,0,0,483.57,293.9Zm-14.5,10a21.55,21.55,0,0,1-12,3.2,22,22,0,0,1-12-3.2,22.28,22.28,0,0,1-8.2-9,31.43,31.43,0,0,1,0-26.8,23,23,0,0,1,8.2-9,22,22,0,0,1,12-3.2,21.77,21.77,0,0,1,12,3.2,23.54,23.54,0,0,1,8.1,9,31.43,31.43,0,0,1,0,26.8A22.84,22.84,0,0,1,469.07,303.9Z"/><path class="cls-20" d="M457.17,247.7a1.73,1.73,0,0,1,1,.1,3.18,3.18,0,0,1,.9-.3l8.4-4.2a2.58,2.58,0,0,0,1.2-1.1,2.93,2.93,0,0,0,.4-1.6,2.41,2.41,0,0,0-.7-1.8,2.87,2.87,0,0,0-1.8-.7,3.19,3.19,0,0,0-1.4.3,3.88,3.88,0,0,0-1.1.6l-7.6,5.9a2,2,0,0,0-.6.7,2.35,2.35,0,0,0-.2.8,1.28,1.28,0,0,0,.4,1A2.07,2.07,0,0,0,457.17,247.7Z"/><path class="cls-20" d="M500.17,311.5a2.41,2.41,0,0,0,1.7-.7,2.84,2.84,0,0,0,.7-1.7V261.3l36.7,49.3a2,2,0,0,0,.9.6,3.59,3.59,0,0,0,1.1.2,2.41,2.41,0,0,0,1.8-.7,2.63,2.63,0,0,0,.8-2V254a2.35,2.35,0,0,0-.6-1.7,2.48,2.48,0,0,0-1.8-.7,2.41,2.41,0,0,0-1.7.7,2.61,2.61,0,0,0-.7,1.7v48.1l-36.8-49.6a1.83,1.83,0,0,0-1-.7,5.16,5.16,0,0,0-1.1-.2,3.12,3.12,0,0,0-1.8.7,2.48,2.48,0,0,0-.7,1.8v55.1a2.52,2.52,0,0,0,.6,1.7A3.29,3.29,0,0,0,500.17,311.5Z"/><path class="cls-20" d="M33.77,363.8a4,4,0,0,0-2.6.4,10.69,10.69,0,0,1-3.3,1.1,14.21,14.21,0,0,1-3.5.3,16.63,16.63,0,0,1-5.9-1,12,12,0,0,1-4.7-2.9,13.9,13.9,0,0,1-3.2-4.9,17.65,17.65,0,0,1-1.1-6.8,17,17,0,0,1,1-6.1,13.16,13.16,0,0,1,2.9-4.8A12.09,12.09,0,0,1,18,336a15.24,15.24,0,0,1,6.2-1.1,21,21,0,0,1,3.6.3,30.05,30.05,0,0,1,3.2,1.1,4.85,4.85,0,0,0,2.6.5,2.85,2.85,0,0,0,2.2-1.3,4.2,4.2,0,0,0,1-3.3,3.4,3.4,0,0,0-1.9-2.6,15.31,15.31,0,0,0-4.9-1.8,26,26,0,0,0-14.8,1.1,22.6,22.6,0,0,0-7.3,4.8,20.19,20.19,0,0,0-4.8,7.3,25.09,25.09,0,0,0-1.7,9.2,26,26,0,0,0,1.8,10.1,20,20,0,0,0,5.1,7.3,22,22,0,0,0,7.4,4.4,25.26,25.26,0,0,0,8.7,1.5,24,24,0,0,0,3.7-.3c1.2-.3,2.4-.5,3.6-.9a34.54,34.54,0,0,0,3.4-1.4,3.25,3.25,0,0,0,1.9-2.5,3.86,3.86,0,0,0-1-3.3A3.93,3.93,0,0,0,33.77,363.8Z"/><path class="cls-20" d="M78.77,333.6a20.42,20.42,0,0,0-6.9-5,22.17,22.17,0,0,0-17.5,0,19.16,19.16,0,0,0-6.9,5A21.66,21.66,0,0,0,43,341a26.68,26.68,0,0,0,0,18.2,24.07,24.07,0,0,0,4.5,7.4,21.45,21.45,0,0,0,6.9,5,21.18,21.18,0,0,0,8.7,1.8,21.65,21.65,0,0,0,8.8-1.8,20.06,20.06,0,0,0,6.9-5,21.66,21.66,0,0,0,4.5-7.4,26.68,26.68,0,0,0,0-18.2A24.07,24.07,0,0,0,78.77,333.6ZM74.87,358a13.62,13.62,0,0,1-4.7,5.6,12.72,12.72,0,0,1-14,0,13.62,13.62,0,0,1-4.7-5.6,18.65,18.65,0,0,1-1.7-7.9,17.26,17.26,0,0,1,1.7-7.9,13.62,13.62,0,0,1,4.7-5.6,12.72,12.72,0,0,1,14,0,13.62,13.62,0,0,1,4.7,5.6,18.24,18.24,0,0,1,0,15.8Z"/><path class="cls-20" d="M126.27,327.5a3,3,0,0,0-2.5,1,4,4,0,0,0-1,2.6v28L99.37,329a4,4,0,0,0-1.4-1.1,3.81,3.81,0,0,0-1.8-.3,3.69,3.69,0,0,0-2.8,1.1,3.55,3.55,0,0,0-1.1,2.8v37.8a3.54,3.54,0,0,0,1,2.6,3.32,3.32,0,0,0,2.5,1,3.8,3.8,0,0,0,2.6-1,4,4,0,0,0,1-2.6V341.7l23.5,30.2a2.42,2.42,0,0,0,1.3.8,4.67,4.67,0,0,0,1.7.3,3.69,3.69,0,0,0,2.8-1.1,3.55,3.55,0,0,0,1.1-2.8V331.3a3.39,3.39,0,0,0-1-2.6A2.69,2.69,0,0,0,126.27,327.5Z"/><path class="cls-20" d="M166.47,350.3a12.84,12.84,0,0,0-4.8-2.5,65,65,0,0,0-6.7-1.7,26.91,26.91,0,0,1-5.1-1.3,6.78,6.78,0,0,1-3.2-2,4.47,4.47,0,0,1-1.1-3.2,4.27,4.27,0,0,1,1-2.9,6.69,6.69,0,0,1,2.9-1.9,14.84,14.84,0,0,1,4.6-.7,16.34,16.34,0,0,1,3.6.5c1.3.4,2.5.9,3.7,1.4a13.7,13.7,0,0,1,2.8,1.7,2.72,2.72,0,0,0,1.7.6,3.07,3.07,0,0,0,2.5-1.1,4,4,0,0,0,1.1-2.6,4.32,4.32,0,0,0-1.8-3.4,16.86,16.86,0,0,0-5.8-3.2,23.9,23.9,0,0,0-7.7-1.2,19.86,19.86,0,0,0-8.1,1.6,13.81,13.81,0,0,0-5.8,4.5,11.63,11.63,0,0,0-2.2,7.2,13.48,13.48,0,0,0,.9,5,9.94,9.94,0,0,0,2.6,3.8,14.35,14.35,0,0,0,4.4,2.7,33.87,33.87,0,0,0,6.1,1.6,24.89,24.89,0,0,1,6,1.5,7.66,7.66,0,0,1,3.5,2.3,4.88,4.88,0,0,1,1.1,3.3,4.36,4.36,0,0,1-1.2,2.9,8.71,8.71,0,0,1-3.2,2,12.31,12.31,0,0,1-4.4.8,14.11,14.11,0,0,1-5.9-1.1,18.57,18.57,0,0,1-4.8-3.1,3.49,3.49,0,0,0-2.2-.8,3.27,3.27,0,0,0-2.6,1.1,4,4,0,0,0-1.1,2.6,5.84,5.84,0,0,0,.4,1.8,7,7,0,0,0,1.3,1.7,19.94,19.94,0,0,0,6.8,4,25.39,25.39,0,0,0,8,1.1,18.4,18.4,0,0,0,8.1-1.7,15.33,15.33,0,0,0,6-4.6,12,12,0,0,0,2.3-7.3,15.56,15.56,0,0,0-1-5.6A7.68,7.68,0,0,0,166.47,350.3Z"/><path class="cls-20" d="M207.17,327.5h-28.4a4,4,0,0,0-2.8,1,3.86,3.86,0,0,0,0,5.4,4.11,4.11,0,0,0,2.8,1.1h10.1v33.9a3.69,3.69,0,0,0,1.1,2.8,4.64,4.64,0,0,0,6,0,3.63,3.63,0,0,0,1.2-2.8V335h10.1a4,4,0,0,0,2.8-1,3.86,3.86,0,0,0,0-5.4A4.07,4.07,0,0,0,207.17,327.5Z"/><path class="cls-20" d="M222.07,327.5a4,4,0,0,0-3,1.1,3.55,3.55,0,0,0-1.1,2.8v37.4a3.69,3.69,0,0,0,1.1,2.8,3.63,3.63,0,0,0,2.9,1.1,3.84,3.84,0,0,0,2.8-1.1,3.63,3.63,0,0,0,1.2-2.8h.1V331.4a3.78,3.78,0,0,0-1.2-2.8A4,4,0,0,0,222.07,327.5Z"/><path class="cls-20" d="M265,327.5h-28.4a4,4,0,0,0-2.8,1,3.34,3.34,0,0,0-1.1,2.7,3.69,3.69,0,0,0,1.1,2.7,4.11,4.11,0,0,0,2.8,1.1h10.1v33.9a3.69,3.69,0,0,0,1.1,2.8,4.64,4.64,0,0,0,6,0,3.63,3.63,0,0,0,1.2-2.8V335h10.1a4,4,0,0,0,2.8-1,3.86,3.86,0,0,0,0-5.4A3.91,3.91,0,0,0,265,327.5Z"/><path class="cls-20" d="M307.47,327.4a2.73,2.73,0,0,0-2.5,1.1,4.34,4.34,0,0,0-1,2.8v23.4a10.19,10.19,0,0,1-1.5,5.6,10.63,10.63,0,0,1-3.9,3.7,10.3,10.3,0,0,1-5.2,1.3,9.12,9.12,0,0,1-4.8-1.3,9.4,9.4,0,0,1-3.7-3.7,10.15,10.15,0,0,1-1.4-5.6V331.3a3.78,3.78,0,0,0-1.2-2.8,3.56,3.56,0,0,0-2.6-1.1,4,4,0,0,0-3,1.1,3.55,3.55,0,0,0-1.1,2.8v23.4a19.64,19.64,0,0,0,2.3,9.5,17.11,17.11,0,0,0,6.3,6.5,17.89,17.89,0,0,0,9.3,2.4,17.64,17.64,0,0,0,9.3-2.4,16.86,16.86,0,0,0,6.2-6.5,19.64,19.64,0,0,0,2.3-9.5V331.3a4,4,0,0,0-1-2.8A3.42,3.42,0,0,0,307.47,327.4Z"/><path class="cls-20" d="M351.27,363.8a3.91,3.91,0,0,0-2.6.4,9.89,9.89,0,0,1-3.3,1.1,14.21,14.21,0,0,1-3.5.3,16.63,16.63,0,0,1-5.9-1,12,12,0,0,1-4.7-2.9,12.45,12.45,0,0,1-3.1-4.9,17.65,17.65,0,0,1-1.1-6.8,17,17,0,0,1,1-6.1,13.16,13.16,0,0,1,2.9-4.8,12.09,12.09,0,0,1,4.6-3.1,15.24,15.24,0,0,1,6.2-1.1,21.86,21.86,0,0,1,3.6.3,30.05,30.05,0,0,1,3.2,1.1,5,5,0,0,0,2.6.5,2.85,2.85,0,0,0,2.2-1.3,4.2,4.2,0,0,0,1-3.3,3.4,3.4,0,0,0-1.9-2.6,16.22,16.22,0,0,0-4.9-1.8,26,26,0,0,0-14.8,1.1,23,23,0,0,0-7.4,4.8,20.19,20.19,0,0,0-4.8,7.3,25.09,25.09,0,0,0-1.7,9.2,26,26,0,0,0,1.8,10.1,20,20,0,0,0,5.1,7.3,22,22,0,0,0,7.4,4.4,25.26,25.26,0,0,0,8.7,1.5,24,24,0,0,0,3.7-.3c1.2-.3,2.4-.5,3.6-.9a24.4,24.4,0,0,0,3.4-1.4,3.47,3.47,0,0,0,1.9-2.5,3.86,3.86,0,0,0-1-3.3A3.38,3.38,0,0,0,351.27,363.8Z"/><path class="cls-20" d="M365.27,327.5a4,4,0,0,0-3,1.1,3.55,3.55,0,0,0-1.1,2.8v37.4a3.69,3.69,0,0,0,1.1,2.8,3.63,3.63,0,0,0,2.9,1.1,3.84,3.84,0,0,0,2.8-1.1,3.63,3.63,0,0,0,1.2-2.8h.1V331.4a3.78,3.78,0,0,0-1.2-2.8A4,4,0,0,0,365.27,327.5Z"/><path class="cls-20" d="M413.87,333.6a20.42,20.42,0,0,0-6.9-5,21.92,21.92,0,0,0-17.4,0,19.16,19.16,0,0,0-6.9,5,21.66,21.66,0,0,0-4.5,7.4,26.68,26.68,0,0,0,0,18.2,24.07,24.07,0,0,0,4.5,7.4,21.45,21.45,0,0,0,6.9,5,21.93,21.93,0,0,0,17.4,0,20.06,20.06,0,0,0,6.9-5,21.66,21.66,0,0,0,4.5-7.4,27.18,27.18,0,0,0,1.6-9.1,24.9,24.9,0,0,0-1.6-9.1A22.28,22.28,0,0,0,413.87,333.6ZM410,358a13.62,13.62,0,0,1-4.7,5.6,12.72,12.72,0,0,1-14,0,13.62,13.62,0,0,1-4.7-5.6,18.65,18.65,0,0,1-1.7-7.9,17.26,17.26,0,0,1,1.7-7.9,13.62,13.62,0,0,1,4.7-5.6,12.72,12.72,0,0,1,14,0,13.62,13.62,0,0,1,4.7,5.6,18.24,18.24,0,0,1,0,15.8Z"/><path class="cls-20" d="M461.37,327.5a3,3,0,0,0-2.5,1,4,4,0,0,0-1,2.6v28L434.47,329a4,4,0,0,0-1.4-1.1,3.81,3.81,0,0,0-1.8-.3,3.69,3.69,0,0,0-2.8,1.1,3.55,3.55,0,0,0-1.1,2.8v37.8a4,4,0,0,0,1,2.6,3.32,3.32,0,0,0,2.5,1,3.8,3.8,0,0,0,2.6-1,4,4,0,0,0,1-2.6V341.7L458,371.9a2.87,2.87,0,0,0,1.3.8,4.67,4.67,0,0,0,1.7.3,3.69,3.69,0,0,0,2.8-1.1,3.55,3.55,0,0,0,1.1-2.8V331.3a3.39,3.39,0,0,0-1-2.6A2.69,2.69,0,0,0,461.37,327.5Z"/><path class="cls-20" d="M494.07,329.8a3.24,3.24,0,0,0-1.5-1.9,4.39,4.39,0,0,0-2.2-.7,3.79,3.79,0,0,0-2.3.6,4.09,4.09,0,0,0-1.6,2l-16,38.8a6,6,0,0,0-.2,1.2,3.58,3.58,0,0,0,.9,2.4,3.22,3.22,0,0,0,2.5,1,3.72,3.72,0,0,0,2-.7,4,4,0,0,0,1.4-1.9l3.3-7.9h19.1l3.4,8a4.13,4.13,0,0,0,1.5,1.9,3.44,3.44,0,0,0,4.6-.4,3.55,3.55,0,0,0,1.1-2.8,11,11,0,0,0-.3-1.6Zm-10.5,25.4L490,340l6.5,15.2Z"/><path class="cls-20" d="M543.07,366.2a4,4,0,0,0-2.8-1v-.1h-16.7V331.3a3.78,3.78,0,0,0-1.2-2.8,3.62,3.62,0,0,0-2.7-1.1,4,4,0,0,0-3,1.1,3.55,3.55,0,0,0-1.1,2.8v37.4a3.76,3.76,0,0,0,3.9,3.9h20.8a4.11,4.11,0,0,0,2.8-1.1,3.48,3.48,0,0,0,1.1-2.7A3.41,3.41,0,0,0,543.07,366.2Z"/></g></g></svg>