<svg xmlns="http://www.w3.org/2000/svg" viewBox="0 0 98.1 80.28"><defs><style>.cls-1{fill:#0b3d91;}.cls-2{fill:#fff;}.cls-3{fill:#fc3d21;}</style></defs><title>Logo_NASA</title><g id="Capa_2" data-name="Capa 2"><g id="Capa_1-2" data-name="Capa 1"><circle class="cls-1" cx="45.6" cy="40.14" r="40.14"/><circle class="cls-2" cx="43.23" cy="7.71" r="0.45"/><circle class="cls-2" cx="47.85" cy="8.31" r="0.45"/><circle class="cls-2" cx="53.91" cy="16.47" r="0.45"/><circle class="cls-2" cx="20.67" cy="58.47" r="0.45"/><circle class="cls-2" cx="21.84" cy="62.07" r="0.45"/><circle class="cls-2" cx="16.26" cy="59.01" r="0.34"/><circle class="cls-2" cx="34.56" cy="66.08" r="0.34"/><circle class="cls-2" cx="63.26" cy="60.12" r="0.34"/><circle class="cls-2" cx="71.6" cy="51.06" r="0.34"/><circle class="cls-2" cx="30.72" cy="19.1" r="0.34"/><circle class="cls-2" cx="39.9" cy="12.36" r="0.34"/><circle class="cls-2" cx="38.9" cy="11.7" r="0.34"/><circle class="cls-2" cx="38" cy="11.04" r="0.34"/><circle class="cls-2" cx="32.16" cy="20.84" r="0.34"/><circle class="cls-2" cx="45.68" cy="3.3" r="0.34"/><circle class="cls-2" cx="47.9" cy="13.02" r="0.34"/><circle class="cls-2" cx="44.4" cy="11.12" r="0.34"/><circle class="cls-2" cx="38.4" cy="13.7" r="0.34"/><circle class="cls-2" cx="64.86" cy="69.02" r="0.34"/><circle class="cls-2" cx="20.1" cy="60.75" r="0.34"/><circle class="cls-2" cx="43.56" cy="65.1" r="0.34"/><circle class="cls-2" cx="27.08" cy="60.48" r="0.34"/><circle class="cls-2" cx="30" cy="65.24" r="0.34"/><circle class="cls-2" cx="51.48" cy="62.24" r="0.34"/><circle class="cls-2" cx="63.32" cy="55.56" r="0.34"/><circle class="cls-2" cx="72.3" cy="59.66" r="0.34"/><circle class="cls-2" cx="75.36" cy="61.62" r="0.34"/><circle class="cls-2" cx="75.86" cy="56.28" r="0.34"/><circle class="cls-2" cx="31.22" cy="48.72" r="0.34"/><circle class="cls-2" cx="31.35" cy="56.46" r="0.45"/><circle class="cls-2" cx="34.05" cy="62.16" r="0.45"/><circle class="cls-2" cx="66.39" cy="56.22" r="0.45"/><circle class="cls-2" cx="78.03" cy="55.56" r="0.45"/><circle class="cls-2" cx="72.27" cy="53.1" r="0.45"/><circle class="cls-2" cx="66.39" cy="53.34" r="0.45"/><path class="cls-2" d="M54.26,7.43l1.12-.11-1.12-.06a.49.49,0,0,0-.42-.42l-.11-1.11-.06,1.12a.5.5,0,0,0-.38.43l-1.15.1,1.15.06a.49.49,0,0,0,.4.38L53.79,9l.06-1.14A.51.51,0,0,0,54.26,7.43Z"/><path class="cls-2" d="M35.38,19.89l1.12-.11-1.12-.06A.51.51,0,0,0,35,19.3l-.1-1.11-.07,1.12a.5.5,0,0,0-.38.43l-1.14.1,1.15.06a.49.49,0,0,0,.39.38l.11,1.15L35,20.28A.5.5,0,0,0,35.38,19.89Z"/><path class="cls-2" d="M77.21,52.82l1.12-.1-1.12-.07a.49.49,0,0,0-.42-.41l-.11-1.11-.06,1.12a.5.5,0,0,0-.39.42l-1.14.11,1.15.06a.5.5,0,0,0,.4.38l.1,1.15.06-1.15A.49.49,0,0,0,77.21,52.82Z"/><path class="cls-2" d="M31.6,70.05l1.12-.11-1.12-.06a.51.51,0,0,0-.43-.42l-.1-1.11L31,69.47a.5.5,0,0,0-.38.43l-1.14.1,1.15.06a.49.49,0,0,0,.39.38l.11,1.15.06-1.15A.5.5,0,0,0,31.6,70.05Z"/><path class="cls-2" d="M73.66,61.65l1.12-.11-1.12-.06a.51.51,0,0,0-.43-.42L73.13,60l-.07,1.12a.49.49,0,0,0-.38.42l-1.14.11,1.15.06a.51.51,0,0,0,.39.38l.11,1.15L73.25,62A.5.5,0,0,0,73.66,61.65Z"/><path class="cls-3" d="M55.12,30.52C50.45,32.34,45.9,34,42.06,35.16,34.26,37.6,12.9,44.22,0,52.56L1.08,53A78.73,78.73,0,0,1,19,45.6c5.34-1.68,22.6-5.72,30.42-7.92,2.64-.74,5.73-1.72,9-2.9-.76-1.06-1.57-2.13-2.41-3.19C55.7,31.23,55.41,30.87,55.12,30.52Zm5.7,7.86c-1.13.77-2.08,1.38-2.74,1.76-3.84,2.22-22.56,15-26.82,17.94S15.18,72.18,11.7,75.42l-.12,1.32a232.09,232.09,0,0,1,19.2-16c5.52-4.2,16.94-12,20.82-14.46q5.57-3.57,10.06-6.57l-.15-.25C61.29,39.13,61.06,38.76,60.82,38.38ZM78.36,19.86A178,178,0,0,1,55.92,30.21l.6.74q1.4,1.77,2.64,3.55a91.34,91.34,0,0,0,19.5-9.6C75.94,27.48,66.93,34.21,61.44,38c.28.46.55.92.82,1.38,8.32-5.57,13.92-9.67,17.18-12.41C83.94,23.16,94.2,14.7,98.1,3.36,91.26,12.06,83.17,17,78.36,19.86Z"/><path class="cls-2" d="M40.44,50.08l-3-3.76Q35.57,44,34,41.64l-1,.26c1.26,2,2.66,3.92,4.18,5.84,1.11,1.4,2.12,2.53,2.64,3.23l.59.87,1-.67C41.06,50.83,40.74,50.46,40.44,50.08Zm6.46,5.86c-.73-.68-2.49-1.83-4.33-3.56l-1.22.85c1.18,1.67,2.8,3.72,4.06,4.32C47.31,58.45,47.83,56.83,46.9,55.94Zm9.62-25C46,17.75,33.21,10.49,27.68,14.88c-4.29,3.41-2.53,13.38,3.39,23.85l.91-.31c-6-10.2-7.61-19.68-3.56-22.9,5.09-4,17.37,3.24,27.56,16.07a75,75,0,0,1,5.53,7.91c6,10,7.86,19,3.71,22.62-1.28,1.13-5.16,1.57-10.25-.72-.07.09.05.33.14.39,4.39,1.76,8.59,2.43,10.72.75C70.93,58.48,67,44.16,56.52,31Z"/><path class="cls-2" d="M11.52,32.52h6.72l5.64,9.57V34.62a3.2,3.2,0,0,0-1.44-2.1h4.65a3,3,0,0,0-1.2,2.1v11c0,.67,1,1.6,1.44,2H20.85L15.12,38v7.56c0,.75.74,1.47,1.5,2.08h-5a2.69,2.69,0,0,0,1.44-2c.06-.75,0-10.43,0-10.85C13.11,33.84,12.23,33.09,11.52,32.52Z"/><path class="cls-2" d="M73,47.56h8.94a2.36,2.36,0,0,1-1.35-1.48c-.3-.78-5-13.56-5-13.56h-3.4c-1,.69-2,1.43-3.1,2.2a.25.25,0,0,1,0,.08c-.15.9-2.81,10.53-3,11-.22.66-1.38,1.39-1.84,1.78H69a2.16,2.16,0,0,1-.78-1.66c.09-.6.36-1.8.36-1.8h5a9,9,0,0,1,.48,1.65C74.18,46.4,73.55,47.08,73,47.56Zm-3.93-5.35,1.68-5.49L73,42.21Zm-.76-9.14.75-.55H67.74A6.83,6.83,0,0,1,68.3,33.07Z"/><path class="cls-2" d="M34.11,45.93c.09-.6.36-1.8.36-1.8h5a9,9,0,0,1,.48,1.65c.11.62-.52,1.31-1.08,1.79h7.87l.49-.33a3.14,3.14,0,0,1-.77-1.16c-.3-.78-5-13.56-5-13.56H33.6c.38.35,1.46,1.28,1.29,2.28s-2.81,10.53-3,11c-.22.66-1.38,1.4-1.84,1.79h4.81A2.18,2.18,0,0,1,34.11,45.93Zm2.49-9.21,2.22,5.49h-3.9Z"/><path class="cls-2" d="M61.3,40q-2.2,1.47-4.65,3.06c.73.36,1.32.8,1.37,1.38.11,1.08-2.07,1.6-4,1.38a5,5,0,0,1-1.15-.29l-1.24.8-1.53,1v1.55A2.75,2.75,0,0,1,52,47.39c.28,0,1.27.9,5.35.67,2-.11,5.81-2.22,5.75-4.65A4.67,4.67,0,0,0,61.3,40ZM50.07,43.74v1.58l1.07-.71A8.33,8.33,0,0,1,50.07,43.74ZM59.9,39c-.38-.22-.76-.42-1.13-.59-1.92-.9-3.93-1.07-4.35-2.28-.29-.86.54-1.65,2.58-1.62a8,8,0,0,1,4.44,1.68V32.31c-.15.15-.81.9-1.41.78a26.53,26.53,0,0,0-5.37-.54,4.82,4.82,0,0,0-4.87,4.53c-.11,3.52,2.71,4.48,4.3,5l.56.18c1.52-1,2.73-1.75,3.43-2.16C58.56,39.87,59.18,39.47,59.9,39Z"/></g></g></svg>