<?xml version="1.0" encoding="UTF-8" standalone="no"?><!DOCTYPE svg PUBLIC "-//W3C//DTD SVG 1.1//EN" "http://www.w3.org/Graphics/SVG/1.1/DTD/svg11.dtd"><svg width="100%" height="100%" viewBox="0 0 1080 454" version="1.1" xmlns="http://www.w3.org/2000/svg" xmlns:xlink="http://www.w3.org/1999/xlink" xml:space="preserve" xmlns:serif="http://www.serif.com/" style="fill-rule:evenodd;clip-rule:evenodd;stroke-linejoin:round;stroke-miterlimit:2;"><rect id="TVP-isologotipo" serif:id="TVP-isologotipo" x="0" y="0" width="1080" height="454" style="fill:none;"/><clipPath id="_clip1"><rect x="0" y="0" width="1080" height="454"/></clipPath><g clip-path="url(#_clip1)"><g id="Logo"><path d="M715.139,314.667l-35.229,0l0,-141.285l-53.092,0l-0,-35.353l141.288,-0l0,35.353l-52.967,0l0,141.285Zm211.289,-176.638l-58.017,176.638l-35.355,0l-57.771,-176.638l40.158,-0l35.229,117.883l35.352,-117.883l40.404,-0Zm47.638,176.638l-35.352,0l0,-176.638l70.705,-0c6.484,-0 12.728,0.843 18.723,2.522c5.993,1.687 11.598,4.069 16.815,7.147c5.214,3.08 9.976,6.773 14.289,11.085c4.312,4.313 8.008,9.096 11.085,14.35c3.08,5.259 5.462,10.885 7.146,16.877c1.681,5.995 2.523,12.238 2.523,18.722c0,9.693 -1.846,18.829 -5.542,27.409c-3.696,8.582 -8.745,16.076 -15.152,22.479c-6.404,6.406 -13.901,11.456 -22.48,15.152c-8.58,3.696 -17.718,5.544 -27.407,5.544l-35.353,0l0,35.351Zm0,-141.286l0,70.705l35.353,0c4.843,0 9.402,-0.924 13.673,-2.772c4.269,-1.847 8.007,-4.372 11.209,-7.575c3.202,-3.202 5.727,-6.96 7.575,-11.271c1.848,-4.312 2.773,-8.887 2.773,-13.736c-0,-4.844 -0.925,-9.423 -2.773,-13.732c-1.848,-4.311 -4.373,-8.07 -7.575,-11.271c-3.202,-3.204 -6.94,-5.729 -11.209,-7.577c-4.271,-1.848 -8.83,-2.771 -13.673,-2.771l-35.353,-0Z" style="fill:#123b80;fill-rule:nonzero;"/></g><g id="Iso"><g><path d="M320.717,372.682c-80.405,-0 -145.819,-65.414 -145.819,-145.819c0,-80.408 65.414,-145.821 145.819,-145.821c80.405,-0 145.818,65.413 145.818,145.821c0,80.405 -65.413,145.819 -145.818,145.819m-0,-372.682c-125.292,-0 -226.862,101.57 -226.862,226.863c0,7.786 0.396,15.483 1.162,23.068c2.313,-0.157 4.645,-0.243 6.999,-0.243c56.342,-0 102.017,45.674 102.017,102.016c-0,21.449 -6.623,41.345 -17.927,57.77c37.655,27.804 84.209,44.249 134.611,44.249c125.292,0 226.862,-101.568 226.862,-226.86c-0,-125.293 -101.57,-226.863 -226.862,-226.863" style="fill:#2497ff;fill-rule:nonzero;"/></g><g><path d="M95.043,249.94c2.308,-0.156 4.654,-0.242 7.001,-0.242c56.324,-0 102.01,45.674 102.01,102.017c-0,21.435 -6.611,41.321 -17.915,57.745c-50.144,-37.026 -84.486,-94.195 -91.096,-159.52Z" style="fill:#123b80;"/></g><g><path d="M95.017,249.931c-53.086,3.6 -95.017,47.789 -95.017,101.774c-0,56.345 45.675,102.02 102.012,102.02c34.899,-0 65.714,-17.525 84.09,-44.25c-50.137,-37.02 -84.468,-94.181 -91.085,-159.544Z" style="fill:#f9cf1c;"/></g></g></g></svg>