<?xml version="1.0" encoding="utf-8"?>
<!-- Generator: Adobe Illustrator 24.0.0, SVG Export Plug-In . SVG Version: 6.00 Build 0)  -->
<svg version="1.1" id="Capa_1" xmlns="http://www.w3.org/2000/svg" xmlns:xlink="http://www.w3.org/1999/xlink" x="0px" y="0px"
	 viewBox="0 0 168 60" style="enable-background:new 0 0 168 60;" xml:space="preserve">
<style type="text/css">
	.st0{fill:#E73742;}
</style>
<g id="teleton-blanco">
	<path id="Unión_218" class="st0" d="M157.7,57.8c-0.3-0.3-0.5-0.6-0.6-1l-5-12.9c-0.1-0.3-0.2-0.6-0.2-0.9c0-0.4,0.2-0.7,0.4-1.1
		c0.3-0.4,0.9-0.6,1.4-0.6c0.7,0,1.3,0.5,1.5,1.1l3.5,9.6l3.6-9.6c0.2-0.7,0.8-1.1,1.5-1.1c0.5-0.1,1.1,0.2,1.4,0.6
		c0.2,0.3,0.4,0.7,0.4,1.1c0,0.3-0.1,0.6-0.2,0.9l-5,12.9c-0.1,0.4-0.3,0.7-0.6,1C159.2,58.3,158.3,58.3,157.7,57.8L157.7,57.8z
		 M143.7,57.7c-0.3-0.4-0.5-0.8-0.5-1.3V44.8h-2.5c-0.4,0-0.9-0.1-1.2-0.5c-0.3-0.3-0.4-0.6-0.4-1c0-0.4,0.1-0.8,0.3-1.1
		c0.3-0.4,0.8-0.7,1.3-0.6h8.4c0.4,0,0.9,0.2,1.1,0.5c0.3,0.3,0.4,0.7,0.4,1.1c0,0.4-0.1,0.8-0.4,1.1c-0.3,0.3-0.7,0.5-1.2,0.5h-2.5
		v11.6c0,0.5-0.1,1-0.5,1.3c-0.3,0.3-0.8,0.5-1.2,0.5C144.4,58.2,144,58,143.7,57.7L143.7,57.7z M11.1,46.1c0,0-0.1-0.1-0.1-0.1
		c0,0,0,0,0,0l0,0c-0.3-0.3-0.5-0.8-0.5-1.2c0,0,0,0,0,0c0-0.5,0.2-1,0.6-1.3c1.2-1,2.4-2.2,3.4-3.4c0.4-0.4,0.7-0.9,1.1-1.4
		c0.4-0.6,0.8-1.1,1.1-1.6c0.9-1.5,1.6-3.1,2-4.8c0,0,0-0.2,0-0.3c0,0-0.1,0-0.1,0c-0.1,0-0.2,0-0.2,0c-1.4,0.6-2.8,1.4-4.2,2.2
		c-0.8,0.5-1.5,1-2.2,1.5c-1.5,1.2-2.9,2.7-4,4.2c-0.2,0.2-0.4,0.4-0.7,0.5c0,0,0,0-0.1,0c0,0-0.1,0-0.1,0c0,0-0.1,0-0.1,0
		c0,0-0.1,0-0.1,0c-0.1,0-0.1,0-0.2,0h0c-0.6,0-1.1-0.3-1.5-0.8c-2.5-4.1-4-8.8-4.1-13.7c-0.2-5.9,2.5-11.1,4.3-13.9
		c0-0.1,0.1-0.1,0.1-0.2c0.6-0.7,1.7-0.8,2.4-0.2C8,11.9,8,12,8.1,12.1c1,1.4,2.2,2.6,3.5,3.8c1.9,1.7,4.2,3.1,6.6,4
		c0,0,0.2,0.1,0.3,0c0,0,0,0,0-0.1c0-0.1,0-0.1,0-0.2c-0.5-2.1-1.5-4.1-2.7-5.9c-1.3-2-2.9-3.7-4.7-5.2c-0.4-0.4-0.7-1-0.6-1.5
		c0-0.2,0.1-0.4,0.1-0.5c0.1-0.3,0.3-0.5,0.5-0.7l0.1,0c0.4-0.3,0.8-0.6,1.4-0.9C16.6,2.4,21,1.1,25.6,1c5.5-0.2,11,1.5,15.4,4.9
		c0.4,0.3,0.7,0.8,0.8,1.4c0,0.5-0.3,1.1-0.7,1.4c-0.4,0.3-0.8,0.6-1.2,1c-1.1,1-2.1,2.2-3,3.4c-0.1,0.2-0.2,0.3-0.3,0.5
		c-1.2,1.8-2.2,3.9-2.8,6c0,0-0.1,0.3,0,0.4c0.1,0,0.1,0.1,0.2,0l0,0c0.8-0.3,1.6-0.6,2.4-1l0,0l0.1,0c1.2-0.6,2.4-1.4,3.5-2.2
		c1.2-1,2.4-2.1,3.4-3.3c0.3-0.4,0.6-0.7,0.8-1.1l0,0l0,0c0.3-0.5,0.9-0.7,1.5-0.7c0.6,0,1.1,0.3,1.4,0.8c2.5,3.8,3.9,8.3,4.1,12.9
		h0c0,0.3,0,0.6,0,0.8c-0.1,4.9-1.5,9.7-4.1,13.9c-0.1,0.1-0.2,0.2-0.3,0.3l0,0c-0.1,0.1-0.2,0.2-0.3,0.2l0,0
		c-0.1,0-0.1,0.1-0.2,0.1l0,0c-0.1,0-0.2,0-0.2,0.1h0l-0.1,0c0,0,0,0-0.1,0c-0.1,0-0.1,0-0.2,0c-0.6,0-1.1-0.3-1.4-0.7
		c-1.2-1.6-2.6-3.1-4.1-4.4c-1.9-1.5-3.9-2.7-6.2-3.6c0,0-0.2-0.1-0.3,0l0,0l0,0c0,0.1,0,0.2,0,0.3c0.8,2.4,1.8,4.6,3.2,6.7
		c1.3,1.7,2.7,3.2,4.3,4.6c0.4,0.3,0.6,0.8,0.6,1.3c0,0.5-0.3,1.1-0.7,1.4c-4.3,3.1-9.4,4.8-14.7,4.9h-0.1c-0.3,0-0.5,0-0.7,0
		C19.1,51.2,13.8,48,11.1,46.1z M6.8,14.2C6.8,14.2,6.7,14.2,6.8,14.2L6.8,14.2c-2.2,3.4-3.3,7.2-3.5,11.1c0,0.1,0,0.1,0,0.2
		c7.6,1,15.2,1.5,22.8,1.5c7.6,0,15.2-0.4,22.8-1.5c-0.1-3.9-1.2-7.7-3.2-11.1c0,0-0.1-0.1-0.1-0.1l0,0c0,0-0.1,0-0.1,0l0,0l0,0l0,0
		l0,0c-0.4,0.4-0.8,0.9-1.2,1.4c-0.9,0.9-1.8,1.8-2.8,2.6c-2,1.6-4.3,2.9-6.8,3.7c-0.2,0.1-0.4,0.1-0.4,0.1c-0.3,0.1-0.7,0.1-1,0.1
		c-0.4,0-0.8-0.1-1.2-0.3c-0.1,0-0.1-0.1-0.1-0.1c0,0,0,0,0,0c0,0-0.1-0.1-0.1-0.1c0,0,0,0,0,0c0,0,0,0,0,0s0,0,0-0.1s0,0,0-0.1
		s0-0.1,0-0.1s0,0,0,0c0,0,0-0.1,0-0.1c0,0,0,0,0,0c-0.1-0.4-0.2-0.7-0.2-1.1l0,0c0-0.1,0-0.1,0-0.2v0c0-0.1,0-0.1,0-0.2v0
		c0-0.1,0-0.1,0-0.2v0c0,0,0-0.1,0-0.1v0c0,0,0-0.1,0-0.1l0,0c0,0,0-0.1,0-0.1c0,0,0,0,0-0.1s0-0.1,0-0.1s0-0.1,0-0.1v0
		c0.1-0.4,0.2-0.9,0.4-1.3c0.8-2.1,1.8-4.2,3.2-6c1.1-1.5,2.4-2.9,3.8-4.2c0,0,0.1-0.1,0.1-0.1c0,0,0,0,0,0c0,0,0,0,0-0.1
		c-3.9-2.7-8.6-4.1-13.3-3.9c-4.4,0.1-8.6,1.4-12.3,3.8c0,0,0,0-0.1,0.1c0,0,0,0,0,0c0,0,0,0.1,0.1,0.1c1.7,1.5,3.2,3.2,4.4,5.1
		c2.8,4.4,3.1,6.9,3.1,7.3c0.1,0.6,0,1.2-0.2,1.7v0c-0.1,0.2-0.3,0.4-0.5,0.5c-0.1,0.1-0.2,0.1-0.3,0.2c-0.7,0.2-1.3,0.1-2-0.1
		c-2.9-1-5.6-2.6-7.9-4.6c-1.1-1-2.1-2.1-3.1-3.3C6.9,14.3,6.9,14.2,6.8,14.2L6.8,14.2z M89.7,36.2V12.8c-0.2-1.5,0.9-2.9,2.4-3
		c1.5-0.2,2.9,0.9,3,2.4c0,0.2,0,0.4,0,0.6v23.4c0.2,1.5-0.9,2.9-2.4,3c-1.5,0.2-2.9-0.9-3-2.4C89.7,36.6,89.7,36.4,89.7,36.2z
		 M60,36.3v-19h-4.1c-1.3,0.1-2.5-1-2.6-2.3c0-0.1,0-0.2,0-0.3c0-1.4,1.1-2.6,2.5-2.6c0,0,0.1,0,0.1,0h14c1.4,0,2.6,1.1,2.6,2.5
		c0,0,0,0.1,0,0.1c0.1,1.3-0.9,2.5-2.3,2.6c-0.1,0-0.2,0-0.3,0h-4.1v19c0.1,1.6-1.2,2.9-2.7,3s-2.9-1.2-3-2.7
		C60,36.4,60,36.3,60,36.3L60,36.3z M119,36.2V23.6h-1.2c-1.2,0.1-2.3-0.8-2.4-2c0-0.1,0-0.2,0-0.4c0-1.3,1-2.4,2.3-2.4
		c0,0,0.1,0,0.1,0h1.2v-3.3c-0.2-1.5,0.9-2.9,2.4-3s2.9,0.9,3,2.4c0,0.2,0,0.4,0,0.6v3.3h1.6c1.4,0,2.6,0.6,2.6,2.4
		c0.1,1.3-0.9,2.4-2.2,2.4c-0.1,0-0.3,0-0.4,0h-1.6v12.6c0.2,1.5-0.9,2.9-2.4,3c-1.5,0.2-2.9-0.9-3-2.4C119,36.6,119,36.4,119,36.2
		L119,36.2z M161.6,36.2v-9.5c0.2-1.9-1.1-3.5-3-3.7c-0.2,0-0.4,0-0.6,0c-2.2,0-3.5,1.6-3.5,3.8v9.5c0.2,1.5-0.9,2.9-2.4,3
		c-1.5,0.2-2.9-0.9-3-2.4c0-0.2,0-0.4,0-0.6V21.6c-0.2-1.5,1-2.9,2.5-3c0.1,0,0.2,0,0.3,0c1.2-0.1,2.3,0.8,2.5,2
		c1.1-1.5,2.7-2.2,5.3-2.2c4.3,0,7.5,2.7,7.5,7.4v10.5c0.2,1.5-0.9,2.9-2.4,3c-1.5,0.2-2.9-0.9-3-2.4
		C161.6,36.6,161.6,36.4,161.6,36.2L161.6,36.2z M128,28.8c0-5.4,3.9-10.4,9.6-10.4s9.6,5,9.6,10.4c0,5.6-3.8,10.3-9.6,10.3
		S128,34.4,128,28.8L128,28.8z M136.5,23.5c-2.4,0.5-3.5,3.1-3.5,5.5c0,2.6,1.4,5.5,4.3,5.5c1.3,0,2.6-0.6,3.3-1.8
		c0.8-1.1,1.2-2.5,1.2-3.9c0-2.6-1.3-5.5-4.2-5.5C137.2,23.3,136.9,23.4,136.5,23.5L136.5,23.5z M96.5,28.8c0-5.4,3.9-10.4,9.6-10.4
		c5.8,0,9.6,5.3,9.6,9.8c0,1.6-0.7,2.4-2.3,2.4h-11.4c0.4,2.6,2.6,3.9,5.1,3.9c2.8,0,4.7-2.2,6.1-2.2c1.2,0.1,2.2,1.1,2.2,2.3
		c0,2.3-4.8,4.5-8.7,4.5C100.5,39.1,96.5,34.7,96.5,28.8z M102.4,25.1c-0.3,0.6-0.5,1.3-0.6,2h8.7c-0.1-1.2-0.7-2.3-1.6-3.2
		c-1.8-1.5-4.4-1.3-6,0.4C102.7,24.6,102.5,24.8,102.4,25.1z M68.7,28.8c0-5.4,3.9-10.4,9.6-10.4c5.8,0,9.6,5.3,9.6,9.8
		c0,1.6-0.7,2.4-2.3,2.4H74.1c0.4,2.6,2.6,3.9,5.1,3.9c2.8,0,4.7-2.2,6.1-2.2c1.2,0.1,2.2,1.1,2.2,2.3c0,2.3-4.8,4.5-8.7,4.5
		C72.7,39.1,68.7,34.7,68.7,28.8z M74.6,25.1c-0.3,0.6-0.5,1.3-0.6,2h8.7c-0.1-1.2-0.7-2.3-1.6-3.2c-1.8-1.5-4.4-1.3-6,0.4
		C74.9,24.6,74.7,24.8,74.6,25.1L74.6,25.1z M137.4,16.8c0,0,0-0.1-0.1-0.1c-0.1-0.1-0.1-0.3-0.1-0.5L136,9.7
		c-0.1-0.6-0.1-1.3,0.2-1.9c0.6-1.4,2.2-2,3.6-1.5c0.1,0,0.2,0.1,0.3,0.1c1.1,0.5,1.8,1.7,1.7,3l0,0c0.9-0.9,2.2-1.2,3.3-0.6
		c1.5,0.7,2.1,2.5,1.4,3.9c-0.3,0.6-0.7,1-1.3,1.3l-5.7,3.3c-0.2,0.1-0.5,0.2-0.8,0.2C138.2,17.6,137.7,17.3,137.4,16.8L137.4,16.8z
		"/>
</g>
</svg>
