<svg xmlns="http://www.w3.org/2000/svg" viewBox="0 0 1830.03 448.05"><title>Logo_LA_RED</title><g id="Capa_2" data-name="Capa 2"><g id="Capa_1-2" data-name="Capa 1"><path d="M0,2.05H130V328c0,7.43,0,7.44,7.25,7.45,42.56,0,85.13-.07,127.7.09,4.54,0,6.58-1.11,8-5.75q47.8-160.55,95.83-321c1.58-5.3,3.58-7.19,9.41-7.14,39.23.32,78.46.22,117.69.08,4.1,0,6,1,7.27,5.22q56,178.49,112.26,356.85,12.2,38.73,24.32,77.47c.54,1.72.95,3.48,1.58,5.85H636c-44.07,0-88.14,0-132.21.19-4.86,0-6.73-1.36-8-6.12q-29-113.42-58.46-226.73a8.4,8.4,0,0,0-2.55-4.42c-2.43,9.41-4.9,18.81-7.29,28.23q-25.67,101.22-51.2,202.48c-1.18,4.72-2.83,6.6-8.19,6.59q-181-.33-362.07-.22H0Z" style="fill:#2cbec3"/><path d="M1032.91,272l89.48,175.45c-8.07,0-15.33,0-22.6,0-29.82-.12-59.65-.33-89.48-.31-3.94,0-5.83-1.46-7.52-4.92-24.12-49.3-48.45-98.5-72.51-147.83-2.35-4.81-5-6.88-10.53-6.73-14.48.41-29,.14-43.49.14-7.43,0-7.44,0-7.44,7.23,0,48.66-.07,97.32.11,146,0,4.94-1.51,6.11-6.22,6.08q-48.24-.28-96.49,0c-4.65,0-6.29-1.08-6.29-6.06q.2-217.73.12-435.44c0-1.64.14-3.28.24-5.56h5.59C832,.05,898.19-.09,964.35.1c42.69.13,79,15.34,107.35,47.71,20,22.85,31.07,49.63,33.3,80.06,1.5,20.41.85,40.58-4.92,60.36-9.83,33.71-29.75,59.87-59.28,78.78C1038.31,268.61,1035.8,270.2,1032.91,272ZM869,146.52q0,27.49,0,55c0,6.93,0,6.92,6.65,6.94,21.5.05,43,0,64.49.19,24.76.17,43.29-10,54.7-32.36,6.26-12.25,5.82-25.48,5.26-38.62C999,111,975.45,86.74,949,85.88c-25.13-.81-50.3-.34-75.45-.59-4,0-4.57,1.89-4.56,5.24C869.06,109.19,869,127.85,869,146.52Z" style="fill:#2cbec3"/><path d="M1480,3.5c2.12-.12,3.74-.29,5.36-.29,50,0,100-.48,150,.2,48.43.66,91,17.66,127.32,49.71q49.29,43.47,63.33,107.79c1.77,8.09,3.28,16.41,3.41,24.64.41,27,1.34,54-.19,80.88-1.93,34.05-13.81,65.28-33.16,93.39-22.15,32.16-51.1,56.3-87.11,71.7-25.44,10.89-52.07,15.86-79.71,15.83q-71.46-.11-142.93.06c-4.93,0-6.4-1.18-6.4-6.37q.24-215.93.13-431.86Zm109.39,82.3c-.13,2.9-.34,5.35-.34,7.79q0,131.46,0,262.9c0,1.33.1,2.67,0,4-.22,3,1.13,4.08,4.13,4,6.5-.16,13,.15,19.49-.09,11-.4,22.15.19,32.81-1.87,45.72-8.82,77.53-47.81,77.8-94.41q.21-39.23,0-78.47c0-7.3,0-14.71-1.14-21.88-5.17-32-22.41-55.5-50.75-71.19C1645.49,82.25,1617.45,86.33,1589.39,85.8Z" style="fill:#2cbec3"/><path d="M1450,448.05H1144v-107h306Z" style="fill:#2cbec3"/><path d="M1451,3.05v106H1150.21c-6.6,0-6.61,0-6.62-6.45,0-31.24.08-62.48-.08-93.73,0-4.44,1.06-5.93,5.8-5.93q148.11.23,296.21.11Z" style="fill:#2cbec3"/><path d="M1143.8,259.05c-.13-1.83-.35-3.44-.35-5.06,0-23.82.09-47.65-.1-71.47,0-4.33,1.12-5.65,5.59-5.65q147.94.19,295.89.11c1.62,0,3.25.16,5.17.25v81.82Z" style="fill:#2cbec3"/></g></g></svg>