<svg id="Capa_1" data-name="Capa 1" xmlns="http://www.w3.org/2000/svg" viewBox="0 0 2344.6 464.62"><title>Logo_CNNCHILE</title><path d="M6378,7199.64c0,85.23,69.33,154.56,154.56,154.56H6677c9.07,0,16.1-8.62,16.1-16V7054.93a32.45,32.45,0,0,1,60.35-16.56l90.69,156.37,90.66,156.32a13.48,13.48,0,0,0,25-7V7054.93a32.44,32.44,0,0,1,60.34-16.56c.73,1.23,44.4,76.59,90.64,156.38l90.59,156.31a13.48,13.48,0,0,0,25-7V6969.21h-56.91v223.13s-103.1-177.46-106.44-183.17c-15.05-25.73-43.59-42-74-42a86.19,86.19,0,0,0-86.17,86.18v139s-103.1-177.46-106.44-183.17c-15.05-25.73-43.6-42-74-42a86.19,86.19,0,0,0-86.17,86.18v228.36A15.21,15.21,0,0,1,6621,7297.3H6533.2a97.66,97.66,0,0,1,0-195.31h73.5v-56.9h-74.11c-85.23,0-154.56,69.33-154.56,154.55" transform="translate(-6302.21 -6967.19)" style="fill:red"/><path d="M7245.31,6969.21v374.86a32.45,32.45,0,0,1-60.35,16.57c-.72-1.24-44.4-76.6-90.63-156.38-44.18-76.22-89.85-155.05-90.6-156.31a13.47,13.47,0,0,0-25,7v289.14a32.45,32.45,0,0,1-60.35,16.57c-.72-1.24-44.43-76.59-90.7-156.38C6783.46,7128,6737.75,7049.18,6737,7048a13.47,13.47,0,0,0-25,7v283.23c0,18.65-16.39,35-35.06,35H6532.59c-95.68,0-173.53-77.84-173.53-173.53s77.85-173.52,173.53-173.52h74.11v-56.91h-74c-127.27,0-230.45,103.17-230.45,230.43s103.18,230.44,230.45,230.44H6678.4c55.22,0,90.72-32.32,90.65-92V7206.66s103.84,178.72,106.45,183.17c15.05,25.73,43.59,42,74,42a86.19,86.19,0,0,0,86.17-86.18v-139s103.11,177.46,106.44,183.17c15.06,25.73,43.6,42,74,42a86.18,86.18,0,0,0,86.16-86.18V6969.21Z" transform="translate(-6302.21 -6967.19)" style="fill:red"/><path d="M6359.06,7199.64c0,95.69,77.84,173.53,173.53,173.53H6677c18.68,0,35.07-16.36,35.07-35V7054.93a13.48,13.48,0,0,1,25-7c.72,1.25,46.45,80.08,90.66,156.32,46.27,79.79,90,155.14,90.7,156.38a32.45,32.45,0,0,0,60.35-16.58V7054.93a13.48,13.48,0,0,1,25-7c.74,1.27,46.41,80.09,90.59,156.31,46.23,79.79,89.91,155.15,90.63,156.39a32.45,32.45,0,0,0,60.35-16.58V6969.21h-19v374.85a13.48,13.48,0,0,1-25,7l-90.59-156.31c-46.24-79.79-89.91-155.15-90.64-156.38a32.44,32.44,0,0,0-60.34,16.56v289.13a13.48,13.48,0,0,1-25,7l-90.66-156.32c-46.27-79.78-90-155.14-90.7-156.37a32.44,32.44,0,0,0-60.34,16.56v283.23c0,7.42-7,16-16.1,16H6532.59c-85.23,0-154.56-69.33-154.56-154.56s69.33-154.55,154.56-154.55h74.11v-19h-74.11c-95.69,0-173.53,77.85-173.53,173.53" transform="translate(-6302.21 -6967.19)" style="fill:#fff"/><path d="M7527.19,7325.91q-32.11-18.67-49.74-54.15t-17.63-84.15q0-48.27,18.26-83.74t51-54.36q32.73-18.89,75.13-18.88,38.19,0,66.95,13.85t44.91,38a109.18,109.18,0,0,1,18.26,53.94h-68.84q-4.62-22.66-20.15-35.47t-42.81-12.8q-22.26,0-38.41,11.54t-24.76,33.79q-8.61,22.26-8.61,54.15,0,31.47,8.61,53.72t24.55,33.79q16,11.55,37.78,11.54,29,0,45.54-14.27t19.94-42h69.26q-1.26,33.59-19.1,59.6t-48.06,40.3q-30.23,14.27-67.16,14.27Q7559.3,7344.59,7527.19,7325.91Z" transform="translate(-6302.21 -6967.19)"/><path d="M7769.16,7039h69.68v115.43h115V7039h69.68v299.27h-69.68V7211.53h-115v126.76h-69.68Z" transform="translate(-6302.21 -6967.19)"/><path d="M8072.2,7039h70.52v299.27H8072.2Z" transform="translate(-6302.21 -6967.19)"/><path d="M8191.41,7039h70.51v242.61h139.36v56.66H8191.41Z" transform="translate(-6302.21 -6967.19)"/><path d="M8427.3,7039h216.16v55H8495.71v61.7h136.84v55H8495.71v72.62h151.11v55H8427.3Z" transform="translate(-6302.21 -6967.19)"/></svg>