<svg xmlns="http://www.w3.org/2000/svg" viewBox="0 0 508.2 141.73"><title>Logo_NASA2</title><g id="Capa_2" data-name="Capa 2"><g id="Capa_1-2" data-name="Capa 1"><g id="main_layer" data-name="main layer"><path d="M92,104.7c1.58,6,4.12,8.26,8.61,8.26,4.66,0,7.11-2.79,7.11-8.26V3.2h29.18V104.7c0,14.31-1.86,20.51-9.11,27.76-5.23,5.23-14.87,9.27-27,9.27-9.83,0-19.25-3.25-25.25-9.27-5.26-5.27-8.15-10.69-12.67-27.76L44.9,37c-1.58-6-4.12-8.26-8.61-8.26-4.66,0-7.11,2.8-7.11,8.26v101.5H0V37c0-14.3,1.86-20.5,9.11-27.76C14.34,4,24,0,36.16,0,46,0,55.41,3.26,61.41,9.27,66.67,14.54,69.57,20,74.08,37Z" style="fill:red"/><path d="M478,138.53,444.33,33.1a8.74,8.74,0,0,0-1.26-2.82,5.37,5.37,0,0,0-7.86,0A8.74,8.74,0,0,0,434,33.1L400.24,138.53H370.08L406.89,23.36c1.92-6,4.66-11.1,8.14-14.49C421,3.05,428,0,439.14,0s18.14,3.05,24.11,8.87c3.48,3.39,6.22,8.48,8.14,14.48L508.2,138.53Z" style="fill:red"/><path d="M328.88,138.53c19.12,0,28.44-4.06,35.81-11.39,8.15-8.1,12.05-17,12.05-30.21,0-11.7-4.28-22.53-10.8-29-8.52-8.48-19.11-11.15-36.38-11.15H305.37c-9.24,0-12.92-1.12-15.84-4-2-2-2.94-4.89-2.94-8.33s.86-7.07,3.31-9.47c2.17-2.13,5.13-3.11,10.81-3.11h69.9V3.2H306.05c-19.12,0-28.45,4.06-35.81,11.39-8.16,8.1-12.06,17-12.06,30.21,0,11.7,4.29,22.54,10.81,29C277.51,82.3,288.1,85,305.37,85h24.19c9.24,0,12.92,1.12,15.84,4,2,2,2.94,4.89,2.94,8.33s-.86,7.08-3.31,9.48c-2.17,2.13-5.13,3.11-10.81,3.11h-72.1L234.47,23.36c-1.92-6-4.66-11.1-8.14-14.49-6-5.82-13-8.87-24.11-8.87s-18.14,3.05-24.1,8.87c-3.48,3.39-6.22,8.48-8.14,14.48L133.16,138.53h30.17L197,33.1a8.74,8.74,0,0,1,1.26-2.82,5.38,5.38,0,0,1,7.87,0,8.74,8.74,0,0,1,1.26,2.82l33.7,105.43Z" style="fill:red"/></g></g></g></svg>