<svg id="Layer_1" data-name="Layer 1" xmlns="http://www.w3.org/2000/svg" viewBox="0 0 154.4 66.52"><title>Logo_TVN</title><path d="M36,14.8V59.3c0,4.3-2.6,7.3-6.4,7.3s-6.8-2.9-6.8-7.1V14.7H20.5c-4.7,0-9.4.1-14,0A6.66,6.66,0,0,1,6.3,1.4H54.9c5.1,0,6.7,1.2,8.4,6.1C66.9,17.7,70.5,27.8,74.2,38c.2.6.5,1.2.9,2.3.9-2.4,1.6-4.4,2.3-6.4L87.3,6.3c1.3-3.5,4.2-5.4,7.4-4.8,4.4.8,6.5,4.9,4.9,9.5-4.6,12.9-9.3,26-14,39.1-1.3,3.8-2.7,7.5-4,11.3-1.2,3.4-3.6,5.3-6.7,5.2s-5.2-1.8-6.4-5.2c-5.3-14.9-10.7-29.9-16-44.8-.5-1.5-1.2-2-2.7-1.9-3.9.1-7.8,0-11.6,0-.7,0-1.4.1-2.2.1" transform="translate(-0.1 -0.09)" style="fill:red"/><path d="M115.2,66.3H102.1V1.7h12.7V7.6a11.55,11.55,0,0,0,1.5-1.3c8.5-8.1,21.1-7.2,28.6-3.4,5.8,3,8.2,8.5,9.2,14.8a49.68,49.68,0,0,1,.4,7.7V66.3H141.3V25.2c0-1.2-.1-2.3-.2-3.5-1.1-7-5.6-10.2-12.4-9-8.6,1.6-13.3,7.7-13.3,17.2V64a9,9,0,0,0-.2,2.3" transform="translate(-0.1 -0.09)" style="fill:red"/><rect x="108.3" y="60.59" width="7" height="5.63" style="fill:red"/></svg>