<svg xmlns="http://www.w3.org/2000/svg" viewBox="0 0 1044.59 821.54"><title>Recurso 2</title><g id="Capa_2" data-name="Capa 2"><g id="Capa_1-2" data-name="Capa 1"><g id="Capa_1-2-2" data-name="Capa 1-2"><path d="M1036,784.9a899.12,899.12,0,0,0-236.1-117.1,216.22,216.22,0,0,0,23-16.3q66.9-55.2,66.8-146.9,0-56.7-28.6-98.3c-13-18.9-30.5-34.5-52.6-47a20,20,0,0,1-1.6-33.9A183.06,183.06,0,0,0,850,282.9c19.2-26.5,28.8-55.4,28.8-86.9q0-91.65-61.9-143.8T646,0Q583.11,0,531,24.1c-34.9,16-61.9,38.3-81.3,66.8a166,166,0,0,0-27.8,74.4,20,20,0,0,0,17.57,22.17,19.79,19.79,0,0,0,2.43.13h97.3a20,20,0,0,0,19.5-16.3q5-23.55,24.8-39.7,26.4-21.45,65.7-21.5c29,0,51.7,7.7,68.3,23.1s24.8,37,24.8,64.7q0,43-25,69t-77,26h-10.6a53.4,53.4,0,1,0,0,106.8h10.15q113.4,0,113.4,103,0,42.45-27.6,68.3c-18.4,17.2-43.9,25.7-76.3,25.7q-42.45,0-71.6-24.6Q555,553.05,550,525.3a19.71,19.71,0,0,0-19.3-16.5h-98.1a19.71,19.71,0,0,0-19.69,19.73c0,.62,0,1.25.09,1.87q5.25,55.8,38.8,96.5c-28.4,2.2-56.5,5.9-84.1,10.7V23.6a20.74,20.74,0,0,0-27.8-19.5L132.86,79.4a19.32,19.32,0,0,0-12.7,18.1v73.3A20,20,0,0,0,146,189.9l76-23.6a3.55,3.55,0,0,1,4.44,2.34,3.45,3.45,0,0,1,.16,1.06V674a894.34,894.34,0,0,0-218,111c-18.3,12.8-5,41.5,16.6,35.8a1964.73,1964.73,0,0,1,994,0C1041,826.4,1054.26,797.7,1036,784.9Z" style="fill:#fa6428"/></g></g></g></svg>