<svg xmlns="http://www.w3.org/2000/svg" viewBox="0 0 1203.3 164.58"><defs><style>.cls-1{fill:#0d397f;}.cls-2{fill:#ff1a6a;}</style></defs><title>Logo_CHV_NOTICIAS</title><g id="Capa_2" data-name="Capa 2"><g id="Capa_1-2" data-name="Capa 1"><g id="g5187"><path id="path5176" class="cls-1" d="M0,81.79c0,45.11,38.11,81.79,85,81.79H96.23V131.4H85c-28.4,0-51.54-22.25-51.54-49.61S56.56,32.18,85,32.18H96.23V0H85C38.11,0,0,36.68,0,81.79"/><path id="path5179" class="cls-1" d="M166.18,66V0h-33V66Z"/><path id="path5182" class="cls-1" d="M166.18,163.58V98.14h-33v65.45Z"/><path id="path5185" class="cls-1" d="M273.67,66l-37.84,50.76V.1H203.72L203.84,154v10h32l76.76-98Z"/></g><path class="cls-2" d="M343,.22h21.6l80.81,109.09h.41V4.36h29.92V163.55H454.19L373.37,54.46H373v106H343Z"/><path class="cls-2" d="M566.14,164.58c-46.82,0-75.93-36.43-75.93-82.38,0-46.37,30.13-82,75.93-82s75.93,35.61,75.93,82C642.07,128.15,613,164.58,566.14,164.58Zm0-134.34c-28.29,0-45,25.46-45,50.71,0,24,11.81,53.62,45,53.62s45-29.6,45-53.62C611.13,55.7,594.44,30.24,566.14,30.24Z"/><path class="cls-2" d="M706.6,160.44H676.68V30.86H645.73V4.36h91.81v26.5H706.6Z"/><path class="cls-2" d="M778.46,160.44H748.53V4.36h29.93Z"/><path class="cls-2" d="M902.84,45.8A44,44,0,0,0,869,29.2c-28.7,0-45.19,26.91-45.19,53.82,0,26.29,17.1,52.58,45,52.58,12.82,0,25.65-6.83,34-16.56v36.23c-11.2,5.38-22.4,9.31-34.82,9.31-43.15,0-75.11-37.88-75.11-80.93,0-44.3,30.74-83.43,75.73-83.43a70.68,70.68,0,0,1,34.2,9.11Z"/><path class="cls-2" d="M952.5,160.44H922.58V4.36H952.5Z"/><path class="cls-2" d="M1005.63,127.53,993,160.44H961.46L1021.31.22h23.2l58.22,160.22h-32L1059,127.53ZM1031.49,46h-.41l-16.9,56.72h36.44Z"/><path class="cls-2" d="M1184.16,38.73c-5.7-7.87-13-12.84-23-12.84-9.56,0-18.72,7.45-18.72,17.6,0,26.29,60.86,15.32,60.86,67.69,0,31.25-19.13,53.4-50.48,53.4-21.17,0-36.64-12.42-47.23-30.43l19.34-19.25c4.07,12,14.86,22.77,27.68,22.77,12.22,0,19.75-10.55,19.75-22.56,0-16.15-14.66-20.7-26.67-25.46-19.74-8.28-34.2-18.42-34.2-42.64,0-25.88,18.94-46.79,44.79-46.79,13.64,0,32.57,6.83,41.93,17.39Z"/></g></g></svg>