<svg xmlns="http://www.w3.org/2000/svg" viewBox="0 0 157.153 68.819">
  <defs>
    <style>
      .cls-1 {
        fill: #009fe3;
      }

      .cls-2 {
        fill: #fff;
      }

      .cls-3 {
        fill: #6c70ae;
      }
    </style>
  </defs>
  <g id="Group_548" data-name="Group 548" transform="translate(0.007 0.007)">
    <g id="Group_545" data-name="Group 545" transform="translate(99.487 0.17)">
      <path id="Path_217" data-name="Path 217" class="cls-1" d="M343.024,5.241h0A4.746,4.746,0,0,0,338.283.5H290.141A4.746,4.746,0,0,0,285.4,5.241h0V32.99a.721.721,0,0,0,1.22.523l4.671-4.392a4.732,4.732,0,0,1,3.277-1.29h43.75a4.746,4.746,0,0,0,4.741-4.741l-.035-17.849Z" transform="translate(-285.4 -0.5)"/>
      <g id="Group_544" data-name="Group 544" transform="translate(9.866 4.079)">
        <path id="Path_218" data-name="Path 218" class="cls-2" d="M324.367,32.169a4.891,4.891,0,0,1-4.985,5.264A4.134,4.134,0,0,1,316.105,36h-.035v5.438H313.7v-14.5h2.371v1.255h.035a4.16,4.16,0,0,1,3.277-1.394C322.241,26.8,324.367,29.031,324.367,32.169Zm-2.405,0A2.963,2.963,0,0,0,319,28.961a3.008,3.008,0,0,0-3,3.207,2.948,2.948,0,0,0,3.033,3.1A2.867,2.867,0,0,0,321.962,32.169Z" transform="translate(-313.7 -21.71)"/>
        <path id="Path_219" data-name="Path 219" class="cls-2" d="M351.9,12.2h2.371V27.783H351.9Z" transform="translate(-338.583 -12.2)"/>
        <path id="Path_220" data-name="Path 220" class="cls-2" d="M376.847,27.2V37.519h-2.371V36.194h-.035a4.17,4.17,0,0,1-3.172,1.5c-2.266,0-3.87-1.15-3.87-4.218V27.2h2.37v5.647c0,2.057.628,2.684,2.057,2.684,1.394,0,2.649-1.15,2.649-3.381V27.2Z" transform="translate(-348.68 -21.971)"/>
        <path id="Path_221" data-name="Path 221" class="cls-2" d="M400.6,35.933l1.185-1.778a3.968,3.968,0,0,0,2.963,1.22c.906,0,1.464-.418,1.464-1.011,0-.523-.7-.8-2.057-1.255-1.708-.593-3.137-1.36-3.137-3.381,0-1.673,1.534-2.928,3.626-2.928a5.482,5.482,0,0,1,3.66,1.29l-1.185,1.848a3.916,3.916,0,0,0-2.58-1.116c-.453,0-1.116.244-1.116.872,0,.523.662.872,1.638,1.255,2.2.872,3.591,1.255,3.591,3.312,0,1.743-1.22,3.137-3.87,3.137A5.9,5.9,0,0,1,400.6,35.933Z" transform="translate(-370.306 -21.71)"/>
      </g>
    </g>
    <g id="Group_547" data-name="Group 547" transform="translate(-0.007 -0.007)">
      <g id="Group_546" data-name="Group 546">
        <path id="Path_222" data-name="Path 222" class="cls-3" d="M82.2,58.944A9.115,9.115,0,0,1,70.2,54.238L55.11,21.888a9.109,9.109,0,0,1,16.7-7.286L86.9,46.987A9.117,9.117,0,0,1,82.2,58.944m-30.154,0A9.115,9.115,0,0,1,40.05,54.238L24.955,21.888a9.2,9.2,0,0,1-.174-6.868A9.072,9.072,0,0,1,29.627,9.9a8.823,8.823,0,0,1,3.347-.767H33.6a8.824,8.824,0,0,1,3.347.767,9.065,9.065,0,0,1,4.846,5.124L56.678,46.952a9.085,9.085,0,0,1-4.636,11.992M26.559,54.238a9.1,9.1,0,0,1-16.7-7.251L18.193,29.1l10.04,21.544Zm68.71-10.981h0L80.174,10.907A18.251,18.251,0,0,0,48.382,7.978v.035A18.36,18.36,0,0,0,33.88,0H32.59A18.286,18.286,0,0,0,16.624,10.907L1.529,43.257a18.224,18.224,0,0,0,31.758,17.57,18.207,18.207,0,0,0,30.154-.035A18.246,18.246,0,0,0,95.269,43.257" transform="translate(0.007 0.007)"/>
        <path id="Path_223" data-name="Path 223" class="cls-1" d="M82.2,58.944A9.115,9.115,0,0,1,70.2,54.238L55.11,21.888a9.109,9.109,0,0,1,16.7-7.286L86.9,46.987A9.117,9.117,0,0,1,82.2,58.944m-30.154,0A9.115,9.115,0,0,1,40.05,54.238L24.955,21.888a9.2,9.2,0,0,1-.174-6.868A9.072,9.072,0,0,1,29.627,9.9a8.823,8.823,0,0,1,3.347-.767H33.6a8.824,8.824,0,0,1,3.347.767,9.065,9.065,0,0,1,4.846,5.124L56.678,46.952a9.085,9.085,0,0,1-4.636,11.992M26.559,54.238a9.1,9.1,0,0,1-16.7-7.251L18.193,29.1l10.04,21.544Zm68.71-10.981h0L80.174,10.907A18.251,18.251,0,0,0,48.382,7.978v.035A18.36,18.36,0,0,0,33.88,0H32.59A18.286,18.286,0,0,0,16.624,10.907L1.529,43.257a18.224,18.224,0,0,0,31.758,17.57,18.207,18.207,0,0,0,30.154-.035A18.246,18.246,0,0,0,95.269,43.257" transform="translate(0.007 0.007)"/>
      </g>
    </g>
  </g>
</svg>
