<svg xmlns="http://www.w3.org/2000/svg" viewBox="0 0 500 184.33"><defs><style>.cls-1{fill:#f00406;}</style></defs><title>Logo_VTR</title><g id="Capa_2" data-name="Capa 2"><g id="Capa_1-2" data-name="Capa 1"><path class="cls-1" d="M283.57,168.17c13.1-.31,17.29-9.94,18-11.62s38-101.9,38-101.9a3.37,3.37,0,0,0,.26-1.28c0-2-2-2.9-3.41-2.9H314.81c-1.9,0-3.7.76-4.23,2.28C310.09,54,283.64,132,283.65,132s-26.6-78-27.08-79.24c-.54-1.5-2.33-2.3-4.23-2.28H230.7c-1.43,0-3.4.86-3.42,2.9a3.57,3.57,0,0,0,.26,1.28s37.4,100.53,38,101.9,4.93,11.31,18,11.62"/><path class="cls-1" d="M451,92.89a14.09,14.09,0,0,1,4.3-10.59c2.4-2.5,6.36-3.72,9.64-3.72l29.44,0a5.87,5.87,0,0,0,4-1.26A4.77,4.77,0,0,0,500,73.7L500,55a4.79,4.79,0,0,0-1.49-3.65,5.5,5.5,0,0,0-3.3-1.24l0,0H467.91c-13.12,0-24.91,2.78-33,10.1s-12.5,18.89-12.49,35.18v66.76a5.92,5.92,0,0,0,1.26,4,4.76,4.76,0,0,0,3.66,1.49l18.66.06a4.77,4.77,0,0,0,3.65-1.5,5.42,5.42,0,0,0,1.24-3.3l0,0Z"/><path class="cls-1" d="M352.29,20.64a5.93,5.93,0,0,1,1.27-4,4.76,4.76,0,0,1,3.66-1.49h18.65a4.73,4.73,0,0,1,3.65,1.49,5.89,5.89,0,0,1,1.28,4v30h23.86a6,6,0,0,1,4,1.25,4.7,4.7,0,0,1,1.49,3.62V74a4.7,4.7,0,0,1-1.5,3.62,6,6,0,0,1-4,1.25H380.8v46.57A14.06,14.06,0,0,0,385,136c2.39,2.5,6.35,3.72,9.63,3.72l9.9.05a5.92,5.92,0,0,1,4.08,1.18,4.78,4.78,0,0,1,1.5,3.66l.05,18.66a4.79,4.79,0,0,1-1.49,3.65,5.5,5.5,0,0,1-3.3,1.24l-7.8,0c-13.13,0-24.92-2.79-33-10.11s-12.39-18.89-12.38-35.19Z"/><path class="cls-1" d="M171.45,5.28a48.36,48.36,0,0,0-63.24,17.94l0,0L96.51,43.42A48.38,48.38,0,1,0,68.14,92.56l-10.57,18.3,0,0c-.62,1-1.22,2-1.77,3.09a48.37,48.37,0,0,0,84.34,47.22l0,0,50.86-88.08,0,0c.53-.9,1.09-1.79,1.57-2.74A48.39,48.39,0,0,0,171.45,5.28"/></g></g></svg>