<svg width="529" height="174" xmlns="http://www.w3.org/2000/svg" xmlns:xlink="http://www.w3.org/1999/xlink" overflow="hidden"><defs><clipPath id="clip0"><rect x="376" y="273" width="529" height="174"/></clipPath></defs><g clip-path="url(#clip0)" transform="translate(-376 -273)"><path d="M376.023 273.048C383.556 273.002 391.099 272.792 398.585 273.841 399.673 274.273 400.76 274.704 401.86 275.112 406.176 277.596 409.637 282.119 409.942 287.168 410 339.438 409.871 391.719 410 444 398.667 443.837 387.333 443.93 376 443.942 376.059 386.973 376 330.005 376.023 273.048Z" fill="#ED1474" fill-rule="evenodd"/><path d="M870.877 330.296C871.801 311.561 871.041 292.758 871.275 274 878.551 274.058 885.921 273.711 893.092 275.157 899.841 277.448 904.181 284.727 903.994 291.635 903.936 324.383 903.994 357.142 903.971 389.901 903.292 404.689 900.087 421.156 887.827 431.003 867.824 445.248 841.187 449.622 817.522 442.933 805.602 440.457 795.413 432.126 789.786 421.561 783.141 410.232 780.837 397.052 780.088 384.15 780.03 377.728 779.667 371.224 781.012 364.906 782.685 347.456 790.406 329.682 804.829 318.909 816.773 310.011 833.057 308.703 847.212 312.256 857.214 314.859 864.42 322.786 870.877 330.296M820.131 349.771C816.691 355.684 813.849 362.094 813.556 369.014 813.439 380.111 812.445 391.764 817.229 402.144 821.289 411.47 830.998 418.865 841.55 418.228 850.534 418.992 859.881 414.467 864.56 406.772 869.859 398.73 870.327 388.813 871.298 379.556 871.286 366.526 868.783 351.391 857.366 343.221 851.095 338.431 842.86 340.652 835.584 340.166 828.822 339.657 824.155 345.246 820.131 349.771Z" fill="#1DA6E6" fill-rule="evenodd"/><path d="M677.821 317.443C694.773 309.644 714.972 307.165 732.678 313.939 744.992 318.572 754.071 329.187 759.927 340.687 765.237 351.536 768.356 363.431 769.261 375.478 763.892 380.53 756.668 382.718 750.106 385.721 733.142 392.1 714.288 396.185 696.373 391.576 691.503 390.4 686.888 388.433 682.308 386.455 682.958 393.38 686.842 399.445 690.471 405.195 693.057 409.49 697.011 412.667 701.058 415.496 713.024 421.222 729.443 416.974 736.168 405.183 737.849 402.645 739.345 399.34 742.719 398.816 752.007 396.313 761.677 395.51 771 393.124 769.748 400.376 768.53 407.779 765.098 414.39 758.373 428.346 745.004 438.216 730.37 442.511 714.45 447.284 696.083 448.075 681.473 439.008 668.069 431.617 659.257 418.033 654.781 403.646 648.415 383.952 645.957 361.639 654.48 342.189 658.921 331.399 667.246 322.401 677.821 317.443M680.082 354.387C679.375 359.672 679.838 365.049 679.792 370.369 698.286 367.086 716.758 363.676 735.275 360.498 735.472 360.265 735.878 359.8 736.087 359.567 733.965 351.256 729.999 343.283 723.367 337.673 717.14 333.925 709.638 334.448 702.693 334.867 692.048 335.717 682.575 344.005 680.082 354.387Z" fill="#7FCC28" fill-rule="evenodd"/><path d="M443.611 316.563C452.835 311.674 463.411 309.78 473.765 310.037 487.404 309.768 501.637 310.844 513.994 317.136 519.305 320.656 524.418 324.983 527.307 330.807 530.323 336.491 531.034 343.075 530.999 349.425 530.941 363.435 530.987 377.434 530.976 391.444 530.521 399.958 530.254 408.717 526.829 416.681 522.333 426.937 514.518 436.211 503.943 440.421 495.534 444.748 486.006 445.497 476.747 446.152 462.852 448.093 447.827 447.064 435.749 439.252 425.931 434.305 421.307 422.903 420.491 412.424 419.082 400.882 420.398 387.725 428.481 378.755 439.43 368.628 454.617 365.201 468.978 363.47 477.865 361.739 487.916 361.868 495.312 355.939 498.853 353.471 499.132 348.992 498.841 345.074 495.347 338.432 487.206 337.578 480.649 336.268 474.685 336.07 468.559 336.724 462.957 338.888 459.847 340.139 457.82 342.981 455.666 345.402 444.985 345.32 434.305 345.343 423.636 345.39 425.406 333.38 432.872 322.27 443.611 316.563M477.248 384.602C470.749 386.263 463.737 386.965 458.018 390.754 454.07 393.526 451.321 398.145 451.531 403.08 451.193 408.553 452.602 415.102 457.762 417.967 463.702 422.072 471.436 421.838 478.144 420.131 487.579 418.049 495.848 410.565 498.247 401.08 500.239 393.619 499.855 385.842 499.761 378.194 492.191 380.1 484.935 383.082 477.248 384.602Z" fill="#8D198F" fill-rule="evenodd"/><path d="M618.323 315.042C634.392 312.315 650.778 313.453 667 313 654.414 320.601 645.547 333.342 641.723 347.349 632.351 347.72 622.064 346.223 613.725 351.41 606.288 356.249 602.969 365.347 602.98 373.864 602.957 397.223 602.945 420.583 602.98 443.942 591.65 443.942 580.319 443.838 569 444 569.141 419.91 568.977 395.819 569.07 371.729 569.962 356.829 575.181 341.639 586.066 330.975 594.617 322.202 606.605 317.851 618.323 315.042Z" fill="#F9A721" fill-rule="evenodd"/></g></svg>