<svg xmlns="http://www.w3.org/2000/svg" viewBox="0 0 1044.56 821.54"><title>Logo_Canal13</title><g id="Capa_2" data-name="Capa 2"><g id="Capa_1-2" data-name="Capa 1"><path d="M1035.93,784.9a899.14,899.14,0,0,0-236.1-117.1,217.24,217.24,0,0,0,23-16.3q66.9-55.2,66.8-146.9,0-56.7-28.6-98.3c-13-18.9-30.5-34.5-52.6-47a20,20,0,0,1-1.6-33.9,183.06,183.06,0,0,0,43.1-42.5c19.2-26.5,28.8-55.4,28.8-86.9q0-91.65-61.9-143.8T645.93,0q-62.85,0-115,24.1c-34.9,16-61.9,38.3-81.3,66.8a166,166,0,0,0-27.8,74.4,20,20,0,0,0,20,22.3h97.3a20,20,0,0,0,19.5-16.3q4.95-23.55,24.8-39.7,26.4-21.45,65.7-21.5c29,0,51.7,7.7,68.3,23.1s24.8,37,24.8,64.7q0,43-25,69t-77,26h-10.6a53.4,53.4,0,1,0,0,106.8h10.1q113.4,0,113.4,103,0,42.45-27.6,68.3c-18.4,17.2-43.9,25.7-76.3,25.7q-42.45,0-71.6-24.6Q555,553.05,550,525.3a19.71,19.71,0,0,0-19.3-16.5h-98.1A19.71,19.71,0,0,0,413,530.4q5.25,55.8,38.8,96.5c-28.4,2.2-56.5,5.9-84.1,10.7V23.6a20.74,20.74,0,0,0-27.8-19.5L132.83,79.4a19.33,19.33,0,0,0-12.7,18.1v73.3A20,20,0,0,0,146,189.9l76-23.6a3.55,3.55,0,0,1,4.6,3.4V674a894.06,894.06,0,0,0-218,111c-18.3,12.8-5,41.5,16.6,35.8a1964.73,1964.73,0,0,1,994,0C1040.93,826.4,1054.23,797.7,1035.93,784.9Z" style="fill:#fa6428"/></g></g></svg>