<?xml version="1.0" encoding="utf-8"?>
<!-- Generator: Adobe Illustrator 23.0.2, SVG Export Plug-In . SVG Version: 6.00 Build 0)  -->
<svg version="1.1" id="Capa_1" xmlns="http://www.w3.org/2000/svg" xmlns:xlink="http://www.w3.org/1999/xlink" x="0px" y="0px"
	 viewBox="0 0 1598 480" style="enable-background:new 0 0 1598 480;" xml:space="preserve">
<style type="text/css">
	.st0{fill-rule:evenodd;clip-rule:evenodd;}
	.st1{clip-path:url(#SVGID_2_);}
	.st2{clip-path:url(#SVGID_4_);}
	.st3{clip-path:url(#SVGID_6_);}
	.st4{clip-path:url(#SVGID_8_);}
	.st5{clip-path:url(#SVGID_10_);}
	.st6{clip-path:url(#SVGID_12_);}
	.st7{fill:#FF0000;}
	.st8{fill:#FFFFFF;}
</style>
<path class="st0" d="M694.7,333.9c-2.9,0.4-5.9-0.4-8.2-2.2l-27.7-20.9l-76.8,5.7c-4.5,0.3-9-2.5-11.6-7.4
	c-2.5-4.8-2.7-10.6-0.3-15.5l41.6-83c1.5-3.3,4.4-5.6,7.9-6.3l84.3-14.1c6.5-1.1,12.9,4.6,14.2,12.6c1.3,8-2.9,15.4-9.4,16.5
	l-79.1,13.2l-26.4,52.9l56.3-4.2c2.6-0.2,5.2,0.7,7.3,2.3l31.1,23.5c5.9,5,7.8,13.2,4.7,20.3C701.4,330.7,698.4,333.2,694.7,333.9z"
	/>
<path class="st0" d="M606.2,405.9c-3.7,0.4-7.3-1.1-9.5-4.1c-4.2-5.2-4.3-13.3-0.2-18l68.8-79.5c4.1-4.7,10.8-4.3,15,1
	c4.2,5.2,4.3,13.3,0.2,18l-68.8,79.5C610.3,404.4,608.3,405.6,606.2,405.9z"/>
<path class="st0" d="M759.4,432.9c-2.1,0.3-4.3,0-6.2-0.9c-3.9-2.1-6.7-5.7-7.7-10l-16.3-60.8c-2.1-7.8,1.3-15.8,7.7-17.9
	c6.3-2,13.2,2.7,15.2,10.6l11.1,41.6l55.1-42.9l-14.9-68c-1.2-5,0-10.3,3.4-14.2c0.9-1,88.7-94.9,87.5-195.5l-0.6,0.1
	c-80.4,13.4-143.5,91.9-144.2,92.6c-4.5,5.6-12.1,5.5-17.1-0.3c-4.9-5.8-5.4-15.1-0.9-20.8c3.1-3.9,76.8-95.6,172.3-102.5
	c6.6-0.5,12.6,5.7,13.5,13.8c5.4,51.3-8.9,106.7-42.5,164.5c-13.4,23-28.9,44.7-46.2,64.9l15.3,69.7c1.3,6-0.5,12.2-4.7,15.4
	l-75.3,58.6C762.6,431.8,761.1,432.6,759.4,432.9z"/>
<path class="st0" d="M670,435.9c-3.6,0.5-7.2-1.1-9.3-4.1c-4.1-5.3-4.3-13.5-0.3-18.3l29.2-35.1c4-4.8,10.6-4.4,14.7,0.9
	c4.1,5.3,4.3,13.5,0.3,18.3l-29.2,35.1C674,434.4,672.1,435.5,670,435.9z"/>
<g>
	<defs>
		<rect id="SVGID_1_" x="13.5" y="1" width="478" height="478"/>
	</defs>
	<clipPath id="SVGID_2_">
		<use xlink:href="#SVGID_1_"  style="overflow:visible;"/>
	</clipPath>
	<g class="st1">
		<g>
			<defs>
				<rect id="SVGID_3_" x="13.5" y="1" width="478" height="478"/>
			</defs>
			<clipPath id="SVGID_4_">
				<use xlink:href="#SVGID_3_"  style="overflow:visible;"/>
			</clipPath>
			<g class="st2">
				<g>
					<defs>
						<rect id="SVGID_5_" x="13.5" y="1" width="478" height="478"/>
					</defs>
					<clipPath id="SVGID_6_">
						<use xlink:href="#SVGID_5_"  style="overflow:visible;"/>
					</clipPath>
					<g class="st3">
						<path d="M252.5,364.5c-49.8,0-89.6-39.8-89.6-89.6s39.8-89.6,89.6-89.6c49.8,0,89.6,39.8,89.6,89.6S302.3,364.5,252.5,364.5z
							 M152.9,205.1H93.2v-39.8h59.7V205.1z M431.8,125.5h-99.6l-29.9-49.8h-99.6l-29.9,49.8H73.3c-11,0-19.9,9-19.9,19.9v239
							c0,11,9,19.9,19.9,19.9h358.5c11,0,19.9-9,19.9-19.9v-239C451.7,134.4,442.7,125.5,431.8,125.5z"/>
						<path d="M252.5,225.1c-27.9,0-49.8,21.9-49.8,49.8s21.9,49.8,49.8,49.8c27.9,0,49.8-21.9,49.8-49.8S280.4,225.1,252.5,225.1z
							 M252.5,344.6c-38.8,0-69.7-30.9-69.7-69.7c0-38.8,30.9-69.7,69.7-69.7c38.8,0,69.7,30.9,69.7,69.7
							C322.2,313.7,291.3,344.6,252.5,344.6z"/>
					</g>
				</g>
			</g>
		</g>
	</g>
</g>
<g>
	<defs>
		<rect id="SVGID_7_" x="1058.5" y="100" width="398" height="280"/>
	</defs>
	<clipPath id="SVGID_8_">
		<use xlink:href="#SVGID_7_"  style="overflow:visible;"/>
	</clipPath>
	<g class="st4">
		<g>
			<defs>
				<rect id="SVGID_9_" x="1058.5" y="100" width="398" height="280"/>
			</defs>
			<clipPath id="SVGID_10_">
				<use xlink:href="#SVGID_9_"  style="overflow:visible;"/>
			</clipPath>
			<g class="st5">
				<g>
					<defs>
						<rect id="SVGID_11_" x="1058.5" y="100" width="398" height="280"/>
					</defs>
					<clipPath id="SVGID_12_">
						<use xlink:href="#SVGID_11_"  style="overflow:visible;"/>
					</clipPath>
					<g class="st6">
						<path class="st7" d="M1448.3,144.4c-4.6-17-18-30.5-35.1-35c-31.1-8.5-155.7-8.5-155.7-8.5s-124.6,0-155.7,8.2
							c-16.7,4.6-30.5,18.3-35.1,35.4c-8.2,31.1-8.2,95.6-8.2,95.6s0,64.8,8.2,95.6c4.6,17,18,30.5,35.1,35
							c31.5,8.5,155.7,8.5,155.7,8.5s124.6,0,155.7-8.2c17-4.6,30.5-18,35.1-35c8.2-31.1,8.2-95.6,8.2-95.6
							S1456.8,175.5,1448.3,144.4z"/>
						<path class="st8" d="M1321.4,240l-103.6-59.6v119.2L1321.4,240z"/>
					</g>
				</g>
			</g>
		</g>
	</g>
</g>
</svg>
