<?xml version="1.0" encoding="utf-8"?>
<!-- Generator: Adobe Illustrator 23.0.2, SVG Export Plug-In . SVG Version: 6.00 Build 0)  -->
<svg version="1.1" id="Capa_1" xmlns="http://www.w3.org/2000/svg" xmlns:xlink="http://www.w3.org/1999/xlink" x="0px" y="0px"
	 viewBox="0 0 768 303.4" style="enable-background:new 0 0 768 303.4;" xml:space="preserve">
<style type="text/css">
	.st0{fill:#FB0D12;}
</style>
<title>Logotipo_NTV(Chile)</title>
<g>
	<g id="Layer_1">
		<path class="st0" d="M298.9,247.4c0-0.1,0.1-0.2,0.1-0.4c-6.8-4.2-10.2-12.5-10.1-24.8V117c0.1-15.4-1.9-30.7-5.9-45.6
			c-4-14.4-10.1-26.8-18.6-37.3c-8.4-10.5-19.4-18.8-32.8-24.9C218.2,3.1,202,0,183,0c-13.6,0-25.6,1.6-35.9,4.9
			c-9.5,2.9-18.5,7.3-26.6,12.9c-7,4.9-13.1,11.1-18,18.2c-4.4,6.6-8,13.7-10.5,21.2V45.6c-1.2-14.4-6.9-25.4-17-32.9
			S52.6,1.2,38.2,1.2c-12,0-19.9,1.3-23.8,4c-0.6,0.4-1.3,0.9-1.9,1.5C4.8,11.7,0.1,20.3,0,29.5c0.1,8.4,4,16.2,10.6,21.3
			c0.2,0.2,0.4,0.4,0.6,0.6c1.8,1.4,3.8,2.5,5.9,3.4c0.3,0.1,0.5,0.1,0.8,0.2c1,0.4,2,0.7,3,1c8.6,3.5,12.9,12,12.9,25.3v109.9h-0.3
			v77.4C33.5,287.1,49,302,67,302s33.5-15.4,33.5-33.3v-2.2h0.2V131.1c0.1-8.3,1.3-16.6,3.7-24.6c2.4-8.5,6.2-16.6,11.1-24
			c5-7.5,11.7-13.7,19.5-18.2c8.1-4.7,17.6-7.1,28.8-7.1c19.8,0,34.4,5.9,43.6,17.6s13.9,27,13.9,45.9v110.8
			c0,24.6,5.5,42.7,16.4,54.2c10.8,11.3,25.9,17.1,45.4,17.2l0.3-0.3c13.7-0.6,25.3-10.2,28.4-23.6
			C314.6,266.8,308.9,254.2,298.9,247.4"/>
		<path class="st0" d="M589.9,33.2c0,17-13.8,30.8-30.8,30.8h-94.8v207.7c-0.3,17.3-14.6,31.1-31.9,30.8
			c-16.9-0.3-30.5-13.9-30.8-30.8V64h-76.8c-17,0.3-31.1-13.2-31.4-30.3c-0.3-17,13.2-31.1,30.3-31.4c0.4,0,0.7,0,1.1,0h234.4
			C576.1,2.4,589.9,16.1,589.9,33.2C589.9,33.2,589.9,33.2,589.9,33.2"/>
		<path class="st0" d="M765.4,46.2c-22,60.4-44.1,120.7-66.3,181c-6.4,17.4-12.7,34.8-19.2,52.1c-5.8,15.3-16.6,23.8-30.3,24.1h-1.2
			c-13.7-0.3-24.5-8.7-30.3-24.1c-6.5-17.3-12.8-34.7-19.2-52.1c-22.1-60.3-44.3-117-66.3-177.4c-7.7-21.1,2.5-40,23.3-43.8
			c15.2-2.8,29.2,5.7,35.2,22c15.7,42.3,31.2,81.1,46.8,123.5c3.4,9.2,6.9,18.4,11.1,29.7c4.2-11.3,7.7-20.5,11.1-29.7
			c15.6-42.4,31.2-84.7,46.8-127.1c6.1-16.3,20-24.8,35.2-22C762.9,6.1,773.1,25,765.4,46.2"/>
	</g>
</g>
</svg>
