<svg xmlns="http://www.w3.org/2000/svg" viewBox="0 0 1162.28 287.7"><defs><style>.cls-1,.cls-2,.cls-3{fill:#2e3192;}.cls-2,.cls-3{stroke:#2e3192;stroke-miterlimit:10;}.cls-2{stroke-width:4px;}</style></defs><title>Logo_TVSenado_Señal_6</title><g id="Capa_2" data-name="Capa 2"><g id="Capa_1-2" data-name="Capa 1"><path class="cls-1" d="M1080.29,282.81a87,87,0,0,1-37-8,83.1,83.1,0,0,1-30.06-24q-12.83-16-20.39-40.57t-7.57-57.39q0-39.51,8.62-67.69T1017,39.37q14.51-17.65,33.21-26.07a94,94,0,0,1,38.89-8.41q23.12,0,40.16,8.41a93.15,93.15,0,0,1,28.37,21l-23.12,26.07a56.39,56.39,0,0,0-19.13-14.92,54.13,54.13,0,0,0-24.17-5.68A56.2,56.2,0,0,0,1058,50.51q-15.13,10.73-24.18,35.32t-9,67.06q0,32.79,6.73,54.45t19.13,32.16A43.76,43.76,0,0,0,1079.87,250a38.23,38.23,0,0,0,21.87-6.51q9.66-6.52,15.34-18.71t5.68-29q0-16.8-5.26-28.16a38.93,38.93,0,0,0-15.34-17.45q-10.1-6.09-24.81-6.1-12.19,0-26.28,8t-26.7,27.33l-1.68-31.11a87.65,87.65,0,0,1,29.22-26.07q17-9.24,33-9.25,23.11,0,40.57,9t27.12,27.54q9.66,18.5,9.67,46.24,0,26.08-11.14,45.62a81,81,0,0,1-29.85,30.49A79.91,79.91,0,0,1,1080.29,282.81Z"/><g id="Capa_1-2-2" data-name="Capa 1-2"><path class="cls-2" d="M582.75,285.7H299.09V2.06H582.75Zm-4.64-279H303.83V280.88H578.11Z"/><path class="cls-2" d="M595.53,285.55V2H879.32V285.55ZM874.65,6.61H600.29V281H874.65Z"/><path class="cls-2" d="M285.58,285.61H2V2.1H285.58ZM6.87,6.51V281H281.23V6.51Z"/><path class="cls-3" d="M437.76,211.55c6.2-21.29,12-42.43,18.52-63.36,10.08-32.52,20.65-64.89,30.83-97.37,1.08-3.43,2.51-4.9,6.18-4.83,10.49.2,21,.09,31.49.14a37.56,37.56,0,0,1,3.82.46c-5,14.61-9.9,28.86-14.82,43.08L460,245.1c-1.27,3.7-2.77,5.23-6.93,5.1-11.32-.35-22.66-.17-34-.08-2.66,0-4.08-.61-5-3.48Q382,147,349.73,47.48a3.75,3.75,0,0,1,.09-.82,9.76,9.76,0,0,1,2.14-.48c11.5,0,23,0,34.49-.08,2.73,0,4.17.84,5,3.6q22.28,77.35,44.66,154.67C436.76,206.76,437.21,209.21,437.76,211.55Z"/><path class="cls-3" d="M679.81,213c11.19,3.47,21.61,7.37,32.37,9.84,11.92,2.74,24.11,3.06,36-1.12,9.67-3.4,16.31-9.71,17.93-20.14s-1.37-19.75-10.49-25.18c-9.63-5.74-20.06-10.26-30.45-14.58-14.61-6.08-28.48-13.17-38.71-25.61-19.73-24-13-60.58,14.27-78.34A74.81,74.81,0,0,1,734.85,46.1c19.61-1.87,38.92-.38,57.31,7.54,1.06.46,2.12,1,3.14,1.51a8,8,0,0,1,1.31,1.22c-3,9.71-5.94,19.49-9.05,29.73C775,80,762.21,76.36,748.75,76.79c-6.87.22-14.16.9-20.43,3.42C710.19,87.48,707.75,109,724,119.83c8.59,5.74,18.5,9.65,28.08,13.76,12.58,5.39,25.18,10.61,35.35,20.12,27.33,25.56,22,71.49-10.5,90.17-21.15,12.15-44.16,14.26-67.68,10.44-10.89-1.77-21.45-5.61-32.12-8.66-3.85-1.1-5.46-3.13-4-7.73C675.86,229.61,677.72,221,679.81,213Z"/><path class="cls-3" d="M226.17,49V80.11H167.75V252.38H130.53V80.2H72.47V49Z"/></g></g></g></svg>