<svg id="Capa_1" data-name="Capa 1" xmlns="http://www.w3.org/2000/svg" viewBox="0 0 1920 194.86"><title>LogoTV_24H</title><path d="M6239.5,6659.5h1920v194.86h-1920Z" transform="translate(-6239.5 -6659.5)" style="fill:#fff;opacity:0"/><rect x="1706.86" y="57.18" width="113.79" height="113.79" rx="56.89" style="fill:red"/><path d="M7976.19,6791.8a3.64,3.64,0,0,1-3.54-2.06,3.7,3.7,0,0,1,1-4,100.62,100.62,0,0,1,9.38-8.64c1.64-1.4,3.39-2.89,5.18-4.53,2.63-2.06,3.95-5.43,3.05-8-.66-2-2.55-3.05-5.19-3.05a7.07,7.07,0,0,0-5.83,3.46,3.55,3.55,0,0,1-3.13,1.73h0a3.4,3.4,0,0,1-3-1.57,4.26,4.26,0,0,1-.08-4.11c2.21-4.28,6.57-6.75,12-6.75,5.92,0,10.53,2.8,12.42,7.41,2.05,5.1.24,11.19-4.69,16.05a62.86,62.86,0,0,1-9.46,6.92c.83,0,1.73-.08,2.63-.16,1.32-.08,2.64-.17,3.79-.17h6.17a3.77,3.77,0,0,1,3.61,4,3.63,3.63,0,0,1-.9,2.47,3.45,3.45,0,0,1-2.71,1.15h-20.73Z" transform="translate(-6239.5 -6659.5)" style="fill:#fff;fill-rule:evenodd"/><path d="M8023.52,6791.88c-1.81,0-3.79-1.06-3.79-3.36v-4.18H8004.9c-2,0-3.39-.74-4-2a4.45,4.45,0,0,1,1-4.75l17.88-21.48a4.92,4.92,0,0,1,4-1.88c2.63,0,3.54,2.21,3.54,4v18.86h2a3.16,3.16,0,0,1,2.56,1.15,3.56,3.56,0,0,1,.82,2.46,3.48,3.48,0,0,1-3.39,3.77h-2v4.18C8027.39,6790.73,8025.41,6791.88,8023.52,6791.88Zm-3.39-14.92.08-11-9.21,11Z" transform="translate(-6239.5 -6659.5)" style="fill:#fff;fill-rule:evenodd"/><path d="M8002.86,6823.41a49.77,49.77,0,0,1-49.06-41.53,3.5,3.5,0,1,1,6.9-1.15,42.93,42.93,0,1,0,0-14.15,3.5,3.5,0,1,1-6.9-1.15,49.81,49.81,0,1,1,49.06,58Z" transform="translate(-6239.5 -6659.5)" style="fill:#fff;fill-rule:evenodd"/></svg>