<svg xmlns="http://www.w3.org/2000/svg" viewBox="0 0 1451.08 331.24"><defs><style>.cls-1{fill:#232429;}.cls-2{fill:#0099df;}</style></defs><title>Logo_RadioLaClave</title><g id="Capa_2" data-name="Capa 2"><g id="Capa_1-2" data-name="Capa 1"><path class="cls-1" d="M918.44,295.65a48.52,48.52,0,0,0-4.22,3.47c-17.93,19.29-40.67,28.64-66.33,31-35.57,3.22-67.74-5.84-95.11-29.3-22.93-19.63-36.79-44.72-43.06-74.18-13-61.17,20.87-120.77,71.37-145.57,31.9-15.67,65.1-18.27,98.82-6.17,13.46,4.83,25.32,12.52,34.36,24a39.63,39.63,0,0,0,4.11,3.71c.31-2.92.62-4.61.64-6.3.05-5.67.1-11.34-.07-17-.09-3.37,1.19-4.87,4.64-4.86q22.49.09,45,0c3.27,0,4.73,1.06,4.73,4.67q-.1,119.94,0,239.88c0,3.64-1.12,5.11-4.84,5.08q-22.23-.18-44.47,0c-3.68,0-5.1-1.59-5-5.12.1-5.66.08-11.33,0-17C919,300.2,918.71,298.49,918.44,295.65ZM843.1,118.82c-41.57-.21-78.84,34.18-78.9,80.15-.05,46.15,36.84,80.67,79,80.58,41.92-.08,78.14-34.89,78-80.44C921.14,151.85,882.85,118.46,843.1,118.82Z"/><path class="cls-2" d="M295.46,295.21a30.31,30.31,0,0,0-3.67,2.88c-12,14-27.37,22.69-44.73,27.9-27.79,8.35-55.36,6.47-82.25-3.8-30.29-11.58-52.07-32.71-66.62-61.54A130.91,130.91,0,0,1,83.78,198c.7-29.68,11-56.35,29.51-79.59,22.27-28,51.17-44.69,86.88-48.79,20.29-2.33,40.21-.63,59.24,7.51,12.76,5.45,23.91,13.07,32.46,24.2a10.71,10.71,0,0,0,2.68,1.85c.54-1.09,1.52-2.17,1.54-3.27q.2-9.75,0-19.49c-.08-3.59,1.3-5.11,5-5.08q22.23.15,44.48,0c3,0,4.37,1.07,4.27,4,0,1,0,2,0,3q0,117.7.11,235.41c0,5-1.33,6.59-6.45,6.47-13.82-.35-27.65-.25-41.47,0-4.58.07-6.27-1.44-6-6.09.37-5.81.15-11.66.1-17.49C296.11,299.23,295.79,297.83,295.46,295.21ZM298,199.48c0-43.76-35.55-80.47-78-80.52-43.76-.06-80.31,36.82-79.7,81.69.59,43.49,34.67,79.74,79.84,80.12C262.39,281.12,298,243.58,298,199.48Z"/><path class="cls-1" d="M1347.28,217.21h-96c-7.81,0-8,.07-6.42,7.46,5.55,25.42,21.65,42,45,51.57,34.95,14.31,72,2.08,95.66-25.49,6.93-8.09,4.76-8.14,14.77-2.59,10.92,6.05,21.8,12.16,32.8,18.07,3.61,1.94,3.95,3.72,1.28,6.89-24.47,29-54.49,49.72-92.37,55-55.75,7.8-102.91-8.79-136.4-56-15-21.11-22.15-45.27-22.34-71.35q-.45-62.92,47.65-103.38c18.24-15.36,39.62-24.19,63.13-28.05,15.72-2.59,31.36-3.34,47.18-.31a132.84,132.84,0,0,1,64.2,31.46c27.15,24,41.14,54.74,44.63,90.49.64,6.61.4,13.31.92,19.94.38,4.86-1.5,6.36-6.27,6.33C1412.26,217.14,1379.77,217.21,1347.28,217.21Zm-36.46-102.37c-3.87.7-11.25,1.35-18.2,3.42-23.73,7.06-38.33,23.64-46.7,46.34-2.5,6.78-1.83,7.68,5.55,7.68h124.45c11.56,0,11.56,0,7.17-10.49C1371,132.89,1344.6,114.89,1310.82,114.84Z"/><path class="cls-1" d="M506.23,67.06c35.11.57,65.58,11.93,90.92,36.05,7.07,6.73,12.84,14.83,19.26,22.25,1.77,2,1.38,3.55-.8,4.85-14,8.33-28.07,16.63-42.06,25-3.17,1.9-3.93-.81-5.47-2.39-6.93-7.12-13.27-15-21-21.06-16.43-12.76-35.83-14.93-55.59-11.38-28.66,5.14-49.36,21.35-60.07,48.61-20.77,52.91,15.55,110.22,72.93,110.74,27.66.26,48.3-11.53,63.82-33.56,2.24-3.18,4.09-3.47,7.33-1.51q19,11.49,38.3,22.55c3.86,2.22,4.65,4,1.7,8-23.64,32.17-55.42,50.52-94.83,54.84-36.4,4-70.29-3.86-100.11-25.87-24.76-18.27-41-42.55-48.16-72.51-11.14-46.62-.15-87.85,32.19-123,17.59-19.1,39.82-31.16,65.21-36.58C481.74,69.61,494.07,68.71,506.23,67.06Z"/><path class="cls-1" d="M1091,329.49a51.35,51.35,0,0,1-3.23-5.18q-23.48-51.58-46.87-103.2-28.15-62.31-56.19-124.68c-2.74-6.06-5.61-12.07-8.54-18-1.86-3.79.65-3.92,3.16-3.94,9.34,0,18.67,0,28,0,7.83,0,15.67.13,23.5,0,3.4-.08,5.17,1.39,6.33,4.4q25.42,65.91,51,131.77a41,41,0,0,0,2.44,4.43,19.17,19.17,0,0,0,2.29-3.22q25.23-65.48,50.3-131c1.91-5,4.38-7.19,10.11-7,15.49.46,31,.14,46.49.17,6.15,0,6.59.77,4.15,6.18q-25.51,56.69-51,113.38Q1123,259.9,1093,326.34A35.71,35.71,0,0,1,1091,329.49Z"/><path class="cls-1" d="M623.19,122.19V7.26c0-7.13.12-7.25,7.26-7.25q20,0,40,0c6.53,0,6.76.25,6.77,6.73q.24,111.18.61,222.35a89,89,0,0,0,3,20.67c2.18,8.83,8.21,15.16,15.87,19.76q13.91,8.37,28.13,16.2c3.34,1.84,3.6,3.64,1.82,6.75-6.54,11.4-12.92,22.9-19.33,34.38-1.45,2.6-3,4.22-6.29,2.34-13.6-7.68-27.73-14.52-40.87-22.93-25.36-16.24-36.77-40.44-36.9-70.13C623.06,198.15,623.19,160.17,623.19,122.19Z"/><path class="cls-2" d="M.1,124.57C.1,85.76.17,47,0,8.14,0,3.4,1.24,1.75,6.16,1.8c13.48.13,27-.31,40.45-.46,6.45-.07,6.73.28,6.73,6.76q0,104.7.08,209.39a203.93,203.93,0,0,0,1.91,26.35c1.72,13,9.23,22.16,20.5,28.49,8.42,4.73,16.72,9.67,25.19,14.3,3,1.67,3.56,3.32,1.83,6.34-6.62,11.55-13,23.24-19.68,34.75-.71,1.24-3.42,2.67-4.34,2.23-17.67-8.57-35.31-17.21-50.62-29.82C9.11,284.4.81,263.6.58,239.5.23,201.19.49,162.88.49,124.57Z"/></g></g></svg>