<svg xmlns="http://www.w3.org/2000/svg" viewBox="0 0 863.32 283.7"><title>Logo_TVSENADO</title><g id="Capa_2" data-name="Capa 2"><g id="Capa_1-2" data-name="Capa 1"><path d="M573.75,283.7H290.09V.06H573.75Zm-4.64-279H294.83V278.88H569.11Z" style="fill:#0071bc"/><path d="M579.53,283.55V0H863.32V283.55ZM858.65,4.61H584.29V279H858.65Z" style="fill:#0071bc"/><path d="M283.58,283.61H0V.1H283.58ZM4.87,4.51V279H279.23V4.51Z" style="fill:#0071bc"/><path d="M428.76,209.55c6.2-21.29,12-42.43,18.52-63.36,10.08-32.52,20.65-64.89,30.83-97.37,1.08-3.43,2.51-4.9,6.18-4.83,10.49.2,21,.09,31.49.14a37.59,37.59,0,0,1,3.82.46c-5,14.61-9.9,28.86-14.82,43.08Q477.89,165.39,451,243.1c-1.27,3.7-2.77,5.23-6.93,5.1-11.32-.35-22.66-.17-34-.08-2.66,0-4.08-.61-5-3.48Q373,145,340.73,45.48a3.4,3.4,0,0,1,.09-.82,9.31,9.31,0,0,1,2.14-.48c11.5,0,23,0,34.49-.08,2.73,0,4.17.84,5,3.6q22.27,77.35,44.66,154.67C427.76,204.76,428.21,207.21,428.76,209.55Z" style="fill:#0071bc"/><path d="M663.81,211c11.19,3.47,21.61,7.37,32.37,9.84,11.92,2.74,24.11,3.06,36-1.12,9.67-3.4,16.31-9.71,17.93-20.14s-1.37-19.75-10.49-25.18c-9.63-5.74-20.06-10.26-30.45-14.58-14.61-6.08-28.48-13.17-38.71-25.61-19.73-24-12.95-60.58,14.27-78.34a74.78,74.78,0,0,1,34.12-11.77c19.61-1.87,38.92-.38,57.31,7.54,1.06.46,2.12,1,3.14,1.51a7.84,7.84,0,0,1,1.31,1.22c-3,9.71-5.94,19.49-9.05,29.73-12.58-6.13-25.35-9.74-38.81-9.31-6.87.22-14.16.9-20.43,3.42-18.13,7.27-20.57,28.76-4.34,39.62,8.59,5.74,18.5,9.65,28.08,13.76,12.58,5.39,25.18,10.61,35.35,20.12,27.33,25.56,22,71.49-10.5,90.17-21.15,12.15-44.16,14.26-67.68,10.44-10.89-1.77-21.45-5.61-32.12-8.66-3.85-1.1-5.46-3.13-4-7.73C659.86,227.61,661.72,219,663.81,211Z" style="fill:#0071bc"/><path d="M224.17,47V78.11H165.75V250.38H128.53V78.2H70.47V47Z" style="fill:#0071bc"/></g></g></svg>