<?xml version="1.0" encoding="utf-8"?>
<!-- Generator: Adobe Illustrator 24.3.0, SVG Export Plug-In . SVG Version: 6.00 Build 0)  -->
<svg version="1.1" id="Capa_1" xmlns="http://www.w3.org/2000/svg" xmlns:xlink="http://www.w3.org/1999/xlink" x="0px" y="0px"
	 viewBox="0 0 171.1 136.1" style="enable-background:new 0 0 171.1 136.1;" xml:space="preserve">
<style type="text/css">
	.st0{fill:#FF518D;}
	.st1{fill:url(#SVGID_1_);}
	.st2{fill:url(#SVGID_2_);}
	.st3{fill:#FFFFFF;}
</style>
<g>
	<g>
		<g>
			<g>
				<g>
					<g>
						<path class="st0" d="M60.2,5.3c0-2.2-2.2-3.8-4.3-3L23.7,14c-1.2,0.4-2,1.6-2,2.8l0,11.4c0,2.1,2,3.6,4,3l11.8-3.7
							c0.4-0.1,0.7,0.2,0.7,0.5l0,12.5l0.1,72c0,1.9,1.5,3.4,3.4,3.4l15.1-0.3c1.9,0,3.4-1.5,3.4-3.4l-0.1-71.7L60.2,5.3z"/>
					</g>
					<path class="st0" d="M130.7,55.7c-0.5,0.4-0.8,1-0.8,1.6c0,0.6,0.4,1.2,0.9,1.5c3.7,2.1,6.7,4.8,8.9,8
						c3.2,4.7,4.8,10.2,4.8,16.5c0,10.2-3.8,18.4-11.2,24.6c-7.4,6.1-17.2,9.2-29.2,9.1c-11.3,0-20.6-3.1-27.8-9
						c-6.4-5.3-10-12.2-10.8-20.5c-0.1-1.3,0.3-2.5,1.2-3.5c0.9-0.9,2.1-1.5,3.3-1.5l15.7,0c2.2,0,4,1.6,4.4,3.8
						c0.5,2.7,1.8,4.9,4,6.7c2.8,2.4,6.4,3.6,10.6,3.6c4.8,0,8.6-1.3,11.3-3.8c2.7-2.5,4-5.8,4-10c0-10.2-5.5-15.2-16.8-15.2l-1.6,0
						c-5.5,0-9.9-4.5-9.9-9.9c0-5.5,4.5-9.9,9.9-9.9l1.7,0c5.1,0,9-1.3,11.4-3.7c2.5-2.5,3.6-5.8,3.6-10.1c0-4.1-1.2-7.2-3.5-9.4
						c-2.4-2.2-5.8-3.4-10-3.4c-3.9,0-7.1,1.1-9.7,3.1c-1.9,1.5-3.1,3.4-3.5,5.6c-0.5,2.2-2.3,3.7-4.5,3.7l-15.6,0
						c-1.3,0-2.6-0.6-3.4-1.5c-0.9-1-1.3-2.3-1.1-3.5c0.5-4.5,2.1-8.7,4.7-12.5c3.2-4.8,7.8-8.5,13.6-11.2c5.7-2.6,12.1-4,19-4
						c11.9,0,21.4,2.9,28.3,8.7c6.9,5.8,10.4,13.9,10.4,24.1c0,5.3-1.7,10.3-4.9,14.7C135.9,51.4,133.5,53.8,130.7,55.7z"/>
				</g>
			</g>
			<g>
				<g>
					<g>
						<g>
							<g>
								<g>
									<linearGradient id="SVGID_1_" gradientUnits="userSpaceOnUse" x1="0.766" y1="119.3741" x2="169.967" y2="119.3741">
										<stop  offset="0.481" style="stop-color:#1E1E1E"/>
										<stop  offset="0.6709" style="stop-color:#1E1E1E"/>
									</linearGradient>
									<path class="st1" d="M85.4,124.8c27.8,0,54.8,3.5,80.5,10.3c3.5,0.9,5.7-3.7,2.7-5.8c-23.6-16.4-52.3-26-83.2-26
										c-30.9,0-59.6,9.7-83.2,26.1c-3,2.1-0.8,6.7,2.7,5.8C30.6,128.5,57.5,124.9,85.4,124.8z"/>
								</g>
							</g>
						</g>
					</g>
				</g>
			</g>
		</g>
		<g>
			<linearGradient id="SVGID_2_" gradientUnits="userSpaceOnUse" x1="128.3574" y1="23.544" x2="170.6328" y2="23.544">
				<stop  offset="0.481" style="stop-color:#1E1E1E"/>
				<stop  offset="0.6709" style="stop-color:#1E1E1E"/>
			</linearGradient>
			<circle class="st2" cx="149.5" cy="23.5" r="21.1"/>
		</g>
	</g>
	<g>
		<path class="st3" d="M158,15.3h-8.8l-0.8,5.6h7.1l-0.8,5.4h-7.1l-0.8,5.6h8.8l-0.7,5.3h-14.7l3.8-27.2h14.7L158,15.3z"/>
	</g>
</g>
</svg>
