<svg id="Capa_1" data-name="Capa 1" xmlns="http://www.w3.org/2000/svg" viewBox="0 0 552.9 482.63"><title>Logo_TVCHILE</title><path d="M7470,7340.37c-.61,0-1.22-.11-1.83-.11h-70.31c-.34-1.13-.44-98.23-.15-100,1.08-.28,67.73-.41,70.88-.14.35,1,.49,16.67.15,19.43l-5.88,0h-41.44v20.18c2.38.12,4.74,0,7.09.05s4.74,0,7.11,0h28.49v19.49c-2.08,0-4.1,0-6.12,0h-36.58v21.15l.14.12a.28.28,0,0,0,.11.08,3.07,3.07,0,0,0,.42.07H7470Z" transform="translate(-6917.06 -6858.93)" style="fill:red"/><path d="M7116.28,6928.75c-.06.56-.13,1-.13,1.38,0,.85,0,1.71,0,2.56q0,112.57,0,225.14a34.35,34.35,0,0,1-4.31,17.46c-5.91,10.3-14.77,16.35-26.61,17.72a34.7,34.7,0,0,1-38-28.48,42.2,42.2,0,0,1-.54-7.36V6928.75H6963.5a34.78,34.78,0,0,1-34.6-30.17,34.82,34.82,0,0,1,27.25-38.82,40.24,40.24,0,0,1,8.62-.82h254.58a40,40,0,0,1,19.93,4.87,37.51,37.51,0,0,1,17.57,20.3c4.09,11.16,8,22.4,11.93,33.61l50.64,143.35a6.12,6.12,0,0,0,.89,1.77c.2-.49.42-1,.59-1.47q7.86-22.24,15.71-44.48,23.21-65.64,46.39-131.29a39.11,39.11,0,0,1,13.7-18.94,38.27,38.27,0,0,1,18.12-7.31,32.55,32.55,0,0,1,18.08,2.39c10.64,4.82,17.09,13.06,19.36,24.51a32.38,32.38,0,0,1-1.6,17.34q-14.47,40.92-28.92,81.85l-64.81,183.39a39.81,39.81,0,0,1-10,16,36.9,36.9,0,0,1-19.35,9.83,39.31,39.31,0,0,1-20.86-1.65,37,37,0,0,1-19.18-15.54,45.32,45.32,0,0,1-4.14-8.87q-37.76-106.91-75.54-213.81-4.3-12.2-8.62-24.38c-.64-1.8-.39-1.65-2.25-1.65h-80.71Z" transform="translate(-6917.06 -6858.93)" style="fill:red"/><path d="M7060.42,7240.08h23.42c.14,1.6.05,3.19.07,4.78s0,3.32,0,5v29.22c1.19.31,47.35.39,49.33.09,0-6.48,0-13,0-19.53V7240.1h23.47c.05.59.13,1.18.13,1.77q0,16.08,0,32.15,0,32,0,64v1.92c-1.11.37-21.53.47-23.56.13-.08-1.64,0-3.33,0-5v-35.93c-1.11-.35-47.3-.44-49.24-.11-.19,1.64-.06,3.33-.09,5s0,3.41,0,5.12V7340c-1.08.32-21.29.43-23.48.16l-.1-.1s-.07-.07-.08-.11a2.72,2.72,0,0,1-.09-.56v-98.56a1.48,1.48,0,0,1,.07-.42A2.16,2.16,0,0,1,7060.42,7240.08Z" transform="translate(-6917.06 -6858.93)" style="fill:red"/><path d="M6999.41,7307l15.89,14.26c-1.32,1.54-2.52,3.06-3.84,4.46a49.33,49.33,0,0,1-28.26,14.93,68,68,0,0,1-16.3.8c-10-.65-19.4-3.27-27.87-8.79A46,46,0,0,1,6919.4,7306a56.81,56.81,0,0,1,.4-33.61c4.53-14.06,13.93-23.64,27.5-29.23a62.12,62.12,0,0,1,22-4.38,63.53,63.53,0,0,1,24,3.57,47.27,47.27,0,0,1,18,11.83c.13.13.23.29.42.53l-14.71,15.12c-.5-.6-.91-1.11-1.34-1.61a27.55,27.55,0,0,0-12.47-8.13,35.05,35.05,0,0,0-20-.81c-9,2.3-15.45,7.81-18.88,16.42a37,37,0,0,0,.41,29.6c4.23,9.49,11.83,14.79,22,16.39a35.05,35.05,0,0,0,14.66-.74,28.93,28.93,0,0,0,15.7-10.89C6997.91,7309.07,6998.58,7308.09,6999.41,7307Z" transform="translate(-6917.06 -6858.93)" style="fill:red"/><path d="M7355.45,7340.15h-65.88c-.29-1.09-.42-97.06-.14-99.9,1-.3,20.55-.42,23.56-.13,0,.46.1,1,.1,1.45q0,7.18,0,14.36v64.7c3.58.22,7.07.07,10.55.1s7.11,0,10.66,0h21C7355.66,7321.79,7355.76,7338.21,7355.45,7340.15Z" transform="translate(-6917.06 -6858.93)" style="fill:red"/><path d="M7211.45,7240.08h23.24l.12.11a.28.28,0,0,1,.08.11,3.55,3.55,0,0,1,.06.56q0,49.4,0,98.8a2.26,2.26,0,0,1-.12.49h-23.35C7211.12,7339,7211.1,7241.38,7211.45,7240.08Z" transform="translate(-6917.06 -6858.93)" style="fill:red"/></svg>