<svg id="Capa_1" data-name="Capa 1" xmlns="http://www.w3.org/2000/svg" viewBox="0 0 28.78 22.64"><title>Logo_CNNCHILE2</title><path id="Shape" d="M7.89,14.22a2.83,2.83,0,0,1,2.82-2.81h2.13V9.82H10.68a4.4,4.4,0,0,0,0,8.8h4.14a.44.44,0,0,0,.42-.42V10a1,1,0,0,1,.7-.94,1.05,1.05,0,0,1,1.19.57l2.57,4.45,2.5,4.3c.13.22.31.33.48.28a.32.32,0,0,0,.23-.33V10a1,1,0,0,1,1.89-.37l2.39,4.12,2.69,4.63c.13.22.31.33.48.28a.32.32,0,0,0,.23-.33V7.59H29V14L26.21,9.2c-1.69-2.87-4.89-1.69-4.89.79v4l-2.79-4.8c-1.69-2.87-4.89-1.69-4.89.79v6.58a.43.43,0,0,1-.12.31.41.41,0,0,1-.31.14H10.7a2.83,2.83,0,0,1-2.81-2.79Z" transform="translate(-4.06 -7.51)" style="fill:red"/><path d="M31.24,7.59v10.8a1,1,0,0,1-.92,1h0a1.1,1.1,0,0,1-.95-.6l-2.69-4.63L24.27,10c-.13-.22-.31-.33-.47-.28a.32.32,0,0,0-.23.33v8.33a1,1,0,0,1-.7.94,1.05,1.05,0,0,1-1.19-.57l-2.5-4.3L16.59,10c-.13-.22-.31-.33-.48-.28a.32.32,0,0,0-.23.33V18.2a1.09,1.09,0,0,1-1.05,1.05H10.68a5,5,0,0,1,0-10.08h2.15V7.59H10.69a6.63,6.63,0,0,0,0,13.26h4.18a2.43,2.43,0,0,0,1.93-.71,2.4,2.4,0,0,0,.68-1.94V14.42l2.79,4.8c1.69,2.87,4.89,1.69,4.89-.79v-4L28,19.23c1.69,2.87,4.89,1.69,4.89-.79V7.59Z" transform="translate(-4.06 -7.51)" style="fill:red"/><path d="M7.8,29.77a2.57,2.57,0,0,1-1-1.09A3.9,3.9,0,0,1,6.45,27a3.62,3.62,0,0,1,.37-1.68,2.63,2.63,0,0,1,1-1.09,3,3,0,0,1,1.51-.38,3.1,3.1,0,0,1,1.34.28A2.17,2.17,0,0,1,12,26H10.58a1.21,1.21,0,0,0-.4-.71A1.31,1.31,0,0,0,9.31,25a1.27,1.27,0,0,0-.77.23,1.48,1.48,0,0,0-.5.68,3.47,3.47,0,0,0,0,2.16,1.39,1.39,0,0,0,.49.68,1.26,1.26,0,0,0,.75.23,1.35,1.35,0,0,0,.91-.28,1.28,1.28,0,0,0,.4-.84H12a2.22,2.22,0,0,1-.38,1.2,2.33,2.33,0,0,1-1,.81,3.11,3.11,0,0,1-1.35.28,3,3,0,0,1-1.47-.38Z" transform="translate(-4.06 -7.51)" style="fill:red"/><polygon points="8.6 16.49 10 16.49 10 18.81 12.31 18.81 12.31 16.49 13.71 16.49 13.71 22.49 12.31 22.49 12.31 19.96 9.99 19.96 9.99 22.49 8.59 22.49 8.6 16.49" style="fill:red"/><polygon points="14.67 16.49 16.08 16.49 16.08 22.49 14.67 22.49 14.67 16.49" style="fill:red"/><polygon points="17.06 16.49 18.47 16.49 18.47 21.36 21.27 21.36 21.27 22.49 17.07 22.49 17.06 16.49" style="fill:red"/><polygon points="21.94 16.49 26.28 16.49 26.28 17.59 23.28 17.59 23.28 18.83 26.02 18.83 26.02 19.94 23.34 19.94 23.34 21.4 26.34 21.4 26.34 22.49 21.94 22.49 21.94 16.49" style="fill:red"/></svg>