<svg xmlns="http://www.w3.org/2000/svg" viewBox="0 0 1139.73 202.87"><defs><style>.cls-1{fill:#fc0257;}.cls-2{fill:#1a1a1a;}.cls-3{fill:#fa095c;}.cls-4{fill:#434343;}</style></defs><title>Logo_REWIND_TV</title><g id="Capa_2" data-name="Capa 2"><g id="Capa_1-2" data-name="Capa 1"><path class="cls-1" d="M416.52,130.71v44.56h-95V.05h93.85V44.6H357.89v22h43.93v41.8H357.89v22.28Z"/><path class="cls-2" d="M1034.09,1.47h-1.19a137.24,137.24,0,0,1,42.37,6.21,104.33,104.33,0,0,1,34,17.88,81.46,81.46,0,0,1,22.39,27.81,80.21,80.21,0,0,1,8,36,78.47,78.47,0,0,1-8,35.76,80.87,80.87,0,0,1-21.79,27.06,98.66,98.66,0,0,1-33.12,17.13,141.47,141.47,0,0,1-42.08,6H953.82V1.47Zm2.39,130.11.6-.25a57.81,57.81,0,0,0,17.9-2.73,39.09,39.09,0,0,0,14-7.94,40.06,40.06,0,0,0,9.55-13.16,42.66,42.66,0,0,0,3.58-17.88,46.57,46.57,0,0,0-3.58-18.87,38.82,38.82,0,0,0-9.85-13.66,42.75,42.75,0,0,0-14.62-8.44,53.68,53.68,0,0,0-17.91-3h-26.86v85.91Z"/><rect class="cls-3" x="730.13" y="23.97" width="57.24" height="178.9"/><path class="cls-2" d="M640.11,94.82c9.6-29.77,19.28-59.53,28.73-89.35,1.24-3.93,2.88-5.51,7.22-5.42,14.65.3,29.32.11,44,.11,7,0,7,0,5,6.39q-17.61,54.92-35.23,109.83c-4.52,14.11-9,28.23-13.56,42.32-1.51,4.66-3.4,9.21-4.77,13.91-.61,2.1-1.74,2.55-3.57,2.54-19.16,0-38.32-.08-57.48,0-3.64,0-3.81-2.51-4.51-4.83Q593.44,129.27,581,88.17c-.38-1.26-.82-2.5-1.29-3.94-2.41,1.79-2.51,4.46-3.24,6.73q-12.72,39.71-25.21,79.47c-1.13,3.63-2.75,4.88-6.6,4.84-18-.22-36-.18-54,0-3.36,0-5-.92-6-4.27Q458.16,87.71,431.36,4.54C430.09.6,431.41.08,434.89.1c17,.12,34,.21,51-.06C490,0,491.66,1.49,492.8,5.26c8.59,28.52,17.36,57,26.09,85.47.61,2,1.32,4,2,5.93h1.32c1.9-5.76,3.83-11.51,5.7-17.29,8-24.53,16-49,23.73-73.65C553.05,1.14,555.2,0,559.74.05c14,.3,28,.41,42,0,5.26-.17,7.09,1.84,8.47,6.48,7.84,26.49,16,52.89,24,79.32,1.91,2.8,1.61,6.37,3.25,9.27.41.74-.06,2.29,1.55,1.82C639.85,96.65,639.38,95.34,640.11,94.82Z"/><path class="cls-4" d="M640.11,94.83a4.43,4.43,0,0,1-1.76,3.88c-2.31-4.12-3.16-8.54-4.17-12.89,2.2,1.83,2.13,4.67,3.13,7C637.81,94.06,637.77,96.18,640.11,94.83Z"/><path class="cls-2" d="M87.78.15c27.16,0,54.31.08,81.47-.08,4.31,0,6,.81,6,5.67q-.27,82,0,163.94c0,4.38-1.1,5.61-5.53,5.59-43.65-.17-87.3,0-131-.13-22.64,0-38.63-16.2-38.65-38.83,0-43.48.06-87-.11-130.44C0,1.27,1.24,0,5.81.05,33.13.26,60.46.15,87.78.15Zm.63,25.63c-19,0-38,.1-57-.08-4.29,0-5.81,1.18-5.79,5.65.16,34.83.06,69.65.11,104.48,0,9.38,4.38,13.74,13.87,13.76,34.83.06,69.65,0,104.48.08,4.06,0,5.51-1.16,5.49-5.37q-.19-56.49,0-113c0-4.46-1.39-5.66-5.71-5.61-18.49.21-37,.09-55.49.09Z"/><path class="cls-2" d="M92.64,47.35c0,5.68,0,10,0,14.25,0,1.44-.67,3.44.74,4.18,1.75.93,2.91-1.08,4.14-2,5.68-4.35,11.27-8.81,16.92-13.2,1.13-.88,2.14-2.12,3.81-2,.94.83.58,1.89.58,2.82q0,36,0,71.91c0,1.27.64,3-.57,3.73-1.57.92-2.65-.81-3.75-1.67-6-4.7-12-9.47-18-14.19-.87-.68-1.66-2-3-1.37s-.85,2-.87,3.12c-.06,3.83-.05,7.66,0,11.49,0,2.84-.73,3.84-3.37,1.76Q66,107.75,42.66,89.41c-2.76-2.15-.52-2.92.83-4q20.64-16.12,41.33-32.2C87,51.53,89.29,49.87,92.64,47.35Z"/><rect class="cls-3" x="733.75" y="175.28" width="53.62" height="25.69"/><path class="cls-2" d="M920.33.05l-1.44,175.22H869.64l-28.52-37.69c-4-5.24-8.35-11-13.25-17.22s-9.5-12.23-13.54-17.73-7.48-10-10.36-13.72l-4.32-5.49h-.29l.29,4.74c.28,3.24.28,7.74.57,13.73s.58,13.22.87,21.46.28,17.47.28,27.71v23.71H747.51V.3h49.26l31.1,40.93c2.88,3.75,6.63,8.24,11,13.73s8.64,11,12.67,16.22,7.78,9.74,10.94,13.48L867,90.4h.29V70.94c0-6,0-13-.29-20.72s-.28-16-.28-24.71V.05Z"/><rect class="cls-1" x="258.73" y="0.05" width="85.93" height="36.57"/><path class="cls-2" d="M318.94,175.27l-34.35-55.43h-16v54.93H212V0h79.24A119.55,119.55,0,0,1,325,4.49a79.91,79.91,0,0,1,26.22,12.74A58.74,58.74,0,0,1,368.05,36.7a52.87,52.87,0,0,1,6,25c0,11.48-3,21.47-9.34,30s-14.77,15-25.62,19.72l43.39,63.92ZM269.22,78.65h28.33a21.53,21.53,0,0,0,8.43-1.5,15.1,15.1,0,0,0,5.73-4.25,14.46,14.46,0,0,0,3-5.49,18.75,18.75,0,0,0,0-11.48,15.54,15.54,0,0,0-3-5.75A15.18,15.18,0,0,0,306,45.94a21.53,21.53,0,0,0-8.43-1.5H269.22Z"/></g></g></svg>