<svg xmlns="http://www.w3.org/2000/svg" viewBox="0 0 351.02 61"><defs><style>.cls-1{fill:#7f9fd3;}.cls-2{fill:#96b6e0;}.cls-3{fill:#7d9aca;}.cls-4{fill:#ccb0a7;}.cls-5{fill:#a59fb7;}.cls-6{fill:#b0acd5;}.cls-7{fill:#d2b886;}.cls-8{fill:#e2a380;}.cls-9{fill:#8d7e79;}.cls-10{fill:#b39c75;}.cls-11{fill:#c19b90;}.cls-12{fill:#d0b085;}.cls-13{fill:#bc9e84;}.cls-14{fill:#af9174;}.cls-15{fill:#987e5a;}</style></defs><title>Logo_RadioDuna</title><g id="Capa_2" data-name="Capa 2"><g id="Capa_1-2" data-name="Capa 1"><rect class="cls-1" width="14.93" height="14.95"/><rect class="cls-2" x="14.93" width="14.91" height="14.95"/><rect class="cls-3" x="29.83" width="14.98" height="14.95"/><rect class="cls-4" x="44.82" width="15" height="14.95"/><rect class="cls-5" y="14.95" width="14.93" height="14.89"/><rect class="cls-6" x="14.93" y="14.95" width="14.91" height="14.89"/><rect class="cls-7" x="29.83" y="14.95" width="14.98" height="14.89"/><rect class="cls-8" x="44.82" y="14.95" width="15" height="14.89"/><rect class="cls-9" y="29.84" width="14.93" height="14.92"/><rect class="cls-10" x="14.93" y="29.84" width="14.91" height="14.92"/><rect class="cls-11" x="29.83" y="29.84" width="14.98" height="14.92"/><rect class="cls-10" x="44.82" y="29.84" width="15" height="14.92"/><rect class="cls-12" y="44.75" width="14.93" height="14.93"/><rect class="cls-13" x="14.93" y="44.75" width="14.91" height="14.93"/><rect class="cls-14" x="29.83" y="44.75" width="14.98" height="14.93"/><rect class="cls-15" x="44.82" y="44.75" width="15" height="14.93"/><path d="M114.47,49.27c-4.6,3.16-11.92,4.8-20.62,4.8H77.33V5.68H93.81c10.57,0,14.2.48,18.75,2.83,7.27,3.63,11.31,11,11.31,20.65C123.87,38,120.59,44.94,114.47,49.27Zm7.82-44C116,1.39,107.88,0,93.33,0H67.22V59.8H93.33c9.08,0,17.61-1.4,23.14-3.61,11.49-4.73,18.35-14.86,18.35-27.31,0-10.12-4.56-18.75-12.53-23.64Z"/><path d="M191.6,35.63v4.43a15.33,15.33,0,0,1-2.41,8c-3.15,4.37-10.67,7.2-19.6,7.2-11.7,0-19.42-4-21.48-11-.45-2.13-.59-3.15-.59-8.67V0H137.47V35.41a47.25,47.25,0,0,0,.17,5.05,18.32,18.32,0,0,0,2.67,9.83C144.81,57.15,155.17,61,169.57,61c17.45,0,28.25-5.32,31.18-15.34.79-2.58.86-4.57.86-10.2V0h-10Z"/><path d="M299,34.59,312.51,8.81l13.95,25.78ZM308.23,0,276,57.82V0h-9.72V48.59L217.38,0h-9.8V59.8h9.8V11.22L266.29,59.8h19.43l10-19.34h34L340.25,59.8H351L317.56,0Z"/><polygon points="333.11 6.89 337.21 6.89 337.21 5.52 333.11 5.52 333.11 1.83 337.78 1.83 337.78 0.44 332.06 0.44 332.06 12.24 333.11 12.24 333.11 6.89"/><path d="M341.8,5.24V2.33h0l2.25,9.92h1.25l2.26-9.92v9.92h1.13V.44h-1.51l-2.37,10h-.11l-2.36-10h-1.61V12.25h1.07Z"/></g></g></svg>