<?xml version="1.0" encoding="utf-8"?>
<!-- Generator: Adobe Illustrator 23.0.2, SVG Export Plug-In . SVG Version: 6.00 Build 0)  -->
<svg version="1.1" id="Capa_1" xmlns="http://www.w3.org/2000/svg" xmlns:xlink="http://www.w3.org/1999/xlink" x="0px" y="0px"
	 viewBox="0 0 251.9 47.2" style="enable-background:new 0 0 251.9 47.2;" xml:space="preserve">
<style type="text/css">
	.st0{fill:#FF662D;}
</style>
<title>T13_ENVIVO</title>
<path class="st0" d="M30.7,0h-30C0.4,0,0.1,0.2,0,0.4v8.1C0,8.8,0.3,9,0.7,9.2H11c0.3,0,0.6,0.1,0.7,0.4v23.5c0.2,3.1,1.1,6,2.8,8.6
	c1.7,2,3.9,3.6,6.4,4.6c0.3,0.3,0.7,0,0.8-0.3V10c0-0.3,0.1-0.6,0.4-0.7h1.3c0.3,0,0.4,0,0.4-0.3l7.4-8c0.3-0.1,0.5-0.5,0.4-0.8
	C31.3,0,31,0,30.7,0"/>
<path class="st0" d="M42.2,0h-7.8C34.1,0,34,0,34,0.3l-7.4,8c-0.3,0.3-0.3,0.5,0,0.8c0.3,0,0.3,0.3,0.4,0.3h5.3
	c0.3,0,0.5,0.3,0.7,0.7V34c0,3.2,1.2,6.2,3.2,8.6c1.7,1.6,3.7,2.9,5.8,3.9c0.3,0.3,0.7,0,0.8-0.3V0.7C42.6,0.4,42.4,0.2,42.2,0"/>
<path class="st0" d="M68.6,0H45.1c-0.3,0-0.6,0.1-0.7,0.4v8.1c0,0.3,0.1,0.6,0.4,0.7h9.4c0.3,0,0.5,0.3,0.7,0.7c0,0.3,0,0.3-0.3,0.4
	L48,17.5c0,0.3-0.3,0.3-0.3,0.4v7c0,0.3,0.3,0.5,0.7,0.7h7.5c0.4,0,5.4,1.1,4.7,7.2c0,2.5-1.7,4.8-4.2,5.4H44.9
	c-0.3,0-0.6,0.1-0.7,0.4v7.9c0,0.3,0.1,0.6,0.4,0.7h12.1c0,0,12.8-0.4,12.8-14.9c0.3-5.8-3.6-11-9.2-12.4c-0.3,0-0.4-0.4-0.4-0.7
	c0-0.1,0.1-0.2,0.1-0.3l8.4-9.2c0-0.3,0.3-0.3,0.3-0.4V1.1C68.9,0.8,68.9,0.3,68.6,0"/>
</svg>
