<svg xmlns="http://www.w3.org/2000/svg" xmlns:xlink="http://www.w3.org/1999/xlink" viewBox="0 0 2663.03 491"><defs><style>.cls-1{fill:none;}.cls-2{clip-path:url(#clip-path);}.cls-3{fill:#0063a8;fill-rule:evenodd;}</style><clipPath id="clip-path" transform="translate(-0.02 -0.99)"><rect class="cls-1" width="2664" height="492"/></clipPath></defs><title>Logo_Radio_Cooperativa</title><g id="Capa_2" data-name="Capa 2"><g id="Capa_1-2" data-name="Capa 1"><g class="cls-2"><path class="cls-3" d="M1179.84,245.4q-.57,31.26,17.66,48.62t47.87,17.4c17.42,0,32.45-3.57,45.23-10.7a150.33,150.33,0,0,0,34.77-26.91L1370,311.42c-19,20-39.09,34.36-60.39,42.81A173,173,0,0,1,1244.74,367q-31.29,0-57.7-10.39T1143,327q-17.67-19.14-25.81-46.06T1113.74,221a162.3,162.3,0,0,1,20.3-60A171.07,171.07,0,0,1,1172.57,115a168.68,168.68,0,0,1,52.19-29.54A179.41,179.41,0,0,1,1285.34,75c19.3,0,36.53,3.38,51.56,10.14A93.88,93.88,0,0,1,1374,114.36c9.71,12.89,16.35,28.66,20,47.37s4,40.24.88,64.58L1392,245.4ZM1330,193.27q3.48-30.69-12.78-48.37t-49.25-17.65q-31.29,0-51.87,18t-28.69,48.06Z" transform="translate(-0.02 -0.99)"/><path class="cls-3" d="M2057.49,81.59h69.84L2088.89,360H2019ZM2070.2,1H2140l-7.67,52.15h-69.85Z" transform="translate(-0.02 -0.99)"/><path class="cls-3" d="M2142.05,82h75.83l47.48,194.62h1.19L2367.85,82h71.2L2291.39,360h-74.08Z" transform="translate(-0.02 -0.99)"/><path class="cls-3" d="M1947.51,140.77h76.4L2032,81.6h-76.4L1967.22,1h-69.46L1860.09,268.4q-2.91,24.35-1.69,42.87t9.51,31c5.57,8.33,14,14.54,25.16,18.55s26.09,6.14,44.61,6.14a228.1,228.1,0,0,0,28.35-2.06,95.67,95.67,0,0,0,27.78-7.28l8.13-58.54c-4.63,3.07-10.7,5.33-18.27,6.64a114.27,114.27,0,0,1-20.52,2c-15.46,0-25.16-4.07-29.22-12.16s-5.13-19.12-3.19-33Z" transform="translate(-0.02 -0.99)"/><path class="cls-3" d="M1095.87,163.81c-3.7-17.77-10.54-33.16-20.57-46.29a104,104,0,0,0-39.2-31c-16-7.51-32.86-10-56-11.26,0,0-38-2.75-70.06,8.45-29.53,10.38-37.18,15.76-61.58,35.53-35.43,27-49.17,79.2-51.43,93.4S759,492,759,492h69.61L848.9,345.67s1.82,1.81,12.85,7.63c37.88,15.33,80.59,13.64,80.59,13.64a140.27,140.27,0,0,0,56-11.33,155.29,155.29,0,0,0,47-31,171.67,171.67,0,0,0,34.24-46.3,174.72,174.72,0,0,0,17.69-57.3Q1101.39,190.46,1095.87,163.81Zm-68.17,57.3a102.53,102.53,0,0,1-9.85,31.28,93,93,0,0,1-20,26.65,100.33,100.33,0,0,1-28.42,18.52,87,87,0,0,1-35.11,6.94c-12.74,0-23.9-2.31-33.37-6.94A64.84,64.84,0,0,1,877.75,279a67,67,0,0,1-12.48-26.65,84.08,84.08,0,0,1-1.13-31.28A103,103,0,0,1,874,189.83a93.3,93.3,0,0,1,20-26.65,100.77,100.77,0,0,1,28.41-18.51,87.09,87.09,0,0,1,35.12-6.95c12.73,0,23.89,2.32,33.36,6.95a66.08,66.08,0,0,1,23.21,18.58,68.29,68.29,0,0,1,12.48,26.65A86.54,86.54,0,0,1,1027.7,221.11Z" transform="translate(-0.02 -0.99)"/><path class="cls-3" d="M218.46,282.62A125.79,125.79,0,0,1,215,267.78,90.06,90.06,0,0,1,204.87,279a100,100,0,0,1-28.38,18.52,86.53,86.53,0,0,1-35.08,6.95c-12.71,0-23.86-2.31-33.32-6.95A64.77,64.77,0,0,1,84.91,279a67.06,67.06,0,0,1-12.46-26.67A84.19,84.19,0,0,1,71.32,221a101,101,0,0,1,9.83-31.29,92.86,92.86,0,0,1,20-26.67,100.63,100.63,0,0,1,28.37-18.53,86.9,86.9,0,0,1,35.08-6.94q19.17,0,33.32,6.94a65.43,65.43,0,0,1,23.18,18.53A67.08,67.08,0,0,1,227.85,174a161.42,161.42,0,0,1,7.9-15.65A179.85,179.85,0,0,1,273,113.11a119.7,119.7,0,0,0-42.1-27.66Q204.52,75,173.3,75a179.47,179.47,0,0,0-60.58,10.46A168.54,168.54,0,0,0,60.54,115,171.26,171.26,0,0,0,22,161.06,162.34,162.34,0,0,0,1.73,221c-3.14,22-1.95,42,3.44,60s14,33.3,25.81,46.07,26.43,22.59,44,29.54S111.78,367,132.64,367a180.8,180.8,0,0,0,60.57-10.39,170.37,170.37,0,0,0,50.3-28.1A123.13,123.13,0,0,1,218.46,282.62Z" transform="translate(-0.02 -0.99)"/><path class="cls-3" d="M775.85,161A116,116,0,0,0,750,115Q732.35,95.83,706,85.44C688.34,78.5,669.16,75,648.28,75a179.58,179.58,0,0,0-60.61,10.45A168.89,168.89,0,0,0,535.45,115,171.06,171.06,0,0,0,496.9,161,157.4,157.4,0,0,0,482,196.43s-2.32,6.08-4.45,18.09c-.13,2.13-.32,4.25-.63,6.44a102.93,102.93,0,0,1-9.84,31.29,94.24,94.24,0,0,1-20,26.65,100,100,0,0,1-28.39,18.52,87,87,0,0,1-35.11,6.94c-12.72,0-23.88-2.31-33.35-6.94a64.91,64.91,0,0,1-23.19-18.52,67.07,67.07,0,0,1-12.48-26.65A84.36,84.36,0,0,1,313.47,221a101,101,0,0,1,9.85-31.28,94.25,94.25,0,0,1,20-26.66,100.65,100.65,0,0,1,28.4-18.51,87,87,0,0,1,35.1-6.95c12.73,0,23.89,2.32,33.35,6.95A65.34,65.34,0,0,1,463.36,163a67.08,67.08,0,0,1,11,21.59,162,162,0,0,1,13.23-29,183.25,183.25,0,0,1,30.65-39.42c-.38-.37-.63-.81-1-1.19Q499.59,95.83,473.2,85.44C455.59,78.5,436.4,75,415.47,75a179.9,179.9,0,0,0-60.62,10.45A169,169,0,0,0,302.63,115,172.58,172.58,0,0,0,264,161,164.72,164.72,0,0,0,243.7,221q-4.6,33,3.45,59.94T273,327c11.78,12.7,26.45,22.59,44.07,29.53s36.8,10.39,57.73,10.39a181.34,181.34,0,0,0,60.62-10.39,168,168,0,0,0,90.77-75.58A162.08,162.08,0,0,0,546.48,221c.13-1.06.19-2.06.31-3.13a99.4,99.4,0,0,1,9.28-28.09,93.13,93.13,0,0,1,20-26.65,100.48,100.48,0,0,1,28.39-18.52,86.84,86.84,0,0,1,35.11-6.95c12.79,0,23.88,2.32,33.35,6.95a64.81,64.81,0,0,1,23.19,18.52,67.46,67.46,0,0,1,12.48,26.65A84.1,84.1,0,0,1,709.71,221a102.38,102.38,0,0,1-9.84,31.29,94.21,94.21,0,0,1-20,26.65,100.23,100.23,0,0,1-28.4,18.52,87,87,0,0,1-35.1,6.95q-19.18,0-33.35-6.95A65.36,65.36,0,0,1,559.83,279,66.33,66.33,0,0,1,549,258.06a166.9,166.9,0,0,1-13,28.41,183.43,183.43,0,0,1-30.9,39.67l.75.94q17.67,19.05,44.07,29.53T607.66,367a181.07,181.07,0,0,0,60.62-10.38,169,169,0,0,0,52.22-29.53A172.53,172.53,0,0,0,759.05,281c10.47-18,17.18-37.92,20.31-59.94S781.24,179,775.85,161Z" transform="translate(-0.02 -0.99)"/><path class="cls-3" d="M2662.3,150.43a112.13,112.13,0,0,0-6.63-27.59,61.32,61.32,0,0,0-17.1-24.08c-7.89-7-18.35-12.67-31.26-17.12s-29.25-6.65-49-6.65a213,213,0,0,0-65.51,10.47,163.12,163.12,0,0,0-59.13,34.24L2465,156.26a133.22,133.22,0,0,1,36.2-21.2,114.57,114.57,0,0,1,42-7.83c18.54,0,33.25,4.32,44,13S2602.3,162,2600,179.46l-1.13,7.52h-17.41c-11.59,0-21-.19-34.14.38-2.19.12-8.27.5-12,.81a312.51,312.51,0,0,0-31.82,4c-21.61,4.08-53,12-71.65,26.47s-35.14,36-34.83,63.51c.32,35.56,24.68,73.06,74.35,81.9s95.33-2.83,126.08-20.63c21.42-12.42,36.26-25,43.9-42.64,8.9-20.44,10-41.51,10-41.51l9.45-69.79c.44-3.76.88-7.65,1.38-12A117.29,117.29,0,0,0,2662.3,150.43Zm-71.46,100.95c-2.69,19.75-3.13,33.42-20.67,45.59-14.28,10-43.72,18.62-67.71,18.62a76.37,76.37,0,0,1-17.66-2.07c-5.63-1.38-9.89-2.76-14-5.89s-8.7-7.28-11-11.73-4.51-8.15-4.32-16.87c.19-10.16,6.39-17.87,14.47-23.51s20.29-10.22,31.32-13.11a191.3,191.3,0,0,1,34.44-5.51c12.66-.88,32.7-1.82,42.34-1.82h14.47Z" transform="translate(-0.02 -0.99)"/><path class="cls-3" d="M1849.29,150.43a107.63,107.63,0,0,0-6.64-27.53,61.19,61.19,0,0,0-17.1-24.08q-11.83-10.44-31.32-17.12c-13-4.45-29.26-6.71-49-6.71a213,213,0,0,0-65.53,10.47,163.57,163.57,0,0,0-59.14,34.24L1652,156.26a131.62,131.62,0,0,1,36.21-21.19,114.46,114.46,0,0,1,42-7.84q27.81,0,44,13T1787,179.46l-1.13,7.53h-17.42c-11.59,0-21-.19-34.14.37-2.19.13-8.2.57-11.9.82a307.49,307.49,0,0,0-31.83,3.95c-21.61,4.07-53,12-71.67,26.46s-35.08,36-34.83,63.52c.31,35.55,24.68,73.05,74.36,81.89s95.36-2.88,126-20.63c21.43-12.41,36.28-25,43.92-42.64,8.9-20.44,10-41.51,10-41.51l9.53-69.79c.44-3.76.87-7.65,1.31-12A117.29,117.29,0,0,0,1849.29,150.43Zm-71.48,101c-2.75,19.75-3.13,33.42-20.67,45.64-14.29,10-43.73,18.63-67.66,18.63a76,76,0,0,1-17.67-2.07c-5.64-1.38-9.9-2.76-14-5.9s-8.71-7.27-11-11.72-4.51-8.15-4.32-16.87c.19-10.16,6.39-17.87,14.47-23.51s20.24-10.29,31.27-13.17a191.41,191.41,0,0,1,34.45-5.52c12.66-.94,32.7-1.82,42.35-1.82h14.54Z" transform="translate(-0.02 -0.99)"/><path class="cls-3" d="M1604.27,139.55,1613,78.38c-1.19-.25-2.32-.43-3.51-.69-3.13-.81-6.2-1.5-9.07-2.07a131.72,131.72,0,0,0-14.34-1.25c-3.5-.25-7-.38-10.51-.38-76,0-139.77,52.82-156.67,123.9a99.87,99.87,0,0,0-2.69,13.18h0L1395,360h70.53l11.08-81.42,7.26-50.57,2.13-15c9.39-40.71,45.82-71.14,89.19-71.14a90.31,90.31,0,0,1,28,4.45l.06-.5h.07Z" transform="translate(-0.02 -0.99)"/></g></g></g></svg>