<svg xmlns="http://www.w3.org/2000/svg" viewBox="0 0 1808.44 235.3"><defs><style>.cls-1{fill:#562674;}.cls-2{fill:#71154c;}.cls-3{fill:#066938;}.cls-4{fill:#452776;}.cls-5{fill:#9b1560;}.cls-6{fill:#009841;}.cls-7{fill:#24387d;}.cls-8{fill:#5c8ecb;}.cls-9{fill:#43ad4c;}.cls-10{fill:#181b2e;}.cls-11{fill:#f6db3f;}.cls-12{fill:#d31a16;}.cls-13{fill:#f39020;}.cls-14{fill:#b6191b;}.cls-15{fill:#f2a122;}.cls-16{fill:#ef7d12;}.cls-17{fill:#ea5a25;}.cls-18{fill:#881819;}.cls-19{fill:#f1d40b;}.cls-20{fill:#020203;}</style></defs><title>Logo_Convencion_Constitucional_Señal_11</title><g id="Capa_2" data-name="Capa 2"><g id="Capa_1-2" data-name="Capa 1"><path d="M1661.22,235.3a17.64,17.64,0,0,1-12.78-4.88,16.32,16.32,0,0,1-5-12.27V38l4.37,6.05-31.26,21.85a14.69,14.69,0,0,1-9.75,3.37A16.39,16.39,0,0,1,1594.83,64a16.74,16.74,0,0,1-5.21-12.26q0-8.75,8.74-14.46l51.09-33.95A17.77,17.77,0,0,1,1656,.67a35.77,35.77,0,0,1,6.55-.67q7.73,0,12.44,4.87a17,17,0,0,1,4.7,12.27v201a16,16,0,0,1-5.21,12.27A18.65,18.65,0,0,1,1661.22,235.3Z"/><path d="M1790,235.3a17.64,17.64,0,0,1-12.78-4.88,16.32,16.32,0,0,1-5-12.27V38l4.37,6.05-31.26,21.85a14.69,14.69,0,0,1-9.75,3.37A16.39,16.39,0,0,1,1723.57,64a16.74,16.74,0,0,1-5.21-12.26q0-8.75,8.74-14.46l51.09-33.95a17.77,17.77,0,0,1,6.56-2.69A35.77,35.77,0,0,1,1791.3,0q7.73,0,12.44,4.87a17,17,0,0,1,4.7,12.27v201a16,16,0,0,1-5.21,12.27A18.65,18.65,0,0,1,1790,235.3Z"/><path class="cls-1" d="M39.77,159a9.72,9.72,0,0,1-5.1-1.5,9.34,9.34,0,0,1-2.7-12.9,295.88,295.88,0,0,1,24.9-32.9,9.32,9.32,0,0,1,13.1-.9,9.44,9.44,0,0,1,.9,13.2,268.51,268.51,0,0,0-23.4,30.8A9,9,0,0,1,39.77,159Z"/><path class="cls-2" d="M105.67,87.65a9.15,9.15,0,0,1-7.5-3.8,9.27,9.27,0,0,1,1.9-13,280.88,280.88,0,0,1,34.8-22.2,9.3,9.3,0,0,1,12.6,3.8,9.41,9.41,0,0,1-3.8,12.7A263.41,263.41,0,0,0,111.17,86,9.67,9.67,0,0,1,105.67,87.65Z"/><path class="cls-3" d="M197.77,42a9.28,9.28,0,0,1-9-6.9,9.44,9.44,0,0,1,6.6-11.5,293,293,0,0,1,40.5-8,9.41,9.41,0,0,1,10.4,8.1,9.28,9.28,0,0,1-8.1,10.4,270,270,0,0,0-37.9,7.4A5.87,5.87,0,0,1,197.77,42Z"/><path class="cls-4" d="M9.37,222.15a10.47,10.47,0,0,1-3-.5,9.37,9.37,0,0,1-5.9-11.8c1.7-5.2,3.7-10.6,5.8-15.7a9.38,9.38,0,0,1,17.4,7c-1.9,4.8-3.8,9.8-5.4,14.7A9.67,9.67,0,0,1,9.37,222.15Z"/><path class="cls-5" d="M107.47,154.55a9.72,9.72,0,0,1-6.4-2.5,9.33,9.33,0,0,1-.4-13.2,239.54,239.54,0,0,1,33-29.1,9.3,9.3,0,0,1,11,15,215.92,215.92,0,0,0-30.4,26.9A8.86,8.86,0,0,1,107.47,154.55Z"/><path class="cls-6" d="M194.07,96.85a9.36,9.36,0,0,1-8.7-6.1,9.51,9.51,0,0,1,5.6-12,241.63,241.63,0,0,1,42.5-11.1,9.23,9.23,0,0,1,10.7,7.7,9.38,9.38,0,0,1-7.7,10.8,221.54,221.54,0,0,0-39.2,10.2A12.48,12.48,0,0,1,194.07,96.85Z"/><path class="cls-7" d="M63.47,222.15a11.49,11.49,0,0,1-3.6-.7,9.38,9.38,0,0,1-5-12.2,247.82,247.82,0,0,1,12.2-24.8,9.34,9.34,0,1,1,16.2,9.3A202.85,202.85,0,0,0,72,216.65,9.09,9.09,0,0,1,63.47,222.15Z"/><path class="cls-8" d="M120,222.15a9.57,9.57,0,0,1-4.6-1.2,9.42,9.42,0,0,1-3.4-12.8,191.17,191.17,0,0,1,29-38,9.33,9.33,0,0,1,13.3,13.1,169.55,169.55,0,0,0-26.1,34.1A9.52,9.52,0,0,1,120,222.15Z"/><path class="cls-9" d="M199.67,149a9.37,9.37,0,0,1-3.9-17.9,187.24,187.24,0,0,1,45.8-13.6,9.37,9.37,0,0,1,3,18.5,168.46,168.46,0,0,0-41.2,12.2A9.46,9.46,0,0,1,199.67,149Z"/><circle class="cls-10" cx="272.07" cy="125.85" r="9.4"/><circle class="cls-10" cx="171.47" cy="158.45" r="9.4"/><path class="cls-11" d="M424.17,222.15a9.19,9.19,0,0,1-8-4.6,166,166,0,0,0-26.1-34.1,9.33,9.33,0,1,1,13.3-13.1,184.75,184.75,0,0,1,29,38,9.54,9.54,0,0,1-3.4,12.8A14.22,14.22,0,0,1,424.17,222.15Z"/><path class="cls-12" d="M344.57,149a10.8,10.8,0,0,1-3.8-.8,167.17,167.17,0,0,0-41.2-12.2,9.23,9.23,0,0,1-7.7-10.7,9.37,9.37,0,0,1,10.7-7.8,185.48,185.48,0,0,1,45.8,13.6,9.37,9.37,0,0,1-3.8,17.9Z"/><circle class="cls-10" cx="372.67" cy="158.45" r="9.4"/><circle class="cls-10" cx="89.77" cy="166.05" r="9.4"/><circle class="cls-10" cx="165.67" cy="99.85" r="9.4"/><circle class="cls-10" cx="272.07" cy="73.05" r="9.4"/><path class="cls-13" d="M436.57,154.55a9.55,9.55,0,0,1-6.8-2.9,221.65,221.65,0,0,0-30.4-26.9,9.3,9.3,0,1,1,11-15,253.58,253.58,0,0,1,33,29.1,9.42,9.42,0,0,1-.4,13.2A8.66,8.66,0,0,1,436.57,154.55Z"/><path class="cls-14" d="M350.17,96.85a11.15,11.15,0,0,1-3.1-.5,221.54,221.54,0,0,0-39.2-10.2,9.4,9.4,0,0,1-7.7-10.8,9.16,9.16,0,0,1,10.7-7.7,239.37,239.37,0,0,1,42.5,11.1,9.43,9.43,0,0,1,5.6,12A9.7,9.7,0,0,1,350.17,96.85Z"/><path class="cls-15" d="M480.67,222.15a9.21,9.21,0,0,1-8.6-5.7,221.06,221.06,0,0,0-11.3-22.9,9.48,9.48,0,0,1,3.5-12.8,9.34,9.34,0,0,1,12.7,3.5,237.31,237.31,0,0,1,12.2,24.8,9.29,9.29,0,0,1-5,12.2A6.32,6.32,0,0,1,480.67,222.15Z"/><circle class="cls-10" cx="454.37" cy="166.05" r="9.4"/><circle class="cls-10" cx="378.47" cy="99.85" r="9.4"/><circle class="cls-10" cx="24.47" cy="174.85" r="9.4"/><circle class="cls-10" cx="82.77" cy="97.85" r="9.4"/><circle class="cls-10" cx="168.17" cy="42.75" r="9.4"/><circle class="cls-10" cx="272.07" cy="22.55" r="9.4"/><path class="cls-16" d="M504.37,159a9.3,9.3,0,0,1-7.8-4.2,260.07,260.07,0,0,0-23.4-30.8,9.35,9.35,0,0,1,.9-13.2,9.14,9.14,0,0,1,13.1.9,273.25,273.25,0,0,1,24.9,32.9,9.34,9.34,0,0,1-2.7,12.9A8.18,8.18,0,0,1,504.37,159Z"/><path class="cls-17" d="M438.37,87.65a10,10,0,0,1-5.6-1.8,271.13,271.13,0,0,0-32.5-20.8,9.35,9.35,0,0,1,8.8-16.5,293.05,293.05,0,0,1,34.8,22.2,9.28,9.28,0,0,1,1.9,13A8.69,8.69,0,0,1,438.37,87.65Z"/><path class="cls-18" d="M346.37,42a9.28,9.28,0,0,1-2.4-.3,270,270,0,0,0-37.9-7.4,9.32,9.32,0,0,1,2.3-18.5,293,293,0,0,1,40.5,8,9.39,9.39,0,0,1,6.6,11.5A9.67,9.67,0,0,1,346.37,42Z"/><path class="cls-19" d="M534.87,222.15a9.18,9.18,0,0,1-8.8-6.4c-1.7-4.9-3.5-9.9-5.4-14.7a9.38,9.38,0,0,1,17.4-7c2.1,5.2,4,10.4,5.8,15.7a9.29,9.29,0,0,1-5.9,11.8A7.12,7.12,0,0,1,534.87,222.15Z"/><circle class="cls-10" cx="519.67" cy="174.85" r="9.4"/><circle class="cls-10" cx="461.37" cy="97.85" r="9.4" transform="translate(284.96 535.25) rotate(-80.01)"/><circle class="cls-10" cx="375.97" cy="42.75" r="9.4"/><path class="cls-20" d="M607.65,114.39a50,50,0,0,0,16.28,10.8A50.71,50.71,0,0,0,643.8,129a63.71,63.71,0,0,0,11.14-1.2,53.16,53.16,0,0,0,10.45-3.26,82,82,0,0,0,8.74-4.45,3.5,3.5,0,0,0,1.89-2.92,5,5,0,0,0-.86-3.42,5.83,5.83,0,0,0-2.91-1.72,4.57,4.57,0,0,0-3.09.52,53.93,53.93,0,0,1-12,5.48,43.12,43.12,0,0,1-13.54,2.06A42.33,42.33,0,0,1,627.35,117,43.3,43.3,0,0,1,614,108.05a42.35,42.35,0,0,1-9.08-13.88A51,51,0,0,1,601.82,76a48.26,48.26,0,0,1,3.09-17.65,40.2,40.2,0,0,1,8.91-13.88,37.85,37.85,0,0,1,13.36-9.08,44.27,44.27,0,0,1,16.62-3.08,45.49,45.49,0,0,1,13.71,2.06A47,47,0,0,1,669.33,40a6.59,6.59,0,0,0,3.09.51A3,3,0,0,0,675,39a4.94,4.94,0,0,0,1-3.6A4.47,4.47,0,0,0,674,32.49,44.86,44.86,0,0,0,660.08,26,50.34,50.34,0,0,0,644,23.58a49.27,49.27,0,0,0-20,3.94,51,51,0,0,0-16.28,11.14A52.46,52.46,0,0,0,592.4,76.18a55.09,55.09,0,0,0,4.11,21.59A46.48,46.48,0,0,0,607.65,114.39Z"/><path class="cls-20" d="M701.72,113.88a47.49,47.49,0,0,0,15.59,11,49.35,49.35,0,0,0,19.7,3.94,50,50,0,0,0,19.71-3.94,43.58,43.58,0,0,0,15.59-11,49.65,49.65,0,0,0,10.28-16.62,59.81,59.81,0,0,0,3.6-21.08,59.08,59.08,0,0,0-3.6-21.07,48.4,48.4,0,0,0-10.28-16.62,45.79,45.79,0,0,0-15.59-11,51.25,51.25,0,0,0-39.41,0,43.58,43.58,0,0,0-15.59,11,49,49,0,0,0-10.11,16.62A60.43,60.43,0,0,0,688,76.18a59.81,59.81,0,0,0,3.6,21.08A48.69,48.69,0,0,0,701.72,113.88Zm.85-60.83a39.51,39.51,0,0,1,14-15.42c6-3.77,12.85-5.48,20.57-5.48,7.88,0,14.73,1.71,20.56,5.48a40.42,40.42,0,0,1,13.88,15.42c3.42,6.51,5.14,14.22,5.14,23a49.35,49.35,0,0,1-5.14,23,40.42,40.42,0,0,1-13.88,15.42c-5.83,3.77-12.68,5.49-20.56,5.49-7.72,0-14.57-1.72-20.57-5.49a38.27,38.27,0,0,1-14-15.42c-3.42-6.51-5.14-14.22-5.14-23A51.55,51.55,0,0,1,702.57,53.05Z"/><path class="cls-20" d="M881.8,24.78a5.88,5.88,0,0,0-2.91,1,4.45,4.45,0,0,0-1.2,2.91v82.42l-63.06-85a4.32,4.32,0,0,0-1.71-1.2,8.93,8.93,0,0,0-1.89-.34,4.47,4.47,0,0,0-2.91,1.2,4.25,4.25,0,0,0-1.2,3.08V123a4.33,4.33,0,0,0,1,2.91,4.47,4.47,0,0,0,2.91,1.2,4.92,4.92,0,0,0,3.09-1.2,4.87,4.87,0,0,0,1.2-2.91V41.06L878,125.7c.34.52.86.69,1.54,1a6.25,6.25,0,0,0,1.89.34,4.11,4.11,0,0,0,3.08-1.2,4.47,4.47,0,0,0,1.37-3.42V28.72a4,4,0,0,0-1-2.91A5.92,5.92,0,0,0,881.8,24.78Z"/><path class="cls-20" d="M905.1,31.46,944,124.67a3.4,3.4,0,0,0,1.71,2.06,4.88,4.88,0,0,0,2.57.69,5.63,5.63,0,0,0,2.4-.69,4.67,4.67,0,0,0,1.88-2.23l39.07-93.38a6,6,0,0,0,.52-2.06A3.68,3.68,0,0,0,991,26a5,5,0,0,0-3.26-1.2c-1.71,0-3.08,1-4.28,2.91l-34.79,85L913.33,28A4.37,4.37,0,0,0,909,25a4.92,4.92,0,0,0-2.91,1.2,3.46,3.46,0,0,0-1.54,3.09,2.89,2.89,0,0,0,.17,1.19A2.41,2.41,0,0,0,905.1,31.46Z"/><path class="cls-20" d="M1015.28,127.42h53.63a5,5,0,0,0,3.08-1.2,4.16,4.16,0,0,0,0-6.17,4,4,0,0,0-3.08-1.37h-48.66V78.93h42.15a5,5,0,0,0,3.08-1.2,4.29,4.29,0,0,0,1.37-3.09,4.2,4.2,0,0,0-1.37-2.91,4,4,0,0,0-3.08-1.37h-42.15V33.69h48.66a4.9,4.9,0,0,0,3.08-1.2,3.64,3.64,0,0,0,1.37-2.91,4.29,4.29,0,0,0-1.37-3.09,4.57,4.57,0,0,0-3.08-1.2h-53.63a5,5,0,0,0-3.09,1.2,5,5,0,0,0-1.2,3.09V123.3a4.17,4.17,0,0,0,1.2,3.09A6.08,6.08,0,0,0,1015.28,127.42Z"/><path class="cls-20" d="M1098.21,127.42a5,5,0,0,0,3.08-1.2,4.86,4.86,0,0,0,1.2-2.92V41.4l62.88,84.47a3.46,3.46,0,0,0,1.55,1,6.18,6.18,0,0,0,1.88.34,4.13,4.13,0,0,0,3.09-1.2,4.51,4.51,0,0,0,1.37-3.42V28.89a4.05,4.05,0,0,0-1-2.91,4.13,4.13,0,0,0-2.91-1.2,4.1,4.1,0,0,0-4.12,4.11v82.42l-63-85a3.18,3.18,0,0,0-1.72-1.2,8.85,8.85,0,0,0-1.88-.34,4.43,4.43,0,0,0-2.91,1.2,4.23,4.23,0,0,0-1.2,3.08v94.41a4.33,4.33,0,0,0,1,2.92A3.38,3.38,0,0,0,1098.21,127.42Z"/><path class="cls-20" d="M1256.53,127.76A53.16,53.16,0,0,0,1267,124.5a82,82,0,0,0,8.74-4.45,3.49,3.49,0,0,0,1.88-2.92,4.9,4.9,0,0,0-.85-3.42,5.2,5.2,0,0,0-2.91-1.72,4.57,4.57,0,0,0-3.09.52,50.64,50.64,0,0,1-12,5.48,44,44,0,0,1-13.54,2.06,42.3,42.3,0,0,1-16.28-3.09,43.3,43.3,0,0,1-13.36-8.91,39.26,39.26,0,0,1-8.91-13.88A51,51,0,0,1,1203.58,76a48.26,48.26,0,0,1,3.09-17.65,40.2,40.2,0,0,1,8.91-13.88,37.85,37.85,0,0,1,13.36-9.08,44.27,44.27,0,0,1,16.62-3.08,45.49,45.49,0,0,1,13.71,2.06A46.86,46.86,0,0,1,1271.09,40a6.59,6.59,0,0,0,3.09.51,3.24,3.24,0,0,0,2.57-1.54,4.94,4.94,0,0,0,1-3.6,4.47,4.47,0,0,0-2.06-2.91A44.86,44.86,0,0,0,1261.84,26a50.34,50.34,0,0,0-16.11-2.4,48.72,48.72,0,0,0-20,3.94,51,51,0,0,0-16.28,11.14,52.46,52.46,0,0,0-15.25,37.52,55.09,55.09,0,0,0,4.11,21.59,49.2,49.2,0,0,0,11.31,16.62,51.89,51.89,0,0,0,16.28,10.8,50.71,50.71,0,0,0,19.87,3.77A50,50,0,0,0,1256.53,127.76Z"/><path class="cls-20" d="M1301.08,127.42a4.27,4.27,0,0,0,3.08-1.38,4.86,4.86,0,0,0,1.55-3.08V29.58a4.72,4.72,0,0,0-4.46-4.46,4.43,4.43,0,0,0-3.26,1.37,4.05,4.05,0,0,0-1.37,3.09V123a4.93,4.93,0,0,0,1.2,3.08A3.9,3.9,0,0,0,1301.08,127.42Z"/><path class="cls-20" d="M1420.85,97.26a59.81,59.81,0,0,0,3.6-21.08,59.08,59.08,0,0,0-3.6-21.07,50.91,50.91,0,0,0-10.11-16.62,45.89,45.89,0,0,0-15.59-11,49.36,49.36,0,0,0-19.71-3.94,50.15,50.15,0,0,0-19.87,3.94,45.93,45.93,0,0,0-15.6,11,49.55,49.55,0,0,0-10.28,16.62,60.43,60.43,0,0,0-3.59,21.07,59.8,59.8,0,0,0,3.59,21.08A50.33,50.33,0,0,0,1340,113.88a47.64,47.64,0,0,0,15.6,11,51.67,51.67,0,0,0,39.58,0,43.67,43.67,0,0,0,15.59-11A51,51,0,0,0,1420.85,97.26ZM1396,114.39c-5.82,3.77-12.68,5.49-20.56,5.49-7.71,0-14.56-1.72-20.56-5.49A38.2,38.2,0,0,1,1340.83,99c-3.43-6.51-5.14-14.22-5.14-23a49.23,49.23,0,0,1,5.14-23,39.43,39.43,0,0,1,14.05-15.42c6-3.77,12.85-5.48,20.56-5.48s14.74,1.71,20.56,5.48a40.26,40.26,0,0,1,13.88,15.42c3.43,6.51,5.14,14.22,5.14,23a49.23,49.23,0,0,1-5.14,23A39.07,39.07,0,0,1,1396,114.39Z"/><path class="cls-20" d="M1375.61,18.1a3,3,0,0,1,1.72.17,5.46,5.46,0,0,1,1.54-.51l14.39-7.2a4.43,4.43,0,0,0,2.06-1.89,5,5,0,0,0,.68-2.74,4.11,4.11,0,0,0-1.2-3.08,4.87,4.87,0,0,0-3.08-1.2,5.52,5.52,0,0,0-2.4.51,6.94,6.94,0,0,0-1.88,1l-13,10.11a3.49,3.49,0,0,0-1,1.2,3.85,3.85,0,0,0-.35,1.37,2.18,2.18,0,0,0,.69,1.71A3.45,3.45,0,0,0,1375.61,18.1Z"/><path class="cls-20" d="M1449.29,127.42a4.14,4.14,0,0,0,2.91-1.2,4.86,4.86,0,0,0,1.2-2.92V41.4l62.89,84.47a3.37,3.37,0,0,0,1.54,1,6.18,6.18,0,0,0,1.88.34,4.13,4.13,0,0,0,3.09-1.2,4.51,4.51,0,0,0,1.37-3.42V28.89a4,4,0,0,0-1-2.91,4.21,4.21,0,0,0-3.08-1.2,4.14,4.14,0,0,0-2.92,1.2,4.5,4.5,0,0,0-1.2,2.91v82.42l-63-85a3.16,3.16,0,0,0-1.71-1.2,8.93,8.93,0,0,0-1.89-.34,5.3,5.3,0,0,0-3.08,1.2,4.23,4.23,0,0,0-1.2,3.08v94.41a4.33,4.33,0,0,0,1,2.92A5.65,5.65,0,0,0,1449.29,127.42Z"/><path class="cls-20" d="M650.14,217a6.88,6.88,0,0,0-4.45.68A18.24,18.24,0,0,1,640,219.6a24.47,24.47,0,0,1-6,.51,28.46,28.46,0,0,1-10.11-1.71,20.57,20.57,0,0,1-8.06-5,23.78,23.78,0,0,1-5.48-8.4,30.22,30.22,0,0,1-1.88-11.65,29.09,29.09,0,0,1,1.71-10.45,22.57,22.57,0,0,1,5-8.22,20.77,20.77,0,0,1,7.88-5.32,26.1,26.1,0,0,1,10.62-1.88,36.18,36.18,0,0,1,6.17.51,51.08,51.08,0,0,1,5.48,1.89,8.41,8.41,0,0,0,4.46.86,4.92,4.92,0,0,0,3.77-2.23,7.22,7.22,0,0,0,1.71-5.66,5.83,5.83,0,0,0-3.25-4.45,26.47,26.47,0,0,0-8.4-3.09,44.7,44.7,0,0,0-25.36,1.89,38.74,38.74,0,0,0-12.51,8.22A34.64,34.64,0,0,0,597.54,178a42.9,42.9,0,0,0-2.91,15.77,44.51,44.51,0,0,0,3.08,17.3,34.41,34.41,0,0,0,8.74,12.51,37.65,37.65,0,0,0,12.68,7.54A43.39,43.39,0,0,0,634,233.65a40.41,40.41,0,0,0,6.34-.52c2-.51,4.11-.85,6.16-1.54a56.43,56.43,0,0,0,5.83-2.4,5.57,5.57,0,0,0,3.26-4.28,6.62,6.62,0,0,0-1.72-5.65A6.73,6.73,0,0,0,650.14,217Z"/><path class="cls-20" d="M727.25,165.28a34.9,34.9,0,0,0-11.83-8.56,37.9,37.9,0,0,0-30,0,32.65,32.65,0,0,0-11.82,8.56A37,37,0,0,0,665.91,178a45.59,45.59,0,0,0,0,31.19,41.17,41.17,0,0,0,7.71,12.68,36.64,36.64,0,0,0,11.82,8.56,36.23,36.23,0,0,0,14.91,3.09,37,37,0,0,0,15.07-3.09,34.42,34.42,0,0,0,11.83-8.56A37.4,37.4,0,0,0,735,209.15,45.75,45.75,0,0,0,735,178,41.44,41.44,0,0,0,727.25,165.28Zm-6.69,41.81a23.3,23.3,0,0,1-8,9.6,21.83,21.83,0,0,1-24,0,23.45,23.45,0,0,1-8-9.6,32,32,0,0,1-2.91-13.54A29.51,29.51,0,0,1,680.47,180a23.45,23.45,0,0,1,8-9.6,21.78,21.78,0,0,1,24,0,23.3,23.3,0,0,1,8,9.6,31.19,31.19,0,0,1,0,27.07Z"/><path class="cls-20" d="M808.64,154.83a5.21,5.21,0,0,0-4.29,1.71,6.86,6.86,0,0,0-1.71,4.46v48l-40.1-51.58a6.91,6.91,0,0,0-2.39-1.88,6.48,6.48,0,0,0-3.09-.52,6.34,6.34,0,0,0-4.8,1.89,6.08,6.08,0,0,0-1.88,4.79v64.77a6.07,6.07,0,0,0,1.71,4.46,5.68,5.68,0,0,0,4.29,1.71,6.5,6.5,0,0,0,4.45-1.71,6.84,6.84,0,0,0,1.71-4.46V179.16l40.27,51.75a4.15,4.15,0,0,0,2.23,1.37,8,8,0,0,0,2.91.51,6.32,6.32,0,0,0,4.8-1.88,6.1,6.1,0,0,0,1.88-4.8V161.34a5.8,5.8,0,0,0-1.71-4.45A4.59,4.59,0,0,0,808.64,154.83Z"/><path class="cls-20" d="M877.52,193.9a22,22,0,0,0-8.23-4.29,113.5,113.5,0,0,0-11.48-2.91,45.52,45.52,0,0,1-8.74-2.23,11.56,11.56,0,0,1-5.48-3.42,7.68,7.68,0,0,1-1.88-5.49,7.32,7.32,0,0,1,1.71-5,11.39,11.39,0,0,1,5-3.25,25.27,25.27,0,0,1,7.88-1.2,27.74,27.74,0,0,1,6.17.86c2.23.68,4.28,1.54,6.34,2.39a23.68,23.68,0,0,1,4.8,2.92,4.66,4.66,0,0,0,2.91,1,5.27,5.27,0,0,0,4.28-1.89,6.86,6.86,0,0,0,1.89-4.45,7.4,7.4,0,0,0-3.09-5.83,28.77,28.77,0,0,0-9.94-5.48,40.93,40.93,0,0,0-13.19-2.06,34.13,34.13,0,0,0-13.88,2.74,23.78,23.78,0,0,0-9.94,7.71,19.93,19.93,0,0,0-3.77,12.34A23.08,23.08,0,0,0,830.4,185a17,17,0,0,0,4.45,6.51,24.58,24.58,0,0,0,7.54,4.62,58.24,58.24,0,0,0,10.45,2.75,42.4,42.4,0,0,1,10.28,2.57,13,13,0,0,1,6,3.94A8.35,8.35,0,0,1,871,211a7.48,7.48,0,0,1-2.06,5,15,15,0,0,1-5.48,3.43,21.26,21.26,0,0,1-7.54,1.37,24.14,24.14,0,0,1-10.11-1.89,31.82,31.82,0,0,1-8.23-5.31,6,6,0,0,0-3.77-1.37,5.58,5.58,0,0,0-4.45,1.89,6.86,6.86,0,0,0-1.89,4.45,10,10,0,0,0,.69,3.08,11.87,11.87,0,0,0,2.23,2.92,34.15,34.15,0,0,0,11.65,6.85,43.52,43.52,0,0,0,13.71,1.89,31.46,31.46,0,0,0,13.87-2.92,26.13,26.13,0,0,0,10.28-7.88,20.49,20.49,0,0,0,4-12.51,26.58,26.58,0,0,0-1.72-9.59A13.13,13.13,0,0,0,877.52,193.9Z"/><path class="cls-20" d="M947.25,154.83H898.59a6.89,6.89,0,0,0-4.8,1.71,6.64,6.64,0,0,0,0,9.26,7,7,0,0,0,4.8,1.88H915.9v58.09a6.31,6.31,0,0,0,1.88,4.79,7.93,7.93,0,0,0,10.28,0,6.2,6.2,0,0,0,2.06-4.79V167.68h17.3a6.88,6.88,0,0,0,4.8-1.71,6.6,6.6,0,0,0,0-9.25A6.93,6.93,0,0,0,947.25,154.83Z"/><path class="cls-20" d="M972.78,154.83a6.82,6.82,0,0,0-5.14,1.89,6.06,6.06,0,0,0-1.88,4.79V225.6a6.31,6.31,0,0,0,1.88,4.79,6.24,6.24,0,0,0,5,1.89,6.58,6.58,0,0,0,4.8-1.89,6.22,6.22,0,0,0,2.06-4.79h.17V161.51a6.48,6.48,0,0,0-2.06-4.79A6.81,6.81,0,0,0,972.78,154.83Z"/><path class="cls-20" d="M1046.29,154.83H997.63a6.88,6.88,0,0,0-4.8,1.71,5.74,5.74,0,0,0-1.88,4.63,6.32,6.32,0,0,0,1.88,4.63,7,7,0,0,0,4.8,1.88h17.3v58.09a6.32,6.32,0,0,0,1.89,4.79,7.93,7.93,0,0,0,10.28,0,6.2,6.2,0,0,0,2.06-4.79V167.68h17.3a6.88,6.88,0,0,0,4.8-1.71,6.63,6.63,0,0,0,0-9.25A6.67,6.67,0,0,0,1046.29,154.83Z"/><path class="cls-20" d="M1119.11,154.66c-1.88,0-3.43.51-4.28,1.88a7.44,7.44,0,0,0-1.72,4.8v40.1a17.38,17.38,0,0,1-2.57,9.59,18.2,18.2,0,0,1-6.68,6.34,17.66,17.66,0,0,1-8.91,2.23,15.64,15.64,0,0,1-8.22-2.23,16.11,16.11,0,0,1-6.34-6.34,17.31,17.31,0,0,1-2.4-9.59v-40.1a6.5,6.5,0,0,0-2.06-4.8,6.09,6.09,0,0,0-4.45-1.88,6.84,6.84,0,0,0-5.14,1.88,6.1,6.1,0,0,0-1.89,4.8v40.1a33.62,33.62,0,0,0,3.94,16.27,29.27,29.27,0,0,0,10.8,11.14,30.66,30.66,0,0,0,15.93,4.11,30.27,30.27,0,0,0,15.94-4.11,28.9,28.9,0,0,0,10.62-11.14,33.62,33.62,0,0,0,3.94-16.27v-40.1a6.89,6.89,0,0,0-1.71-4.8A5.86,5.86,0,0,0,1119.11,154.66Z"/><path class="cls-20" d="M1194.16,217a6.73,6.73,0,0,0-4.45.68,16.89,16.89,0,0,1-5.66,1.89,24.55,24.55,0,0,1-6,.51,28.53,28.53,0,0,1-10.11-1.71,20.6,20.6,0,0,1-8-5,21.33,21.33,0,0,1-5.31-8.4,30.21,30.21,0,0,1-1.89-11.65,29.09,29.09,0,0,1,1.72-10.45,22.57,22.57,0,0,1,5-8.22,20.62,20.62,0,0,1,7.88-5.32,26.1,26.1,0,0,1,10.62-1.88,37.77,37.77,0,0,1,6.17.51,51.08,51.08,0,0,1,5.48,1.89,8.71,8.71,0,0,0,4.46.86,4.92,4.92,0,0,0,3.77-2.23,7.22,7.22,0,0,0,1.71-5.66,5.83,5.83,0,0,0-3.25-4.45,28.15,28.15,0,0,0-8.4-3.09,44.7,44.7,0,0,0-25.36,1.89,39.5,39.5,0,0,0-12.68,8.22,34.52,34.52,0,0,0-8.22,12.51,42.91,42.91,0,0,0-2.92,15.77,44.51,44.51,0,0,0,3.09,17.3,34.41,34.41,0,0,0,8.74,12.51,37.65,37.65,0,0,0,12.68,7.54,43.3,43.3,0,0,0,14.9,2.57,40.22,40.22,0,0,0,6.34-.52c2.06-.51,4.12-.85,6.17-1.54a41,41,0,0,0,5.83-2.4,5.92,5.92,0,0,0,3.25-4.28,6.59,6.59,0,0,0-1.71-5.65A5.79,5.79,0,0,0,1194.16,217Z"/><path class="cls-20" d="M1218.15,154.83a6.8,6.8,0,0,0-5.14,1.89,6.07,6.07,0,0,0-1.89,4.79V225.6a6.32,6.32,0,0,0,1.89,4.79,6.23,6.23,0,0,0,5,1.89,6.58,6.58,0,0,0,4.79-1.89,6.19,6.19,0,0,0,2.06-4.79h.17V161.51a6.47,6.47,0,0,0-2-4.79A6.84,6.84,0,0,0,1218.15,154.83Z"/><path class="cls-20" d="M1301.42,165.28a34.77,34.77,0,0,0-11.82-8.56,37.52,37.52,0,0,0-29.82,0,32.82,32.82,0,0,0-11.82,8.56,37.3,37.3,0,0,0-7.71,12.68,45.75,45.75,0,0,0,0,31.19,41.56,41.56,0,0,0,7.71,12.68,36.86,36.86,0,0,0,11.82,8.56,37.52,37.52,0,0,0,29.82,0,34.38,34.38,0,0,0,11.82-8.56,37.09,37.09,0,0,0,7.71-12.68,46.44,46.44,0,0,0,2.74-15.6,42.56,42.56,0,0,0-2.74-15.59A38,38,0,0,0,1301.42,165.28Zm-6.68,41.81a23.45,23.45,0,0,1-8,9.6,21.83,21.83,0,0,1-24,0,23.4,23.4,0,0,1-8.06-9.6,32,32,0,0,1-2.91-13.54,29.64,29.64,0,0,1,2.91-13.53,23.4,23.4,0,0,1,8.06-9.6,21.78,21.78,0,0,1,24,0,23.45,23.45,0,0,1,8,9.6,31.28,31.28,0,0,1,0,27.07Z"/><path class="cls-20" d="M1382.81,154.83a5.19,5.19,0,0,0-4.28,1.71,6.87,6.87,0,0,0-1.72,4.46v48l-40.09-51.58a7,7,0,0,0-2.4-1.88,6.46,6.46,0,0,0-3.08-.52,6.33,6.33,0,0,0-4.8,1.89,6.08,6.08,0,0,0-1.89,4.79v64.77a6.85,6.85,0,0,0,1.72,4.46,5.68,5.68,0,0,0,4.28,1.71,6.53,6.53,0,0,0,4.46-1.71,6.89,6.89,0,0,0,1.71-4.46V179.16L1377,230.91a5,5,0,0,0,2.23,1.37,8.09,8.09,0,0,0,2.91.51,6.32,6.32,0,0,0,4.8-1.88,6.1,6.1,0,0,0,1.89-4.8V161.34a5.81,5.81,0,0,0-1.72-4.45A4.58,4.58,0,0,0,1382.81,154.83Z"/><path class="cls-20" d="M1438.84,158.77a5.52,5.52,0,0,0-2.57-3.25,7.49,7.49,0,0,0-3.77-1.2,6.54,6.54,0,0,0-3.94,1,7,7,0,0,0-2.74,3.43l-27.42,66.48a10.47,10.47,0,0,0-.34,2.06,6.13,6.13,0,0,0,1.54,4.11,5.52,5.52,0,0,0,4.29,1.71,6.42,6.42,0,0,0,3.42-1.19,6.79,6.79,0,0,0,2.4-3.26l5.66-13.54h32.72l5.83,13.71a7.07,7.07,0,0,0,2.57,3.26,5.88,5.88,0,0,0,7.88-.69,6.08,6.08,0,0,0,1.88-4.8,19.26,19.26,0,0,0-.51-2.74Zm-18,43.52,11-26,11.14,26Z"/><path class="cls-20" d="M1522.8,221.14a6.88,6.88,0,0,0-4.8-1.71v-.17h-28.61V161.34a6.5,6.5,0,0,0-2.06-4.8,6.2,6.2,0,0,0-4.63-1.88,6.85,6.85,0,0,0-5.14,1.88,6.1,6.1,0,0,0-1.88,4.8v64.08a6.45,6.45,0,0,0,6.68,6.69H1518a7,7,0,0,0,4.8-1.89,6,6,0,0,0,1.88-4.62A5.84,5.84,0,0,0,1522.8,221.14Z"/></g></g></svg>