<svg id="Capa_1" data-name="Capa 1" xmlns="http://www.w3.org/2000/svg" xmlns:xlink="http://www.w3.org/1999/xlink" viewBox="0 0 252.8 356"><defs><linearGradient id="Degradado_sin_nombre" x1="13.8" y1="193" x2="263.4" y2="193" gradientTransform="matrix(1, 0, 0, -1, -12.2, 371)" gradientUnits="userSpaceOnUse"><stop offset="0" stop-color="#f2efc7"/><stop offset="1" stop-color="#b89876"/></linearGradient><linearGradient id="Degradado_sin_nombre_2" x1="62.8" y1="275.3" x2="213.7" y2="275.3" gradientTransform="matrix(1, 0, 0, -1, 0, 386)" gradientUnits="userSpaceOnUse"><stop offset="0" stop-color="#5ca5c3"/><stop offset="1" stop-color="#2f4187"/></linearGradient><linearGradient id="Degradado_sin_nombre_3" x1="138.46" y1="97" x2="138.46" y2="244.1" gradientTransform="matrix(1, 0, 0, -1, 0, 386)" gradientUnits="userSpaceOnUse"><stop offset="0" stop-color="#74746b"/><stop offset="1" stop-color="#1e1520"/></linearGradient><linearGradient id="Degradado_sin_nombre_4" x1="138.8" y1="98.5" x2="138.8" y2="235.5" gradientTransform="matrix(1, 0, 0, -1, 0, 386)" gradientUnits="userSpaceOnUse"><stop offset="0.48" stop-color="#1f562a"/><stop offset="0.87" stop-color="#388640"/></linearGradient><linearGradient id="Degradado_sin_nombre_5" x1="-738.48" y1="-184.36" x2="-737.97" y2="-184.36" gradientTransform="translate(-54505.38 219040.16) rotate(90) scale(296.41)" gradientUnits="userSpaceOnUse"><stop offset="0" stop-color="#078944"/><stop offset="0.11" stop-color="#078944"/><stop offset="0.52" stop-color="#0b542a"/><stop offset="1" stop-color="#0b542a"/></linearGradient><linearGradient id="Degradado_sin_nombre_6" x1="-744.2" y1="-168.34" x2="-743.69" y2="-168.34" gradientTransform="translate(4767.57 -20294.51) rotate(-90) scale(27.49)" gradientUnits="userSpaceOnUse"><stop offset="0" stop-color="#5ca5c3"/><stop offset="0.5" stop-color="#426ea1"/><stop offset="1" stop-color="#2f4187"/></linearGradient><linearGradient id="Degradado_sin_nombre_7" x1="-738.48" y1="-184.3" x2="-737.97" y2="-184.3" xlink:href="#Degradado_sin_nombre_5"/><linearGradient id="Degradado_sin_nombre_8" x1="-737.21" y1="-192" x2="-736.7" y2="-192" gradientTransform="translate(-8901.99 34873.45) rotate(90) scale(47)" gradientUnits="userSpaceOnUse"><stop offset="0" stop-color="#2f4187"/><stop offset="1" stop-color="#5ca5c3"/></linearGradient><linearGradient id="Degradado_sin_nombre_9" x1="-738.48" y1="-184.43" x2="-737.97" y2="-184.43" xlink:href="#Degradado_sin_nombre_5"/><linearGradient id="Degradado_sin_nombre_10" x1="-737.48" y1="-189.67" x2="-736.98" y2="-189.67" gradientTransform="translate(-10764.72 42700.92) rotate(90) scale(57.6)" xlink:href="#Degradado_sin_nombre_8"/><linearGradient id="Degradado_sin_nombre_11" x1="-738.48" y1="-184.31" x2="-737.97" y2="-184.31" xlink:href="#Degradado_sin_nombre_5"/><linearGradient id="Degradado_sin_nombre_12" x1="-735.89" y1="-193.26" x2="-735.38" y2="-193.26" gradientTransform="translate(-7752.43 30177.82) rotate(90) scale(40.76)" xlink:href="#Degradado_sin_nombre_8"/><linearGradient id="Degradado_sin_nombre_13" x1="-738.48" y1="-184.38" x2="-737.97" y2="-184.38" xlink:href="#Degradado_sin_nombre_5"/><linearGradient id="Degradado_sin_nombre_14" x1="-736.17" y1="-191.73" x2="-735.66" y2="-191.73" gradientTransform="translate(-8560.42 33612.66) rotate(90) scale(45.42)" xlink:href="#Degradado_sin_nombre_8"/><linearGradient id="Degradado_sin_nombre_15" x1="-738.12" y1="-189.14" x2="-737.61" y2="-189.14" gradientTransform="translate(-12248.23 48598.53) rotate(90) scale(65.5)" xlink:href="#Degradado_sin_nombre_8"/></defs><title>Logo_MuniAysen</title><ellipse cx="126.4" cy="178" rx="124.8" ry="176.5" style="fill:url(#Degradado_sin_nombre)"/><path d="M138.6,16.6c68.9,0,124.8,79,124.8,176.5S207.5,369.6,138.6,369.6,13.8,290.5,13.8,193,69.6,16.6,138.6,16.6m0-1.6c-17.1,0-33.7,4.7-49.4,14.1-15,9-28.6,21.9-40.1,38.3s-20.6,35.4-27,56.5a246.1,246.1,0,0,0,0,138.2,190.75,190.75,0,0,0,27,56.5c11.6,16.4,25.1,29.3,40.1,38.3,15.6,9.3,32.2,14.1,49.4,14.1s33.7-4.7,49.4-14.1c15-9,28.6-21.9,40.1-38.3s20.6-35.4,27-56.5a246.1,246.1,0,0,0,0-138.2,190.75,190.75,0,0,0-27-56.5C216.5,51,203,38.1,187.9,29.1,172.3,19.8,155.7,15,138.6,15Z" transform="translate(-12.2 -15)" style="fill:#b89876"/><polygon points="21.3 116.3 31.7 119.5 32.4 117.4 22 114.2 21.3 116.3" style="fill:#205c2e;fill-rule:evenodd"/><polygon points="32 112.6 23.6 109.7 22.9 111.8 33 115.2 35.5 108.1 33.8 107.5 32 112.6" style="fill:#205c2e;fill-rule:evenodd"/><path d="M49.6,112.8a14.75,14.75,0,0,0-2.5-1.2l-5.2-2.2-.9,2,5.5,2.3a14.37,14.37,0,0,1,1.7.8,1.46,1.46,0,0,1,.6.9,2.4,2.4,0,0,1-.2,1.4,2.37,2.37,0,0,1-.9,1.2,1.72,1.72,0,0,1-1.2.2c-.3-.1-.8-.3-1.7-.6l-5.4-2.3-.9,2,5.3,2.2a11.49,11.49,0,0,0,2.6.9,2.88,2.88,0,0,0,1.3-.1,3.36,3.36,0,0,0,1.4-.8,7,7,0,0,0,1.2-2,6.42,6.42,0,0,0,.5-2,3.34,3.34,0,0,0-.3-1.5A2.73,2.73,0,0,0,49.6,112.8Z" transform="translate(-12.2 -15)" style="fill:#205c2e;fill-rule:evenodd"/><path d="M53.8,102.5a3.81,3.81,0,0,0-1.7-.4,2.2,2.2,0,0,0-1.5.6,8.88,8.88,0,0,0-1.8,1.7,6.62,6.62,0,0,1-1.6,1.5.85.85,0,0,1-.7,0,.55.55,0,0,1-.4-.6,2.24,2.24,0,0,1,.3-1.5,2.71,2.71,0,0,1,1-1.1,1.48,1.48,0,0,1,1.3,0l.9-2a3,3,0,0,0-2.6-.1,4.49,4.49,0,0,0-2.2,2.3,4.2,4.2,0,0,0-.6,2.1,3.29,3.29,0,0,0,.4,1.7,2.54,2.54,0,0,0,1.2,1.1,2.88,2.88,0,0,0,2.4.1,5.74,5.74,0,0,0,2.1-1.7,8.41,8.41,0,0,1,1.2-1.3,1.77,1.77,0,0,1,.8-.5.88.88,0,0,1,.7.1,1.26,1.26,0,0,1,.7,1,2.51,2.51,0,0,1-.3,1.6,2.33,2.33,0,0,1-1.2,1.2,2.76,2.76,0,0,1-1.8,0l-.8,2a4.74,4.74,0,0,0,3.1.1A4.9,4.9,0,0,0,55,108a5.49,5.49,0,0,0,.7-2.3,3.42,3.42,0,0,0-.4-1.8A4.81,4.81,0,0,0,53.8,102.5Z" transform="translate(-12.2 -15)" style="fill:#205c2e;fill-rule:evenodd"/><polygon points="41.8 75.9 40.2 74.9 35.8 82.3 37.3 83.2 39 80.5 46.7 85.1 47.8 83.2 40.1 78.6 41.8 75.9" style="fill:#205c2e;fill-rule:evenodd"/><path d="M63.5,86.1a10.26,10.26,0,0,0-1.4.4,3.34,3.34,0,0,0,.4-2.3,3,3,0,0,0-1.2-1.7,2.72,2.72,0,0,0-1.7-.6,2.93,2.93,0,0,0-1.6.4,6.63,6.63,0,0,0-1.7,1.9L53.7,88l8.9,6.2,1.3-1.8-3.7-2.6.3-.4a3,3,0,0,1,.7-.8,4.88,4.88,0,0,1,.7-.3,12.44,12.44,0,0,1,2,0l2.8.1,1.5-2.1L65.7,86A12.84,12.84,0,0,0,63.5,86.1Zm-2.8-.3a9.38,9.38,0,0,1-1,1.7l-.9,1.3-2.3-1.6,1-1.4c.5-.7.8-1.2.9-1.3a1,1,0,0,1,.8-.4,1.61,1.61,0,0,1,.9.3,1.33,1.33,0,0,1,.5.6A2,2,0,0,1,60.7,85.8Z" transform="translate(-12.2 -15)" style="fill:#205c2e;fill-rule:evenodd"/><polygon points="56.9 67.2 54.6 65.3 58.1 61.2 56.7 60 53.3 64.2 51.4 62.6 55.2 58.2 53.8 57 48.6 63.1 56.9 70.1 62.2 63.8 60.8 62.6 56.9 67.2" style="fill:#205c2e;fill-rule:evenodd"/><polygon points="65 46.2 68.3 53 62 48.7 59.5 50.9 66.6 59 68.2 57.7 62.6 51.3 69.8 56.3 71.4 54.9 67.4 47.1 73 53.5 74.5 52.2 67.4 44 65 46.2" style="fill:#205c2e;fill-rule:evenodd"/><path d="M92.8,56.4l-3.3-4.6L87.7,53l3.4,4.9a12.12,12.12,0,0,1,1,1.6,1.38,1.38,0,0,1,.1,1.1,1.86,1.86,0,0,1-.9,1.1,3,3,0,0,1-1.4.5,2.08,2.08,0,0,1-1.2-.5,13.63,13.63,0,0,1-1.1-1.4l-3.4-4.8-1.8,1.2,3.3,4.7a10.46,10.46,0,0,0,1.8,2.1,2.28,2.28,0,0,0,1.2.6,4.29,4.29,0,0,0,1.6,0,7.44,7.44,0,0,0,3.6-2.6,3,3,0,0,0,.5-1.4,2.62,2.62,0,0,0-.2-1.5C94,58.3,93.5,57.5,92.8,56.4Z" transform="translate(-12.2 -15)" style="fill:#205c2e;fill-rule:evenodd"/><polygon points="86.6 31.7 90 38 82.6 33.7 80.8 34.7 85.8 44.3 87.6 43.3 84.3 37.1 91.5 41.3 93.4 40.2 88.4 30.7 86.6 31.7" style="fill:#205c2e;fill-rule:evenodd"/><polygon points="91.5 29.4 95.8 39.3 97.8 38.5 93.6 28.5 91.5 29.4" style="fill:#205c2e;fill-rule:evenodd"/><path d="M117.3,48.7a2.21,2.21,0,0,1-1.3,1,2.52,2.52,0,0,1-2.1-.3,4.84,4.84,0,0,1-1.6-2.6,4.17,4.17,0,0,1-.1-2.9,2.48,2.48,0,0,1,1.6-1.4,2.2,2.2,0,0,1,1.6,0,2.34,2.34,0,0,1,1.2,1l1.9-1.1a4.07,4.07,0,0,0-1.6-1.6,4.41,4.41,0,0,0-3.4-.2,4.67,4.67,0,0,0-3.1,2.5,6,6,0,0,0-.1,4.4,5.33,5.33,0,0,0,2.5,3.4,4.57,4.57,0,0,0,3.8.4,4.51,4.51,0,0,0,2.5-1.7,4.82,4.82,0,0,0,.8-3h-2.2A4.14,4.14,0,0,1,117.3,48.7Z" transform="translate(-12.2 -15)" style="fill:#205c2e;fill-rule:evenodd"/><polygon points="108.7 24 110.8 34.6 113 34.2 110.9 23.6 108.7 24" style="fill:#205c2e;fill-rule:evenodd"/><path d="M134.3,38.5a2.89,2.89,0,0,0-1.6-.9,8,8,0,0,0-2.6.1l-3.5.3.9,10.7,2.2-.2-.4-4.1,1.4-.1a8.69,8.69,0,0,0,2.2-.4,3,3,0,0,0,1.1-.6,2.84,2.84,0,0,0,.8-1.1,3.08,3.08,0,0,0,.2-1.7A2.37,2.37,0,0,0,134.3,38.5Zm-1.6,3.1c-.1.3-.4.4-.6.6a8.92,8.92,0,0,1-1.7.3l-1.2.1-.3-3.1,1.1-.1a11.8,11.8,0,0,1,1.6-.1,1.27,1.27,0,0,1,.9.4,1,1,0,0,1,.4.9C132.9,41.1,132.9,41.4,132.7,41.6Z" transform="translate(-12.2 -15)" style="fill:#205c2e;fill-rule:evenodd"/><path d="M141.7,37.4,136.9,48l2.3.1,1-2.4,4.3.2.8,2.5,2.4.1-3.8-11Zm-.7,6.4,1.7-3.9L144,44Z" transform="translate(-12.2 -15)" style="fill:#205c2e;fill-rule:evenodd"/><polygon points="141.4 23.8 139.3 23.3 137.2 33.8 144.7 35.3 145 33.5 139.7 32.5 141.4 23.8" style="fill:#205c2e;fill-rule:evenodd"/><polygon points="149.6 25.6 146.4 35.9 148.5 36.5 151.7 26.2 149.6 25.6" style="fill:#205c2e;fill-rule:evenodd"/><path d="M174.2,48.3a3.4,3.4,0,0,0-.3-2,3.27,3.27,0,0,0-1.1-1.5,13,13,0,0,0-1.8-1l-3.7-1.6-4.2,9.9,3.8,1.6a5.37,5.37,0,0,0,1.9.5,3.46,3.46,0,0,0,1.8-.2,4.63,4.63,0,0,0,1.8-1.3,5.61,5.61,0,0,0,1.2-2A12,12,0,0,0,174.2,48.3ZM172,48a5.94,5.94,0,0,1-.5,1.9,6.32,6.32,0,0,1-1,1.7,1.85,1.85,0,0,1-.9.7,3.08,3.08,0,0,1-1,.1,5.79,5.79,0,0,1-1.3-.4l-1.5-.6,2.8-6.6.9.4a5.65,5.65,0,0,1,1.6.8,1.6,1.6,0,0,1,.7.9C172,47.1,172,47.5,172,48Z" transform="translate(-12.2 -15)" style="fill:#205c2e;fill-rule:evenodd"/><path d="M181.6,48.8,172.5,56l2,1.2,2-1.7,3.8,2.2-.4,2.6,2.1,1.2L183.7,50Zm-1,6.9L178,54.2l3.3-2.7Z" transform="translate(-12.2 -15)" style="fill:#205c2e;fill-rule:evenodd"/><path d="M194.4,57.5a6.94,6.94,0,0,0-1.5-1.4l-3.2-2.4-6.5,8.6,3.3,2.5a6.23,6.23,0,0,0,1.7,1,3.45,3.45,0,0,0,1.7.2,6,6,0,0,0,2.1-.8,8.32,8.32,0,0,0,1.7-1.6,13.81,13.81,0,0,0,1.3-2.2,4.71,4.71,0,0,0,.2-2A5.45,5.45,0,0,0,194.4,57.5Zm-1.6,3a11.9,11.9,0,0,1-1,1.7,6.09,6.09,0,0,1-1.4,1.4,2.11,2.11,0,0,1-1.1.5,2,2,0,0,1-1-.2,3.78,3.78,0,0,1-1.1-.7l-1.3-1,4.3-5.7.8.6a6.29,6.29,0,0,1,1.4,1.2,2.35,2.35,0,0,1,.5,1A1.73,1.73,0,0,1,192.8,60.5Z" transform="translate(-12.2 -15)" style="fill:#205c2e;fill-rule:evenodd"/><path d="M205.5,74.9a8.72,8.72,0,0,0,1.6-2,4.92,4.92,0,0,0,.5-2,4.06,4.06,0,0,0-.4-1.9,7.55,7.55,0,0,0-1.3-1.6l-2.8-2.9L195.3,72l2.9,2.9a6.44,6.44,0,0,0,1.5,1.2,4.06,4.06,0,0,0,1.7.5,4.66,4.66,0,0,0,2.2-.5A5.91,5.91,0,0,0,205.5,74.9Zm-4.3-.2a1.61,1.61,0,0,1-.9-.3,3.53,3.53,0,0,1-1-.9l-1.1-1.2,5.2-5,.7.7a10.06,10.06,0,0,1,1.2,1.4,2.28,2.28,0,0,1,.3,1.1,2.66,2.66,0,0,1-.3,1.2,6.44,6.44,0,0,1-1.2,1.5,5.1,5.1,0,0,1-1.6,1.2A3.92,3.92,0,0,1,201.2,74.7Z" transform="translate(-12.2 -15)" style="fill:#205c2e;fill-rule:evenodd"/><polygon points="196 63.8 199.5 68 200.9 66.8 197.4 62.6 199.3 61.1 203 65.6 204.4 64.5 199.4 58.3 190.9 65.1 196.1 71.4 197.5 70.3 193.7 65.6 196 63.8" style="fill:#205c2e;fill-rule:evenodd"/><path d="M223,88.5l-11.4,2.2,1.2,2,2.6-.5,2.3,3.7L216.1,98l1.3,2,6.9-9.4Zm-4.2,5.7-1.6-2.5,4.2-.9Z" transform="translate(-12.2 -15)" style="fill:#205c2e;fill-rule:evenodd"/><polygon points="219.7 88.6 218.4 86.4 213.5 86.3 216 82 214.7 79.8 211.2 86.3 207.2 88.5 208.2 90.4 212.2 88.2 219.7 88.6" style="fill:#205c2e;fill-rule:evenodd"/><path d="M229.2,116.2a4,4,0,0,0,1.4-1.1,3,3,0,0,0,.5-1.5,14.87,14.87,0,0,0-.3-2.5,6.13,6.13,0,0,1-.2-2.1c.1-.3.2-.5.5-.6a1.1,1.1,0,0,1,.8,0,2.47,2.47,0,0,1,1,1.2,1.85,1.85,0,0,1,.2,1.4,2.56,2.56,0,0,1-.8,1.1l1,1.9a3,3,0,0,0,1.7-2,4,4,0,0,0-.5-3.1,9.34,9.34,0,0,0-1.2-1.8,3.46,3.46,0,0,0-1.6-.8,2.85,2.85,0,0,0-1.6.2,3.14,3.14,0,0,0-1.6,1.8,5,5,0,0,0,.1,2.7,10.53,10.53,0,0,1,.3,1.8,2.22,2.22,0,0,1-.1.9,1.21,1.21,0,0,1-.5.5,1.27,1.27,0,0,1-1.2,0A2.61,2.61,0,0,1,226,113a1.87,1.87,0,0,1-.2-1.6,2.72,2.72,0,0,1,1.1-1.4l-1.1-1.8a3.86,3.86,0,0,0-1.5,5.6,6,6,0,0,0,1.4,2,3,3,0,0,0,1.7.8A11.63,11.63,0,0,0,229.2,116.2Z" transform="translate(-12.2 -15)" style="fill:#205c2e;fill-rule:evenodd"/><polygon points="229.9 105.2 229 103.1 226.6 102.9 227.1 104.1 229.9 105.2" style="fill:#205c2e;fill-rule:evenodd"/><polygon points="217.4 105.8 220.2 104.7 222.1 109.8 223.8 109.1 221.9 104.1 224.1 103.2 226.2 108.7 227.9 108 225 100.5 214.9 104.4 217.9 112.1 219.6 111.4 217.4 105.8" style="fill:#205c2e;fill-rule:evenodd"/><polygon points="230.8 117.1 223.9 119.2 229.5 112.9 228.9 110.9 218.5 114 219.1 116 225.9 113.9 220.4 120.1 221 122.2 231.4 119.1 230.8 117.1" style="fill:#205c2e;fill-rule:evenodd"/><path d="M205.2,134.2c-.7-1.2-1.3-2.4-1.8-3.4-4-7.7-4.4-8.3-14-9a2.2,2.2,0,0,1-1.6-.9,2.32,2.32,0,0,1-.4-1.8c0-.1,2.7-12.6-3.4-19.5-3.2-3.6-8.4-5.2-15.4-4.6a2.08,2.08,0,0,1-1.9-.9c-.1-.1-11.5-14.9-28.4-14.6h-.7c-16.6,0-27.7,14.4-27.8,14.6a2.46,2.46,0,0,1-1.9.9c-7-.6-12.2.9-15.4,4.6-6.1,6.9-3.4,19.4-3.4,19.5a2.32,2.32,0,0,1-.4,1.8,2.6,2.6,0,0,1-1.6.9c-9.6.7-10,1.4-14,9-.5,1-1.1,2.1-1.8,3.4-2.7,4.9-5.9,6.9-8.5,7.7H213.7C211.1,141.2,207.9,139.2,205.2,134.2Z" transform="translate(-12.2 -15)" style="fill:url(#Degradado_sin_nombre_2)"/><path d="M188.9,130.7c-1.1-1.5-1.8-1.5-3.1.5s-1.6.9-2.8-.5-2.9.2-3.4,1.3-2.1.1-2.1.1a42.3,42.3,0,0,1-3.8-5.3c-2.5-3.9-5.5.8-6.7,3.2-1,1.9-3.1,1.2-4.7-.3-1,.4-1.3.6-1.3.7a1.71,1.71,0,0,1-1.3.7,13.85,13.85,0,0,1-6.6-1.9c-.1,0-.1-.1-.2-.1a5.67,5.67,0,0,0-1.1,1c-.5.6-.9,1.5-2.5.6a13.36,13.36,0,0,0-1.8-.7,13.09,13.09,0,0,0,.3,3.2c.1.3.1.6.2.8a4.82,4.82,0,0,0,3.6-.5c2.1-1.8,3.8-.2,4.6.2a3.6,3.6,0,0,0,3.2.6c1.1-.5,2.6-1.1,3.4.8s2.1,2.1,3.8.5,2.4-3.1,4.8-1.2,2.4,1.9,3.8.9a3,3,0,0,1,3.7.6c.8.8,4.5,1.6,6.2.1,1-.9,3.7-1.5,6.1-1.7h.7A31.43,31.43,0,0,1,188.9,130.7Z" transform="translate(-12.2 -15)" style="fill:#fff"/><path d="M122.2,133.5a57.08,57.08,0,0,0,.3-8.3c0-1.7-.1-3.3,0-4.9a5,5,0,0,1-3.1-2.2,2.65,2.65,0,0,0-2.1-1.4c-1.2,0-2.2,1.3-2.6,2.4-.7,1.6-6.1,8-7.5,8.5s-4.7,1.8-5.4,2.8-2.7,3.1-3.5-.1-3.5,0-3.5,0c-.6-.8-2.5-1.8-3.2-.7a31.19,31.19,0,0,1-3.8,2.7v.1l1.3,3.2s.6,1.2,2.2,0,1.6-3.1,4.5-.9,4,1.8,5.3.6,3.1-2.1,3.5-1.4,1.2.5,1.9-.1,2-1.5,3.1-.5,1.9,1.4,3.1-.5,2.2-4.9,4.4-2.4C118.9,132.9,119.8,134.8,122.2,133.5Z" transform="translate(-12.2 -15)" style="fill:#fff"/><path d="M191.1,134.5c-2.3.2-5,.8-6.1,1.7-1.8,1.5-5.4.7-6.2-.1a2.94,2.94,0,0,0-3.7-.6c-1.4.9-1.3.9-3.8-.9s-3.2-.5-4.8,1.2-2.9,1.4-3.8-.5-2.4-1.3-3.4-.8a3.6,3.6,0,0,1-3.2-.6c-.8-.5-2.5-2-4.6-.2a4.74,4.74,0,0,1-3.6.5,28.85,28.85,0,0,0,3.4,7.5H119.4a18.3,18.3,0,0,0,2.5-6.4l.3-1.8c-2.4,1.2-3.3-.7-5.3-3.1-2.1-2.6-3.2.5-4.4,2.4s-2,1.5-3.1.5-2.4-.1-3.1.5-1.4.8-1.9.1-2.2.2-3.5,1.4-2.5,1.5-5.3-.6-2.8-.2-4.5.9-2.2,0-2.2,0l-1.3-3.2c-5.5,3.2-15.3,8.4-17.3,9.5H201.2A21.8,21.8,0,0,1,191.1,134.5Z" transform="translate(-12.2 -15)" style="fill:#235a2c"/><path d="M130.1,106l1.5-.2a19.25,19.25,0,0,1-1.3-2.8l-1.6.2Z" transform="translate(-12.2 -15)" style="fill:#f6ce10"/><path d="M152.6,100.3l-11.9,1.5a14.2,14.2,0,0,1,.9,2.8,18.12,18.12,0,0,1,5.1-.7h4.7l.6-.1Z" transform="translate(-12.2 -15)" style="fill:#f6ce10"/><path d="M154.4,91.9a1.74,1.74,0,0,1-1.2-.6l-2.3,3.3-1.5-4.3a1.42,1.42,0,0,1-.6.2h-.2c-.3,0-.5-.1-.7-.1l-1.8,3.1-1.9-4a1.45,1.45,0,0,1-.7.2h-.2a.6.6,0,0,1-.4-.1l-1.3,3.7-1.9-3.7a3.55,3.55,0,0,1-.9.4h-.5l-.9,3.9-2.6-3.5a2.38,2.38,0,0,1-1.1.6h0l-.6,4.4-3-2.9a2.22,2.22,0,0,1-1.1.5h-.2l-.4,4.6-2.5-2.1c0,.1-.1.1-.1.2a2.1,2.1,0,0,1-1.1.7l3.4,6.4,1.7-.2a9,9,0,0,1-.7-4.4,22.35,22.35,0,0,1,1-3.6l.3-.4.4.3a39.58,39.58,0,0,0,3.6,2.1c.1.1.3.1.4.2,1.5.7,4.2,2,5.2,4.3,0,.1.1.2.1.3l12.4-1.5Z" transform="translate(-12.2 -15)" style="fill:#f6ce10"/><path d="M128.6,103.3l1.6-.2c-.1-.2-.2-.5-.3-.7l-1.7.2Z" transform="translate(-12.2 -15)" style="fill:#170d0c"/><path d="M152.8,99.6l-12.4,1.5c.1.2.2.5.3.7l11.9-1.5Z" transform="translate(-12.2 -15)" style="fill:#170d0c"/><path d="M144.2,89.6l1.9,4,1.8-3.1a2.19,2.19,0,0,1-.5-.3l-1.2,2.1-1.4-3A.86.86,0,0,0,144.2,89.6Z" transform="translate(-12.2 -15)" style="fill:#010101"/><path d="M149.4,90.4l1.5,4.3,2.3-3.3a2.09,2.09,0,0,1-.4-.6l-1.7,2.5L150,90C149.8,90.1,149.6,90.3,149.4,90.4Z" transform="translate(-12.2 -15)" style="fill:#010101"/><path d="M139.7,89.6l1.9,3.7,1.3-3.7c-.2-.1-.4-.1-.6-.3l-.8,2.3L140.2,89l-.1.1A1.08,1.08,0,0,1,139.7,89.6Z" transform="translate(-12.2 -15)" style="fill:#010101"/><path d="M130.4,92.1c-.1.1-.1.2-.2.2l3,2.9.6-4.4h-.2a.9.9,0,0,1-.5-.1l-.4,3-2.1-2.1C130.5,91.9,130.4,92,130.4,92.1Z" transform="translate(-12.2 -15)" style="fill:#010101"/><path d="M154.5,91.9h-.2l-1.6,7.6-.2.8-.7,3.4-.6.1h1.1v.2l2.5-12.2a.37.37,0,0,0-.3.1Z" transform="translate(-12.2 -15)" style="fill:#010101"/><path d="M135,90.2c0,.1-.1.1-.2.2l2.6,3.5.9-3.9a1.42,1.42,0,0,1-.6-.2l-.6,2.5-1.9-2.6C135.2,89.9,135.1,90,135,90.2Z" transform="translate(-12.2 -15)" style="fill:#010101"/><path d="M126,95.3l2.5,2.1.4-4.6h-.1a1.27,1.27,0,0,1-.6-.1l-.3,3.4-1.7-1.4A.73.73,0,0,1,126,95.3Z" transform="translate(-12.2 -15)" style="fill:#010101"/><path d="M130.1,106l-1.5-2.8-.4-.7-3.4-6.4h-.7l5.3,9.9Z" transform="translate(-12.2 -15)" style="fill:#010101"/><path d="M124.6,95.5a1.23,1.23,0,0,0,.8-.4.9.9,0,0,0,.2-.9,1.19,1.19,0,0,0-1.2-1h-.1a1.23,1.23,0,0,0-.8.4.9.9,0,0,0-.2.9A1.1,1.1,0,0,0,124.6,95.5Z" transform="translate(-12.2 -15)" style="fill:#f6ce10"/><path d="M124.7,96.2h.2a1.9,1.9,0,0,0,1.1-.7c0-.1.1-.1.1-.2a1.42,1.42,0,0,0,.2-.6v-.6a2,2,0,0,0-2.1-1.7,2.09,2.09,0,0,0-1.3.7,2.3,2.3,0,0,0-.4,1.4,1.81,1.81,0,0,0,1.6,1.6h.3A.37.37,0,0,0,124.7,96.2Zm-1.4-1.7a1.49,1.49,0,0,1,.2-.9,1.23,1.23,0,0,1,.8-.4h.1a1.19,1.19,0,0,1,1.2,1,1.49,1.49,0,0,1-.2.9,1.23,1.23,0,0,1-.8.4A1.1,1.1,0,0,1,123.3,94.5Z" transform="translate(-12.2 -15)" style="fill:#170d0c"/><path d="M127.7,91.1a1.2,1.2,0,0,0,1.3,1,1.23,1.23,0,0,0,.8-.4.9.9,0,0,0,.2-.9,1.2,1.2,0,0,0-1.3-1,1.23,1.23,0,0,0-.8.4C127.7,90.4,127.7,90.7,127.7,91.1Z" transform="translate(-12.2 -15)" style="fill:#f6ce10"/><path d="M128.9,92.8h.2a1.61,1.61,0,0,0,1.1-.5l.2-.2c.1-.1.1-.2.2-.3a1.93,1.93,0,0,0-1.9-2.8,2.09,2.09,0,0,0-1.3.7,2.3,2.3,0,0,0-.4,1.4,2,2,0,0,0,1.3,1.6A1.27,1.27,0,0,0,128.9,92.8Zm-.2-3a1.2,1.2,0,0,1,1.3,1,1.49,1.49,0,0,1-.2.9,1.23,1.23,0,0,1-.8.4,1.2,1.2,0,0,1-1.3-1,1.49,1.49,0,0,1,.2-.9A.91.91,0,0,1,128.7,89.8Z" transform="translate(-12.2 -15)" style="fill:#170d0c"/><path d="M133.6,90.1a1.23,1.23,0,0,0,.8-.4.9.9,0,0,0,.2-.9,1.19,1.19,0,0,0-1.2-1h-.1a1.23,1.23,0,0,0-.8.4.9.9,0,0,0-.2.9A1.13,1.13,0,0,0,133.6,90.1Z" transform="translate(-12.2 -15)" style="fill:#f6ce10"/><path d="M133.5,90.9h.2a1.74,1.74,0,0,0,1.1-.6l.2-.2a.76.76,0,0,0,.2-.4,3.55,3.55,0,0,0,.2-1,2,2,0,0,0-2.1-1.7,2.09,2.09,0,0,0-1.3.7,2.3,2.3,0,0,0-.4,1.4,1.94,1.94,0,0,0,1.4,1.6A.55.55,0,0,0,133.5,90.9Zm-1.2-1.8a1.49,1.49,0,0,1,.2-.9,1.23,1.23,0,0,1,.8-.4h.1a1.19,1.19,0,0,1,1.2,1,1.49,1.49,0,0,1-.2.9,1.23,1.23,0,0,1-.8.4A1.13,1.13,0,0,1,132.3,89.1Z" transform="translate(-12.2 -15)" style="fill:#170d0c"/><path d="M138.7,89.3a1.23,1.23,0,0,0,.8-.4.9.9,0,0,0,.2-.9,1.2,1.2,0,0,0-1.3-1,1.23,1.23,0,0,0-.8.4.9.9,0,0,0-.2.9A1.3,1.3,0,0,0,138.7,89.3Z" transform="translate(-12.2 -15)" style="fill:#f6ce10"/><path d="M138.3,90h.5a1.8,1.8,0,0,0,.9-.4c.1-.1.3-.2.4-.4l.1-.1a1.94,1.94,0,0,0,.3-1.3,2,2,0,0,0-2.1-1.7,2.09,2.09,0,0,0-1.3.7,2.3,2.3,0,0,0-.4,1.4,2.26,2.26,0,0,0,1,1.5A.86.86,0,0,0,138.3,90Zm-.9-1.8a1.49,1.49,0,0,1,.2-.9,1.23,1.23,0,0,1,.8-.4,1.2,1.2,0,0,1,1.3,1,1.49,1.49,0,0,1-.2.9,1.23,1.23,0,0,1-.8.4A1.13,1.13,0,0,1,137.4,88.2Z" transform="translate(-12.2 -15)" style="fill:#170d0c"/><path d="M143.5,89a1.23,1.23,0,0,0,.8-.4.9.9,0,0,0,.2-.9,1.2,1.2,0,0,0-1.3-1,1.23,1.23,0,0,0-.8.4.9.9,0,0,0-.2.9A1.1,1.1,0,0,0,143.5,89Z" transform="translate(-12.2 -15)" style="fill:#f6ce10"/><path d="M142.9,89.7c.1,0,.3.1.4.1h.2a1.85,1.85,0,0,0,.7-.2,1,1,0,0,0,.5-.4l.1-.1a2.3,2.3,0,0,0,.4-1.4,2,2,0,0,0-2.1-1.7,2.09,2.09,0,0,0-1.3.7,2.3,2.3,0,0,0-.4,1.4,1.94,1.94,0,0,0,.9,1.4A1.42,1.42,0,0,0,142.9,89.7Zm-.7-1.7a1.49,1.49,0,0,1,.2-.9,1.23,1.23,0,0,1,.8-.4,1.2,1.2,0,0,1,1.3,1,1.49,1.49,0,0,1-.2.9.91.91,0,0,1-.8.4A1.1,1.1,0,0,1,142.2,88Z" transform="translate(-12.2 -15)" style="fill:#170d0c"/><path d="M148.7,89.8a1.23,1.23,0,0,0,.8-.4.9.9,0,0,0,.2-.9,1.19,1.19,0,0,0-1.2-1h-.1a1.23,1.23,0,0,0-.8.4.9.9,0,0,0-.2.9h0A1.2,1.2,0,0,0,148.7,89.8Z" transform="translate(-12.2 -15)" style="fill:#f6ce10"/><path d="M147.9,90.4a1.7,1.7,0,0,0,.7.1h.2a1.42,1.42,0,0,0,.6-.2,1,1,0,0,0,.5-.4l.1-.1a2.3,2.3,0,0,0,.4-1.4,2,2,0,0,0-2.1-1.7,2.09,2.09,0,0,0-1.3.7,1.93,1.93,0,0,0,.2,2.6A5.74,5.74,0,0,0,147.9,90.4Zm-.5-1.6a1.49,1.49,0,0,1,.2-.9.91.91,0,0,1,.8-.4h.1a1.19,1.19,0,0,1,1.2,1,1.49,1.49,0,0,1-.2.9,1.23,1.23,0,0,1-.8.4,1.2,1.2,0,0,1-1.3-1Z" transform="translate(-12.2 -15)" style="fill:#170d0c"/><path d="M153.3,90.2a1.32,1.32,0,0,0,1.4,1.1,1.21,1.21,0,0,0,1-1.4,1.32,1.32,0,0,0-1.4-1.1,1,1,0,0,0-.8.5A2.92,2.92,0,0,0,153.3,90.2Z" transform="translate(-12.2 -15)" style="fill:#f6ce10"/><path d="M153.2,91.3a2.28,2.28,0,0,0,1.2.6h.4a.37.37,0,0,0,.3-.1,2.07,2.07,0,0,0,1-.6,2.3,2.3,0,0,0,.4-1.4,1.9,1.9,0,0,0-2.1-1.6,1.85,1.85,0,0,0-1.2.7,2.3,2.3,0,0,0-.4,1.4c0,.1.1.3.1.4A.6.6,0,0,0,153.2,91.3Zm1.2-2.4a1.24,1.24,0,0,1,1.4,1.1,1.49,1.49,0,0,1-.2.9,1.37,1.37,0,0,1-.8.5,1.24,1.24,0,0,1-1.4-1.1,1.49,1.49,0,0,1,.2-.9A1,1,0,0,1,154.4,88.9Z" transform="translate(-12.2 -15)" style="fill:#010101"/><path d="M147.6,126.7a1.7,1.7,0,0,0-1,0,2.3,2.3,0,0,0-.9.3,12.07,12.07,0,0,1-3.9.8,8.07,8.07,0,0,1-4.9-1.7c-4.4-3.2-4.3-7.4-4.2-7.6l1,.1c0,.2-.1,3.8,3.8,6.7,3.3,2.4,6.2,1.4,7.9.8a5.39,5.39,0,0,1,1-.3,5.13,5.13,0,0,1,2.9.6c.7.3,2,.9,4.3,2.1a12.86,12.86,0,0,0,6.1,1.8.68.68,0,0,0,.6-.4l.2-.2a6.07,6.07,0,0,0-1-.7,8.71,8.71,0,0,0-2.4-.7l.2-.9a11.54,11.54,0,0,1,2.6.9,6.42,6.42,0,0,1,1.3,1,10.87,10.87,0,0,1,1.4-.5c1.7-.5,1.8-1.3,1.8-2.4a4.53,4.53,0,0,1,.3-1.6c.5-1.2-1.6-4.3-3.8-6.4-.7-.7-1.4-1.2-2.1-1.8a19.31,19.31,0,0,1-4.3-4.3,24,24,0,0,1-3-7.4h-5a19.58,19.58,0,0,0-5.3.8l-.5.2-.1-.6a17.84,17.84,0,0,0-1.3-4c-.9-1.9-3.4-3.2-4.8-3.8-.2-.1-.3-.2-.5-.2-.9-.5-2.4-1.4-3.2-1.8a3.93,3.93,0,0,1-.2.6l.6.1a2.07,2.07,0,0,0,.8,2,8.79,8.79,0,0,0,1,.6,13.2,13.2,0,0,1,2.6,1.8c.9.9,1.3,1.4,1.3,1.4l-.7.5a6.56,6.56,0,0,0-1.2-1.3,13.5,13.5,0,0,0-2.5-1.7,8.79,8.79,0,0,0-1-.6,2.57,2.57,0,0,1-1.2-2c-.1.4-.2.9-.3,1.4-.6,2.7,2.5,7.8,2.5,7.8l.4.6-3.7.5c-.2.2-1.1,1.1-4,5.5-2.2,3.2-2.1,7.8-2,12.7a43.41,43.41,0,0,1-.6,10.2,18.77,18.77,0,0,1-2.3,6.2h29.8a28.86,28.86,0,0,1-3.4-8.2C146.1,129.6,147,127.6,147.6,126.7Zm13.9-3.2a2.57,2.57,0,0,1,.7,1,1,1,0,0,1-.2,1.1,1.25,1.25,0,0,1-.9-.5A2,2,0,0,1,161.5,123.5Zm-8.9-7.1a8.49,8.49,0,0,1-3.4-1.1,3.65,3.65,0,0,1-1.5-3s-.1-.4.5-.4,1.4.4,3,1.4A3,3,0,0,1,152.6,116.4Zm-18.7-12.3c0-1.8-.4-2.1-1-2.4-.2-.1-.3-.2-.5-.3a1.19,1.19,0,0,1-.5-.9c0-.5.3-.7.3-.8l.3.3.3.3-.1.1a.22.22,0,0,0,.2.2.52.52,0,0,0,.4.2c.8.4,1.5,1,1.4,3.1a6,6,0,0,0,.2,2.3.35.35,0,0,0-.2-.1l-.1.8C134.3,107.1,133.8,106.7,133.9,104.1Z" transform="translate(-12.2 -15)" style="fill:#cd7829"/><path d="M149.3,115.3a8.49,8.49,0,0,0,3.4,1.1,3.31,3.31,0,0,0-1.3-3.1c-1.6-1-2.5-1.5-3-1.4s-.5.4-.5.4A3.28,3.28,0,0,0,149.3,115.3Z" transform="translate(-12.2 -15)"/><path d="M162.1,125.6a.92.92,0,0,0,.2-1.1,4.24,4.24,0,0,0-.7-1c-.3.4-.6,1.1-.3,1.5A.87.87,0,0,0,162.1,125.6Z" transform="translate(-12.2 -15)"/><path d="M161.7,117.5c-.7-.7-1.5-1.3-2.1-1.8a17.61,17.61,0,0,1-4.1-4.1,22.76,22.76,0,0,1-2.9-7.4v-.4h-5.8a22.84,22.84,0,0,0-5.1.7,14.2,14.2,0,0,0-.9-2.8c-.1-.2-.2-.5-.3-.7s-.1-.2-.1-.3c-1-2.3-3.8-3.6-5.2-4.3-.2-.1-.3-.1-.4-.2-1.2-.6-3.6-2.1-3.6-2.1l-.4-.3-.3.4c-.1.1-.4.7-1,3.6a7.85,7.85,0,0,0,.7,4.4c.1.2.2.5.3.7.5,1.1,1,2.2,1.3,2.8l-1.5.2-.7.1h-.2c-.3,0-.8.3-4.6,5.9-2.4,3.5-2.3,8.2-2.2,13.3a41.42,41.42,0,0,1-.6,10,18.3,18.3,0,0,1-2.5,6.4h1.2a21.31,21.31,0,0,0,2.3-6.2,49.52,49.52,0,0,0,.6-10.2c-.1-4.9-.2-9.5,2-12.7a47.94,47.94,0,0,1,4-5.5l3.7-.5-.4-.6c0-.1-3.1-5.2-2.5-7.8.1-.6.2-1,.3-1.4a2.57,2.57,0,0,0,1.2,2,8.79,8.79,0,0,0,1,.6,27.07,27.07,0,0,1,2.5,1.7c.8.8,1.2,1.3,1.2,1.3l.7-.5s-.4-.5-1.3-1.4a13.2,13.2,0,0,0-2.6-1.8,8.79,8.79,0,0,0-1-.6,2.12,2.12,0,0,1-.8-2l-.6-.1c.1-.2.1-.4.2-.6a24.28,24.28,0,0,0,3.2,1.8c.1.1.3.1.5.2,1.4.7,3.9,1.9,4.8,3.8a19.76,19.76,0,0,1,1.3,4l.1.6.5-.2a19.58,19.58,0,0,1,5.3-.8h5a24,24,0,0,0,3,7.4,21.73,21.73,0,0,0,4.3,4.3,16.8,16.8,0,0,1,2.1,1.8c2.2,2.1,4.3,5.2,3.8,6.4a4.53,4.53,0,0,0-.3,1.6c-.1,1.1-.1,1.9-1.8,2.4-.5.2-1,.3-1.4.5a6.42,6.42,0,0,0-1.3-1c-.6-.3-2.3-.8-2.6-.9l-.2.9a24.63,24.63,0,0,1,2.4.7c.3.2.6.4,1,.7l-.2.2a1.54,1.54,0,0,1-.6.4,11.77,11.77,0,0,1-6.1-1.8c-2.3-1.2-3.6-1.8-4.3-2.1a5.13,5.13,0,0,0-2.9-.6,5.39,5.39,0,0,0-1,.3c-1.7.6-4.6,1.6-7.9-.8-4-2.9-3.9-6.6-3.8-6.7l-1-.1c0,.2-.2,4.3,4.2,7.6a8.07,8.07,0,0,0,4.9,1.7,12.7,12.7,0,0,0,3.9-.8,4.65,4.65,0,0,0,.9-.3,3.33,3.33,0,0,1,1,0c-.6.9-1.5,2.9-.7,6.8a28.86,28.86,0,0,0,3.4,8.2h1.2a29.18,29.18,0,0,1-3.6-8.4c-.8-4,.3-5.8.8-6.3.5.2,1.7.8,4.5,2.2a13.85,13.85,0,0,0,6.6,1.9,1.89,1.89,0,0,0,1.3-.7,4.64,4.64,0,0,1,1.9-.9,3,3,0,0,0,2.5-3.2,5.07,5.07,0,0,1,.2-1.3C166.5,122.9,163.4,119.2,161.7,117.5Z" transform="translate(-12.2 -15)"/><path d="M132.5,100l-.3-.3a.84.84,0,0,0-.3.8,1.19,1.19,0,0,0,.5.9c.2.1.3.2.5.3.6.3,1,.6,1,2.4-.1,2.6.4,3,.7,3.1l.1-.8a.35.35,0,0,1,.2.1s-.3-.4-.2-2.3c0-2.2-.6-2.7-1.4-3.1-.1-.1-.3-.1-.4-.2l-.2-.2c0-.1,0-.1.1-.1Z" transform="translate(-12.2 -15)"/><path d="M112.8,289a113.15,113.15,0,0,1,26.9-3.3,109.68,109.68,0,0,1,24.8,2.9,162.64,162.64,0,0,0,37-48.2c13.1-26.1,19.5-56.4,18.9-90.2l-.1-8.3H56.6l-.1,8.3c-.5,33.8,5.8,64.2,18.9,90.2A161.47,161.47,0,0,0,112.8,289Z" transform="translate(-12.2 -15)" style="fill:url(#Degradado_sin_nombre_3)"/><path d="M116.6,288.2c1.3-.3,2.5-.5,3.8-.7C82.6,254.7,63,208.7,64,150.5H213.6c.9,58.1-18.5,103.9-56.2,136.7,1.3.2,2.6.4,3.8.7A162.4,162.4,0,0,0,198,240c12.9-25.8,19.2-55.9,18.6-89.5v-3H61v3c-.5,33.6,5.7,63.7,18.6,89.5A159.76,159.76,0,0,0,116.6,288.2Z" transform="translate(-12.2 -15)" style="fill:#f7d22c"/><path d="M120.4,287.5a115.57,115.57,0,0,1,19.4-1.7,117.39,117.39,0,0,1,17.6,1.4c37.6-32.8,57.1-78.6,56.2-136.7H64C63,208.7,82.6,254.7,120.4,287.5Z" transform="translate(-12.2 -15)" style="fill:url(#Degradado_sin_nombre_4)"/><path d="M120.3,152.5c1.1.4,4.2,1.7,4.2,2.8a4.45,4.45,0,0,0,1.1,3.5c1.1,1.1,1.5,2.6,3.1,2.6a5.28,5.28,0,0,0,1.3-.1,8.79,8.79,0,0,1-.6-1c-.5-1.2,1-1.4,2.1-2s3.7-.1,5.9.3c1.2.3,1.7,1.7,1.9,3.2h.1c2,.2,2.4.9,5.2,0a13.08,13.08,0,0,0,1.5-.5c.2-.5.4-.9.4-.9s.6-1.4,1-2.3,1.6-.9,2.6-1,2.4-.2,2.6-1.1,2.1-.8,3.2-.6.8,2.3.8,3a3,3,0,0,1-2.7,2.5,2.81,2.81,0,0,0-1.1.5,7,7,0,0,0,3.9-.1c1.1-.7.2-2.4,1.7-3.5s2.2-1.1,2.4-3.1c.1-1.1.2-2.9.3-4.4H119.3C119.5,151.4,119.8,152.3,120.3,152.5Z" transform="translate(-12.2 -15)" style="fill:url(#Degradado_sin_nombre_5)"/><path d="M120.3,152.5c1.1.4,4.2,1.7,4.2,2.8a4.45,4.45,0,0,0,1.1,3.5c1.1,1.1,1.5,2.6,3.1,2.6a5.28,5.28,0,0,0,1.3-.1,8.79,8.79,0,0,1-.6-1c-.5-1.2,1-1.4,2.1-2s3.7-.1,5.9.3c1.2.3,1.7,1.7,1.9,3.2h.1c2,.2,2.4.9,5.2,0a13.08,13.08,0,0,0,1.5-.5c.2-.5.4-.9.4-.9s.6-1.4,1-2.3,1.6-.9,2.6-1,2.4-.2,2.6-1.1,2.1-.8,3.2-.6.8,2.3.8,3a3,3,0,0,1-2.7,2.5,2.81,2.81,0,0,0-1.1.5,7,7,0,0,0,3.9-.1c1.1-.7.2-2.4,1.7-3.5s2.2-1.1,2.4-3.1c.1-1.1.2-2.9.3-4.4H119.3C119.5,151.4,119.8,152.3,120.3,152.5Z" transform="translate(-12.2 -15)" style="fill:url(#Degradado_sin_nombre_6)"/><path d="M119.8,244.5s3.3.3,6.5.5,3-.2,5.8,0a3.17,3.17,0,0,1,2.1.9,2.32,2.32,0,0,0,.5-2.1c-.6-2.7-1-3.6-1-5.6s.9-4.1.1-5.8a19.48,19.48,0,0,1-1.9-5.9,4.33,4.33,0,0,1-1.2.5c-1.1.3-.9,2.9-.5,7.3s-1.1,5-2.5,4.6-.8-4.4-.2-6.5-2.5-3-1.8-.6-.5,4.3-1.9,4.1-.5-3.8-1.7-5.1-1.7,2.4-1.5,5.2,0,4.1-1.7,3.9-1.1-7.3-1.7-9.1-1.1.2-1.4,2.9-2,.2-2.8-.9c-.1-.1-.1-.2-.2-.3a19.09,19.09,0,0,0-.5,4.8,10.09,10.09,0,0,1-3,7.6C112.2,245.2,119.8,244.5,119.8,244.5Z" transform="translate(-12.2 -15)" style="fill:url(#Degradado_sin_nombre_7)"/><path d="M119.8,244.5s3.3.3,6.5.5,3-.2,5.8,0a3.17,3.17,0,0,1,2.1.9,2.32,2.32,0,0,0,.5-2.1c-.6-2.7-1-3.6-1-5.6s.9-4.1.1-5.8a19.48,19.48,0,0,1-1.9-5.9,4.33,4.33,0,0,1-1.2.5c-1.1.3-.9,2.9-.5,7.3s-1.1,5-2.5,4.6-.8-4.4-.2-6.5-2.5-3-1.8-.6-.5,4.3-1.9,4.1-.5-3.8-1.7-5.1-1.7,2.4-1.5,5.2,0,4.1-1.7,3.9-1.1-7.3-1.7-9.1-1.1.2-1.4,2.9-2,.2-2.8-.9c-.1-.1-.1-.2-.2-.3a19.09,19.09,0,0,0-.5,4.8,10.09,10.09,0,0,1-3,7.6C112.2,245.2,119.8,244.5,119.8,244.5Z" transform="translate(-12.2 -15)" style="fill:url(#Degradado_sin_nombre_8)"/><path d="M171.4,233.1c-.9-1.5-2.8-2.7-3-1.1s-.5,4.4-.1,5.4-.8,1.7-1.5,1.6.2-2.3-.3-3.6-1.8-2.4-2.1-1.8a12.87,12.87,0,0,0,0,4.4c.2,1.2.1,1.9-.7,1.9s-2-1-1.4-2.8-.1-6.7-.9-8.5-1.9-1.5-1.9-.5.8,4.7.2,6,0,4.1.5,5-.3,1.6-1.2,1.5-1.1-1.4-.7-2.5,0-8.2,0-9.6-.8-5.4-1.7-5.4-1,.7-1.1,1.6a3.3,3.3,0,0,1-.7,2.1,3.62,3.62,0,0,0-.6,2.3,6.9,6.9,0,0,0,.8,3.2c.5.6.8,2.1.1,2.7s-1.6-.3-1.7-1.9a8.32,8.32,0,0,0-.2-1.3c.5,5.6.2,13.6-4,17.4a16.08,16.08,0,0,0,6.7-1.7c2.6-1.1,4.8.1,9.9.2s3.5-1.1,5.1-1.7c.3-.1.5-.1.8-.2a24.63,24.63,0,0,0,.6-6.4c-.3-2.1-.4-4.1-.5-5.7C171.7,233.5,171.5,233.3,171.4,233.1Z" transform="translate(-12.2 -15)" style="fill:url(#Degradado_sin_nombre_9)"/><path d="M171.4,233.1c-.9-1.5-2.8-2.7-3-1.1s-.5,4.4-.1,5.4-.8,1.7-1.5,1.6.2-2.3-.3-3.6-1.8-2.4-2.1-1.8a12.87,12.87,0,0,0,0,4.4c.2,1.2.1,1.9-.7,1.9s-2-1-1.4-2.8-.1-6.7-.9-8.5-1.9-1.5-1.9-.5.8,4.7.2,6,0,4.1.5,5-.3,1.6-1.2,1.5-1.1-1.4-.7-2.5,0-8.2,0-9.6-.8-5.4-1.7-5.4-1,.7-1.1,1.6a3.3,3.3,0,0,1-.7,2.1,3.62,3.62,0,0,0-.6,2.3,6.9,6.9,0,0,0,.8,3.2c.5.6.8,2.1.1,2.7s-1.6-.3-1.7-1.9a8.32,8.32,0,0,0-.2-1.3c.5,5.6.2,13.6-4,17.4a16.08,16.08,0,0,0,6.7-1.7c2.6-1.1,4.8.1,9.9.2s3.5-1.1,5.1-1.7c.3-.1.5-.1.8-.2a24.63,24.63,0,0,0,.6-6.4c-.3-2.1-.4-4.1-.5-5.7C171.7,233.5,171.5,233.3,171.4,233.1Z" transform="translate(-12.2 -15)" style="fill:url(#Degradado_sin_nombre_10)"/><path d="M122.7,198.9c1.6-.3,1.1-.3,2.8-1.2a3.77,3.77,0,0,1,4.4.6.86.86,0,0,1,.3.6,4.24,4.24,0,0,0,.5-3.4c-.5-2.8.7-7.4,1.4-9.7a1.05,1.05,0,0,1-1.3-.4c-.3-.6-1.5-.3-1,.9s.2,1.7-1.8,2,0-2.1-1.1-2.1-.9-1.9-.8-2.8.1-1.7-.9-1.4-.8,2.1-1.9,2.4c-.8.2-.7-.7-.7-1.6a17.88,17.88,0,0,0-1.4,4.8c-.3,3,.7,4.5.1,6.1-.5,1.3-.5,4.1-2,5.7h.4A19.63,19.63,0,0,0,122.7,198.9Z" transform="translate(-12.2 -15)" style="fill:url(#Degradado_sin_nombre_11)"/><path d="M122.7,198.9c1.6-.3,1.1-.3,2.8-1.2a3.77,3.77,0,0,1,4.4.6.86.86,0,0,1,.3.6,4.24,4.24,0,0,0,.5-3.4c-.5-2.8.7-7.4,1.4-9.7a1.05,1.05,0,0,1-1.3-.4c-.3-.6-1.5-.3-1,.9s.2,1.7-1.8,2,0-2.1-1.1-2.1-.9-1.9-.8-2.8.1-1.7-.9-1.4-.8,2.1-1.9,2.4c-.8.2-.7-.7-.7-1.6a17.88,17.88,0,0,0-1.4,4.8c-.3,3,.7,4.5.1,6.1-.5,1.3-.5,4.1-2,5.7h.4A19.63,19.63,0,0,0,122.7,198.9Z" transform="translate(-12.2 -15)" style="fill:url(#Degradado_sin_nombre_12)"/><path d="M149.6,179.9c-1,.6-1.6,3.7-1.1,4.8s.8,3.5-.5,4.1-1.2-.7-1.5-2.3-1.6-.1-2.1.2-1.1.2-1.3-1.2a19.88,19.88,0,0,0-1.1,5.6c0,3-.4,7.4,1.5,9.3.1-.4.4-.7,1.1-.8a27.38,27.38,0,0,1,4.1.1,2.77,2.77,0,0,0,2.1-.6c.5-.3,1.4-.9,1.4-.9a6.73,6.73,0,0,0,.1,1,7.6,7.6,0,0,0,.4-2.7c.1-3.4-.8-3.5-1.2-6.9s0-5.9-.1-7.9a8.8,8.8,0,0,0-.9-3A1.93,1.93,0,0,1,149.6,179.9Z" transform="translate(-12.2 -15)" style="fill:url(#Degradado_sin_nombre_13)"/><path d="M149.6,179.9c-1,.6-1.6,3.7-1.1,4.8s.8,3.5-.5,4.1-1.2-.7-1.5-2.3-1.6-.1-2.1.2-1.1.2-1.3-1.2a19.88,19.88,0,0,0-1.1,5.6c0,3-.4,7.4,1.5,9.3.1-.4.4-.7,1.1-.8a27.38,27.38,0,0,1,4.1.1,2.77,2.77,0,0,0,2.1-.6c.5-.3,1.4-.9,1.4-.9a6.73,6.73,0,0,0,.1,1,7.6,7.6,0,0,0,.4-2.7c.1-3.4-.8-3.5-1.2-6.9s0-5.9-.1-7.9a8.8,8.8,0,0,0-.9-3A1.93,1.93,0,0,1,149.6,179.9Z" transform="translate(-12.2 -15)" style="fill:url(#Degradado_sin_nombre_14)"/><path d="M153.9,161a3,3,0,0,0,2.7-2.5c0-.8.2-2.8-.8-3s-2.9-.3-3.2.6-1.6,1-2.6,1.1-2.1.1-2.6,1a19.08,19.08,0,0,0-1,2.3s-.2.4-.4.9a9.61,9.61,0,0,0-.8,2.6,7.57,7.57,0,0,0,0,3,12.16,12.16,0,0,1-.7,5.4c-.6,1.6-.6,2,.1,2.6s.8,1.5.2,3.4-1.9,5-1.8,6.8v.4c.2,1.4.8,1.5,1.3,1.2s1.9-1.8,2.1-.2.2,2.8,1.5,2.3.9-2.9.5-4.1.1-4.3,1.1-4.8a2,2,0,0,0,.9-1.1,11.73,11.73,0,0,0,.5-2.7c.1-1.6.5-4.2.2-5.6s-.3-4.4.6-5.9c.6-1,.5-2.3,1.1-3A1.64,1.64,0,0,1,153.9,161Z" transform="translate(-12.2 -15)" style="fill:#fff"/><path d="M123.2,184.3c1.1-.2.9-2,1.9-2.4s1,.5.9,1.4-.3,2.8.8,2.8-.9,2.5,1.1,2.1,2.3-.8,1.8-2,.7-1.5,1-.9a1.09,1.09,0,0,0,1.3.4,1,1,0,0,0,.5-.6,19.22,19.22,0,0,1,2.3-5.4,16.8,16.8,0,0,0,1.9-6.9c.1-2.1.2-3.4.9-4.2a10.6,10.6,0,0,0,1.5-3.9,11.85,11.85,0,0,0,.1-2.8c-.2-1.5-.6-2.9-1.9-3.2-2.1-.5-4.7-1-5.9-.3s-2.6.8-2.1,2a3.33,3.33,0,0,0,.6,1,3.6,3.6,0,0,1,.6,3.1,27.38,27.38,0,0,1-1.6,5.1,52.42,52.42,0,0,1-3.2,6.9c-1.4,2.1-3,4.3-3,5.3a3.4,3.4,0,0,1-.1,1C122.5,183.6,122.4,184.4,123.2,184.3Z" transform="translate(-12.2 -15)" style="fill:#fff"/><path d="M150.9,199.2a3.5,3.5,0,0,1-2.1.6,27,27,0,0,0-4.1-.1c-.7.1-1,.4-1.1.8a1.47,1.47,0,0,0,.4,1.2,3.46,3.46,0,0,1,.5,3c-.2,1.1,1.4,2.1,2.6,3.8a14.5,14.5,0,0,1,2.1,5.3c.2,1.2.3,1.1,1.4,3.6s.3,2.8.2,4.3a11.3,11.3,0,0,0,1.1,5.1,14.77,14.77,0,0,1,1.3,4.9c.1.5.1,1,.2,1.3.1,1.6,1,2.5,1.7,1.9s.3-2.1-.1-2.7a6.9,6.9,0,0,1-.8-3.2,3.62,3.62,0,0,1,.6-2.3,3.52,3.52,0,0,0,.7-2.1c.1-.9.2-1.6,1.1-1.6s1.7,4.1,1.7,5.4.5,8.5,0,9.6-.2,2.4.7,2.5,1.7-.6,1.2-1.5a8.31,8.31,0,0,1-.5-5c.6-1.2-.2-5-.2-6s1.1-1.4,1.9.5,1.6,6.7.9,8.5a1.88,1.88,0,0,0,1.4,2.8c.8,0,.9-.7.7-1.9a12.87,12.87,0,0,1,0-4.4c.3-.6,1.6.5,2.1,1.8s-.3,3.5.3,3.6,1.8-.6,1.5-1.6a19.84,19.84,0,0,1,.1-5.4c.2-1.6,2.1-.3,3,1.1a2.74,2.74,0,0,0,.4.5c.5.3.6-1.5.3-3.7-.3-2.7-2.7-7.4-3.5-8.9s-1-4.1-1.2-5.8a38.67,38.67,0,0,0-1.7-6.9,4.69,4.69,0,0,0-3.9-2.7,17.15,17.15,0,0,1-6.9-1.9c-1.6-.9-2.2-3.1-2.5-4.4a6.73,6.73,0,0,1-.1-1A10,10,0,0,0,150.9,199.2Z" transform="translate(-12.2 -15)" style="fill:#fff"/><path d="M116,233.8c.2-2.7.8-4.7,1.4-2.9s0,9,1.7,9.1,1.9-1.1,1.7-3.9.2-6.4,1.5-5.2.2,4.8,1.7,5.1,2.6-1.6,1.9-4.1,2.4-1.6,1.8.6-1.1,6.2.2,6.5,2.9-.2,2.5-4.6-.7-7,.5-7.3a6.12,6.12,0,0,0,1.2-.5c.7-.4,1-1.1.3-2.3-1.1-1.8-2.7-7.2-5-8.6s-4.8-3.2-4.8-5.7-2.8-8.6-.9-8.7,7.1.7,7.7-.2c.4-.7,1.1-1.4,1-2.1a.86.86,0,0,0-.3-.6,3.77,3.77,0,0,0-4.4-.6c-1.7.9-1.2.9-2.8,1.2a17.53,17.53,0,0,1-2.9.3h-.4a30.09,30.09,0,0,1-6,.1,3.8,3.8,0,0,0-4.4,1.5c-.8,1.5-2.5,2.1-1.2,5.6s3.9,3.8,4.2,5.9,2.3,7.1,1.2,11.8c-.9,4.4-.7,7.1,0,8.4.1.1.1.2.2.3C114,234,115.8,236.5,116,233.8Z" transform="translate(-12.2 -15)" style="fill:#fff"/><path d="M106.2,252.6c3.7.3,2.6-1,7-.8s7.8,1.2,10,.8,8-.7,8.2.8,2.5,2.6-.8,2.7-5.5-.7-6.4.5-1.9,1.4-3.6,1.7-3.3.9-2.6,1.8,5.2,1.4,6.8.6,4.2-.1,4.1.8-1.4,1.6-2.4,1.5-3.6-.1-3.8,1.4.3,3,2.9,2.9,2.7,1.6,1.9,2.7-2.1,1.4-1.7,2.6a8.45,8.45,0,0,1,1,4.5c0,2.7.2,7.2,1.7,8.6a5.72,5.72,0,0,0,.8.7c3.5-.3,7-.5,10.4-.5h2.6a1.7,1.7,0,0,0,.1-.7c-.2-1.8-.5-4.2.8-4.5a4.93,4.93,0,0,0,3-2.1c1-1.4,5.6-3.5,4.7-5.1s-1.9-1.4-.6-2.8.1-2.8-2.3-3-3.2-1.7-1.1-1.9,5.5-.1,7.4-.9,2.9-1.6,2.9-2.6-4.3-2.1-5.9-1.2-2.6-1.6-1.5-1.9,4.2,0,5.2-.8,3.2-2,2.4-3.6-2.3-2.7.6-2.7,11.8,1.5,13.5-.6,1.9-2.5,1.8-3.7c-.1-1-.7-1.9-1.8-1.8a3.09,3.09,0,0,0-.8.2c-1.6.6,0,1.8-5.1,1.7s-7.3-1.4-9.9-.2a16.08,16.08,0,0,1-6.7,1.7,14.83,14.83,0,0,1-3.4-.4c-4.8-1-7.9-2.3-9.7-1.8-1.1.3-1.3-.4-1.9-1a3.17,3.17,0,0,0-2.1-.9c-2.7-.2-2.5.1-5.8,0s-6.5-.5-6.5-.5a103.83,103.83,0,0,1-10.4.5h0c-2.7-.2-5.1-.3-5.2,1.4C104.2,248,102.5,252.3,106.2,252.6Zm34.6-1.3s-2,.6,3-.2a18.32,18.32,0,0,1,2.1-.2c3.2,0,3.8,1.6,4.1,2.7.5,1.2-2.4,2.7-3.9,3.3s-5.1,2.9-3.2,4.5.5,2.4-2,3.2,1.8,3.8,1,4.5a1.55,1.55,0,0,0,1.2,2.5c1.5,0,2.5.6,2.4,1.8s-2.1,1.5-4.8,2.6-.6,4.8-.5,7.1-5.4.9-7.4.2-.7-3,0-4.1,0-1.6-.8-4.8.1-2.8,1.1-4.1-.6-2.3-.9-3.6.5-1.5,1.7-2.8-.3-2.1-1.6-3.6,1.1-.6,3.2-3.3-1.8-3.4-2-5.1S140.8,251.3,140.8,251.3Z" transform="translate(-12.2 -15)" style="fill:#fff"/><path d="M145.9,250.8a18.32,18.32,0,0,0-2.1.2c-5.1.8-3,.2-3,.2s-7.6-1.1-7.3.6,4.1,2.4,2,5.1-4.4,1.8-3.2,3.3,2.8,2.3,1.6,3.6-2,1.5-1.7,2.8,1.9,2.4.9,3.6-1.9.8-1.1,4.1,1.5,3.8.8,4.8-2,3.4,0,4.1,7.6,2,7.4-.2-2.3-6,.5-7.1,4.7-1.4,4.8-2.6-.9-1.8-2.4-1.8a1.52,1.52,0,0,1-1.2-2.5c.8-.7-3.5-3.7-1-4.5s3.9-1.6,2-3.2,1.6-3.9,3.2-4.5,4.4-2,3.9-3.3C149.7,252.5,149.1,250.8,145.9,250.8Z" transform="translate(-12.2 -15)" style="fill:#fff"/><path d="M145.9,250.8a18.32,18.32,0,0,0-2.1.2c-5.1.8-3,.2-3,.2s-7.6-1.1-7.3.6,4.1,2.4,2,5.1-4.4,1.8-3.2,3.3,2.8,2.3,1.6,3.6-2,1.5-1.7,2.8,1.9,2.4.9,3.6-1.9.8-1.1,4.1,1.5,3.8.8,4.8-2,3.4,0,4.1,7.6,2,7.4-.2-2.3-6,.5-7.1,4.7-1.4,4.8-2.6-.9-1.8-2.4-1.8a1.52,1.52,0,0,1-1.2-2.5c.8-.7-3.5-3.7-1-4.5s3.9-1.6,2-3.2,1.6-3.9,3.2-4.5,4.4-2,3.9-3.3C149.7,252.5,149.1,250.8,145.9,250.8Z" transform="translate(-12.2 -15)" style="fill:url(#Degradado_sin_nombre_15)"/><path d="M89.4,275.7c.4-2.1-1.2-4.8-4.6-7.8L83,266.5c1.5,2.6,4.5,8.5,4.9,11.6A3.72,3.72,0,0,0,89.4,275.7Z" transform="translate(-12.2 -15)" style="fill:#c1a52f"/><path d="M87,278.6h0c.2,0,.2-.1.3-.1-.1-2-2.4-7-5-11.8-.3,2.7-.7,8.5,1.5,11a3.14,3.14,0,0,0,2.6,1.1c.1.1.3,0,.6-.2Z" transform="translate(-12.2 -15)" style="fill:#c1a52f"/><path d="M71.3,278.4l-3.7-.4c3,2.6,9.3,7.5,12,6.6a3.57,3.57,0,0,0,0-2.5C78.7,280.2,75.8,278.9,71.3,278.4Z" transform="translate(-12.2 -15)" style="fill:#c1a52f"/><path d="M67.8,279.2c1.6,2.5,4.7,6.8,7.9,7.4a4.34,4.34,0,0,0,3.4-.9.35.35,0,0,0,.1-.2h-.3C75.6,285.5,70.3,281.3,67.8,279.2Z" transform="translate(-12.2 -15)" style="fill:#c1a52f"/><path d="M69.7,246.9l-1.1,4.4c-.6,4-.1,6.7,1.4,8.2a3.89,3.89,0,0,0,3.2,1.1C73.9,258.2,71.7,251.6,69.7,246.9Z" transform="translate(-12.2 -15)" style="fill:#c1a52f"/><path d="M74,260.4a3.2,3.2,0,0,0,1.6-2.3c.7-3.4-3.1-8.6-5.1-11.1C71.8,250.1,74.5,257,74,260.4Z" transform="translate(-12.2 -15)" style="fill:#c1a52f"/><path d="M52.9,254.1c1.6,3.1,6,10.3,10,8.6l.7-.7C62.3,260.6,57.6,257.2,52.9,254.1Z" transform="translate(-12.2 -15)" style="fill:#c1a52f"/><path d="M53.7,253.8c3.4,2.2,8.6,5.7,10.3,7.9a2.22,2.22,0,0,0,.3-2.2C63.3,256.6,56.9,254.6,53.7,253.8Z" transform="translate(-12.2 -15)" style="fill:#c1a52f"/><path d="M58,222.6l-1.8,3.5c-1.2,4-1.2,6.9.1,8.3a3,3,0,0,0,1.9,1C57.1,232.7,57.6,226.3,58,222.6Z" transform="translate(-12.2 -15)" style="fill:#c1a52f"/><path d="M58.9,235.5h0a2.37,2.37,0,0,0,2.4-.9c1.7-2.6-1.2-9.5-2.5-12.4C58.2,227.2,57.9,233.5,58.9,235.5Z" transform="translate(-12.2 -15)" style="fill:#c1a52f"/><path d="M45.7,231.7l-3.4-1.1c2.9,2.6,7.6,6.9,8.8,9.5A3,3,0,0,0,52,238C51.9,236.7,50.8,234.5,45.7,231.7Z" transform="translate(-12.2 -15)" style="fill:#c1a52f"/><path d="M41,230.5c.8,2.3,3.2,8.1,6.5,9.8a4,4,0,0,0,3,.3C49.7,238.7,45.5,234.4,41,230.5Z" transform="translate(-12.2 -15)" style="fill:#c1a52f"/><path d="M55.5,237.5l.2,2.4h0c-.5,5.7.5,9.7,2.9,11.9a6.42,6.42,0,0,0,5,1.7.1.1,0,0,0,.1-.1C64.7,251.7,59.3,242.9,55.5,237.5Z" transform="translate(-12.2 -15)" style="fill:#c1a52f"/><path d="M56.7,238c2.3,3.3,7.6,11.3,7.8,14.8a4.77,4.77,0,0,0,1.3-3.3C65.6,245.2,59.8,240.3,56.7,238Z" transform="translate(-12.2 -15)" style="fill:#c1a52f"/><path d="M79.6,272.1c-.6-4-6.8-7.7-10-9.3,3.1,3.5,8.9,10.4,8.5,13.2A4.22,4.22,0,0,0,79.6,272.1Z" transform="translate(-12.2 -15)" style="fill:#c1a52f"/><path d="M68.4,262.5v.4c-.2,6,1,10,3.6,12.1a7.36,7.36,0,0,0,5.7,1.4h0l-.4-.2C78.3,274.5,72.8,267.3,68.4,262.5Z" transform="translate(-12.2 -15)" style="fill:#c1a52f"/><path d="M95.4,294.7c.4-.1.7-.3,1.1-.4a3.72,3.72,0,0,0,.2-1.8c-.7-4.5-9.6-9.1-13.8-11C86.3,284.3,93.2,290.7,95.4,294.7Z" transform="translate(-12.2 -15)" style="fill:#c1a52f"/><path d="M90.6,295.9a6.89,6.89,0,0,0,1,.4c1.1-.5,2.1-.9,3.2-1.3-2-3.3-8.3-9.5-13-13.7l.6,1.8C84.9,291.7,88.3,294.8,90.6,295.9Z" transform="translate(-12.2 -15)" style="fill:#c1a52f"/><path d="M46.5,229.2a6.52,6.52,0,0,0,4.5,2.6c-.1-3.3-3.3-11.4-6-17.4C44.5,217.2,43.4,225,46.5,229.2Z" transform="translate(-12.2 -15)" style="fill:#c1a52f"/><path d="M48,216.3l-2-1.7c1.7,3.9,5.4,12.5,5.8,16.7a6.89,6.89,0,0,0,2-4.3C54,223.8,52,220.2,48,216.3Z" transform="translate(-12.2 -15)" style="fill:#c1a52f"/><path d="M64.1,262.7a6.61,6.61,0,0,1,3.6,1.9c.1,5.3,1.4,9,3.9,11a7.4,7.4,0,0,0,4.8,1.7c.9,1,1.7,2,2.6,2.9-1.5-1.3-4-2.1-7.6-2.5l-5.6-.6.3.6c.2.4,4.6,8.7,9.5,9.6a2.77,2.77,0,0,0,.9.1,4.85,4.85,0,0,0,3.1-1.2l.1-.1a.1.1,0,0,1,.1-.1c.3.1,1.2.3,3.3,1.1,1.9,4.9,4.4,8.1,7.3,9.4.1.1.3.1.4.2l.3-.2h.2c.2-.1.3-.1.5-.2a4.18,4.18,0,0,1-1-.4c-2.3-1.1-5.7-4.2-8.2-12.8l-.6-1.8c4.7,4.2,11,10.3,13,13.7l.6-.3c-2.3-3.9-9.1-10.3-12.4-13.3,4.2,1.9,13.1,6.5,13.8,11a3.72,3.72,0,0,1-.2,1.8l.9-.3a4.33,4.33,0,0,0,.1-1.6c-.6-3.6-5.7-7.1-10-9.5l.2-3.6a5.18,5.18,0,0,0,2.5-3.3c.5-2.4-1.2-5.3-4.9-8.6l-3.5-2.6-.1.6c-.1.4-1.6,9.5,1.5,13a4,4,0,0,0,3.1,1.4h.3a.77.77,0,0,0,.3-.1l-.2,2.8c-2.9-1.5-5.3-2.5-5.6-2.6-.9-.9-1.8-1.9-2.7-2.9a5.49,5.49,0,0,0,2-4.8c-.4-3-3.6-5.7-6.5-7.6a4.83,4.83,0,0,0-.2-3h.2a4.36,4.36,0,0,0,2.5-3c1-5-6.1-12.7-6.4-13.1l-.5-.5-1.6,6.5c-.7,4.2-.1,7.2,1.6,8.9a4.74,4.74,0,0,0,3.4,1.3,5.1,5.1,0,0,1,.4,2.6,51.46,51.46,0,0,0-4.5-2.5c-.8-1.9-1.5-3.6-2.2-5.4-.4-1.1-.8-2.1-1.2-3.1a5.51,5.51,0,0,0,1.3-3.6c-.1-3.9-4.4-8.1-7.6-10.7l.2-2.5a2.79,2.79,0,0,0,2.7-1.3c2.4-3.6-2.8-13.9-3.1-14.4l-.3-.6-3,5.9v.1c-1.3,4.3-1.2,7.4.2,9a3.92,3.92,0,0,0,2.7,1.3l-.2,1.9c-1.6-1.3-2.9-2.1-3-2.2l-.6-.4c-.9-1.5-1.6-2.9-2.2-4a6.77,6.77,0,0,0,2-4.5q.45-5.25-6-11.4L45,212.7l-.1.6c-.1.5-2.5,11.1,1.4,16.4a7,7,0,0,0,4.8,2.8c1,1.9,2.5,4.7,4.2,7.4v.1c0,.5-.1,1-.1,1.5a17.08,17.08,0,0,0-3.2-.7,3.71,3.71,0,0,0,1.1-2.6c-.1-2.2-2.3-4.6-6.7-7l-6.3-2,.2.7c.1.4,2.8,9,7.2,11.3a4.19,4.19,0,0,0,2.2.5,4,4,0,0,0,1.5-.3h0a20.83,20.83,0,0,1,3.9.8c-.1,4.8,1,8.2,3.2,10.3a7.53,7.53,0,0,0,5,2H64c.3.8.7,1.6,1,2.5q1.2,3.15,2.7,6.6a6.23,6.23,0,0,0-2.8-1.3,3.07,3.07,0,0,0,.4-2.9c-1.6-4.2-12.6-6.5-13.1-6.6l-.7-.1.3.7c.2.5,5,10.7,10.1,10.7a5,5,0,0,0,1.6-.3Zm20.7,5.2c3.4,3,5,5.7,4.6,7.8a3.89,3.89,0,0,1-1.5,2.3c-.4-3.1-3.5-8.9-4.9-11.6ZM86.4,279a3.47,3.47,0,0,1-2.6-1.1c-2.2-2.5-1.8-8.4-1.5-11,2.6,4.8,4.9,9.7,5,11.8-.1,0-.1.1-.2.1H87v.1A.56.56,0,0,0,86.4,279ZM79,285.7a3.57,3.57,0,0,1-3.4.9c-3.2-.6-6.3-4.9-7.9-7.4,2.5,2.2,7.8,6.3,11,6.3H79C79.1,285.5,79.1,285.6,79,285.7Zm2.5-3,.2.6c.3,1,.6,2,.9,2.9-1-.4-2-.7-2.6-.9a4.16,4.16,0,0,0,.1-3.5,2.18,2.18,0,0,0-.5-.8C80.3,281.6,80.9,282.2,81.5,282.7Zm-2,1.9c-2.6.9-9-4-12-6.6l3.7.4c4.6.6,7.4,1.8,8.3,3.7A3.1,3.1,0,0,1,79.5,284.6Zm-3.9-26.5a3.41,3.41,0,0,1-1.6,2.3c.6-3.4-2.1-10.2-3.4-13.3C72.5,249.5,76.3,254.7,75.6,258.1Zm-2.4,2.5a4.73,4.73,0,0,1-3.2-1.1c-1.5-1.5-2-4.3-1.4-8.2l1.1-4.4C71.7,251.6,73.9,258.2,73.2,260.6Zm6.4,11.5a4.47,4.47,0,0,1-1.5,3.9c.4-2.8-5.4-9.7-8.5-13.2C72.8,264.4,79.1,268.1,79.6,272.1Zm-11.2-9.2v-.4c4.4,4.9,9.9,12,8.9,13.7l.4.2h0A7.36,7.36,0,0,1,72,275C69.4,272.9,68.2,268.9,68.4,262.9ZM46.5,229.2c-3-4.1-2-12-1.5-14.8,2.7,6,5.9,14.1,6,17.4A6.68,6.68,0,0,1,46.5,229.2Zm-.6-14.6,2,1.7q6.15,5.85,5.7,10.8a7.19,7.19,0,0,1-2,4.3C51.3,227.1,47.7,218.5,45.9,214.6Zm1.6,25.7c-3.3-1.7-5.7-7.5-6.5-9.8,4.5,3.9,8.7,8.2,9.6,10.1A3.74,3.74,0,0,1,47.5,240.3Zm-5.2-9.7,3.4,1.1c5.1,2.8,6.2,5,6.3,6.4a3.4,3.4,0,0,1-.9,2.1C49.9,237.5,45.2,233.2,42.3,230.6Zm13.9,3.9c-1.2-1.4-1.3-4.3-.1-8.3l1.8-3.5c-.4,3.7-.8,10.1.1,12.8A3,3,0,0,1,56.2,234.5Zm2.5-12.3c1.3,2.8,4.2,9.8,2.5,12.4a2.28,2.28,0,0,1-2.3.9h0C57.9,233.5,58.2,227.2,58.7,222.2Zm5,31.3h0a6.44,6.44,0,0,1-5.1-1.7c-2.4-2.2-3.3-6.2-2.9-11.9h0l-.2-2.4C59.3,242.9,64.7,251.7,63.7,253.5Zm.8-.7c-.2-3.6-5.5-11.6-7.8-14.8,3.1,2.3,9,7.2,9.1,11.5A4.77,4.77,0,0,1,64.5,252.8Zm-.1,6.7a2.25,2.25,0,0,1-.3,2.2c-1.8-2.2-7-5.7-10.3-7.9C56.9,254.6,63.3,256.6,64.4,259.5Zm-11.5-5.4c4.7,3,9.4,6.4,10.7,8l-.7.7C58.9,264.4,54.6,257.2,52.9,254.1Z" transform="translate(-12.2 -15)" style="fill:#5a4219"/><path d="M197.8,286.9c-2,.7-5.2,2.1-5.4,3.6-.1.5.2,1,1,1.5C195.3,291,197.1,288,197.8,286.9Z" transform="translate(-12.2 -15)" style="fill:#a9aa5a"/><path d="M195.7,292.6c1.2-.8,1.9-2.9,2.2-4.5a15.12,15.12,0,0,1-4,4.4l.3.3A1.88,1.88,0,0,0,195.7,292.6Z" transform="translate(-12.2 -15)" style="fill:#a9aa5a"/><path d="M189.5,280.8c1-1.6,0-4.8-.6-6.7a30.32,30.32,0,0,1-1.3,7.5h.3A1.82,1.82,0,0,0,189.5,280.8Z" transform="translate(-12.2 -15)" style="fill:#a9aa5a"/><path d="M186.4,281.4l.4.1c.9-2,1.2-6.1,1.4-7.8-1.6,1.7-3.9,4.7-3.4,6.4C184.9,280.8,185.5,281.2,186.4,281.4Z" transform="translate(-12.2 -15)" style="fill:#a9aa5a"/><path d="M196.5,268.1c-1.6,2-3.8,5.3-3.3,6.7a.9.9,0,0,0,.8.6h.1l.6.2C194.5,273.8,195.7,270.4,196.5,268.1Z" transform="translate(-12.2 -15)" style="fill:#a9aa5a"/><path d="M198.1,275c1.1-1.8,0-5.2-.7-7-1.3,3.4-2.3,6.9-1.9,7.9l.5.2A2.75,2.75,0,0,0,198.1,275Z" transform="translate(-12.2 -15)" style="fill:#a9aa5a"/><path d="M210,280h0l.8-.7c-1.3,0-4.3,0-6.5,1.3.2.6.7,1.7,1.6,1.9C207,282.8,208.4,281.9,210,280Z" transform="translate(-12.2 -15)" style="fill:#a9aa5a"/><path d="M210.3,278.6c-1.7-.8-4.2-1.5-5.4-.8a2.07,2.07,0,0,0-.7,2A13.2,13.2,0,0,1,210.3,278.6Z" transform="translate(-12.2 -15)" style="fill:#a9aa5a"/><path d="M215.4,269.2a13.28,13.28,0,0,0-4.4-.9,2.31,2.31,0,0,0-1.7.5c-.5.4-.6,1.2-.2,2.3h0C210.9,271.1,213.7,270,215.4,269.2Z" transform="translate(-12.2 -15)" style="fill:#a9aa5a"/><path d="M210.2,272.9c1.3.4,4-1.7,5.6-3.1-1.6.7-4.4,1.9-6.4,1.9l.2.3C209.7,272.6,209.9,272.8,210.2,272.9Z" transform="translate(-12.2 -15)" style="fill:#a9aa5a"/><path d="M205.1,264.3c.6-1.7-1.2-5-2.5-6.9-.3,3.7-.2,7.1.2,8.1l1-.2C204.6,265.1,205,264.8,205.1,264.3Z" transform="translate(-12.2 -15)" style="fill:#a9aa5a"/><path d="M201.9,257.8c-1.2,2-2.6,5.2-1.8,6.8.3.7,1,1,2.1,1.1C201.6,263.9,201.8,260,201.9,257.8Z" transform="translate(-12.2 -15)" style="fill:#a9aa5a"/><path d="M218.3,264.4h-.6c.2.8.6,1.3,1.1,1.4,1.2.3,3.3-1,4.8-2.3A17.34,17.34,0,0,1,218.3,264.4Z" transform="translate(-12.2 -15)" style="fill:#a9aa5a"/><path d="M224.5,262.3c-1.8-.7-5.2-1.8-6.6-.8a2,2,0,0,0-.6,1.9l.1.2A14.37,14.37,0,0,0,224.5,262.3Z" transform="translate(-12.2 -15)" style="fill:#a9aa5a"/><path d="M211.2,256.2h0c.1,0,.1,0,.1-.1a26.72,26.72,0,0,1-3-6.9c-.2,1.9-.2,5.7,1,7C209.4,256.4,210,256.9,211.2,256.2Z" transform="translate(-12.2 -15)" style="fill:#a9aa5a"/><path d="M213.7,254.1a3,3,0,0,0-1.1-2.8,40,40,0,0,0-3.7-2.8c.7,2.3,2,5.8,3.2,7.3A3.34,3.34,0,0,0,213.7,254.1Z" transform="translate(-12.2 -15)" style="fill:#a9aa5a"/><path d="M223.9,254.1l.3.4c2.7-.3,4.9-3.7,5.6-4.9-1.9.5-5.4,1.6-6.1,3.2A1.26,1.26,0,0,0,223.9,254.1Z" transform="translate(-12.2 -15)" style="fill:#a9aa5a"/><path d="M224.7,255.2a2.42,2.42,0,0,0,2.3.8c1.2-.4,2.1-2.5,2.6-4.7C228.6,252.8,226.8,254.8,224.7,255.2Z" transform="translate(-12.2 -15)" style="fill:#a9aa5a"/><path d="M214.1,247a2.16,2.16,0,0,0,2.1.1l.2-.1c0-1.4-1.6-4.7-3-7.3C213.1,242,212.8,245.9,214.1,247Z" transform="translate(-12.2 -15)" style="fill:#a9aa5a"/><path d="M214.4,239.9a27.86,27.86,0,0,1,2.7,6.6l.4-.3a2.09,2.09,0,0,0,.4-1.7C217.6,242.7,215.7,240.9,214.4,239.9Z" transform="translate(-12.2 -15)" style="fill:#a9aa5a"/><path d="M227.7,244.3l.9.4c1.1-1.1,2.1-3.8,2.8-5.8-1.7,1.2-4.2,3.2-4.2,4.5A1.06,1.06,0,0,0,227.7,244.3Z" transform="translate(-12.2 -15)" style="fill:#a9aa5a"/><path d="M230.8,245.3c1.1-.7,1.3-3.5,1.3-5.6a18.81,18.81,0,0,1-2.7,5.5A1.42,1.42,0,0,0,230.8,245.3Z" transform="translate(-12.2 -15)" style="fill:#a9aa5a"/><path d="M223.2,232.5c0-1.8-3.1-4.2-5-5.5.7,3.1,1.9,6.5,2.8,7.6l1.1-.6A1.8,1.8,0,0,0,223.2,232.5Z" transform="translate(-12.2 -15)" style="fill:#a9aa5a"/><path d="M220.3,235c-1.2-1.6-2.2-4.9-2.8-7.3-.5,2.3-1,5.9.3,7.1A2.94,2.94,0,0,0,220.3,235Z" transform="translate(-12.2 -15)" style="fill:#a9aa5a"/><path d="M238.2,228c-2.1.6-5.7,2-6.1,3.3-.1.2-.1.4.2.8h0l.6.7C234.6,232.2,236.8,229.8,238.2,228Z" transform="translate(-12.2 -15)" style="fill:#a9aa5a"/><path d="M233.4,233.5a2.09,2.09,0,0,0,2,.6c1.4-.5,2.3-2.9,2.8-4.9A16.2,16.2,0,0,1,233.4,233.5Z" transform="translate(-12.2 -15)" style="fill:#a9aa5a"/><path d="M225.7,227.6c.8-1.4,1.2-5.2,1.3-8.3-1.6,2-4.1,5.5-3.5,7.2.2.6.7.9,1.6,1Z" transform="translate(-12.2 -15)" style="fill:#a9aa5a"/><path d="M228.6,226.5c1.1-1.8-.1-5.3-.9-7.1-.1,2.4-.3,6.2-1.3,8.2A2.53,2.53,0,0,0,228.6,226.5Z" transform="translate(-12.2 -15)" style="fill:#a9aa5a"/><path d="M236.9,220.1c1.1-2-.4-5.6-1.4-7.5.2,2.6.2,6.7-1.1,8.9h0A2.77,2.77,0,0,0,236.9,220.1Z" transform="translate(-12.2 -15)" style="fill:#a9aa5a"/><path d="M231.8,220a1.67,1.67,0,0,0,1.2,1.1l.6.2.3-.3c1.2-2.1,1.1-6.4.9-8.9C233.5,214,231.1,217.9,231.8,220Z" transform="translate(-12.2 -15)" style="fill:#a9aa5a"/><path d="M179.5,289.3c.9-1.9,1.4-6,1.5-7.8-1.6,1.7-3.9,4.7-3.4,6.4a2,2,0,0,0,1.6,1.3Z" transform="translate(-12.2 -15)" style="fill:#a9aa5a"/><path d="M182.4,288.6c.9-1.5.1-4.7-.6-6.7-.2,1.8-.6,5.5-1.5,7.5l.4.1A1.75,1.75,0,0,0,182.4,288.6Z" transform="translate(-12.2 -15)" style="fill:#a9aa5a"/><path d="M179.2,290h.2a3.2,3.2,0,0,0,.2,2.1c.2.5.5,1,.7,1.5.3.1.6.3.9.4a15.7,15.7,0,0,0-.9-2.3,2.56,2.56,0,0,1-.1-1.7l.6.1h0a2.36,2.36,0,0,0,2.3-1.2c1.6-2.6-1-8.5-1.1-8.7l-.2-.5-.4.4c-.2.2-5.2,5.1-4.4,8C177.2,289.1,177.9,289.7,179.2,290Zm2.6-8.1c.7,2,1.6,5.2.6,6.7a2.19,2.19,0,0,1-1.7.9l-.4-.1C181.2,287.4,181.6,283.8,181.8,281.9Zm-.8-.3a28.94,28.94,0,0,1-1.5,7.8h-.2a1.87,1.87,0,0,1-1.6-1.3C177.2,286.3,179.5,283.3,181,281.6Z" transform="translate(-12.2 -15)" style="fill:#4e3922"/><path d="M238.9,227.1c-.7.2-6.8,1.8-7.5,4.1a1.78,1.78,0,0,0,.3,1.5l.3.4a4.88,4.88,0,0,0-2.7,1.1A14.1,14.1,0,0,1,227,236v-.2a28,28,0,0,1,4.4-8.6,18.73,18.73,0,0,0,2.7-4.9,3.59,3.59,0,0,0,3.3-1.8c1.7-3.2-2-9.3-2.1-9.6l-.3-.5-.3.4c-.2.3-4.7,6.3-3.7,9.4a2.31,2.31,0,0,0,1.7,1.6l.5.2a26,26,0,0,1-2.5,4.5,27.94,27.94,0,0,0-3.4,5.9,9.83,9.83,0,0,0-1.2-2.7,1.13,1.13,0,0,1,.1-1.3,3,3,0,0,0,2.9-1.5c1.7-2.8-1.2-8.8-1.4-9l-.2-.5-.4.4c-.6.6-5.4,6-4.4,8.9a2.52,2.52,0,0,0,2.2,1.5l.5.1a1.69,1.69,0,0,0,.1,1.8,12.45,12.45,0,0,1,1.3,3.5c-.3.7-.5,1.4-.7,2s-.3,1-.4,1.7c-.4,1.6-.9,3.9-1.5,5.8a31.63,31.63,0,0,0-2-4.1,7.2,7.2,0,0,1-1-3.4l1.3-.7h0a2.63,2.63,0,0,0,1.4-2.2c0-3-5.9-6.5-6.1-6.6l-.4-.2-.1.5c-.1.3-2.1,7.1.2,9.2a2.35,2.35,0,0,0,1.7.6,7.84,7.84,0,0,0,1.4-.2,8.59,8.59,0,0,0,1.1,3.5,24.56,24.56,0,0,1,2.3,5,5.39,5.39,0,0,1-.8,1.7c-.3.4-.6.9-1,1.5a49.94,49.94,0,0,0-3.3,5.2,16,16,0,0,1-1.9,2.9,13.49,13.49,0,0,1,.6-4.7,5.18,5.18,0,0,0-.2-3.6l.6-.4.1-.1a2.89,2.89,0,0,0,.5-2.4c-.4-2.5-3.5-4.8-4.8-5.7a3,3,0,0,1-.4-.3l-.4-.6-.1.5c-.1.3-1.5,7.1.8,9a2.39,2.39,0,0,0,1.4.5,3.93,3.93,0,0,0,1.4-.3l.3-.2a4.6,4.6,0,0,1,.1,2.9,14,14,0,0,0-.6,5.6c-.5.6-1.1,1.1-1.7,1.7-.5.4-1,.8-1.6,1.3a10.63,10.63,0,0,0-1.1.9,4.57,4.57,0,0,0,.1-1.6,4.84,4.84,0,0,1,.3-1.8,4.12,4.12,0,0,0,2.1-2.2c.3-1.1-.1-2.3-1.3-3.6-4.3-3.7-4.9-3.2-5.1-3.1h0c-.6.5-1,6.4.4,8.6a2.09,2.09,0,0,0,1.7,1,2.66,2.66,0,0,0,1.2-.3,2.92,2.92,0,0,0-.1,1.6,5.52,5.52,0,0,1-.4,2.3,10,10,0,0,0-2.3,3,20.13,20.13,0,0,1-1.4,2.5,12.92,12.92,0,0,0-2.1,5.5,4.28,4.28,0,0,1-.6,1.7c.1-1.6,0-3.7-.7-4.3-.5-.4-.7-2-.7-3.2l1.1-.3a2.25,2.25,0,0,0,1.7-1.4c1-2.7-3-8.2-3.1-8.5l-.3-.4-.3.4c-.2.2-4.1,6-2.7,8.8a3.16,3.16,0,0,0,2.8,1.5c0,1.1.2,3,1,3.6.5.3.6,2.6.4,4.7-.8.7-1.7,1.3-2.5,1.9-.6.4-1.1.7-1.5,1a11.5,11.5,0,0,1-2,1.3l-2.4,1.5a4,4,0,0,0,0-1.9,3.84,3.84,0,0,1,.1-1.9l.4.2h.1a3,3,0,0,0,2.8-1.4c1.7-2.8-1-8.6-1.2-8.9l-.2-.5-.4.4c-.5.6-5.2,6.1-4.4,8.6a1.68,1.68,0,0,0,1.4,1.1l.8.3a4.13,4.13,0,0,0-.2,2.3,3.76,3.76,0,0,1-.3,2.3c-2.1,1.5-3.9,3.1-4.1,4.7a10.82,10.82,0,0,1-2.2,4.5,4.71,4.71,0,0,1,0-1.7c.2-.7-.1-2.2-.8-4.4a2.14,2.14,0,0,1,.1-1.9l.5.1h0a2.36,2.36,0,0,0,2.3-1.2c1.6-2.6-1-8.5-1.1-8.7l-.2-.5-.4.4c-.2.2-5.2,5.1-4.4,8a2.64,2.64,0,0,0,2.2,1.8h.2a3.49,3.49,0,0,0,0,2.3c.3,1.1,1,3.3.8,4a8.27,8.27,0,0,0,.1,2.7,20.41,20.41,0,0,1-4.3,3.8,9.29,9.29,0,0,1,1,.5c.7-.5,1.4-1.1,2.1-1.7a9.08,9.08,0,0,1,3.3,0,2.2,2.2,0,0,0,.8.1,5.9,5.9,0,0,0,3-1.1l.5.6h.1a2.92,2.92,0,0,0,.9.2,2,2,0,0,0,1.3-.4c2.3-1.5,2.8-6.7,2.9-6.9l.1-.5-.5.2c-.7.2-6.5,2-6.9,4.4a2.1,2.1,0,0,0,1,2,4.09,4.09,0,0,1-3,.7,5.76,5.76,0,0,0-2.6-.2,13.58,13.58,0,0,0,4-6.9,5.2,5.2,0,0,1,1.9-2.6,31.69,31.69,0,0,1,4.3-.6,3.64,3.64,0,0,0,2.3-.9,9.88,9.88,0,0,1,1.5-.9,3.47,3.47,0,0,1,2.6-.2,3.4,3.4,0,0,0,2.2,2.5c.2,0,.4.1.6.1,1.2,0,2.6-.9,4.2-2.8l2-1.7-.5-.3c-.2-.1-5.3-2.9-7.6-1.4a2.65,2.65,0,0,0-1,2.7,4,4,0,0,0-2.7.4,7.42,7.42,0,0,0-1.6,1,2.57,2.57,0,0,1-1.8.7,16.9,16.9,0,0,0-3,.3,25.29,25.29,0,0,1,3.9-2.5c1-.6,1.8-1.1,2.2-1.4a7.3,7.3,0,0,1,1.3-.9c1.7-1,4-2.5,4.4-5.1h.5a4.93,4.93,0,0,0,2.2-.5l.2.5a1.52,1.52,0,0,0,1.1,1.3c.2,0,.3.1.5.1,2.3,0,6.1-3.6,6.6-4.1l.4-.4-.5.1c-.6-.3-6.2-2.6-8.2-.9-.7.6-.9,1.6-.5,3a4.27,4.27,0,0,1-2.3.4,13.53,13.53,0,0,1,1.9-4.6c.2-.3.4-.7.6-1,1-.1,3.8-.6,5-1.5s2.9-.1,3.2,0v.1a2.61,2.61,0,0,0,1.6,2,1.27,1.27,0,0,0,.6.1c2.5,0,6-3.6,6.5-4l.4-.4-.5-.2c-.2-.1-5.8-2.6-8-1a2.72,2.72,0,0,0-.9,2.6,3.59,3.59,0,0,0-3.3.3,11.58,11.58,0,0,1-4.1,1.3,5.9,5.9,0,0,1,.4-.8,12.37,12.37,0,0,1,4.1-4.4c.5-.4,1.1-.8,1.5-1.2,1.4,0,4.6-1.2,5.6-2.4.7-.7,2.4-.8,3.2-.8h0l.1.1a3.86,3.86,0,0,0,2.5,1.2,2.2,2.2,0,0,0,.8-.1c2.3-.8,3.1-5.3,3.4-7.2v-.9l-.5.1c-.3.1-6.2,1.3-7.3,3.8a1.84,1.84,0,0,0,.3,2l.1.2a4.87,4.87,0,0,0-3.2,1,10.48,10.48,0,0,1-4.1,2,17.23,17.23,0,0,0,3.6-4.8,34.4,34.4,0,0,1,2.4-3.9,18.7,18.7,0,0,1,4-1.1c1,0,2.3-1.5,2.8-2.2a3,3,0,0,0,1.4.5,2.92,2.92,0,0,0,.9-.2c2.1-1.3,1.6-7.3,1.5-8l-.1-.6-.5.3c-.6.4-5.6,3.5-5.6,5.8a1.46,1.46,0,0,0,.9,1.4l.9.4c-.6.8-1.6,1.8-2.2,1.8a18.52,18.52,0,0,0-3.2.8h0c.4-.5.7-1.1,1-1.5,1-1.5,2-5.9,2.8-9.1,0-.2.1-.3.1-.5a9.89,9.89,0,0,0,3.1-2.3,3.61,3.61,0,0,1,2.6-.9v.1h0a3.52,3.52,0,0,0,2.3,1.1,1.7,1.7,0,0,0,.7-.1c2.7-.9,3.6-7.1,3.7-7.3l.1-.6Zm-3.4-14.5c1,1.9,2.5,5.5,1.4,7.5a2.94,2.94,0,0,1-2.4,1.4h0C235.7,219.3,235.7,215.2,235.5,212.6Zm-2.5,8.6a1.89,1.89,0,0,1-1.2-1.1c-.7-2.1,1.7-6,2.9-7.8.2,2.5.3,6.8-.9,8.9q-.15,0-.3.3Zm-5.3-1.8c.8,1.8,2,5.3.9,7.1a2.45,2.45,0,0,1-2.1,1.1C227.3,225.7,227.6,221.8,227.7,219.4Zm-2.6,8.1a1.77,1.77,0,0,1-1.6-1c-.6-1.7,1.8-5.2,3.5-7.2-.1,3.1-.5,6.9-1.3,8.3Zm-7.2,7.3c-1.3-1.2-.8-4.8-.3-7.1.6,2.3,1.6,5.7,2.8,7.3A2.83,2.83,0,0,1,217.9,234.8Zm.3-7.8c1.9,1.2,5,3.7,5,5.5a1.68,1.68,0,0,1-1,1.5l-1.1.6C220,233.6,218.9,230.1,218.2,227Zm-2,20.1a1.93,1.93,0,0,1-2.1-.1c-1.4-1.2-1.1-5.1-.7-7.3,1.4,2.6,3,5.9,3,7.3Zm-1.8-7.2c1.3,1,3.2,2.8,3.5,4.5a2.09,2.09,0,0,1-.4,1.7l-.4.3A29,29,0,0,0,214.4,239.9Zm-14.3,24.7c-.8-1.6.7-4.8,1.8-6.8-.1,2.2-.3,6.1.3,7.8A2.16,2.16,0,0,1,200.1,264.6Zm2.6-7.2c1.2,1.9,3.1,5.2,2.5,6.9a1.44,1.44,0,0,1-1.2.9l-1,.2C202.5,264.5,202.4,261.1,202.7,257.4Zm-13.8,16.7c.7,1.8,1.6,5.1.6,6.7a2.19,2.19,0,0,1-1.7.9h-.3C188.4,279.5,188.7,275.9,188.9,274.1Zm-2.5,7.3a1.87,1.87,0,0,1-1.6-1.3c-.5-1.7,1.8-4.7,3.4-6.4-.1,1.7-.5,5.8-1.4,7.8Zm9.3,11.2a1.63,1.63,0,0,1-1.5.2l-.3-.3c1.6-.9,3.1-3,4-4.4C197.6,289.7,196.9,291.8,195.7,292.6Zm-3.3-2.2c.2-1.5,3.5-2.9,5.4-3.6-.7,1.2-2.6,4.2-4.5,5.1C192.7,291.4,192.3,290.9,192.4,290.4ZM210.1,280h0c-1.7,1.9-3.1,2.8-4.1,2.5s-1.4-1.3-1.6-1.9c2.2-1.3,5.2-1.3,6.5-1.3Zm-5.2-2.2c1.2-.8,3.7,0,5.4.8a13.43,13.43,0,0,0-6.1,1.3A2.26,2.26,0,0,1,204.9,277.8Zm-7.5-9.8c.7,1.8,1.8,5.3.7,7a2.45,2.45,0,0,1-2.1,1.1l-.5-.2C195.1,274.9,196,271.4,197.4,268Zm-3.3,7.4h0c-.7-.1-.8-.4-.9-.6-.5-1.4,1.7-4.7,3.3-6.7-.9,2.3-2,5.7-1.8,7.6Zm16.1-2.5a1,1,0,0,1-.6-.8l-.2-.3c1.9,0,4.7-1.2,6.4-1.9C214.2,271.3,211.5,273.3,210.2,272.9Zm-.8-4.2a2.86,2.86,0,0,1,1.7-.5,16.4,16.4,0,0,1,4.4.9c-1.7.8-4.6,1.9-6.3,1.8h0A1.88,1.88,0,0,1,209.4,268.7Zm9.4-2.9c-.5-.1-.9-.6-1.1-1.4h.6a16.74,16.74,0,0,0,5.2-.9C222,264.7,220,266.1,218.8,265.8Zm-.9-4.2c1.4-1,4.7,0,6.6.8a15.59,15.59,0,0,1-7.1,1.3l-.1-.2C217.3,262.5,217.5,261.9,217.9,261.6Zm-6.6-5.4h0c-1.3.7-1.8.2-2,0-1.2-1.2-1.2-5.1-1-7a27.39,27.39,0,0,0,3,7Zm-2.5-7.6a40,40,0,0,1,3.7,2.8c1,1.1,1.3,2,1.1,2.8a3,3,0,0,1-1.6,1.7C210.9,254.4,209.6,250.9,208.8,248.6ZM227,256a2.31,2.31,0,0,1-2.3-.8c2.1-.4,3.9-2.4,4.9-3.9C229.1,253.5,228.2,255.6,227,256Zm-3.3-3.2c.6-1.5,4.1-2.7,6.1-3.2-.7,1.2-2.8,4.7-5.6,4.9l-.3-.4A1.26,1.26,0,0,1,223.7,252.8Zm7.1-7.5a1.43,1.43,0,0,1-1.5-.2,18.81,18.81,0,0,0,2.7-5.5C232,241.8,231.9,244.6,230.8,245.3Zm-3.1-1a.82.82,0,0,1-.5-.8c0-1.3,2.5-3.3,4.2-4.5-.7,2-1.7,4.6-2.8,5.8Zm7.7-10.2a2.09,2.09,0,0,1-2-.6,16.2,16.2,0,0,0,4.8-4.3C237.7,231.2,236.8,233.6,235.4,234.1Zm-2.5-1.2-.6-.7h0c-.3-.4-.3-.6-.2-.8.4-1.3,4-2.7,6.1-3.3C236.8,229.8,234.6,232.2,232.9,232.9Z" transform="translate(-12.2 -15)" style="fill:#4e3922"/><line x1="214.1" y1="213.3" x2="214.1" y2="213.3" style="fill:none"/><line x1="168" y1="274.8" x2="168" y2="274.8" style="fill:none"/><path d="M117.5,335.7a2.82,2.82,0,0,1,2.2-.3,2.07,2.07,0,0,1,1.3.9,1.91,1.91,0,0,1,.4,1.5l2.3.1a4.14,4.14,0,0,0-.6-2.3,4.43,4.43,0,0,0-2.9-2,5,5,0,0,0-4,.5,6,6,0,0,0-2.5,3.8,5.51,5.51,0,0,0,.3,4.4,5,5,0,0,0,3.1,2.4,4.63,4.63,0,0,0,3.1-.1,4.85,4.85,0,0,0,2.3-2.2l-1.9-1.2a3.42,3.42,0,0,1-1.4,1.5,2.26,2.26,0,0,1-1.6.2,2.65,2.65,0,0,1-1.7-1.4,5.3,5.3,0,0,1,0-3.1A4.31,4.31,0,0,1,117.5,335.7Z" transform="translate(-12.2 -15)" style="fill:#205c2e"/><polygon points="114.4 320.2 113.1 331.2 115.3 331.5 115.9 326.7 120.2 327.2 119.6 332 121.9 332.3 123.2 321.3 121 321 120.5 325.3 116.1 324.8 116.6 320.5 114.4 320.2" style="fill:#205c2e"/><rect x="133.24" y="340.63" width="11.1" height="2.2" transform="matrix(0.02, -1, 1, 0.02, -217.52, 459.52)" style="fill:#205c2e"/><polygon points="138.8 329.7 133.2 330.2 132.4 321.1 130.2 321.3 131.2 332.3 138.9 331.6 138.8 329.7" style="fill:#205c2e"/><polygon points="147.8 318.4 139.7 320.2 142.2 331 150.5 329.1 150.1 327.3 144 328.7 143.3 325.8 148.8 324.5 148.3 322.7 142.9 323.9 142.4 321.6 148.2 320.2 147.8 318.4" style="fill:#205c2e"/><path d="M94.1,328.9l-1.2.3Z" transform="translate(-12.2 -15)" style="fill:none"/><path d="M95.2,328.6c-.3.1-.7.2-1.1.3A8.11,8.11,0,0,0,95.2,328.6Z" transform="translate(-12.2 -15)" style="fill:none"/><path d="M92.5,329.3c-.3.1-.6.1-.9.2A2.92,2.92,0,0,0,92.5,329.3Z" transform="translate(-12.2 -15)" style="fill:none"/><path d="M96.4,328.2a6.89,6.89,0,0,1-.8.3C95.9,328.4,96.1,328.3,96.4,328.2Z" transform="translate(-12.2 -15)" style="fill:none"/><path d="M88.4,330.1c-.5.1-.9.1-1.4.2C87.4,330.2,87.9,330.2,88.4,330.1Z" transform="translate(-12.2 -15)" style="fill:none"/><path d="M91.1,329.6c-.3.1-.6.1-.9.2A2.39,2.39,0,0,0,91.1,329.6Z" transform="translate(-12.2 -15)" style="fill:none"/><path d="M86.9,330.3c-.5,0-.9.1-1.4.1C85.9,330.4,86.4,330.3,86.9,330.3Z" transform="translate(-12.2 -15)" style="fill:none"/><path d="M97.5,327.8c-.2.1-.5.2-.7.3A4.88,4.88,0,0,1,97.5,327.8Z" transform="translate(-12.2 -15)" style="fill:none"/><path d="M89.8,329.9a3.08,3.08,0,0,1-1,.1A3.4,3.4,0,0,0,89.8,329.9Z" transform="translate(-12.2 -15)" style="fill:none"/><path d="M98.6,327.3c-.2.1-.5.2-.7.3A4.88,4.88,0,0,1,98.6,327.3Z" transform="translate(-12.2 -15)" style="fill:none"/><path d="M103.8,324.6c-.2.1-.4.3-.6.4A2.09,2.09,0,0,1,103.8,324.6Z" transform="translate(-12.2 -15)" style="fill:none"/><path d="M103.1,325.1l-.6.3Z" transform="translate(-12.2 -15)" style="fill:none"/><path d="M102.3,325.5c-.2.1-.3.2-.5.3A2.19,2.19,0,0,1,102.3,325.5Z" transform="translate(-12.2 -15)" style="fill:none"/><path d="M104.4,324.2c-.1.1-.3.2-.4.3C104.1,324.4,104.3,324.3,104.4,324.2Z" transform="translate(-12.2 -15)" style="fill:none"/><path d="M85,330.4H84A3.35,3.35,0,0,0,85,330.4Z" transform="translate(-12.2 -15)" style="fill:none"/><path d="M101.5,326l-.6.3A.86.86,0,0,1,101.5,326Z" transform="translate(-12.2 -15)" style="fill:none"/><path d="M99.8,326.8c-.3.1-.6.3-.9.4A3.92,3.92,0,0,1,99.8,326.8Z" transform="translate(-12.2 -15)" style="fill:none"/><path d="M100.6,326.4c-.2.1-.5.2-.7.3A4.88,4.88,0,0,0,100.6,326.4Z" transform="translate(-12.2 -15)" style="fill:none"/><path d="M67.2,306.1h.1C67.3,306.2,67.2,306.2,67.2,306.1Z" transform="translate(-12.2 -15)" style="fill:none"/><path d="M65.4,305.8h.1C65.5,305.9,65.4,305.8,65.4,305.8Z" transform="translate(-12.2 -15)" style="fill:none"/><path d="M70.3,306.6h0Z" transform="translate(-12.2 -15)" style="fill:none"/><path d="M65.9,305.9Z" transform="translate(-12.2 -15)" style="fill:none"/><path d="M64.9,305.7Z" transform="translate(-12.2 -15)" style="fill:none"/><path d="M68.6,306.4h0Z" transform="translate(-12.2 -15)" style="fill:none"/><path d="M69.5,306.5h0Z" transform="translate(-12.2 -15)" style="fill:none"/><path d="M104.9,323.9c-.1.1-.2.2-.3.2C104.7,324,104.8,323.9,104.9,323.9Z" transform="translate(-12.2 -15)" style="fill:none"/><path d="M64.1,305.6Z" transform="translate(-12.2 -15)" style="fill:none"/><path d="M67.9,306.3h0Z" transform="translate(-12.2 -15)" style="fill:none"/><path d="M82.9,330.5h0Z" transform="translate(-12.2 -15)" style="fill:none"/><path d="M78.3,330.2c-.5-.1-1.1-.1-1.6-.2A7.77,7.77,0,0,0,78.3,330.2Z" transform="translate(-12.2 -15)" style="fill:none"/><path d="M76.4,330a7.72,7.72,0,0,0-1.5-.2A7.72,7.72,0,0,1,76.4,330Z" transform="translate(-12.2 -15)" style="fill:none"/><path d="M80,330.4c-.4,0-.9-.1-1.3-.1C79.1,330.3,79.6,330.4,80,330.4Z" transform="translate(-12.2 -15)" style="fill:none"/><path d="M81.9,330.5a7.57,7.57,0,0,1-1.5-.1C80.9,330.4,81.4,330.5,81.9,330.5Z" transform="translate(-12.2 -15)" style="fill:none"/><path d="M63.5,305.5Z" transform="translate(-12.2 -15)" style="fill:none"/><path d="M74.5,329.7a8.47,8.47,0,0,1-1.7-.4A13.64,13.64,0,0,1,74.5,329.7Z" transform="translate(-12.2 -15)" style="fill:none"/><path d="M63.7,305.5Z" transform="translate(-12.2 -15)" style="fill:none"/><path d="M63.9,305.5Z" transform="translate(-12.2 -15)" style="fill:none"/><path d="M66.5,306h.1C66.6,306.1,66.6,306.1,66.5,306Z" transform="translate(-12.2 -15)" style="fill:none"/><path d="M145.4,311.5h0Z" transform="translate(-12.2 -15)" style="fill:none"/><path d="M142.8,311.4h0Z" transform="translate(-12.2 -15)" style="fill:none"/><path d="M152.3,312.3c-.3,0-.6-.1-.8-.1C151.7,312.2,152,312.3,152.3,312.3Z" transform="translate(-12.2 -15)" style="fill:none"/><path d="M150.1,312c-.3,0-.6-.1-.8-.1C149.5,311.9,149.8,312,150.1,312Z" transform="translate(-12.2 -15)" style="fill:none"/><path d="M147.8,311.8c-.3,0-.5-.1-.8-.1A2,2,0,0,1,147.8,311.8Z" transform="translate(-12.2 -15)" style="fill:none"/><path d="M128.9,311.9c-.5.1-.9.1-1.4.2C127.9,312,128.4,312,128.9,311.9Z" transform="translate(-12.2 -15)" style="fill:none"/><path d="M131.4,311.7c-.6.1-1.2.1-1.7.2A8.81,8.81,0,0,1,131.4,311.7Z" transform="translate(-12.2 -15)" style="fill:none"/><path d="M136.4,311.4a9.7,9.7,0,0,0-1.7.1A10.28,10.28,0,0,1,136.4,311.4Z" transform="translate(-12.2 -15)" style="fill:none"/><path d="M140.8,311.3h0Z" transform="translate(-12.2 -15)" style="fill:none"/><path d="M134.1,311.5a17.85,17.85,0,0,0-2.3.2A19.53,19.53,0,0,1,134.1,311.5Z" transform="translate(-12.2 -15)" style="fill:none"/><path d="M164.4,315.1l-.9-.3Z" transform="translate(-12.2 -15)" style="fill:none"/><path d="M169,316.6a4.88,4.88,0,0,1-.7-.3C168.5,316.5,168.8,316.5,169,316.6Z" transform="translate(-12.2 -15)" style="fill:none"/><path d="M105.4,323.5c-.1.1-.2.1-.3.2C105.2,323.7,105.3,323.6,105.4,323.5Z" transform="translate(-12.2 -15)" style="fill:none"/><path d="M162,314.4a3.09,3.09,0,0,0-.8-.2A1.88,1.88,0,0,1,162,314.4Z" transform="translate(-12.2 -15)" style="fill:none"/><path d="M156.7,313.1a.6.6,0,0,1-.4-.1A.76.76,0,0,0,156.7,313.1Z" transform="translate(-12.2 -15)" style="fill:none"/><path d="M154.5,312.7c-.3,0-.5-.1-.8-.1A2.2,2.2,0,0,1,154.5,312.7Z" transform="translate(-12.2 -15)" style="fill:none"/><path d="M159.6,313.8c-.2-.1-.4-.1-.6-.2C159.2,313.7,159.4,313.7,159.6,313.8Z" transform="translate(-12.2 -15)" style="fill:none"/><path d="M166.7,315.8l-.9-.3Z" transform="translate(-12.2 -15)" style="fill:none"/><path d="M137.3,311.3h0Z" transform="translate(-12.2 -15)" style="fill:none"/><path d="M106.7,322.6l-.1.1C106.6,322.6,106.6,322.6,106.7,322.6Z" transform="translate(-12.2 -15)" style="fill:none"/><path d="M106.8,322.5Z" transform="translate(-12.2 -15)" style="fill:none"/><path d="M106.7,317.2c.2-.1.4-.1.6-.2a1.07,1.07,0,0,0-.6.2Z" transform="translate(-12.2 -15)" style="fill:none"/><path d="M106.2,322.9c-.1.1-.2.2-.3.2C106,323.1,106.1,323,106.2,322.9Z" transform="translate(-12.2 -15)" style="fill:none"/><path d="M105.9,323.2c-.1.1-.2.2-.3.2C105.7,323.3,105.8,323.3,105.9,323.2Z" transform="translate(-12.2 -15)" style="fill:none"/><path d="M106.5,322.7c-.1,0-.1.1-.2.1C106.4,322.8,106.4,322.8,106.5,322.7Z" transform="translate(-12.2 -15)" style="fill:none"/><path d="M108.8,316.4a4.87,4.87,0,0,0-1.1.4C108.1,316.7,108.5,316.5,108.8,316.4Z" transform="translate(-12.2 -15)" style="fill:none"/><path d="M116,314.3l-1.3.3Z" transform="translate(-12.2 -15)" style="fill:none"/><path d="M120.4,313.3a9.36,9.36,0,0,0-1.6.4A9.36,9.36,0,0,1,120.4,313.3Z" transform="translate(-12.2 -15)" style="fill:none"/><path d="M110.5,315.9c-.4.1-.7.2-1,.3C109.8,316.1,110.1,316,110.5,315.9Z" transform="translate(-12.2 -15)" style="fill:none"/><path d="M118.5,313.7a13.32,13.32,0,0,0-1.9.5A10.55,10.55,0,0,1,118.5,313.7Z" transform="translate(-12.2 -15)" style="fill:none"/><path d="M124.5,312.5c-.4.1-.9.1-1.3.2A5.85,5.85,0,0,0,124.5,312.5Z" transform="translate(-12.2 -15)" style="fill:none"/><path d="M122.4,312.9l-1.3.3A6.11,6.11,0,0,1,122.4,312.9Z" transform="translate(-12.2 -15)" style="fill:none"/><path d="M112.2,315.3l-1.1.3Z" transform="translate(-12.2 -15)" style="fill:none"/><path d="M114,314.8c-.4.1-.8.2-1.1.3Z" transform="translate(-12.2 -15)" style="fill:none"/><path d="M126.6,312.2c-.4.1-.9.1-1.3.2C125.8,312.3,126.2,312.3,126.6,312.2Z" transform="translate(-12.2 -15)" style="fill:none"/><path d="M64.5,305.7Z" transform="translate(-12.2 -15)" style="fill:none"/><path d="M189.4,306.8h0c.2.1.4.1.6.2A1.42,1.42,0,0,0,189.4,306.8Z" transform="translate(-12.2 -15)" style="fill:none"/><path d="M169.8,323.1Z" transform="translate(-12.2 -15)" style="fill:none"/><path d="M170.3,323.5a.1.1,0,0,1-.1-.1A.1.1,0,0,0,170.3,323.5Z" transform="translate(-12.2 -15)" style="fill:none"/><path d="M197.3,308.1c.5,0,1,.1,1.5.1C198.3,308.2,197.8,308.1,197.3,308.1Z" transform="translate(-12.2 -15)" style="fill:none"/><path d="M169.9,323.2c0-.1-.1-.1,0,0C169.8,323.1,169.9,323.1,169.9,323.2Z" transform="translate(-12.2 -15)" style="fill:none"/><path d="M190.3,307c.5.1,1,.2,1.6.3A7.58,7.58,0,0,1,190.3,307Z" transform="translate(-12.2 -15)" style="fill:none"/><path d="M193.8,307.7c.5.1,1,.1,1.5.2C194.8,307.8,194.3,307.8,193.8,307.7Z" transform="translate(-12.2 -15)" style="fill:none"/><path d="M195.7,307.9c.5.1,1,.1,1.6.2C196.7,308,196.2,308,195.7,307.9Z" transform="translate(-12.2 -15)" style="fill:none"/><path d="M192.1,307.4a7.84,7.84,0,0,0,1.4.2A7.84,7.84,0,0,1,192.1,307.4Z" transform="translate(-12.2 -15)" style="fill:none"/><path d="M170,323.3l-.1-.1Z" transform="translate(-12.2 -15)" style="fill:none"/><path d="M173.1,325.8c-.1-.1-.3-.2-.4-.3C172.8,325.6,173,325.7,173.1,325.8Z" transform="translate(-12.2 -15)" style="fill:none"/><path d="M172.5,325.4l-.3-.3Q172.2,325.25,172.5,325.4Z" transform="translate(-12.2 -15)" style="fill:none"/><path d="M175.5,327.4a2.19,2.19,0,0,1-.5-.3C175.2,327.2,175.3,327.3,175.5,327.4Z" transform="translate(-12.2 -15)" style="fill:none"/><path d="M170.6,323.8c-.1-.1-.2-.1-.2-.2A.22.22,0,0,0,170.6,323.8Z" transform="translate(-12.2 -15)" style="fill:none"/><path d="M174.7,326.9a2.09,2.09,0,0,1-.6-.4C174.3,326.6,174.5,326.8,174.7,326.9Z" transform="translate(-12.2 -15)" style="fill:none"/><path d="M171,324.2a1.38,1.38,0,0,0-.4-.3A1.38,1.38,0,0,1,171,324.2Z" transform="translate(-12.2 -15)" style="fill:none"/><path d="M171.9,324.9c-.1-.1-.2-.2-.3-.2C171.7,324.8,171.8,324.9,171.9,324.9Z" transform="translate(-12.2 -15)" style="fill:none"/><path d="M171.4,324.6c-.1-.1-.2-.2-.3-.2C171.2,324.4,171.3,324.5,171.4,324.6Z" transform="translate(-12.2 -15)" style="fill:none"/><path d="M174,326.4c-.2-.2-.5-.3-.7-.5A1.79,1.79,0,0,0,174,326.4Z" transform="translate(-12.2 -15)" style="fill:none"/><path d="M212.9,307.4h0Z" transform="translate(-12.2 -15)" style="fill:none"/><path d="M211.6,307.7c.4,0,.7-.1.9-.1A2.77,2.77,0,0,0,211.6,307.7Z" transform="translate(-12.2 -15)" style="fill:none"/><path d="M212.6,307.5h0Z" transform="translate(-12.2 -15)" style="fill:none"/><path d="M210.3,307.8a.6.6,0,0,0,.4-.1C210.6,307.8,210.5,307.8,210.3,307.8Z" transform="translate(-12.2 -15)" style="fill:none"/><path d="M211,307.7a.6.6,0,0,0,.4-.1A.6.6,0,0,1,211,307.7Z" transform="translate(-12.2 -15)" style="fill:none"/><path d="M213.2,307.4Z" transform="translate(-12.2 -15)" style="fill:none"/><path d="M213.3,307.4Z" transform="translate(-12.2 -15)" style="fill:none"/><path d="M199.1,308.2a7.57,7.57,0,0,1,1.5.1C200.1,308.3,199.6,308.2,199.1,308.2Z" transform="translate(-12.2 -15)" style="fill:none"/><path d="M203.4,308.3h0Z" transform="translate(-12.2 -15)" style="fill:none"/><path d="M203.5,308.3h0Z" transform="translate(-12.2 -15)" style="fill:none"/><path d="M204.8,308.2h0Z" transform="translate(-12.2 -15)" style="fill:none"/><path d="M205.8,308.2h0Z" transform="translate(-12.2 -15)" style="fill:none"/><path d="M200.8,308.3h0Z" transform="translate(-12.2 -15)" style="fill:none"/><path d="M208.6,308c.3,0,.5-.1.8-.1A2.49,2.49,0,0,1,208.6,308Z" transform="translate(-12.2 -15)" style="fill:none"/><path d="M209.6,307.9a.9.9,0,0,0,.5-.1A1.09,1.09,0,0,1,209.6,307.9Z" transform="translate(-12.2 -15)" style="fill:none"/><path d="M207.7,308.1a2,2,0,0,0,.8-.1C208.3,308,208,308.1,207.7,308.1Z" transform="translate(-12.2 -15)" style="fill:none"/><path d="M206.8,308.1h0Z" transform="translate(-12.2 -15)" style="fill:none"/><path d="M200.7,331.9c-.5.1-1.1.1-1.6.2A7.77,7.77,0,0,0,200.7,331.9Z" transform="translate(-12.2 -15)" style="fill:none"/><path d="M87.2,305.9h0Z" transform="translate(-12.2 -15)" style="fill:none"/><path d="M202.8,331.6l-1.8.3Z" transform="translate(-12.2 -15)" style="fill:none"/><path d="M86,306.2c.3-.1.6-.1.8-.2A3.09,3.09,0,0,1,86,306.2Z" transform="translate(-12.2 -15)" style="fill:none"/><path d="M83.2,306.7c.4-.1.8-.1,1.2-.2A5,5,0,0,1,83.2,306.7Z" transform="translate(-12.2 -15)" style="fill:none"/><path d="M82,306.9c.3,0,.6-.1.9-.1A2.77,2.77,0,0,0,82,306.9Z" transform="translate(-12.2 -15)" style="fill:none"/><path d="M205.2,331.2c-.7.1-1.3.3-1.9.4C203.9,331.5,204.5,331.3,205.2,331.2Z" transform="translate(-12.2 -15)" style="fill:none"/><path d="M78.9,307h0Z" transform="translate(-12.2 -15)" style="fill:none"/><path d="M72.1,306.8h0Z" transform="translate(-12.2 -15)" style="fill:none"/><path d="M84.6,306.5c.3-.1.6-.1,1-.2C85.3,306.4,84.9,306.4,84.6,306.5Z" transform="translate(-12.2 -15)" style="fill:none"/><path d="M176.4,327.8a2.19,2.19,0,0,1-.5-.3A2.19,2.19,0,0,0,176.4,327.8Z" transform="translate(-12.2 -15)" style="fill:none"/><path d="M74,306.9h0Z" transform="translate(-12.2 -15)" style="fill:none"/><path d="M73.1,306.9h0Z" transform="translate(-12.2 -15)" style="fill:none"/><path d="M76,307h0Z" transform="translate(-12.2 -15)" style="fill:none"/><path d="M75.1,307h0Z" transform="translate(-12.2 -15)" style="fill:none"/><path d="M80.7,307a2.77,2.77,0,0,0,.9-.1A2.77,2.77,0,0,0,80.7,307Z" transform="translate(-12.2 -15)" style="fill:none"/><path d="M79.1,307a4.87,4.87,0,0,0,1.2-.1A4.87,4.87,0,0,1,79.1,307Z" transform="translate(-12.2 -15)" style="fill:none"/><path d="M77.1,307h0Z" transform="translate(-12.2 -15)" style="fill:none"/><path d="M106.8,322.4Z" transform="translate(-12.2 -15)" style="fill:none"/><path d="M182.1,330.3c-.3-.1-.5-.2-.8-.3C181.6,330.1,181.8,330.2,182.1,330.3Z" transform="translate(-12.2 -15)" style="fill:none"/><path d="M183.4,330.7a6.89,6.89,0,0,1-.8-.3A6.89,6.89,0,0,0,183.4,330.7Z" transform="translate(-12.2 -15)" style="fill:none"/><path d="M184.9,331.1c-.4-.1-.8-.2-1.1-.3C184.2,330.9,184.6,331,184.9,331.1Z" transform="translate(-12.2 -15)" style="fill:none"/><path d="M180.9,329.9c-.3-.1-.5-.2-.8-.3C180.4,329.7,180.6,329.8,180.9,329.9Z" transform="translate(-12.2 -15)" style="fill:none"/><path d="M178.7,329c-.3-.2-.7-.3-1-.5A9.29,9.29,0,0,0,178.7,329Z" transform="translate(-12.2 -15)" style="fill:none"/><path d="M177.4,328.3l-.6-.3Z" transform="translate(-12.2 -15)" style="fill:none"/><path d="M186.5,331.5l-1.4-.3Z" transform="translate(-12.2 -15)" style="fill:none"/><path d="M71.2,306.7h0Z" transform="translate(-12.2 -15)" style="fill:none"/><path d="M179.8,329.4a10.37,10.37,0,0,0-1-.4A3,3,0,0,0,179.8,329.4Z" transform="translate(-12.2 -15)" style="fill:none"/><path d="M194.9,332.3Z" transform="translate(-12.2 -15)" style="fill:none"/><path d="M196.7,332.3h0Z" transform="translate(-12.2 -15)" style="fill:none"/><path d="M198.8,332.2c-.6,0-1.1.1-1.7.1A9.15,9.15,0,0,1,198.8,332.2Z" transform="translate(-12.2 -15)" style="fill:none"/><path d="M192.9,332.3a4.87,4.87,0,0,1-1.2-.1A4.87,4.87,0,0,1,192.9,332.3Z" transform="translate(-12.2 -15)" style="fill:none"/><path d="M189.5,332c-.3,0-.6-.1-1-.1A3.75,3.75,0,0,1,189.5,332Z" transform="translate(-12.2 -15)" style="fill:none"/><path d="M188,331.7c-.3-.1-.7-.1-1-.2A3,3,0,0,0,188,331.7Z" transform="translate(-12.2 -15)" style="fill:none"/><path d="M191.1,332.1c-.3,0-.7-.1-1-.1A3.08,3.08,0,0,0,191.1,332.1Z" transform="translate(-12.2 -15)" style="fill:none"/><path d="M213.3,307.4h-.8c-.3,0-.6.1-.9.1h-.2a.6.6,0,0,0-.4.1h-.2a.6.6,0,0,0-.4.1h-.2a.9.9,0,0,0-.5.1h-.2c-.3,0-.5.1-.8.1h0a2,2,0,0,0-.8.1h-7.1a7.57,7.57,0,0,1-1.5-.1H199c-.5,0-1-.1-1.5-.1h0a10,10,0,0,1-1.6-.2h-.3c-.5-.1-1-.1-1.5-.2h-.3a6.75,6.75,0,0,0-1.4-.2h-.3c-.5-.1-1-.2-1.6-.3-.1,0-.2-.1-.3-.1a1.42,1.42,0,0,1-.6-.2l-3.2,17.8-.3,1.5-1.3-.8a94.82,94.82,0,0,0-13.5-6.8l-1.3,4.5h0l.1.1.1.1.1.1.1.1.1.1.1.1.2.2.1.1a1.38,1.38,0,0,0,.4.3l.1.1c.1.1.2.2.3.2s.1.1.2.1.2.2.3.2l.2.2.3.3.2.2c.1.1.3.2.4.3s.1.1.2.1.4.3.7.5c.1,0,.1.1.2.1a2.09,2.09,0,0,1,.6.4c.1.1.2.1.3.2s.3.2.5.3.2.1.3.2a2.19,2.19,0,0,1,.5.3c.1.1.2.1.3.2l.6.3c.1.1.2.1.3.2.3.2.7.3,1,.5h.1a10.37,10.37,0,0,0,1,.4c.1.1.2.1.4.1a6.89,6.89,0,0,0,.8.3c.1.1.3.1.4.2a6.89,6.89,0,0,0,.8.3c.2.1.3.1.5.2s.5.2.8.3c.1,0,.3.1.4.1l1.1.3c.1,0,.1,0,.2.1.4.1.9.2,1.4.3.1,0,.3.1.4.1.3.1.7.1,1,.2a4.33,4.33,0,0,1,.5.1c.3,0,.6.1,1,.1a1.27,1.27,0,0,1,.6.1c.3,0,.7.1,1,.1h.6c.4,0,.8.1,1.2.1h4.1c.6,0,1.1-.1,1.7-.1h.3a8.75,8.75,0,0,0,1.6-.2h.3l1.8-.3a.6.6,0,0,0,.4-.1,12.86,12.86,0,0,0,1.9-.4s-3-.6-8.2-10.7a20.93,20.93,0,0,0,16.4-13.1Z" transform="translate(-12.2 -15)" style="fill:#a24a24"/><path d="M213.2,306.4a64.26,64.26,0,0,1-10.9.9,49.17,49.17,0,0,1-12.7-1.5l1.1-6.1.1-.7-.6-.4a77.4,77.4,0,0,0-13.7-6.5,108.24,108.24,0,0,0-36.7-6.4,120.39,120.39,0,0,0-48.7,10.7h-.2L86.6,299l-.6.4.1.7.8,4.7a31.82,31.82,0,0,1-9.3,1.2,70.73,70.73,0,0,1-14-1.6l-1.9-.4.7,1.8c4.5,11,13.2,13.5,16.2,14-.5,2.4-4.2,6.5-6.7,8.7l-1.5,1.3,1.9.4a46.78,46.78,0,0,0,10.4,1.2c15.2,0,24.3-8,24.6-8.3l.4-.4-.1-.6-.9-4a93.38,93.38,0,0,1,32.3-5.8,86.94,86.94,0,0,1,31,5.8l-1.3,4.6-.2.5.4.4c.4.4,9,9.6,25.9,9.6a55.12,55.12,0,0,0,10.5-1.1v-2h.1s-2.6-.9-6.9-9a21.81,21.81,0,0,0,15.7-13.5l.7-1.7Zm-121.7-9c17.9-7.9,34.2-10.6,48.3-10.6,30.4,0,49.8,12.8,49.8,12.8l-1.3,7-3.2,17.9a88.84,88.84,0,0,0-13.8-6.9c-.8-.3-1.6-.6-2.3-.9a4.88,4.88,0,0,1-.7-.3,7.49,7.49,0,0,0-1.6-.5l-.9-.3c-.5-.2-1-.3-1.5-.5l-.9-.3c-.5-.1-1-.3-1.5-.4a3.09,3.09,0,0,0-.8-.2c-.5-.1-1.1-.3-1.6-.4-.2-.1-.4-.1-.6-.2-.8-.2-1.5-.3-2.2-.5a.6.6,0,0,1-.4-.1,11.63,11.63,0,0,1-1.8-.4c-.3,0-.5-.1-.8-.1a7.72,7.72,0,0,0-1.5-.2c-.3,0-.6-.1-.8-.1-.5-.1-.9-.1-1.4-.2-.3,0-.6-.1-.8-.1-.5-.1-.9-.1-1.4-.2-.3,0-.5-.1-.8-.1a9.7,9.7,0,0,0-1.7-.1h-.5c-.7,0-1.4-.1-2.1-.1h-6.5a9.7,9.7,0,0,0-1.7.1h-.6a17.85,17.85,0,0,0-2.3.2h-.5c-.6.1-1.2.1-1.7.2-.3,0-.5.1-.8.1-.5.1-.9.1-1.4.2-.3,0-.6.1-.8.1-.4.1-.9.1-1.3.2s-.6.1-.8.1c-.4.1-.9.1-1.3.2s-.5.1-.8.1l-1.3.3c-.2,0-.5.1-.7.1a9.36,9.36,0,0,0-1.6.4.37.37,0,0,0-.3.1,13.32,13.32,0,0,0-1.9.5c-.2,0-.3.1-.5.1l-1.3.3a6.37,6.37,0,0,1-.7.2c-.4.1-.8.2-1.1.3s-.5.1-.7.2l-1.1.3a6.37,6.37,0,0,1-.7.2c-.4.1-.7.2-1,.3s-.4.1-.6.2a4.87,4.87,0,0,0-1.1.4c-.2.1-.3.1-.5.2s-.4.1-.6.2h0a6.89,6.89,0,0,0-1,.4,80.65,80.65,0,0,0-14.2,6.7L88,305.7l-1-5.6Zm15.3,25.1h0l-.1.1-.1.1-.1.1c-.1,0-.1.1-.2.1l-.1.1c-.1.1-.2.2-.3.2h0c-.1.1-.2.2-.3.2l-.1.1c-.1.1-.2.1-.3.2s-.1.1-.2.1-.2.2-.3.2-.1.1-.2.1-.3.2-.4.3l-.1.1c-.2.1-.4.3-.6.4l-.1.1-.6.3a.35.35,0,0,0-.2.1c-.2.1-.3.2-.5.3s-.2.1-.3.2l-.6.3c-.1,0-.2.1-.3.1s-.5.2-.7.3-.1.1-.2.1c-.3.1-.6.3-.9.4a.35.35,0,0,0-.2.1c-.2.1-.5.2-.7.3s-.2.1-.4.1-.5.2-.7.3-.3.1-.4.1a6.89,6.89,0,0,1-.8.3c-.1,0-.2.1-.4.1s-.7.2-1.1.3h-.1L93,329c-.1,0-.2.1-.4.1s-.6.1-.9.2-.3.1-.5.1-.6.1-.9.2-.3.1-.5.1a3.08,3.08,0,0,1-1,.1.6.6,0,0,0-.4.1c-.5.1-.9.1-1.4.2h-.1c-.5,0-.9.1-1.4.1H81.9a7.57,7.57,0,0,1-1.5-.1h-.3c-.4,0-.9-.1-1.3-.1h-.4c-.5-.1-1.1-.1-1.6-.2h-.2a7.72,7.72,0,0,0-1.5-.2c-.2,0-.3-.1-.5-.1a8.47,8.47,0,0,1-1.7-.4s7.5-6.7,7.1-10.3c0,0-11.2-.8-16.3-13.5H64c.1,0,.2,0,.2.1h0a.37.37,0,0,1,.3.1h.1a.76.76,0,0,1,.4.1h0c.1,0,.3.1.4.1h.1c.1,0,.3.1.4.1H66a4.33,4.33,0,0,1,.5.1h.1c.2,0,.3.1.5.1h.1c.2,0,.4.1.6.1h.1c.2,0,.4.1.6.1h.1c.2,0,.5.1.7.1h.1c.2,0,.4.1.6.1h.2c.3,0,.5.1.8.1h.2a1.7,1.7,0,0,1,.7.1h.2a2,2,0,0,1,.8.1h.2a1.7,1.7,0,0,1,.7.1h5.1a4.87,4.87,0,0,0,1.2-.1h.3a2.77,2.77,0,0,0,.9-.1h.4c.3,0,.6-.1.9-.1h.3c.4-.1.8-.1,1.2-.2h.2c.3-.1.6-.1,1-.2.1,0,.2-.1.4-.1s.6-.1.8-.2.2-.1.3-.1h.1l3.3,18.5.3,1.5,1.3-.8a84.38,84.38,0,0,1,13.9-6.6l1.1,4.2c.1-.1,0-.1,0,0Zm90.2-2c5.2,10.1,8.2,10.7,8.2,10.7-.7.1-1.3.3-1.9.4a.6.6,0,0,0-.4.1l-1.8.3h-.3c-.5.1-1.1.1-1.6.2h-.3c-.6,0-1.1.1-1.7.1h-4.1a4.87,4.87,0,0,1-1.2-.1h-.6c-.3,0-.7-.1-1-.1a1.27,1.27,0,0,1-.6-.1c-.3,0-.6-.1-1-.1a4.33,4.33,0,0,1-.5-.1c-.3-.1-.7-.1-1-.2-.1,0-.3-.1-.4-.1l-1.4-.3c-.1,0-.1,0-.2-.1-.4-.1-.8-.2-1.1-.3s-.3-.1-.4-.1a6.89,6.89,0,0,1-.8-.3c-.2-.1-.3-.1-.5-.2s-.5-.2-.8-.3c-.1-.1-.3-.1-.4-.2-.3-.1-.5-.2-.8-.3-.1,0-.3-.1-.4-.1a10.37,10.37,0,0,0-1-.4h-.1c-.3-.2-.7-.3-1-.5-.1-.1-.2-.1-.3-.2l-.6-.3c-.1-.1-.2-.1-.3-.2a2.19,2.19,0,0,1-.5-.3c-.1-.1-.2-.1-.3-.2a2.19,2.19,0,0,1-.5-.3c-.1-.1-.2-.1-.3-.2a2.09,2.09,0,0,1-.6-.4c-.1,0-.1-.1-.2-.1-.2-.2-.5-.3-.7-.5-.1,0-.1-.1-.2-.1s-.3-.2-.4-.3l-.2-.2-.3-.3-.2-.2c-.1-.1-.2-.2-.3-.2s-.1-.1-.2-.1-.2-.2-.3-.2l-.1-.1a1.38,1.38,0,0,0-.4-.3l-.1-.1c-.1-.1-.2-.1-.2-.2l-.1-.1a.1.1,0,0,1-.1-.1l-.1-.1-.1-.1-.1-.1-.1-.1h0l1.3-4.5a94.82,94.82,0,0,1,13.5,6.8l1.3.8.3-1.5,3.2-17.8h0c.2.1.4.1.6.2s.2.1.3.1c.5.1,1,.2,1.6.3h.3a7.84,7.84,0,0,0,1.4.2h.3c.5.1,1,.1,1.5.2h.3c.5.1,1,.1,1.6.2h0c.5,0,1,.1,1.5.1h.3a7.57,7.57,0,0,1,1.5.1H208a2,2,0,0,0,.8-.1h0c.3,0,.5-.1.8-.1h.2a.9.9,0,0,0,.5-.1h.2a.6.6,0,0,0,.4-.1h.2a.6.6,0,0,0,.4-.1h.2c.4,0,.7-.1.9-.1h.8A21.19,21.19,0,0,1,197,320.5Z" transform="translate(-12.2 -15)" style="fill:#e5a868"/><path d="M106,318.5a84.38,84.38,0,0,0-13.9,6.6l-1.3.8-.3-1.5-3.3-18.5h-.1c-.1,0-.2.1-.3.1-.3.1-.5.1-.8.2-.1,0-.2.1-.4.1s-.6.1-1,.2h-.2c-.4.1-.8.1-1.2.2h-.3c-.3,0-.6.1-.9.1h-.4a2.77,2.77,0,0,0-.9.1h-.3a4.87,4.87,0,0,0-1.2.1H74.1a1.7,1.7,0,0,1-.7-.1h-.2a2,2,0,0,1-.8-.1h-.2a1.7,1.7,0,0,1-.7-.1h-.2c-.3,0-.5-.1-.8-.1h-.2c-.2,0-.4-.1-.6-.1h-.1c-.2,0-.5-.1-.7-.1h-.1c-.2,0-.4-.1-.6-.1h-.1c-.2,0-.4-.1-.6-.1h-.1a4.33,4.33,0,0,1-.5-.1h-.1a4.33,4.33,0,0,1-.5-.1h-.1c-.2,0-.3-.1-.4-.1h-.1c-.2,0-.3-.1-.4-.1h0a.76.76,0,0,1-.4-.1h-.1a.37.37,0,0,1-.3-.1h0c-.1,0-.2,0-.2-.1H64C69.2,318.2,80.3,319,80.3,319c.4,3.6-7.1,10.3-7.1,10.3.6.1,1.2.3,1.7.4.2,0,.3.1.5.1a7.72,7.72,0,0,0,1.5.2h.2c.6.1,1.1.1,1.6.2h.4c.4,0,.9.1,1.3.1h.3c.5,0,1,.1,1.5.1h3.6c.5,0,.9-.1,1.4-.1h.1a5.9,5.9,0,0,0,1.4-.2.6.6,0,0,0,.4-.1c.3,0,.6-.1,1-.1.2,0,.3-.1.5-.1s.6-.1.9-.2.3-.1.5-.1.6-.1.9-.2c.1,0,.3-.1.4-.1l1.2-.3h.1l1.1-.3c.1,0,.2-.1.4-.1s.5-.2.8-.3c.1,0,.3-.1.4-.1s.5-.2.7-.3.2-.1.4-.1a4.88,4.88,0,0,0,.7-.3.35.35,0,0,0,.2-.1c.3-.1.6-.3.9-.4.1,0,.1-.1.2-.1s.5-.2.7-.3.2-.1.3-.1l.6-.3c.1-.1.2-.1.3-.2s.3-.2.5-.3a.35.35,0,0,0,.2-.1l.6-.3.1-.1c.2-.1.4-.3.6-.4a.1.1,0,0,0,.1-.1c.1-.1.3-.2.4-.3s.1-.1.2-.1.2-.2.3-.2.1-.1.2-.1.2-.1.3-.2l.1-.1c.1-.1.2-.2.3-.2h0c.1-.1.2-.2.3-.2a.1.1,0,0,0,.1-.1c.1,0,.1-.1.2-.1l.1-.1.1-.1h0a.1.1,0,0,0,.1-.1h0Z" transform="translate(-12.2 -15)" style="fill:#a24a24"/><path d="M88.2,305.6l3.3,18.6a80.65,80.65,0,0,1,14.2-6.7,6.89,6.89,0,0,0,1-.4c.2-.1.4-.1.6-.2s.3-.1.5-.2a4.87,4.87,0,0,0,1.1-.4c.2-.1.4-.1.6-.2s.7-.2,1-.3a6.37,6.37,0,0,1,.7-.2c.3-.1.7-.2,1.1-.3.2-.1.5-.1.7-.2l1.1-.3a6.37,6.37,0,0,1,.7-.2l1.3-.3c.2,0,.3-.1.5-.1.6-.2,1.3-.3,1.9-.5a.37.37,0,0,0,.3-.1,9.36,9.36,0,0,0,1.6-.4c.2,0,.5-.1.7-.1l1.3-.3c.3,0,.5-.1.8-.1s.9-.1,1.3-.2.6-.1.8-.1c.4-.1.9-.1,1.3-.2s.6-.1.8-.1c.5-.1.9-.1,1.4-.2.3,0,.5-.1.8-.1.6-.1,1.2-.1,1.7-.2h.5c.7-.1,1.5-.1,2.3-.2h.6c.6,0,1.1-.1,1.7-.1h6.5c.7,0,1.4.1,2.1.1h.5c.6,0,1.1.1,1.7.1a2.49,2.49,0,0,1,.8.1,6.75,6.75,0,0,1,1.4.2c.3,0,.6.1.8.1.5.1.9.1,1.4.2.3,0,.6.1.8.1a7.72,7.72,0,0,0,1.5.2c.3,0,.5.1.8.1a11.63,11.63,0,0,1,1.8.4.6.6,0,0,1,.4.1c.7.2,1.5.3,2.2.5a1.42,1.42,0,0,1,.6.2c.5.1,1.1.3,1.6.4a3.09,3.09,0,0,0,.8.2c.5.1,1,.3,1.5.4l.9.3a8.8,8.8,0,0,1,1.5.5l.9.3a7.49,7.49,0,0,0,1.6.5c.2.1.5.2.7.3.8.3,1.5.6,2.3.9a98.63,98.63,0,0,1,13.8,6.9l3.2-17.9,1.3-7s-19.4-12.8-49.8-12.8a119,119,0,0,0-48.3,10.6l-4.3,2.6Z" transform="translate(-12.2 -15)" style="fill:#a24a24"/><path d="M122.2,297.5a1.14,1.14,0,0,0-.6-.3,4.34,4.34,0,0,0-1.3.2l-1.2.3.5,2.4,1.2-.2a11.06,11.06,0,0,0,1.3-.4,1,1,0,0,0,.4-.5,1.1,1.1,0,0,0,0-.8A2.39,2.39,0,0,0,122.2,297.5Z" transform="translate(-12.2 -15)" style="fill:none"/><path d="M99.6,304.7a1.45,1.45,0,0,0-.7-.2,7.87,7.87,0,0,0-1.2.4l-.7.3,1.1,2.5.8-.4a2.14,2.14,0,0,0,1-.6.86.86,0,0,0,.3-.6,2.2,2.2,0,0,0-.1-.8A1,1,0,0,0,99.6,304.7Z" transform="translate(-12.2 -15)" style="fill:none"/><polygon points="134.1 285.2 136.3 285.5 135.6 281.8 134.1 285.2" style="fill:none"/><path d="M136.1,295.5a1.65,1.65,0,0,0-1.5.9,3.75,3.75,0,0,0-.5,2.5,4.37,4.37,0,0,0,.7,2.5,2.09,2.09,0,0,0,1.6.8,1.76,1.76,0,0,0,1.5-.9,3.75,3.75,0,0,0,.5-2.5,3.81,3.81,0,0,0-.7-2.4A1.62,1.62,0,0,0,136.1,295.5Z" transform="translate(-12.2 -15)" style="fill:none"/><path d="M100.5,303.1a2,2,0,0,0-1.4-.4,5.89,5.89,0,0,0-1.8.6l-2.3,1,3.9,8.8,1.4-.6-1.5-3.3,1-.4a4.41,4.41,0,0,0,1.7-1.1,2.54,2.54,0,0,0,.5-1.3,4.54,4.54,0,0,0-.4-1.8A3.66,3.66,0,0,0,100.5,303.1Zm-.2,3a.6.6,0,0,1-.3.6,2.89,2.89,0,0,1-1,.6l-.8.4-1.1-2.5.7-.3a3.14,3.14,0,0,1,1.2-.4,1.08,1.08,0,0,1,.7.2,1.28,1.28,0,0,1,.5.7A1.7,1.7,0,0,1,100.3,306.1Z" transform="translate(-12.2 -15)" style="fill:#fff"/><path d="M109.6,303.8l-1.7-4.7-1.5.5,1.8,5a8.45,8.45,0,0,1,.5,1.8,1.08,1.08,0,0,1-.2.8,1.58,1.58,0,0,1-.8.5,1.39,1.39,0,0,1-1.1,0,1.55,1.55,0,0,1-.8-.8q-.15-.3-.6-1.5l-1.8-4.9-1.5.5,1.8,4.8a11.28,11.28,0,0,0,1.3,2.7,2.48,2.48,0,0,0,1.4.8,5,5,0,0,0,2-.2,3.39,3.39,0,0,0,1.6-1.2,2.28,2.28,0,0,0,.4-1.6C110.3,305.9,110,305,109.6,303.8Z" transform="translate(-12.2 -15)" style="fill:#fff"/><polygon points="101.3 290.7 100.6 288.2 104.4 287.1 104 285.6 100.2 286.7 99.6 284.6 103.7 283.4 103.2 281.9 97.6 283.5 100.2 292.7 106 291.1 105.6 289.5 101.3 290.7" style="fill:#fff"/><path d="M123.6,301.4a8.79,8.79,0,0,0-1-.6,2.21,2.21,0,0,0,1.3-1.2,3,3,0,0,0,.2-1.9,2.1,2.1,0,0,0-.7-1.4,1.9,1.9,0,0,0-1.1-.7,3.84,3.84,0,0,0-1.8.1l-3.3.7,2,9.4,1.6-.3-.8-3.9.3-.1a2.81,2.81,0,0,1,.8-.1.55.55,0,0,1,.5.3c.2.2.6.6,1.1,1.2l1.6,1.8,1.9-.4-1.3-1.6A15.3,15.3,0,0,0,123.6,301.4Zm-1.1-2.4a1,1,0,0,1-.4.5,11.06,11.06,0,0,1-1.3.4l-1.2.2-.5-2.4,1.2-.3c.7-.1,1.1-.2,1.3-.2a.86.86,0,0,1,.6.3.91.91,0,0,1,.3.7A1.1,1.1,0,0,1,122.5,299Z" transform="translate(-12.2 -15)" style="fill:#fff"/><polygon points="118.9 279.2 112.7 279.9 112.9 281.6 115.2 281.3 116.2 289.2 117.8 289 116.8 281.1 119.1 280.8 118.9 279.2" style="fill:#fff"/><path d="M138.9,295a3.63,3.63,0,0,0-2.8-1.2,3.38,3.38,0,0,0-2,.6,3.86,3.86,0,0,0-1.3,1.7,7.54,7.54,0,0,0-.4,2.8,5.88,5.88,0,0,0,1.3,3.7,3.34,3.34,0,0,0,2.7,1.1,3.17,3.17,0,0,0,2.6-1.3,5.54,5.54,0,0,0,1-3.8A5.72,5.72,0,0,0,138.9,295Zm-1,6.2a1.76,1.76,0,0,1-1.5.9,1.93,1.93,0,0,1-1.6-.8,4.14,4.14,0,0,1-.7-2.5,4.25,4.25,0,0,1,.5-2.5,2,2,0,0,1,1.5-.9,2,2,0,0,1,1.6.7,4.56,4.56,0,0,1,.7,2.4A3.93,3.93,0,0,1,137.9,301.2Z" transform="translate(-12.2 -15)" style="fill:#fff"/><path d="M147.3,294.5l-4.2,9.2,1.7.2.9-2.1,3.1.4.4,2.2,1.7.2-2-9.9Zm-1,5.7,1.5-3.4.6,3.7Z" transform="translate(-12.2 -15)" style="fill:#fff"/><polygon points="145.8 281.2 143.2 284.6 142.2 280.5 140.4 280.1 142 286.1 141.2 290.1 142.7 290.4 143.6 286.5 147.6 281.6 145.8 281.2" style="fill:#fff"/><path d="M164.9,303.7a3.08,3.08,0,0,0-.5-1.2,6,6,0,0,0-1.4-1.2,3.3,3.3,0,0,1-1.2-1,.88.88,0,0,1-.1-.7.82.82,0,0,1,.5-.5,1.7,1.7,0,0,1,1,0,1.46,1.46,0,0,1,.9.6,1.57,1.57,0,0,1,.1,1.2l1.5.4a3,3,0,0,0-.2-2.3,3.53,3.53,0,0,0-1.9-1.4,3,3,0,0,0-1.6-.1,2.28,2.28,0,0,0-1.2.6,3.6,3.6,0,0,0-.8,1.2,2.88,2.88,0,0,0-.1,1.3,3.58,3.58,0,0,0,.4,1.1,4.41,4.41,0,0,0,1.2,1.1,3.46,3.46,0,0,1,1.2.9.55.55,0,0,1,.3.5v.6a1.12,1.12,0,0,1-.7.8,1.26,1.26,0,0,1-1.2,0c-.9-.3-1.3-1-1.1-2.3l-1.5-.3c-.4,2.2.3,3.5,2.1,4.1a3,3,0,0,0,2.5-.1,3.19,3.19,0,0,0,1.4-1.8A2.28,2.28,0,0,0,164.9,303.7Z" transform="translate(-12.2 -15)" style="fill:#fff"/><polygon points="155.7 289.8 159.4 291.3 160 289.8 156.3 288.3 157.1 286.3 161 287.9 161.7 286.4 156.2 284.2 152.6 293.1 158.2 295.4 158.8 293.9 154.7 292.2 155.7 289.8" style="fill:#fff"/><polygon points="161.4 283.5 159.8 282.9 158.4 284.4 159.3 284.8 161.4 283.5" style="fill:#fff"/><polygon points="167.6 289.1 164.9 294.9 164.7 287.7 163.3 287.1 159.2 295.8 160.6 296.4 163.2 290.7 163.5 297.7 164.9 298.4 169 289.7 167.6 289.1" style="fill:#fff"/><path d="M218.5,125.2a6.59,6.59,0,0,0-5.3,1.5,6.72,6.72,0,0,0-1.9,4.7,2.13,2.13,0,0,0,2.2,2.1,2.07,2.07,0,0,0,2.1-2.2,2.25,2.25,0,0,1,.5-1.4,3,3,0,0,1,1.9-.4c2.2.2,3.2,1.1,3.1,5.4,0,1-2.1,2.3-3.6,2.8-.4.1-4.8,1.1-8.5-5.7q-1-1.8-1.8-3.3c-4.1-7.8-5.7-10.1-15.2-11.1.6-4.5,1-14.3-4.7-20.9-4-4.5-10-6.6-17.9-6.1-3-3.6-14.5-15.7-31.1-15.4-16.7-.3-28.1,11.8-31.1,15.4-7.9-.4-13.9,1.6-17.9,6.1-5.7,6.6-5.3,16.4-4.7,20.9-9.5,1-11.1,3.3-15.2,11.1q-.75,1.5-1.8,3.3c-3.7,6.8-8.1,5.8-8.5,5.7-1.5-.6-3.5-1.9-3.6-2.8-.2-4.3.9-5.2,3.1-5.4a2.56,2.56,0,0,1,1.9.4c.5.5.5,1.4.6,1.4a2.15,2.15,0,0,0,4.3.1,6.72,6.72,0,0,0-1.9-4.7,6.59,6.59,0,0,0-5.3-1.5c-4.9.5-7.3,3.8-7,9.9.2,4.4,5.9,6.6,6.6,6.8a10.54,10.54,0,0,0,2.5.3c2.8,0,7.5-1.2,11.3-8.1.7-1.2,1.3-2.4,1.8-3.4,4.1-7.7,4.4-8.3,14-9a2.2,2.2,0,0,0,1.6-.9,2.32,2.32,0,0,0,.4-1.8c0-.1-2.7-12.6,3.4-19.5,3.2-3.6,8.4-5.2,15.4-4.6a2,2,0,0,0,1.9-.9c.1-.1,11.2-14.6,27.8-14.6h.7c16.9-.3,28.3,14.4,28.4,14.6a2.46,2.46,0,0,0,1.9.9c7-.6,12.2.9,15.4,4.6,6.1,6.9,3.4,19.4,3.4,19.5a2.32,2.32,0,0,0,.4,1.8,2.6,2.6,0,0,0,1.6.9c9.6.7,10,1.4,14,9,.5,1,1.1,2.1,1.8,3.4,5.6,10.3,13.4,7.8,13.8,7.7.6-.2,6.3-2.4,6.5-6.8C225.8,129,223.4,125.7,218.5,125.2Z" transform="translate(-12.2 -15)" style="fill:#b05226"/></svg>