<svg xmlns="http://www.w3.org/2000/svg" viewBox="0 0 853.23 736.17"><defs><style>.cls-1{fill:#1ea88b;}</style></defs><title>Logo_Meganoticias_Color_1</title><g id="Capa_2" data-name="Capa 2"><g id="Capa_1-2" data-name="Capa 1"><path class="cls-1" d="M0,612.37a3.64,3.64,0,0,1,1-2.54,3.92,3.92,0,0,1,2.86-1H31.42a9.68,9.68,0,0,1,2.54.64,4.24,4.24,0,0,1,2.23,1.9c7,11.43,14.28,22.54,21.58,33.65,7,10.79,14.6,22.22,21.9,33.64V612.06a5.21,5.21,0,0,1,1.27-2.23,2.9,2.9,0,0,1,2.22-1H107a3.92,3.92,0,0,1,2.86,1,4.06,4.06,0,0,1,1.27,2.86V729.18a3.6,3.6,0,0,1-.95,2.54,3.88,3.88,0,0,1-2.86,1h-27A4.51,4.51,0,0,1,78.4,732l-1.9-1.9C69.2,718.07,61.58,705.69,54.28,694c-7.3-12.06-14.92-23.81-22.22-36.19v71.42a3.9,3.9,0,0,1-1,2.86,3.87,3.87,0,0,1-2.86,1H4.13a3.86,3.86,0,0,1-2.86-1,3.58,3.58,0,0,1-.95-2.54L0,612.37Z"/><path class="cls-1" d="M133,670.78a60.31,60.31,0,0,1,2.22-17.14,65,65,0,0,1,16.83-28.57,61.41,61.41,0,0,1,13.33-10.16A62.32,62.32,0,0,1,198.07,606a60.31,60.31,0,0,1,17.14,2.23,67.73,67.73,0,0,1,15.56,6.66,82.53,82.53,0,0,1,13.33,10.16,68.36,68.36,0,0,1,10.16,13,62.59,62.59,0,0,1,6.66,15.56,61.79,61.79,0,0,1,2.22,17.14,60.35,60.35,0,0,1-2.22,17.14,65,65,0,0,1-16.82,28.57,61.54,61.54,0,0,1-13.33,10.15,62.14,62.14,0,0,1-32.7,8.89,60.35,60.35,0,0,1-17.14-2.22,67.5,67.5,0,0,1-15.55-6.67,81.47,81.47,0,0,1-13.33-10.15,68,68,0,0,1-10.16-13,62.17,62.17,0,0,1-6.67-15.55A74.5,74.5,0,0,1,133,670.78Zm28.57.32a42.15,42.15,0,0,0,2.54,14.28,31.36,31.36,0,0,0,7.62,11.43,36.51,36.51,0,0,0,59.67-11.43,35.59,35.59,0,0,0,2.54-14.28,42.2,42.2,0,0,0-2.54-14.29,35.63,35.63,0,0,0-7.62-11.74,35,35,0,0,0-26-10.8,36.43,36.43,0,0,0-14.6,2.86,32.27,32.27,0,0,0-11.42,7.94,34,34,0,0,0-7.62,11.74A42.2,42.2,0,0,0,161.57,671.1Z"/><path class="cls-1" d="M272.67,609.83a5.06,5.06,0,0,1,.95-2.85,4.38,4.38,0,0,1,2.85-1h90.47a3.6,3.6,0,0,1,2.54,1,4,4,0,0,1,1.27,2.85V633a5.13,5.13,0,0,1-.95,2.85,3.82,3.82,0,0,1-2.86,1.59H339v94.27a5.08,5.08,0,0,1-1,2.86,3.44,3.44,0,0,1-2.85,1.27h-27a3.6,3.6,0,0,1-2.54-1,3.47,3.47,0,0,1-1.27-2.86V637.45H276.79a4.43,4.43,0,0,1-2.85-1,4.74,4.74,0,0,1-1-3.18l-.31-23.49Z"/><path class="cls-1" d="M393.29,609.83a5.06,5.06,0,0,1,.95-2.85,3.86,3.86,0,0,1,2.86-1h24.12a4.2,4.2,0,0,1,2.54,1,3.08,3.08,0,0,1,1.27,2.85V732q0,3.81-3.81,3.81H397.1c-2.54,0-3.5-1.27-3.5-3.81l-.31-122.21Z"/><path class="cls-1" d="M550.41,616.5a7.35,7.35,0,0,1,2.22,2.22c.64.95.32,1.91-.31,3.18l-14.61,20.63c-.63,1-1.27,1.58-1.9,1.58-.64.32-1.59-.31-2.54-.63a28.32,28.32,0,0,0-9.21-4.76,40.56,40.56,0,0,0-10.79-1.91,35.3,35.3,0,0,0-13,2.54,33.37,33.37,0,0,0-10.16,7.3,34.29,34.29,0,0,0-6.67,10.8,36.89,36.89,0,0,0-2.22,13.33,33.9,33.9,0,0,0,8.89,23.81,27.87,27.87,0,0,0,10.16,7c3.81,1.9,8.25,2.54,13,2.54a30.88,30.88,0,0,0,10.79-1.91,28.5,28.5,0,0,0,9.21-5.08,2.8,2.8,0,0,1,2.54-.63c.63.32,1.59.63,1.9,1.59L552.32,719a3.84,3.84,0,0,1,.31,3.17,7.35,7.35,0,0,1-2.22,2.22A68.13,68.13,0,0,1,533,732.68a67.34,67.34,0,0,1-19.68,3.17,64.18,64.18,0,0,1-17.46-2.22A62.17,62.17,0,0,1,480.26,727a81.54,81.54,0,0,1-13.33-10.16,61.41,61.41,0,0,1-10.16-13.33,62.07,62.07,0,0,1-8.89-32.69,60.67,60.67,0,0,1,2.22-17.14,67.76,67.76,0,0,1,6.67-15.56,82.53,82.53,0,0,1,10.16-13.33,70.57,70.57,0,0,1,13.33-10.16,68.09,68.09,0,0,1,15.55-6.66,64.18,64.18,0,0,1,17.46-2.22,63.54,63.54,0,0,1,19.36,2.85A56.52,56.52,0,0,1,550.41,616.5Z"/><path class="cls-1" d="M574.22,609.83a5.06,5.06,0,0,1,.95-2.85,3.86,3.86,0,0,1,2.86-1h24.12a4.2,4.2,0,0,1,2.54,1,3.08,3.08,0,0,1,1.27,2.85V732q0,3.81-3.81,3.81H578c-2.54,0-3.5-1.27-3.5-3.81l-.31-122.21Z"/><path class="cls-1" d="M671.35,609.52c0-.32.32-.64.63-1l1-.95c.63-.32.95-.63,1.58-1a2.85,2.85,0,0,1,1.59-.32H698a3.62,3.62,0,0,1,2.54.95c.64.64,1.27,1,1.59,1.59l2.22,5.08,45.07,118.4a2.37,2.37,0,0,1-.31,2.86,4.79,4.79,0,0,1-3.18.95H721.18a9.29,9.29,0,0,1-3.17-.64,5,5,0,0,1-1.59-2.54c-.95-2.85-2.22-7.3-3.17-10.47-1-2.86-2.22-5.72-3.18-8.89h-45.7c-1,2.86-2.23,5.71-3.18,8.89-1,2.86-2.22,7.3-3.17,10.47a4.16,4.16,0,0,1-4.45,3.18H628.18a3.62,3.62,0,0,1-2.54-.95,1.92,1.92,0,0,1-.32-2.54ZM686.9,647c-.95,2.86-2.22,6.35-3.17,9.84s-2.22,7.3-3.18,10.79-2.22,7.3-3.17,10.8-2.22,6.66-3.17,9.84h26.34Z"/><path class="cls-1" d="M776.73,693c.95.63,2.22,1.9,3.81,3.17s3.18,2.86,5.08,4.13a36.93,36.93,0,0,0,8.57,4.44,29.24,29.24,0,0,0,8.89,1.59,24.13,24.13,0,0,0,7.3-1,12,12,0,0,0,4.76-2.86,11.33,11.33,0,0,0,2.54-3.81c1-1,1-2.54,1-4.12a6.47,6.47,0,0,0-1.9-4.77,15.54,15.54,0,0,0-5.08-3.81c-1.91-1-3.81-1.9-6-2.85-2.22-.64-3.81-1.59-5.72-1.91a97,97,0,0,1-18.09-7.93,60,60,0,0,1-13-9.52,33,33,0,0,1-7.62-11.43,37.28,37.28,0,0,1-2.54-13.65,31.78,31.78,0,0,1,3.17-14.6A28.41,28.41,0,0,1,771,613a60.23,60.23,0,0,1,14.28-7.3A68.46,68.46,0,0,1,804,603.17a58.23,58.23,0,0,1,14.92,1.9,67.09,67.09,0,0,1,14.28,5.72,54.82,54.82,0,0,1,5.72,3.49c1.9,1.27,3.17,2.22,4.76,3.49a29.61,29.61,0,0,1,3.17,3.17,5.13,5.13,0,0,1,1,2.86,2.65,2.65,0,0,1-.64,1.9,21.7,21.7,0,0,0-1.59,2.23l-13,14a4.37,4.37,0,0,1-2.86,1.59,6.06,6.06,0,0,1-2.22-.63c-.63-.64-1.59-1-2.22-1.91l-.64-.63a47.22,47.22,0,0,0-3.81-3.18c-1.58-1-2.85-1.9-4.44-2.86a14.09,14.09,0,0,0-5.08-1.9,16.21,16.21,0,0,0-5.39-1,31.93,31.93,0,0,0-5.4.63,14.61,14.61,0,0,0-4.44,1.59,9,9,0,0,0-3.18,2.86,8,8,0,0,0-.95,4.12,5.87,5.87,0,0,0,1.27,4.13,8.51,8.51,0,0,0,3.49,3.17,35.43,35.43,0,0,0,6,2.86,81.25,81.25,0,0,0,8.25,2.86A166.48,166.48,0,0,1,827.84,660a54.94,54.94,0,0,1,13.33,7.93,36,36,0,0,1,8.89,10.79c2.22,4.13,3.17,9.53,3.17,15.24a37.79,37.79,0,0,1-3.81,17.14A39.14,39.14,0,0,1,839,724.42,50.81,50.81,0,0,1,823.08,733a65.38,65.38,0,0,1-19.68,3.18A58,58,0,0,1,784,732.68a73.76,73.76,0,0,1-17.77-9.53,30,30,0,0,1-5.72-4.76,43.44,43.44,0,0,1-3.8-4.12l-.32-.32a.31.31,0,0,0-.32-.32.31.31,0,0,1-.32-.32.3.3,0,0,0-.31-.31.31.31,0,0,1-.32-.32c-1.27-1.59-1.91-2.54-1.91-3.49a4.33,4.33,0,0,1,1.91-3.18l14.92-14.28a5.18,5.18,0,0,1,2.85-1.27c.64,0,1,.32,1.59.63A13.68,13.68,0,0,1,776.73,693Z"/><path class="cls-1" d="M681.13,445.92C646,460.46,604.79,444.71,589,409.57L473.93,164.8c-14.55-35.14,1.21-76.34,36.35-90.88s76.34,1.21,92.09,36.35l115.12,246c14.54,33.93-1.22,75.13-36.36,89.67m-230.23,0c-35.14,14.54-76.34-1.21-92.09-36.35L243.69,164.8a70.56,70.56,0,0,1-1.21-52.11c6.06-17,19.39-30.29,36.35-38.77,8.49-3.64,17-6.06,25.45-6.06h7.27c8.48,0,17,2.42,25.45,6.06,18.17,8.48,31.5,21.81,36.35,38.77L487.25,355c14.55,35.14-1.21,76.34-36.35,90.88M257,409.57c-14.54,35.14-55.74,50.89-92.09,36.35S114,390.18,128.58,355l63-135.71,76.34,163.58Zm523.48-82.4L665.38,82.4c-31.5-69.07-112.69-101.79-183-70.28C457,23,437.57,40,423,60.59h0C397.59,23,356.39,2.42,312.76,0h-10.9C251,2.42,201.28,32.72,179.47,82.4L65.57,326C34.06,395,66.78,477.43,137.06,507.72c61.8,26.66,134.5,4.85,170.86-48.47,36.35,53.32,107.84,76.34,170.85,48.47,25.45-10.9,44.84-27.87,59.38-49.68C574.5,511.36,647.2,534.38,709,507.72c71.5-29.08,103-110.27,71.5-180.55"/></g></g></svg>