<svg xmlns="http://www.w3.org/2000/svg" viewBox="0 0 91.71 25.01"><defs><style>.cls-1{fill:#ff276a;}</style></defs><title>Logo_ZAPPING_TV_MUSIC</title><g id="Capa_2" data-name="Capa 2"><g id="Capa_1-2" data-name="Capa 1"><path class="cls-1" d="M36.4,8.34v9c0,1.65.87,2.29,2.35,2.29a3.2,3.2,0,0,0,2.56-1.28v-10h6V24.61h-6V22.79A7.32,7.32,0,0,1,35.73,25C32,25,30.35,22.75,30.35,20V8.34ZM57.29,8a12.77,12.77,0,0,1,7,2.08L62.1,14a8,8,0,0,0-4.77-1.68c-.88,0-1.52.27-1.52.71,0,1.34,9.22-.34,9.22,6.4,0,3.22-2.89,5.57-7.7,5.57a13.57,13.57,0,0,1-8-2.48l2.42-4.06a11.52,11.52,0,0,0,5.85,2.05c1.25,0,1.62-.31,1.62-.71,0-1.54-9.22.44-9.22-6.34C50,10.55,52.59,8,57.29,8ZM84.82,8c3.7,0,6,1.68,6.89,3.06l-3.9,3.65a3.18,3.18,0,0,0-2.72-1.37,3,3,0,0,0-3.2,3.15,3,3,0,0,0,3.2,3.19,3.28,3.28,0,0,0,2.72-1.41L91.71,22C90.8,23.3,88.52,25,84.82,25c-5.15,0-9.12-3.35-9.12-8.52S79.67,8,84.82,8ZM22,8C25,8,27,9.52,27,12.89V24.68h-6.1v-9.5a1.68,1.68,0,0,0-1.86-1.82,3.19,3.19,0,0,0-2.51,1.28v10h-6.1v-9.5a1.66,1.66,0,0,0-1.87-1.82A3.17,3.17,0,0,0,6.1,14.64v10H0V8.41H6.1v1.85A7.34,7.34,0,0,1,11.52,8c2.31,0,4,.85,4.71,2.87A7.07,7.07,0,0,1,22,8Zm51.41.34V24.68h-6V8.34Zm-3-8A3.34,3.34,0,1,1,67,3.67,3.32,3.32,0,0,1,70.37.33ZM7.9,0a3.44,3.44,0,0,1,1,.13,1.92,1.92,0,0,1,.76.41,1.82,1.82,0,0,1,.48.69,2.87,2.87,0,0,1,.17,1V5.32a9.63,9.63,0,0,1-1,.23,5.81,5.81,0,0,1-1.2.12,4.64,4.64,0,0,1-1-.1,2.29,2.29,0,0,1-.78-.32,1.62,1.62,0,0,1-.52-.58,2,2,0,0,1-.18-.89h0a1.49,1.49,0,0,1,.22-.85,1.84,1.84,0,0,1,.57-.54,2.52,2.52,0,0,1,.77-.27A4,4,0,0,1,8,2h.64a.55.55,0,0,0-.1-.32.75.75,0,0,0-.24-.19A1.15,1.15,0,0,0,8,1.44a2.22,2.22,0,0,0-.37,0,3.57,3.57,0,0,0-.6.06,3.7,3.7,0,0,0-.69.18c-.07-.12-.12-.23-.17-.33a1.32,1.32,0,0,1-.1-.3A1.06,1.06,0,0,1,6,.71C6,.6,6,.48,6,.34A6.21,6.21,0,0,1,7,.09,5.27,5.27,0,0,1,7.9,0Zm6.29,0a5.15,5.15,0,0,1,1,.09A2.36,2.36,0,0,1,16,.42a1.91,1.91,0,0,1,.61.65,2.29,2.29,0,0,1,.23,1.09,2.19,2.19,0,0,1-.21,1,1.82,1.82,0,0,1-.55.67,2.14,2.14,0,0,1-.78.36,3.34,3.34,0,0,1-.89.11h-.31a.54.54,0,0,1-.17,0v1.3a3.32,3.32,0,0,1-.5.07l-.39,0-.39,0a3.59,3.59,0,0,1-.49-.07V.15c.33,0,.67-.09,1-.11S13.87,0,14.19,0Zm5.62,0a5.23,5.23,0,0,1,1,.09,2.43,2.43,0,0,1,.85.33,1.79,1.79,0,0,1,.6.65,2.17,2.17,0,0,1,.24,1.09,2.19,2.19,0,0,1-.21,1,1.85,1.85,0,0,1-.56.67,2.14,2.14,0,0,1-.78.36,3.29,3.29,0,0,1-.89.11h-.31l-.16,0v1.3a3.51,3.51,0,0,1-.5.07l-.39,0-.39,0a3.2,3.2,0,0,1-.49-.07V.15c.33,0,.66-.09,1-.11S19.49,0,19.81,0Zm5,0,.45,0a3.43,3.43,0,0,1,.48.08V5.58h0l-.52.07-.42,0-.42,0-.51-.07V.1A4.37,4.37,0,0,1,24.35,0Zm4.48,0a5.47,5.47,0,0,1,.9.08A1.93,1.93,0,0,1,31,.41a1.87,1.87,0,0,1,.6.74,3,3,0,0,1,.23,1.26V5.58a3.27,3.27,0,0,1-.48.07l-.38,0-.39,0a3.27,3.27,0,0,1-.48-.07v-3a1.34,1.34,0,0,0-.2-.81.79.79,0,0,0-.63-.24l-.24,0-.16,0v4a2.93,2.93,0,0,1-.48.07l-.37,0-.39,0a3.09,3.09,0,0,1-.48-.07V.37A7.3,7.3,0,0,1,28,.12,5.32,5.32,0,0,1,29.11,0ZM36,0a4.38,4.38,0,0,1,.77.08,5.15,5.15,0,0,1,.92.3,3.31,3.31,0,0,1,0,.33c0,.1,0,.21-.07.32a2.91,2.91,0,0,1-.12.35c0,.12-.09.26-.15.41a4.22,4.22,0,0,0-.63-.21,2,2,0,0,0-.5-.07,1.52,1.52,0,0,0-.56.1,1,1,0,0,0-.37.29,1,1,0,0,0-.2.41,2,2,0,0,0-.07.49,1.54,1.54,0,0,0,.29,1,1.09,1.09,0,0,0,.85.33h.18V2.62c.17,0,.32-.06.45-.07a2.36,2.36,0,0,1,.37,0,4.54,4.54,0,0,1,.83.09V5.28a6.25,6.25,0,0,1-.81.25,4.79,4.79,0,0,1-1.21.14h0a3,3,0,0,1-1.22-.22,2.16,2.16,0,0,1-.83-.61,2.35,2.35,0,0,1-.46-.92,4,4,0,0,1-.15-1.12,3.22,3.22,0,0,1,.18-1.08,2.45,2.45,0,0,1,.52-.9,2.36,2.36,0,0,1,.85-.59A2.89,2.89,0,0,1,36,0ZM4.58,0l.1.32L2.52,3.82h2a5.3,5.3,0,0,1,.07.7c0,.1,0,.21,0,.31s0,.23,0,.37H.16L0,4.9,2.15,1.38H.39c0-.15,0-.28-.07-.39s0-.22,0-.32,0-.2,0-.3A3.35,3.35,0,0,1,.39,0ZM8.66,3.15H8.05a1.12,1.12,0,0,0-.62.16.48.48,0,0,0-.25.44.54.54,0,0,0,.09.33.61.61,0,0,0,.24.18.8.8,0,0,0,.31.09l.3,0h0l.27,0,.27,0Zm5.58-1.79H14V3h0l.14,0h.13a1,1,0,0,0,.62-.18.74.74,0,0,0,.25-.63.71.71,0,0,0-.25-.59A.87.87,0,0,0,14.24,1.36Zm5.61,0h-.29V3h0l.14,0h.13a1,1,0,0,0,.62-.18.77.77,0,0,0,.24-.63.73.73,0,0,0-.24-.59A.88.88,0,0,0,19.85,1.36Z"/></g></g></svg>