<svg xmlns="http://www.w3.org/2000/svg" xmlns:xlink="http://www.w3.org/1999/xlink" viewBox="0 0 3154.13 1039"><defs><style>.cls-1{fill:none;}.cls-2{clip-path:url(#clip-path);}.cls-3{clip-path:url(#clip-path-2);}.cls-4{clip-path:url(#clip-path-3);}.cls-5{fill:#282828;}.cls-6{fill:#ed2953;}.cls-6,.cls-7{fill-rule:evenodd;}.cls-7{fill:#dae120;stroke:#dae120;stroke-linecap:round;stroke-linejoin:round;stroke-width:58.44px;}</style><clipPath id="clip-path"><rect class="cls-1" x="0.13" width="3154" height="1039"/></clipPath><clipPath id="clip-path-2"><path class="cls-1" d="M.13,45h2180V198.09l-8.48,11.34a553.12,553.12,0,0,0,0,617.82l8.48,11.34V994H.13Z"/></clipPath><clipPath id="clip-path-3"><rect class="cls-1" x="0.13" y="45" width="2181" height="950"/></clipPath></defs><title>Logo_TVN3</title><g id="Capa_2" data-name="Capa 2"><g id="Capa_1-2" data-name="Capa 1"><g class="cls-2"><g class="cls-3"><g class="cls-4"><g class="cls-4"><path class="cls-5" d="M507,257.44V886.11c0,60.75-36.71,103.13-90.36,103.13s-96-41-96-100.31V256H288.16c-66.36,0-132.72,1.42-197.67,0A94.09,94.09,0,0,1,87.67,68.13H773.86c72,0,94.6,17,118.6,86.17,50.83,144.1,101.66,286.79,153.9,430.89,2.83,8.48,7.06,17,12.71,32.5,12.71-33.91,22.59-62.16,32.47-90.42l139.78-389.92c18.36-49.44,59.3-76.29,104.49-67.81,62.12,11.3,91.77,69.22,69.18,134.21C1340,386,1273.68,571.07,1207.32,756.14c-18.35,53.68-38.12,106-56.48,159.64-16.94,48-50.82,74.87-94.59,73.46s-73.42-25.43-90.37-73.46C891.05,705.28,814.81,493.36,740,282.86c-7.06-21.19-17-28.25-38.13-26.84-55.06,1.42-110.13,0-163.78,0-9.88,0-19.76,1.42-31.06,1.42"/><path class="cls-5" d="M1625.25,985h-185V72.36H1619.6v83.36a163.85,163.85,0,0,0,21.18-18.37c120-114.43,297.91-101.72,403.81-48,81.89,42.38,115.78,120.08,129.89,209.08a701.44,701.44,0,0,1,5.65,108.79V985H1993.76V404.36c0-16.95-1.41-32.49-2.82-49.45-15.54-98.89-79.07-144.1-175.08-127.14-121.43,22.6-187.79,108.78-187.79,243V952.51a127.54,127.54,0,0,0-2.82,32.49"/><path class="cls-5" d="M1529.24,905.61h98.83v79.53h-98.83Z"/></g></g></g><path class="cls-6" d="M2634.63,0c286.91,0,519.5,232.59,519.5,519.5S2921.54,1039,2634.63,1039s-519.5-232.59-519.5-519.5S2347.72,0,2634.63,0ZM2431.11,209.5V348.82h251.35L2568.61,471.76V585.58h75.58q51.92,0,74.67,16.85t22.77,45.07q0,31.88-27.32,49.18T2640.55,714q-44.62,0-91.52-13.66a307.46,307.46,0,0,1-85.14-39.16l-65.56,135.68q49.17,30.06,115.19,46.45A548.33,548.33,0,0,0,2646,859.68q96.52,0,157.54-30.51t90.61-78.77q29.6-48.25,29.59-102.9,0-83.78-61.46-137-38.43-33.3-99.43-45.78l-2.37-.39,131.39-141.88V209.5Z"/><path class="cls-7" d="M2242.13,430l137,89-137,89Z"/></g></g></g></svg>