<svg xmlns="http://www.w3.org/2000/svg" viewBox="0 0 468.97 91.02"><defs><style>.cls-1{fill:#fad200;}.cls-2{fill:#2159c7;}.cls-3{fill:#fff;}</style></defs><title>Logo_TVSenado_Señal_2</title><g id="Capa_2" data-name="Capa 2"><g id="Capa_1-2" data-name="Capa 1"><g id="Capa_1-2-2" data-name="Capa 1-2"><rect class="cls-1" width="315.03" height="59.02"/><rect class="cls-2" x="48.38" y="32" width="313.98" height="59.02"/><path class="cls-3" d="M65.22,72.93c1.16,4.85,4.81,7,10.68,7s8.36-2.2,8.36-5.73c0-3.93-2.44-5.63-11.12-7.56-13.8-3.08-17.21-7.86-17.21-14.37,0-8.41,6.61-14.13,18.62-14.13,13.47,0,18.83,6.89,19.56,14h-11c-.53-3-2.26-6.19-8.8-6.19-4.45,0-7.14,1.74-7.14,5.17s2.16,4.72,10.35,6.53c14.76,3.31,18,8.53,18,15.33,0,8.82-7,14.86-20.41,14.86-12.88,0-19.66-6-20.88-14.83Z"/><path class="cls-3" d="M138.47,66.26H114.21V78.52H141l-1.3,8.56H103.6V38.81h36v8.56H114.21V57.71h24.26Z"/><path class="cls-3" d="M148.82,87.08V38.81h13.59c6.34,10.84,18.05,30.39,20.38,35.64h.14c-.57-5-.56-13.41-.56-21.33V38.81h9.94V87.08h-12.9C174,77.65,161,55.19,158.47,49.62h-.13c.36,4.22.49,14.13.49,22.78V87.08Z"/><path class="cls-3" d="M213.88,75.93l-4,11.15H199.14l17.23-48.27h13.77l18,48.27H236.58l-4.17-11.15Zm16.17-8.55c-3.6-10.19-5.89-16.7-7.12-21h-.07c-1.25,4.76-3.79,12.33-6.67,21Z"/><path class="cls-3" d="M254.63,38.81h20.12c14.77,0,24.43,9.26,24.43,23.53,0,14.08-9.37,24.74-24.9,24.74H254.63Zm11,39.84h8.22c9.73,0,14-6.88,14-16.28,0-7.89-4-15.13-14-15.13H265.6Z"/><path class="cls-3" d="M355.49,62.78c0,13.43-8.48,25-25,25-15.92,0-24.25-11-24.25-24.83,0-14.05,9.2-24.84,25-24.84C346.08,38.11,355.49,48,355.49,62.78Zm-37.88,0c0,9.42,4.35,16.55,13.34,16.55,9.75,0,13.21-7.78,13.21-16.38,0-9.13-3.93-16.3-13.39-16.3-9.16,0-13.16,6.69-13.16,16.09Z"/><path d="M13.77,9.06H6.62V5.72H25.24V9.06H18.1V27.17H13.77Z"/><path d="M35.72,27.17,27.51,5.72h4.64L35.79,15.9c1.09,3,2,5.8,2.54,7.92h.07A78,78,0,0,1,41.05,16L44.86,5.72h4.42L40.82,27.17Z"/></g><path d="M391.12,91v-.88c0-16.94,7.77-29.39,31.87-43.73,15.39-9.12,19.47-11.58,19.47-18.64,0-6.06-3.35-11.11-13.8-11.11-10.16,0-13.84,5.83-15.15,13.78h-22C392.91,12.46,406.9,0,429.42,0c21.9,0,35.71,11.56,35.71,27.63C465.13,41,459.31,47.38,440,58c-11.11,6.13-18.46,11.13-21.21,16H469l-2.76,17Z"/></g></g></svg>