<?xml version="1.0" encoding="utf-8"?>
<!-- Generator: Adobe Illustrator 23.0.2, SVG Export Plug-In . SVG Version: 6.00 Build 0)  -->
<svg version="1.1" id="Layer_1" xmlns="http://www.w3.org/2000/svg" xmlns:xlink="http://www.w3.org/1999/xlink" x="0px" y="0px"
	 viewBox="0 0 154.4 66.5" style="enable-background:new 0 0 154.4 66.5;" xml:space="preserve">
<style type="text/css">
	.st0{fill:#FB0D12;}
	.st1{fill:#FF0000;}
</style>
<title>Logo_TVN</title>
<path class="st0" d="M35.9,14.7v44.5c0,4.3-2.6,7.3-6.4,7.3s-6.8-2.9-6.8-7.1V14.6h-2.3c-4.7,0-9.4,0.1-14,0
	C2.7,14.5-0.1,11.4,0,7.7c0.1-3.4,2.8-6.2,6.2-6.4h48.6c5.1,0,6.7,1.2,8.4,6.1c3.6,10.2,7.2,20.3,10.9,30.5c0.2,0.6,0.5,1.2,0.9,2.3
	c0.9-2.4,1.6-4.4,2.3-6.4l9.9-27.6c1.3-3.5,4.2-5.4,7.4-4.8c4.4,0.8,6.5,4.9,4.9,9.5c-4.6,12.9-9.3,26-14,39.1
	c-1.3,3.8-2.7,7.5-4,11.3c-1.2,3.4-3.6,5.3-6.7,5.2s-5.2-1.8-6.4-5.2c-5.3-14.9-10.7-29.9-16-44.8c-0.5-1.5-1.2-2-2.7-1.9
	c-3.9,0.1-7.8,0-11.6,0C37.4,14.6,36.7,14.7,35.9,14.7"/>
<path class="st0" d="M115.1,66.2H102V1.6h12.7v5.9c0.5-0.4,1-0.8,1.5-1.3c8.5-8.1,21.1-7.2,28.6-3.4c5.8,3,8.2,8.5,9.2,14.8
	c0.3,2.6,0.5,5.1,0.4,7.7v40.9h-13.2V25.1c0-1.2-0.1-2.3-0.2-3.5c-1.1-7-5.6-10.2-12.4-9c-8.6,1.6-13.3,7.7-13.3,17.2v34.1
	C115.1,64.7,115.1,65.4,115.1,66.2"/>
<rect x="108.3" y="60.6" class="st1" width="7" height="5.6"/>
</svg>
