<svg xmlns="http://www.w3.org/2000/svg" viewBox="0 0 443.43 84.36"><defs><style>.cls-1{fill:#1d1d1d;}.cls-2{fill:#010202;}.cls-3{fill:#d41d1d;}</style></defs><title>Logo_RadioPudahuel</title><g id="Capa_2" data-name="Capa 2"><g id="Capa_1-2" data-name="Capa 1"><path class="cls-1" d="M16.49,22.84c4.6,0,7.28-2.77,7.28-6.38v-.12c0-4.15-2.86-6.38-7.46-6.38H9.2V22.84ZM0,6.23A4.58,4.58,0,0,1,4.6,1.59H17.08c10,0,16,6,16,14.57v.12c0,9.75-7.52,14.81-16.9,14.81h-7v8.37a4.58,4.58,0,0,1-4.6,4.63A4.58,4.58,0,0,1,0,39.46Z"/><path class="cls-1" d="M39.25,25.67V5.86a4.6,4.6,0,1,1,9.19,0V25.43c0,6.86,3.41,10.42,9,10.42s9-3.44,9-10.12V5.86a4.6,4.6,0,1,1,9.2,0V25.37c0,12.76-7.1,19-18.33,19s-18.1-6.32-18.1-18.72"/><path class="cls-1" d="M101.37,35.36c7.53,0,12.6-5.11,12.6-12.58v-.12c0-7.46-5.07-12.7-12.6-12.7H94.26v25.4ZM85.06,6.23a4.58,4.58,0,0,1,4.6-4.64h11.71c13.14,0,22.22,9.09,22.22,21v.12c0,11.86-9.08,21.07-22.22,21.07H89.66a4.58,4.58,0,0,1-4.6-4.64Z"/><path class="cls-1" d="M151.64,26.09l-5.79-13.9-5.8,13.9ZM125.78,37.77,140.35,4.6A5.69,5.69,0,0,1,145.73.93h.53a5.6,5.6,0,0,1,5.32,3.67l14.58,33.17a4.53,4.53,0,0,1,.47,1.87,4.37,4.37,0,0,1-4.36,4.45,4.68,4.68,0,0,1-4.42-3.19l-2.8-6.62h-18.4l-2.93,6.92a4.52,4.52,0,0,1-4.24,2.89,4.24,4.24,0,0,1-4.24-4.33,5,5,0,0,1,.54-2"/><path class="cls-1" d="M172,5.86a4.6,4.6,0,1,1,9.2,0V18.27h17V5.86a4.6,4.6,0,1,1,9.2,0v33.6a4.6,4.6,0,1,1-9.2,0V26.81h-17V39.46a4.6,4.6,0,1,1-9.2,0Z"/><path class="cls-1" d="M216.72,25.67V5.86a4.6,4.6,0,1,1,9.2,0V25.43c0,6.86,3.41,10.42,9,10.42s9-3.44,9-10.12V5.86a4.61,4.61,0,1,1,9.21,0V25.37c0,12.76-7.11,19-18.34,19s-18.11-6.32-18.11-18.72"/><path class="cls-1" d="M262.54,39.1V6.23a4.58,4.58,0,0,1,4.6-4.64h23.18a4.15,4.15,0,0,1,4.12,4.15,4.1,4.1,0,0,1-4.12,4.1H271.68v8.55h15.95a4.14,4.14,0,0,1,4.12,4.15,4.09,4.09,0,0,1-4.12,4.09H271.68v8.85h18.94a4.15,4.15,0,0,1,4.12,4.16,4.09,4.09,0,0,1-4.12,4.09H267.14a4.58,4.58,0,0,1-4.6-4.63"/><path class="cls-1" d="M302.56,5.86a4.6,4.6,0,1,1,9.2,0V35.3h17a4.22,4.22,0,0,1,0,8.43H307.16a4.58,4.58,0,0,1-4.6-4.63Z"/><path class="cls-2" d="M92.26,64a.77.77,0,1,1,1.53,0V82.59h11.56a.71.71,0,0,1,0,1.42H93a.78.78,0,0,1-.76-.77Z"/><path class="cls-2" d="M120,78.36V76.64A20.25,20.25,0,0,0,114.9,76c-3.19,0-5,1.42-5,3.52v.06c0,2.19,2.07,3.46,4.37,3.46,3.08,0,5.71-1.89,5.71-4.64M108.4,79.63v-.06c0-3.13,2.69-4.91,6.59-4.91a18.34,18.34,0,0,1,5,.65v-.65c0-3-1.87-4.61-5-4.61a9.83,9.83,0,0,0-4.29,1,.67.67,0,0,1-1-.59.74.74,0,0,1,.41-.66,11.71,11.71,0,0,1,5-1.12,6.48,6.48,0,0,1,4.76,1.66,5.68,5.68,0,0,1,1.54,4.25v8.79a.71.71,0,1,1-1.42,0v-1.9a6.87,6.87,0,0,1-5.77,2.87c-2.8,0-5.82-1.59-5.82-4.73"/><path class="cls-2" d="M143.14,74c3.45,0,6-1.74,6-4.73v-.06c0-2.78-2.19-4.52-5.94-4.52h-7.07V74Zm-8.52-10a.78.78,0,0,1,.77-.77h7.92a8.16,8.16,0,0,1,5.83,2,5.45,5.45,0,0,1,1.57,3.84v.06c0,3.46-2.58,5.44-6.06,5.92l5.88,7.63a.81.81,0,0,1,.23.53.78.78,0,0,1-1.47.38l-6.36-8.28h-6.77v7.93a.77.77,0,1,1-1.54,0Z"/><path class="cls-2" d="M165.46,78.36V76.64a20.25,20.25,0,0,0-5.12-.68c-3.19,0-5,1.42-5,3.52v.06c0,2.19,2.08,3.46,4.38,3.46,3.08,0,5.71-1.89,5.71-4.64m-11.62,1.27v-.06c0-3.13,2.69-4.91,6.59-4.91a18.34,18.34,0,0,1,5,.65v-.65c0-3-1.87-4.61-5-4.61a9.76,9.76,0,0,0-4.29,1,.67.67,0,0,1-1-.59.76.76,0,0,1,.41-.66,11.71,11.71,0,0,1,5-1.12,6.48,6.48,0,0,1,4.76,1.66,5.72,5.72,0,0,1,1.54,4.25v8.79a.71.71,0,1,1-1.42,0v-1.9a6.87,6.87,0,0,1-5.77,2.87c-2.81,0-5.82-1.59-5.82-4.73"/><path class="cls-2" d="M172.05,76.41v.06c0,4,2.75,6.5,5.91,6.5a6.31,6.31,0,0,0,6.15-6.47v-.06A6.29,6.29,0,0,0,178,70c-3.28,0-5.91,2.4-5.91,6.45m13.42,7a.69.69,0,0,1-.71.74.71.71,0,0,1-.74-.74V80.63a7.26,7.26,0,0,1-6.21,3.73,7.49,7.49,0,0,1-7.33-7.83v-.06a7.55,7.55,0,0,1,7.33-7.9A7.25,7.25,0,0,1,184,72.18V63a.7.7,0,0,1,.71-.74.71.71,0,0,1,.74.74Z"/><path class="cls-2" d="M190.59,69.55a.72.72,0,1,1,1.44,0V83.39a.68.68,0,0,1-.7.73.71.71,0,0,1-.74-.73Zm-.18-5.8a.87.87,0,0,1,.89-.88.89.89,0,0,1,.91.88v.51a.89.89,0,0,1-.91.88.87.87,0,0,1-.89-.88Z"/><path class="cls-2" d="M210,76.52v0a6.33,6.33,0,0,0-6.21-6.54,6.22,6.22,0,0,0-6.15,6.48v.06A6.32,6.32,0,0,0,203.89,83,6.22,6.22,0,0,0,210,76.52m-13.93,0v0a7.8,7.8,0,0,1,7.78-7.9,7.72,7.72,0,0,1,7.72,7.84v.06a7.75,7.75,0,1,1-15.5,0"/><path class="cls-2" d="M224.35,76.41v.06c0,4,2.75,6.5,5.91,6.5a6.31,6.31,0,0,0,6.15-6.47v-.06A6.3,6.3,0,0,0,230.26,70c-3.28,0-5.91,2.4-5.91,6.45m13.42,7a.69.69,0,0,1-.71.74.71.71,0,0,1-.74-.74V80.63a7.26,7.26,0,0,1-6.21,3.73,7.49,7.49,0,0,1-7.33-7.83v-.06a7.55,7.55,0,0,1,7.33-7.9,7.25,7.25,0,0,1,6.21,3.61V63a.7.7,0,0,1,.71-.74.71.71,0,0,1,.74.74V83.38Z"/><path class="cls-2" d="M254.15,75.76c-.21-3.05-2-5.86-5.41-5.86-3,0-5.29,2.52-5.56,5.86ZM249,84.36a7.49,7.49,0,0,1-7.39-7.86v-.06c0-4.38,3.08-7.87,7.16-7.87s6.92,3.49,6.92,7.81a.74.74,0,0,1-.71.68H243.18c.27,3.75,3,5.94,5.91,5.94A6.68,6.68,0,0,0,254,80.93a.65.65,0,0,1,.48-.2.69.69,0,0,1,.7.68.7.7,0,0,1-.23.5A7.71,7.71,0,0,1,249,84.36"/><path class="cls-2" d="M267,73.72v-.06A10.41,10.41,0,0,1,277.39,63a10.84,10.84,0,0,1,7.6,2.9.93.93,0,0,1,.29.62.8.8,0,0,1-.8.77A.79.79,0,0,1,284,67a9.25,9.25,0,0,0-6.59-2.69c-5,0-8.72,4.06-8.72,9.26v.06c0,5.23,3.81,9.31,8.75,9.31a9.08,9.08,0,0,0,6.74-2.87.74.74,0,0,1,1.27.51.76.76,0,0,1-.24.53,10.71,10.71,0,0,1-7.83,3.22A10.29,10.29,0,0,1,267,73.72"/><path class="cls-2" d="M288.86,63a.71.71,0,0,1,.71-.74.74.74,0,0,1,.74.74v8.69a5.9,5.9,0,0,1,5.44-3.16c3.81,0,6,2.6,6,6.21v8.6a.69.69,0,0,1-.71.74.71.71,0,0,1-.74-.74V75.05c0-3.11-1.75-5.15-4.79-5.15a5.17,5.17,0,0,0-5.23,5.38v8.11a.7.7,0,0,1-.71.74.71.71,0,0,1-.74-.74Z"/><path class="cls-2" d="M306.59,69.55a.73.73,0,1,1,1.45,0V83.39a.68.68,0,0,1-.71.73.71.71,0,0,1-.74-.73Zm-.17-5.8a.86.86,0,0,1,.88-.88.89.89,0,0,1,.92.88v.51a.89.89,0,0,1-.92.88.86.86,0,0,1-.88-.88Z"/><path class="cls-2" d="M313.37,63a.71.71,0,0,1,.71-.74.73.73,0,0,1,.73.74V83.39a.68.68,0,0,1-.7.73.71.71,0,0,1-.74-.73Z"/><path class="cls-2" d="M331.4,75.76c-.21-3.05-1.95-5.86-5.41-5.86-3,0-5.29,2.52-5.56,5.86Zm-5.12,8.6a7.49,7.49,0,0,1-7.39-7.86v-.06c0-4.38,3.08-7.87,7.16-7.87S333,72.06,333,76.38a.74.74,0,0,1-.71.68H320.43c.27,3.75,3,5.94,5.92,5.94a6.67,6.67,0,0,0,4.87-2.07.65.65,0,0,1,.48-.2.69.69,0,0,1,.71.68.72.72,0,0,1-.24.5,7.71,7.71,0,0,1-5.89,2.45"/><path class="cls-3" d="M392.88,44.83h2.17c13.06.44,24.91.83,37.78,3.18A42,42,0,0,1,439,49.79l.19.08a1.77,1.77,0,0,1,.24,2.88,1.43,1.43,0,0,1-.51.28,94.64,94.64,0,0,1-12.35,2.73,285.76,285.76,0,0,1-68.23-.36,61,61,0,0,1-9-2.09,2.71,2.71,0,0,1-.83-.42,1.83,1.83,0,0,1-.13-2.88,2.64,2.64,0,0,1,1-.57,102.29,102.29,0,0,1,13.9-2.66c10.11-.88,19.41-1.35,29.54-2"/><path class="cls-3" d="M392.23,27.44a23.42,23.42,0,0,1,2.37,0c13.74.51,27.43,1,41,3.75a40.73,40.73,0,0,1,6.69,2.16,1.66,1.66,0,0,1,.41.26,2.3,2.3,0,0,1,.19,3.2,1.61,1.61,0,0,1-.68.47c-4.43,1.25-8.85,2.75-13.35,3.32a275,275,0,0,1-73.73-.44,60.58,60.58,0,0,1-9.71-2.53,3.14,3.14,0,0,1-1-.61,2.32,2.32,0,0,1-.12-3.3,2.76,2.76,0,0,1,1.2-.79c5-1.27,10-2.74,15-3.23,10.55-1,21.15-1.54,31.73-2.23"/><path class="cls-3" d="M352.41,64.42a.63.63,0,0,1,.39-.6,15.87,15.87,0,0,1,3.64-1.3c6.1-.82,12.21-1.74,18.35-2.13a297.84,297.84,0,0,1,43.39.36c4.42.37,8.82,1.1,13.2,1.81a7.19,7.19,0,0,1,3.7,1.38c.43.32.42.63,0,1a6.9,6.9,0,0,1-3.49,1.36c-6.17.85-12.34,1.85-18.55,2.23a293.13,293.13,0,0,1-48.32-.81c-3.34-.35-6.64-1.09-9.94-1.76a7.62,7.62,0,0,1-2.07-1,.59.59,0,0,1-.31-.5"/><path class="cls-3" d="M424.3,73.62c.32.28.15,1.14-.79,1.41a25.39,25.39,0,0,1-4.28,1,220.83,220.83,0,0,1-52.53-.29,10.07,10.07,0,0,1-3.38-.86.55.55,0,0,1-.25-.42h0a.77.77,0,0,1,.39-.74,5.58,5.58,0,0,1,2.17-.62c6.7-.64,13.39-1.46,20.1-1.7a195,195,0,0,1,33.9,1.25c1.65.23,3.54.13,4.67,1Z"/><path class="cls-3" d="M407.4,83.2a90.69,90.69,0,0,1-27.68.2.34.34,0,0,1-.08-.64c4.8-1.85,21.91-2,27.8-.2a.33.33,0,0,1,0,.64"/><path class="cls-3" d="M442.42,18.2c0-.09-.05-.18-.07-.27v0C439.79,7.69,428.64,0,415.16,0c-8.87,0-16.75,3.33-21.83,8.51C388.25,3.33,380.36,0,371.5,0c-13.34,0-24.42,7.53-27.11,17.57a1.26,1.26,0,0,0-.23.69,1,1,0,0,0,0,.18c.26,1.58,3.89,3,9.87,4.21,9,1.76,23.2,2.9,39.23,2.9s30.26-1.14,39.22-2.9c6.22-1.22,9.9-2.74,9.9-4.39V18.2h0"/></g></g></svg>