<?xml version="1.0" encoding="utf-8"?>
<!-- Generator: Adobe Illustrator 23.0.2, SVG Export Plug-In . SVG Version: 6.00 Build 0)  -->
<svg version="1.1" id="Capa_1" xmlns="http://www.w3.org/2000/svg" xmlns:xlink="http://www.w3.org/1999/xlink" x="0px" y="0px"
	 viewBox="0 0 451.8 154.1" style="enable-background:new 0 0 451.8 154.1;" xml:space="preserve">
<style type="text/css">
	.st0{fill:#E30613;}
	.st1{fill:#0060A1;}
	.st2{fill:#FFFFFF;}
</style>
<title>Logo_ADNRADIO</title>
<path class="st0" d="M130.9,0H13.8C6.2,0,0,6.6,0,14.6v124.8c0,8.1,6.2,14.7,13.8,14.7h117.1c7.6,0,13.8-6.6,13.8-14.7V14.6
	C144.6,6.6,138.5,0,130.9,0z"/>
<path class="st0" d="M284.1,0H167c-7.6,0-13.8,6.6-13.8,14.7v124.7c0,8.1,6.2,14.7,13.8,14.7h117.1c7.6,0,13.8-6.6,13.8-14.7V14.6
	C297.8,6.6,291.7,0,284.1,0z"/>
<path class="st1" d="M438,0H320.9c-7.6,0-13.8,6.6-13.8,14.7v124.7c0,8.1,6.2,14.7,13.8,14.7H438c7.6,0,13.8-6.6,13.8-14.7V14.6
	C451.8,6.6,445.6,0,438,0z"/>
<polygon class="st2" points="426.7,129.7 407,129.7 355.9,62.7 355.9,129.7 333.1,129.7 333.1,24.4 354.4,24.4 403.8,89.2 
	403.8,24.4 426.7,24.4 "/>
<path class="st2" d="M280,77.6c0,29.6-22.9,52.7-56,52.7h-41.1V25H224c33.1,0,56,22.7,56,52.4V77.6z"/>
<path class="st0" d="M224,45.9h-17.9v63.5H224c19,0,31.8-12.8,31.8-31.4v-0.3C255.7,59,242.9,45.9,224,45.9z"/>
<polygon class="st2" points="103.9,130.3 94.3,106.7 49.8,106.7 40.1,130.3 16.5,130.3 61.6,24.2 83,24.2 128.1,130.3 "/>
<polygon class="st0" points="58,86.2 86,86.2 72,52.1 "/>
</svg>
