<svg xmlns="http://www.w3.org/2000/svg" viewBox="0 0 127.89 80.06"><defs><style>.cls-1{fill:#f81d28;}</style></defs><title>Logo_24H_Solo</title><g id="Capa_2" data-name="Capa 2"><g id="Capa_1-2" data-name="Capa 1"><path class="cls-1" d="M111,.46a7.35,7.35,0,0,0-8.21,2.2l-41,49.11a7.55,7.55,0,0,0-1,7.9,7.38,7.38,0,0,0,6.7,4.3l33.59.09v8.61a7.41,7.41,0,0,0,14.81,0V64h4.59a7.41,7.41,0,1,0,0-14.81h-4.7V7.36A7.06,7.06,0,0,0,111,.46Zm-9.91,48.7H83.29l17.79-21.4Z"/><path class="cls-1" d="M2.59,66.56a7.3,7.3,0,0,0-2.1,8.21,7.36,7.36,0,0,0,6.9,4.8h0l44.4-.2a7.41,7.41,0,0,0,0-14.81h0l-24.3.11c7.4-6.41,15.3-13.41,18.1-16.2C54.79,39,56,30.87,56,25a25.2,25.2,0,0,0-5.2-14.41c-3.2-4.2-9.3-9.3-19.7-9.69C10.39.06,3.49,15.56,3.19,16.16h0a7.17,7.17,0,0,0-.6,2.9,7.38,7.38,0,0,0,7.4,7.4,7.56,7.56,0,0,0,6.9-4.6c.8-1.4,4.4-6.6,13.6-6.3,10.1.4,10.7,9.3,10.7,9.4,0,3.3-.51,7.3-6.3,13.2C30.59,42.56,10.09,60.16,2.59,66.56Z"/></g></g></svg>