<svg xmlns="http://www.w3.org/2000/svg" xmlns:xlink="http://www.w3.org/1999/xlink" viewBox="0 0 127.89 128.33"><defs><style>.cls-1{fill:none;}.cls-2,.cls-4{fill:#f81d28;}.cls-3{clip-path:url(#clip-path);}.cls-4{fill-rule:evenodd;}</style><clipPath id="clip-path"><rect class="cls-1" x="0.33" y="91.9" width="127.46" height="36.44"/></clipPath></defs><title>Logo_24H_Solo_2</title><g id="Capa_2" data-name="Capa 2"><g id="Capa_1-2" data-name="Capa 1"><path class="cls-2" d="M111,.46a7.35,7.35,0,0,0-8.21,2.2l-41,49.11a7.55,7.55,0,0,0-1,7.9,7.38,7.38,0,0,0,6.7,4.3l33.59.09v8.61a7.41,7.41,0,0,0,14.81,0V64h4.59a7.41,7.41,0,1,0,0-14.81h-4.7V7.36A7.06,7.06,0,0,0,111,.46Zm-9.91,48.7H83.29l17.79-21.4Z"/><path class="cls-2" d="M2.59,66.56a7.3,7.3,0,0,0-2.1,8.21,7.36,7.36,0,0,0,6.9,4.8h0l44.4-.2a7.41,7.41,0,0,0,0-14.81h0l-24.3.11c7.4-6.41,15.3-13.41,18.1-16.2C54.79,39,56,30.87,56,25a25.2,25.2,0,0,0-5.2-14.41c-3.2-4.2-9.3-9.3-19.7-9.69C10.39.06,3.49,15.56,3.19,16.16h0a7.17,7.17,0,0,0-.6,2.9,7.38,7.38,0,0,0,7.4,7.4,7.56,7.56,0,0,0,6.9-4.6c.8-1.4,4.4-6.6,13.6-6.3,10.1.4,10.7,9.3,10.7,9.4,0,3.3-.51,7.3-6.3,13.2C30.59,42.56,10.09,60.16,2.59,66.56Z"/><g class="cls-3"><path class="cls-4" d="M64.89,105.56h2.78c1.44,0,2.51.64,2.51,2s-1,2.18-2.55,2.18H64.84Zm-20.44-.24a5,5,0,1,1-4.63,5A4.81,4.81,0,0,1,44.45,105.32Zm45.05-.27c.1,0,.14.09.19.27l1.81,6.58h-4l1.81-6.58C89.32,105.14,89.41,105.05,89.5,105.05Zm-29.8-4.22v18.8h5.1l0-5.28h.93a2.85,2.85,0,0,1,3.06,1.76l1.76,3.57v0h5.66l-2-4c-.83-1.71-1.48-2.82-2.41-3.42a5.28,5.28,0,0,0,3.62-5.24c0-4.16-3.43-6.25-7.88-6.25Zm-48.2,0v18.85h5.14v-7h7.42v7H29.2V100.83H24.06v7.09H16.64v-7.09Zm33-.37a9.82,9.82,0,1,0,10,9.82A9.89,9.89,0,0,0,44.45,100.46Zm65.72,0c-4.17,0-7.27,2.64-7.27,6.11,0,4.49,4.12,5.6,6.95,6,1.71.23,2.83.41,2.83,1.53,0,.87-1,1.29-2.41,1.29-1.76,0-2.83-.51-3.34-1.67l-4.31,2.13c1.3,2.78,4.08,4.26,7.65,4.26,4.17,0,7.55-2.64,7.55-6.11,0-4.53-3.94-5.6-6.72-6-1.81-.27-3.06-.6-3.06-1.66,0-.79.65-1.16,1.9-1.16a3.46,3.46,0,0,1,3.29,1.67l4.31-2.13C116.25,101.9,113.47,100.42,110.17,100.42Zm-20.76,0a4.68,4.68,0,0,0-4.59,3.42L80,119.68h5.29l.88-3.2h6.63l.88,3.2h5.24L94,103.84A4.68,4.68,0,0,0,89.41,100.42ZM9.6,91.9H118.52a9.27,9.27,0,0,1,9.27,9.26v17.91a9.26,9.26,0,0,1-9.27,9.26H9.6a9.25,9.25,0,0,1-9.27-9.26V101.16A9.26,9.26,0,0,1,9.6,91.9Z"/></g></g></g></svg>