<?xml version="1.0" encoding="utf-8"?>
<!-- Generator: Adobe Illustrator 23.0.2, SVG Export Plug-In . SVG Version: 6.00 Build 0)  -->
<svg version="1.1" id="Capa_1" xmlns="http://www.w3.org/2000/svg" xmlns:xlink="http://www.w3.org/1999/xlink" x="0px" y="0px"
	 viewBox="0 0 1000 285" style="enable-background:new 0 0 1000 285;" xml:space="preserve">
<style type="text/css">
	.st0{fill:#FF0000;}
</style>
<path class="st0" d="M541.8,184.2c0,31-38.5,29.1-38.5,29.1h-38.5v-56h38.5C542.9,157.1,541.8,184.2,541.8,184.2 M464.7,72h29.4
	c30.5,1.6,29.3,24.3,29.3,24.3c0,28.2-33.7,28.7-33.7,28.7h-25V72z M534.7,136c0,0,26.4-11.2,26.1-41.1c0,0,4-48.9-60.7-54.8h-71.8
	V245h82.3c0,0,68.8,0.2,68.8-57.8C579.4,187.2,581,147.7,534.7,136 M348.8,0h302.5v285H348.8V0z M193,184.2
	c0,31-38.5,29.1-38.5,29.1H116v-56h38.5C194.2,157.1,193,184.2,193,184.2 M116,72h29.4c30.5,1.6,29.3,24.3,29.3,24.3
	c0,28.2-33.7,28.7-33.7,28.7h-25L116,72L116,72z M185.9,136c0,0,26.4-11.2,26.1-41.1c0,0,4-48.9-60.7-54.8H79.5V245h82.3
	c0,0,68.8,0.2,68.8-57.8C230.6,187.2,232.3,147.7,185.9,136 M0,0h302.5v285H0V0z M938.3,54.8v37.8c0,0-36.9-22.7-77.8-23.2
	c0,0-76.2-1.5-79.6,73c0,0-2.8,68.5,78.7,72.4c0,0,34.2,4.1,80.5-25.4v39.2c0,0-62.2,36.9-134.2,8.5c0,0-60.5-22.1-62.9-94.7
	c0,0-2.5-74.6,78.2-99.4c0,0,21.6-8.3,60.3-4.6C881.6,38.5,904.8,40.8,938.3,54.8 M697.5,285H1000V0H697.5V285z"/>
</svg>
