<svg xmlns="http://www.w3.org/2000/svg" viewBox="0 0 1744.96 242.69"><defs><style>.cls-1{fill:#562674;}.cls-2{fill:#71154c;}.cls-3{fill:#066938;}.cls-4{fill:#452776;}.cls-5{fill:#9b1560;}.cls-6{fill:#009841;}.cls-7{fill:#24387d;}.cls-8{fill:#5c8ecb;}.cls-9{fill:#43ad4c;}.cls-10{fill:#181b2e;}.cls-11{fill:#f6db3f;}.cls-12{fill:#d31a16;}.cls-13{fill:#f39020;}.cls-14{fill:#b6191b;}.cls-15{fill:#f2a122;}.cls-16{fill:#ef7d12;}.cls-17{fill:#ea5a25;}.cls-18{fill:#881819;}.cls-19{fill:#f1d40b;}.cls-20{fill:#020203;}</style></defs><title>Logo_Convencion_Constitucional_Señal_9</title><g id="Capa_2" data-name="Capa 2"><g id="Capa_1-2" data-name="Capa 1"><path d="M1666.64,0q18.83,0,33.45,7.4a72.33,72.33,0,0,1,24.54,20A92,92,0,0,1,1739.75,56,106.13,106.13,0,0,1,1745,89.08a174.27,174.27,0,0,1-3,30.08,196,196,0,0,1-10.09,35.46,174.43,174.43,0,0,1-18.65,35.64A136.18,136.18,0,0,1,1684.29,221q-17.31,13.62-41.18,21a32.44,32.44,0,0,1-6.38.67,20.13,20.13,0,0,1-11.94-3.69q-5.2-3.7-5.21-12.11a15.26,15.26,0,0,1,4-10.75,23.49,23.49,0,0,1,10.75-6.39,116.11,116.11,0,0,0,32.27-18.65,128.89,128.89,0,0,0,27.23-29.92A104.77,104.77,0,0,0,1709.33,124l8.41-1.35A103.78,103.78,0,0,1,1705,137.15a65.56,65.56,0,0,1-18.49,12.26q-10.76,4.89-24.87,4.88-21.86,0-38-9.92A66.1,66.1,0,0,1,1598.74,117Q1590,99.51,1590,77a74.4,74.4,0,0,1,10.25-38.32,79.69,79.69,0,0,1,27.57-28.07A72.9,72.9,0,0,1,1666.64,0Zm.34,30.93a41.16,41.16,0,0,0-22.19,6,43.69,43.69,0,0,0-15.46,16.47A48.12,48.12,0,0,0,1623.62,77a54.38,54.38,0,0,0,5,23.69,38.71,38.71,0,0,0,14.79,16.64q9.75,6.06,22.86,6a42.72,42.72,0,0,0,39-23.19A49.35,49.35,0,0,0,1711,76.64a46.52,46.52,0,0,0-5.71-23,45.61,45.61,0,0,0-15.46-16.47Q1680.07,30.93,1667,30.93Z"/><path class="cls-1" d="M39.77,162.65a9.72,9.72,0,0,1-5.1-1.5,9.34,9.34,0,0,1-2.7-12.9,295.88,295.88,0,0,1,24.9-32.9,9.32,9.32,0,0,1,13.1-.9,9.44,9.44,0,0,1,.9,13.2,268.51,268.51,0,0,0-23.4,30.8A9,9,0,0,1,39.77,162.65Z"/><path class="cls-2" d="M105.67,91.35a9.15,9.15,0,0,1-7.5-3.8,9.27,9.27,0,0,1,1.9-13,280.88,280.88,0,0,1,34.8-22.2,9.3,9.3,0,0,1,12.6,3.8,9.41,9.41,0,0,1-3.8,12.7,263.41,263.41,0,0,0-32.5,20.8A9.67,9.67,0,0,1,105.67,91.35Z"/><path class="cls-3" d="M197.77,45.65a9.28,9.28,0,0,1-9-6.9,9.44,9.44,0,0,1,6.6-11.5,293,293,0,0,1,40.5-8,9.41,9.41,0,0,1,10.4,8.1,9.28,9.28,0,0,1-8.1,10.4,270,270,0,0,0-37.9,7.4A5.87,5.87,0,0,1,197.77,45.65Z"/><path class="cls-4" d="M9.37,225.85a10.47,10.47,0,0,1-3-.5,9.37,9.37,0,0,1-5.9-11.8c1.7-5.2,3.7-10.6,5.8-15.7a9.38,9.38,0,0,1,17.4,7c-1.9,4.8-3.8,9.8-5.4,14.7A9.67,9.67,0,0,1,9.37,225.85Z"/><path class="cls-5" d="M107.47,158.25a9.72,9.72,0,0,1-6.4-2.5,9.33,9.33,0,0,1-.4-13.2,239.54,239.54,0,0,1,33-29.1,9.3,9.3,0,0,1,11,15,215.92,215.92,0,0,0-30.4,26.9A8.86,8.86,0,0,1,107.47,158.25Z"/><path class="cls-6" d="M194.07,100.55a9.36,9.36,0,0,1-8.7-6.1,9.51,9.51,0,0,1,5.6-12,241.63,241.63,0,0,1,42.5-11.1,9.23,9.23,0,0,1,10.7,7.7,9.38,9.38,0,0,1-7.7,10.8,221.54,221.54,0,0,0-39.2,10.2A12.48,12.48,0,0,1,194.07,100.55Z"/><path class="cls-7" d="M63.47,225.85a11.49,11.49,0,0,1-3.6-.7,9.38,9.38,0,0,1-5-12.2,247.82,247.82,0,0,1,12.2-24.8,9.34,9.34,0,1,1,16.2,9.3A202.85,202.85,0,0,0,72,220.35,9.09,9.09,0,0,1,63.47,225.85Z"/><path class="cls-8" d="M120,225.85a9.57,9.57,0,0,1-4.6-1.2,9.42,9.42,0,0,1-3.4-12.8,191.17,191.17,0,0,1,29-38,9.33,9.33,0,0,1,13.3,13.1,169.55,169.55,0,0,0-26.1,34.1A9.52,9.52,0,0,1,120,225.85Z"/><path class="cls-9" d="M199.67,152.65a9.37,9.37,0,0,1-3.9-17.9,187.24,187.24,0,0,1,45.8-13.6,9.37,9.37,0,0,1,3,18.5,168.46,168.46,0,0,0-41.2,12.2A9.46,9.46,0,0,1,199.67,152.65Z"/><circle class="cls-10" cx="272.07" cy="129.55" r="9.4"/><circle class="cls-10" cx="171.47" cy="162.15" r="9.4"/><path class="cls-11" d="M424.17,225.85a9.19,9.19,0,0,1-8-4.6,166,166,0,0,0-26.1-34.1,9.33,9.33,0,1,1,13.3-13.1,184.75,184.75,0,0,1,29,38,9.54,9.54,0,0,1-3.4,12.8A14.22,14.22,0,0,1,424.17,225.85Z"/><path class="cls-12" d="M344.57,152.65a10.8,10.8,0,0,1-3.8-.8,167.17,167.17,0,0,0-41.2-12.2,9.23,9.23,0,0,1-7.7-10.7,9.37,9.37,0,0,1,10.7-7.8,185.48,185.48,0,0,1,45.8,13.6,9.37,9.37,0,0,1-3.8,17.9Z"/><circle class="cls-10" cx="372.67" cy="162.15" r="9.4"/><circle class="cls-10" cx="89.77" cy="169.75" r="9.4"/><circle class="cls-10" cx="165.67" cy="103.55" r="9.4"/><circle class="cls-10" cx="272.07" cy="76.75" r="9.4"/><path class="cls-13" d="M436.57,158.25a9.55,9.55,0,0,1-6.8-2.9,221.65,221.65,0,0,0-30.4-26.9,9.3,9.3,0,1,1,11-15,253.58,253.58,0,0,1,33,29.1,9.42,9.42,0,0,1-.4,13.2A8.66,8.66,0,0,1,436.57,158.25Z"/><path class="cls-14" d="M350.17,100.55a11.15,11.15,0,0,1-3.1-.5,221.54,221.54,0,0,0-39.2-10.2,9.4,9.4,0,0,1-7.7-10.8,9.16,9.16,0,0,1,10.7-7.7,239.37,239.37,0,0,1,42.5,11.1,9.43,9.43,0,0,1,5.6,12A9.7,9.7,0,0,1,350.17,100.55Z"/><path class="cls-15" d="M480.67,225.85a9.21,9.21,0,0,1-8.6-5.7,221.06,221.06,0,0,0-11.3-22.9,9.48,9.48,0,0,1,3.5-12.8A9.34,9.34,0,0,1,477,188a237.31,237.31,0,0,1,12.2,24.8,9.29,9.29,0,0,1-5,12.2A6.32,6.32,0,0,1,480.67,225.85Z"/><circle class="cls-10" cx="454.37" cy="169.75" r="9.4"/><circle class="cls-10" cx="378.47" cy="103.55" r="9.4"/><circle class="cls-10" cx="24.47" cy="178.55" r="9.4"/><circle class="cls-10" cx="82.77" cy="101.55" r="9.4"/><circle class="cls-10" cx="168.17" cy="46.45" r="9.4"/><circle class="cls-10" cx="272.07" cy="26.25" r="9.4"/><path class="cls-16" d="M504.37,162.65a9.3,9.3,0,0,1-7.8-4.2,260.07,260.07,0,0,0-23.4-30.8,9.35,9.35,0,0,1,.9-13.2,9.14,9.14,0,0,1,13.1.9,273.25,273.25,0,0,1,24.9,32.9,9.34,9.34,0,0,1-2.7,12.9A8.18,8.18,0,0,1,504.37,162.65Z"/><path class="cls-17" d="M438.37,91.35a10,10,0,0,1-5.6-1.8,271.13,271.13,0,0,0-32.5-20.8,9.35,9.35,0,0,1,8.8-16.5,293.05,293.05,0,0,1,34.8,22.2,9.28,9.28,0,0,1,1.9,13A8.69,8.69,0,0,1,438.37,91.35Z"/><path class="cls-18" d="M346.37,45.65a9.28,9.28,0,0,1-2.4-.3,270,270,0,0,0-37.9-7.4,9.32,9.32,0,0,1,2.3-18.5,293,293,0,0,1,40.5,8,9.39,9.39,0,0,1,6.6,11.5A9.67,9.67,0,0,1,346.37,45.65Z"/><path class="cls-19" d="M534.87,225.85a9.18,9.18,0,0,1-8.8-6.4c-1.7-4.9-3.5-9.9-5.4-14.7a9.38,9.38,0,0,1,17.4-7c2.1,5.2,4,10.4,5.8,15.7a9.29,9.29,0,0,1-5.9,11.8A7.12,7.12,0,0,1,534.87,225.85Z"/><circle class="cls-10" cx="519.67" cy="178.55" r="9.4"/><circle class="cls-10" cx="461.37" cy="101.55" r="9.4" transform="translate(281.32 538.3) rotate(-80.01)"/><circle class="cls-10" cx="375.97" cy="46.45" r="9.4"/><path class="cls-20" d="M607.65,118.09a50,50,0,0,0,16.28,10.8,50.71,50.71,0,0,0,19.87,3.77,63.71,63.71,0,0,0,11.14-1.2,53.16,53.16,0,0,0,10.45-3.26,82,82,0,0,0,8.74-4.45,3.5,3.5,0,0,0,1.89-2.92,4.94,4.94,0,0,0-.86-3.42,5.75,5.75,0,0,0-2.91-1.72,4.57,4.57,0,0,0-3.09.52,54.39,54.39,0,0,1-12,5.48,43.12,43.12,0,0,1-13.54,2.06,42.33,42.33,0,0,1-16.28-3.09A43.48,43.48,0,0,1,614,111.75a42.45,42.45,0,0,1-9.08-13.88,51,51,0,0,1-3.09-18.16,48.23,48.23,0,0,1,3.09-17.65,40.2,40.2,0,0,1,8.91-13.88,37.85,37.85,0,0,1,13.36-9.08A44.27,44.27,0,0,1,643.8,36a45.8,45.8,0,0,1,13.71,2,47,47,0,0,1,11.82,5.66,6.59,6.59,0,0,0,3.09.51A3,3,0,0,0,675,42.7a4.94,4.94,0,0,0,1-3.6A4.45,4.45,0,0,0,674,36.19a44.86,44.86,0,0,0-13.88-6.51A50.07,50.07,0,0,0,644,27.28a49.27,49.27,0,0,0-20,3.94,51,51,0,0,0-16.28,11.14A52.32,52.32,0,0,0,596.51,59a52.91,52.91,0,0,0-4.11,20.9,55.13,55.13,0,0,0,4.11,21.59A46.57,46.57,0,0,0,607.65,118.09Z"/><path class="cls-20" d="M701.72,117.58a47.61,47.61,0,0,0,15.59,11,49.35,49.35,0,0,0,19.7,3.94,50,50,0,0,0,19.71-3.94,43.68,43.68,0,0,0,15.59-11A49.65,49.65,0,0,0,782.59,101a59.81,59.81,0,0,0,3.6-21.08,59,59,0,0,0-3.6-21.07,48.4,48.4,0,0,0-10.28-16.62,45.79,45.79,0,0,0-15.59-11,51.25,51.25,0,0,0-39.41,0,43.58,43.58,0,0,0-15.59,11,48.94,48.94,0,0,0-10.11,16.62A60.43,60.43,0,0,0,688,79.88a59.81,59.81,0,0,0,3.6,21.08A48.78,48.78,0,0,0,701.72,117.58Zm.85-60.83a39.51,39.51,0,0,1,14-15.42c6-3.77,12.85-5.48,20.57-5.48,7.88,0,14.73,1.71,20.56,5.48a40.42,40.42,0,0,1,13.88,15.42c3.42,6.51,5.14,14.22,5.14,23a49.35,49.35,0,0,1-5.14,23,40.42,40.42,0,0,1-13.88,15.42c-5.83,3.77-12.68,5.48-20.56,5.48-7.72,0-14.57-1.71-20.57-5.48a38.27,38.27,0,0,1-14-15.42c-3.42-6.51-5.14-14.22-5.14-23A51.55,51.55,0,0,1,702.57,56.75Z"/><path class="cls-20" d="M881.8,28.48a5.88,5.88,0,0,0-2.91,1,4.43,4.43,0,0,0-1.2,2.91v82.42l-63.06-85a4.22,4.22,0,0,0-1.71-1.2,8.93,8.93,0,0,0-1.89-.34,4.47,4.47,0,0,0-2.91,1.2,4.25,4.25,0,0,0-1.2,3.08v94.07a4.35,4.35,0,0,0,1,2.91,4.47,4.47,0,0,0,2.91,1.2,4.1,4.1,0,0,0,4.29-4.11V44.76L878,129.4a3.59,3.59,0,0,0,1.54,1,6.25,6.25,0,0,0,1.89.34,4.11,4.11,0,0,0,3.08-1.2,4.49,4.49,0,0,0,1.37-3.43V32.42a4,4,0,0,0-1-2.91A5.92,5.92,0,0,0,881.8,28.48Z"/><path class="cls-20" d="M905.1,35.16,944,128.37a3.43,3.43,0,0,0,1.71,2.06,4.86,4.86,0,0,0,2.57.68,5.62,5.62,0,0,0,2.4-.68,4.71,4.71,0,0,0,1.88-2.23l39.07-93.38a6,6,0,0,0,.52-2.06,3.67,3.67,0,0,0-1.2-3.08,5,5,0,0,0-3.26-1.2c-1.71,0-3.08,1-4.28,2.91l-34.79,85L913.33,31.73A4.37,4.37,0,0,0,909,28.65a4.85,4.85,0,0,0-2.91,1.2,3.44,3.44,0,0,0-1.54,3.08,2.92,2.92,0,0,0,.17,1.2A2.46,2.46,0,0,0,905.1,35.16Z"/><path class="cls-20" d="M1015.28,131.11h53.63a4.9,4.9,0,0,0,3.08-1.2,4.15,4.15,0,0,0,0-6.16,4,4,0,0,0-3.08-1.38h-48.66V82.62h42.15a4.9,4.9,0,0,0,3.08-1.2,4.26,4.26,0,0,0,1.37-3.08,4.19,4.19,0,0,0-1.37-2.91,4,4,0,0,0-3.08-1.37h-42.15V37.39h48.66a5,5,0,0,0,3.08-1.2,3.66,3.66,0,0,0,1.37-2.91,4.29,4.29,0,0,0-1.37-3.09,4.57,4.57,0,0,0-3.08-1.2h-53.63a5,5,0,0,0-3.09,1.2,5,5,0,0,0-1.2,3.09V127a4.14,4.14,0,0,0,1.2,3.08A6,6,0,0,0,1015.28,131.11Z"/><path class="cls-20" d="M1098.21,131.11a4.9,4.9,0,0,0,3.08-1.2,4.8,4.8,0,0,0,1.2-2.91V45.1l62.88,84.47a3.54,3.54,0,0,0,1.55,1,6.18,6.18,0,0,0,1.88.34,4.13,4.13,0,0,0,3.09-1.2,4.51,4.51,0,0,0,1.37-3.42V32.59a4,4,0,0,0-1-2.91,4.13,4.13,0,0,0-2.91-1.2,4.1,4.1,0,0,0-4.12,4.11V115l-63-85a3.18,3.18,0,0,0-1.72-1.2,8.85,8.85,0,0,0-1.88-.34,4.43,4.43,0,0,0-2.91,1.2,4.21,4.21,0,0,0-1.2,3.08v94.41a4.28,4.28,0,0,0,1,2.91A3.35,3.35,0,0,0,1098.21,131.11Z"/><path class="cls-20" d="M1256.53,131.46A53.16,53.16,0,0,0,1267,128.2a82,82,0,0,0,8.74-4.45,3.49,3.49,0,0,0,1.88-2.92,4.88,4.88,0,0,0-.85-3.42,5.14,5.14,0,0,0-2.91-1.72,4.57,4.57,0,0,0-3.09.52,51,51,0,0,1-12,5.48,44,44,0,0,1-13.54,2.06,42.3,42.3,0,0,1-16.28-3.09,43.48,43.48,0,0,1-13.36-8.91,39.34,39.34,0,0,1-8.91-13.88,51,51,0,0,1-3.09-18.16,48.23,48.23,0,0,1,3.09-17.65,40.2,40.2,0,0,1,8.91-13.88,37.85,37.85,0,0,1,13.36-9.08A44.27,44.27,0,0,1,1245.56,36a45.8,45.8,0,0,1,13.71,2,46.88,46.88,0,0,1,11.82,5.66,6.59,6.59,0,0,0,3.09.51,3.24,3.24,0,0,0,2.57-1.54,4.94,4.94,0,0,0,1-3.6,4.45,4.45,0,0,0-2.06-2.91,44.86,44.86,0,0,0-13.88-6.51,50.07,50.07,0,0,0-16.11-2.4,48.72,48.72,0,0,0-20,3.94,51,51,0,0,0-16.28,11.14A52.32,52.32,0,0,0,1198.27,59a52.91,52.91,0,0,0-4.11,20.9,55.13,55.13,0,0,0,4.11,21.59,49.3,49.3,0,0,0,11.31,16.62,51.89,51.89,0,0,0,16.28,10.8,50.71,50.71,0,0,0,19.87,3.77A50,50,0,0,0,1256.53,131.46Z"/><path class="cls-20" d="M1301.08,131.11a4.26,4.26,0,0,0,3.08-1.37,4.86,4.86,0,0,0,1.55-3.08V33.28a4.3,4.3,0,0,0-1.38-3.09,4.26,4.26,0,0,0-3.08-1.37,4.39,4.39,0,0,0-3.26,1.37,4.05,4.05,0,0,0-1.37,3.09v93.38a4.93,4.93,0,0,0,1.2,3.08A3.89,3.89,0,0,0,1301.08,131.11Z"/><path class="cls-20" d="M1420.85,101a59.81,59.81,0,0,0,3.6-21.08,59,59,0,0,0-3.6-21.07,50.91,50.91,0,0,0-10.11-16.62,45.89,45.89,0,0,0-15.59-11,49.36,49.36,0,0,0-19.71-3.94,50.15,50.15,0,0,0-19.87,3.94,45.93,45.93,0,0,0-15.6,11,49.45,49.45,0,0,0-10.28,16.62,60.43,60.43,0,0,0-3.59,21.07,59.8,59.8,0,0,0,3.59,21.08A50.33,50.33,0,0,0,1340,117.58a47.76,47.76,0,0,0,15.6,11,51.67,51.67,0,0,0,39.58,0,43.77,43.77,0,0,0,15.59-11A51,51,0,0,0,1420.85,101ZM1396,118.09c-5.82,3.77-12.68,5.48-20.56,5.48-7.71,0-14.56-1.71-20.56-5.48a38.2,38.2,0,0,1-14.05-15.42c-3.43-6.51-5.14-14.22-5.14-23a49.23,49.23,0,0,1,5.14-23,39.43,39.43,0,0,1,14.05-15.42c6-3.77,12.85-5.48,20.56-5.48s14.74,1.71,20.56,5.48a40.26,40.26,0,0,1,13.88,15.42c3.43,6.51,5.14,14.22,5.14,23a49.23,49.23,0,0,1-5.14,23A39.07,39.07,0,0,1,1396,118.09Z"/><path class="cls-20" d="M1375.61,21.8c.52,0,1.2-.18,1.72.17a5.49,5.49,0,0,1,1.54-.52l14.39-7.19a4.43,4.43,0,0,0,2.06-1.89,5.06,5.06,0,0,0,.68-2.74,4.1,4.1,0,0,0-1.2-3.08,4.87,4.87,0,0,0-3.08-1.2,5.52,5.52,0,0,0-2.4.51,6.44,6.44,0,0,0-1.88,1l-13,10.11a3.41,3.41,0,0,0-1,1.2,3.8,3.8,0,0,0-.35,1.37,2.18,2.18,0,0,0,.69,1.71A3.54,3.54,0,0,0,1375.61,21.8Z"/><path class="cls-20" d="M1449.29,131.11a4.1,4.1,0,0,0,2.91-1.2,4.8,4.8,0,0,0,1.2-2.91V45.1l62.89,84.47a3.45,3.45,0,0,0,1.54,1,6.18,6.18,0,0,0,1.88.34,4.13,4.13,0,0,0,3.09-1.2,4.51,4.51,0,0,0,1.37-3.42V32.59a4,4,0,0,0-1-2.91,4.21,4.21,0,0,0-3.08-1.2,4.14,4.14,0,0,0-2.92,1.2,4.48,4.48,0,0,0-1.2,2.91V115l-63-85a3.16,3.16,0,0,0-1.71-1.2,8.93,8.93,0,0,0-1.89-.34,5.3,5.3,0,0,0-3.08,1.2,4.21,4.21,0,0,0-1.2,3.08v94.41a4.28,4.28,0,0,0,1,2.91A5.57,5.57,0,0,0,1449.29,131.11Z"/><path class="cls-20" d="M650.14,220.73a6.82,6.82,0,0,0-4.45.68A18.51,18.51,0,0,1,640,223.3a24.47,24.47,0,0,1-6,.51,28.46,28.46,0,0,1-10.11-1.71,20.57,20.57,0,0,1-8.06-5,23.78,23.78,0,0,1-5.48-8.4,30.22,30.22,0,0,1-1.88-11.65,29.06,29.06,0,0,1,1.71-10.45,22.52,22.52,0,0,1,5-8.23,20.86,20.86,0,0,1,7.88-5.31,26.1,26.1,0,0,1,10.62-1.88,36.18,36.18,0,0,1,6.17.51,51.08,51.08,0,0,1,5.48,1.89,8.4,8.4,0,0,0,4.46.85,4.89,4.89,0,0,0,3.77-2.22,7.22,7.22,0,0,0,1.71-5.66,5.81,5.81,0,0,0-3.25-4.45,26.23,26.23,0,0,0-8.4-3.09,44.45,44.45,0,0,0-25.36,1.89,38.58,38.58,0,0,0-12.51,8.22,34.64,34.64,0,0,0-8.22,12.51,42.89,42.89,0,0,0-2.91,15.76,44.57,44.57,0,0,0,3.08,17.31,34.41,34.41,0,0,0,8.74,12.51,38,38,0,0,0,12.68,7.54A43.39,43.39,0,0,0,634,237.35a40.41,40.41,0,0,0,6.34-.52c2-.51,4.11-.85,6.16-1.54a58.73,58.73,0,0,0,5.83-2.4,5.6,5.6,0,0,0,3.26-4.28,7.09,7.09,0,0,0-5.49-7.88Z"/><path class="cls-20" d="M727.25,169a35.06,35.06,0,0,0-11.83-8.57,38,38,0,0,0-30,0A32.79,32.79,0,0,0,673.62,169a37,37,0,0,0-7.71,12.68,45.57,45.57,0,0,0,0,31.18,40.94,40.94,0,0,0,7.71,12.68,36.67,36.67,0,0,0,11.82,8.57,36.23,36.23,0,0,0,14.91,3.09,37,37,0,0,0,15.07-3.09,34.32,34.32,0,0,0,11.83-8.57A37.3,37.3,0,0,0,735,212.84a45.72,45.72,0,0,0,0-31.18A41.44,41.44,0,0,0,727.25,169Zm-6.69,41.81a23.27,23.27,0,0,1-8,9.59,21.78,21.78,0,0,1-24,0,23.43,23.43,0,0,1-8-9.59,32,32,0,0,1-2.91-13.54,29.49,29.49,0,0,1,2.91-13.53,23.39,23.39,0,0,1,8-9.6,21.78,21.78,0,0,1,24,0,23.24,23.24,0,0,1,8,9.6,31.19,31.19,0,0,1,0,27.07Z"/><path class="cls-20" d="M808.64,158.53a5.21,5.21,0,0,0-4.29,1.71,6.84,6.84,0,0,0-1.71,4.46v48l-40.1-51.57a6.93,6.93,0,0,0-2.39-1.89,6.59,6.59,0,0,0-3.09-.51,6.33,6.33,0,0,0-4.8,1.88,6.1,6.1,0,0,0-1.88,4.8v64.77a6,6,0,0,0,1.71,4.45,5.69,5.69,0,0,0,4.29,1.72,6.51,6.51,0,0,0,4.45-1.72,6.81,6.81,0,0,0,1.71-4.45V182.86l40.27,51.74A4.16,4.16,0,0,0,805,236a8,8,0,0,0,2.91.51,6.29,6.29,0,0,0,4.8-1.89,6.06,6.06,0,0,0,1.88-4.79V165a5.81,5.81,0,0,0-1.71-4.46A4.6,4.6,0,0,0,808.64,158.53Z"/><path class="cls-20" d="M877.52,197.59a22.11,22.11,0,0,0-8.23-4.28,108.4,108.4,0,0,0-11.48-2.91,46.27,46.27,0,0,1-8.74-2.23,11.57,11.57,0,0,1-5.48-3.43,7.64,7.64,0,0,1-1.88-5.48,7.32,7.32,0,0,1,1.71-5,11.39,11.39,0,0,1,5-3.25,25.27,25.27,0,0,1,7.88-1.2,28.28,28.28,0,0,1,6.17.85c2.23.69,4.28,1.55,6.34,2.4a23.68,23.68,0,0,1,4.8,2.92,4.65,4.65,0,0,0,2.91,1,5.26,5.26,0,0,0,4.28-1.88,6.86,6.86,0,0,0,1.89-4.46,7.4,7.4,0,0,0-3.09-5.82,29,29,0,0,0-9.94-5.49,40.93,40.93,0,0,0-13.19-2,34.13,34.13,0,0,0-13.88,2.74,23.62,23.62,0,0,0-9.94,7.71,19.93,19.93,0,0,0-3.77,12.34,23,23,0,0,0,1.55,8.56,17.06,17.06,0,0,0,4.45,6.52,24.77,24.77,0,0,0,7.54,4.62,57.43,57.43,0,0,0,10.45,2.74,43.35,43.35,0,0,1,10.28,2.57,13.17,13.17,0,0,1,6,3.94,8.4,8.4,0,0,1,1.89,5.66,7.48,7.48,0,0,1-2.06,5,14.88,14.88,0,0,1-5.48,3.42,21,21,0,0,1-7.54,1.38,24.14,24.14,0,0,1-10.11-1.89,31.82,31.82,0,0,1-8.23-5.31,6,6,0,0,0-3.77-1.37,5.6,5.6,0,0,0-4.45,1.88,6.88,6.88,0,0,0-1.89,4.46,10.07,10.07,0,0,0,.69,3.08,11.87,11.87,0,0,0,2.23,2.92,34.15,34.15,0,0,0,11.65,6.85A43.52,43.52,0,0,0,855.76,237a31.46,31.46,0,0,0,13.87-2.91,26.13,26.13,0,0,0,10.28-7.88,20.49,20.49,0,0,0,4-12.51,26.58,26.58,0,0,0-1.72-9.59A13.2,13.2,0,0,0,877.52,197.59Z"/><path class="cls-20" d="M947.25,158.53H898.59a6.89,6.89,0,0,0-4.8,1.71,6.63,6.63,0,0,0,0,9.25,7,7,0,0,0,4.8,1.89H915.9v58.08a6.32,6.32,0,0,0,1.88,4.8,7.93,7.93,0,0,0,10.28,0,6.23,6.23,0,0,0,2.06-4.8V171.38h17.3a6.92,6.92,0,0,0,4.8-1.71,6.62,6.62,0,0,0,0-9.26A7,7,0,0,0,947.25,158.53Z"/><path class="cls-20" d="M972.78,158.53a6.85,6.85,0,0,0-5.14,1.88,6.1,6.1,0,0,0-1.88,4.8v64.08a6.32,6.32,0,0,0,1.88,4.8,6.24,6.24,0,0,0,5,1.89,6.58,6.58,0,0,0,4.8-1.89,6.23,6.23,0,0,0,2.06-4.8h.17V165.21a6.5,6.5,0,0,0-2.06-4.8A6.84,6.84,0,0,0,972.78,158.53Z"/><path class="cls-20" d="M1046.29,158.53H997.63a6.88,6.88,0,0,0-4.8,1.71,5.73,5.73,0,0,0-1.88,4.63,6.32,6.32,0,0,0,1.88,4.62,7,7,0,0,0,4.8,1.89h17.3v58.08a6.33,6.33,0,0,0,1.89,4.8,7.93,7.93,0,0,0,10.28,0,6.23,6.23,0,0,0,2.06-4.8V171.38h17.3a6.92,6.92,0,0,0,4.8-1.71,6.64,6.64,0,0,0,0-9.26A6.7,6.7,0,0,0,1046.29,158.53Z"/><path class="cls-20" d="M1119.11,158.36c-1.88,0-3.43.51-4.28,1.88a7.42,7.42,0,0,0-1.72,4.8v40.09a17.41,17.41,0,0,1-2.57,9.6,18.2,18.2,0,0,1-6.68,6.34,17.66,17.66,0,0,1-8.91,2.23,15.64,15.64,0,0,1-8.22-2.23,16.11,16.11,0,0,1-6.34-6.34,17.34,17.34,0,0,1-2.4-9.6V165a6.49,6.49,0,0,0-2.06-4.8,6.09,6.09,0,0,0-4.45-1.88,6.84,6.84,0,0,0-5.14,1.88,6.09,6.09,0,0,0-1.89,4.8v40.09a33.66,33.66,0,0,0,3.94,16.28,29.27,29.27,0,0,0,10.8,11.14,30.66,30.66,0,0,0,15.93,4.11,30.27,30.27,0,0,0,15.94-4.11,28.9,28.9,0,0,0,10.62-11.14,33.66,33.66,0,0,0,3.94-16.28V165a6.88,6.88,0,0,0-1.71-4.8A5.86,5.86,0,0,0,1119.11,158.36Z"/><path class="cls-20" d="M1194.16,220.73a6.67,6.67,0,0,0-4.45.68,17.11,17.11,0,0,1-5.66,1.89,24.55,24.55,0,0,1-6,.51,28.53,28.53,0,0,1-10.11-1.71,20.6,20.6,0,0,1-8-5,21.33,21.33,0,0,1-5.31-8.4,30.21,30.21,0,0,1-1.89-11.65,29.05,29.05,0,0,1,1.72-10.45,22.52,22.52,0,0,1,5-8.23,20.71,20.71,0,0,1,7.88-5.31,26.1,26.1,0,0,1,10.62-1.88,37.77,37.77,0,0,1,6.17.51,51.08,51.08,0,0,1,5.48,1.89,8.7,8.7,0,0,0,4.46.85,4.89,4.89,0,0,0,3.77-2.22,7.22,7.22,0,0,0,1.71-5.66,5.81,5.81,0,0,0-3.25-4.45,27.88,27.88,0,0,0-8.4-3.09,44.45,44.45,0,0,0-25.36,1.89,39.33,39.33,0,0,0-12.68,8.22,34.52,34.52,0,0,0-8.22,12.51,42.89,42.89,0,0,0-2.92,15.76,44.56,44.56,0,0,0,3.09,17.31,34.41,34.41,0,0,0,8.74,12.51,38,38,0,0,0,12.68,7.54,43.3,43.3,0,0,0,14.9,2.57,40.22,40.22,0,0,0,6.34-.52c2.06-.51,4.12-.85,6.17-1.54a41,41,0,0,0,5.83-2.4,6,6,0,0,0,3.25-4.28,6.61,6.61,0,0,0-1.71-5.66A5.78,5.78,0,0,0,1194.16,220.73Z"/><path class="cls-20" d="M1218.15,158.53a6.84,6.84,0,0,0-5.14,1.88,6.1,6.1,0,0,0-1.89,4.8v64.08a6.33,6.33,0,0,0,1.89,4.8,6.23,6.23,0,0,0,5,1.89,6.58,6.58,0,0,0,4.79-1.89,6.19,6.19,0,0,0,2.06-4.8h.17V165.21a6.49,6.49,0,0,0-2-4.8A6.87,6.87,0,0,0,1218.15,158.53Z"/><path class="cls-20" d="M1301.42,169a34.93,34.93,0,0,0-11.82-8.57,37.63,37.63,0,0,0-29.82,0A33,33,0,0,0,1248,169a37.3,37.3,0,0,0-7.71,12.68,45.72,45.72,0,0,0,0,31.18,41.32,41.32,0,0,0,7.71,12.68,36.89,36.89,0,0,0,11.82,8.57,37.52,37.52,0,0,0,29.82,0,34.28,34.28,0,0,0,11.82-8.57,37,37,0,0,0,7.71-12.68,46.38,46.38,0,0,0,2.74-15.59,42.56,42.56,0,0,0-2.74-15.59A38,38,0,0,0,1301.42,169Zm-6.68,41.81a23.43,23.43,0,0,1-8,9.59,21.78,21.78,0,0,1-24,0,23.37,23.37,0,0,1-8.06-9.59,32,32,0,0,1-2.91-13.54,29.61,29.61,0,0,1,2.91-13.53,23.34,23.34,0,0,1,8.06-9.6,21.78,21.78,0,0,1,24,0,23.39,23.39,0,0,1,8,9.6,31.28,31.28,0,0,1,0,27.07Z"/><path class="cls-20" d="M1382.81,158.53a5.19,5.19,0,0,0-4.28,1.71,6.85,6.85,0,0,0-1.72,4.46v48l-40.09-51.57a7,7,0,0,0-2.4-1.89,6.57,6.57,0,0,0-3.08-.51,6.32,6.32,0,0,0-4.8,1.88,6.1,6.1,0,0,0-1.89,4.8v64.77a6.82,6.82,0,0,0,1.72,4.45,5.68,5.68,0,0,0,4.28,1.72,6.53,6.53,0,0,0,4.46-1.72,6.86,6.86,0,0,0,1.71-4.45V182.86L1377,234.6a5,5,0,0,0,2.23,1.38,8.09,8.09,0,0,0,2.91.51,6.29,6.29,0,0,0,4.8-1.89,6.07,6.07,0,0,0,1.89-4.79V165a5.82,5.82,0,0,0-1.72-4.46A4.59,4.59,0,0,0,1382.81,158.53Z"/><path class="cls-20" d="M1438.84,162.47a5.57,5.57,0,0,0-2.57-3.26,7.59,7.59,0,0,0-3.77-1.2,6.55,6.55,0,0,0-3.94,1,7,7,0,0,0-2.74,3.43L1398.4,229a10.35,10.35,0,0,0-.34,2.06,6.13,6.13,0,0,0,1.54,4.11,5.52,5.52,0,0,0,4.29,1.71,6.35,6.35,0,0,0,3.42-1.2,6.71,6.71,0,0,0,2.4-3.25l5.66-13.54h32.72l5.83,13.71a7,7,0,0,0,2.57,3.25,5.89,5.89,0,0,0,7.88-.68,6.08,6.08,0,0,0,1.88-4.8,19,19,0,0,0-.51-2.74Zm-18,43.52,11-26L1443,206Z"/><path class="cls-20" d="M1522.8,224.84a6.88,6.88,0,0,0-4.8-1.72V223h-28.61V165a6.49,6.49,0,0,0-2.06-4.8,6.2,6.2,0,0,0-4.63-1.88,6.85,6.85,0,0,0-5.14,1.88,6.08,6.08,0,0,0-1.88,4.8v64.08a6.44,6.44,0,0,0,6.68,6.68H1518a7,7,0,0,0,4.8-1.88,6,6,0,0,0,1.88-4.63A5.83,5.83,0,0,0,1522.8,224.84Z"/></g></g></svg>