<svg id="Capa_1" data-name="Capa 1" xmlns="http://www.w3.org/2000/svg" viewBox="0 0 1920 221.43"><title>LogoTV_CNNCHILE</title><path d="M6239.5,6659.5h1920v221.43h-1920Z" transform="translate(-6239.5 -6659.5)" style="fill:#fff;opacity:0"/><path id="Shape" d="M7926.67,6786.82a14.53,14.53,0,0,1,14.48-14.43h10.93v-8.16H7941a22.59,22.59,0,0,0,0,45.17h21.26a2.25,2.25,0,0,0,2.15-2.15v-42.1a5.13,5.13,0,0,1,3.59-4.82,5.38,5.38,0,0,1,6.11,2.92l13.2,22.85,12.83,22.07c.67,1.13,1.59,1.7,2.47,1.44a1.65,1.65,0,0,0,1.18-1.69v-42.77a5.13,5.13,0,0,1,9.7-1.9l12.27,21.15,13.81,23.77c.66,1.13,1.59,1.7,2.46,1.44a1.64,1.64,0,0,0,1.18-1.69v-55.14H8035v32.91l-14.32-24.64c-8.68-14.74-25.11-8.68-25.11,4.05v20.54L7981.29,6761c-8.67-14.73-25.1-8.67-25.1,4.06v33.78a2.24,2.24,0,0,1-.62,1.59,2.1,2.1,0,0,1-1.59.72h-12.89A14.53,14.53,0,0,1,7926.67,6786.82Z" transform="translate(-6239.5 -6659.5)" style="fill:#fff"/><path d="M8046.54,6752.78v55.44a5.14,5.14,0,0,1-4.72,5.14h0a5.66,5.66,0,0,1-4.88-3.08l-13.81-23.77-12.37-21.36c-.67-1.13-1.59-1.69-2.42-1.43a1.64,1.64,0,0,0-1.18,1.69v42.76a5.14,5.14,0,0,1-3.59,4.83,5.4,5.4,0,0,1-6.11-2.93L7984.63,6788l-13.3-22.85c-.67-1.13-1.59-1.69-2.46-1.43a1.62,1.62,0,0,0-1.18,1.69v41.84a5.6,5.6,0,0,1-5.39,5.39H7941a25.88,25.88,0,0,1,0-51.75h11v-8.11h-11a34,34,0,0,0,0,68.07h21.46a12.48,12.48,0,0,0,9.91-3.64,12.32,12.32,0,0,0,3.49-10v-19.41l14.32,24.64c8.68,14.74,25.11,8.68,25.11-4v-20.54l14.58,24.65c8.67,14.73,25.1,8.67,25.1-4.06v-55.7Z" transform="translate(-6239.5 -6659.5)" style="fill:#fff"/><path d="M7926.21,6866.64a13.15,13.15,0,0,1-5.14-5.59,20,20,0,0,1-1.79-8.63,18.53,18.53,0,0,1,1.9-8.62,13.52,13.52,0,0,1,5.13-5.6,15.45,15.45,0,0,1,7.75-1.95,15.86,15.86,0,0,1,6.88,1.44,11.15,11.15,0,0,1,6.83,9.6h-7.29a6.25,6.25,0,0,0-2-3.65,6.78,6.78,0,0,0-4.47-1.48,6.47,6.47,0,0,0-3.95,1.18,7.58,7.58,0,0,0-2.57,3.49,17.81,17.81,0,0,0,0,11.09,7.17,7.17,0,0,0,2.52,3.49,6.51,6.51,0,0,0,3.85,1.18,7,7,0,0,0,4.67-1.44,6.58,6.58,0,0,0,2.05-4.31h7.24a11.37,11.37,0,0,1-2,6.16,12,12,0,0,1-5.14,4.16,15.9,15.9,0,0,1-6.93,1.43A15.3,15.3,0,0,1,7926.21,6866.64Z" transform="translate(-6239.5 -6659.5)" style="fill:#fff"/><polygon points="1711.66 177.52 1718.84 177.52 1718.84 189.43 1730.7 189.43 1730.7 177.52 1737.89 177.52 1737.89 208.32 1730.7 208.32 1730.7 195.34 1718.79 195.34 1718.79 208.32 1711.61 208.32 1711.66 177.52" style="fill:#fff"/><polygon points="1742.82 177.52 1750.06 177.52 1750.06 208.32 1742.82 208.32 1742.82 177.52" style="fill:#fff"/><polygon points="1755.09 177.52 1762.33 177.52 1762.33 202.52 1776.7 202.52 1776.7 208.32 1755.14 208.32 1755.09 177.52" style="fill:#fff"/><polygon points="1780.14 177.52 1802.42 177.52 1802.42 183.17 1787.02 183.17 1787.02 189.53 1801.08 189.53 1801.08 195.23 1787.33 195.23 1787.33 202.73 1802.73 202.73 1802.73 208.32 1780.14 208.32 1780.14 177.52" style="fill:#fff"/></svg>