<svg width="1257" height="341" xmlns="http://www.w3.org/2000/svg" xmlns:xlink="http://www.w3.org/1999/xlink" overflow="hidden"><defs><clipPath id="clip0"><rect x="24" y="190" width="1257" height="341"/></clipPath><clipPath id="clip1"><rect x="33" y="247" width="322" height="226"/></clipPath><clipPath id="clip2"><rect x="33" y="247" width="322" height="226"/></clipPath><clipPath id="clip3"><rect x="33" y="247" width="322" height="226"/></clipPath><clipPath id="clip4"><rect x="444" y="193" width="578" height="334"/></clipPath><clipPath id="clip5"><rect x="444" y="193" width="578" height="334"/></clipPath><clipPath id="clip6"><rect x="444" y="193" width="578" height="334"/></clipPath></defs><g clip-path="url(#clip0)" transform="translate(-24 -190)"><g clip-path="url(#clip1)"><g clip-path="url(#clip2)"><g clip-path="url(#clip3)"><path d="M314.31 35.1583C310.609 21.4122 299.771 10.5739 286.025 6.87305 260.912 0 160.459 0 160.459 0 160.459 0 60.007 0 34.894 6.6087 21.4122 10.3096 10.3096 21.4122 6.6087 35.1583 0 60.2714 0 112.348 0 112.348 0 112.348 0 164.689 6.6087 189.538 10.3096 203.284 21.1479 214.122 34.894 217.823 60.2714 224.696 160.459 224.696 160.459 224.696 160.459 224.696 260.912 224.696 286.025 218.087 299.771 214.386 310.609 203.548 314.31 189.802 320.919 164.689 320.919 112.612 320.919 112.612 320.919 112.612 321.183 60.2714 314.31 35.1583Z" fill="#FF0000" transform="matrix(1.00337 0 0 1 33 247.652)"/><path d="M212.007 112.348 128.473 64.2366 128.473 160.459Z" fill="#FFFFFF" transform="matrix(1.00337 0 0 1 33 247.652)"/></g></g></g><g clip-path="url(#clip4)"><g clip-path="url(#clip5)"><g clip-path="url(#clip6)"><path d="M166.687 2.84449C76.1993 2.84449 2.84449 76.1993 2.84449 166.687 2.84449 257.175 76.1993 330.53 166.687 330.53 215.314 330.53 258.994 309.345 289 275.702 319.006 309.345 362.686 330.53 411.313 330.53 501.801 330.53 575.156 257.175 575.156 166.687 575.156 76.1993 501.801 2.84449 411.313 2.84449 362.686 2.84449 319.006 24.0293 289 57.672 258.994 24.0293 215.314 2.84449 166.687 2.84449ZM166.687 38.685C237.381 38.685 294.689 95.9935 294.689 166.687 294.689 237.381 237.381 294.689 166.687 294.689 95.9935 294.689 38.685 237.381 38.685 166.687 38.685 95.9935 95.9935 38.685 166.687 38.685ZM97.1393 104.482 97.1393 231.061 181.301 231.061C219.673 231.061 250.013 207.367 250.013 167.771 250.013 128.176 218.251 104.482 181.301 104.482L97.1393 104.482ZM325.498 113.3 363.294 113.3 380.308 172.074 401.553 113.3 430.3 113.3 451.545 172.34 468.558 113.3 506.354 113.3 470.905 225.372 438.442 225.372 415.793 170.687 392.842 225.372 360.948 225.372 325.498 113.3ZM137.247 141.069 175.38 141.069C195.666 141.069 207.345 150.867 207.345 168.056 207.345 185.12 196.37 194.19 175.949 194.19L137.247 194.19 137.247 141.069Z" fill="#012D5B" transform="matrix(1 0 0 1.00188 444 193)"/></g></g></g></g></svg>