<?xml version="1.0" encoding="utf-8"?>
<!-- Generator: Adobe Illustrator 23.0.2, SVG Export Plug-In . SVG Version: 6.00 Build 0)  -->
<svg version="1.1" id="Capa_1" xmlns="http://www.w3.org/2000/svg" xmlns:xlink="http://www.w3.org/1999/xlink" x="0px" y="0px"
	 viewBox="0 0 80 74.8" style="enable-background:new 0 0 80 74.8;" xml:space="preserve">
<style type="text/css">
	.st0{fill:#FB0D12;}
</style>
<title>LogoTVCHILE</title>
<rect x="23.5" y="65.1" class="st0" width="10.6" height="3.1"/>
<rect x="42.3" y="58.8" class="st0" width="3.8" height="16"/>
<rect x="52" y="71.7" class="st0" width="10.6" height="3.1"/>
<rect x="68.5" y="65.2" class="st0" width="10.6" height="3.1"/>
<path class="st0" d="M12.8,69.4l2.5,2.2c-0.2,0.2-0.4,0.5-0.6,0.7c-1.2,1.2-2.7,2.1-4.4,2.3c-0.8,0.1-1.7,0.2-2.5,0.1
	c-1.5-0.1-3-0.5-4.3-1.4c-1.5-1-2.6-2.4-3.1-4.1c-0.5-1.7-0.5-3.5,0.1-5.2c0.6-2.1,2.2-3.8,4.3-4.5c1.1-0.4,2.3-0.7,3.4-0.7
	c1.3,0,2.5,0.1,3.7,0.6c1.1,0.4,2,1,2.8,1.8l0.1,0.1l-2.3,2.4l-0.2-0.3c-0.5-0.6-1.2-1-1.9-1.3c-1-0.3-2.1-0.4-3.1-0.1
	c-1.3,0.3-2.5,1.3-2.9,2.6c-0.6,1.5-0.6,3.1,0.1,4.6c0.6,1.4,1.9,2.4,3.4,2.5c0.8,0.1,1.5,0.1,2.3-0.1c1-0.3,1.8-0.9,2.4-1.7
	L12.8,69.4z"/>
<path class="st0" d="M28.6,10.6c0,0.1,0,0.1,0,0.2v34.8c0.1,2.7-2,5.1-4.7,5.4c-2.8,0.3-5.3-1.6-5.8-4.4c-0.1-0.4-0.1-0.7-0.1-1.1
	V10.6H5.3c-1.3,0-2.5-0.4-3.5-1.3c-1-0.8-1.6-2-1.8-3.3c-0.4-2.8,1.4-5.3,4.1-5.9C4.7,0,5.1,0,5.5,0h38.9c1,0,2.1,0.2,3,0.7
	c1.2,0.7,2.2,1.8,2.7,3.1c0.6,1.7,1.2,3.4,1.8,5.1l7.7,21.9c0,0.1,0.1,0.2,0.1,0.3l0.1-0.2l2.4-6.8c2.4-6.7,4.7-13.3,7.1-20
	c0.4-1.2,1.1-2.2,2.1-2.9c0.8-0.6,1.8-1,2.8-1.1c0.9-0.1,1.9,0,2.8,0.4c1.6,0.7,2.7,2.1,3,3.7C80.1,5.1,80,6,79.6,6.9l-4.4,12.5
	c-3.3,9.3-6.6,18.7-9.9,28c-0.3,0.9-0.8,1.8-1.5,2.4c-0.8,0.8-1.8,1.3-3,1.5c-1.1,0.2-2.2,0.1-3.2-0.3c-1.2-0.4-2.2-1.3-2.9-2.4
	c-0.3-0.4-0.5-0.9-0.6-1.4c-3.9-10.9-7.7-21.7-11.5-32.6L41.3,11c-0.1-0.3-0.1-0.3-0.3-0.3L28.6,10.6L28.6,10.6z"/>
<rect x="68.4" y="58.8" class="st0" width="11.6" height="3.1"/>
<rect x="52" y="58.8" class="st0" width="3.8" height="13.2"/>
<rect x="68.4" y="71.7" class="st0" width="11.6" height="3.1"/>
<rect x="68.4" y="58.8" class="st0" width="3.8" height="16"/>
<rect x="32.7" y="58.8" class="st0" width="3.8" height="16"/>
<rect x="21.1" y="58.8" class="st0" width="3.8" height="16"/>
</svg>
