<svg xmlns="http://www.w3.org/2000/svg" xmlns:xlink="http://www.w3.org/1999/xlink" viewBox="0 0 322 224.7"><defs><style>.cls-1{fill:none;}.cls-2{clip-path:url(#clip-path);}.cls-3{fill:red;}.cls-4{fill:#fff;}</style><clipPath id="clip-path" transform="translate(0 -0.65)"><rect class="cls-1" width="322" height="226"/></clipPath></defs><title>Logo_YT</title><g id="Capa_2" data-name="Capa 2"><g id="Capa_1-2" data-name="Capa 1"><g class="cls-2"><g class="cls-2"><g class="cls-2"><path class="cls-3" d="M315.37,35.81A40.26,40.26,0,0,0,287,7.53C261.79.65,161,.65,161,.65S60.21.65,35,7.26A41.08,41.08,0,0,0,6.63,35.81C0,60.92,0,113,0,113s0,52.34,6.63,77.19A40.26,40.26,0,0,0,35,218.47c25.46,6.88,126,6.88,126,6.88s100.79,0,126-6.61a40.27,40.27,0,0,0,28.38-28.29C322,165.34,322,113.26,322,113.26S322.27,60.92,315.37,35.81Z" transform="translate(0 -0.65)"/><path class="cls-4" d="M212.72,113,128.91,64.89v96.22Z" transform="translate(0 -0.65)"/></g></g></g></g></g></svg>