<svg xmlns="http://www.w3.org/2000/svg" xmlns:xlink="http://www.w3.org/1999/xlink" viewBox="0 0 1884.71 294"><defs><style>.cls-1{fill:none;}.cls-2{clip-path:url(#clip-path);}.cls-3,.cls-4{fill:red;}.cls-3{fill-rule:evenodd;}</style><clipPath id="clip-path" transform="translate(0 -1)"><rect class="cls-1" x="753.93" width="1222" height="296"/></clipPath></defs><title>Logo_CANAL24H</title><g id="Capa_2" data-name="Capa 2"><g id="Capa_1-2" data-name="Capa 1"><g class="cls-2"><path class="cls-3" d="M821.12,201.76c-4.85,0-8.73-2.19-10.43-6.08s-.48-8.25,2.91-11.9c9.22-9.95,18.2-17.48,27.66-25.5,4.85-4.13,10-8.5,15.28-13.36,7.76-6.07,11.65-16,9-23.56-1.94-5.83-7.52-9-15.29-9-6.55,0-13.34,3.89-17.22,10.21a10.44,10.44,0,0,1-9.22,5.1h0a10,10,0,0,1-8.73-4.62c-2.18-3.4-2.18-7.77-.24-12.14C821.37,98.29,834.22,91,850.23,91c17.47,0,31.06,8.26,36.63,21.86,6.07,15.06.73,33-13.82,47.36a187.22,187.22,0,0,1-27.9,20.41c2.43,0,5.09-.25,7.76-.49,3.88-.24,7.77-.49,11.16-.49h18.2c6.79,0,10.67,6.08,10.67,11.66a10.72,10.72,0,0,1-2.67,7.29,10.23,10.23,0,0,1-8,3.4H821.12Z" transform="translate(0 -1)"/><path class="cls-3" d="M960.72,202c-5.35,0-11.18-3.14-11.18-9.92V179.75H905.81c-5.83,0-10-2.17-11.91-5.8-1.94-4.11-1-9.43,2.92-14l52.72-63.36c2.92-3.14,5.83-5.56,11.91-5.56,7.77,0,10.44,6.53,10.44,11.85V158.5h6a9.27,9.27,0,0,1,7.53,3.39,10.51,10.51,0,0,1,2.43,7.25c0,5.56-3.4,11.12-10,11.12h-6V192.6C972.14,198.61,966.31,202,960.72,202Zm-10-44,.24-32.41L923.79,158Z" transform="translate(0 -1)"/><path class="cls-3" d="M899.79,295A146.82,146.82,0,0,1,755.08,172.5a10.32,10.32,0,1,1,20.36-3.4,126.58,126.58,0,1,0,0-41.72A10.32,10.32,0,1,1,755.08,124,147.27,147.27,0,0,1,900,1c81,0,146.9,66,146.9,147C1046.69,229,980.75,295,899.79,295Z" transform="translate(0 -1)"/><path class="cls-3" d="M1087.93,120.17c0-7,4.54-9.22,10-5.09l29.85,22.78c5.49,4.12,5.49,11.16,0,15.28l-29.85,22.78c-5.49,4.13-10,1.94-10-5.09Z" transform="translate(0 -1)"/></g><path class="cls-4" d="M1305.67,79.71V215H1270V162.42H1220.2V215h-35.49V79.71h35.49v52.18H1270V79.71Z" transform="translate(0 -1)"/><path class="cls-4" d="M1328.6,147.74a74.49,74.49,0,0,1,5.41-29,67.9,67.9,0,0,1,14.93-22.22,63.24,63.24,0,0,1,22.72-14.3,81.83,81.83,0,0,1,28.56-5,80,80,0,0,1,28.56,5,66.79,66.79,0,0,1,22.73,14.12,65.25,65.25,0,0,1,15.14,22.22,73.65,73.65,0,0,1,5.41,29,74.35,74.35,0,0,1-5.41,29,65.11,65.11,0,0,1-15.14,22.22,66.94,66.94,0,0,1-22.73,14.12,84.44,84.44,0,0,1-28.56,4.84,86.26,86.26,0,0,1-28.56-4.86,63.44,63.44,0,0,1-22.72-14.29A67.94,67.94,0,0,1,1334,176.34a73.63,73.63,0,0,1-5.41-29Zm46.09,28.6q9.09,10.41,25.32,10.41c10.82,0,19.25-3.48,25.53-10.44s9.31-16.61,9.31-29c0-12.56-3-22.22-9.31-29S1410.83,108.1,1400,108.1s-19.26,3.48-25.32,10.24-9.09,16.43-9.09,29Q1365.6,165.9,1374.69,176.34Z" transform="translate(0 -1)"/><path class="cls-4" d="M1572.45,215.18l-26-43.86h-16v44.06H1495V80.3h53.66a83.14,83.14,0,0,1,23.83,3.28,51.67,51.67,0,0,1,18.18,9.28,43.85,43.85,0,0,1,11.65,14.47,41.79,41.79,0,0,1,4.12,18.94c0,9.08-2.17,16.77-6.71,23.38s-10.82,11.6-19,15.27l31.59,50.25Zm-41.75-72.85,21.63.39a19,19,0,0,0,7.8-1.55,14.32,14.32,0,0,0,5.18-3.87,16.25,16.25,0,0,0,3-5.21,17.29,17.29,0,0,0,0-12,16.25,16.25,0,0,0-3-5.21,14.4,14.4,0,0,0-5.18-3.87,19.16,19.16,0,0,0-7.8-1.54H1530.7Z" transform="translate(0 -1)"/><path class="cls-4" d="M1718.72,193.73H1664l-7.6,21.26h-37.67l54.33-135.28h36.79L1764.17,215h-37.88Zm-10.38-28.4L1698,136c-.88-2.51-1.76-5-2.37-7.54s-1.31-4.64-1.95-6.57-1.09-3.48-1.52-4.63l-.64-1.77h-.23l-.43,1.77c-.43,1.15-.88,2.7-1.52,4.63s-1.29,4.06-2.16,6.57l-2.59,7.54L1674,165.33Z" transform="translate(0 -1)"/><path class="cls-4" d="M1850.5,122l-.66.78c-1.94-6-5.19-10.44-9.94-13.33a27.3,27.3,0,0,0-14.5-4.26q-7.47,0-11.69,2.91c-2.81,1.93-4.11,4.24-4.11,7a7.51,7.51,0,0,0,2.38,5.41,23.15,23.15,0,0,0,6.49,4.41c2.82,1.35,6.28,2.9,10.17,4.41s8.22,3.29,12.77,5c5,1.93,10.17,4.06,15.36,6.57a72.09,72.09,0,0,1,13.85,8.69,44.34,44.34,0,0,1,10.2,11.47,28.2,28.2,0,0,1,3.89,14.88,36,36,0,0,1-3.89,16.63,37.7,37.7,0,0,1-11.25,13.14,58.53,58.53,0,0,1-17.75,8.69,89.93,89.93,0,0,1-44.57.19,55.75,55.75,0,0,1-17.31-8.5,59.49,59.49,0,0,1-13-12.95,65.29,65.29,0,0,1-8.66-16.62l34-8.11a29.54,29.54,0,0,0,3.89,7.73,30.55,30.55,0,0,0,6.07,6.57,29.9,29.9,0,0,0,8.22,4.63,28.44,28.44,0,0,0,10.17,1.77c5.63,0,10-1.16,13-3.29s4.54-4.82,4.54-8.11a8.72,8.72,0,0,0-2.59-6.38,26.5,26.5,0,0,0-7.36-5,84.11,84.11,0,0,0-11.25-4.41,144.9,144.9,0,0,1-13.85-5c-4.76-1.93-9.52-4.41-14.28-6.76a60.39,60.39,0,0,1-12.55-8.11,35.22,35.22,0,0,1-8.83-11,33,33,0,0,1-3.25-15.07,29.2,29.2,0,0,1,3.9-14.3A41.33,41.33,0,0,1,1789,89a55.54,55.54,0,0,1,16.89-8.7A70.33,70.33,0,0,1,1827.77,77a63.84,63.84,0,0,1,19.51,2.9,65.44,65.44,0,0,1,16.45,7.73,53.4,53.4,0,0,1,12.77,11.59,48.05,48.05,0,0,1,7.78,14.5Z" transform="translate(0 -1)"/><path class="cls-4" d="M98,123.16l-.21.59a29,29,0,0,0-12.18-9.93,38.11,38.11,0,0,0-15.36-3.27c-10.87,0-19.17,3.59-25.12,10.64s-8.89,16.65-8.85,29c0,12.51,3.27,22.07,9.69,28.89s14.74,10.11,25,10.08A38.27,38.27,0,0,0,88.58,185a27.3,27.3,0,0,0,12.11-12.74l34.56,8.28a64,64,0,0,1-24.84,29.6c-11.27,7.27-24.47,10.64-39.61,10.69A83,83,0,0,1,42.65,216a62.15,62.15,0,0,1-22.43-14.38A68.85,68.85,0,0,1,5.43,179.18,76.39,76.39,0,0,1,0,149.88a76.25,76.25,0,0,1,5.23-29.33A68.72,68.72,0,0,1,19.86,98,62.33,62.33,0,0,1,42.19,83.48a78.52,78.52,0,0,1,28.12-5.17c14.28,0,26.87,3,37.55,9.44a66.61,66.61,0,0,1,25,26.89Z" transform="translate(0 -1)"/><path class="cls-4" d="M240.18,196l-53.93.19-7.39,21.52-37.09.13,53-137L231,80.68,285,217.3l-37.3.13Zm-10.33-28.69L219.51,137.6c-.86-2.54-1.72-5.08-2.37-7.62s-1.29-4.68-1.94-6.64-1.08-3.51-1.51-4.68L213,116.9h-.21l-.42,1.76c-.42,1.18-.84,2.74-1.47,4.7s-1.27,4.11-2.11,6.65-1.69,5.09-2.53,7.63L196,167.38Z" transform="translate(0 -1)"/><path class="cls-4" d="M424.37,80l.05,137.2-32,.11-29.56-41.14c-2.78-3.9-6.21-8.19-9.63-12.67s-6.43-8.77-9.21-12.67-5.14-7-7.07-9.55l-2.78-3.9h-.43l.23,3.51c.22,2.35.23,5.67.46,10.17s.46,9.77.69,15.82.26,12.71.28,20.13l.11,30.1-34.75.12-.47-136.61,32-.11,31.27,43.08,7.71,10.53c3,4.1,6,8,8.78,11.7s4.92,6.82,7.06,9.55l3,3.9h.21v-3.91l0-10.36c0-4.3,0-9.38-.26-15.24s-.26-11.92-.28-18.37l-.11-31.27Z" transform="translate(0 -1)"/><path class="cls-4" d="M539.87,194.93l-53.93.18-7.39,21.53-37.09.13,53-137,36.24-.12,54,136.62-37.3.13Zm-10.33-28.7L519.2,136.56c-.86-2.54-1.72-5.07-2.37-7.61s-1.29-4.69-1.94-6.64-1.08-3.51-1.51-4.69l-.64-1.75h-.22l-.42,1.76c-.42,1.17-.84,2.74-1.47,4.69s-1.27,4.11-2.11,6.66-1.69,5.08-2.53,7.63l-10.34,29.74Z" transform="translate(0 -1)"/><path class="cls-4" d="M700.13,185.38l.1,30.49-99.54.35-.47-136.81,34.95-.12.37,106.32Z" transform="translate(0 -1)"/></g></g></svg>