<svg xmlns="http://www.w3.org/2000/svg" viewBox="0 0 256.8 35.3"><path d="M0 17.2c0 9.5 7.7 17.2 17.2 17.2h2.3v-6.8h-2.3c-5.7 0-10.4-4.7-10.4-10.4S11.5 6.8 17.2 6.8h2.3V0h-2.3C7.7 0 0 7.7 0 17.2M26.9 0h6.7v13.8h-6.7zm0 20.6h6.7v13.7h-6.7zm28.4-6.8l-7.6 10.7V0h-6.5v34.4h6.5l15.5-20.6z" fill="#e72b6d"/><path d="M67.8.2h4.6L90 23.5h.1V1h6.5v34h-4.7L74.3 11.7v22.7h-6.5zm49 35.1c-10.2 0-16.5-7.8-16.5-17.6 0-9.9 6.5-17.5 16.5-17.5 9.9 0 16.5 7.6 16.5 17.5 0 9.8-6.4 17.6-16.5 17.6m0-28.7c-6.1 0-9.8 5.4-9.8 10.8 0 5.1 2.6 11.4 9.8 11.4 7.2 0 9.8-6.3 9.8-11.4-.1-5.4-3.7-10.8-9.8-10.8m29.9 27.8h-6.5V6.7h-6.7V1h19.9v5.7h-6.7zM156.4 1h6.5v33.3h-6.5zm34 8.9c-1.8-2.2-4.6-3.5-7.3-3.5-6.2 0-9.8 5.7-9.8 11.5 0 5.6 3.7 11.2 9.8 11.2 2.8 0 5.6-1.5 7.4-3.5v7.7c-2.4 1.1-4.9 2-7.6 2-9.4 0-16.3-8.1-16.3-17.3 0-9.5 6.7-17.8 16.4-17.8 2.6 0 5.2.7 7.4 1.9v7.8zm5.5-8.9h6.5v33.3h-6.5zm18.6 26.3l-2.7 7h-6.9l13-34.2h5l12.6 34.2h-6.9l-2.6-7h-11.5zm5.6-17.4L216.3 22h7.9l-4.1-12.1zm32.6-1.5c-1.2-1.7-2.8-2.7-5-2.7-2.1 0-4.1 1.6-4.1 3.8 0 5.6 13.2 3.3 13.2 14.5 0 6.7-4.2 11.4-11 11.4-4.6 0-8-2.7-10.3-6.5l4.2-4.1c.9 2.6 3.2 4.9 6 4.9 2.7 0 4.3-2.3 4.3-4.8 0-3.4-3.2-4.4-5.8-5.4-4.3-1.8-7.4-3.9-7.4-9.1 0-5.5 4.1-10 9.7-10 3 0 7.1 1.5 9.1 3.7l-2.9 4.3z" fill="#1e3d78"/></svg>