<svg xmlns="http://www.w3.org/2000/svg" viewBox="0 0 197.82 132"><defs><style>.cls-1{fill:#ff662d;}</style></defs><title>Logo_T13</title><g id="Capa_2" data-name="Capa 2"><g id="Capa_1-2" data-name="Capa 1"><path class="cls-1" d="M145.31,0a11.6,11.6,0,0,0,1.17.12l48,0c1.12,0,1.12,0,1.12,1.14,0,8,0,15.93,0,23.89a2.19,2.19,0,0,1-.61,1.59q-12.58,13.65-25.13,27.33c-.14.16-.27.33-.49.6,1,.25,2,.45,2.86.72,8.2,2.36,15,6.7,19.86,13.87a33.27,33.27,0,0,1,5.12,13.41,50.11,50.11,0,0,1,.42,11.86c-.59,7.91-2.59,15.36-7.26,21.93a36.1,36.1,0,0,1-16.94,12.82A42.3,42.3,0,0,1,162,132c-.22,0-.45,0-.67,0H127.67c-1,0-1,0-1-1V108.11c0-1,0-1.06,1.08-1.06,10.34,0,20.69,0,31,0a11.28,11.28,0,0,0,6.24-1.83,15.26,15.26,0,0,0,6.58-8.54A23.67,23.67,0,0,0,172,82.6c-1.75-6.08-6-9.63-12-11.17a9.94,9.94,0,0,0-2.43-.26q-10.12,0-20.25,0c-.73,0-1-.17-1-1q0-9.86,0-19.72A2.06,2.06,0,0,1,137,49q7.55-8.22,15.08-16.46l5.28-5.77c.16-.18.31-.38.57-.71-.43,0-.73,0-1,0H127.65c-1,0-1,0-1-1.07q0-12.09,0-24.19c0-.24,0-.49,0-.74Z"/><path class="cls-1" d="M89.77,0q-4.69,5.22-9.4,10.45C75.92,15.39,71.45,20.31,67,25.26a1.92,1.92,0,0,1-1.65.76c-1.43-.07-2.88,0-4.31,0-.48,0-.69.15-.66.64,0,.27,0,.54,0,.82V131.78a1.62,1.62,0,0,1-.4-.07,62.7,62.7,0,0,1-17.63-11.56A30.05,30.05,0,0,1,34.74,107a55.63,55.63,0,0,1-2.4-12.66c-.08-1.3-.12-2.62-.12-3.93q0-31.64,0-63.27c0-1.28.1-1.13-1.1-1.13Q16,26,1,26c-.32,0-.64,0-1,.05V0Z"/><path class="cls-1" d="M120.44,0c0,.4,0,.79,0,1.19V131.78a1.21,1.21,0,0,1-.33-.05c-6.73-3.26-13.09-7.08-18.44-12.37a30.55,30.55,0,0,1-7.77-14.25,42.9,42.9,0,0,1-1.38-11.17q0-33.22,0-66.47a3.87,3.87,0,0,1,0-.59c.11-.75-.24-.9-.93-.9-6,0-12,0-17.94,0h-.77l2.2-2.47Q85.43,12,95.81.47A5.45,5.45,0,0,0,96.18,0Z"/></g></g></svg>