<svg xmlns="http://www.w3.org/2000/svg" viewBox="0 0 318 511"><title>Logo_EARLY-EST</title><g id="Capa_2" data-name="Capa 2"><g id="Capa_1-2" data-name="Capa 1"><polyline points="296 0 133 63 54 302 168 511 296 0" style="fill:#009"/><path d="M307,86,248,51,136,400l21,21,39.05-21.1L318,334l-21-76-81.11,62.8L173,354Q240,220,307,86Z" style="fill:#62a91f"/><polygon points="278.67 69.19 307 86 242.07 216.39 278.67 69.19" style="fill:#efa700"/><polyline points="89 459 194 98 172 79 0 181 14 274 153 147 23 416 89 459" style="fill:#e30000"/><polygon points="195.79 400.04 318 334 297 258 215.59 321.03 195.79 400.04" style="fill:#efa700"/></g></g></svg>