<?xml version="1.0" encoding="utf-8"?>
<svg version="1.1" id="Capa_1" xmlns="http://www.w3.org/2000/svg" xmlns:xlink="http://www.w3.org/1999/xlink" x="0px" y="0px"
	 viewBox="0 0 173.3 117" style="enable-background:new 0 0 173.3 117;" xml:space="preserve">
<style type="text/css">
	.st0{fill:#DB6430;}
	.st1{fill:#FF6C1C;}
</style>
<title>t13-icons</title>
<path class="st0" d="M76.5,1.1H3.3C2.5,1.1,1.9,1.6,1.8,2.3l0,0V22c0,0.6,0.6,1.5,1.2,1.5h25c0.6,0,1.5,0.6,1.5,1.2l0,0v57.2
	c0,0,0.6,13.7,7.1,21.1c4.4,4.7,9.7,8.5,15.5,11.3c0.7,0.3,1.4,0,1.8-0.6V25c0-0.6,0.6-1.2,1.5-1.5h3c0.3,0,0.9-0.3,0.9-0.6
	L77.1,3.2c0.6-0.6,0.6-1.5,0-1.8C77.1,1.1,76.8,1.1,76.5,1.1z"/>
<path class="st0" d="M76.5,1.1H3.3C2.5,1.1,1.9,1.6,1.8,2.3l0,0V22c0,0.6,0.6,1.5,1.2,1.5h25c0.6,0,1.5,0.6,1.5,1.2l0,0v57.2
	c0,0,0.6,13.7,7.1,21.1c4.4,4.7,9.7,8.5,15.5,11.3c0.7,0.3,1.4,0,1.8-0.6V25c0-0.6,0.6-1.2,1.5-1.5h3c0.3,0,0.9-0.3,0.9-0.6
	L77.1,3.2c0.6-0.6,0.6-1.5,0-1.8C77.1,1.1,76.8,1.1,76.5,1.1z"/>
<path class="st1" d="M76.5,1.1H3.3C2.5,1.1,1.9,1.6,1.8,2.3l0,0V22c0,0.6,0.6,1.5,1.2,1.5h25c0.6,0,1.5,0.6,1.5,1.2l0,0v57.2
	c0,0,0.6,13.7,7.1,21.1c4.4,4.7,9.7,8.5,15.5,11.3c0.7,0.3,1.4,0,1.8-0.6V25c0-0.6,0.6-1.2,1.5-1.5h3c0.3,0,0.9-0.3,0.9-0.6
	L77.1,3.2c0.6-0.6,0.6-1.5,0-1.8C77.1,1.1,76.8,1.1,76.5,1.1z"/>
<path class="st0" d="M104.8,1.1H85.7c-0.3,0-0.9,0.3-0.9,0.6L67,21.4c-0.5,0.5-0.5,1.3,0,1.8l0,0c0.2,0.2,0.6,0.3,0.9,0.3h12.5
	c0.8,0,1.4,0.5,1.5,1.3c0,0.1,0,0.1,0,0.2v58.4c0,0-0.3,12.8,8,20.8c4.3,3.9,9.1,7.2,14.3,9.8c0.7,0.3,1.4,0,1.8-0.6l0,0V2
	C106,1.7,105.4,1.4,104.8,1.1z"/>
<path class="st1" d="M104.8,1.1H85.7c-0.3,0-0.9,0.3-0.9,0.6L67,21.4c-0.5,0.5-0.5,1.3,0,1.8l0,0c0.2,0.2,0.6,0.3,0.9,0.3h12.5
	c0.8,0,1.4,0.5,1.5,1.3c0,0.1,0,0.1,0,0.2v58.4c0,0-0.3,12.8,8,20.8c4.3,3.9,9.1,7.2,14.3,9.8c0.7,0.3,1.4,0,1.8-0.6l0,0V2
	C106,1.7,105.4,1.4,104.8,1.1z"/>
<path class="st0" d="M168.5,1.4h-57.2c-0.8,0-1.4,0.5-1.5,1.3c0,0.1,0,0.1,0,0.2v19.6c0,0.6,0.6,1.2,1.5,1.5H134
	c0.8,0,1.4,0.5,1.5,1.3c0,0.1,0,0.1,0,0.2c0,0.3-0.1,0.7-0.3,0.9L118.8,44c-0.2,0.2-0.3,0.6-0.3,0.9v17c0,0.8,0.5,1.4,1.3,1.5
	c0.1,0,0.1,0,0.2,0h18.2c1.2,0,13.4,2.4,11.9,17.6c-1.2,11-8.9,13.1-10.1,13.1h-28.6c-0.6,0-1.2,0.6-1.5,1.5V114
	c0,0.8,0.5,1.4,1.3,1.5c0.1,0,0.1,0,0.2,0h29.2c0,0,31.3-1.2,31.3-36.3c0-22-16.1-28.3-22.3-30.1c-0.7-0.3-1.1-1-0.9-1.8
	c0-0.3,0.3-0.3,0.3-0.6l20.8-22.6c0.2-0.2,0.3-0.6,0.3-0.9V2.6C169.9,1.9,169.2,1.4,168.5,1.4L168.5,1.4z"/>
<path class="st1" d="M168.5,1.4h-57.2c-0.8,0-1.4,0.5-1.5,1.3c0,0.1,0,0.1,0,0.2v19.6c0,0.6,0.6,1.2,1.5,1.5H134
	c0.8,0,1.4,0.5,1.5,1.3c0,0.1,0,0.1,0,0.2c0,0.3-0.1,0.7-0.3,0.9L118.8,44c-0.2,0.2-0.3,0.6-0.3,0.9v17c0,0.8,0.5,1.4,1.3,1.5
	c0.1,0,0.1,0,0.2,0h18.2c1.2,0,13.4,2.4,11.9,17.6c-1.2,11-8.9,13.1-10.1,13.1h-28.6c-0.6,0-1.2,0.6-1.5,1.5V114
	c0,0.8,0.5,1.4,1.3,1.5c0.1,0,0.1,0,0.2,0h29.2c0,0,31.3-1.2,31.3-36.3c0-22-16.1-28.3-22.3-30.1c-0.7-0.3-1.1-1-0.9-1.8
	c0-0.3,0.3-0.3,0.3-0.6l20.8-22.6c0.2-0.2,0.3-0.6,0.3-0.9V2.6C169.9,1.9,169.2,1.4,168.5,1.4L168.5,1.4z"/>
</svg>
