<svg xmlns="http://www.w3.org/2000/svg" viewBox="0 0 1482.83 226.77"><title>Logo_ROSCOSMOS2</title><g id="Capa_2" data-name="Capa 2"><g id="Capa_1-2" data-name="Capa 1"><path d="M170.4,51.64l1.46-.4C99.13,73.81,41.59,112.48,40.4,140.88c-1.26,30.4,62.52,37.53,142.43,15.93s145.74-63.76,147-94.15c.65-15.75-16.18-25.25-43.65-27.75,33.58,1.5,54.62,11.29,54.62,28.76,0,33.31-76.31,81.94-170.4,108.61S0,193.55,0,160.25,76.3,78.31,170.4,51.65" style="fill:#6d6e71;fill-rule:evenodd"/><polygon points="36.97 226.77 273.19 0 251.78 178.27 212.72 133.54 36.97 226.77" style="fill:#ed1941;fill-rule:evenodd"/><path d="M455.77,170.64,430,132.46H416.92v38.18H395.1V56.11H436c29.83,0,43.64,16,43.64,38.17,0,16-9.37,31.36-26.24,36.49l29,39.88Zm-38.85-60h21.81c10.58,0,19.09-6.83,19.09-16.37,0-10.74-8.51-16.35-19.09-16.35H416.92Z" style="fill:#6d6e71"/><path d="M617.9,113.37a60,60,0,1,1-60-60h0A60.09,60.09,0,0,1,617.9,113.37Zm-21.81,0a38.12,38.12,0,1,0,0,.16Z" style="fill:#6d6e71"/><path d="M726.61,136.55c0,20.45-15.67,36.83-46,36.83-29.33,0-44.66-17-46.7-19.1l10.91-19.09a50.45,50.45,0,0,0,36.12,16.37c15.18,0,23.86-5.64,23.86-13.64s-8.17-12.09-23.17-14.31c-32.56-4.94-43.63-17-43.63-34.42,0-19.1,15.5-35.79,44-35.79a61.38,61.38,0,0,1,39.22,14L712,86.12a48,48,0,0,0-30.34-10.91c-11.6,0-21.82,3.22-21.82,12.44,0,7.82,6.66,10.72,23.18,13.46C708,105.19,726.61,112,726.61,136.55Z" style="fill:#6d6e71"/><path d="M833,139.8l8.35,19.77a57.61,57.61,0,0,1-37.16,13.8c-33.57,0-61-26.93-61-60s27.45-60,61-60c12.79,0,27.44,4.76,37.16,13.62L833,86.79A40.66,40.66,0,0,0,804.54,75.2c-21.82,0-39.55,17-39.55,38.17s17.74,38.19,39.55,38.19A39.52,39.52,0,0,0,833,139.8Z" style="fill:#6d6e71"/><path d="M975.54,113.37a60,60,0,1,1-60-60h0A60.08,60.08,0,0,1,975.54,113.37Zm-21.82,0a38.11,38.11,0,1,0,0,.17Z" style="fill:#6d6e71"/><path d="M1084.27,136.55c0,20.45-15.69,36.83-46,36.83-29.32,0-44.66-17-46.7-19.1l10.9-19.09a50.51,50.51,0,0,0,36.14,16.37c15.16,0,23.86-5.64,23.86-13.64s-8.18-12.09-23.18-14.31c-32.55-4.94-43.63-17-43.63-34.42,0-19.1,15.52-35.79,44-35.79a61.41,61.41,0,0,1,39.21,14l-9.21,18.75a48,48,0,0,0-30.34-10.91c-11.59,0-21.82,3.22-21.82,12.44,0,7.82,6.66,10.72,23.18,13.46C1065.7,105.19,1084.27,112,1084.27,136.55Z" style="fill:#6d6e71"/><path d="M1237.61,170.64h-23.18l-9.55-75-30,75H1164l-30-75-9.54,75h-23.18l16.36-114.53h21.82l30,73.63,30-73.63h21.82Z" style="fill:#6d6e71"/><path d="M1374.12,113.37a60,60,0,1,1-60-60h0A60.09,60.09,0,0,1,1374.12,113.37Zm-21.82,0a38.11,38.11,0,1,0,0,.18v-.18Z" style="fill:#6d6e71"/><path d="M1482.83,136.55c0,20.45-15.68,36.83-46,36.83-29.32,0-44.66-17-46.7-19.1L1401,135.19a50.49,50.49,0,0,0,36.13,16.37c15.16,0,23.86-5.64,23.86-13.64s-8.18-12.09-23.18-14.31c-32.55-4.94-43.63-17-43.63-34.42,0-19.1,15.52-35.79,44-35.79a61.36,61.36,0,0,1,39.19,14l-9.21,18.75a47.94,47.94,0,0,0-30.33-10.91c-11.59,0-21.82,3.22-21.82,12.44,0,7.82,6.65,10.72,23.18,13.46C1464.26,105.19,1482.83,112,1482.83,136.55Z" style="fill:#6d6e71"/></g></g></svg>