<svg xmlns="http://www.w3.org/2000/svg" viewBox="0 0 1000.02 464.66"><title>Logo_CNN</title><g id="Capa_2" data-name="Capa 2"><g id="Capa_1-2" data-name="Capa 1"><path d="M75.75,232.47C75.75,317.7,145.08,387,230.31,387H374.75c9.07,0,16.1-8.62,16.1-16V87.76A32.45,32.45,0,0,1,451.2,71.2l90.69,156.37,90.66,156.32a13.48,13.48,0,0,0,25-7V87.76A32.44,32.44,0,0,1,717.89,71.2c.73,1.23,44.4,76.59,90.64,156.38l90.59,156.31a13.48,13.48,0,0,0,25-7V2H867.21V225.17S764.11,47.71,760.77,42c-15-25.73-43.59-42-74-42A86.19,86.19,0,0,0,600.6,86.18v139S497.5,47.72,494.16,42c-15.05-25.73-43.6-42-74-42A86.19,86.19,0,0,0,334,86.19V314.55a15.22,15.22,0,0,1-14.84,15.58H231a97.66,97.66,0,0,1,0-195.31h73.5V77.92H230.34c-85.23,0-154.56,69.33-154.56,154.55" style="fill:red"/><path d="M943.06,2V376.9a32.45,32.45,0,0,1-60.35,16.57c-.72-1.24-44.4-76.6-90.63-156.38-44.18-76.22-89.85-155-90.6-156.31a13.47,13.47,0,0,0-25,7V376.92a32.45,32.45,0,0,1-60.35,16.57c-.72-1.24-44.43-76.59-90.7-156.38C481.21,160.83,435.5,82,434.75,80.83a13.47,13.47,0,0,0-25,7V371.06c0,18.65-16.39,35-35.06,35H230.34c-95.68,0-173.53-77.84-173.53-173.53S134.66,59,230.34,59h74.11V2.1h-74C103.18,2.1,0,105.27,0,232.53S103.18,463,230.45,463h145.7c55.22,0,90.72-32.32,90.65-92V239.49S570.64,418.21,573.25,422.66c15,25.73,43.59,42,74,42a86.19,86.19,0,0,0,86.17-86.18v-139S836.53,416.94,839.86,422.65c15.06,25.73,43.6,42,74,42A86.18,86.18,0,0,0,1000,378.47V2Z" style="fill:red"/><path d="M56.81,232.47C56.81,328.16,134.65,406,230.34,406H374.75c18.68,0,35.07-16.36,35.07-35V87.76a13.48,13.48,0,0,1,25-7c.72,1.25,46.45,80.08,90.66,156.32,46.27,79.79,90,155.14,90.7,156.38a32.45,32.45,0,0,0,60.35-16.58V87.76a13.48,13.48,0,0,1,25-7c.74,1.27,46.41,80.09,90.59,156.31,46.23,79.79,89.91,155.15,90.63,156.39a32.45,32.45,0,0,0,60.35-16.58V2h-19V376.89a13.48,13.48,0,0,1-25,7L808.51,227.58C762.27,147.79,718.6,72.43,717.87,71.2a32.44,32.44,0,0,0-60.34,16.56V376.89a13.48,13.48,0,0,1-25,7L541.87,227.57c-46.27-79.78-90-155.14-90.7-156.37a32.44,32.44,0,0,0-60.34,16.56V371c0,7.42-7,16-16.1,16H230.34c-85.23,0-154.56-69.33-154.56-154.56S145.11,77.88,230.34,77.88h74.11v-19H230.34c-95.69,0-173.53,77.85-173.53,173.53" style="fill:#fff"/></g></g></svg>