<?xml version="1.0" encoding="UTF-8"?>
<!DOCTYPE svg PUBLIC "-//W3C//DTD SVG 1.1//EN" "http://www.w3.org/Graphics/SVG/1.1/DTD/svg11.dtd">
<!-- Creator: CorelDRAW -->
<svg xmlns="http://www.w3.org/2000/svg" xml:space="preserve" width="1109.4mm" height="507.4mm" style="shape-rendering:geometricPrecision; text-rendering:geometricPrecision; image-rendering:optimizeQuality; fill-rule:evenodd; clip-rule:evenodd"
viewBox="0 0 1109.4 507.4">
 <defs>
  <style type="text/css">
   <![CDATA[
    .fil1 {fill:#00A4CC}
    .fil2 {fill:#225D9A}
    .fil3 {fill:#25327B}
    .fil0 {fill:white}
   ]]>
  </style>
 </defs>
 <g id="Capa_x0020_1">
  <metadata id="CorelCorpID_0Corel-Layer"/>
  <path class="fil0" d="M160.491 396.975l17.8838 -59.2862 32.7959 59.2862 85.343 0 -46.4314 -70.0438 12.909 0c7.6498,0 14.8752,-1.2327 21.6765,-3.7054 6.8012,-2.469 12.7838,-6.2939 17.9513,-11.4748 5.1637,-5.1771 9.3128,-11.6727 12.4435,-19.4831 3.1267,-7.8068 4.9301,-17.13 5.4026,-27.9697 0.2639,-6.0549 -0.0207,-11.4337 -0.8504,-16.1364 -0.8336,-4.6989 -2.6508,-8.6844 -5.4555,-11.9529 -2.8085,-3.2645 -6.7236,-5.7373 -11.7492,-7.4107 -5.0295,-1.6734 -11.6044,-2.5101 -19.7323,-2.5101l-141.043 0 -54.056 170.687 72.912 0zm83.6029 -102.675c-1.0779,2.7902 -2.6216,5.3003 -4.6312,7.5303 -2.0098,2.2337 -4.5623,4.0639 -7.6504,5.4983 -3.0918,1.4344 -6.7088,2.1515 -10.8513,2.1515l-32.7507 0 10.6264 -35.3805 31.7945 0c5.0985,0 8.9602,0.9562 11.5886,2.8687 2.6247,1.9124 3.8486,4.9418 3.668,9.0841 -0.1183,2.7118 -0.7162,5.461 -1.7939,8.2476z"/>
  <path class="fil1" d="M204.062 482.165c-94.0679,0 -170.325,-76.2577 -170.325,-170.326 0,-94.0685 76.2571,-170.326 170.325,-170.326 94.0678,0 170.325,76.2576 170.325,170.326 0,94.0685 -76.2571,170.326 -170.325,170.326zm115.553 -234.004c-0.8336,-4.6989 -2.6508,-8.6844 -5.4555,-11.9529 -2.8085,-3.2645 -6.7236,-5.7373 -11.7492,-7.4107 -5.0295,-1.6734 -11.6044,-2.5101 -19.7323,-2.5101l-141.043 0 -54.056 170.687 72.912 0 17.8838 -59.2862 32.7959 59.2862 85.343 0 -46.4314 -70.0438 12.909 0c7.6498,0 14.8752,-1.2327 21.6765,-3.7054 6.8012,-2.469 12.7838,-6.2939 17.9513,-11.4748 5.1637,-5.1771 9.3128,-11.6727 12.4435,-19.4831 3.1267,-7.8068 4.9301,-17.13 5.4026,-27.9697 0.2639,-6.0549 -0.0207,-11.4337 -0.8504,-16.1364zm-75.5209 46.1381c-1.0779,2.7902 -2.6216,5.3003 -4.6312,7.5303 -2.0098,2.2337 -4.5623,4.0639 -7.6504,5.4983 -3.0918,1.4344 -6.7088,2.1515 -10.8513,2.1515l-32.7507 0 10.6264 -35.3805 31.7945 0c5.0985,0 8.9602,0.9562 11.5886,2.8687 2.6247,1.9124 3.8486,4.9418 3.668,9.0841 -0.1183,2.7118 -0.7162,5.461 -1.7939,8.2476z"/>
  <polygon class="fil0" points="529.462,226.586 448.306,226.586 395.655,396.732 590.043,396.732 608.336,338.348 494.842,338.348 "/>
  <path class="fil2" d="M502.176 482.165c-94.0679,0 -170.325,-76.2577 -170.325,-170.326 0,-94.0685 76.2571,-170.326 170.325,-170.326 94.0678,0 170.325,76.2576 170.325,170.326 0,94.0685 -76.2571,170.326 -170.325,170.326zm27.286 -255.579l-81.1559 0 -52.6508 170.146 194.388 0 18.2931 -58.3834 -113.495 0 34.6203 -111.762z"/>
  <polygon class="fil0" points="749.19,397.092 773.841,308.257 774.339,308.257 795.254,397.092 879.911,397.092 927.718,226.586 851.028,226.586 824.137,325.451 823.639,325.451 807.704,226.586 720.307,226.586 672.501,397.092 "/>
  <path class="fil3" d="M1077.15 418.166l-38.4373 -14.7448c10.9603,-28.4815 16.9717,-59.4194 16.9717,-91.7623 0,-141.152 -114.426,-255.579 -255.578,-255.579 -46.9668,0 -90.9721,12.6726 -128.79,34.7795 -5.58,-9.5955 -21.4307,-36.829 -21.4307,-36.829 43.9581,-25.7371 95.1004,-40.487 149.68,-40.487 164.146,0 297.213,133.39 297.213,297.936 0,37.5962 -6.9516,73.5635 -19.6287,106.687zm-405.84 -327.303c0.0021,-0.0013 0.0042,-0.0025 0.0064,-0.0037 2.2592,3.885 2.8351,4.8793 -0.0064,0.0037zm128.977 50.6502c94.0678,0 170.325,76.2576 170.325,170.326 0,94.0685 -76.2572,170.326 -170.325,170.326 -94.068,0 -170.325,-76.2577 -170.325,-170.326 0,-94.0685 76.2571,-170.326 170.325,-170.326zm-51.0993 255.579l24.6503 -88.8352 0.4979 0 20.9155 88.8352 84.6573 0 47.8066 -170.506 -76.6897 0 -26.8912 98.865 -0.4979 0 -15.9355 -98.865 -87.3963 0 -47.8066 170.506 76.6896 0zm50.7388 -277.208c-35.196,0 -68.1735,9.4933 -96.5169,26.0547 -8.2387,-14.136 -15.183,-26.051 -21.0313,-36.0856 34.8094,-20.6516 75.4284,-32.5056 118.81,-32.5056 129.007,0 233.589,104.824 233.589,234.131 0,29.7663 -5.5459,58.2332 -15.6518,84.4248l-40.3812 -15.4987c8.2498,-21.3888 12.7758,-44.6285 12.7758,-68.9261 0,-105.815 -85.7792,-191.594 -191.593,-191.594z"/>
 </g>
</svg>
