<?xml version="1.0" encoding="utf-8"?>
<!-- Generator: Adobe Illustrator 23.0.2, SVG Export Plug-In . SVG Version: 6.00 Build 0)  -->
<svg version="1.1" id="Capa_1" xmlns="http://www.w3.org/2000/svg" xmlns:xlink="http://www.w3.org/1999/xlink" x="0px" y="0px"
	 viewBox="0 0 95.1 66.8" style="enable-background:new 0 0 95.1 66.8;" xml:space="preserve">
<style type="text/css">
	.st0{fill:#3F42C3;}
</style>
<title>Logo_MEGA</title>
<path class="st0" d="M80.7,57.3c-4.6,1.9-9.8-0.2-11.8-4.7L54,21.2c-1.9-4.5,0.2-9.7,4.7-11.7c4.6-1.9,9.8,0.2,11.8,4.7l14.8,31.6
	C87.2,50.3,85.1,55.4,80.7,57.3 M51.1,57.3c-4.6,1.9-9.8-0.2-11.8-4.7L24.4,21.2c-1.9-4.5,0.1-9.7,4.6-11.7c1-0.5,2.1-0.7,3.3-0.8
	h0.9c1.1,0,2.2,0.3,3.3,0.8c2.2,0.9,3.9,2.7,4.7,5l14.6,31.1C57.7,50.1,55.6,55.4,51.1,57.3 M26.1,52.6c-2,4.6-7.3,6.6-11.8,4.7
	c-4.5-1.9-6.6-7-4.8-11.5l0.1-0.2l8.1-17.4l9.8,21L26.1,52.6z M93.4,42L78.6,10.6c-4.1-9-14.8-13-23.9-8.9c-2.9,1.3-5.4,3.4-7.3,6.1
	l0,0C44.2,3.1,39,0.2,33.3,0h-1.4C25.1,0.3,19,4.4,16.2,10.6L1.5,41.8c-4,8.9,0,19.3,8.9,23.3c0,0,0,0,0,0l0.3,0.1
	c7.9,3.4,17.1,0.8,22-6.2c4.9,7.1,14.1,9.7,22,6.2c3.1-1.3,5.7-3.6,7.5-6.4c4.9,7.1,14.1,9.7,22,6.4c8.8-3.6,13.1-13.6,9.5-22.4
	C93.7,42.5,93.6,42.3,93.4,42"/>
</svg>
