<svg xmlns="http://www.w3.org/2000/svg" viewBox="0 0 621.99 238.76"><title>Logo_CC</title><g id="Capa_2" data-name="Capa 2"><g id="Capa_1-2" data-name="Capa 1"><path d="M45.52,166.57a10.67,10.67,0,0,1-8.92-16.5,332.1,332.1,0,0,1,28.52-37.65,10.66,10.66,0,0,1,16.08,14l-.08.09a309.39,309.39,0,0,0-26.68,35.22A10.63,10.63,0,0,1,45.52,166.57Z" style="fill:#5b117a"/><path d="M120.84,85a10.68,10.68,0,0,1-6.36-19.24,329.31,329.31,0,0,1,39.77-25.42,10.67,10.67,0,1,1,10.14,18.78,309.74,309.74,0,0,0-37.2,23.77A10.62,10.62,0,0,1,120.84,85Z" style="fill:#72014a"/><path d="M226.09,32.71a10.67,10.67,0,0,1-2.78-21,331.42,331.42,0,0,1,46.3-9.07,10.67,10.67,0,0,1,2.58,21.19,309.49,309.49,0,0,0-43.31,8.48A10.57,10.57,0,0,1,226.09,32.71Z" style="fill:#006837"/><path d="M10.66,238.76a10.84,10.84,0,0,1-3.39-.55A10.68,10.68,0,0,1,.56,224.69c2-6,4.23-12,6.59-17.95A10.66,10.66,0,1,1,27,214.41c0,.09-.07.19-.11.28-2.22,5.52-4.29,11.17-6.17,16.79A10.66,10.66,0,0,1,10.66,238.76Z" style="fill:#47117c"/><path d="M122.94,161.55a10.68,10.68,0,0,1-7.75-18,273,273,0,0,1,37.72-33.27,10.67,10.67,0,0,1,12.54,17.26,251.35,251.35,0,0,0-34.76,30.66A10.6,10.6,0,0,1,122.94,161.55Z" style="fill:#9d005d"/><path d="M221.81,95.52a10.68,10.68,0,0,1-3.64-20.72A272,272,0,0,1,266.8,62.1a10.68,10.68,0,0,1,3.45,21.07,250.44,250.44,0,0,0-44.82,11.7A10.43,10.43,0,0,1,221.81,95.52Z" style="fill:#009b41"/><path d="M72.6,238.76a10.66,10.66,0,0,1-9.81-14.83,271,271,0,0,1,14-28.4,10.66,10.66,0,0,1,18.53,10.56h0a249.7,249.7,0,0,0-12.9,26.15A10.65,10.65,0,0,1,72.6,238.76Z" style="fill:#263681"/><path d="M137.18,238.76a10.65,10.65,0,0,1-9.18-16,212.82,212.82,0,0,1,33.15-43.38A10.66,10.66,0,0,1,177,193.68c-.22.23-.44.46-.68.68a191.39,191.39,0,0,0-29.83,39A10.64,10.64,0,0,1,137.18,238.76Z" style="fill:#459bff"/><path d="M228.22,155a10.68,10.68,0,0,1-4.31-20.44,212.66,212.66,0,0,1,52.3-15.49,10.67,10.67,0,0,1,3.37,21.08,190.87,190.87,0,0,0-47.06,13.93A10.61,10.61,0,0,1,228.22,155Z" style="fill:#39b44a"/><ellipse cx="311" cy="128.76" rx="10.65" ry="10.67" style="fill:#fff"/><ellipse cx="195.98" cy="165.89" rx="10.65" ry="10.67" style="fill:#fff"/><path d="M484.81,238.76a10.66,10.66,0,0,1-9.24-5.33,191.35,191.35,0,0,0-29.82-39,10.66,10.66,0,1,1,14.44-15.68,8.73,8.73,0,0,1,.68.68A213,213,0,0,1,494,222.74a10.67,10.67,0,0,1-3.89,14.58h0A10.52,10.52,0,0,1,484.81,238.76Z" style="fill:#f9de3d"/><path d="M393.77,155a10.66,10.66,0,0,1-4.31-.92,190.87,190.87,0,0,0-47.06-13.93,10.67,10.67,0,1,1,3.37-21.08,212.73,212.73,0,0,1,52.31,15.49A10.68,10.68,0,0,1,393.77,155Z" style="fill:#d6140b"/><ellipse cx="426.01" cy="165.89" rx="10.65" ry="10.67" style="fill:#fff"/><ellipse cx="102.73" cy="174.62" rx="10.65" ry="10.67" style="fill:#fff"/><ellipse cx="189.35" cy="98.89" rx="10.65" ry="10.67" style="fill:#fff"/><ellipse cx="310.99" cy="68.28" rx="10.65" ry="10.67" style="fill:#fff"/><path d="M499,161.55a10.62,10.62,0,0,1-7.75-3.35,251.27,251.27,0,0,0-34.75-30.66A10.67,10.67,0,0,1,469,110.28a272.21,272.21,0,0,1,37.71,33.27,10.69,10.69,0,0,1-.44,15.09A10.53,10.53,0,0,1,499,161.55Z" style="fill:#f7931e"/><path d="M400.18,95.52a10.45,10.45,0,0,1-3.63-.65,250.12,250.12,0,0,0-44.81-11.7,10.68,10.68,0,0,1,3.45-21.07,271.29,271.29,0,0,1,48.62,12.7,10.68,10.68,0,0,1-3.63,20.72Z" style="fill:#ba1717"/><path d="M549.38,238.76a10.64,10.64,0,0,1-9.81-6.52,251.69,251.69,0,0,0-12.9-26.15,10.66,10.66,0,1,1,18.42-10.73l.1.17a273,273,0,0,1,14,28.4,10.66,10.66,0,0,1-9.81,14.83Z" style="fill:#f4a321"/><ellipse cx="519.26" cy="174.62" rx="10.65" ry="10.67" style="fill:#fff"/><ellipse cx="432.63" cy="98.89" rx="10.65" ry="10.67" style="fill:#fff"/><ellipse cx="28.01" cy="184.68" rx="10.65" ry="10.67" style="fill:#fff"/><ellipse cx="94.61" cy="96.62" rx="10.65" ry="10.67" style="fill:#fff"/><ellipse cx="192.21" cy="33.71" rx="10.65" ry="10.67" style="fill:#fff"/><ellipse cx="310.99" cy="10.67" rx="10.65" ry="10.67" style="fill:#fff"/><path d="M576.47,166.57a10.67,10.67,0,0,1-8.94-4.84,309.31,309.31,0,0,0-26.67-35.22,10.66,10.66,0,1,1,15.92-14.18l.08.09a332.1,332.1,0,0,1,28.52,37.65,10.67,10.67,0,0,1-8.92,16.5Z" style="fill:#f97c00"/><path d="M501.14,85a10.6,10.6,0,0,1-6.35-2.11,308.51,308.51,0,0,0-37.2-23.77,10.67,10.67,0,1,1,10.15-18.78,329.31,329.31,0,0,1,39.77,25.42A10.68,10.68,0,0,1,501.14,85Z" style="fill:#f05a24"/><path d="M395.9,32.71a11,11,0,0,1-2.79-.37,309.77,309.77,0,0,0-43.31-8.48,10.67,10.67,0,1,1,2.58-21.19,331.42,331.42,0,0,1,46.3,9.07,10.67,10.67,0,0,1-2.78,21Z" style="fill:#8b0815"/><path d="M611.33,238.76a10.66,10.66,0,0,1-10.1-7.28c-1.88-5.63-4-11.27-6.17-16.79a10.65,10.65,0,1,1,19.77-7.95h0c2.37,5.89,4.59,11.93,6.6,17.95a10.68,10.68,0,0,1-6.71,13.52A10.84,10.84,0,0,1,611.33,238.76Z" style="fill:#f4d708"/><ellipse cx="593.97" cy="184.68" rx="10.65" ry="10.67" style="fill:#fff"/><ellipse cx="527.38" cy="96.62" rx="10.65" ry="10.67" style="fill:#fff"/><ellipse cx="429.77" cy="33.71" rx="10.65" ry="10.67" style="fill:#fff"/></g></g></svg>