<?xml version="1.0" encoding="utf-8"?>
<!-- Generator: Adobe Illustrator 24.0.2, SVG Export Plug-In . SVG Version: 6.00 Build 0)  -->
<svg version="1.1" id="Capa_1" xmlns="http://www.w3.org/2000/svg" xmlns:xlink="http://www.w3.org/1999/xlink" x="0px" y="0px"
	 viewBox="0 0 170 137.7" style="enable-background:new 0 0 170 137.7;" xml:space="preserve">
<style type="text/css">
	.st0{fill:#FF6C1C;}
</style>
<path class="st0" d="M168.3,131c-12-8.6-25-15.1-38.5-19.5c1.2-0.8,2.3-1.6,3.4-2.6c7.1-6.2,11-15.2,10.8-24.6
	c0.3-5.8-1.3-11.5-4.5-16.4c-2.2-3.3-5.1-6-8.5-7.9c-0.4-0.2-0.8-0.5-1.1-0.8c-1-1.6-0.7-3.7,0.8-4.8c2.8-1.9,5.2-4.3,7.1-7.1
	c3.1-4.2,4.8-9.2,4.8-14.4c0.3-9.1-3.4-17.9-10.2-24C125.9,2.9,116.6,0,104.7,0C98.2-0.2,91.8,1.1,86,4c-5.4,2.5-10,6.4-13.3,11.3
	c-2.4,3.8-3.9,8-4.5,12.4V28c0,1.9,1.5,3.4,3.4,3.4h15.8c1.6-0.1,2.9-1.3,3.1-2.8c0.6-2.5,2-4.8,4-6.5c3-2.6,6.8-3.9,10.8-3.7
	c4,0,7.9,1.4,11,4c2.8,2.8,4.3,6.8,4,10.8c0.3,4.2-1.1,8.4-4,11.6c-3.4,3-7.9,4.6-12.4,4.2h-1.7c-4.8,0-8.7,3.9-8.8,8.8l0,0
	c0,4.9,3.8,9,8.8,9.3h1.1c12.2,0,18.4,5.7,18.4,17.3c0.1,4.2-1.5,8.3-4.5,11.3c-7,5.7-17,5.9-24,0.3c-2.4-2.1-3.9-4.8-4.5-7.9
	c-0.1-1.6-1.5-2.8-3.1-2.8H69.3c-1.8,0.3-3,1.9-2.8,3.7c0.4,5.9,2.6,11.4,6.2,16c-4.2,0.4-8.5,0.9-12.7,1.7V4
	c0.1-1.8-1.3-3.3-3.1-3.4c-0.1,0-0.2,0-0.3,0c-0.4,0-0.8,0.1-1.1,0.3L21.8,13.3c-1.7,0.6-2.5,1.7-2.5,2.8l0,0v12.2
	c0,1.8,1.3,3.2,3.1,3.4c0.4,0,0.8-0.1,1.1-0.3l12.4-4c0.3,0,0.6,0.1,0.8,0.3v84.8C24.4,117,12.5,123.1,1.4,131c-1.5,1-1.9,3-0.9,4.5
	c0,0,0,0,0,0c0.8,1.1,2.3,1.7,3.7,1.4c26.3-7.1,53.4-10.7,80.6-10.8c27.2,0,54.3,3.7,80.6,10.8c1.8,0.5,3.6-0.5,4.2-2.3
	C170.3,133.3,169.7,131.7,168.3,131z"/>
</svg>
