<svg viewBox="0 0 96 96" xmlns="http://www.w3.org/2000/svg" xmlns:xlink="http://www.w3.org/1999/xlink" id="Icons_Podcast" overflow="hidden"><path d="M83.89 46.38C83.5204 51.5974 81.4515 56.55 78 60.48L80.62 63.48C90.226 53.0297 90.4924 37.0446 81.24 26.28L78.24 28.86C82.3772 33.7169 84.4103 40.0212 83.89 46.38Z"/><path d="M75.91 45.78C75.6783 48.879 74.5412 51.8417 72.64 54.3L75.28 57.37C81.589 49.9027 81.5041 38.9486 75.08 31.58L72.08 34.16C74.8535 37.3685 76.2321 41.5511 75.91 45.78Z"/><path d="M14.43 63.52 17.05 60.52C9.12748 51.5179 9.02522 38.0615 16.81 28.94L13.81 26.36C4.55758 37.1246 4.824 53.1097 14.43 63.56Z"/><path d="M15.1 46.08C15.3978 50.2394 17.0165 54.195 19.72 57.37L22.36 54.3C17.7334 48.3063 17.9719 39.8824 22.93 34.16L19.93 31.58C16.4131 35.5542 14.6688 40.7907 15.1 46.08Z"/><path d="M49.82 77.2 49.82 67.77C58.6618 66.6057 65.271 59.0681 65.27 50.15L65.27 42.42 60.64 42.42 60.64 50.15C60.64 57.407 54.757 63.29 47.5 63.29 40.243 63.29 34.36 57.407 34.36 50.15L34.36 42.42 29.73 42.42 29.73 50.15C29.7289 59.0681 36.3382 66.6057 45.18 67.77L45.18 77.2 29 77.2 29 81.83 66.1 81.83 66.1 77.2Z"/><path d="M47.5 60.2C53.0228 60.2001 57.5001 55.723 57.5001 50.2001 57.5001 50.1834 57.5001 50.1667 57.5 50.15L49.82 50.15 49.82 47.06 57.55 47.06 57.55 42.42 49.82 42.42 49.82 39.33 57.55 39.33 57.55 34.7 49.82 34.7 49.82 31.61 57.55 31.61 57.55 27 49.82 27 49.82 23.88 57.55 23.88C57.55 18.3295 53.0505 13.83 47.5 13.83 41.9495 13.83 37.45 18.3295 37.45 23.88L37.45 50.15C37.4223 55.6728 41.877 60.1723 47.3997 60.2 47.4332 60.2002 47.4666 60.2002 47.5 60.2Z"/></svg>