<svg viewBox="0 0 96 96" xmlns="http://www.w3.org/2000/svg" xmlns:xlink="http://www.w3.org/1999/xlink" id="Icons_RadioMicrophone" overflow="hidden"><path d="M51 86 51 73.8C62.3 72.3 71 62.7 71 51L71 41 65 41 65 51C65 60.4 57.4 68 48 68 38.6 68 31 60.4 31 51L31 41 25 41 25 51C25 62.7 33.7 72.3 45 73.8L45 86 24 86 24 92 72 92 72 86 51 86Z"/><path d="M48 64C55.2 64 61 58.2 61 51L51 51 51 47 61 47 61 41 51 41 51 37 61 37 61 31 51 31 51 27 61 27 61 21 51 21 51 17 61 17C61 9.8 55.2 4 48 4 40.8 4 35 9.8 35 17L35 51C35 58.2 40.8 64 48 64Z"/></svg>