<svg width="1282" height="642" xmlns="http://www.w3.org/2000/svg" xmlns:xlink="http://www.w3.org/1999/xlink" overflow="hidden"><defs><clipPath id="clip0"><rect x="-1" y="-1" width="1282" height="642"/></clipPath><clipPath id="clip1"><rect x="299" y="300" width="42" height="41"/></clipPath><clipPath id="clip2"><rect x="299" y="300" width="42" height="41"/></clipPath><clipPath id="clip3"><rect x="299" y="300" width="42" height="41"/></clipPath><clipPath id="clip4"><rect x="939" y="300" width="42" height="41"/></clipPath><clipPath id="clip5"><rect x="939" y="300" width="42" height="41"/></clipPath><clipPath id="clip6"><rect x="939" y="300" width="42" height="41"/></clipPath></defs><g clip-path="url(#clip0)" transform="translate(1 1)"><rect x="0" y="632" width="1280" height="8" fill="#FFFFFF"/><rect x="636" y="0" width="8" height="636" fill="#FFFFFF"/><g clip-path="url(#clip1)"><g clip-path="url(#clip2)"><g clip-path="url(#clip3)"><path d="M37.5833 16.2292 24.7708 16.2292 20.5 3.41667 16.2292 16.2292 3.41667 16.2292 13.2396 24.7708 9.39583 37.5833 20.5 29.8958 31.6042 37.5833 27.7604 24.7708Z" stroke="#000000" stroke-width="0.666669" fill="#FFFFFF" transform="matrix(1.02439 0 0 1 299 300)"/></g></g></g><g clip-path="url(#clip4)"><g clip-path="url(#clip5)"><g clip-path="url(#clip6)"><path d="M37.5833 16.2292 24.7708 16.2292 20.5 3.41667 16.2292 16.2292 3.41667 16.2292 13.2396 24.7708 9.39583 37.5833 20.5 29.8958 31.6042 37.5833 27.7604 24.7708Z" stroke="#000000" stroke-width="0.666669" fill="#FFFFFF" transform="matrix(1.02439 0 0 1 939 300)"/></g></g></g><rect x="523" y="576" width="113" height="19" fill="#BFBFBF"/><text font-family="Assistant,Assistant_MSFontService,sans-serif" font-weight="700" font-size="9" transform="translate(536.89 589)">?? -<tspan font-size="9" x="15.3333" y="0">MAPBOX </tspan><tspan font-size="9" x="52.1667" y="0">-</tspan><tspan font-size="9" x="57" y="0">AINMcl</tspan></text><rect x="523" y="595" width="113" height="37" fill="#FFFFFF"/><rect x="1167" y="576" width="113" height="19" fill="#BFBFBF"/><text font-family="Assistant,Assistant_MSFontService,sans-serif" font-weight="700" font-size="9" transform="translate(1180.64 589)">?? -<tspan font-size="9" x="15.3334" y="0">MAPBOX </tspan><tspan font-size="9" x="52.1667" y="0">-</tspan><tspan font-size="9" x="57" y="0">AINMcl</tspan></text><rect x="1167" y="595" width="113" height="37" fill="#FFFFFF"/></g></svg>