<svg xmlns="http://www.w3.org/2000/svg" viewBox="0 0 178.15 235.3"><title>Numero4</title><g id="Capa_2" data-name="Capa 2"><g id="Capa_1-2" data-name="Capa 1"><path d="M124.71,235.3a15.69,15.69,0,0,1-11.77-4.88,16.91,16.91,0,0,1-4.7-12.27V47.06l6.05,2L41.68,141.85,40,137.48H162.36a15.49,15.49,0,0,1,15.79,15.8A14.36,14.36,0,0,1,173.62,164a15.62,15.62,0,0,1-11.26,4.37H16.81q-6.06,0-11.43-4.88A15.11,15.11,0,0,1,0,151.94a17,17,0,0,1,4.37-11.43L111.26,6.72a14.73,14.73,0,0,1,6-5A18.53,18.53,0,0,1,125,0a16.15,16.15,0,0,1,12.11,4.87,17,17,0,0,1,4.7,12.27v201a16.32,16.32,0,0,1-5,12.27A16.8,16.8,0,0,1,124.71,235.3Z"/></g></g></svg>