<svg viewBox="0 0 96 96" xmlns="http://www.w3.org/2000/svg" xmlns:xlink="http://www.w3.org/1999/xlink" id="Icons_Radio" overflow="hidden"><path d="M80 52 16 52 16 40 80 40 80 52ZM80 64 44 64 44 60 80 60 80 64ZM80 72 44 72 44 68 80 68 80 72ZM80 80 44 80 44 76 80 76 80 80ZM26 80C20.5 80 16 75.5 16 70 16 64.5 20.5 60 26 60 31.5 60 36 64.5 36 70 36 75.5 31.5 80 26 80ZM84 32 80 32 30 11.5C29.7 9.5 28 8 26 8 23.8 8 22 9.8 22 12 22 14.2 23.8 16 26 16 26.9 16 27.8 15.7 28.4 15.2L69.4 32 12 32C9.8 32 8 33.8 8 36L8 84C8 86.2 9.8 88 12 88L84 88C86.2 88 88 86.2 88 84L88 36C88 33.8 86.2 32 84 32Z"/><circle cx="26" cy="70" r="2"/></svg>