<svg xmlns="http://www.w3.org/2000/svg" viewBox="0 0 772.82 132"><defs><style>.cls-1{fill:#ff662d;}</style></defs><title>T13ENVIVO</title><g id="Capa_2" data-name="Capa 2"><g id="Capa_1-2" data-name="Capa 1"><path class="cls-1" d="M145.31,0a11.6,11.6,0,0,0,1.17.12l48,0c1.12,0,1.12,0,1.12,1.14,0,8,0,15.93,0,23.89a2.19,2.19,0,0,1-.61,1.59q-12.58,13.65-25.13,27.33c-.14.16-.27.33-.49.6,1,.25,2,.45,2.86.72,8.2,2.36,15,6.7,19.86,13.87a33.27,33.27,0,0,1,5.12,13.41,50.11,50.11,0,0,1,.42,11.86c-.59,7.91-2.59,15.36-7.26,21.93a36.1,36.1,0,0,1-16.94,12.82A42.3,42.3,0,0,1,162,132c-.22,0-.45,0-.67,0H127.67c-1,0-1,0-1-1V108.11c0-1,0-1.06,1.08-1.06,10.34,0,20.69,0,31,0a11.28,11.28,0,0,0,6.24-1.83,15.26,15.26,0,0,0,6.58-8.54A23.67,23.67,0,0,0,172,82.6c-1.75-6.08-6-9.63-12-11.17a9.94,9.94,0,0,0-2.43-.26q-10.12,0-20.25,0c-.73,0-1-.17-1-1q0-9.86,0-19.72A2.06,2.06,0,0,1,137,49q7.55-8.22,15.08-16.46l5.28-5.77c.16-.18.31-.38.57-.71-.43,0-.73,0-1,0H127.65c-1,0-1,0-1-1.07q0-12.09,0-24.19c0-.24,0-.49,0-.74Z"/><path class="cls-1" d="M89.77,0q-4.69,5.22-9.4,10.45C75.92,15.39,71.45,20.31,67,25.26a1.92,1.92,0,0,1-1.65.76c-1.43-.07-2.88,0-4.31,0-.48,0-.69.15-.66.64,0,.27,0,.54,0,.82V131.78a1.62,1.62,0,0,1-.4-.07,62.7,62.7,0,0,1-17.63-11.56A30.05,30.05,0,0,1,34.74,107a55.63,55.63,0,0,1-2.4-12.66c-.08-1.3-.12-2.62-.12-3.93q0-31.64,0-63.27c0-1.28.1-1.13-1.1-1.13Q16,26,1,26c-.32,0-.64,0-1,.05V0Z"/><path class="cls-1" d="M120.44,0c0,.4,0,.79,0,1.19V131.78a1.21,1.21,0,0,1-.33-.05c-6.73-3.26-13.09-7.08-18.44-12.37a30.55,30.55,0,0,1-7.77-14.25,42.9,42.9,0,0,1-1.38-11.17q0-33.22,0-66.47a3.87,3.87,0,0,1,0-.59c.11-.75-.24-.9-.93-.9-6,0-12,0-17.94,0h-.77l2.2-2.47Q85.43,12,95.81.47A5.45,5.45,0,0,0,96.18,0Z"/><path class="cls-1" d="M361.58,74.89q0,16,0,32.1c0,5.29-.38,5.64-5.76,5.64H338.87c-5.75,0-6.48-.74-6.49-6.66q0-18.49,0-37,0-21.79,0-43.58c0-5.14.92-6,6.06-6,6.23,0,12.45.1,18.67-.05a5.58,5.58,0,0,1,5.59,3c7,11.37,14.23,22.61,21.39,33.89a18.51,18.51,0,0,0,1.31,1.54c0-6.83,0-13,0-19.17,0-5,.05-9.91,0-14.87,0-3.05,1.33-4.4,4.4-4.37q10.2.11,20.4,0c3.28,0,4.54,1.57,4.53,4.67q0,42,0,84c0,3.13-1.35,4.65-4.6,4.6-6.92-.09-13.84-.1-20.75,0a4.91,4.91,0,0,1-4.71-2.72C377.85,99,370.91,88.13,364,77.24c-.55-.86-1.16-1.68-1.75-2.53Z"/><path class="cls-1" d="M772.78,66.32c1,26.15-20.33,48.36-48.34,48.18s-49-20.29-48.81-48.62c.14-29.45,22-48.22,48.73-48.38C752.18,17.33,773.94,39.3,772.78,66.32ZM724.14,85.4c11.09.06,19.34-7.83,19.21-19.05-.14-12.08-8.2-19.81-18.88-19.85-11.73,0-19.2,8.44-19.22,19.52S712.82,85.87,724.14,85.4Z"/><path class="cls-1" d="M256.83,66.05q0-20.59,0-41.17c0-4.58.93-5.51,5.44-5.52h55c4.23,0,4.83.61,4.85,4.8q0,9.17,0,18.33c0,3.82-1.12,4.93-5,4.94-9.22,0-18.45,0-27.67,0-1.56,0-3.37-.38-3.37,2.22s1.81,2.18,3.37,2.18c8,0,15.91,0,23.87,0,3.85,0,5,1.09,5.07,4.87q.12,9,0,18c0,3.86-1.33,5.09-5.31,5.12-7.84,0-15.68,0-23.52,0-1.75,0-3.58-.23-3.5,2.51.08,2.55,1.86,2.22,3.42,2.22,9.23,0,18.45,0,27.68,0,4.67,0,5.63,1,5.64,5.72,0,5.89-.07,11.77,0,17.65.06,3.15-1.08,4.65-4.42,4.64-18.92-.07-37.83,0-56.74-.05-3.74,0-4.86-1.16-4.87-5C256.81,93.72,256.83,79.88,256.83,66.05Z"/><path class="cls-1" d="M497.32,68.6c5.15-15.31,10-29.71,14.81-44.12,1.7-5.09,1.67-5.1,6.94-5.11,6.92,0,13.84,0,20.76,0,4.22,0,5.25,1.78,3.77,5.74q-8.19,21.81-16.25,43.69Q519.73,89.39,512.14,110c-.76,2.07-2,2.75-4.15,2.72q-11.07-.17-22.15,0c-2.16,0-3.32-.64-4.1-2.73q-10.5-28.53-21.16-57c-3.41-9.18-6.9-18.32-10.24-27.52-1.72-4.75-.7-6.05,4.35-6.06,7.38,0,14.77.09,22.15-.05,2.66-.06,3.79.93,4.62,3.45,4.71,14.33,9.61,28.59,14.46,42.88C496.17,66.38,496.58,67.06,497.32,68.6Z"/><path class="cls-1" d="M632.57,68.69c2.66-7.83,5.18-15.2,7.67-22.58C643,38,645.72,30,648.32,21.88c.68-2.11,2-2.53,3.88-2.52,7.61.05,15.22,0,22.84,0,4.05,0,5.26,1.59,3.9,5.43-3,8.35-6.08,16.66-9.17,25-4.18,11.21-8.41,22.41-12.6,33.62-3.31,8.84-6.66,17.67-9.86,26.55-.76,2.12-2,2.75-4.11,2.72-7.26-.11-14.53-.14-21.8,0-2.48.06-3.78-.82-4.61-3.1-3.91-10.71-7.9-21.38-11.86-32.07q-9.72-26.22-19.46-52.43c-1.48-4-.47-5.67,3.76-5.7,7.5,0,15,.13,22.49-.08,3.12-.09,4.4,1.09,5.35,4,4.81,14.66,9.85,29.23,14.82,43.84C632,67.51,632.22,67.88,632.57,68.69Z"/><path class="cls-1" d="M579,66q0,20.74,0,41.5c0,4.61-.58,5.14-5.2,5.15-6.46,0-12.91-.07-19.37,0-3.12,0-4.31-1.32-4.31-4.37q.06-42.2,0-84.38c0-3.21,1.18-4.63,4.47-4.57,6.57.12,13.14,0,19.71,0,3.75,0,4.69.95,4.7,4.76C579,38.09,579,52,579,66Z"/></g></g></svg>