<svg xmlns="http://www.w3.org/2000/svg" viewBox="0 0 156.8 33.9"><defs><style>.cls-1{fill:#ff6c1c;}</style></defs><title>Tele13RADIO</title><g id="Capa_2" data-name="Capa 2"><g id="Capa_1-2" data-name="Capa 1"><path class="cls-1" d="M101.3,23.55c0-4.5-2.3-8.5-7.2-9.6l6.4-7.4h.1V.15H82.9v6.4h7.9l-5.5,5.7v6h4.4a4.61,4.61,0,0,1,.6,9.2H82.9v6.4h7.9a10.59,10.59,0,0,0,10.5-10.3M81.7.05v33.7s-7.4-2.3-7.4-9.3v-18H70.1L75.2.05Z"/><path class="cls-1" d="M112.5,10.35v5.5h1.2c1,0,1.8-.4,1.8-1.9v-1.8c0-1.3-.4-1.9-1.5-1.9Zm3.2,15.7a7.8,7.8,0,0,1-.3-2.2v-2.8c0-1.8-.6-2.3-1.9-2.3h-1v7.4h-2.9V8.05H114c2.9,0,4.2,1.3,4.2,4.2v1.5a4,4,0,0,1-1.9,3.7c1.5.6,1.9,2,1.9,3.8v2.8a8.33,8.33,0,0,0,.3,2.2Z"/><path class="cls-1" d="M123.5,20.35h2.8l-1.3-9.2Zm6.4,5.7H127l-.4-3.4h-3.5l-.4,3.4h-2.6L123,7.75h4.2Z"/><path class="cls-1" d="M134.6,10.35v13h1.8c.9,0,1.5-.4,1.5-1.8v-9.5c0-1.3-.6-1.8-1.5-1.8Zm-3-2.4h4.7c2.9,0,4.2,1.6,4.2,4.5v9.2c0,2.9-1.5,4.5-4.2,4.5h-4.5Z"/><rect class="cls-1" x="142.9" y="7.85" width="2.9" height="18.3"/><path class="cls-1" d="M150.9,21.75c0,1.3.6,1.8,1.5,1.8s1.5-.4,1.5-1.8V12c0-1.3-.6-1.8-1.5-1.8s-1.5.4-1.5,1.8Zm-2.9-9.6c0-2.9,1.5-4.5,4.4-4.5s4.4,1.6,4.4,4.5v9.5c0,2.9-1.5,4.5-4.4,4.5s-4.4-1.6-4.4-4.5Z"/><rect class="cls-1" x="105.2" width="0.4" height="33.9"/><path class="cls-1" d="M0,6.45H8.2v18.1c0,7,7.4,9.3,7.4,9.3V6.45h2.5l5-6.4H0Z"/><polygon class="cls-1" points="37 0 37 33.9 52.5 33.9 52.5 26.9 44.4 26.9 44.4 0 37 0"/><polygon class="cls-1" points="54.1 0 54.1 33.9 70 33.9 70 26.9 61.5 26.9 61.5 20.2 68.2 20.2 68.2 13.2 61.5 13.2 61.5 6.6 66.6 6.6 71.5 0 54.1 0"/><polygon class="cls-1" points="24.4 0 19.5 6.3 19.5 6.3 19.5 33.9 35.4 33.9 35.4 26.9 26.9 26.9 26.9 20.2 33.6 20.2 33.6 13.2 26.9 13.2 26.9 7.1 35.4 7.1 35.4 0 24.4 0"/></g></g></svg>