<svg data-name="Component 21 – 60" xmlns="http://www.w3.org/2000/svg" width="186.002" height="56.167">
  <path data-name="Path 17294" d="M66.022 39.484V18.177h-4.625a2.741 2.741 0 01-2.887-2.932 2.843 2.843 0 012.887-2.929h15.62a2.845 2.845 0 012.889 2.929 2.743 2.743 0 01-2.889 2.932H72.39v21.307a3.187 3.187 0 11-6.369 0" fill="#040405"/>
  <path data-name="Path 17295" d="M113.538 27.006a4.736 4.736 0 017.288-1.354 5.563 5.563 0 011.739 3.562h-9.722a5.972 5.972 0 01.695-2.208m11.959 7.988c-1.583 0-3.709 2.418-6.795 2.418-2.793 0-5.252-1.375-5.667-4.336h12.793c1.836 0 2.629-.874 2.629-2.666 0-5-4.3-10.922-10.8-10.922-6.338 0-10.756 5.545-10.756 11.628 0 6.627 4.5 11.547 11.257 11.547 4.457 0 9.794-2.5 9.794-5.083a2.667 2.667 0 00-2.46-2.588" fill="#040405"/>
  <path data-name="Path 17296" d="M82.406 27.006a4.736 4.736 0 017.288-1.354 5.563 5.563 0 011.739 3.562h-9.722a5.973 5.973 0 01.695-2.208m11.96 7.988c-1.584 0-3.709 2.418-6.8 2.418-2.793 0-5.252-1.375-5.667-4.336h12.793c1.836 0 2.629-.874 2.629-2.666 0-5-4.3-10.922-10.8-10.922-6.338 0-10.756 5.545-10.756 11.628 0 6.627 4.5 11.547 11.257 11.547 4.457 0 9.794-2.5 9.794-5.083a2.667 2.667 0 00-2.458-2.588" fill="#040405"/>
  <path data-name="Path 17297" d="M156.357 35.473a4.278 4.278 0 01-3.658 1.974c-3.31 0-4.837-3.227-4.837-6.157 0-2.643 1.211-5.6 3.912-6.148a4.361 4.361 0 011.171-.151c3.294 0 4.753 3.248 4.753 6.125a7.27 7.27 0 01-1.34 4.356m-3.416-15.983c-6.332 0-10.754 5.545-10.754 11.628 0 6.255 4.293 11.547 10.754 11.547s10.754-5.292 10.754-11.547c0-6.083-4.418-11.628-10.754-11.628" fill="#040405"/>
  <path data-name="Path 17298" d="M165.882 39.381v-16.3a3.086 3.086 0 013.052-3.4 2.575 2.575 0 012.8 2.248c1.191-1.652 3.016-2.5 5.9-2.5 4.8 0 8.362 3.056 8.362 8.236v11.714a3.074 3.074 0 11-6.114 0V28.73c0-2.846-1.782-4.2-3.989-4.2-2.506 0-3.907 1.825-3.907 4.2v10.651a3.072 3.072 0 11-6.109 0" fill="#040405"/>
  <path data-name="Path 17299" d="M132.183 39.399V25.307h-1.358a2.476 2.476 0 01-2.675-2.675 2.611 2.611 0 012.675-2.672h1.358v-3.651a3.073 3.073 0 116.112 0v3.651h1.745c1.57 0 2.929.719 2.929 2.672 0 1.913-1.358 2.675-2.929 2.675h-1.741V39.4a3.073 3.073 0 11-6.112 0" fill="#040405"/>
  <path data-name="Path 17300" d="M99.366 39.399V13.251a3.074 3.074 0 116.114 0v26.148a3.074 3.074 0 11-6.114 0" fill="#040405"/>
  <path data-name="Path 17301" d="M161.438 8.686a3.263 3.263 0 00-3.74.7l-.012.011a3.3 3.3 0 00-1.873-3.353 2.829 2.829 0 00-.295-.12 3.268 3.268 0 00-4.058 1.713 3.338 3.338 0 00-.234 2.088l1.252 7.274a1.919 1.919 0 00.168.529c.02.043.041.083.065.126a1.818 1.818 0 002.494.665l6.38-3.728a3.31 3.31 0 00-.146-5.906" fill="#de1d32"/>
  <path data-name="Path 17302" d="M56.193 27.07a28.579 28.579 0 00-4.571-14.411 1.915 1.915 0 00-1.578-.89 2.07 2.07 0 00-1.626.816l-.006.009-.011.014c-.274.369-.588.77-.939 1.189a25.7 25.7 0 01-3.817 3.715 25.013 25.013 0 01-3.9 2.5l-.084.045-.038.018a22.569 22.569 0 01-2.635 1.159.372.372 0 01-.042.014.234.234 0 01-.226-.037c-.088-.085-.017-.43-.017-.43a24.235 24.235 0 013.165-6.741c.124-.18.254-.36.386-.539a29.283 29.283 0 013.337-3.763c.473-.449.92-.844 1.317-1.174a1.913 1.913 0 00.781-1.549 2.089 2.089 0 00-.845-1.569A27.6 27.6 0 0027.554.004a28.638 28.638 0 00-14.449 4.319c-.568.355-1.079.7-1.512 1.014l-.06.045a2.088 2.088 0 00-.607.741 1.7 1.7 0 00-.166.595 2 2 0 00.687 1.707 25.929 25.929 0 015.229 5.8 21.1 21.1 0 013.005 6.576.658.658 0 010 .243.108.108 0 01-.034.06c-.123.091-.381-.026-.381-.026a23.837 23.837 0 01-7.407-4.444 29.562 29.562 0 01-3.886-4.205 1.941 1.941 0 00-3.038-.1 1.482 1.482 0 00-.151.2c-2 3.087-5.02 8.906-4.771 15.539a30.355 30.355 0 004.554 15.3 2.03 2.03 0 001.626.847h.018a2.173 2.173 0 00.238-.031c.038-.006.083-.008.12-.015.055-.012.1-.029.152-.045a1.65 1.65 0 00.161-.048c.025-.009.043-.02.068-.031a1.824 1.824 0 00.761-.576 24.18 24.18 0 014.456-4.743 29.214 29.214 0 012.465-1.718 35.626 35.626 0 014.648-2.442.428.428 0 01.258-.04.231.231 0 01.089.049c.094.091.038.287.038.287a18.456 18.456 0 01-2.213 5.366c-.343.582-.736 1.194-1.186 1.828-.407.575-.824 1.109-1.24 1.61a28.333 28.333 0 01-3.832 3.811 1.876 1.876 0 00-.668 1.431v.046a1.934 1.934 0 00.572 1.351l.037.037.037.034a1.8 1.8 0 00.16.132c3.085 2.234 9.388 5.929 16.991 5.642h.091a29.325 29.325 0 0016.431-5.516 1.9 1.9 0 00.8-1.535 1.864 1.864 0 00-.671-1.5 28.1 28.1 0 01-4.869-5.132 31.826 31.826 0 01-3.565-7.5.451.451 0 01.026-.295c.077-.1.337 0 .337 0a29.077 29.077 0 016.888 4.009 26.419 26.419 0 014.6 4.954 1.992 1.992 0 001.581.79 1.533 1.533 0 00.169-.008l.08-.009.061-.008h.017a1.751 1.751 0 00.267-.068l.034-.012a1.746 1.746 0 00.237-.1l.015-.008a2.074 2.074 0 00.39-.277 1.889 1.889 0 00.324-.372 29.452 29.452 0 004.642-15.533c0-.32-.011-.633-.02-.946" fill="#de1d32"/>
  <path data-name="Path 17303" d="M2.588 27.475v-.174a25.059 25.059 0 013.8-12.434.126.126 0 01.092-.049.265.265 0 01.2.114 31.784 31.784 0 003.457 3.645 25.952 25.952 0 008.872 5.16 3.981 3.981 0 002.226.068 1.58 1.58 0 00.333-.169 1.558 1.558 0 00.507-.615v-.006a3.968 3.968 0 00.254-1.924c-.031-.5-.353-3.259-3.468-8.222a26.93 26.93 0 00-4.963-5.714.2.2 0 01-.066-.143v-.02a.2.2 0 01.06-.091 26.028 26.028 0 0113.721-4.3 24.991 24.991 0 0114.921 4.4.159.159 0 01.029.057.109.109 0 010 .055.533.533 0 01-.084.152 31.657 31.657 0 00-4.307 4.708 26.338 26.338 0 00-3.532 6.7 11.548 11.548 0 00-.418 1.478v.023l-.032.158c-.008.037-.014.075-.021.112s-.008.049-.012.074c-.009.048-.017.1-.025.146l-.006.043c-.009.054-.017.106-.023.16v.035c-.008.055-.014.112-.02.169v.026c-.006.058-.012.117-.017.177v.02c0 .06-.008.121-.011.181v.203a3.528 3.528 0 00.18 1.251l.014.037c.015.038.031.075.048.112l.026.054c.015.032.032.063.051.094s.023.041.035.061.037.055.055.081a.288.288 0 00.025.035l.017.02a1.521 1.521 0 00.112.129l.023.025a1.455 1.455 0 00.164.14 2.23 2.23 0 001.34.321 5.144 5.144 0 001.1-.149c.029-.009.181-.055.43-.141a27.176 27.176 0 007.572-4.19 27.66 27.66 0 003.151-2.91c.526-.565.988-1.109 1.391-1.61l.008-.008.018-.014.009-.008a.176.176 0 01.1-.032.162.162 0 01.117.061 26.065 26.065 0 013.583 12.45 201.045 201.045 0 01-51.029 0" fill="#fff"/>
</svg>
