<svg id="Capa_1" data-name="Capa 1" xmlns="http://www.w3.org/2000/svg" viewBox="0 0 1282 69"><title>TextoTitulo_Canal24H</title><rect x="480.05" y="13.61" width="321.89" height="41.79" rx="6.18"/><path d="M533.08,38.14A5.87,5.87,0,0,1,527.25,44h-2.92a5.87,5.87,0,0,1-5.83-5.84V29.39a5.87,5.87,0,0,1,5.83-5.83h2.92a5.87,5.87,0,0,1,5.83,5.83h-2.91a2.94,2.94,0,0,0-2.92-2.91h-2.92a2.94,2.94,0,0,0-2.91,2.91v8.75a2.78,2.78,0,0,0,.86,2.06,2.81,2.81,0,0,0,2.05.86h2.92a2.94,2.94,0,0,0,2.92-2.92Z" style="fill:#fff"/><path d="M538.92,38.14V44H536V34.5l5.48-10.94h3.65l5.45,10.94V44h-2.91V38.14Zm4.37-11.66-4.37,8.75h8.75Z" style="fill:#fff"/><path d="M568.08,44h-2.91V37.24l-8.75-8.75V44H553.5V23.56h2l9.66,9.65V23.56h2.91Z" style="fill:#fff"/><path d="M573.92,38.14V44H571V34.5l5.48-10.94h3.65l5.45,10.94V44h-2.91V38.14Zm4.37-11.66-4.37,8.75h8.75Z" style="fill:#fff"/><path d="M603.08,44H588.5V23.56h2.92v17.5h11.66Z" style="fill:#fff"/><path d="M638.08,44H623.5V42L635,30.47a2.48,2.48,0,0,0,.21-1.08,2.94,2.94,0,0,0-2.92-2.91h-2.92a2.94,2.94,0,0,0-2.91,2.91H623.5a5.87,5.87,0,0,1,5.83-5.83h2.92a5.64,5.64,0,0,1,4.11,1.71,5.57,5.57,0,0,1,1.72,4.12,5.68,5.68,0,0,1-.64,2.69l-9,9h9.65Z" style="fill:#fff"/><path d="M655.58,44h-8.75V41.06h2.92V38.14H641V33.21l9.65-9.65h2V35.23h2.91v2.91h-2.91v2.92h2.91Zm-5.83-8.75V28.49l-5.83,5.83v.91Z" style="fill:#fff"/><path d="M690.58,44h-2.91V35.23h-8.75V44H676V23.56h2.92v8.75h8.75V23.56h2.91Z" style="fill:#fff"/><path d="M708.08,38.14A5.87,5.87,0,0,1,702.25,44h-2.92a5.87,5.87,0,0,1-5.83-5.84V29.39a5.87,5.87,0,0,1,5.83-5.83h2.92a5.87,5.87,0,0,1,5.83,5.83Zm-2.91,0V29.39a2.94,2.94,0,0,0-2.92-2.91h-2.92a2.94,2.94,0,0,0-2.91,2.91v8.75a2.78,2.78,0,0,0,.86,2.06,2.81,2.81,0,0,0,2.05.86h2.92a2.94,2.94,0,0,0,2.92-2.92Z" style="fill:#fff"/><path d="M722.67,44V38.14a2.94,2.94,0,0,0-2.92-2.91h-5.83V44H711V23.56h8.75a5.82,5.82,0,0,1,5.83,5.83,5.2,5.2,0,0,1-2.48,4.38,5.17,5.17,0,0,1,2.48,4.37V44Zm-8.75-11.67h5.83a2.91,2.91,0,0,0,2.06-5,2.8,2.8,0,0,0-2.06-.86h-5.83Z" style="fill:#fff"/><path d="M731.42,38.14V44H728.5V34.5L734,23.56h3.65l5.45,10.94V44h-2.91V38.14Zm4.37-11.66-4.37,8.75h8.75Z" style="fill:#fff"/><path d="M760.58,38.14A5.87,5.87,0,0,1,754.75,44h-2.92A5.86,5.86,0,0,1,746,38.14h2.92a2.78,2.78,0,0,0,.86,2.06,2.81,2.81,0,0,0,2.05.86h2.92a2.91,2.91,0,0,0,2.06-5,2.8,2.8,0,0,0-2.06-.86h-2.92a5.82,5.82,0,0,1-4.11-9.95,5.61,5.61,0,0,1,4.11-1.72h2.92a5.87,5.87,0,0,1,5.83,5.83h-2.91a2.94,2.94,0,0,0-2.92-2.91h-2.92a2.91,2.91,0,0,0-2.05,5,2.81,2.81,0,0,0,2.05.86h2.92a5.87,5.87,0,0,1,5.83,5.83Z" style="fill:#fff"/></svg>