<svg xmlns="http://www.w3.org/2000/svg" xmlns:xlink="http://www.w3.org/1999/xlink" viewBox="0 0 4400 2475"><defs><style>.cls-1{fill:none;}.cls-2{clip-path:url(#clip-path);}.cls-3{fill:#1c1917;}.cls-4{clip-path:url(#clip-path-2);}.cls-5{fill:#fff;}</style><clipPath id="clip-path"><rect class="cls-1" width="4400" height="690"/></clipPath><clipPath id="clip-path-2"><rect class="cls-1" y="2114.6" width="4400" height="360.4"/></clipPath></defs><title>TITULO_CAMBIODEMANDO</title><g id="Capa_2" data-name="Capa 2"><g id="Capa_1-2" data-name="Capa 1"><g class="cls-2"><rect class="cls-3" width="4400" height="690"/></g><g class="cls-4"><rect class="cls-3" y="2114.6" width="4400" height="360.4"/></g><rect class="cls-1" width="4400" height="2475"/><path class="cls-5" d="M1512.16,2268.57a28.82,28.82,0,0,1-14.34-3.61,26.52,26.52,0,0,1-10.36-10.74q-3.9-7.12-3.89-17.48a38.59,38.59,0,0,1,2.28-13.72,29.58,29.58,0,0,1,6.31-10.22,27.68,27.68,0,0,1,9.31-6.36,28.61,28.61,0,0,1,11.07-2.19,23,23,0,0,1,10.69,2.43,29.45,29.45,0,0,1,7.74,5.55l-6.93,8.36a25.14,25.14,0,0,0-5-3.61,12.86,12.86,0,0,0-6.17-1.42,13.8,13.8,0,0,0-8.08,2.52,16.88,16.88,0,0,0-5.7,7.12,26.7,26.7,0,0,0-2.09,11.07,30.22,30.22,0,0,0,1.9,11.35,15.48,15.48,0,0,0,5.46,7.17,15.18,15.18,0,0,0,15.3.76,21.64,21.64,0,0,0,5.46-4.27l6.94,8.17a25.65,25.65,0,0,1-8.84,6.79A26,26,0,0,1,1512.16,2268.57Z"/><path class="cls-5" d="M1541.7,2267.43v-62h38.38v10.93h-25.36v13.58h21.56v10.93h-21.56v15.67H1581v10.93Z"/><path class="cls-5" d="M1593.48,2267.43v-62h21.85a37.7,37.7,0,0,1,11.87,1.76,17.33,17.33,0,0,1,8.51,5.89q3.18,4.14,3.18,11.35,0,6.95-3.18,11.4a18.5,18.5,0,0,1-8.51,6.56,32.25,32.25,0,0,1-11.87,2.09h-8.84v23Zm13-33.35h7.7c3.86,0,6.82-.8,8.88-2.42s3.09-4,3.09-7.27-1-5.47-3.09-6.74-5-1.9-8.88-1.9h-7.7Zm20.62,33.35L1613,2241l9.12-8.17,19.67,34.58Z"/><path class="cls-5" d="M1651.05,2267.43v-62h38.38v10.93h-25.37v13.58h21.57v10.93h-21.57v15.67h26.32v10.93Z"/><path class="cls-5" d="M1702.82,2267.43v-62h14.35l10.35,28.5c.64,1.84,1.25,3.76,1.86,5.75s1.21,4,1.85,5.94h.38q.95-2.94,1.85-5.94t1.85-5.75l10.07-28.5h14.35v62h-11.88v-24.61q0-2.94.29-6.6t.66-7.36q.39-3.71.67-6.65h-.38l-5,14.53-9.21,25.18h-7.41l-9.22-25.18-4.94-14.53h-.38q.28,2.94.67,6.65t.66,7.36q.29,3.66.29,6.6v24.61Z"/><path class="cls-5" d="M1799.63,2268.57a27.24,27.24,0,0,1-14.59-3.9,26,26,0,0,1-9.83-11.16,39.5,39.5,0,0,1-3.51-17.34q0-10.07,3.51-17.19a25.64,25.64,0,0,1,9.83-10.93,27.82,27.82,0,0,1,14.59-3.8,27.5,27.5,0,0,1,14.53,3.8A25.81,25.81,0,0,1,1824,2219q3.51,7.13,3.51,17.19a39.5,39.5,0,0,1-3.51,17.34,26.15,26.15,0,0,1-9.79,11.16A26.93,26.93,0,0,1,1799.63,2268.57Zm0-11.31a12,12,0,0,0,7.64-2.56,16.44,16.44,0,0,0,5.09-7.32,31.56,31.56,0,0,0,1.8-11.21,30.41,30.41,0,0,0-1.8-11.06,15.87,15.87,0,0,0-5.09-7.08,12.31,12.31,0,0,0-7.64-2.47,12.51,12.51,0,0,0-7.75,2.47,15.55,15.55,0,0,0-5,7.08,31.1,31.1,0,0,0-1.76,11.06,32.29,32.29,0,0,0,1.76,11.21,16.11,16.11,0,0,0,5,7.32A12.21,12.21,0,0,0,1799.63,2257.26Z"/><path class="cls-5" d="M1839.43,2267.43v-62h13.4L1870,2237.6l6.18,13.49h.38q-.48-4.93-1-10.83T1875,2229v-23.56h12.35v62H1874l-17.19-32.21-6.27-13.49h-.38c.31,3.36.68,7,1.09,10.83a105.61,105.61,0,0,1,.62,11.12v23.75Z"/><path class="cls-5" d="M1902.32,2267.43v-62h13v62Z"/><path class="cls-5" d="M1922.37,2267.43l19.76-62h15.48l19.67,62H1963.5l-8.55-31.92q-1.34-4.76-2.61-10t-2.61-10.16h-.38q-1.14,4.93-2.43,10.16t-2.61,10l-8.64,31.92Zm12.54-15.49v-10.07h29.64v10.07Z"/><path class="cls-5" d="M2003.3,2267.43v-62h17.2a37.6,37.6,0,0,1,16.43,3.33,23.58,23.58,0,0,1,10.69,10.12q3.75,6.79,3.76,17.33t-3.76,17.48a24.17,24.17,0,0,1-10.49,10.36,34.69,34.69,0,0,1-15.87,3.42Zm13-10.55h3.42a21,21,0,0,0,9.64-2.09,14.13,14.13,0,0,0,6.37-6.6q2.24-4.52,2.23-12t-2.23-11.92a13.46,13.46,0,0,0-6.37-6.36,22.36,22.36,0,0,0-9.64-1.95h-3.42Z"/><path class="cls-5" d="M2063.34,2267.43v-62h38.38v10.93h-25.36v13.58h21.56v10.93h-21.56v15.67h26.31v10.93Z"/><path class="cls-5" d="M2159.67,2268.57a28.85,28.85,0,0,1-14.34-3.61,26.52,26.52,0,0,1-10.36-10.74q-3.88-7.12-3.89-17.48a38.59,38.59,0,0,1,2.28-13.72,29.45,29.45,0,0,1,6.32-10.22,27.49,27.49,0,0,1,9.31-6.36,28.53,28.53,0,0,1,11.06-2.19,22.94,22.94,0,0,1,10.69,2.43,29.12,29.12,0,0,1,7.74,5.55l-6.93,8.36a24.86,24.86,0,0,0-5-3.61,12.86,12.86,0,0,0-6.17-1.42,13.8,13.8,0,0,0-8.08,2.52,17,17,0,0,0-5.7,7.12,26.7,26.7,0,0,0-2.09,11.07,30.42,30.42,0,0,0,1.9,11.35,15.43,15.43,0,0,0,5.47,7.17,15.16,15.16,0,0,0,15.29.76,21.64,21.64,0,0,0,5.46-4.27l6.94,8.17a25.65,25.65,0,0,1-8.84,6.79A26,26,0,0,1,2159.67,2268.57Z"/><path class="cls-5" d="M2181.24,2267.43l19.76-62h15.48l19.67,62h-13.78l-8.55-31.92q-1.34-4.76-2.61-10t-2.61-10.16h-.38q-1.14,4.93-2.42,10.16t-2.62,10l-8.64,31.92Zm12.54-15.49v-10.07h29.64v10.07Z"/><path class="cls-5" d="M2243.18,2267.43v-62h14.34l10.36,28.5q.95,2.76,1.85,5.75t1.85,5.94h.38q.95-2.94,1.85-5.94c.61-2,1.22-3.91,1.86-5.75l10.07-28.5h14.34v62h-11.87v-24.61q0-2.94.28-6.6t.67-7.36q.38-3.71.66-6.65h-.38l-5,14.53-9.22,25.18h-7.41l-9.21-25.18-4.94-14.53h-.38q.28,2.94.66,6.65c.25,2.47.48,4.92.67,7.36s.28,4.64.28,6.6v24.61Z"/><path class="cls-5" d="M2315.09,2267.43v-62h20.81a42.91,42.91,0,0,1,11.49,1.43,16.53,16.53,0,0,1,8.12,4.75q3,3.33,3,9.21a16,16,0,0,1-2.24,8.08,11.51,11.51,0,0,1-6.12,5.32v.38a15.49,15.49,0,0,1,8.21,4.75q3.29,3.61,3.28,9.88a16,16,0,0,1-3.23,10.31,19,19,0,0,1-8.64,6,35.74,35.74,0,0,1-12.16,1.95Zm13-37h7c3.67,0,6.36-.69,8.07-2.09a7,7,0,0,0,2.57-5.7c0-2.59-.88-4.44-2.62-5.55s-4.38-1.67-7.93-1.67h-7.12Zm0,26.89h8.36q6.08,0,9.26-2.23a7.76,7.76,0,0,0,3.18-6.8,6.77,6.77,0,0,0-3.13-6.22c-2.09-1.3-5.2-2-9.31-2h-8.36Z"/><path class="cls-5" d="M2372.38,2267.43v-62h13v62Z"/><path class="cls-5" d="M2425.29,2268.57a27.18,27.18,0,0,1-14.58-3.9,25.91,25.91,0,0,1-9.83-11.16,39.35,39.35,0,0,1-3.52-17.34q0-10.07,3.52-17.19a25.58,25.58,0,0,1,9.83-10.93,29.79,29.79,0,0,1,29.12,0,25.73,25.73,0,0,1,9.78,10.93q3.51,7.13,3.52,17.19a39.5,39.5,0,0,1-3.52,17.34,26.07,26.07,0,0,1-9.78,11.16A27,27,0,0,1,2425.29,2268.57Zm0-11.31a12.07,12.07,0,0,0,7.65-2.56,16.42,16.42,0,0,0,5.08-7.32,31.56,31.56,0,0,0,1.81-11.21,30.4,30.4,0,0,0-1.81-11.06,15.85,15.85,0,0,0-5.08-7.08,13.22,13.22,0,0,0-15.39,0,15.49,15.49,0,0,0-5,7.08,31.12,31.12,0,0,0-1.75,11.06,32.3,32.3,0,0,0,1.75,11.21,16.05,16.05,0,0,0,5,7.32A12.16,12.16,0,0,0,2425.29,2257.26Z"/><path class="cls-5" d="M2484.09,2267.43v-62h17.2a37.6,37.6,0,0,1,16.43,3.33,23.58,23.58,0,0,1,10.69,10.12q3.75,6.79,3.75,17.33t-3.75,17.48a24.14,24.14,0,0,1-10.5,10.36,34.62,34.62,0,0,1-15.86,3.42Zm13-10.55h3.42a21,21,0,0,0,9.64-2.09,14.13,14.13,0,0,0,6.37-6.6q2.22-4.52,2.23-12t-2.23-11.92a13.46,13.46,0,0,0-6.37-6.36,22.36,22.36,0,0,0-9.64-1.95h-3.42Z"/><path class="cls-5" d="M2544.13,2267.43v-62h38.38v10.93h-25.36v13.58h21.56v10.93h-21.56v15.67h26.31v10.93Z"/><path class="cls-5" d="M2614.91,2267.43v-62h14.34l10.36,28.5q.94,2.76,1.85,5.75t1.85,5.94h.38c.64-2,1.25-3.94,1.86-5.94s1.21-3.91,1.85-5.75l10.07-28.5h14.34v62h-11.87v-24.61q0-2.94.28-6.6t.67-7.36q.38-3.71.66-6.65h-.38l-5,14.53-9.22,25.18h-7.41l-9.21-25.18-4.94-14.53H2625q.29,2.94.66,6.65c.25,2.47.48,4.92.67,7.36s.28,4.64.28,6.6v24.61Z"/><path class="cls-5" d="M2678.84,2267.43l19.76-62h15.49l19.66,62H2720l-8.55-31.92q-1.33-4.76-2.62-10t-2.61-10.16h-.38q-1.14,4.93-2.42,10.16c-.85,3.49-1.73,6.81-2.61,10l-8.65,31.92Zm12.54-15.49v-10.07H2721v10.07Z"/><path class="cls-5" d="M2740.78,2267.43v-62h13.4l17.19,32.21,6.18,13.49h.38q-.48-4.93-1-10.83t-.57-11.31v-23.56h12.35v62h-13.3l-17.19-32.21-6.27-13.49h-.38c.31,3.36.68,7,1.09,10.83a105.61,105.61,0,0,1,.62,11.12v23.75Z"/><path class="cls-5" d="M2803.67,2267.43v-62h17.2a37.6,37.6,0,0,1,16.43,3.33,23.68,23.68,0,0,1,10.69,10.12q3.75,6.79,3.75,17.33t-3.75,17.48a24.19,24.19,0,0,1-10.5,10.36,34.65,34.65,0,0,1-15.86,3.42Zm13-10.55h3.42a21,21,0,0,0,9.64-2.09,14.16,14.16,0,0,0,6.36-6.6q2.23-4.52,2.24-12t-2.24-11.92a13.48,13.48,0,0,0-6.36-6.36,22.39,22.39,0,0,0-9.64-1.95h-3.42Z"/><path class="cls-5" d="M2888.6,2268.57a27.18,27.18,0,0,1-14.58-3.9,26,26,0,0,1-9.84-11.16,39.5,39.5,0,0,1-3.51-17.34q0-10.07,3.51-17.19a25.66,25.66,0,0,1,9.84-10.93,29.79,29.79,0,0,1,29.12,0,25.79,25.79,0,0,1,9.78,10.93q3.51,7.13,3.51,17.19a39.5,39.5,0,0,1-3.51,17.34,26.13,26.13,0,0,1-9.78,11.16A27,27,0,0,1,2888.6,2268.57Zm0-11.31a12.07,12.07,0,0,0,7.65-2.56,16.42,16.42,0,0,0,5.08-7.32,31.56,31.56,0,0,0,1.81-11.21,30.4,30.4,0,0,0-1.81-11.06,15.85,15.85,0,0,0-5.08-7.08,13.22,13.22,0,0,0-15.39,0,15.49,15.49,0,0,0-5,7.08,31.1,31.1,0,0,0-1.76,11.06,32.29,32.29,0,0,0,1.76,11.21,16.05,16.05,0,0,0,5,7.32A12.16,12.16,0,0,0,2888.6,2257.26Z"/><path class="cls-5" d="M1634.88,2362.23l-15.72-51.59h11.45l6.56,24.65c.84,2.9,1.57,5.67,2.17,8.33s1.31,5.44,2.1,8.34h.31c.85-2.9,1.58-5.68,2.22-8.34s1.31-5.43,2-8.33l6.48-24.65h11.06l-15.72,51.59Z"/><path class="cls-5" d="M1669.32,2362.23v-51.59h10.83v51.59Z"/><path class="cls-5" d="M1692.63,2362.23v-51.59h31.91v9.09h-21.09V2331h17.93v9.09h-17.93v13h21.88v9.09Z"/><path class="cls-5" d="M1735.68,2362.23v-51.59h18.17a31.5,31.5,0,0,1,9.88,1.46,14.43,14.43,0,0,1,7.07,4.9q2.64,3.43,2.65,9.44a16,16,0,0,1-2.65,9.48,15.37,15.37,0,0,1-7.07,5.45,26.78,26.78,0,0,1-9.88,1.74h-7.34v19.12Zm10.83-27.73h6.4q4.81,0,7.38-2a7.23,7.23,0,0,0,2.57-6q0-4-2.57-5.61t-7.38-1.58h-6.4Zm17.14,27.73-11.77-22,7.58-6.8,16.36,28.76Z"/><path class="cls-5" d="M1783.56,2362.23v-51.59h11.14l14.29,26.78,5.14,11.22h.32q-.4-4.11-.87-9t-.48-9.4v-19.59h10.27v51.59h-11.06l-14.3-26.78-5.21-11.22h-.32q.4,4.18.91,9a87.9,87.9,0,0,1,.52,9.24v19.75Z"/><path class="cls-5" d="M1835.85,2362.23v-51.59h31.92v9.09h-21.09V2331h17.93v9.09h-17.93v13h21.88v9.09Z"/><path class="cls-5" d="M1894.47,2363.18a27.78,27.78,0,0,1-10.07-1.94,27.1,27.1,0,0,1-8.89-5.57l6.24-7.42a22.47,22.47,0,0,0,6.2,4,16.68,16.68,0,0,0,6.76,1.51,9.69,9.69,0,0,0,5.84-1.47,4.76,4.76,0,0,0,2-4.06,4.07,4.07,0,0,0-1-2.89,9,9,0,0,0-2.68-1.89c-1.14-.56-2.47-1.15-4-1.78l-6.8-2.92a23.65,23.65,0,0,1-5-2.93,14.07,14.07,0,0,1-3.91-4.54,14.07,14.07,0,0,1,.82-14.1,16.72,16.72,0,0,1,6.4-5.45,20.35,20.35,0,0,1,9.29-2.06,23.28,23.28,0,0,1,8.8,1.74,22.48,22.48,0,0,1,7.55,5l-5.45,6.87a20.5,20.5,0,0,0-5.14-3.12,15.07,15.07,0,0,0-5.76-1.07,8.74,8.74,0,0,0-5.1,1.35,4.26,4.26,0,0,0-1.93,3.71,4,4,0,0,0,1,2.84,8.74,8.74,0,0,0,2.89,1.94c1.23.55,2.59,1.15,4.06,1.78l6.64,2.68a20.59,20.59,0,0,1,5.45,3.16,13.71,13.71,0,0,1,3.6,4.55,14.19,14.19,0,0,1,1.3,6.28,14.55,14.55,0,0,1-2.25,7.86,16,16,0,0,1-6.56,5.76A22.64,22.64,0,0,1,1894.47,2363.18Z"/><path class="cls-5" d="M1935.23,2362.23v-8.77h11.06v-30.34H1937v-6.71a39,39,0,0,0,6.76-1.78,32.63,32.63,0,0,0,5.41-2.65h8v41.48h9.56v8.77Z"/><path class="cls-5" d="M1973,2362.23v-8.77h11.06v-30.34h-9.33v-6.71a38.79,38.79,0,0,0,6.76-1.78,32.63,32.63,0,0,0,5.41-2.65h8v41.48h9.56v8.77Z"/><path class="cls-5" d="M2029.64,2362.23v-51.59h14.3a31.21,31.21,0,0,1,13.66,2.77,19.56,19.56,0,0,1,8.89,8.41q3.12,5.66,3.12,14.42t-3.12,14.53a20,20,0,0,1-8.73,8.61,28.75,28.75,0,0,1-13.19,2.85Zm10.82-8.77h2.85a17.5,17.5,0,0,0,8-1.74,11.82,11.82,0,0,0,5.3-5.49,22.8,22.8,0,0,0,1.85-10q0-6.24-1.85-9.92a11.24,11.24,0,0,0-5.3-5.29,18.59,18.59,0,0,0-8-1.62h-2.85Z"/><path class="cls-5" d="M2079.57,2362.23v-51.59h31.91v9.09h-21.09V2331h17.93v9.09h-17.93v13h21.88v9.09Z"/><path class="cls-5" d="M2138.42,2362.23v-51.59h11.93l8.61,23.7q.79,2.29,1.54,4.78t1.54,4.94h.32c.52-1.63,1-3.28,1.54-4.94s1-3.25,1.54-4.78l8.37-23.7h11.93v51.59h-9.87v-20.46c0-1.63.08-3.47.23-5.49s.35-4.07.56-6.13.39-3.89.55-5.53h-.32l-4.18,12.09-7.67,20.94h-6.16l-7.66-20.94-4.11-12.09h-.32q.24,2.46.56,5.53t.55,6.13c.16,2,.24,3.86.24,5.49v20.46Z"/><path class="cls-5" d="M2191.59,2362.23l16.43-51.59h12.87l16.36,51.59h-11.46l-7.11-26.55q-1.11-3.94-2.17-8.29c-.71-2.9-1.44-5.71-2.17-8.45H2214c-.63,2.74-1.3,5.55-2,8.45s-1.44,5.66-2.18,8.29l-7.18,26.55Zm10.42-12.88V2341h24.65v8.37Z"/><path class="cls-5" d="M2243.09,2362.23v-51.59h18.17a31.5,31.5,0,0,1,9.88,1.46,14.43,14.43,0,0,1,7.07,4.9q2.64,3.43,2.65,9.44a16,16,0,0,1-2.65,9.48,15.37,15.37,0,0,1-7.07,5.45,26.78,26.78,0,0,1-9.88,1.74h-7.34v19.12Zm10.83-27.73h6.39q4.83,0,7.39-2a7.23,7.23,0,0,0,2.57-6q0-4-2.57-5.61t-7.39-1.58h-6.39Zm17.14,27.73-11.77-22,7.58-6.8,16.35,28.76Z"/><path class="cls-5" d="M2286.86,2362.23v-6.56l23.54-35.94h-21.33v-9.09h34.68v6.56l-23.54,35.94h23.7v9.09Z"/><path class="cls-5" d="M2352,2363.18a22.6,22.6,0,0,1-12.12-3.24,21.69,21.69,0,0,1-8.18-9.28,32.83,32.83,0,0,1-2.92-14.42,32,32,0,0,1,2.92-14.3,21.29,21.29,0,0,1,8.18-9.09,24.77,24.77,0,0,1,24.21,0,21.4,21.4,0,0,1,8.14,9.09,32,32,0,0,1,2.92,14.3,32.83,32.83,0,0,1-2.92,14.42,21.8,21.8,0,0,1-8.14,9.28A22.43,22.43,0,0,1,2352,2363.18Zm0-9.4a10,10,0,0,0,6.36-2.14,13.62,13.62,0,0,0,4.23-6.08,26.21,26.21,0,0,0,1.5-9.32,25.32,25.32,0,0,0-1.5-9.21,13.13,13.13,0,0,0-4.23-5.88,10.25,10.25,0,0,0-6.36-2.06,10.42,10.42,0,0,0-6.44,2.06,12.91,12.91,0,0,0-4.18,5.88,25.8,25.8,0,0,0-1.46,9.21,26.71,26.71,0,0,0,1.46,9.32,13.39,13.39,0,0,0,4.18,6.08A10.18,10.18,0,0,0,2352,2353.78Z"/><path class="cls-5" d="M2398.09,2346.11v-7.74h19.2v7.74Z"/><path class="cls-5" d="M2439.64,2362.23v-8.77h11.06v-30.34h-9.32v-6.71a39,39,0,0,0,6.76-1.78,32.63,32.63,0,0,0,5.41-2.65h8v41.48h9.56v8.77Z"/><path class="cls-5" d="M2477.25,2362.23V2356q6.55-6.24,11.53-11.34a63.37,63.37,0,0,0,7.74-9.32,14.56,14.56,0,0,0,2.77-7.86,8.21,8.21,0,0,0-1.94-5.85,7.27,7.27,0,0,0-5.57-2,8.58,8.58,0,0,0-5,1.58,24.55,24.55,0,0,0-4.19,3.63l-5.93-5.84a28.73,28.73,0,0,1,7.47-5.89,19.39,19.39,0,0,1,9.12-2,17.93,17.93,0,0,1,8.58,2,14.36,14.36,0,0,1,5.72,5.53,16.3,16.3,0,0,1,2.06,8.3,18.48,18.48,0,0,1-2.37,8.77,52.66,52.66,0,0,1-6.2,9q-3.84,4.54-8.26,9.13c1.32-.16,2.75-.29,4.31-.4s2.93-.16,4.14-.16h10.83v9.09Z"/><path class="cls-5" d="M2527.1,2337.11a6.32,6.32,0,0,1-4.71-2,7.33,7.33,0,0,1,0-9.91,6.35,6.35,0,0,1,4.71-2,6.28,6.28,0,0,1,4.78,2,7.56,7.56,0,0,1,0,9.91A6.24,6.24,0,0,1,2527.1,2337.11Zm0,26.07a6.32,6.32,0,0,1-4.71-2,7.33,7.33,0,0,1,0-9.91,6.35,6.35,0,0,1,4.71-2,6.28,6.28,0,0,1,4.78,2,7.56,7.56,0,0,1,0,9.91A6.24,6.24,0,0,1,2527.1,2363.18Z"/><path class="cls-5" d="M2559.33,2363.18a15.07,15.07,0,0,1-12.88-6.76q-4.82-6.75-4.82-19.55t4.82-19.32a15.89,15.89,0,0,1,25.68,0q4.82,6.57,4.81,19.28t-4.81,19.55A15,15,0,0,1,2559.33,2363.18Zm0-8.38a5.35,5.35,0,0,0,3.75-1.58q1.7-1.57,2.69-5.49a47.11,47.11,0,0,0,1-10.86,45.12,45.12,0,0,0-1-10.67,10.59,10.59,0,0,0-2.69-5.29,5.53,5.53,0,0,0-3.75-1.5,5.61,5.61,0,0,0-3.83,1.5c-1.14,1-2,2.77-2.65,5.29a46.51,46.51,0,0,0-.95,10.67,48.56,48.56,0,0,0,.95,10.86q.95,3.92,2.65,5.49A5.43,5.43,0,0,0,2559.33,2354.8Z"/><path class="cls-5" d="M2600.64,2363.18a15.06,15.06,0,0,1-12.87-6.76q-4.83-6.75-4.82-19.55t4.82-19.32a15.88,15.88,0,0,1,25.67,0q4.82,6.57,4.82,19.28t-4.82,19.55A15,15,0,0,1,2600.64,2363.18Zm0-8.38a5.39,5.39,0,0,0,3.76-1.58q1.7-1.57,2.68-5.49a46.47,46.47,0,0,0,1-10.86,44.51,44.51,0,0,0-1-10.67c-.66-2.52-1.55-4.29-2.68-5.29a5.57,5.57,0,0,0-3.76-1.5,5.63,5.63,0,0,0-3.83,1.5c-1.13,1-2,2.77-2.64,5.29a46,46,0,0,0-1,10.67,48,48,0,0,0,1,10.86q.95,3.92,2.64,5.49A5.45,5.45,0,0,0,2600.64,2354.8Z"/><path class="cls-5" d="M2643.3,2362.23v-51.59h10.83v20.15h18.8v-20.15h10.82v51.59h-10.82v-22h-18.8v22Z"/><path class="cls-5" d="M2696.23,2362.23v-51.59h18.17a31.5,31.5,0,0,1,9.88,1.46,14.43,14.43,0,0,1,7.07,4.9q2.64,3.43,2.64,9.44a16,16,0,0,1-2.64,9.48,15.37,15.37,0,0,1-7.07,5.45,26.78,26.78,0,0,1-9.88,1.74h-7.34v19.12Zm10.83-27.73h6.4q4.82,0,7.38-2a7.23,7.23,0,0,0,2.57-6q0-4-2.57-5.61t-7.38-1.58h-6.4Zm17.14,27.73-11.77-22,7.58-6.8,16.36,28.76Z"/><path class="cls-5" d="M2758.56,2363.18a27.78,27.78,0,0,1-10.07-1.94,27.21,27.21,0,0,1-8.89-5.57l6.24-7.42a22.67,22.67,0,0,0,6.21,4,16.64,16.64,0,0,0,6.75,1.51,9.74,9.74,0,0,0,5.85-1.47,4.78,4.78,0,0,0,2-4.06,4.07,4.07,0,0,0-1-2.89,9,9,0,0,0-2.68-1.89c-1.14-.56-2.46-1.15-4-1.78l-6.8-2.92a23.9,23.9,0,0,1-5-2.93,14.07,14.07,0,0,1-3.91-4.54,13.34,13.34,0,0,1-1.5-6.52,13,13,0,0,1,2.33-7.58,16.57,16.57,0,0,1,6.4-5.45,20.28,20.28,0,0,1,9.28-2.06,23.33,23.33,0,0,1,8.81,1.74,22.43,22.43,0,0,1,7.54,5l-5.45,6.87a20.45,20.45,0,0,0-5.13-3.12,15.16,15.16,0,0,0-5.77-1.07,8.74,8.74,0,0,0-5.1,1.35,4.26,4.26,0,0,0-1.93,3.71,4,4,0,0,0,1,2.84,8.74,8.74,0,0,0,2.89,1.94c1.24.55,2.59,1.15,4.07,1.78l6.63,2.68a20.43,20.43,0,0,1,5.45,3.16,13.71,13.71,0,0,1,3.6,4.55,14.05,14.05,0,0,1,1.3,6.28,14.55,14.55,0,0,1-2.25,7.86,16,16,0,0,1-6.56,5.76A22.64,22.64,0,0,1,2758.56,2363.18Z"/><path class="cls-5" d="M682,439.08V228.82H812.68v37H726.06v52.48h74.06v37H726.06v83.72Z"/><path class="cls-5" d="M849.38,439.08V228.82H893.5V439.08Z"/><path class="cls-5" d="M944.37,439.08V228.82h45.4L1048.06,338,1069,383.7h1.28q-1.61-16.74-3.54-36.71t-1.93-38.32V228.82h41.86V439.08h-45.08L1003.3,329.93,982.05,284.2h-1.29q1.61,17.07,3.7,36.71a357.33,357.33,0,0,1,2.09,37.67v80.5Z"/><path class="cls-5" d="M1221.93,439.08V228.82h58.28q32.2,0,55.71,11.27a80,80,0,0,1,36.22,34.29q12.72,23,12.72,58.77t-12.72,59.24q-12.72,23.52-35.58,35.1t-53.77,11.59ZM1266,403.34h11.6q18.66,0,32.68-7.08t21.57-22.38q7.58-15.28,7.57-40.73t-7.57-40.42q-7.56-15-21.57-21.57t-32.68-6.6H1266Z"/><path class="cls-5" d="M1425.43,439.08V228.82h130.09v37h-86v46h73.1v37h-73.1v53.13h89.2v37Z"/><path class="cls-5" d="M1665.32,439.08V228.82h44.11V402.05h84.37v37Z"/><path class="cls-5" d="M1801.85,439.08l67-210.26h52.49L1988,439.08h-46.69l-29-108.19q-4.51-16.09-8.85-33.81t-8.86-34.45h-1.29q-3.86,16.74-8.21,34.45t-8.85,33.81l-29.3,108.19Zm42.5-52.48V352.46h100.46V386.6Z"/><path class="cls-5" d="M2076.19,439.08V228.82h130.09v37h-86v46h73.1v37h-73.1v53.13h89.2v37Z"/><path class="cls-5" d="M2251.68,439.08V228.82h74.06q22.22,0,40.25,6t28.82,20q10.79,14,10.78,38.48,0,23.5-10.78,38.64A62.69,62.69,0,0,1,2366,354.08q-18,7.08-40.25,7.08h-29.95v77.92Zm44.11-113h26.08q19.64,0,30.11-8.21t10.46-24.63q0-16.43-10.46-22.86t-30.11-6.44h-26.08Zm69.87,113-48-89.51,30.91-27.69,66.65,117.2Z"/><path class="cls-5" d="M2417.51,439.08l67-210.26H2537l66.65,210.26h-46.69l-29-108.19q-4.51-16.09-8.85-33.81t-8.86-34.45H2509q-3.85,16.74-8.21,34.45t-8.85,33.81l-29.3,108.19ZM2460,386.6V352.46h100.47V386.6Z"/><path class="cls-5" d="M2691.85,439.08V228.82H2762q23.19,0,41.86,6.28t29.79,20.77q11.1,14.49,11.11,39.6,0,24.15-11,39.77a64.17,64.17,0,0,1-29.46,23q-18.53,7.41-41.06,7.41H2736v73.41ZM2736,330.57h24.47q20.94,0,31.08-8.86t10.14-26.24q0-17.39-10.79-24.47t-31.71-7.08H2736Z"/><path class="cls-5" d="M2882.47,439.08V228.82h44.11V439.08Z"/><path class="cls-5" d="M2977.46,439.08V228.82h45.4L3081.14,338l20.93,45.72h1.29q-1.62-16.74-3.54-36.71t-1.93-38.32V228.82h41.86V439.08h-45.08l-58.28-109.15-21.26-45.73h-1.28q1.61,17.07,3.7,36.71a357.33,357.33,0,0,1,2.09,37.67v80.5Zm105-223.79a36.63,36.63,0,0,1-15.13-2.89,66.51,66.51,0,0,1-11.6-6.61q-5.14-3.69-9.49-6.76a14.86,14.86,0,0,0-8.54-3.06,10.72,10.72,0,0,0-8.21,3.71q-3.37,3.7-4.35,13l-28.33-2.26q1.28-23.49,12.07-34.29t27.21-10.79a37.79,37.79,0,0,1,15.3,2.9,65,65,0,0,1,11.75,6.6q5.14,3.7,9.5,6.6a15.31,15.31,0,0,0,8.53,2.9,10.36,10.36,0,0,0,7.89-3.7c2.26-2.47,3.7-6.71,4.35-12.72l28.66,1.93q-1.29,23.51-12.24,34.46T3082.43,215.29Z"/><path class="cls-5" d="M3190.62,439.08V228.82h130.09v37h-86v46h73.1v37h-73.1v53.13h89.2v37Z"/><path class="cls-5" d="M3366.11,439.08V228.82h74.06q22.22,0,40.25,6t28.82,20q10.78,14,10.78,38.48,0,23.5-10.78,38.64a62.69,62.69,0,0,1-28.82,22.22q-18,7.08-40.25,7.08h-30v77.92Zm44.11-113h26.08q19.65,0,30.11-8.21t10.47-24.63q0-16.43-10.47-22.86t-30.11-6.44h-26.08Zm69.88,113-48-89.51L3463,321.88l66.65,117.2Z"/><path class="cls-5" d="M3531.94,439.08l67-210.26h52.49l66.65,210.26h-46.69l-29-108.19q-4.5-16.09-8.85-33.81t-8.86-34.45h-1.28q-3.87,16.74-8.21,34.45t-8.86,33.81L3577,439.08Zm42.5-52.48V352.46h100.47V386.6Z"/></g></g></svg>