<svg xmlns="http://www.w3.org/2000/svg" xmlns:xlink="http://www.w3.org/1999/xlink" viewBox="0 0 4400 690"><defs><style>.cls-1{fill:none;}.cls-2{clip-path:url(#clip-path);}.cls-3{fill:#1c1917;}.cls-4{fill:#fff;}</style><clipPath id="clip-path"><rect class="cls-1" width="4400" height="690"/></clipPath></defs><title>CiereDeMesasELECCIONES</title><g id="Capa_2" data-name="Capa 2"><g id="Capa_1-2" data-name="Capa 1"><g class="cls-2"><rect class="cls-3" width="4400" height="690"/></g><path class="cls-4" d="M1145.22,442.35q-24.92,0-45.3-11.4t-32.7-33.9q-12.32-22.5-12.3-55.2,0-24.3,7.2-43.35a93,93,0,0,1,20-32.25,86.51,86.51,0,0,1,29.4-20.1,90.36,90.36,0,0,1,35-6.9q18.9,0,33.75,7.65a93.19,93.19,0,0,1,24.45,17.55l-21.9,26.4a78.16,78.16,0,0,0-15.9-11.4,40.73,40.73,0,0,0-19.5-4.5,43.53,43.53,0,0,0-25.5,7.95q-11.41,8-18,22.5t-6.6,35q0,21,6,35.85t17.25,22.65q11.25,7.8,26.25,7.8a44.77,44.77,0,0,0,22-5.4,69.09,69.09,0,0,0,17.25-13.5l21.9,25.8a79.76,79.76,0,0,1-62.7,28.8Z"/><path class="cls-4" d="M1238.51,438.75V242.85h41.1v195.9Z"/><path class="cls-4" d="M1327,438.75V242.85h121.2v34.5h-80.1v42.9h68.1v34.5h-68.1v49.5h83.1v34.5Z"/><path class="cls-4" d="M1490.51,438.75V242.85h69a119.11,119.11,0,0,1,37.5,5.55q16.8,5.55,26.85,18.6t10.05,35.85q0,21.9-10.05,36a58.37,58.37,0,0,1-26.85,20.7q-16.8,6.6-37.5,6.6h-27.9v72.6Zm41.1-105.3h24.3q18.3,0,28-7.65t9.75-22.95q0-15.3-9.75-21.3t-28-6h-24.3Zm65.1,105.3-44.7-83.4,28.8-25.8,62.1,109.2Z"/><path class="cls-4" d="M1672.31,438.75V242.85h69a119.16,119.16,0,0,1,37.5,5.55,54.57,54.57,0,0,1,26.85,18.6q10,13,10,35.85,0,21.9-10,36a58.42,58.42,0,0,1-26.85,20.7q-16.82,6.6-37.5,6.6h-27.9v72.6Zm41.1-105.3h24.3q18.29,0,28-7.65t9.75-22.95q0-15.3-9.75-21.3t-28-6h-24.3Zm65.1,105.3-44.7-83.4,28.8-25.8,62.1,109.2Z"/><path class="cls-4" d="M1854.1,438.75V242.85h121.2v34.5h-80.1v42.9h68.1v34.5h-68.1v49.5h83.1v34.5Z"/><path class="cls-4" d="M2077.6,438.75V242.85h54.3q30,0,51.9,10.5a74.53,74.53,0,0,1,33.75,32q11.85,21.45,11.85,54.75t-11.85,55.2q-11.85,21.9-33.15,32.7t-50.1,10.8Zm41.1-33.3h10.8q17.4,0,30.45-6.6t20.1-20.85q7-14.25,7-37.95t-7-37.65q-7.05-13.95-20.1-20.1t-30.45-6.15h-10.8Z"/><path class="cls-4" d="M2267.2,438.75V242.85h121.2v34.5h-80.1v42.9h68.1v34.5h-68.1v49.5h83.1v34.5Z"/><path class="cls-4" d="M2490.7,438.75V242.85H2536l32.7,90q3,8.7,5.85,18.15t5.85,18.75h1.2q3-9.3,5.85-18.75t5.85-18.15l31.8-90h45.3v195.9h-37.5v-77.7q0-9.3.9-20.85t2.1-23.25q1.18-11.7,2.1-21h-1.2l-15.9,45.9-29.1,79.5h-23.4l-29.1-79.5L2523.7,296h-1.2q.9,9.3,2.1,21t2.1,23.25q.9,11.55.9,20.85v77.7Z"/><path class="cls-4" d="M2717.79,438.75V242.85H2839v34.5h-80.1v42.9H2827v34.5h-68.1v49.5H2842v34.5Z"/><path class="cls-4" d="M2940.39,442.35a105.56,105.56,0,0,1-38.25-7.35,103,103,0,0,1-33.75-21.15l23.7-28.2a85.21,85.21,0,0,0,23.55,15.3,63.77,63.77,0,0,0,25.65,5.7q14.7,0,22.2-5.55t7.5-15.45q0-6.9-3.75-10.95a34.13,34.13,0,0,0-10.2-7.2q-6.45-3.15-15.15-6.75l-25.8-11.1a90,90,0,0,1-19.05-11.1,53.85,53.85,0,0,1-14.85-17.25q-5.7-10.35-5.7-24.75a49.76,49.76,0,0,1,8.85-28.8,63.4,63.4,0,0,1,24.3-20.7q15.45-7.8,35.25-7.8a88.62,88.62,0,0,1,33.45,6.6,85.16,85.16,0,0,1,28.65,18.9l-20.7,26.1a77.79,77.79,0,0,0-19.5-11.85,57.32,57.32,0,0,0-21.9-4.05q-12,0-19.35,5.1a16.23,16.23,0,0,0-7.35,14.1,15.24,15.24,0,0,0,3.9,10.8A33.23,33.23,0,0,0,2933,312.3q7,3.15,15.45,6.75l25.2,10.2a77.09,77.09,0,0,1,20.7,12A52,52,0,0,1,3008,358.5q5,10,4.95,23.85a55.15,55.15,0,0,1-8.55,29.85q-8.55,13.65-24.9,21.9T2940.39,442.35Z"/><path class="cls-4" d="M3021.69,438.75l62.4-195.9H3133l62.1,195.9h-43.5l-27-100.8q-4.2-15-8.25-31.5t-8.25-32.1h-1.2q-3.6,15.6-7.65,32.1T3091,338l-27.3,100.8Zm39.6-48.9v-31.8h93.6v31.8Z"/><path class="cls-4" d="M3276.39,442.35a105.56,105.56,0,0,1-38.25-7.35,102.78,102.78,0,0,1-33.75-21.15l23.7-28.2a85.21,85.21,0,0,0,23.55,15.3,63.77,63.77,0,0,0,25.65,5.7q14.68,0,22.2-5.55t7.5-15.45q0-6.9-3.75-10.95a34.26,34.26,0,0,0-10.2-7.2q-6.47-3.15-15.15-6.75l-25.8-11.1a90,90,0,0,1-19.05-11.1,53.6,53.6,0,0,1-14.85-17.25q-5.7-10.35-5.7-24.75a49.76,49.76,0,0,1,8.85-28.8q8.84-12.9,24.3-20.7t35.25-7.8a88.65,88.65,0,0,1,33.45,6.6,85.26,85.26,0,0,1,28.65,18.9l-20.7,26.1a78,78,0,0,0-19.5-11.85,57.36,57.36,0,0,0-21.9-4.05q-12,0-19.35,5.1a16.21,16.21,0,0,0-7.35,14.1,15.24,15.24,0,0,0,3.9,10.8A33.13,33.13,0,0,0,3269,312.3q7,3.15,15.45,6.75l25.2,10.2a77.4,77.4,0,0,1,20.7,12A52,52,0,0,1,3344,358.5q5,10,4.95,23.85a55.15,55.15,0,0,1-8.55,29.85q-8.55,13.65-24.9,21.9T3276.39,442.35Z"/></g></g></svg>