<svg xmlns="http://www.w3.org/2000/svg" xmlns:xlink="http://www.w3.org/1999/xlink" viewBox="0 0 4400 690"><defs><style>.cls-1{clip-path:url(#clip-path);}.cls-2{fill:#fff;}</style><clipPath id="clip-path"><rect width="4400" height="690"/></clipPath></defs><title>InicioDeVotacionesELECCIONES_CONTADOR3</title><g id="Capa_2" data-name="Capa 2"><g id="Capa_1-2" data-name="Capa 1"><rect width="4400" height="690"/><g class="cls-1"><rect width="4400" height="690"/></g><path class="cls-2" d="M729,438.75V242.85h41.1v195.9Z"/><path class="cls-2" d="M817.46,438.75V242.85h42.3l54.3,101.7,19.5,42.6h1.2q-1.5-15.6-3.3-34.2t-1.8-35.7v-74.4h39v195.9h-42l-54.3-101.7-19.8-42.6h-1.2q1.5,15.9,3.45,34.2a331.59,331.59,0,0,1,2,35.1v75Z"/><path class="cls-2" d="M1016.06,438.75V242.85h41.1v195.9Z"/><path class="cls-2" d="M1185.26,442.35q-24.9,0-45.3-11.4t-32.7-33.9q-12.3-22.5-12.3-55.2,0-24.3,7.2-43.35a93.12,93.12,0,0,1,19.95-32.25,86.6,86.6,0,0,1,29.4-20.1,90.4,90.4,0,0,1,35-6.9q18.9,0,33.75,7.65a93,93,0,0,1,24.45,17.55l-21.9,26.4a77.62,77.62,0,0,0-15.9-11.4,40.68,40.68,0,0,0-19.5-4.5,43.55,43.55,0,0,0-25.5,7.95q-11.4,8-18,22.5t-6.6,35q0,21,6,35.85t17.25,22.65q11.25,7.8,26.25,7.8a44.74,44.74,0,0,0,22-5.4,68.73,68.73,0,0,0,17.25-13.5l21.9,25.8a81.08,81.08,0,0,1-27.9,21.45A81.92,81.92,0,0,1,1185.26,442.35Z"/><path class="cls-2" d="M1278.56,438.75V242.85h41.1v195.9Z"/><path class="cls-2" d="M1445.65,442.35q-26.1,0-46.05-12.3t-31-35.25q-11.11-22.95-11.1-54.75t11.1-54.3q11.09-22.5,31-34.5t46.05-12q26.11,0,45.91,12t30.9,34.5q11.08,22.5,11.1,54.3t-11.1,54.75q-11.12,22.95-30.9,35.25T1445.65,442.35Zm0-35.7a38.1,38.1,0,0,0,24.16-8.1q10.35-8.1,16-23.1t5.71-35.4q0-20.4-5.71-34.95t-16-22.35a39.06,39.06,0,0,0-24.16-7.8q-14.1,0-24.44,7.8t-15.9,22.35q-5.57,14.55-5.56,34.95t5.56,35.4q5.54,15,15.9,23.1A38.45,38.45,0,0,0,1445.65,406.65Z"/><path class="cls-2" d="M1631.35,438.75V242.85h54.3q30,0,51.9,10.5a74.53,74.53,0,0,1,33.75,32q11.85,21.45,11.85,54.75t-11.85,55.2q-11.85,21.9-33.15,32.7t-50.1,10.8Zm41.1-33.3h10.8q17.4,0,30.45-6.6T1733.8,378q7-14.25,7-37.95t-7-37.65q-7-13.95-20.1-20.1t-30.45-6.15h-10.8Z"/><path class="cls-2" d="M1821,438.75V242.85h121.2v34.5h-80.1v42.9h68.1v34.5h-68.1v49.5h83.1v34.5Z"/><path class="cls-2" d="M2078.65,438.75,2019,242.85h43.5l24.9,93.6q4.8,16.5,8.25,31.65t8,31.65h1.2q4.8-16.5,8.4-31.65t7.8-31.65l24.6-93.6h42l-59.7,195.9Z"/><path class="cls-2" d="M2285.05,442.35q-26.1,0-46.05-12.3T2208,394.8q-11.1-22.95-11.1-54.75t11.1-54.3q11.09-22.5,31.05-34.5t46.05-12q26.1,0,45.9,12t30.9,34.5q11.08,22.5,11.1,54.3t-11.1,54.75q-11.1,22.95-30.9,35.25T2285.05,442.35Zm0-35.7a38.07,38.07,0,0,0,24.15-8.1q10.35-8.1,16.05-23.1t5.7-35.4q0-20.4-5.7-34.95t-16.05-22.35a39,39,0,0,0-24.15-7.8q-14.12,0-24.45,7.8t-15.9,22.35q-5.57,14.55-5.55,34.95t5.55,35.4q5.55,15,15.9,23.1A38.48,38.48,0,0,0,2285.05,406.65Z"/><path class="cls-2" d="M2441.35,438.75V277.35h-54.6v-34.5h150.6v34.5h-54.9v161.4Z"/><path class="cls-2" d="M2531.35,438.75l62.4-195.9h48.9l62.1,195.9h-43.5l-27-100.8q-4.2-15-8.25-31.5t-8.25-32.1h-1.2q-3.6,15.6-7.65,32.1t-8.25,31.5l-27.3,100.8Zm39.6-48.9v-31.8h93.6v31.8Z"/><path class="cls-2" d="M2804.65,442.35q-24.9,0-45.3-11.4t-32.7-33.9q-12.3-22.5-12.3-55.2,0-24.3,7.2-43.35a93.12,93.12,0,0,1,19.95-32.25,86.6,86.6,0,0,1,29.4-20.1,90.4,90.4,0,0,1,34.95-6.9q18.9,0,33.75,7.65a93,93,0,0,1,24.45,17.55l-21.9,26.4a77.62,77.62,0,0,0-15.9-11.4,40.68,40.68,0,0,0-19.5-4.5,43.55,43.55,0,0,0-25.5,7.95q-11.4,8-18,22.5t-6.6,35q0,21,6,35.85t17.25,22.65q11.25,7.8,26.25,7.8a44.74,44.74,0,0,0,22-5.4,68.73,68.73,0,0,0,17.25-13.5l21.9,25.8a81.08,81.08,0,0,1-27.9,21.45A81.92,81.92,0,0,1,2804.65,442.35Z"/><path class="cls-2" d="M2898,438.75V242.85H2939v195.9Z"/><path class="cls-2" d="M3065,442.35q-26.1,0-46.05-12.3t-31-35.25q-11.1-22.95-11.1-54.75t11.1-54.3q11.1-22.5,31-34.5t46.05-12q26.1,0,45.9,12t30.9,34.5q11.1,22.5,11.1,54.3t-11.1,54.75q-11.1,22.95-30.9,35.25T3065,442.35Zm0-35.7a38.05,38.05,0,0,0,24.15-8.1q10.35-8.1,16-23.1t5.7-35.4q0-20.4-5.7-34.95t-16-22.35A39,39,0,0,0,3065,275q-14.1,0-24.45,7.8t-15.9,22.35q-5.55,14.55-5.55,34.95t5.55,35.4q5.55,15,15.9,23.1A38.5,38.5,0,0,0,3065,406.65Z"/><path class="cls-2" d="M3190.74,438.75V242.85H3233l54.3,101.7,19.5,42.6h1.2q-1.5-15.6-3.3-34.2t-1.8-35.7v-74.4h39v195.9h-42l-54.3-101.7-19.8-42.6h-1.2q1.5,15.9,3.45,34.2a331.59,331.59,0,0,1,1.95,35.1v75Z"/><path class="cls-2" d="M3389.34,438.75V242.85h121.2v34.5h-80.1v42.9h68.1v34.5h-68.1v49.5h83.1v34.5Z"/><path class="cls-2" d="M3611.94,442.35a105.56,105.56,0,0,1-38.25-7.35,103,103,0,0,1-33.75-21.15l23.7-28.2a85.21,85.21,0,0,0,23.55,15.3,63.77,63.77,0,0,0,25.65,5.7q14.7,0,22.2-5.55t7.5-15.45q0-6.9-3.75-10.95a34.13,34.13,0,0,0-10.2-7.2q-6.45-3.15-15.15-6.75l-25.8-11.1a90,90,0,0,1-19-11.1,53.85,53.85,0,0,1-14.85-17.25q-5.7-10.35-5.7-24.75a49.76,49.76,0,0,1,8.85-28.8,63.4,63.4,0,0,1,24.3-20.7q15.45-7.8,35.25-7.8a88.62,88.62,0,0,1,33.45,6.6,85.16,85.16,0,0,1,28.65,18.9l-20.7,26.1a77.79,77.79,0,0,0-19.5-11.85,57.32,57.32,0,0,0-21.9-4.05q-12,0-19.35,5.1a16.23,16.23,0,0,0-7.35,14.1,15.24,15.24,0,0,0,3.9,10.8,33.23,33.23,0,0,0,11,7.35q7,3.15,15.45,6.75l25.2,10.2a77.09,77.09,0,0,1,20.7,12,52,52,0,0,1,13.65,17.25q4.95,10,4.95,23.85A55.15,55.15,0,0,1,3676,412.2q-8.55,13.65-24.9,21.9T3611.94,442.35Z"/></g></g></svg>