<?xml version="1.0" encoding="utf-8"?>
<!-- Generator: Adobe Illustrator 23.0.2, SVG Export Plug-In . SVG Version: 6.00 Build 0)  -->
<svg version="1.1" id="Capa_1" xmlns="http://www.w3.org/2000/svg" xmlns:xlink="http://www.w3.org/1999/xlink" x="0px" y="0px"
	 viewBox="0 0 522 250" style="enable-background:new 0 0 522 250;" xml:space="preserve">
<style type="text/css">
	.st0{fill:#FFFFFF;}
	.st1{fill:#A644FF;}
	.st2{clip-path:url(#SVGID_3_);}
	.st3{clip-path:url(#SVGID_4_);}
	.st4{clip-path:url(#SVGID_6_);}
</style>
<title>TM</title>
<polygon class="st0" points="196.4,116.1 160.7,151.8 125,151.8 93.8,183 93.8,151.8 53.6,151.8 53.6,17.9 196.4,17.9 "/>
<path class="st1" d="M44.6,0L0,44.6v160.7h53.6V250l44.6-44.6h35.7l80.4-80.4V0H44.6z M196.4,116.1l-35.7,35.7H125L93.8,183v-31.2
	H53.6V17.9h142.9V116.1z"/>
<rect x="151.8" y="49.1" class="st1" width="17.9" height="53.6"/>
<rect x="102.7" y="49.1" class="st1" width="17.9" height="53.6"/>
<g>
	<g>
		<defs>
			<polygon id="SVGID_1_" points="294.6,263.6 571.6,263.6 571.6,-13.4 294.6,-13.4 294.6,263.6 			"/>
		</defs>
		<defs>
			<polygon id="SVGID_2_" points="294.6,-13.4 571.6,-13.4 571.6,263.6 294.6,263.6 294.6,-13.4 			"/>
		</defs>
		<clipPath id="SVGID_3_">
			<use xlink:href="#SVGID_1_"  style="overflow:visible;"/>
		</clipPath>
		<clipPath id="SVGID_4_" class="st2">
			<use xlink:href="#SVGID_2_"  style="overflow:visible;"/>
		</clipPath>
		<g class="st3">
			<defs>
				<polygon id="SVGID_5_" points="294.6,263.6 571.6,263.6 571.6,-13.4 294.6,-13.4 294.6,263.6 				"/>
			</defs>
			<clipPath id="SVGID_6_">
				<use xlink:href="#SVGID_5_"  style="overflow:visible;"/>
			</clipPath>
			<path class="st4" d="M528.5,169.3h-194V43.7h194V169.3L528.5,169.3L528.5,169.3z M534.2,26.5H328.8c-6.3,0-11.4,5.1-11.4,11.4
				v137c0,6.3,5.1,11.4,11.4,11.4h79.9v17.1h-28.5v17.1h102.7v-17.1h-28.5v-17.1h79.9c6.3,0,11.4-5.1,11.4-11.4V38
				C545.6,31.7,540.5,26.5,534.2,26.5L534.2,26.5z"/>
		</g>
	</g>
</g>
</svg>
