<?xml version="1.0" encoding="utf-8"?>
<!-- Generator: Adobe Illustrator 23.0.2, SVG Export Plug-In . SVG Version: 6.00 Build 0)  -->
<svg version="1.1" id="Capa_1" xmlns="http://www.w3.org/2000/svg" xmlns:xlink="http://www.w3.org/1999/xlink" x="0px" y="0px"
	 viewBox="0 0 522 250" style="enable-background:new 0 0 522 250;" xml:space="preserve">
<style type="text/css">
	.st0{fill:#FFFFFF;}
	.st1{fill:#A644FF;}
	.st2{clip-path:url(#SVGID_3_);}
	.st3{clip-path:url(#SVGID_4_);}
	.st4{clip-path:url(#SVGID_6_);}
</style>
<title>TM</title>
<polygon class="st0" points="196.4,116.1 160.7,151.8 125,151.8 93.8,183 93.8,151.8 53.6,151.8 53.6,17.9 196.4,17.9 "/>
<path class="st1" d="M44.6,0L0,44.6v160.7h53.6V250l44.6-44.6h35.7l80.4-80.4V0H44.6z M196.4,116.1l-35.7,35.7H125L93.8,183v-31.2
	H53.6V17.9h142.9V116.1z"/>
<rect x="151.8" y="49.1" class="st1" width="17.9" height="53.6"/>
<rect x="102.7" y="49.1" class="st1" width="17.9" height="53.6"/>
<g>
	<defs>
		<polygon id="SVGID_1_" points="281.9,291.5 614.9,291.5 614.9,-41.5 281.9,-41.5 281.9,291.5 		"/>
	</defs>
	<defs>
		<polygon id="SVGID_2_" points="281.9,-41.5 614.9,-41.5 614.9,291.5 281.9,291.5 281.9,-41.5 		"/>
	</defs>
	<clipPath id="SVGID_3_">
		<use xlink:href="#SVGID_1_"  style="overflow:visible;"/>
	</clipPath>
	<clipPath id="SVGID_4_" class="st2">
		<use xlink:href="#SVGID_2_"  style="overflow:visible;"/>
	</clipPath>
	<g class="st3">
		<g>
			<defs>
				<polygon id="SVGID_5_" points="281.9,291.5 614.9,291.5 614.9,-41.5 281.9,-41.5 281.9,291.5 				"/>
			</defs>
			<clipPath id="SVGID_6_">
				<use xlink:href="#SVGID_5_"  style="overflow:visible;"/>
			</clipPath>
			<g class="st4">
				<path d="M425.9,51.2h54.9V40.9c0-7.6-6.1-13.7-13.7-13.7H323c-7.6,0-13.7,6.2-13.7,13.7v92.6c0,7.6,6.1,13.7,13.7,13.7h20.6
					v34.3l34.3-34.3h20.6V78.6C398.5,63.5,410.8,51.2,425.9,51.2L425.9,51.2z"/>
				<path d="M570,64.9h-144c-7.6,0-13.7,6.2-13.7,13.7v92.6c0,7.6,6.2,13.7,13.7,13.7h89.2l34.3,34.3v-34.3H570
					c7.5,0,13.7-6.1,13.7-13.7V78.6C583.7,71,577.6,64.9,570,64.9L570,64.9z"/>
			</g>
		</g>
	</g>
</g>
</svg>
