<?xml version="1.0" encoding="UTF-8" standalone="no"?>
<svg
   xmlns:dc="http://purl.org/dc/elements/1.1/"
   xmlns:cc="http://creativecommons.org/ns#"
   xmlns:rdf="http://www.w3.org/1999/02/22-rdf-syntax-ns#"
   xmlns:svg="http://www.w3.org/2000/svg"
   xmlns="http://www.w3.org/2000/svg"
   xmlns:sodipodi="http://sodipodi.sourceforge.net/DTD/sodipodi-0.dtd"
   xmlns:inkscape="http://www.inkscape.org/namespaces/inkscape"
   viewBox="0 0 700 700"
   class="r-13gxpu9 r-4qtqp9 r-yyyyoo r-16y2uox r-1q142lx r-8kz0gk r-dnmrzs r-bnwqim r-1plcrui r-lrvibr"
   version="1.1"
   id="svg6"
   sodipodi:docname="twitter-logo.svg"
   width="700"
   height="700"
   inkscape:version="0.92.4 (5da689c313, 2019-01-14)">
  <metadata
     id="metadata12">
    <rdf:RDF>
      <cc:Work
         rdf:about="">
        <dc:format>image/svg+xml</dc:format>
        <dc:type
           rdf:resource="http://purl.org/dc/dcmitype/StillImage" />
        <dc:title></dc:title>
      </cc:Work>
    </rdf:RDF>
  </metadata>
  <defs
     id="defs10" />
  <sodipodi:namedview
     pagecolor="#ffffff"
     bordercolor="#666666"
     borderopacity="1"
     objecttolerance="10"
     gridtolerance="10"
     guidetolerance="10"
     inkscape:pageopacity="0"
     inkscape:pageshadow="2"
     inkscape:window-width="1600"
     inkscape:window-height="837"
     id="namedview8"
     showgrid="false"
     inkscape:zoom="0.61458333"
     inkscape:cx="601.93105"
     inkscape:cy="337.82452"
     inkscape:window-x="-8"
     inkscape:window-y="-8"
     inkscape:window-maximized="1"
     inkscape:current-layer="svg6" />
  <g
     id="g4"
     style="fill:#1da1f2;fill-opacity:1"
     transform="matrix(20.452181,0,0,20.452181,98.642696,105.00332)">
    <path
       d="m 23.643,4.937 c -0.835,0.37 -1.732,0.62 -2.675,0.733 0.962,-0.576 1.7,-1.49 2.048,-2.578 -0.9,0.534 -1.897,0.922 -2.958,1.13 -0.85,-0.904 -2.06,-1.47 -3.4,-1.47 C 14.086,2.752 12,4.838 12,7.412 12,7.776 12.042,8.13 12.12,8.472 8.247,8.277 4.816,6.422 2.518,3.604 c -0.4,0.69 -0.63,1.49 -0.63,2.342 0,1.616 0.823,3.043 2.072,3.878 C 3.196,9.799 2.478,9.59 1.85,9.241 v 0.06 c 0,2.257 1.605,4.14 3.737,4.568 -0.392,0.106 -0.803,0.162 -1.227,0.162 -0.3,0 -0.593,-0.028 -0.877,-0.082 0.593,1.85 2.313,3.198 4.352,3.234 -1.595,1.25 -3.604,1.995 -5.786,1.995 -0.376,0 -0.747,-0.022 -1.112,-0.065 2.062,1.323 4.51,2.093 7.14,2.093 8.57,0 13.255,-7.098 13.255,-13.254 0,-0.2 -0.005,-0.402 -0.014,-0.602 0.91,-0.658 1.7,-1.477 2.323,-2.41 z"
       id="path2"
       style="fill:#1da1f2;fill-opacity:1"
       inkscape:connector-curvature="0" />
  </g>
</svg>
