<svg width="1282" height="642" xmlns="http://www.w3.org/2000/svg" xmlns:xlink="http://www.w3.org/1999/xlink" overflow="hidden"><defs><clipPath id="clip0"><rect x="-1" y="-1" width="1282" height="642"/></clipPath><clipPath id="clip1"><rect x="299" y="300" width="42" height="41"/></clipPath><clipPath id="clip2"><rect x="299" y="300" width="42" height="41"/></clipPath><clipPath id="clip3"><rect x="299" y="300" width="42" height="41"/></clipPath><clipPath id="clip4"><rect x="939" y="300" width="42" height="41"/></clipPath><clipPath id="clip5"><rect x="939" y="300" width="42" height="41"/></clipPath><clipPath id="clip6"><rect x="939" y="300" width="42" height="41"/></clipPath><clipPath id="clip7"><rect x="541" y="599" width="77" height="29"/></clipPath><clipPath id="clip8"><rect x="541" y="599" width="77" height="29"/></clipPath><clipPath id="clip9"><rect x="541" y="599" width="77" height="29"/></clipPath><clipPath id="clip10"><rect x="1185" y="599" width="77" height="29"/></clipPath><clipPath id="clip11"><rect x="1185" y="599" width="77" height="29"/></clipPath><clipPath id="clip12"><rect x="1185" y="599" width="77" height="29"/></clipPath></defs><g clip-path="url(#clip0)" transform="translate(1 1)"><rect x="0" y="632" width="1280" height="8" fill="#FFFFFF"/><rect x="636" y="0" width="8" height="636" fill="#FFFFFF"/><rect x="523" y="576" width="113" height="19" fill="#BFBFBF"/><text font-family="Assistant,Assistant_MSFontService,sans-serif" font-weight="700" font-size="9" transform="translate(529.973 589)">USGS <tspan font-size="9" x="24.3333" y="0">-</tspan><tspan font-size="9" x="29.1666" y="0">MAPBOX </tspan><tspan font-size="9" x="66" y="0">-</tspan><tspan font-size="9" x="70.8333" y="0">AINMcl</tspan></text><rect x="523" y="595" width="113" height="37" fill="#FFFFFF"/><g clip-path="url(#clip1)"><g clip-path="url(#clip2)"><g clip-path="url(#clip3)"><path d="M37.5833 16.2292 24.7708 16.2292 20.5 3.41667 16.2292 16.2292 3.41667 16.2292 13.2396 24.7708 9.39583 37.5833 20.5 29.8958 31.6042 37.5833 27.7604 24.7708Z" stroke="#000000" stroke-width="0.666669" fill="#FFFF00" transform="matrix(1.02439 0 0 1 299 300)"/></g></g></g><g clip-path="url(#clip4)"><g clip-path="url(#clip5)"><g clip-path="url(#clip6)"><path d="M37.5833 16.2292 24.7708 16.2292 20.5 3.41667 16.2292 16.2292 3.41667 16.2292 13.2396 24.7708 9.39583 37.5833 20.5 29.8958 31.6042 37.5833 27.7604 24.7708Z" stroke="#000000" stroke-width="0.666669" fill="#FFFF00" transform="matrix(1.02439 0 0 1 939 300)"/></g></g></g><g clip-path="url(#clip7)"><g clip-path="url(#clip8)"><g clip-path="url(#clip9)"><path d="M37.1596 1.26613 37.1596 15.1936C37.1596 18.1316 35.5008 21.2331 30.4952 21.2331 25.9803 21.2331 23.8014 18.8939 23.8014 15.1936L23.8014 1.26613 27.9106 1.26613 27.9106 14.9221C27.9106 17.3431 28.9444 18.2952 30.4396 18.2952 32.2357 18.2952 33.0504 17.0977 33.0504 14.9221L33.0504 1.26613 37.1596 1.26613Z" transform="matrix(1 0 0 1.01979 539.689 598.042)"/><path d="M43.837 21.2331C38.7496 21.2331 37.7975 18.2395 38.0167 14.8403L42.126 14.8403C42.126 16.7182 42.2077 18.2952 44.4652 18.2952 45.8524 18.2952 46.5329 17.3987 46.5329 16.0639 46.5329 12.5272 38.2621 12.3113 38.2621 6.46154 38.2621 3.38617 39.7311 0.938968 44.7367 0.938968 48.7347 0.938968 50.7206 2.73511 50.4491 6.84105L46.4511 6.84105C46.4511 5.37207 46.2057 3.87692 44.547 3.87692 43.2154 3.87692 42.427 4.61305 42.427 5.97079 42.427 9.69722 50.6977 9.37005 50.6977 15.547 50.6945 20.6344 46.968 21.2331 43.837 21.2331Z" transform="matrix(1 0 0 1.01979 539.689 598.042)"/><path d="M71.4532 21.2331C66.3657 21.2331 65.4137 18.2395 65.6329 14.8403L69.7421 14.8403C69.7421 16.7182 69.8239 18.2952 72.0813 18.2952 73.4685 18.2952 74.149 17.3987 74.149 16.0639 74.149 12.5272 65.8783 12.3113 65.8783 6.46154 65.8783 3.38617 67.3472 0.938968 72.3529 0.938968 76.3508 0.938968 78.3367 2.73511 78.0652 6.84105L74.0672 6.84105C74.0672 5.37207 73.8218 3.87692 72.1631 3.87692 70.8316 3.87692 70.0398 4.61305 70.0398 5.97079 70.0398 9.69722 78.3106 9.37005 78.3106 15.547 78.3106 20.6344 74.5809 21.2331 71.4532 21.2331Z" transform="matrix(1 0 0 1.01979 539.689 598.042)"/><path d="M58.3665 13.5872 60.7843 13.5872 60.7843 17.9222 60.5847 17.9974C59.9598 18.2166 59.2237 18.3769 58.5432 18.3769 56.2039 18.3769 55.6052 17.2875 55.6052 11.14 55.6052 7.3318 55.6052 3.87692 58.1637 3.87692 60.1528 3.87692 60.5716 5.21831 60.6109 6.84105L64.7037 6.84105C64.7364 3.02956 62.2827 0.938968 58.4123 0.938968 51.6923 0.938968 51.4469 5.97079 51.4469 10.9241 51.4469 18.3769 52.255 21.2691 59.1648 21.2691 60.7679 21.2691 63.3198 20.9059 64.4976 20.5853 64.5696 20.5657 64.6972 20.4872 64.6972 20.3857 64.6972 19.8492 64.6972 10.6231 64.6972 10.6231L58.373 10.6231 58.373 13.5872 58.3665 13.5872Z" transform="matrix(1 0 0 1.01979 539.689 598.042)"/><path d="M2.3327 26.9291C2.29344 27.0861 2.26726 27.2399 2.29344 27.3478 2.32615 27.4591 2.41776 27.5114 2.60752 27.5114 2.79727 27.5114 2.9903 27.3871 3.03938 27.1548 3.19642 26.4187 1.45916 26.5856 1.69145 25.4797 1.85176 24.7305 2.64023 24.5048 3.26512 24.5048 3.92273 24.5048 4.45274 24.8221 4.24008 25.5681L3.2913 25.5681C3.34364 25.3292 3.34691 25.1853 3.2913 25.1231 3.24222 25.061 3.1637 25.0479 3.05901 25.0479 2.84635 25.0479 2.69912 25.1853 2.65005 25.4176 2.53227 25.9672 4.24335 25.9378 4.00452 27.0501 3.87692 27.6554 3.28475 28.1069 2.48319 28.1069 1.6391 28.1069 1.12218 27.8942 1.38064 26.9258L2.3327 26.9258 2.3327 26.9291Z" transform="matrix(1 0 0 1.01979 539.689 598.042)"/><path d="M6.47463 25.8134C6.58259 25.2998 6.49098 25.1264 6.18672 25.1264 5.77449 25.1264 5.66325 25.4895 5.50948 26.2126 5.28374 27.2693 5.32627 27.4951 5.68288 27.4951 5.98388 27.4951 6.18672 27.2203 6.28487 26.7688L7.25328 26.7688C7.05371 27.7077 6.45827 28.1134 5.55202 28.1134 4.30224 28.1134 4.29897 27.3511 4.53126 26.2682 4.7341 25.3227 5.04164 24.5113 6.31759 24.5113 7.21075 24.5113 7.63279 24.9105 7.43977 25.8167L6.47463 25.8167Z" transform="matrix(1 0 0 1.01979 539.689 598.042)"/><path d="M8.4638 28.0414 7.49538 28.0414 8.23151 24.5735 9.19992 24.5735 8.4638 28.0414ZM9.48456 23.2419 9.32097 24.0042 8.35583 24.0042 8.51942 23.2419 9.48456 23.2419Z" transform="matrix(1 0 0 1.01979 539.689 598.042)"/><path d="M53.76 28.0414 52.7916 28.0414 53.5277 24.5735 54.4961 24.5735 53.76 28.0414ZM54.7808 23.2419 54.6172 24.0042 53.6488 24.0042 53.8091 23.2419 54.7808 23.2419Z" transform="matrix(1 0 0 1.01979 539.689 598.042)"/><path d="M10.3319 26.4645C10.2436 26.8767 10.1258 27.4951 10.5511 27.4951 10.8946 27.4951 11.0321 27.1646 11.0942 26.8767L12.0757 26.8767C11.9808 27.253 11.7911 27.5638 11.513 27.7764 11.2414 27.9891 10.8717 28.1134 10.417 28.1134 9.16721 28.1134 9.16393 27.3511 9.39622 26.2682 9.59906 25.3227 9.9066 24.5113 11.1826 24.5113 12.4879 24.5113 12.452 25.3554 12.1804 26.4678L10.3319 26.4678ZM11.333 25.9214C11.405 25.5844 11.5195 25.1035 11.0615 25.1035 10.6166 25.1035 10.5119 25.6237 10.4497 25.9214L11.333 25.9214Z" transform="matrix(1 0 0 1.01979 539.689 598.042)"/><path d="M14.0125 24.9268 14.0256 24.9268C14.2841 24.6193 14.5687 24.508 14.9319 24.508 15.3932 24.508 15.74 24.7829 15.6353 25.2638L15.0431 28.0447 14.0747 28.0447 14.5818 25.6564C14.6472 25.3489 14.644 25.1068 14.3332 25.1068 14.0256 25.1068 13.9177 25.3456 13.8522 25.6564L13.3451 28.0447 12.38 28.0447 13.1161 24.5767 14.0845 24.5767 14.0125 24.9268Z" transform="matrix(1 0 0 1.01979 539.689 598.042)"/><path d="M17.8535 25.8134C17.9614 25.2998 17.8698 25.1264 17.5656 25.1264 17.1533 25.1264 17.0421 25.4895 16.8883 26.2126 16.6626 27.2693 16.7051 27.4951 17.0617 27.4951 17.3627 27.4951 17.5656 27.2203 17.6637 26.7688L18.6321 26.7688C18.4326 27.7077 17.8371 28.1134 16.9309 28.1134 15.6811 28.1134 15.6778 27.3511 15.9101 26.2682 16.113 25.3227 16.4205 24.5113 17.6964 24.5113 18.5896 24.5113 19.0116 24.9105 18.8186 25.8167L17.8535 25.8167Z" transform="matrix(1 0 0 1.01979 539.689 598.042)"/><path d="M20.0651 26.4645C19.9768 26.8767 19.859 27.4951 20.2843 27.4951 20.6278 27.4951 20.7653 27.1646 20.8274 26.8767L21.8089 26.8767C21.714 27.253 21.5243 27.5638 21.2462 27.7764 20.9746 27.9891 20.6049 28.1134 20.1502 28.1134 18.9004 28.1134 18.8971 27.3511 19.1294 26.2682 19.3323 25.3227 19.6398 24.5113 20.9158 24.5113 22.2211 24.5113 22.1852 25.3554 21.9136 26.4678L20.0651 26.4678ZM21.0663 25.9214C21.1382 25.5844 21.2527 25.1035 20.7947 25.1035 20.3498 25.1035 20.2451 25.6237 20.1829 25.9214L21.0663 25.9214Z" transform="matrix(1 0 0 1.01979 539.689 598.042)"/><path d="M25.9803 23.8603C25.5942 23.8341 25.4797 23.9846 25.4045 24.3346L25.3358 24.5767 25.7873 24.5767 25.6597 25.1755 25.2082 25.1755 24.5996 28.0447 23.6312 28.0447 24.2398 25.1755 23.8079 25.1755 23.9355 24.5767 24.3739 24.5767C24.5669 23.7098 24.7436 23.2288 25.7676 23.2288 25.8854 23.2288 25.9934 23.2354 26.1079 23.2419L25.9803 23.8603Z" transform="matrix(1 0 0 1.01979 539.689 598.042)"/><path d="M25.676 26.2649C25.8789 25.3194 26.1864 24.508 27.4624 24.508 28.7383 24.508 28.7056 25.3194 28.5027 26.2649 28.2737 27.3511 27.9466 28.1101 26.6968 28.1101 25.447 28.1101 25.4437 27.3511 25.676 26.2649ZM27.5474 26.2093C27.7012 25.4895 27.7437 25.1231 27.3315 25.1231 26.9193 25.1231 26.808 25.4863 26.6543 26.2093 26.4285 27.2661 26.471 27.4918 26.8277 27.4918 27.1843 27.4951 27.3217 27.2661 27.5474 26.2093Z" transform="matrix(1 0 0 1.01979 539.689 598.042)"/><path d="M30.24 24.5767 30.1451 25.0217 30.1582 25.0217C30.4199 24.6226 30.7766 24.508 31.1659 24.508L30.9827 25.3718C30.1418 25.3161 30.0241 25.8102 29.9521 26.1537L29.5497 28.0414 28.5813 28.0414 29.3174 24.5735 30.2367 24.5735 30.2367 24.5767Z" transform="matrix(1 0 0 1.01979 539.689 598.042)"/><path d="M34.8531 27.3969C34.8072 27.6096 34.7876 27.8288 34.7647 28.0414L33.865 28.0414 33.9206 27.5801 33.9075 27.5801C33.6262 27.9367 33.3088 28.1101 32.89 28.1101 32.2161 28.1101 32.0754 27.6096 32.2063 27.0043 32.4516 25.8592 33.3448 25.8102 34.2412 25.8233L34.2969 25.555C34.359 25.2605 34.3623 25.0479 34.0122 25.0479 33.6753 25.0479 33.5935 25.3031 33.5346 25.5779L32.5858 25.5779C32.6741 25.1591 32.8606 24.8908 33.1223 24.7338 33.3775 24.5702 33.7047 24.508 34.0777 24.508 35.3078 24.508 35.3536 25.0381 35.2162 25.6695L34.8531 27.3969ZM33.1583 26.9651C33.106 27.2137 33.0831 27.5147 33.3972 27.5147 33.9664 27.5147 34.0417 26.7459 34.1202 26.3696 33.6393 26.3892 33.2892 26.3467 33.1583 26.9651Z" transform="matrix(1 0 0 1.01979 539.689 598.042)"/><path d="M38.6842 25.8134C38.7921 25.2998 38.7005 25.1264 38.3963 25.1264 37.984 25.1264 37.8728 25.4895 37.719 26.2126 37.4933 27.2693 37.5358 27.4951 37.8924 27.4951 38.1934 27.4951 38.3963 27.2203 38.4944 26.7688L39.4628 26.7688C39.2633 27.7077 38.6678 28.1134 37.7616 28.1134 36.5118 28.1134 36.5085 27.3511 36.7408 26.2682 36.9436 25.3227 37.2512 24.5113 38.5271 24.5113 39.4203 24.5113 39.8423 24.9105 39.6493 25.8167L38.6842 25.8167Z" transform="matrix(1 0 0 1.01979 539.689 598.042)"/><path d="M45.6953 27.3969C45.6495 27.6096 45.6299 27.8288 45.607 28.0414L44.7073 28.0414 44.7629 27.5801 44.7498 27.5801C44.4685 27.9367 44.1511 28.1101 43.7323 28.1101 43.0584 28.1101 42.9177 27.6096 43.0486 27.0043 43.2939 25.8592 44.1871 25.8102 45.0835 25.8233L45.1392 25.555C45.2013 25.2605 45.2046 25.0479 44.8545 25.0479 44.5175 25.0479 44.4358 25.3031 44.3769 25.5779L43.4281 25.5779C43.5164 25.1591 43.7062 24.8908 43.9646 24.7338 44.2198 24.5702 44.547 24.508 44.92 24.508 46.1501 24.508 46.1926 25.0381 46.0585 25.6695L45.6953 27.3969ZM44.0006 26.9651C43.9483 27.2137 43.9254 27.5147 44.2395 27.5147 44.8087 27.5147 44.884 26.7459 44.9625 26.3696 44.4816 26.3892 44.1315 26.3467 44.0006 26.9651Z" transform="matrix(1 0 0 1.01979 539.689 598.042)"/><path d="M47.8187 24.9268 47.8317 24.9268C48.0902 24.6193 48.3748 24.508 48.738 24.508 49.1993 24.508 49.5461 24.7829 49.4414 25.2638L48.8492 28.0447 47.8808 28.0447 48.3879 25.6564C48.4534 25.3489 48.4501 25.1068 48.1393 25.1068 47.8317 25.1068 47.7238 25.3456 47.6583 25.6564L47.1512 28.0447 46.1828 28.0447 46.9189 24.5767 47.8874 24.5767 47.8187 24.9268Z" transform="matrix(1 0 0 1.01979 539.689 598.042)"/><path d="M52.8341 24.5767 52.0653 28.1887C52.0129 28.4275 51.8264 29.3763 50.4949 29.3763 49.7751 29.3763 49.196 29.1898 49.3531 28.3457L50.3018 28.3457C50.2724 28.4897 50.2659 28.614 50.3084 28.6958 50.3509 28.7841 50.4523 28.8332 50.6028 28.8332 50.8417 28.8332 51.0085 28.6074 51.0838 28.2574L51.2245 27.59 51.2114 27.59C51.0118 27.8582 50.7075 27.9956 50.3902 27.9956 49.3269 27.9956 49.5821 27.0207 49.7489 26.2388 49.9125 25.4765 50.1317 24.508 51.1394 24.508 51.4829 24.508 51.7447 24.6585 51.8134 24.9824L51.8264 24.9824 51.9115 24.5767 52.8341 24.5767ZM50.8711 27.3969C51.2212 27.3969 51.3455 27.0338 51.5025 26.2976 51.6629 25.5353 51.7218 25.1035 51.3651 25.1035 51.002 25.1035 50.8842 25.3587 50.6617 26.4154 50.5898 26.7393 50.4033 27.3969 50.8711 27.3969Z" transform="matrix(1 0 0 1.01979 539.689 598.042)"/><path d="M56.0763 24.9268 56.0894 24.9268C56.3479 24.6193 56.6325 24.508 56.9957 24.508 57.457 24.508 57.8038 24.7829 57.6991 25.2638L57.1069 28.0447 56.1385 28.0447 56.6456 25.6564C56.711 25.3489 56.7078 25.1068 56.397 25.1068 56.0894 25.1068 55.9815 25.3456 55.916 25.6564L55.4089 28.0447 54.4405 28.0447 55.1766 24.5767 56.145 24.5767 56.0763 24.9268Z" transform="matrix(1 0 0 1.01979 539.689 598.042)"/><path d="M61.0918 24.5767 60.323 28.1887C60.2706 28.4275 60.0841 29.3763 58.7526 29.3763 58.0328 29.3763 57.4537 29.1898 57.614 28.3457L58.5628 28.3457C58.5334 28.4897 58.5268 28.614 58.5693 28.6958 58.6119 28.7841 58.7133 28.8332 58.8638 28.8332 59.1026 28.8332 59.2695 28.6074 59.3447 28.2574L59.4854 27.59 59.4723 27.59C59.2728 27.8582 58.9685 27.9956 58.6511 27.9956 57.5878 27.9956 57.843 27.0207 58.0099 26.2388 58.1702 25.4765 58.3927 24.508 59.4003 24.508 59.7439 24.508 60.0056 24.6585 60.0743 24.9824L60.0874 24.9824 60.1725 24.5767 61.0918 24.5767ZM59.1255 27.3969C59.4756 27.3969 59.5999 27.0338 59.757 26.2976 59.9205 25.5353 59.9762 25.1035 59.6196 25.1035 59.2564 25.1035 59.1386 25.3587 58.9161 26.4154 58.8474 26.7393 58.661 27.3969 59.1255 27.3969Z" transform="matrix(1 0 0 1.01979 539.689 598.042)"/><path d="M62.6033 24.5767 63.5652 24.5767 63.4867 27.1843 63.4997 27.1843 64.6546 24.5767 65.6819 24.5767 65.695 27.1843 65.7081 27.1843 66.7616 24.5767 67.6908 24.5767 66.0451 28.0447 65.0309 28.0447 64.9327 25.7447 64.9197 25.7447 63.7582 28.0447 62.7309 28.0447 62.6033 24.5767Z" transform="matrix(1 0 0 1.01979 539.689 598.042)"/><path d="M67.4945 26.2649C67.6973 25.3194 68.0048 24.508 69.2808 24.508 70.5567 24.508 70.524 25.3194 70.3212 26.2649 70.0921 27.3511 69.765 28.1101 68.5152 28.1101 67.2687 28.1101 67.2654 27.3511 67.4945 26.2649ZM69.3658 26.2093C69.5196 25.4895 69.5621 25.1231 69.1499 25.1231 68.7377 25.1231 68.6264 25.4863 68.4727 26.2093 68.2469 27.2661 68.2895 27.4918 68.6461 27.4918 69.006 27.4951 69.1434 27.2661 69.3658 26.2093Z" transform="matrix(1 0 0 1.01979 539.689 598.042)"/><path d="M72.114 24.5767 72.0192 25.0217 72.0322 25.0217C72.294 24.6226 72.6506 24.508 73.0399 24.508L72.8567 25.3718C72.0159 25.3161 71.8981 25.8102 71.8261 26.1537L71.4237 28.0414 70.4553 28.0414 71.1914 24.5735 72.1108 24.5735 72.1108 24.5767Z" transform="matrix(1 0 0 1.01979 539.689 598.042)"/><path d="M42.2372 24.508C41.874 24.508 41.5894 24.6193 41.3309 24.9268L41.3179 24.9268 41.6745 23.2419 40.7061 23.2419 39.6853 28.0447 40.6537 28.0447 41.1608 25.6564C41.2262 25.3489 41.3309 25.1068 41.6418 25.1068 41.9493 25.1068 41.9558 25.3456 41.8904 25.6564L41.3833 28.0447 42.3517 28.0447 42.9439 25.2638C43.042 24.7829 42.6952 24.508 42.2372 24.508Z" transform="matrix(1 0 0 1.01979 539.689 598.042)"/><path d="M73.727 23.2419 72.7062 28.0414 73.6746 28.0414 74.6954 23.2419Z" transform="matrix(1 0 0 1.01979 539.689 598.042)"/><path d="M76.9626 23.2419 76.6093 24.9072 76.5962 24.9072C76.4588 24.6127 76.2429 24.508 75.8895 24.508 74.9146 24.508 74.7117 25.5844 74.5645 26.2846 74.414 26.9978 74.1425 28.1101 75.1436 28.1101 75.5133 28.1101 75.8078 27.9924 76.0564 27.6554L76.0695 27.6554 75.9877 28.0414 76.907 28.0414 77.9278 23.2386 76.9626 23.2386 76.9626 23.2419ZM76.3149 26.278C76.1284 27.1483 75.991 27.5147 75.6605 27.5147 75.3105 27.5147 75.3268 27.1515 75.51 26.278 75.6573 25.5844 75.7521 25.1035 76.1709 25.1035 76.5733 25.1035 76.4654 25.5844 76.3149 26.278Z" transform="matrix(1 0 0 1.01979 539.689 598.042)"/><path d="M6.65784 7.84218 6.72654 7.90761C8.65028 9.52055 10.7278 9.36351 12.3113 8.31003 13.3091 7.64588 17.8208 4.64576 20.3694 2.95104L20.3694 1.25959 1.36428 1.25959 1.36428 5.73196C2.52245 5.53239 4.39057 5.72869 6.65784 7.84218Z" transform="matrix(1 0 0 1.01979 539.689 598.042)"/><path d="M13.8064 15.2852 11.5621 13.1325C11.248 12.8446 10.9764 12.6352 10.9175 12.5894 9.08214 11.3003 7.37106 11.6929 6.63494 11.9678 6.41246 12.0561 6.19981 12.1804 6.04604 12.2753L1.36428 15.4063 1.36428 21.0826 20.3694 21.0826 20.3694 16.9963C19.9506 17.2613 17.3758 18.655 13.8064 15.2852Z" transform="matrix(1 0 0 1.01979 539.689 598.042)"/><path d="M6.48771 8.34929C6.38629 8.25441 6.27505 8.15299 6.17363 8.0712 3.92927 6.33394 1.80923 7.18458 1.36101 7.39723L1.36101 9.35042 2.46029 8.61102C2.46029 8.61102 4.15501 7.3547 6.79198 8.64374L6.48771 8.34929Z" transform="matrix(1 0 0 1.01979 539.689 598.042)"/><path d="M9.11486 10.875C9.01671 10.7867 8.91529 10.6983 8.81714 10.6035 6.82469 8.91856 4.90095 9.34715 4.10267 9.6416 3.87692 9.7332 3.66099 9.85426 3.50722 9.94913L3.2913 10.0931 3.2913 10.0931 1.36428 11.3821 1.36428 13.3942 4.95003 10.9797C4.95003 10.9797 6.62512 9.73647 9.23591 10.9895L9.11486 10.875Z" transform="matrix(1 0 0 1.01979 539.689 598.042)"/><path d="M20.3727 12.982C19.6267 13.4858 18.8644 13.9995 18.5634 14.199 17.8862 14.6505 16.3223 15.7727 13.7181 14.5295L14.0256 14.8239C14.1401 14.9286 14.2808 15.0464 14.4313 15.1642 16.3027 16.5612 18.2984 16.3616 19.7968 15.367 20.003 15.2296 20.1927 15.102 20.3727 14.9842L20.3727 12.982Z" transform="matrix(1 0 0 1.01979 539.689 598.042)"/><path d="M20.3727 8.95128C18.7303 10.0538 16.5154 11.5457 16.0999 11.8238 15.4226 12.2753 13.8359 13.4138 11.2872 12.1968L11.5817 12.4814C11.6144 12.5108 11.6471 12.5436 11.6831 12.573L11.6798 12.5763 11.6798 12.5763 11.6831 12.573C13.6625 14.2481 15.8381 13.9896 17.3333 12.9918 18.1774 12.4291 19.3748 11.6177 20.3727 10.9437L20.3727 8.95128 20.3727 8.95128Z" transform="matrix(1 0 0 1.01979 539.689 598.042)"/><path d="M20.3727 4.94021C18.0072 6.52697 14.1238 9.12795 13.6527 9.44203 12.9722 9.90006 11.3625 11.0517 8.84658 9.85098L9.15085 10.1454C9.33406 10.309 9.57616 10.5151 9.8379 10.6853 11.5784 11.7976 13.4007 11.6013 14.8861 10.61 15.9526 9.89679 18.5765 8.15299 20.3727 6.9621L20.3727 4.94021 20.3727 4.94021Z" transform="matrix(1 0 0 1.01979 539.689 598.042)"/></g></g></g><rect x="1167" y="576" width="113" height="19" fill="#BFBFBF"/><text font-family="Assistant,Assistant_MSFontService,sans-serif" font-weight="700" font-size="9" transform="translate(1173.72 589)">USGS <tspan font-size="9" x="24.3334" y="0">-</tspan><tspan font-size="9" x="29.1667" y="0">MAPBOX </tspan><tspan font-size="9" x="66" y="0">-</tspan><tspan font-size="9" x="70.8334" y="0">AINMcl</tspan></text><rect x="1167" y="595" width="113" height="37" fill="#FFFFFF"/><g clip-path="url(#clip10)"><g clip-path="url(#clip11)"><g clip-path="url(#clip12)"><path d="M37.1596 1.26613 37.1596 15.1936C37.1596 18.1316 35.5008 21.2331 30.4952 21.2331 25.9803 21.2331 23.8014 18.8939 23.8014 15.1936L23.8014 1.26613 27.9106 1.26613 27.9106 14.9221C27.9106 17.3431 28.9444 18.2952 30.4396 18.2952 32.2357 18.2952 33.0504 17.0977 33.0504 14.9221L33.0504 1.26613 37.1596 1.26613Z" transform="matrix(1 0 0 1.01979 1183.69 598.042)"/><path d="M43.837 21.2331C38.7496 21.2331 37.7975 18.2395 38.0167 14.8403L42.126 14.8403C42.126 16.7182 42.2077 18.2952 44.4652 18.2952 45.8524 18.2952 46.5329 17.3987 46.5329 16.0639 46.5329 12.5272 38.2621 12.3113 38.2621 6.46154 38.2621 3.38617 39.7311 0.938968 44.7367 0.938968 48.7347 0.938968 50.7206 2.73511 50.4491 6.84105L46.4511 6.84105C46.4511 5.37207 46.2057 3.87692 44.547 3.87692 43.2154 3.87692 42.427 4.61305 42.427 5.97079 42.427 9.69722 50.6977 9.37005 50.6977 15.547 50.6945 20.6344 46.968 21.2331 43.837 21.2331Z" transform="matrix(1 0 0 1.01979 1183.69 598.042)"/><path d="M71.4532 21.2331C66.3657 21.2331 65.4137 18.2395 65.6329 14.8403L69.7421 14.8403C69.7421 16.7182 69.8239 18.2952 72.0813 18.2952 73.4685 18.2952 74.149 17.3987 74.149 16.0639 74.149 12.5272 65.8783 12.3113 65.8783 6.46154 65.8783 3.38617 67.3472 0.938968 72.3529 0.938968 76.3508 0.938968 78.3367 2.73511 78.0652 6.84105L74.0672 6.84105C74.0672 5.37207 73.8218 3.87692 72.1631 3.87692 70.8316 3.87692 70.0398 4.61305 70.0398 5.97079 70.0398 9.69722 78.3106 9.37005 78.3106 15.547 78.3106 20.6344 74.5809 21.2331 71.4532 21.2331Z" transform="matrix(1 0 0 1.01979 1183.69 598.042)"/><path d="M58.3665 13.5872 60.7843 13.5872 60.7843 17.9222 60.5847 17.9974C59.9598 18.2166 59.2237 18.3769 58.5432 18.3769 56.2039 18.3769 55.6052 17.2875 55.6052 11.14 55.6052 7.3318 55.6052 3.87692 58.1637 3.87692 60.1528 3.87692 60.5716 5.21831 60.6109 6.84105L64.7037 6.84105C64.7364 3.02956 62.2827 0.938968 58.4123 0.938968 51.6923 0.938968 51.4469 5.97079 51.4469 10.9241 51.4469 18.3769 52.255 21.2691 59.1648 21.2691 60.7679 21.2691 63.3198 20.9059 64.4976 20.5853 64.5696 20.5657 64.6972 20.4872 64.6972 20.3857 64.6972 19.8492 64.6972 10.6231 64.6972 10.6231L58.373 10.6231 58.373 13.5872 58.3665 13.5872Z" transform="matrix(1 0 0 1.01979 1183.69 598.042)"/><path d="M2.3327 26.9291C2.29344 27.0861 2.26726 27.2399 2.29344 27.3478 2.32615 27.4591 2.41776 27.5114 2.60752 27.5114 2.79727 27.5114 2.9903 27.3871 3.03938 27.1548 3.19642 26.4187 1.45916 26.5856 1.69145 25.4797 1.85176 24.7305 2.64023 24.5048 3.26512 24.5048 3.92273 24.5048 4.45274 24.8221 4.24008 25.5681L3.2913 25.5681C3.34364 25.3292 3.34691 25.1853 3.2913 25.1231 3.24222 25.061 3.1637 25.0479 3.05901 25.0479 2.84635 25.0479 2.69912 25.1853 2.65005 25.4176 2.53227 25.9672 4.24335 25.9378 4.00452 27.0501 3.87692 27.6554 3.28475 28.1069 2.48319 28.1069 1.6391 28.1069 1.12218 27.8942 1.38064 26.9258L2.3327 26.9258 2.3327 26.9291Z" transform="matrix(1 0 0 1.01979 1183.69 598.042)"/><path d="M6.47463 25.8134C6.58259 25.2998 6.49098 25.1264 6.18672 25.1264 5.77449 25.1264 5.66325 25.4895 5.50948 26.2126 5.28374 27.2693 5.32627 27.4951 5.68288 27.4951 5.98388 27.4951 6.18672 27.2203 6.28487 26.7688L7.25328 26.7688C7.05371 27.7077 6.45827 28.1134 5.55202 28.1134 4.30224 28.1134 4.29897 27.3511 4.53126 26.2682 4.7341 25.3227 5.04164 24.5113 6.31759 24.5113 7.21075 24.5113 7.63279 24.9105 7.43977 25.8167L6.47463 25.8167Z" transform="matrix(1 0 0 1.01979 1183.69 598.042)"/><path d="M8.4638 28.0414 7.49538 28.0414 8.23151 24.5735 9.19992 24.5735 8.4638 28.0414ZM9.48456 23.2419 9.32097 24.0042 8.35583 24.0042 8.51942 23.2419 9.48456 23.2419Z" transform="matrix(1 0 0 1.01979 1183.69 598.042)"/><path d="M53.76 28.0414 52.7916 28.0414 53.5277 24.5735 54.4961 24.5735 53.76 28.0414ZM54.7808 23.2419 54.6172 24.0042 53.6488 24.0042 53.8091 23.2419 54.7808 23.2419Z" transform="matrix(1 0 0 1.01979 1183.69 598.042)"/><path d="M10.3319 26.4645C10.2436 26.8767 10.1258 27.4951 10.5511 27.4951 10.8946 27.4951 11.0321 27.1646 11.0942 26.8767L12.0757 26.8767C11.9808 27.253 11.7911 27.5638 11.513 27.7764 11.2414 27.9891 10.8717 28.1134 10.417 28.1134 9.16721 28.1134 9.16393 27.3511 9.39622 26.2682 9.59906 25.3227 9.9066 24.5113 11.1826 24.5113 12.4879 24.5113 12.452 25.3554 12.1804 26.4678L10.3319 26.4678ZM11.333 25.9214C11.405 25.5844 11.5195 25.1035 11.0615 25.1035 10.6166 25.1035 10.5119 25.6237 10.4497 25.9214L11.333 25.9214Z" transform="matrix(1 0 0 1.01979 1183.69 598.042)"/><path d="M14.0125 24.9268 14.0256 24.9268C14.2841 24.6193 14.5687 24.508 14.9319 24.508 15.3932 24.508 15.74 24.7829 15.6353 25.2638L15.0431 28.0447 14.0747 28.0447 14.5818 25.6564C14.6472 25.3489 14.644 25.1068 14.3332 25.1068 14.0256 25.1068 13.9177 25.3456 13.8522 25.6564L13.3451 28.0447 12.38 28.0447 13.1161 24.5767 14.0845 24.5767 14.0125 24.9268Z" transform="matrix(1 0 0 1.01979 1183.69 598.042)"/><path d="M17.8535 25.8134C17.9614 25.2998 17.8698 25.1264 17.5656 25.1264 17.1533 25.1264 17.0421 25.4895 16.8883 26.2126 16.6626 27.2693 16.7051 27.4951 17.0617 27.4951 17.3627 27.4951 17.5656 27.2203 17.6637 26.7688L18.6321 26.7688C18.4326 27.7077 17.8371 28.1134 16.9309 28.1134 15.6811 28.1134 15.6778 27.3511 15.9101 26.2682 16.113 25.3227 16.4205 24.5113 17.6964 24.5113 18.5896 24.5113 19.0116 24.9105 18.8186 25.8167L17.8535 25.8167Z" transform="matrix(1 0 0 1.01979 1183.69 598.042)"/><path d="M20.0651 26.4645C19.9768 26.8767 19.859 27.4951 20.2843 27.4951 20.6278 27.4951 20.7653 27.1646 20.8274 26.8767L21.8089 26.8767C21.714 27.253 21.5243 27.5638 21.2462 27.7764 20.9746 27.9891 20.6049 28.1134 20.1502 28.1134 18.9004 28.1134 18.8971 27.3511 19.1294 26.2682 19.3323 25.3227 19.6398 24.5113 20.9158 24.5113 22.2211 24.5113 22.1852 25.3554 21.9136 26.4678L20.0651 26.4678ZM21.0663 25.9214C21.1382 25.5844 21.2527 25.1035 20.7947 25.1035 20.3498 25.1035 20.2451 25.6237 20.1829 25.9214L21.0663 25.9214Z" transform="matrix(1 0 0 1.01979 1183.69 598.042)"/><path d="M25.9803 23.8603C25.5942 23.8341 25.4797 23.9846 25.4045 24.3346L25.3358 24.5767 25.7873 24.5767 25.6597 25.1755 25.2082 25.1755 24.5996 28.0447 23.6312 28.0447 24.2398 25.1755 23.8079 25.1755 23.9355 24.5767 24.3739 24.5767C24.5669 23.7098 24.7436 23.2288 25.7676 23.2288 25.8854 23.2288 25.9934 23.2354 26.1079 23.2419L25.9803 23.8603Z" transform="matrix(1 0 0 1.01979 1183.69 598.042)"/><path d="M25.676 26.2649C25.8789 25.3194 26.1864 24.508 27.4624 24.508 28.7383 24.508 28.7056 25.3194 28.5027 26.2649 28.2737 27.3511 27.9466 28.1101 26.6968 28.1101 25.447 28.1101 25.4437 27.3511 25.676 26.2649ZM27.5474 26.2093C27.7012 25.4895 27.7437 25.1231 27.3315 25.1231 26.9193 25.1231 26.808 25.4863 26.6543 26.2093 26.4285 27.2661 26.471 27.4918 26.8277 27.4918 27.1843 27.4951 27.3217 27.2661 27.5474 26.2093Z" transform="matrix(1 0 0 1.01979 1183.69 598.042)"/><path d="M30.24 24.5767 30.1451 25.0217 30.1582 25.0217C30.4199 24.6226 30.7766 24.508 31.1659 24.508L30.9827 25.3718C30.1418 25.3161 30.0241 25.8102 29.9521 26.1537L29.5497 28.0414 28.5813 28.0414 29.3174 24.5735 30.2367 24.5735 30.2367 24.5767Z" transform="matrix(1 0 0 1.01979 1183.69 598.042)"/><path d="M34.8531 27.3969C34.8072 27.6096 34.7876 27.8288 34.7647 28.0414L33.865 28.0414 33.9206 27.5801 33.9075 27.5801C33.6262 27.9367 33.3088 28.1101 32.89 28.1101 32.2161 28.1101 32.0754 27.6096 32.2063 27.0043 32.4516 25.8592 33.3448 25.8102 34.2412 25.8233L34.2969 25.555C34.359 25.2605 34.3623 25.0479 34.0122 25.0479 33.6753 25.0479 33.5935 25.3031 33.5346 25.5779L32.5858 25.5779C32.6741 25.1591 32.8606 24.8908 33.1223 24.7338 33.3775 24.5702 33.7047 24.508 34.0777 24.508 35.3078 24.508 35.3536 25.0381 35.2162 25.6695L34.8531 27.3969ZM33.1583 26.9651C33.106 27.2137 33.0831 27.5147 33.3972 27.5147 33.9664 27.5147 34.0417 26.7459 34.1202 26.3696 33.6393 26.3892 33.2892 26.3467 33.1583 26.9651Z" transform="matrix(1 0 0 1.01979 1183.69 598.042)"/><path d="M38.6842 25.8134C38.7921 25.2998 38.7005 25.1264 38.3963 25.1264 37.984 25.1264 37.8728 25.4895 37.719 26.2126 37.4933 27.2693 37.5358 27.4951 37.8924 27.4951 38.1934 27.4951 38.3963 27.2203 38.4944 26.7688L39.4628 26.7688C39.2633 27.7077 38.6678 28.1134 37.7616 28.1134 36.5118 28.1134 36.5085 27.3511 36.7408 26.2682 36.9436 25.3227 37.2512 24.5113 38.5271 24.5113 39.4203 24.5113 39.8423 24.9105 39.6493 25.8167L38.6842 25.8167Z" transform="matrix(1 0 0 1.01979 1183.69 598.042)"/><path d="M45.6953 27.3969C45.6495 27.6096 45.6299 27.8288 45.607 28.0414L44.7073 28.0414 44.7629 27.5801 44.7498 27.5801C44.4685 27.9367 44.1511 28.1101 43.7323 28.1101 43.0584 28.1101 42.9177 27.6096 43.0486 27.0043 43.2939 25.8592 44.1871 25.8102 45.0835 25.8233L45.1392 25.555C45.2013 25.2605 45.2046 25.0479 44.8545 25.0479 44.5175 25.0479 44.4358 25.3031 44.3769 25.5779L43.4281 25.5779C43.5164 25.1591 43.7062 24.8908 43.9646 24.7338 44.2198 24.5702 44.547 24.508 44.92 24.508 46.1501 24.508 46.1926 25.0381 46.0585 25.6695L45.6953 27.3969ZM44.0006 26.9651C43.9483 27.2137 43.9254 27.5147 44.2395 27.5147 44.8087 27.5147 44.884 26.7459 44.9625 26.3696 44.4816 26.3892 44.1315 26.3467 44.0006 26.9651Z" transform="matrix(1 0 0 1.01979 1183.69 598.042)"/><path d="M47.8187 24.9268 47.8317 24.9268C48.0902 24.6193 48.3748 24.508 48.738 24.508 49.1993 24.508 49.5461 24.7829 49.4414 25.2638L48.8492 28.0447 47.8808 28.0447 48.3879 25.6564C48.4534 25.3489 48.4501 25.1068 48.1393 25.1068 47.8317 25.1068 47.7238 25.3456 47.6583 25.6564L47.1512 28.0447 46.1828 28.0447 46.9189 24.5767 47.8874 24.5767 47.8187 24.9268Z" transform="matrix(1 0 0 1.01979 1183.69 598.042)"/><path d="M52.8341 24.5767 52.0653 28.1887C52.0129 28.4275 51.8264 29.3763 50.4949 29.3763 49.7751 29.3763 49.196 29.1898 49.3531 28.3457L50.3018 28.3457C50.2724 28.4897 50.2659 28.614 50.3084 28.6958 50.3509 28.7841 50.4523 28.8332 50.6028 28.8332 50.8417 28.8332 51.0085 28.6074 51.0838 28.2574L51.2245 27.59 51.2114 27.59C51.0118 27.8582 50.7075 27.9956 50.3902 27.9956 49.3269 27.9956 49.5821 27.0207 49.7489 26.2388 49.9125 25.4765 50.1317 24.508 51.1394 24.508 51.4829 24.508 51.7447 24.6585 51.8134 24.9824L51.8264 24.9824 51.9115 24.5767 52.8341 24.5767ZM50.8711 27.3969C51.2212 27.3969 51.3455 27.0338 51.5025 26.2976 51.6629 25.5353 51.7218 25.1035 51.3651 25.1035 51.002 25.1035 50.8842 25.3587 50.6617 26.4154 50.5898 26.7393 50.4033 27.3969 50.8711 27.3969Z" transform="matrix(1 0 0 1.01979 1183.69 598.042)"/><path d="M56.0763 24.9268 56.0894 24.9268C56.3479 24.6193 56.6325 24.508 56.9957 24.508 57.457 24.508 57.8038 24.7829 57.6991 25.2638L57.1069 28.0447 56.1385 28.0447 56.6456 25.6564C56.711 25.3489 56.7078 25.1068 56.397 25.1068 56.0894 25.1068 55.9815 25.3456 55.916 25.6564L55.4089 28.0447 54.4405 28.0447 55.1766 24.5767 56.145 24.5767 56.0763 24.9268Z" transform="matrix(1 0 0 1.01979 1183.69 598.042)"/><path d="M61.0918 24.5767 60.323 28.1887C60.2706 28.4275 60.0841 29.3763 58.7526 29.3763 58.0328 29.3763 57.4537 29.1898 57.614 28.3457L58.5628 28.3457C58.5334 28.4897 58.5268 28.614 58.5693 28.6958 58.6119 28.7841 58.7133 28.8332 58.8638 28.8332 59.1026 28.8332 59.2695 28.6074 59.3447 28.2574L59.4854 27.59 59.4723 27.59C59.2728 27.8582 58.9685 27.9956 58.6511 27.9956 57.5878 27.9956 57.843 27.0207 58.0099 26.2388 58.1702 25.4765 58.3927 24.508 59.4003 24.508 59.7439 24.508 60.0056 24.6585 60.0743 24.9824L60.0874 24.9824 60.1725 24.5767 61.0918 24.5767ZM59.1255 27.3969C59.4756 27.3969 59.5999 27.0338 59.757 26.2976 59.9205 25.5353 59.9762 25.1035 59.6196 25.1035 59.2564 25.1035 59.1386 25.3587 58.9161 26.4154 58.8474 26.7393 58.661 27.3969 59.1255 27.3969Z" transform="matrix(1 0 0 1.01979 1183.69 598.042)"/><path d="M62.6033 24.5767 63.5652 24.5767 63.4867 27.1843 63.4997 27.1843 64.6546 24.5767 65.6819 24.5767 65.695 27.1843 65.7081 27.1843 66.7616 24.5767 67.6908 24.5767 66.0451 28.0447 65.0309 28.0447 64.9327 25.7447 64.9197 25.7447 63.7582 28.0447 62.7309 28.0447 62.6033 24.5767Z" transform="matrix(1 0 0 1.01979 1183.69 598.042)"/><path d="M67.4945 26.2649C67.6973 25.3194 68.0048 24.508 69.2808 24.508 70.5567 24.508 70.524 25.3194 70.3212 26.2649 70.0921 27.3511 69.765 28.1101 68.5152 28.1101 67.2687 28.1101 67.2654 27.3511 67.4945 26.2649ZM69.3658 26.2093C69.5196 25.4895 69.5621 25.1231 69.1499 25.1231 68.7377 25.1231 68.6264 25.4863 68.4727 26.2093 68.2469 27.2661 68.2895 27.4918 68.6461 27.4918 69.006 27.4951 69.1434 27.2661 69.3658 26.2093Z" transform="matrix(1 0 0 1.01979 1183.69 598.042)"/><path d="M72.114 24.5767 72.0192 25.0217 72.0322 25.0217C72.294 24.6226 72.6506 24.508 73.0399 24.508L72.8567 25.3718C72.0159 25.3161 71.8981 25.8102 71.8261 26.1537L71.4237 28.0414 70.4553 28.0414 71.1914 24.5735 72.1108 24.5735 72.1108 24.5767Z" transform="matrix(1 0 0 1.01979 1183.69 598.042)"/><path d="M42.2372 24.508C41.874 24.508 41.5894 24.6193 41.3309 24.9268L41.3179 24.9268 41.6745 23.2419 40.7061 23.2419 39.6853 28.0447 40.6537 28.0447 41.1608 25.6564C41.2262 25.3489 41.3309 25.1068 41.6418 25.1068 41.9493 25.1068 41.9558 25.3456 41.8904 25.6564L41.3833 28.0447 42.3517 28.0447 42.9439 25.2638C43.042 24.7829 42.6952 24.508 42.2372 24.508Z" transform="matrix(1 0 0 1.01979 1183.69 598.042)"/><path d="M73.727 23.2419 72.7062 28.0414 73.6746 28.0414 74.6954 23.2419Z" transform="matrix(1 0 0 1.01979 1183.69 598.042)"/><path d="M76.9626 23.2419 76.6093 24.9072 76.5962 24.9072C76.4588 24.6127 76.2429 24.508 75.8895 24.508 74.9146 24.508 74.7117 25.5844 74.5645 26.2846 74.414 26.9978 74.1425 28.1101 75.1436 28.1101 75.5133 28.1101 75.8078 27.9924 76.0564 27.6554L76.0695 27.6554 75.9877 28.0414 76.907 28.0414 77.9278 23.2386 76.9626 23.2386 76.9626 23.2419ZM76.3149 26.278C76.1284 27.1483 75.991 27.5147 75.6605 27.5147 75.3105 27.5147 75.3268 27.1515 75.51 26.278 75.6573 25.5844 75.7521 25.1035 76.1709 25.1035 76.5733 25.1035 76.4654 25.5844 76.3149 26.278Z" transform="matrix(1 0 0 1.01979 1183.69 598.042)"/><path d="M6.65784 7.84218 6.72654 7.90761C8.65028 9.52055 10.7278 9.36351 12.3113 8.31003 13.3091 7.64588 17.8208 4.64576 20.3694 2.95104L20.3694 1.25959 1.36428 1.25959 1.36428 5.73196C2.52245 5.53239 4.39057 5.72869 6.65784 7.84218Z" transform="matrix(1 0 0 1.01979 1183.69 598.042)"/><path d="M13.8064 15.2852 11.5621 13.1325C11.248 12.8446 10.9764 12.6352 10.9175 12.5894 9.08214 11.3003 7.37106 11.6929 6.63494 11.9678 6.41246 12.0561 6.19981 12.1804 6.04604 12.2753L1.36428 15.4063 1.36428 21.0826 20.3694 21.0826 20.3694 16.9963C19.9506 17.2613 17.3758 18.655 13.8064 15.2852Z" transform="matrix(1 0 0 1.01979 1183.69 598.042)"/><path d="M6.48771 8.34929C6.38629 8.25441 6.27505 8.15299 6.17363 8.0712 3.92927 6.33394 1.80923 7.18458 1.36101 7.39723L1.36101 9.35042 2.46029 8.61102C2.46029 8.61102 4.15501 7.3547 6.79198 8.64374L6.48771 8.34929Z" transform="matrix(1 0 0 1.01979 1183.69 598.042)"/><path d="M9.11486 10.875C9.01671 10.7867 8.91529 10.6983 8.81714 10.6035 6.82469 8.91856 4.90095 9.34715 4.10267 9.6416 3.87692 9.7332 3.66099 9.85426 3.50722 9.94913L3.2913 10.0931 3.2913 10.0931 1.36428 11.3821 1.36428 13.3942 4.95003 10.9797C4.95003 10.9797 6.62512 9.73647 9.23591 10.9895L9.11486 10.875Z" transform="matrix(1 0 0 1.01979 1183.69 598.042)"/><path d="M20.3727 12.982C19.6267 13.4858 18.8644 13.9995 18.5634 14.199 17.8862 14.6505 16.3223 15.7727 13.7181 14.5295L14.0256 14.8239C14.1401 14.9286 14.2808 15.0464 14.4313 15.1642 16.3027 16.5612 18.2984 16.3616 19.7968 15.367 20.003 15.2296 20.1927 15.102 20.3727 14.9842L20.3727 12.982Z" transform="matrix(1 0 0 1.01979 1183.69 598.042)"/><path d="M20.3727 8.95128C18.7303 10.0538 16.5154 11.5457 16.0999 11.8238 15.4226 12.2753 13.8359 13.4138 11.2872 12.1968L11.5817 12.4814C11.6144 12.5108 11.6471 12.5436 11.6831 12.573L11.6798 12.5763 11.6798 12.5763 11.6831 12.573C13.6625 14.2481 15.8381 13.9896 17.3333 12.9918 18.1774 12.4291 19.3748 11.6177 20.3727 10.9437L20.3727 8.95128 20.3727 8.95128Z" transform="matrix(1 0 0 1.01979 1183.69 598.042)"/><path d="M20.3727 4.94021C18.0072 6.52697 14.1238 9.12795 13.6527 9.44203 12.9722 9.90006 11.3625 11.0517 8.84658 9.85098L9.15085 10.1454C9.33406 10.309 9.57616 10.5151 9.8379 10.6853 11.5784 11.7976 13.4007 11.6013 14.8861 10.61 15.9526 9.89679 18.5765 8.15299 20.3727 6.9621L20.3727 4.94021 20.3727 4.94021Z" transform="matrix(1 0 0 1.01979 1183.69 598.042)"/></g></g></g></g></svg>