<svg width="1282" height="642" xmlns="http://www.w3.org/2000/svg" xmlns:xlink="http://www.w3.org/1999/xlink" overflow="hidden"><defs><clipPath id="clip0"><rect x="-1" y="-1" width="1282" height="642"/></clipPath><clipPath id="clip1"><rect x="299" y="300" width="42" height="41"/></clipPath><clipPath id="clip2"><rect x="299" y="300" width="42" height="41"/></clipPath><clipPath id="clip3"><rect x="299" y="300" width="42" height="41"/></clipPath><clipPath id="clip4"><rect x="939" y="300" width="42" height="41"/></clipPath><clipPath id="clip5"><rect x="939" y="300" width="42" height="41"/></clipPath><clipPath id="clip6"><rect x="939" y="300" width="42" height="41"/></clipPath><clipPath id="clip7"><rect x="606" y="598" width="68" height="30"/></clipPath><clipPath id="clip8"><rect x="606" y="598" width="68" height="30"/></clipPath><clipPath id="clip9"><rect x="606" y="598" width="68" height="47"/></clipPath></defs><g clip-path="url(#clip0)" transform="translate(1 1)"><rect x="0" y="632" width="1280" height="8" fill="#FFFFFF"/><rect x="636" y="0" width="8" height="636" fill="#FFFFFF"/><rect x="583" y="576" width="114" height="19" fill="#BFBFBF"/><text font-family="Assistant,Assistant_MSFontService,sans-serif" font-weight="700" font-size="9" transform="translate(593.75 589)">GFZ <tspan font-size="9" x="17.6666" y="0">-</tspan><tspan font-size="9" x="22.5" y="0">MAPBOX </tspan><tspan font-size="9" x="59.3333" y="0">-</tspan><tspan font-size="9" x="64.1666" y="0">AINMcl</tspan></text><rect x="583" y="595" width="114" height="37" fill="#FFFFFF"/><g clip-path="url(#clip1)"><g clip-path="url(#clip2)"><g clip-path="url(#clip3)"><path d="M37.5833 16.2292 24.7708 16.2292 20.5 3.41667 16.2292 16.2292 3.41667 16.2292 13.2396 24.7708 9.39583 37.5833 20.5 29.8958 31.6042 37.5833 27.7604 24.7708Z" stroke="#000000" stroke-width="0.666669" fill="#FFFF00" transform="matrix(1.02439 0 0 1 299 300)"/></g></g></g><g clip-path="url(#clip4)"><g clip-path="url(#clip5)"><g clip-path="url(#clip6)"><path d="M37.5833 16.2292 24.7708 16.2292 20.5 3.41667 16.2292 16.2292 3.41667 16.2292 13.2396 24.7708 9.39583 37.5833 20.5 29.8958 31.6042 37.5833 27.7604 24.7708Z" stroke="#000000" stroke-width="0.666669" fill="#FFFF00" transform="matrix(1.02439 0 0 1 939 300)"/></g></g></g><g clip-path="url(#clip7)"><g clip-path="url(#clip8)"><g clip-path="url(#clip9)"><path d="M16.6167 1.40948C14.5567 1.40948 12.9331 1.69989 11.3422 2.35595 8.31414 3.61275 6.81671 5.62186 6.81671 8.46349 6.81671 10.4737 7.53362 11.9042 9.12564 13.1599 10.8731 14.5522 13.2766 15.2088 16.5226 15.2088 19.0827 15.2088 21.5166 14.8227 23.7321 14.0107L23.7321 7.59391 15.3366 7.59391 15.8986 9.79719 19.2072 9.79719 19.2072 12.8518C18.4891 13.083 17.7092 13.1798 16.7411 13.1798 15.3366 13.1798 14.1512 12.9093 13.3391 12.4258 12.2477 11.7499 11.7167 10.5119 11.7167 8.59957 11.7167 6.5888 12.0901 5.13895 13.5576 4.26936 14.3066 3.82517 15.4002 3.59284 16.6792 3.59284 18.3331 3.59284 19.8007 3.92197 21.2052 4.63667L23.5147 2.95448C21.6101 1.93111 19.2381 1.40948 16.6167 1.40948L16.6167 1.40948Z" transform="matrix(1.0244 0 0 1 606 598)"/><path d="M29.4933 15.0551 33.8634 15.0551 33.8634 9.12177 39.3873 9.12177 39.3873 6.91849 33.8634 6.91849 33.8634 3.84453 40.7608 3.84453 41.2593 1.66062 29.4933 1.66062 29.4933 15.0551Z" transform="matrix(1.0244 0 0 1 606 598)"/><path d="M46.0303 3.86444 52.7104 3.86444C54.0209 3.86444 54.9253 3.76708 54.9253 3.76708 54.9253 3.76708 54.1769 4.36617 53.5839 4.98516L45.5933 13.1605 45.5933 15.0551 59.1388 15.0551 60.2623 12.8518 52.9588 12.8518C52.0859 12.8518 50.8048 12.9287 50.8048 12.9287 50.8048 12.9287 51.4608 12.4651 51.9293 11.9817L59.9824 3.57403 59.9824 1.62245 46.9978 1.62245 46.0303 3.86444 46.0303 3.86444Z" transform="matrix(1.0244 0 0 1 606 598)"/><path d="M66.2127 29.5099C45.9983 24.5735 20.1719 24.6531 0.0835286 29.6449 16.9519 21.4597 49.0993 21.3817 66.2127 29.5099L66.2127 29.5099Z" fill="#005B9D" transform="matrix(1.0244 0 0 1 606 598)"/><path d="M6.81062 39.0709 6.81062 43.9532 8.39269 43.9532 8.39269 42.1593 9.26338 42.1593C10.1346 42.1593 10.4737 42.1039 10.8349 41.9988 11.694 41.7477 12.1913 41.2156 12.1913 40.5711 12.1913 40.0102 11.7958 39.5621 11.0617 39.311 10.6209 39.1567 10.2137 39.0709 8.87948 39.0709L6.81062 39.0709 6.81062 39.0709ZM8.39269 39.8636 9.3989 39.8636C9.73855 39.8636 10.0096 39.9333 10.1905 40.0655 10.3714 40.1911 10.4621 40.3675 10.4621 40.5905 10.4621 40.8223 10.4062 40.9777 10.2696 41.1093 10.0561 41.3113 9.86301 41.361 9.21857 41.361L8.39324 41.361 8.39324 39.8636 8.39269 39.8636Z" transform="matrix(1.0244 0 0 1 606 598)"/><path d="M20.1564 42.0348C20.1564 40.7808 18.9461 40.1502 17.229 40.1502 15.3969 40.1502 14.2668 40.8654 14.2668 42.0979 14.2668 43.218 15.3521 44.0085 17.2843 44.0085 19.1961 44.0085 20.1564 43.2114 20.1564 42.0348L20.1564 42.0348ZM18.4272 42.0348C18.4272 43.0288 17.9979 43.3502 17.2063 43.3502 16.3583 43.3502 15.9512 43.0698 15.9512 42.1244 15.9512 41.2714 16.313 40.8156 17.2063 40.8156 18.1445 40.8156 18.4272 41.2714 18.4272 42.0348L18.4272 42.0348Z" transform="matrix(1.0244 0 0 1 606 598)"/><path d="M27.3636 40.1994 22.4349 40.1994 22.4349 40.9417 24.0065 40.9417 24.0065 43.9532 25.5553 43.9532 25.5553 40.9417 27.0705 40.9417C27.0705 40.9417 27.3758 40.1994 27.3636 40.1994L27.3636 40.1994Z" transform="matrix(1.0244 0 0 1 606 598)"/><path d="M34.5781 42.7207C34.5781 42.1454 33.9231 41.7826 32.8605 41.6271L32.0462 41.5087C31.5379 41.4385 31.4128 41.3544 31.4128 41.1735 31.4128 40.9622 31.7519 40.8305 32.2266 40.8305 32.7017 40.8305 33.2333 40.9207 33.8092 41.1099L34.5217 40.4577C33.9569 40.2276 33.0181 40.0733 32.1928 40.0733 30.7358 40.0733 29.7284 40.5761 29.7284 41.2714 29.7284 41.4805 29.8075 41.6703 29.9768 41.8528 30.2031 42.1039 30.6445 42.2793 31.3005 42.3833L32.0695 42.4961C32.6226 42.5658 32.8605 42.713 32.8605 42.916 32.8605 43.1765 32.4982 43.2866 31.7857 43.2866 31.1191 43.2866 30.6107 43.1765 29.9768 43.0078L29.4801 43.722C30.2152 43.9388 30.972 44.0373 31.7071 44.0373 33.4363 44.0373 34.5781 43.5195 34.5781 42.7207L34.5781 42.7207Z" transform="matrix(1.0244 0 0 1 606 598)"/><path d="M42.5952 42.1122C42.5952 40.9782 41.6902 40.3388 40.2093 40.2342 39.9494 40.2127 39.3613 40.2127 38.9653 40.2127L37.631 40.2127 37.631 43.9532 39.2031 43.9532C39.6661 43.9532 39.9726 43.9532 40.232 43.9322 41.5884 43.8271 42.5952 43.2042 42.5952 42.1122L42.5952 42.1122ZM40.9097 42.1886C40.9097 43.0012 40.435 43.2247 39.8929 43.2247L39.1699 43.2247 39.1699 40.9008 39.7237 40.9008C40.6624 40.9003 40.9097 41.3682 40.9097 42.1886L40.9097 42.1886Z" transform="matrix(1.0244 0 0 1 606 598)"/><path d="M50.6576 43.9532 48.5556 40.1795 47.0155 40.1795 44.778 43.9532 46.3728 43.9532 46.802 43.1555 48.5982 43.1555 49.0623 43.9532 50.6576 43.9532 50.6576 43.9532ZM48.2607 42.4618 47.1638 42.4618C47.3447 42.0625 47.6058 41.4457 47.7297 41.0673 47.8425 41.4457 48.0892 42.0691 48.2607 42.4618L48.2607 42.4618Z" transform="matrix(1.0244 0 0 1 606 598)"/><path d="M60.0421 43.9532 59.422 40.1994 57.5224 40.1994 56.7192 41.9015C56.6186 42.1194 56.5389 42.3429 56.4598 42.573 56.3907 42.3357 56.3232 42.1808 56.2103 41.9369L55.442 40.1994 53.5534 40.1994 52.899 43.9532 54.4236 43.9532 54.6161 42.1593C54.6515 41.9303 54.6731 41.6631 54.6841 41.4042 54.7748 41.7051 54.8988 41.9933 54.979 42.1593L55.7921 43.9466 57.0816 43.9466 57.9854 42.1039C58.0878 41.9081 58.2111 41.7046 58.2908 41.4883 58.3135 41.7477 58.3367 41.9303 58.3588 42.1244L58.5624 43.9532 60.0421 43.9532 60.0421 43.9532Z" transform="matrix(1.0244 0 0 1 606 598)"/><path d="M9.30984 36.7482 9.30984 34.6821 7.36213 34.6821 7.36213 36.7482 6.82335 36.7482 6.82335 32.476 7.36213 32.476 7.36213 34.2622 9.30984 34.2622 9.30984 32.476 9.86191 32.476 9.86191 36.7482 9.30984 36.7482 9.30984 36.7482ZM13.015 34.91C13.0111 34.7402 12.9962 34.6002 12.9713 34.4934 12.9475 34.385 12.9093 34.2949 12.8601 34.2185 12.802 34.1361 12.719 34.0703 12.6112 34.0194 12.5038 33.9712 12.3849 33.9453 12.2538 33.9453 11.7643 33.9453 11.5059 34.2661 11.4794 34.91L13.015 34.91 13.015 34.91ZM11.4799 35.2773 11.4799 35.3531C11.4799 35.4997 11.4904 35.6274 11.5126 35.7381 11.5352 35.8498 11.5756 35.9477 11.6348 36.0318 11.7289 36.164 11.8494 36.2614 11.9955 36.3211 12.1404 36.3809 12.2997 36.4107 12.4701 36.4107 12.7893 36.4107 13.0625 36.3128 13.2921 36.1181L13.4935 36.4295C13.3452 36.5534 13.1737 36.6491 12.9779 36.715 12.7826 36.7825 12.5774 36.8151 12.3617 36.8151 11.8948 36.8151 11.5297 36.6685 11.267 36.377 11.0036 36.0844 10.8731 35.6794 10.8731 35.1661 10.8731 34.9039 10.9046 34.6832 10.9671 34.5034 11.0302 34.3225 11.1336 34.1521 11.2775 33.9945 11.5424 33.7079 11.8765 33.5647 12.2815 33.5647 12.6538 33.5647 12.9574 33.6775 13.1903 33.9016 13.2622 33.9724 13.3236 34.0443 13.374 34.1195 13.4227 34.1947 13.4619 34.2821 13.4907 34.3823 13.52 34.4824 13.5416 34.5963 13.5549 34.7296 13.5687 34.863 13.5748 35.0234 13.5748 35.2098L13.5748 35.2778 11.4799 35.2778 11.4799 35.2773ZM15.4141 36.7404C15.3466 36.7703 15.2918 36.7885 15.2492 36.7963 15.2066 36.8051 15.1491 36.8096 15.0772 36.8096 14.9107 36.8096 14.7774 36.767 14.6795 36.679 14.6258 36.6331 14.5843 36.5772 14.5578 36.5081 14.5307 36.44 14.5168 36.3488 14.5168 36.2365L14.5168 32.9495C14.5168 32.7471 14.5036 32.5894 14.4764 32.4794 14.4504 32.3687 14.4361 32.3151 14.4361 32.3151L14.9616 32.221C14.9616 32.221 14.976 32.2846 15.0053 32.4097 15.034 32.5369 15.0495 32.7183 15.0495 32.9545L15.0495 36.1242C15.0495 36.2453 15.0617 36.3272 15.086 36.3698 15.1109 36.4135 15.1613 36.4367 15.2376 36.4367 15.2465 36.4367 15.2608 36.4345 15.2785 36.4295 15.2962 36.4257 15.3051 36.4229 15.3051 36.4229L15.4141 36.7404 15.4141 36.7404ZM19.9152 36.7482 19.9152 34.4569C19.9152 34.1521 19.7708 34.0006 19.4837 34.0006 19.3316 34.0006 19.1878 34.0437 19.0561 34.1278 18.9228 34.213 18.7696 34.333 18.5942 34.4818L18.5942 36.7482 18.0621 36.7482 18.0621 34.5432C18.0621 34.4475 18.0555 34.3695 18.0411 34.307 18.0278 34.2445 18.0035 34.1903 17.9675 34.1455 17.8912 34.062 17.7755 34.0194 17.624 34.0194 17.4934 34.0194 17.3618 34.052 17.2296 34.1167 17.0974 34.1809 16.943 34.2854 16.7682 34.4309L16.7682 36.7476 16.2632 36.7476 16.2632 34.3435C16.2632 34.1189 16.2427 33.953 16.2029 33.8451 16.1625 33.7367 16.142 33.6836 16.142 33.6836L16.6543 33.5719C16.6587 33.5757 16.6692 33.599 16.688 33.6399 16.7057 33.6808 16.7245 33.74 16.7455 33.8153 16.766 33.8899 16.7765 33.963 16.7765 34.0326 16.8296 33.9746 16.8955 33.9176 16.9718 33.8612 17.0481 33.8047 17.13 33.755 17.2169 33.7113 17.3042 33.667 17.395 33.6333 17.4873 33.6067 17.5792 33.5779 17.6671 33.5641 17.7529 33.5641 17.9188 33.5641 18.0754 33.6095 18.2214 33.6985 18.368 33.7887 18.4725 33.917 18.5345 34.0808 18.696 33.9253 18.8736 33.7987 19.0672 33.7046 19.2603 33.6117 19.4417 33.5636 19.6126 33.5636 19.8643 33.5636 20.0679 33.6427 20.2222 33.7987 20.3777 33.9541 20.4551 34.156 20.4551 34.406L20.4551 36.7471 19.9152 36.7471 19.9152 36.7482ZM23.6889 36.7482 23.6889 34.6063C23.6889 34.4901 23.6801 34.395 23.6618 34.3225 23.6436 34.2495 23.6104 34.1903 23.5606 34.1455 23.5202 34.1079 23.466 34.078 23.3991 34.0531 23.331 34.031 23.2541 34.0194 23.1701 34.0194 23.008 34.0194 22.8404 34.0653 22.6678 34.1571 22.4952 34.2484 22.3364 34.3767 22.1926 34.5427L22.1926 36.7476 21.6671 36.7476 21.6671 32.9247C21.6671 32.7211 21.6527 32.5651 21.6228 32.4522 21.5946 32.3444 21.5791 32.288 21.5791 32.288L22.1052 32.1961C22.1052 32.1961 22.119 32.2586 22.1484 32.3853 22.1777 32.512 22.1921 32.694 22.1921 32.9307L22.1921 33.6532C22.1921 33.7527 22.1893 33.8484 22.1821 33.9397 22.1755 34.0304 22.1727 34.0764 22.1727 34.0764 22.3248 33.9453 22.4957 33.828 22.6838 33.7312 22.873 33.6344 23.0755 33.5835 23.2907 33.5835 23.4931 33.5835 23.6757 33.6299 23.8366 33.7207 23.9982 33.8136 24.1033 33.9309 24.153 34.0764 24.1763 34.1372 24.1901 34.2014 24.1973 34.2622 24.2039 34.3258 24.2073 34.4121 24.2073 34.525L24.2073 36.7487 23.6889 36.7487 23.6889 36.7482ZM27.4754 35.2834C27.4754 34.8563 27.4234 34.5454 27.3199 34.3496 27.248 34.2119 27.1462 34.1123 27.0135 34.0465 26.8807 33.9845 26.7446 33.9502 26.6063 33.9502 26.457 33.9502 26.3209 33.9823 26.1948 34.0404 26.0687 34.1012 25.9768 34.1831 25.9182 34.2871 25.8645 34.3817 25.8242 34.4957 25.7971 34.624 25.77 34.7523 25.7561 34.9094 25.7561 35.0964 25.7561 35.3171 25.7755 35.5174 25.8137 35.6977 25.8524 35.8786 25.9022 36.0158 25.9652 36.1104 26.0283 36.2072 26.1212 36.2829 26.2451 36.3388 26.369 36.3963 26.5024 36.4229 26.6467 36.4229 26.821 36.4229 26.9714 36.3836 27.0976 36.3018 27.2231 36.2204 27.3144 36.1048 27.3736 35.956 27.409 35.8598 27.435 35.7613 27.4505 35.6645 27.4676 35.5655 27.4754 35.4383 27.4754 35.2834L27.4754 35.2834ZM28.075 35.2474C28.075 35.5046 28.0396 35.7314 27.9671 35.9289 27.8958 36.1253 27.7951 36.2907 27.6679 36.424 27.5395 36.5568 27.3874 36.6585 27.2126 36.7255 27.0373 36.7935 26.8448 36.8289 26.6335 36.8289 26.171 36.8289 25.8142 36.6812 25.562 36.3869 25.3108 36.0921 25.1847 35.6883 25.1847 35.1783 25.1847 34.6727 25.3114 34.2738 25.5653 33.9862 25.8186 33.698 26.1682 33.5542 26.6124 33.5542 26.8957 33.5542 27.1291 33.6062 27.3133 33.7085 27.4975 33.8136 27.648 33.9425 27.7652 34.0952 27.8681 34.2362 27.9461 34.4011 27.9976 34.5875 28.0496 34.7733 28.075 34.9941 28.075 35.2474L28.075 35.2474ZM29.9149 36.7404C29.8474 36.7703 29.7921 36.7885 29.7489 36.7963 29.7069 36.8051 29.6493 36.8096 29.5774 36.8096 29.4115 36.8096 29.2787 36.767 29.1797 36.679 29.126 36.6331 29.0862 36.5772 29.0591 36.5081 29.0326 36.44 29.0187 36.3488 29.0187 36.2365L29.0187 32.9495C29.0187 32.7471 29.0054 32.5894 28.9783 32.4794 28.9518 32.3687 28.938 32.3151 28.938 32.3151L29.4635 32.221C29.4635 32.221 29.4779 32.2846 29.5077 32.4097 29.537 32.5369 29.5514 32.7183 29.5514 32.9545L29.5514 36.1242C29.5514 36.2453 29.5636 36.3272 29.5885 36.3698 29.6128 36.4135 29.6632 36.4367 29.7401 36.4367 29.7484 36.4367 29.7627 36.4345 29.7804 36.4295 29.7987 36.4257 29.8075 36.4229 29.8075 36.4229L29.9149 36.7404 29.9149 36.7404ZM31.9837 34.0133 31.2828 34.0133 31.2828 36.0135C31.2828 36.1867 31.3127 36.3078 31.373 36.3742 31.4339 36.4395 31.5467 36.4743 31.7143 36.4743 31.7912 36.4743 31.8521 36.4672 31.8991 36.4583 31.9461 36.4472 31.9948 36.4323 32.0435 36.4113L32.1181 36.7216C31.9466 36.8046 31.7492 36.8472 31.5246 36.8472 31.4344 36.8472 31.3548 36.84 31.2851 36.8262 31.2154 36.8107 31.149 36.7891 31.0865 36.7598 30.9703 36.7056 30.8862 36.6292 30.837 36.5319 30.7883 36.4306 30.7634 36.3023 30.7634 36.1452L30.7634 34.0138 30.3259 34.0138 30.3259 33.6465 30.7634 33.6465C30.7634 33.5724 30.7656 33.4889 30.7712 33.3982 30.7745 33.3052 30.7806 33.2217 30.7866 33.1415 30.7938 33.0624 30.8005 32.9977 30.8077 32.944 30.8143 32.8898 30.8182 32.8633 30.8182 32.8633L31.3708 32.751C31.3708 32.751 31.3669 32.7781 31.3608 32.8323 31.3542 32.8854 31.3459 32.9556 31.3371 33.0447 31.3277 33.1304 31.3199 33.2272 31.3138 33.3329 31.3083 33.4385 31.3039 33.5436 31.3039 33.6465L32.1452 33.6465 31.9837 34.0133 31.9837 34.0133ZM34.7529 36.7482 32.5142 36.7482 32.5142 36.3748 34.3419 34.0332 32.6569 34.0332 32.6569 33.6465 34.8934 33.6465 34.8934 34.0448 33.1492 36.3753 35.0024 36.3753 34.7529 36.7482 34.7529 36.7482ZM35.5406 35.3215 35.5406 34.8491 36.8278 34.8491 36.8278 35.3215 35.5406 35.3215 35.5406 35.3215ZM40.0412 36.7482 37.2986 36.7482 37.2986 36.356 39.2734 33.3097C39.363 33.1763 39.436 33.0762 39.4886 33.0054 39.5428 32.9346 39.5693 32.8992 39.5693 32.8992 39.5693 32.8992 39.5251 32.9014 39.4382 32.9031 39.3508 32.9058 39.2358 32.9058 39.0925 32.9058L37.3672 32.9058 37.5226 32.4766 40.1573 32.4766 40.1573 32.9125 38.2362 35.9073C38.1593 36.0279 38.094 36.1264 38.0382 36.2033 37.9812 36.2796 37.9546 36.3172 37.9546 36.3172 37.9546 36.3172 37.9928 36.3167 38.0741 36.3145 38.1554 36.3128 38.2478 36.3117 38.3512 36.3117L40.1839 36.3117 40.0412 36.7482 40.0412 36.7482ZM42.7982 34.91C42.7926 34.7402 42.7794 34.6002 42.7528 34.4934 42.7301 34.385 42.6925 34.2949 42.6422 34.2185 42.5852 34.1361 42.5011 34.0703 42.3933 34.0194 42.2859 33.9712 42.1659 33.9453 42.0359 33.9453 41.5464 33.9453 41.2875 34.2661 41.2609 34.91L42.7982 34.91 42.7982 34.91ZM41.2609 35.2773 41.2609 35.3531C41.2609 35.4997 41.2725 35.6274 41.2947 35.7381 41.3179 35.8498 41.3594 35.9477 41.4164 36.0318 41.5109 36.164 41.6304 36.2614 41.7765 36.3211 41.9236 36.3809 42.0824 36.4107 42.2528 36.4107 42.5714 36.4107 42.8435 36.3128 43.0737 36.1181L43.275 36.4295C43.1273 36.5534 42.9558 36.6491 42.7606 36.715 42.5653 36.7825 42.3601 36.8151 42.1427 36.8151 41.6763 36.8151 41.3118 36.6685 41.0502 36.377 40.7857 36.0844 40.6541 35.6794 40.6541 35.1661 40.6541 34.9039 40.6851 34.6832 40.7492 34.5034 40.8128 34.3225 40.9146 34.1521 41.059 33.9945 41.3245 33.7079 41.6598 33.5647 42.0625 33.5647 42.4358 33.5647 42.739 33.6775 42.973 33.9016 43.0438 33.9724 43.1046 34.0443 43.1528 34.1195 43.2036 34.1947 43.2429 34.2821 43.2711 34.3823 43.3016 34.4824 43.3231 34.5963 43.3353 34.7296 43.3497 34.863 43.3558 35.0234 43.3558 35.2098L43.3558 35.2778 41.2609 35.2778 41.2609 35.2773ZM46.2334 36.7482 46.2334 34.6494C46.2334 34.5654 46.2317 34.4995 46.2273 34.4448 46.2223 34.39 46.2157 34.3441 46.2063 34.307 46.1968 34.2694 46.1847 34.2368 46.1697 34.2091 46.1537 34.1826 46.1349 34.1571 46.1122 34.1328 46.0309 34.0443 45.9086 34.0006 45.7416 34.0006 45.6747 34.0006 45.5983 34.0122 45.5176 34.0354 45.4335 34.0586 45.3494 34.0896 45.2664 34.1278 45.184 34.1682 45.1016 34.2141 45.0219 34.2689 44.9412 34.3236 44.8709 34.3795 44.8128 34.4381L44.8128 36.7482 44.2995 36.7482 44.2995 34.3557C44.2995 34.1333 44.279 33.9674 44.2359 33.8617 44.1938 33.7555 44.1728 33.7019 44.1728 33.7019L44.685 33.5724C44.6906 33.5763 44.7011 33.5995 44.7199 33.6405 44.7359 33.6814 44.7547 33.7411 44.7752 33.818 44.7951 33.8944 44.8056 33.9746 44.8056 34.0575 45.1514 33.7373 45.5048 33.5785 45.8638 33.5785 46.0492 33.5785 46.214 33.6189 46.3628 33.7024 46.5111 33.7865 46.6189 33.8971 46.6853 34.0338 46.7406 34.146 46.7672 34.2644 46.7672 34.3939L46.7672 36.7487 46.2334 36.7487 46.2334 36.7482ZM49.1983 34.0133 48.498 34.0133 48.498 36.0135C48.498 36.1867 48.5285 36.3078 48.5876 36.3742 48.6485 36.4395 48.7625 36.4743 48.929 36.4743 49.0058 36.4743 49.0672 36.4672 49.1132 36.4583 49.1613 36.4472 49.2089 36.4323 49.2598 36.4113L49.3328 36.7216C49.1613 36.8046 48.9649 36.8472 48.7403 36.8472 48.6502 36.8472 48.5688 36.84 48.5019 36.8262 48.4317 36.8107 48.3658 36.7891 48.3028 36.7598 48.186 36.7056 48.1025 36.6292 48.0511 36.5319 48.0035 36.4306 47.9786 36.3023 47.9786 36.1452L47.9786 34.0138 47.541 34.0138 47.541 33.6465 47.9786 33.6465C47.9786 33.5724 47.9814 33.4889 47.9869 33.3982 47.9902 33.3052 47.9974 33.2217 48.0029 33.1415 48.009 33.0624 48.0157 32.9977 48.0234 32.944 48.0295 32.8898 48.0323 32.8633 48.0323 32.8633L48.5849 32.751C48.5849 32.751 48.5821 32.7781 48.5744 32.8323 48.5677 32.8854 48.5611 32.9556 48.5528 33.0447 48.5428 33.1304 48.5351 33.2272 48.5285 33.3329 48.5213 33.4385 48.5179 33.5436 48.5179 33.6465L49.361 33.6465 49.1983 34.0133 49.1983 34.0133ZM51.4968 34.114C51.4509 34.0968 51.4016 34.0885 51.3485 34.0885 51.1372 34.0885 50.9502 34.1637 50.7887 34.3142 50.7118 34.3823 50.662 34.4514 50.6338 34.5156 50.6084 34.5781 50.5934 34.676 50.5934 34.8049L50.5934 36.7476 50.0679 36.7476 50.0679 34.3551C50.0679 34.1272 50.0491 33.9607 50.0115 33.8556 49.9722 33.7489 49.954 33.6958 49.954 33.6958L50.48 33.5647C50.4839 33.5696 50.4939 33.5945 50.5132 33.6371 50.5309 33.6814 50.5481 33.7433 50.5669 33.8236 50.5846 33.9049 50.5912 33.9884 50.5874 34.0708 50.7085 33.9121 50.8523 33.7865 51.0216 33.6919 51.1903 33.5995 51.3596 33.5536 51.5294 33.5536 51.5748 33.5536 51.6162 33.5591 51.6555 33.5674 51.6942 33.5785 51.7131 33.5829 51.7131 33.5829L51.4968 34.114 51.4968 34.114ZM54.5486 36.8776C54.4363 36.7941 54.3528 36.7161 54.2997 36.6447 54.2455 36.5728 54.2067 36.4837 54.1852 36.3809 53.9302 36.6956 53.5739 36.8527 53.1203 36.8527 52.904 36.8527 52.7215 36.8129 52.5705 36.7343 52.4206 36.6569 52.3105 36.5485 52.2375 36.4113 52.2065 36.3532 52.1838 36.2846 52.1705 36.2055 52.1578 36.1264 52.1501 36.0429 52.1501 35.9505L52.1501 33.6714 52.6689 33.5779 52.6689 35.8067C52.6689 35.9521 52.6828 36.0644 52.7121 36.1408 52.7403 36.2188 52.7945 36.2802 52.8703 36.3305 52.9251 36.3643 52.9865 36.3897 53.0595 36.4085 53.1308 36.4273 53.2044 36.4378 53.2813 36.4378 53.4489 36.4378 53.6099 36.3858 53.767 36.284 53.9241 36.1828 54.0474 36.0467 54.137 35.8764L54.137 33.6781 54.6565 33.5979 54.6565 35.8576C54.6565 36.0528 54.672 36.1989 54.7051 36.2957 54.7406 36.3952 54.8003 36.4777 54.8844 36.549L54.5486 36.8776 54.5486 36.8776ZM59.5227 36.7482 59.5227 34.4569C59.5227 34.1521 59.3778 34.0006 59.0907 34.0006 58.9375 34.0006 58.7953 34.0437 58.6631 34.1278 58.5303 34.213 58.376 34.333 58.2012 34.4818L58.2012 36.7482 57.6696 36.7482 57.6696 34.5432C57.6696 34.4475 57.6618 34.3695 57.6491 34.307 57.6358 34.2445 57.6115 34.1903 57.5755 34.1455 57.4987 34.062 57.383 34.0194 57.2309 34.0194 57.1026 34.0194 56.9698 34.052 56.8365 34.1167 56.7049 34.1809 56.5522 34.2854 56.3752 34.4309L56.3752 36.7476 55.8701 36.7476 55.8701 34.3435C55.8701 34.1189 55.8508 33.953 55.8093 33.8451 55.77 33.7367 55.7484 33.6836 55.7484 33.6836L56.2596 33.5719C56.2651 33.5757 56.2767 33.599 56.2944 33.6399 56.3127 33.6808 56.3315 33.74 56.3514 33.8153 56.3724 33.8899 56.3835 33.963 56.3835 34.0326 56.4366 33.9746 56.5018 33.9176 56.5787 33.8612 56.6556 33.8047 56.7375 33.755 56.8238 33.7113 56.9117 33.667 57.0008 33.6333 57.0937 33.6067 57.185 33.5779 57.2741 33.5641 57.3587 33.5641 57.5263 33.5641 57.6812 33.6095 57.8267 33.6985 57.9749 33.7887 58.0778 33.917 58.1414 34.0808 58.3035 33.9253 58.48 33.7987 58.6736 33.7046 58.8666 33.6117 59.0481 33.5636 59.2201 33.5636 59.4696 33.5636 59.6732 33.6427 59.8286 33.7987 59.984 33.9541 60.0609 34.156 60.0609 34.406L60.0609 36.7471 59.5227 36.7471 59.5227 36.7482Z" transform="matrix(1.0244 0 0 1 606 598)"/></g></g></g></g></svg>