<svg width="1222" height="296" xmlns="http://www.w3.org/2000/svg" xmlns:xlink="http://www.w3.org/1999/xlink" overflow="hidden"><defs><clipPath id="clip0"><rect x="29" y="199" width="1222" height="296"/></clipPath><clipPath id="clip1"><rect x="448" y="263" width="802" height="164"/></clipPath><clipPath id="clip2"><rect x="448" y="263" width="802" height="164"/></clipPath><clipPath id="clip3"><rect x="448" y="263" width="802" height="164"/></clipPath><clipPath id="clip4"><rect x="448" y="263" width="802" height="164"/></clipPath></defs><g clip-path="url(#clip0)" transform="translate(-29 -199)"><path d="M96.1935 400.757C91.3417 400.757 87.4601 398.571 85.7621 394.685 84.0639 390.799 85.2768 386.427 88.6731 382.783 97.8915 372.825 106.867 365.296 116.328 357.28 121.18 353.151 126.275 348.779 131.612 343.921 139.374 337.849 143.256 327.891 140.587 320.361 138.647 314.532 133.067 311.374 125.304 311.374 118.754 311.374 111.962 315.26 108.08 321.575 105.897 324.976 102.743 326.676 98.8619 326.676L98.8619 326.676C95.2231 326.676 91.8268 324.976 90.1287 322.061 87.9454 318.661 87.9454 314.289 89.886 309.917 96.436 297.287 109.293 290 125.304 290 142.771 290 156.356 298.258 161.935 311.86 168 326.919 162.663 344.893 148.108 359.223 137.676 368.21 129.913 373.797 120.21 379.626 122.636 379.626 125.304 379.383 127.973 379.14 131.854 378.897 135.736 378.654 139.132 378.654L157.326 378.654C164.119 378.654 168 384.727 168 390.313 168 393.228 167.03 395.656 165.332 397.6 163.391 399.786 160.722 401 157.326 401L96.1935 401Z" fill="#FF0000" fill-rule="evenodd"/><path d="M235.788 401C230.443 401 224.611 397.856 224.611 391.085L224.611 378.752 180.877 378.752C175.046 378.752 170.916 376.575 168.972 372.948 167.028 368.837 168 363.516 171.887 358.922L224.611 295.562C227.527 292.418 230.443 290 236.517 290 244.292 290 246.964 296.529 246.964 301.85L246.964 357.471 253.038 357.471C256.197 357.471 258.87 358.68 260.57 360.856 262.271 362.791 263 365.209 263 368.111 263 373.673 259.599 379.235 253.038 379.235L246.964 379.235 246.964 391.569C247.207 397.614 241.376 401 235.788 401ZM225.826 356.987 226.069 324.582 198.857 356.987 225.826 356.987Z" fill="#FF0000" fill-rule="evenodd"/><path d="M174.862 494C139.957 494 106.02 481.629 79.5986 458.827 53.4193 436.51 35.724 405.46 30.1488 371.5 29.1791 365.921 33.0575 360.584 38.6328 359.614 44.208 358.644 49.5409 362.525 50.5104 368.104 60.6914 428.99 113.05 473.139 174.862 473.139 244.432 473.139 300.911 416.619 300.911 347 300.911 277.381 244.432 220.861 174.862 220.861 144.805 220.861 115.716 231.535 92.9307 251.183 70.3873 270.589 55.3585 297.272 50.5104 326.381 49.5409 331.96 44.208 335.842 38.6328 334.871 33.0575 333.901 29.1791 328.564 30.1488 322.985 35.724 289.025 53.1769 257.975 79.5986 235.416 106.263 212.614 140.199 200 175.105 200 256.067 200 322 265.98 322 347 321.758 428.02 255.824 494 174.862 494Z" fill="#FF0000" fill-rule="evenodd"/><path d="M363 319.166C363 312.136 367.537 309.954 373.03 314.075L402.881 336.863C408.373 340.985 408.373 348.015 402.881 352.137L373.03 374.925C367.537 379.046 363 376.864 363 369.834L363 319.166Z" fill="#FF0000" fill-rule="evenodd"/><g clip-path="url(#clip1)"><g clip-path="url(#clip2)"><g clip-path="url(#clip3)"><g clip-path="url(#clip4)"><path d="M731.235 73.5398 731.235 227.557 694.246 227.557 694.246 167.493 636.408 167.493 636.408 227.221 599.419 227.221 599.419 73.5398 636.408 73.5398 636.408 133.268 694.246 133.268 694.246 73.5398 731.235 73.5398Z" fill="#FF0000" fill-rule="evenodd" transform="matrix(1 0 0 1.00165 -150.031 194.898)"/><path d="M844.845 70.7647C889.386 70.7647 925.491 104.217 925.491 150.716 925.491 196.88 889.386 230.332 844.845 230.332 800.304 230.332 764.536 196.88 764.536 150.716 764.536 104.217 800.304 70.7647 844.845 70.7647ZM844.845 193.869C870.152 193.869 886.687 176.139 886.687 150.382 886.687 124.623 870.152 106.893 844.845 106.893 819.876 106.893 803.34 124.288 803.34 150.382 803.34 176.139 819.876 193.869 844.845 193.869Z" fill="#FF0000" fill-rule="evenodd" transform="matrix(1 0 0 1.00165 -150.031 194.898)"/><path d="M1044.69 227.557 1016.07 177.452 997.218 177.452 997.218 227.557 960.18 227.557 960.18 73.5398 1017.76 73.5398C1056.48 73.5398 1080.05 94.7256 1080.05 126.336 1080.05 147.185 1070.28 162.319 1052.1 170.726L1086.45 227.557 1044.69 227.557ZM996.882 144.496 1022.47 144.496C1035.6 144.496 1040.99 134.743 1040.99 126.336 1040.99 117.929 1035.6 108.177 1022.47 108.177L996.882 108.177 996.882 144.496Z" fill="#FF0000" fill-rule="evenodd" transform="matrix(1 0 0 1.00165 -150.031 194.898)"/><path d="M1212.81 203.061 1151.9 203.061 1143.15 227.221 1103.1 227.221 1164.69 73.5398 1199.69 73.5398 1261.28 227.557 1221.23 227.557 1212.81 203.061ZM1200.7 170.85 1189.59 140.985C1186.23 132.261 1182.19 118.503 1182.19 118.503L1181.85 118.503C1181.51 118.503 1177.81 132.261 1174.45 140.985L1163.34 170.85 1200.7 170.85Z" fill="#FF0000" fill-rule="evenodd" transform="matrix(1 0 0 1.00165 -150.031 194.898)"/><path d="M1361.48 121.906C1357.8 108.101 1345.75 101.703 1335.03 101.703 1324.32 101.703 1317.62 107.09 1317.62 113.488 1317.62 123.59 1333.02 127.294 1351.77 134.365 1374.54 142.784 1398.64 155.915 1398.64 182.18 1398.64 210.465 1374.54 230.332 1338.72 230.332 1306.57 230.332 1283.81 212.486 1273.76 183.528L1308.92 174.099C1312.94 185.884 1323.98 197.334 1340.05 197.334 1353.11 197.334 1359.47 191.271 1359.47 183.528 1359.47 171.069 1341.39 168.038 1319.63 159.62 1301.22 152.548 1279.79 142.447 1279.79 115.172 1279.79 91.2643 1303.9 69.3772 1337.38 69.3772 1366.84 69.3772 1389.94 87.5602 1397.3 111.805L1361.48 121.906Z" fill="#FF0000" fill-rule="evenodd" transform="matrix(1 0 0 1.00165 -150.031 194.898)"/></g></g></g></g></g></svg>