<svg viewBox="0 0 90.7 38.4" xmlns="http://www.w3.org/2000/svg" xmlns:xlink="http://www.w3.org/1999/xlink" id="Capa_1" overflow="hidden"><style>
.MsftOfcResponsive_Fill_ff0000 {
 fill:#FF0000; 
}
</style>
<g><g><path d="M56.3 0.8C54.3 0 52.1 1.1 51.4 3.1L44.1 23.1 36.8 3.1C36.8 3.1 36.7 3 36.7 3 36.6 2.9 36.6 2.7 36.5 2.6 36.4 2.5 36.4 2.4 36.3 2.3 36.2 2.2 36.2 2.1 36.1 2 36 1.9 35.9 1.8 35.8 1.7 35.7 1.6 35.6 1.5 35.5 1.5 35.4 1.4 35.3 1.3 35.2 1.2 35.1 1.2 35 1.1 34.9 1 34.8 0.9 34.7 0.8 34.5 0.8 34.4 0.7 34.3 0.7 34.2 0.7 34 0.6 33.9 0.6 33.8 0.6 33.7 0.7 33.7 0.7 33.6 0.7 33.4 0.7 33.3 0.6 33.1 0.6L33 0.6 3.9 0.6C1.7 0.6 0 2.3 0 4.4 0 6.5 1.7 8.3 3.9 8.3L13.4 8.3 13.4 34.4C13.4 36.5 15.2 38.3 17.3 38.3 19.4 38.3 21.2 36.5 21.2 34.4L21.2 8.4 30.5 8.4 40.4 35.9C41.2 37.9 43.4 38.9 45.3 38.2 45.4 38.1 45.5 38.1 45.6 38 45.6 38 45.7 38 45.7 37.9 45.9 37.8 46 37.7 46.2 37.6 46.3 37.5 46.4 37.5 46.4 37.4 46.5 37.3 46.6 37.2 46.7 37.1 46.8 37 47 36.9 47 36.7 47 36.6 47.1 36.6 47.1 36.6 47.3 36.3 47.5 36 47.6 35.6L58.4 5.6C59.4 3.8 58.3 1.5 56.3 0.8" class="MsftOfcResponsive_Fill_ff0000" fill="#FF0000"/><path d="M59.9 0.7 59.9 38.2 67.6 38.2 67.6 17.4C67.6 17.4 67.1 9.3 74.3 7.6 74.3 7.6 82.5 5 82.9 13.8L82.9 38.3 90.6 38.3 90.6 14C90.6 14 91.4 4.3 84.2 1.3 84.2 1.3 74.3-3 67.3 4.5L67.3 0.8 59.9 0.7 59.9 0.7Z" class="MsftOfcResponsive_Fill_ff0000" fill="#FF0000"/></g></g></svg>