<svg id="Capa_1" data-name="Capa 1" xmlns="http://www.w3.org/2000/svg" viewBox="0 0 239.59 157.47"><title>Logo_CNNESPANOL2</title><path id="path7" d="M263.4,69.73c1.84,0,3.66,0,5.5,0-3.06,10-8.44,19.59-16.82,26a54.37,54.37,0,0,1-30,10.93,69.38,69.38,0,0,1-21.22-2.31,97.09,97.09,0,0,1-13.6-4.29c-6.09-2.32-12.12-4.83-18.19-7.22a69.83,69.83,0,0,0-16.26-4.63c-7.08-.91-14.71-.06-20.81,3.88-4.5,2.9-7.26,7.67-9.62,12.32-1.89,0-3.79,0-5.67,0,2.73-8.52,8.48-16.16,16.39-20.42s17.46-5.21,26.4-4.25,17.14,4.28,25.36,7.51c7.19,2.82,14.33,5.86,21.75,8a60.16,60.16,0,0,0,22.44,2.27A40.31,40.31,0,0,0,246.66,92,39.39,39.39,0,0,0,263.4,69.73Z" transform="translate(-29.31 -67.52)" style="fill:red"/><path id="path5" d="M155.3,67.52h5.52c10.91.42,21.38,3.87,31.48,7.78,6.41,2.35,12.75,4.91,19.1,7.41,5.45,1.83,11.1,3.43,16.88,3.59s12.07-1,17-4.33c4.38-2.89,7.1-7.57,9.42-12.13,1.92,0,3.83,0,5.74,0a37,37,0,0,1-9.09,15,33.59,33.59,0,0,1-13.18,8A48.92,48.92,0,0,1,219,94.72a70.6,70.6,0,0,1-17.48-4.1c-6.13-2.19-12.13-4.69-18.2-7-8-3.12-16.19-6.08-24.81-6.78-9.11-.82-18.64.28-26.73,4.75-8.86,4.8-15.32,13.39-18.25,22.92-1.84,0-3.71,0-5.56,0,3-9.77,8.21-19.17,16.33-25.6A54.94,54.94,0,0,1,155.3,67.52Z" transform="translate(-29.31 -67.52)" style="fill:red"/><path d="M60.52,170.68a22.86,22.86,0,0,1,22.84-22.86h17.31V134.88H83.23a35.8,35.8,0,1,0,0,71.59h33.65a3.6,3.6,0,0,0,3.38-3.37V136.78a7.8,7.8,0,0,1,5.71-7.66c2.91-.79,7,0,9.71,4.66.12.2,8.4,14.46,21,36.19,9.9,17,20.12,34.68,20.32,35,1.06,1.77,2.49,2.64,3.89,2.27a2.64,2.64,0,0,0,1.88-2.66v-67.8a7.8,7.8,0,0,1,5.71-7.66c2.86-.79,6.92,0,9.63,4.66.13.2,7.42,12.81,19.47,33.53,10.64,18.35,21.62,37.29,21.82,37.66,1.08,1.77,2.54,2.64,3.92,2.27a2.64,2.64,0,0,0,1.85-2.66v-87.8H232.22V169S210.54,131.71,209.56,130c-13.77-23.35-39.76-13.69-39.76,6.43V169s-21.71-37.32-22.69-39c-13.75-23.36-39.77-13.7-39.79,6.42v53.46a3.52,3.52,0,0,1-3.55,3.65H83.36a22.84,22.84,0,0,1-22.84-22.84" transform="translate(-29.31 -67.52)" style="fill:red"/><path d="M250.38,116.78v87.77a7.83,7.83,0,0,1-5.69,7.66,6.72,6.72,0,0,1-2,.3c-2.59,0-5.57-1.28-7.74-4.93-.1-.19-8.72-15-21.82-37.69-9.46-16.3-19.24-33.15-19.46-33.5-1.06-1.77-2.49-2.63-3.85-2.27a2.67,2.67,0,0,0-1.87,2.66v67.77a7.77,7.77,0,0,1-5.69,7.66c-2.93.8-7,0-9.73-4.63-.1-.19-8.1-14-20.3-35-10.23-17.64-20.79-35.82-21-36.17-1.06-1.8-2.51-2.63-3.89-2.27a2.65,2.65,0,0,0-1.87,2.66l0,66.32a8.79,8.79,0,0,1-8.55,8.55H83.23a41,41,0,1,1,0-82h17.44V116.78H83.26a53.9,53.9,0,1,0,0,107.8H117.2c12.94,0,21.24-7.54,21.21-21.51V172.33s21.68,37.32,22.67,39c13.79,23.4,39.76,13.74,39.76-6.41V172.33s21.67,37.32,22.69,39c13.77,23.4,39.76,13.74,39.76-6.41V116.78Z" transform="translate(-29.31 -67.52)" style="fill:red"/></svg>