<svg width="644" height="660" xmlns="http://www.w3.org/2000/svg" xmlns:xlink="http://www.w3.org/1999/xlink" overflow="hidden"><defs><clipPath id="clip0"><rect x="318" y="38" width="644" height="660"/></clipPath><clipPath id="clip1"><rect x="354" y="159" width="572" height="402"/></clipPath><clipPath id="clip2"><rect x="354" y="159" width="572" height="402"/></clipPath><clipPath id="clip3"><rect x="354" y="159" width="572" height="402"/></clipPath></defs><g clip-path="url(#clip0)" transform="translate(-318 -38)"><g clip-path="url(#clip1)"><g clip-path="url(#clip2)"><g clip-path="url(#clip3)"><path d="M307.63 0 320.305 0C345.315 1.003 369.35 8.92523 392.492 17.9086 407.195 23.3452 421.717 29.2396 436.297 34.9814 448.798 39.2187 461.728 42.8891 475 43.2816 488.562 43.536 502.677 41.0139 514.087 33.3097 524.14 26.6521 530.354 15.8663 535.689 5.35659 540.078 5.33479 544.468 5.30572 548.858 5.37113 544.694 18.2793 537.672 30.3589 527.999 39.9164 519.575 48.3256 509.087 54.5689 497.8 58.2902 483.648 62.9927 468.495 63.8358 453.719 62.6511 439.982 61.5027 426.602 57.8178 413.65 53.2098 399.593 48.2021 385.827 42.4385 371.932 37.0165 353.608 29.8283 334.784 23.0254 315.022 21.3828 294.156 19.5149 272.271 22.0514 253.722 32.3285 233.408 43.3833 218.581 63.1744 211.88 85.1386 207.628 85.1313 203.376 85.1386 199.124 85.1459 206 62.6583 217.963 41.0139 236.584 26.1797 256.789 10.3498 282.024 1.26465 307.63 0Z" fill="#FF0000" transform="matrix(1 0 0 1.002 354.182 159)"/><path d="M556.003 5.34206C560.203 5.34933 564.412 5.29118 568.62 5.3784 561.599 28.3165 549.236 50.3825 529.975 65.2022 510.207 80.1818 485.872 89.0779 461.089 90.3062 444.691 91.2438 428.229 89.0779 412.363 84.9932 401.751 82.384 391.241 79.266 381.102 75.1668 367.097 69.8029 353.266 64.0102 339.304 58.5446 327.348 53.5223 314.781 49.881 301.967 47.9041 285.701 45.8109 268.142 47.7515 254.129 56.8293 243.793 63.4578 237.485 74.469 232.034 85.1313 227.687 85.1604 223.341 85.1241 218.995 85.1459 225.26 65.6383 238.495 48.0495 256.687 38.2593 275.053 28.1494 296.792 26.2887 317.318 28.491 337.61 30.7005 356.726 38.332 375.571 45.7455 392.121 52.2068 408.496 59.2423 425.583 64.2065 442.25 69.0615 459.809 71.0603 477.114 69.4032 491.316 68.124 505.365 63.9375 517.554 56.4369 536.212 45.0187 549.658 26.1288 556.003 5.34206Z" fill="#FF0000" transform="matrix(1 0 0 1.002 354.182 159)"/><path d="M228.495 130.441C238.547 128.304 249.245 129.743 258.505 134.162 267.663 138.479 275.403 145.391 281.545 153.372 286.254 159.346 289.736 166.142 293.617 172.654 309.709 200.374 325.88 228.051 341.783 255.882 341.943 234.811 341.797 213.733 341.848 192.664 342.045 183.651 341.077 174.457 343.447 165.641 346.638 152.536 355.498 140.82 367.563 134.664 377.818 129.235 390.16 128.094 401.301 131.255 412.08 134.25 421.528 140.995 428.863 149.331 435.73 156.876 440.331 166.041 445.499 174.733 461.241 201.807 477.137 228.786 492.887 255.852 492.996 214.053 492.902 172.248 492.938 130.448 504.181 130.383 515.432 130.404 526.676 130.441 526.669 201.072 526.669 271.711 526.676 342.35 526.676 345.671 526.982 349.37 524.939 352.227 523.441 354.48 520.222 355.091 517.897 353.825 515.964 352.947 514.699 351.173 513.652 349.407 477.196 290.87 440.578 232.427 404.434 173.693 401.766 169.063 396.787 165.713 391.409 165.422 385.639 165.008 379.954 168.526 377.542 173.73 375.572 177.538 375.535 181.935 375.6 186.122 375.616 239.404 375.593 292.694 375.608 345.984 375.616 349.094 374.664 352.968 371.408 354.175 368.311 355.265 365.201 353.048 363.66 350.475 326.695 291.211 289.685 231.976 253.01 172.53 250.023 168.155 244.841 165.16 239.484 165.386 234.367 165.437 229.498 168.547 227.143 173.054 224.912 177.007 224.752 181.666 224.846 186.093 224.839 239.165 224.89 292.243 224.824 345.315 224.643 350.068 220.216 354.066 215.507 354.044 191.028 354.094 166.556 354.044 142.077 354.066 132.083 354.168 122.024 353.658 112.234 351.486 93.4461 347.553 75.7627 337.676 63.436 322.849 48.9216 305.566 41.748 282.642 42.5984 260.198 43.2888 237.318 52.3013 214.525 68.4656 198.172 82.4857 183.825 101.819 175.278 121.668 173.214 129.387 172.261 137.178 172.538 144.941 172.501 157.086 172.494 169.238 172.516 181.383 172.494 181.506 183.621 181.412 194.756 181.434 205.883 169.281 205.905 157.129 205.883 144.977 205.891 138.218 205.927 131.415 205.651 124.721 206.763 112.634 208.587 101.034 214.177 92.4939 222.999 81.8898 233.713 76.0033 248.773 75.9808 263.803 75.8936 276.261 79.9201 288.813 87.7697 298.545 94.34 306.874 103.549 312.907 113.535 316.359 121.523 319.172 130.005 320.401 138.45 320.618 152.994 320.625 167.537 320.611 182.073 320.633 185.504 320.786 188.84 318.656 190.192 315.517 191.289 313.227 191.013 310.625 191.042 308.168 191.028 264.807 191.042 221.438 191.035 178.069 191.144 166.564 195.032 154.993 202.482 146.148 209.074 138.21 218.363 132.519 228.495 130.441Z" fill="#FF0000" transform="matrix(1 0 0 1.002 354.182 159)"/><path d="M119.582 131.56C132.854 130.019 146.227 130.484 159.557 130.412 166.854 130.448 174.158 130.332 181.456 130.47 181.412 141.699 181.456 152.928 181.434 164.157 166.127 164.165 150.82 164.165 135.514 164.157 123.136 164.15 110.671 165.691 98.9117 169.688 80.6396 175.699 64.3664 187.604 53.2098 203.281 38.223 224.098 31.8925 250.7 34.9451 276.086 37.518 297.861 47.0101 319.07 62.7601 334.5 76.6059 348.418 95.1686 357.096 114.407 360.41 123.056 362.016 131.865 362.416 140.645 362.388 163.918 362.38 187.19 362.38 210.463 362.38 214.068 362.351 217.803 362.656 221.256 361.362 227.993 359.074 233.045 352.431 233.19 345.285 233.197 290.993 233.183 236.7 233.197 182.408 233.197 179.311 234.237 175.772 237.187 174.267 240.393 172.734 244.354 174.296 246.164 177.226 282.729 236.497 319.659 295.558 356.501 354.662 359.779 360.331 366.785 364.242 373.326 362.265 380.005 360.418 383.938 353.362 383.901 346.725 383.923 292.214 383.901 237.703 383.916 183.2 383.894 180.104 384.505 176.477 387.318 174.667 390.422 172.61 394.724 174.086 396.701 177.022 433.295 236.308 470.217 295.398 507.074 354.516 509.407 358.441 513.252 361.574 517.773 362.527 522.475 363.624 527.629 361.749 530.761 358.122 533.748 354.859 534.977 350.33 534.991 345.984 535.005 274.132 534.976 202.286 535.005 130.441 546.184 130.391 557.355 130.412 568.534 130.427 568.562 202.047 568.541 273.667 568.548 345.286 568.504 350.389 568.788 355.542 567.887 360.6 566.223 372.419 560.306 383.894 550.567 391.031 540.086 398.932 526.117 401.25 513.391 398.721 497.409 395.64 483.461 384.984 475.147 371.147 456.075 339.559 436.96 307.993 417.961 276.363 417.968 297.39 417.968 318.409 417.968 339.435 417.924 348.157 418.411 357.032 416.202 365.564 413.796 375.681 408.033 385.137 399.521 391.242 389.157 398.896 375.464 401.178 362.955 398.729 346.791 395.698 332.698 384.904 324.333 370.906 305.319 339.363 286.175 307.892 267.285 276.276 267.089 299.49 267.285 322.712 267.184 345.926 266.893 357.468 264.022 369.358 256.885 378.647 250.503 387.136 240.757 392.667 230.472 394.899 221.518 397.021 212.273 396.454 203.152 396.526 181.914 396.498 160.669 396.578 139.425 396.483 112.547 396.083 85.3138 389.847 62.2593 375.66 44.8159 365.034 30.0762 350.04 19.6908 332.451-5.04261 290.907-5.63133 236.054 18.695 194.19 31.1744 172.415 50.5657 154.768 73.3221 144.215 87.8714 137.389 103.629 133.312 119.582 131.56Z" fill="#FF0000" transform="matrix(1 0 0 1.002 354.182 159)"/></g></g></g></g></svg>