<svg id="Capa_1" data-name="Capa 1" xmlns="http://www.w3.org/2000/svg" xmlns:xlink="http://www.w3.org/1999/xlink" viewBox="0 0 968.3 294"><defs><clipPath id="clip-path" transform="translate(-1 -70)"><rect width="1106" height="466" style="fill:none"/></clipPath></defs><title>Logo_24PLAY</title><g style="clip-path:url(#clip-path)"><path d="M67,270.76c-4.78,0-8.6-2.15-10.27-6s-.48-8.13,2.87-11.71c9.07-9.81,17.91-17.22,27.22-25.11,4.78-4.07,9.8-8.37,15.05-13.16,7.64-6,11.46-15.78,8.84-23.19-1.91-5.74-7.41-8.85-15-8.85-6.45,0-13.14,3.83-17,10a10.29,10.29,0,0,1-9.07,5h0a9.82,9.82,0,0,1-8.6-4.55c-2.15-3.34-2.15-7.65-.24-11.95,6.45-12.44,19.11-19.61,34.87-19.61,17.2,0,30.57,8.13,36.06,21.52,6,14.83.72,32.52-13.61,46.63A184.49,184.49,0,0,1,90.64,250c2.39,0,5-.24,7.65-.48,3.82-.24,7.64-.48,11-.48h17.92c6.68,0,10.5,6,10.5,11.48a10.58,10.58,0,0,1-2.62,7.17,10.09,10.09,0,0,1-7.88,3.35H67Z" transform="translate(-1 -70)" style="fill:red;fill-rule:evenodd"/><path d="M207,271c-5.26,0-11-3.18-11-10V249H153c-5.74,0-9.81-2.18-11.72-5.8-1.91-4.12-1-9.44,2.87-14L196,165.81c2.87-3.14,5.74-5.56,11.72-5.56,7.65,0,10.28,6.53,10.28,11.85V227h6a9,9,0,0,1,7.41,3.42,10.79,10.79,0,0,1,2.39,7.34c0,5.62-3.34,11.24-9.8,11.24h-6v12.47C218.24,267.58,212.5,271,207,271Zm-10-44,.24-32.4L170,227Z" transform="translate(-1 -70)" style="fill:red;fill-rule:evenodd"/><path d="M145.86,364A146.82,146.82,0,0,1,1.15,241.5a10.39,10.39,0,0,1,8.48-11.89,10.38,10.38,0,0,1,11.88,8.49A126.25,126.25,0,1,0,63.93,121.18a127,127,0,0,0-42.42,75.2,10.38,10.38,0,0,1-11.88,8.49A10.39,10.39,0,0,1,1.15,193a147.27,147.27,0,0,1,145-123c81,0,146.9,66,146.9,147C292.76,298,226.82,364,145.86,364Z" transform="translate(-1 -70)" style="fill:red;fill-rule:evenodd"/><path d="M334,189.17c0-7,4.54-9.22,10-5.09l29.85,22.78c5.49,4.12,5.49,11.16,0,15.28L344,244.92c-5.49,4.13-10,1.94-10-5.09Z" transform="translate(-1 -70)" style="fill:red;fill-rule:evenodd"/><g style="isolation:isolate"><path d="M477.78,141.12c36.84,0,59.36,19.07,59.36,52.83,0,32-22.52,52.39-59.36,52.39H459v48.22H421.47V141.12Zm0,74.31c15,0,21.59-7.67,21.82-21,0-12.93-6.8-20.83-21.82-20.83H459v41.87Z" transform="translate(-1 -70)" style="fill:red"/><path d="M553.33,141.12h37.53V261.68h65.7v32.88H553.33Z" transform="translate(-1 -70)" style="fill:red"/><path d="M712.86,268.47l-8.21,26.09H665.71l53-153.44H765l52.79,153.44H778.09l-8.21-26.09Zm36.6-65.31c-4.22-12.94-7.5-24.33-7.74-24.55H741c-.24.22-3.52,11.39-7.74,24.33L723,236.47h36.84Z" transform="translate(-1 -70)" style="fill:red"/><path d="M915.33,294.56H877.8V236l-54.2-94.91,42.93-.22L888.12,183c5.16,9.64,9.15,18,9.38,18.19h.71c.23-.22,4.22-8.76,9.38-18.19l22.29-41.87H969.3l-54,94.91Z" transform="translate(-1 -70)" style="fill:red"/></g></g></svg>