<svg id="Capa_1" data-name="Capa 1" xmlns="http://www.w3.org/2000/svg" viewBox="0 0 779 780"><defs><style>.cls-1{fill:none;stroke:#fff;stroke-linecap:round;stroke-linejoin:round;stroke-width:68.75px;}.cls-2{fill:#fff;fill-rule:evenodd;}</style></defs><title>Logo_IconSolo</title><path class="cls-1" d="M65.5,216.9a72.39,72.39,0,0,1,72.4-72.4H642.1a72.39,72.39,0,0,1,72.4,72.4V462.1a72.39,72.39,0,0,1-72.4,72.4H137.9a72.39,72.39,0,0,1-72.4-72.4Z"/><path class="cls-2" d="M195,636.5A32.5,32.5,0,0,1,227.5,604h325A32.5,32.5,0,0,1,585,636.5h0A32.5,32.5,0,0,1,552.5,669h-325A32.5,32.5,0,0,1,195,636.5Z"/></svg>