<svg id="Capa_1" data-name="Capa 1" xmlns="http://www.w3.org/2000/svg" xmlns:xlink="http://www.w3.org/1999/xlink" viewBox="0 0 1216.38 294"><defs><clipPath id="clip-path" transform="translate(-1 -1)"><rect width="1222" height="296" style="fill:none"/></clipPath></defs><title>Logo_24HORAS</title><g style="clip-path:url(#clip-path)"><path d="M67.19,201.76c-4.85,0-8.73-2.19-10.43-6.08s-.48-8.25,2.91-11.9c9.22-9.95,18.2-17.48,27.66-25.5,4.85-4.13,10-8.5,15.28-13.36,7.76-6.07,11.65-16,9-23.56-1.94-5.83-7.52-9-15.29-9-6.55,0-13.34,3.89-17.22,10.21a10.45,10.45,0,0,1-9.22,5.1h0a10,10,0,0,1-8.73-4.62c-2.18-3.4-2.18-7.77-.24-12.14C67.44,98.29,80.29,91,96.3,91c17.47,0,31.06,8.26,36.63,21.86,6.07,15.06.73,33-13.82,47.36a187.81,187.81,0,0,1-27.9,20.41c2.43,0,5.09-.25,7.76-.49,3.88-.24,7.77-.49,11.16-.49h18.2c6.79,0,10.67,6.08,10.67,11.66a10.74,10.74,0,0,1-2.67,7.29,10.22,10.22,0,0,1-8,3.4H67.19Z" transform="translate(-1 -1)" style="fill:red;fill-rule:evenodd"/><path d="M206.79,202c-5.35,0-11.18-3.14-11.18-9.92V179.75H151.88c-5.83,0-10-2.17-11.91-5.8-1.94-4.11-1-9.43,2.92-14l52.72-63.36c2.92-3.14,5.83-5.56,11.91-5.56,7.77,0,10.44,6.53,10.44,11.85v55.62H224a9.26,9.26,0,0,1,7.53,3.39,10.5,10.5,0,0,1,2.43,7.25c0,5.56-3.4,11.12-10,11.12H218v12.34C218.21,198.61,212.38,202,206.79,202Zm-10-44,.24-32.41L169.86,158Z" transform="translate(-1 -1)" style="fill:red;fill-rule:evenodd"/><path d="M145.86,295A146.82,146.82,0,0,1,1.15,172.5a10.39,10.39,0,0,1,8.48-11.89,10.38,10.38,0,0,1,11.88,8.49A126.25,126.25,0,1,0,63.93,52.18a127,127,0,0,0-42.42,75.2,10.38,10.38,0,0,1-11.88,8.49A10.39,10.39,0,0,1,1.15,124,147.27,147.27,0,0,1,146.1,1C227.07,1,293,67,293,148,292.76,229,226.82,295,145.86,295Z" transform="translate(-1 -1)" style="fill:red;fill-rule:evenodd"/><path d="M334,120.17c0-7,4.54-9.22,10-5.09l29.85,22.78c5.49,4.12,5.49,11.16,0,15.28L344,175.92c-5.49,4.13-10,1.94-10-5.09Z" transform="translate(-1 -1)" style="fill:red;fill-rule:evenodd"/></g><path d="M561.22,70.7V224H520.76V164.43h-56.4V224H424.15V70.7h40.21v59.13h56.4V70.7Z" transform="translate(-1 -1)" style="fill:red"/><path d="M587.21,147.79c0-12,2-23,6.13-32.85a76.86,76.86,0,0,1,16.92-25.18A71.69,71.69,0,0,1,636,73.55a92.64,92.64,0,0,1,32.37-5.69,90.62,90.62,0,0,1,32.37,5.69,75.69,75.69,0,0,1,25.75,16,74,74,0,0,1,17.16,25.18c4.17,9.86,6.13,20.81,6.13,32.85s-2,23-6.13,32.85a73.8,73.8,0,0,1-17.16,25.18,75.69,75.69,0,0,1-25.75,16,95.72,95.72,0,0,1-32.37,5.48A97.9,97.9,0,0,1,636,221.59a71.8,71.8,0,0,1-25.74-16.2,76.9,76.9,0,0,1-16.92-25.19c-4.17-9.85-6.13-20.8-6.13-32.85Zm52.23,32.41Q649.73,192,668.13,192c12.26,0,21.82-3.95,28.93-11.83s10.55-18.83,10.55-32.85c0-14.23-3.44-25.18-10.55-32.85s-16.67-11.6-28.93-11.6-21.83,3.94-28.69,11.6-10.3,18.62-10.3,32.85Q629.14,168.38,639.44,180.2Z" transform="translate(-1 -1)" style="fill:red"/><path d="M863.55,224.22l-29.42-49.71H816v49.93H775.77V71.36h60.81a94.57,94.57,0,0,1,27,3.72,58.6,58.6,0,0,1,20.6,10.52A49.68,49.68,0,0,1,897.39,102a47.31,47.31,0,0,1,4.66,21.46c0,10.29-2.45,19-7.6,26.5s-12.26,13.14-21.58,17.3l35.8,56.94Zm-47.32-82.56,24.52.44a21.43,21.43,0,0,0,8.83-1.76,16.15,16.15,0,0,0,5.88-4.38,18.45,18.45,0,0,0,3.44-5.91,19.51,19.51,0,0,0,0-13.58,18.45,18.45,0,0,0-3.44-5.91,16.37,16.37,0,0,0-5.88-4.38,21.6,21.6,0,0,0-8.83-1.75H816.23Z" transform="translate(-1 -1)" style="fill:red"/><path d="M1029.31,199.91h-62L958.69,224H916L977.57,70.7h41.69L1080.81,224h-42.92Zm-11.77-32.19-11.77-33.29c-1-2.85-2-5.69-2.69-8.54s-1.48-5.26-2.21-7.45-1.23-3.94-1.72-5.25l-.73-2h-.25l-.49,2c-.49,1.31-1,3.06-1.72,5.25s-1.47,4.6-2.45,7.45l-2.94,8.54-12,33.29Z" transform="translate(-1 -1)" style="fill:red"/><path d="M1178.64,118.66l-.74.88c-2.2-6.79-5.88-11.83-11.27-15.11a30.88,30.88,0,0,0-16.43-4.82q-8.46,0-13.25,3.29c-3.18,2.19-4.65,4.81-4.65,7.88a8.5,8.5,0,0,0,2.69,6.13,26.18,26.18,0,0,0,7.36,5c3.19,1.53,7.11,3.28,11.52,5s9.32,3.72,14.47,5.69c5.64,2.19,11.53,4.6,17.41,7.45a81.66,81.66,0,0,1,15.69,9.85A50,50,0,0,1,1213,162.9a31.9,31.9,0,0,1,4.41,16.86A40.69,40.69,0,0,1,1213,198.6a42.6,42.6,0,0,1-12.75,14.89,66.08,66.08,0,0,1-20.11,9.85,101.91,101.91,0,0,1-50.51.22,63.47,63.47,0,0,1-19.62-9.63,68,68,0,0,1-14.71-14.68,74.27,74.27,0,0,1-9.81-18.83l38.5-9.2a33.08,33.08,0,0,0,4.41,8.76,34.71,34.71,0,0,0,6.87,7.45,34,34,0,0,0,9.32,5.25,32.17,32.17,0,0,0,11.52,2c6.38,0,11.28-1.31,14.71-3.72s5.15-5.47,5.15-9.2a9.85,9.85,0,0,0-2.94-7.22,29.68,29.68,0,0,0-8.34-5.7,94.72,94.72,0,0,0-12.75-5,164.17,164.17,0,0,1-15.69-5.7c-5.4-2.19-10.79-5-16.18-7.66a68.66,68.66,0,0,1-14.23-9.2,39.89,39.89,0,0,1-10-12.48,37.24,37.24,0,0,1-3.68-17.08,32.93,32.93,0,0,1,4.42-16.21A47,47,0,0,1,1109,81.22a63.1,63.1,0,0,1,19.13-9.86,79.56,79.56,0,0,1,24.76-3.72A72.18,72.18,0,0,1,1175,70.92a74.45,74.45,0,0,1,18.64,8.76,60.68,60.68,0,0,1,14.47,13.14,54.49,54.49,0,0,1,8.82,16.43Z" transform="translate(-1 -1)" style="fill:red"/></svg>