<svg id="Capa_1" data-name="Capa 1" xmlns="http://www.w3.org/2000/svg" viewBox="0 0 1920 1080"><title>LogoTV_CNNCHILE2</title><rect x="1648.57" y="838.14" width="190.5" height="148.93" style="fill:red"/><path d="M6239.5,6659.5h1920v1080h-1920Z" transform="translate(-6239.5 -6659.5)" style="fill:#fff;opacity:0"/><path id="Shape" d="M7927.6,7548.53a14.51,14.51,0,0,1,14.47-14.42H7953v-8.17h-11.09a22.59,22.59,0,0,0,0,45.18h21.25a2.26,2.26,0,0,0,2.16-2.16v-42.09a5.14,5.14,0,0,1,3.59-4.83A5.39,5.39,0,0,1,7975,7525l13.19,22.84,12.84,22.08c.67,1.13,1.59,1.69,2.46,1.43a1.62,1.62,0,0,0,1.18-1.69v-42.76a5.14,5.14,0,0,1,9.71-1.9l12.27,21.15,13.8,23.77c.67,1.13,1.6,1.69,2.47,1.43a1.64,1.64,0,0,0,1.18-1.69V7514.5H8036v32.9l-14.33-24.64c-8.67-14.73-25.1-8.68-25.1,4.06v20.53l-14.32-24.64c-8.68-14.73-25.1-8.68-25.1,4.05v33.78a2.23,2.23,0,0,1-.62,1.59,2.07,2.07,0,0,1-1.59.72H7942A14.52,14.52,0,0,1,7927.6,7548.53Z" transform="translate(-6239.5 -6659.5)" style="fill:#fff"/><path d="M8047.47,7514.5v55.44a5.14,5.14,0,0,1-4.73,5.13h0a5.66,5.66,0,0,1-4.87-3.08l-13.81-23.77-12.37-21.35c-.67-1.13-1.6-1.7-2.42-1.44a1.65,1.65,0,0,0-1.18,1.69v42.77a5.13,5.13,0,0,1-3.59,4.82,5.39,5.39,0,0,1-6.11-2.92l-12.83-22.08-13.3-22.84c-.67-1.13-1.59-1.7-2.46-1.44a1.65,1.65,0,0,0-1.19,1.69V7569a5.58,5.58,0,0,1-5.39,5.39h-21.3a25.87,25.87,0,1,1,0-51.74h11v-8.11h-11a34,34,0,0,0,0,68.07h21.46a12.49,12.49,0,0,0,9.91-3.65,12.31,12.31,0,0,0,3.49-10v-19.4l14.32,24.64c8.68,14.73,25.1,8.67,25.1-4.06v-20.53l14.58,24.64c8.68,14.73,25.11,8.68,25.11-4.06V7514.5Z" transform="translate(-6239.5 -6659.5)" style="fill:#fff"/><path d="M7927.14,7628.36a13.18,13.18,0,0,1-5.14-5.6,20.15,20.15,0,0,1-1.8-8.62,18.79,18.79,0,0,1,1.9-8.63,13.59,13.59,0,0,1,5.14-5.59A15.35,15.35,0,0,1,7935,7598a16,16,0,0,1,6.88,1.43,11.15,11.15,0,0,1,6.83,9.6h-7.29a6.24,6.24,0,0,0-2.06-3.64,6.69,6.69,0,0,0-4.46-1.49,6.59,6.59,0,0,0-4,1.18,7.63,7.63,0,0,0-2.56,3.49,17.81,17.81,0,0,0,0,11.09,7.16,7.16,0,0,0,2.51,3.49,6.49,6.49,0,0,0,3.85,1.18,6.85,6.85,0,0,0,4.67-1.44,6.5,6.5,0,0,0,2.06-4.31h7.24a11.46,11.46,0,0,1-1.95,6.16,12,12,0,0,1-5.14,4.16,16.05,16.05,0,0,1-6.93,1.44A15.41,15.41,0,0,1,7927.14,7628.36Z" transform="translate(-6239.5 -6659.5)" style="fill:#fff"/><polygon points="1712.58 939.24 1719.77 939.24 1719.77 951.15 1731.63 951.15 1731.63 939.24 1738.82 939.24 1738.82 970.04 1731.63 970.04 1731.63 957.05 1719.72 957.05 1719.72 970.04 1712.53 970.04 1712.58 939.24" style="fill:#fff"/><polygon points="1743.74 939.24 1750.98 939.24 1750.98 970.04 1743.74 970.04 1743.74 939.24" style="fill:#fff"/><polygon points="1756.02 939.24 1763.25 939.24 1763.25 964.24 1777.63 964.24 1777.63 970.04 1756.07 970.04 1756.02 939.24" style="fill:#fff"/><polygon points="1781.07 939.24 1803.35 939.24 1803.35 944.88 1787.94 944.88 1787.94 951.25 1802.01 951.25 1802.01 956.95 1788.25 956.95 1788.25 964.44 1803.65 964.44 1803.65 970.04 1781.07 970.04 1781.07 939.24" style="fill:#fff"/></svg>