<svg id="Capa_1" data-name="Capa 1" xmlns="http://www.w3.org/2000/svg" viewBox="0 0 3148.11 487.2"><title>Logo_CNNESPANOL</title><path d="M6378,7199.64c0,85.23,69.33,154.56,154.56,154.56H6677c9.07,0,16.1-8.62,16.1-16V7054.93a32.45,32.45,0,0,1,60.35-16.56l90.69,156.37,90.66,156.32a13.48,13.48,0,0,0,25-7V7054.93a32.44,32.44,0,0,1,60.34-16.56c.73,1.23,44.4,76.59,90.64,156.38l90.59,156.31a13.48,13.48,0,0,0,25-7V6969.21h-56.91v223.13s-103.1-177.46-106.44-183.17c-15.05-25.73-43.59-42-74-42a86.19,86.19,0,0,0-86.17,86.18v139s-103.1-177.46-106.44-183.17c-15.05-25.73-43.6-42-74-42a86.19,86.19,0,0,0-86.17,86.18v228.36A15.21,15.21,0,0,1,6621,7297.3H6533.2a97.66,97.66,0,0,1,0-195.31h73.5v-56.9h-74.11c-85.23,0-154.56,69.33-154.56,154.55" transform="translate(-6302.21 -6944.62)" style="fill:red"/><path d="M7245.31,6969.21v374.86a32.45,32.45,0,0,1-60.35,16.57c-.72-1.24-44.4-76.6-90.63-156.38-44.18-76.22-89.85-155.05-90.6-156.31a13.47,13.47,0,0,0-25,7v289.14a32.45,32.45,0,0,1-60.35,16.57c-.72-1.24-44.43-76.59-90.7-156.38C6783.46,7128,6737.75,7049.18,6737,7048a13.47,13.47,0,0,0-25,7v283.23c0,18.65-16.39,35-35.06,35H6532.59c-95.68,0-173.53-77.84-173.53-173.53s77.85-173.52,173.53-173.52h74.11v-56.91h-74c-127.27,0-230.45,103.17-230.45,230.43s103.18,230.44,230.45,230.44H6678.4c55.22,0,90.72-32.32,90.65-92V7206.66s103.84,178.72,106.45,183.17c15.05,25.73,43.59,42,74,42a86.19,86.19,0,0,0,86.17-86.18v-139s103.11,177.46,106.44,183.17c15.06,25.73,43.6,42,74,42a86.18,86.18,0,0,0,86.16-86.18V6969.21Z" transform="translate(-6302.21 -6944.62)" style="fill:red"/><path d="M6359.06,7199.64c0,95.69,77.84,173.53,173.53,173.53H6677c18.68,0,35.07-16.36,35.07-35V7054.93a13.48,13.48,0,0,1,25-7c.72,1.25,46.45,80.08,90.66,156.32,46.27,79.79,90,155.14,90.7,156.38a32.45,32.45,0,0,0,60.35-16.58V7054.93a13.48,13.48,0,0,1,25-7c.74,1.27,46.41,80.09,90.59,156.31,46.23,79.79,89.91,155.15,90.63,156.39a32.45,32.45,0,0,0,60.35-16.58V6969.21h-19v374.85a13.48,13.48,0,0,1-25,7l-90.59-156.31c-46.24-79.79-89.91-155.15-90.64-156.38a32.44,32.44,0,0,0-60.34,16.56v289.13a13.48,13.48,0,0,1-25,7l-90.66-156.32c-46.27-79.78-90-155.14-90.7-156.37a32.44,32.44,0,0,0-60.34,16.56v283.23c0,7.42-7,16-16.1,16H6532.59c-85.23,0-154.56-69.33-154.56-154.56s69.33-154.55,154.56-154.55h74.11v-19h-74.11c-95.69,0-173.53,77.85-173.53,173.53" transform="translate(-6302.21 -6944.62)" style="fill:#fff"/><path d="M7468.94,7031.49h227.11v57.77H7540.82v64.83h143.76v57.77H7540.82v76.29h158.76v57.78H7468.94Z" transform="translate(-6302.21 -6944.62)"/><path d="M7787.56,7340.41q-30.21-12.12-46.31-35.28t-16.1-55.78h73.21q0,22.48,15.44,33.95t44.1,11.47q27.78,0,41.23-10.14t13.45-26q0-15-9.26-23.6t-32.19-13.45L7803.65,7207q-38.81-8.37-57.55-30.43t-18.74-56.45q0-31.3,16.54-53.36t45-33.07q28.44-11,64.16-11,34.41,0,61.75,10.81t43.21,32q15.89,21.17,15.88,50.27h-72.77q-4-36.15-52-36.16-15,0-26.24,4.41t-17.2,12.13a28.44,28.44,0,0,0-6,17.86q0,12.79,7.72,20.73t22.27,11l77.62,16.76q38.8,8.82,58.21,31.31t19.4,57.77q0,30.44-15.43,53.36t-43.66,35.28q-28.23,12.35-66.15,12.35Q7817.77,7352.54,7787.56,7340.41Z" transform="translate(-6302.21 -6944.62)"/><path d="M8018.42,7031.49H8151.6q37.47,0,63.28,12.13t38.81,34.62q13,22.48,13,53.36,0,32.64-13,56.23t-38.81,35.94q-25.8,12.34-63.28,12.35h-60v109.81h-73.2ZM8141,7179.23q25.58,0,38.81-11.47t13.23-36.16q0-22.05-13.45-32.85T8141,7087.94h-49.39v91.29Z" transform="translate(-6302.21 -6944.62)"/><path d="M8451,7276.25H8336.81l-21.6,69.68h-78.06l107.16-314.44h100.11L8552,7345.93h-78.5Zm-56-192.72-42.78,137.15h84.23Z" transform="translate(-6302.21 -6944.62)"/><path d="M8577.16,7031.49h77.61l120.84,205.95V7031.49h68.79v314.44h-77.61L8646,7140.86v205.07h-68.79Zm59.31-59.75a47.53,47.53,0,0,1,18.52-19.19q11.69-6.61,27.12-6.61a65,65,0,0,1,19.63,2.86q9,2.88,20.5,7.72,13.23,5.74,18.53,5.74a13.73,13.73,0,0,0,10.36-4.41q4.19-4.41,4.63-13.23h37.49q-.45,17.19-7.28,30a47.32,47.32,0,0,1-18.52,19.41,53.25,53.25,0,0,1-26.68,6.61,61.45,61.45,0,0,1-18.53-2.64q-8.37-2.65-22-7.94a95.78,95.78,0,0,0-10.14-4.41,25.39,25.39,0,0,0-8.38-1.77,13,13,0,0,0-10.14,4.41q-4,4.42-4.41,13.23h-37.93Q8629.63,6984.31,8636.47,6971.74Z" transform="translate(-6302.21 -6944.62)"/><path d="M8958.39,7332.92q-34.62-19.62-54.24-56.89t-19.63-88.42q0-50.71,19.63-88.2t54.24-57.11q34.62-19.62,78.72-19.63t78.72,19.63q34.62,19.62,54.24,57.11t19.63,88.2q0,51.15-19.63,88.42t-54.24,56.89q-34.62,19.6-78.72,19.62T8958.39,7332.92Zm120-52.7q17.86-11.91,27.79-35.5t9.92-57.11q0-34-9.92-57.55t-27.79-35.5q-17.85-11.91-41.23-11.91t-41.23,11.91q-17.86,11.89-27.79,35.5t-9.92,57.55q0,33.51,9.92,57.11t27.79,35.5q17.85,11.89,41.23,11.9T9078.34,7280.22Z" transform="translate(-6302.21 -6944.62)"/><path d="M9229.83,7031.49h74.08v254.9h146.42v59.54h-220.5Z" transform="translate(-6302.21 -6944.62)"/></svg>