<svg width="1858" height="627" xmlns="http://www.w3.org/2000/svg" xmlns:xlink="http://www.w3.org/1999/xlink" xml:space="preserve" overflow="hidden"><defs><clipPath id="clip0"><rect x="1271" y="924" width="1858" height="627"/></clipPath></defs><g clip-path="url(#clip0)" transform="translate(-1271 -924)"><path d="M1584.36 1247.63 1717.19 1380.52C1731.86 1395.2 1731.86 1419 1717.19 1433.68L1610.92 1539.99C1596.25 1554.67 1572.46 1554.67 1557.79 1539.99L1424.96 1407.1ZM2000.48 1112.52C1995.79 1132.84 1990.81 1153.75 1985.54 1175.24 1980.26 1196.73 1974.89 1217.25 1969.43 1236.79L1958.79 1276.06 2045.56 1276.06 2035.05 1236.79C2029.58 1217.25 2024.21 1196.73 2018.93 1175.24 2013.66 1153.75 2008.29 1132.84 2002.82 1112.52ZM1414.84 1079.3 1510.44 1174.95 1510.44 1174.95 1574.23 1238.77 1547.67 1265.35 1547.67 1265.35 1414.84 1398.24 1282 1265.35C1267.33 1250.67 1267.33 1226.87 1282 1212.19ZM2778.05 1051.56 2866.52 1051.56 2930.38 1226.82C2934.29 1238.15 2938.1 1249.98 2941.81 1262.28 2945.52 1274.59 2949.33 1286.81 2953.23 1298.92L2955.58 1298.92C2959.48 1286.81 2963.29 1274.59 2967 1262.28 2970.71 1249.98 2974.52 1238.15 2978.43 1226.82L3039.94 1051.56 3129 1051.56 3129 1433.73 3055.18 1433.73 3055.18 1281.92C3055.18 1269.81 3055.86 1256.23 3057.23 1241.18 3058.6 1226.14 3060.06 1211 3061.62 1195.76 3063.19 1180.52 3064.55 1166.84 3065.72 1154.73L3063.38 1154.73 3032.33 1244.99 2975.5 1399.74 2929.8 1399.74 2872.97 1244.99 2842.5 1154.73 2840.16 1154.73C2841.33 1166.84 2842.7 1180.52 2844.26 1195.76 2845.82 1211 2847.19 1226.14 2848.36 1241.18 2849.53 1256.23 2850.12 1269.81 2850.12 1281.92L2850.12 1433.73 2778.05 1433.73ZM2389.58 1051.56 2472.19 1051.56 2577.65 1249.68 2616.32 1332.92 2618.67 1332.92C2616.71 1312.6 2614.47 1290.32 2611.93 1266.09 2609.39 1241.87 2608.12 1218.62 2608.12 1196.34L2608.12 1051.56 2684.87 1051.56 2684.87 1433.73 2602.26 1433.73 2496.8 1235.03 2458.13 1152.38 2455.79 1152.38C2457.74 1172.7 2459.99 1194.78 2462.53 1218.62 2465.07 1242.45 2466.33 1265.51 2466.33 1287.78L2466.33 1433.73 2389.58 1433.73ZM2217.64 1051.56 2297.91 1051.56 2297.91 1433.73 2217.64 1433.73ZM1955.36 1051.56 2051.45 1051.56 2172.73 1433.73 2087.77 1433.73 2062.35 1338.78 1941.82 1338.78 1916.11 1433.73 1834.09 1433.73ZM1584.36 924C1593.97 924 1603.59 927.67 1610.92 935.009L1717.19 1041.32C1731.86 1056 1731.86 1079.8 1717.19 1094.48L1584.36 1227.37 1424.96 1067.9 1557.79 935.009C1565.13 927.67 1574.74 924 1584.36 924Z" fill="#FFFFFF" fill-rule="evenodd"/></g></svg>