<svg id="Capa_1" data-name="Capa 1" xmlns="http://www.w3.org/2000/svg" viewBox="0 0 451.76 154.07"><title>Logo_ADNRADIO</title><path d="M194.89,91.36H77.79C70.18,91.36,64,97.93,64,106V230.76c0,8.11,6.16,14.68,13.77,14.68h117.1c7.61,0,13.77-6.57,13.77-14.68V106C208.66,97.93,202.5,91.36,194.89,91.36Z" transform="translate(-64.02 -91.36)" style="fill:#df0000"/><path d="M348.07,91.36H231c-7.61,0-13.78,6.57-13.78,14.68V230.76c0,8.11,6.17,14.68,13.78,14.68H348.07c7.61,0,13.78-6.57,13.78-14.68V106C361.85,97.93,355.68,91.36,348.07,91.36Z" transform="translate(-64.02 -91.36)" style="fill:#df0000"/><path d="M502,91.36H384.91c-7.61,0-13.78,6.57-13.78,14.68V230.76c0,8.11,6.17,14.68,13.78,14.68H502c7.61,0,13.78-6.57,13.78-14.68V106C515.78,97.93,509.61,91.36,502,91.36Z" transform="translate(-64.02 -91.36)" style="fill:#0060a1"/><polygon points="426.67 129.7 406.95 129.7 355.94 62.74 355.94 129.7 333.06 129.7 333.06 24.37 354.43 24.37 403.79 89.22 403.79 24.37 426.67 24.37 426.67 129.7" style="fill:#fff"/><path d="M344,169c0,29.64-22.87,52.67-56,52.67H246.9V116.36H288c33.11,0,56,22.72,56,52.37Z" transform="translate(-64.02 -91.36)" style="fill:#fff"/><path d="M288,137.28H270.07v63.5H288c19,0,31.75-12.79,31.75-31.45V169C319.73,150.37,306.94,137.28,288,137.28Z" transform="translate(-64.02 -91.36)" style="fill:#df091a"/><polygon points="103.92 130.33 94.29 106.71 49.75 106.71 40.12 130.33 16.49 130.33 61.64 24.24 83 24.24 128.15 130.33 103.92 130.33" style="fill:#fff"/><polygon points="58.02 86.24 86.01 86.24 72.02 52.08 58.02 86.24" style="fill:#df091a"/></svg>