<svg id="Capa_1" data-name="Capa 1" xmlns="http://www.w3.org/2000/svg" viewBox="0 0 251.92 47.2"><title>T13_ENVIVO</title><path d="M30.7,0H.7A.84.84,0,0,0,0,.4V8.5c0,.3.3.5.7.7H11a.75.75,0,0,1,.7.4V33.1a17.54,17.54,0,0,0,2.8,8.6,17.19,17.19,0,0,0,6.4,4.6c.3.3.7,0,.8-.3V10a.75.75,0,0,1,.4-.7h1.3c.3,0,.4,0,.4-.3l7.4-8a.74.74,0,0,0,.4-.8,1.34,1.34,0,0,0-.9-.2" style="fill:#ff662d"/><path d="M42.2,0H34.4c-.3,0-.4,0-.4.3l-7.4,8c-.3.3-.3.5,0,.8.3,0,.3.3.4.3h5.3c.3,0,.5.3.7.7V34a13.44,13.44,0,0,0,3.2,8.6A22.72,22.72,0,0,0,42,46.5c.3.3.7,0,.8-.3V.7a3.74,3.74,0,0,0-.6-.7" style="fill:#ff662d"/><path d="M68.6,0H45.1a.75.75,0,0,0-.7.4V8.5a.75.75,0,0,0,.4.7h9.4c.3,0,.5.3.7.7,0,.3,0,.3-.3.4L48,17.5c0,.3-.3.3-.3.4v7c0,.3.3.5.7.7h7.5c.4,0,5.4,1.1,4.7,7.2a5.64,5.64,0,0,1-4.2,5.4H44.9a.75.75,0,0,0-.7.4v7.9a.75.75,0,0,0,.4.7H56.7s12.8-.4,12.8-14.9a12.18,12.18,0,0,0-9.2-12.4c-.3,0-.4-.4-.4-.7a1,1,0,0,1,.1-.3l8.4-9.2c0-.3.3-.3.3-.4V1.1A.9.9,0,0,0,68.6,0" style="fill:#ff662d"/><path d="M99.5,14.1c4,0,7,1.2,8.8,3.7s2.2,6.2,1.3,11.2l-.4,1.9H92.9A3.7,3.7,0,0,0,94,34.4a7.76,7.76,0,0,0,4.6,1.1,28.32,28.32,0,0,0,9-1.4L105,41.6c-2,.9-4.9,1.3-8.8,1.3-4.9,0-8.4-1.3-10.4-3.9S83.2,32.6,84,27.6c1.6-9,6.8-13.5,15.5-13.5m-.8,6.6c-2.5,0-4.1,1.6-4.9,4.9h8c.4-3.3-.6-4.9-3.1-4.9" style="fill:#ff662d"/><path d="M133.5,14.1c2.6,0,4.5.9,5.7,2.8s1.5,4.4,1,7.6L137,42.4h-9.7l3-16.7a4.59,4.59,0,0,0-.2-3,2.39,2.39,0,0,0-2.1-1,3.12,3.12,0,0,0-2.6,1,5.24,5.24,0,0,0-1.2,3l-3,16.7h-9.8l4.9-27.7H125l.5,2.6a10.93,10.93,0,0,1,8-3.2" style="fill:#ff662d"/><polygon points="172.6 14.7 183.1 14.7 168.8 42.4 159.1 42.4 154.5 14.7 164.3 14.7 165.6 31.7 172.6 14.7" style="fill:#ff662d"/><path d="M180.8,42.4l4.9-27.7h9.7l-4.9,27.7Zm5.6-31.3,1.1-6.3h9.7l-1.1,6.3Z" style="fill:#ff662d"/><polygon points="216.1 14.7 226.6 14.7 212.4 42.4 202.6 42.4 198 14.7 207.8 14.7 209.1 31.7 216.1 14.7" style="fill:#ff662d"/><path d="M235.8,43c-8.8,0-12.3-5-10.6-14.9.9-5,2.5-8.5,5-10.7s6-3.3,10.7-3.3c8.8,0,12.3,4.9,10.6,14.7-.9,5.1-2.5,8.7-4.9,10.9s-6,3.3-10.8,3.3m-1-9.2a2.19,2.19,0,0,0,2.4,1.5,3.27,3.27,0,0,0,2.9-1.5c.7-1,1.2-2.8,1.7-5.4s.5-4.3.1-5.3a2.19,2.19,0,0,0-2.4-1.5,3.16,3.16,0,0,0-2.9,1.5c-.7,1-1.2,2.8-1.6,5.4s-.6,4.4-.2,5.3" style="fill:#ff662d"/></svg>