<svg id="Capa_1" data-name="Capa 1" xmlns="http://www.w3.org/2000/svg" viewBox="0 0 296.5 160.54"><title>Logo_CHV</title><polygon points="296.5 64.64 259.38 64.64 225.04 112.89 225.04 0.6 193.49 0.6 193.49 160.22 224.11 160.22 296.5 64.64" style="fill:#ff136c"/><rect x="126.67" y="0.6" width="31.55" height="64.03" style="fill:#ff136c"/><rect x="126.67" y="96.19" width="31.55" height="64.04" style="fill:#ff136c"/><path d="M95.9,247.07V215.59A58.07,58.07,0,0,1,89,216c-29.19,0-52.85-21.68-52.85-48.42S59.82,119.17,89,119.17a58.07,58.07,0,0,1,6.89.41V88.1a82.44,82.44,0,0,0-11.29-.78A80.27,80.27,0,1,0,95.9,247.07" transform="translate(-4.35 -87.32)" style="fill:#ff136c"/></svg>