<svg width="1282" height="642" xmlns="http://www.w3.org/2000/svg" xmlns:xlink="http://www.w3.org/1999/xlink" overflow="hidden"><defs><clipPath id="clip0"><rect x="-1" y="-1" width="1282" height="642"/></clipPath><clipPath id="clip1"><rect x="299" y="300" width="42" height="41"/></clipPath><clipPath id="clip2"><rect x="299" y="300" width="42" height="41"/></clipPath><clipPath id="clip3"><rect x="299" y="300" width="42" height="41"/></clipPath><clipPath id="clip4"><rect x="939" y="300" width="42" height="41"/></clipPath><clipPath id="clip5"><rect x="939" y="300" width="42" height="41"/></clipPath><clipPath id="clip6"><rect x="939" y="300" width="42" height="41"/></clipPath><clipPath id="clip7"><rect x="602" y="599" width="76" height="29"/></clipPath><clipPath id="clip8"><rect x="602" y="599" width="76" height="29"/></clipPath><clipPath id="clip9"><rect x="602" y="599" width="76" height="29"/></clipPath></defs><g clip-path="url(#clip0)" transform="translate(1 1)"><rect x="0" y="632" width="1280" height="8" fill="#FFFFFF"/><rect x="636" y="0" width="8" height="636" fill="#FFFFFF"/><rect x="583" y="576" width="114" height="19" fill="#BFBFBF"/><text font-family="Assistant,Assistant_MSFontService,sans-serif" font-weight="700" font-size="9" transform="translate(590.417 589)">USGS <tspan font-size="9" x="24.3333" y="0">-</tspan><tspan font-size="9" x="29.1667" y="0">MAPBOX </tspan><tspan font-size="9" x="66" y="0">-</tspan><tspan font-size="9" x="70.8333" y="0">AINMcl</tspan></text><rect x="583" y="595" width="114" height="37" fill="#FFFFFF"/><g clip-path="url(#clip1)"><g clip-path="url(#clip2)"><g clip-path="url(#clip3)"><path d="M37.5833 16.2292 24.7708 16.2292 20.5 3.41667 16.2292 16.2292 3.41667 16.2292 13.2396 24.7708 9.39583 37.5833 20.5 29.8958 31.6042 37.5833 27.7604 24.7708Z" stroke="#000000" stroke-width="0.666669" fill="#FF6600" transform="matrix(1.02439 0 0 1 299 300)"/></g></g></g><g clip-path="url(#clip4)"><g clip-path="url(#clip5)"><g clip-path="url(#clip6)"><path d="M37.5833 16.2292 24.7708 16.2292 20.5 3.41667 16.2292 16.2292 3.41667 16.2292 13.2396 24.7708 9.39583 37.5833 20.5 29.8958 31.6042 37.5833 27.7604 24.7708Z" stroke="#000000" stroke-width="0.666669" fill="#FF6600" transform="matrix(1.02439 0 0 1 939 300)"/></g></g></g><g clip-path="url(#clip7)"><g clip-path="url(#clip8)"><g clip-path="url(#clip9)"><path d="M36.677 1.24969 36.677 14.9963C36.677 17.8961 35.0398 20.9574 30.0991 20.9574 25.6429 20.9574 23.4923 18.6485 23.4923 14.9963L23.4923 1.24969 27.5481 1.24969 27.5481 14.7283C27.5481 17.1179 28.5685 18.0576 30.0443 18.0576 31.8171 18.0576 32.6211 16.8757 32.6211 14.7283L32.6211 1.24969 36.677 1.24969Z" transform="matrix(1 0 0 1.03321 600.706 598.042)"/><path d="M43.2677 20.9574C38.2464 20.9574 37.3067 18.0027 37.523 14.6475L41.5789 14.6475C41.5789 16.5011 41.6596 18.0576 43.8877 18.0576 45.2569 18.0576 45.9286 17.1728 45.9286 15.8553 45.9286 12.3645 37.7652 12.1514 37.7652 6.37762 37.7652 3.3422 39.2151 0.926773 44.1558 0.926773 48.1018 0.926773 50.0619 2.69959 49.7939 6.75221L45.8478 6.75221C45.8478 5.30231 45.6057 3.82657 43.9685 3.82657 42.6542 3.82657 41.876 4.55314 41.876 5.89325 41.876 9.57128 50.0393 9.24836 50.0393 15.345 50.0361 20.3664 46.358 20.9574 43.2677 20.9574Z" transform="matrix(1 0 0 1.03321 600.706 598.042)"/><path d="M70.5252 20.9574C65.5038 20.9574 64.5641 18.0027 64.7805 14.6475L68.8363 14.6475C68.8363 16.5011 68.9171 18.0576 71.1452 18.0576 72.5144 18.0576 73.186 17.1728 73.186 15.8553 73.186 12.3645 65.0227 12.1514 65.0227 6.37762 65.0227 3.3422 66.4726 0.926773 71.4132 0.926773 75.3593 0.926773 77.3194 2.69959 77.0514 6.75221L73.1053 6.75221C73.1053 5.30231 72.8631 3.82657 71.2259 3.82657 69.9117 3.82657 69.1302 4.55314 69.1302 5.89325 69.1302 9.57128 77.2936 9.24836 77.2936 15.345 77.2936 20.3664 73.6123 20.9574 70.5252 20.9574Z" transform="matrix(1 0 0 1.03321 600.706 598.042)"/><path d="M57.6085 13.4108 59.9949 13.4108 59.9949 17.6894 59.7979 17.7637C59.1811 17.9801 58.4545 18.1383 57.7829 18.1383 55.474 18.1383 54.8831 17.063 54.8831 10.9953 54.8831 7.23658 54.8831 3.82657 57.4083 3.82657 59.3716 3.82657 59.785 5.15054 59.8237 6.75221L63.8634 6.75221C63.8957 2.99022 61.4738 0.926773 57.6537 0.926773 51.021 0.926773 50.7788 5.89325 50.7788 10.7822 50.7788 18.1383 51.5764 20.9929 58.3964 20.9929 59.9787 20.9929 62.4975 20.6344 63.66 20.318 63.731 20.2986 63.857 20.2211 63.857 20.121 63.857 19.5914 63.857 10.4851 63.857 10.4851L57.615 10.4851 57.615 13.4108 57.6085 13.4108Z" transform="matrix(1 0 0 1.03321 600.706 598.042)"/><path d="M2.3024 26.5793C2.26365 26.7343 2.23782 26.8861 2.26365 26.9927 2.29594 27.1025 2.38636 27.1541 2.57365 27.1541 2.76095 27.1541 2.95147 27.0314 2.9999 26.8022 3.1549 26.0756 1.44021 26.2403 1.66948 25.1488 1.82771 24.4093 2.60594 24.1865 3.22272 24.1865 3.87178 24.1865 4.39491 24.4998 4.18501 25.236L3.24855 25.236C3.30022 25.0003 3.30345 24.8582 3.24855 24.7968 3.20011 24.7355 3.12261 24.7226 3.01928 24.7226 2.80938 24.7226 2.66407 24.8582 2.61563 25.0875 2.49938 25.63 4.18824 25.6009 3.95251 26.6988 3.82657 27.2962 3.24209 27.7418 2.45094 27.7418 1.61782 27.7418 1.10761 27.532 1.36271 26.5761L2.3024 26.5761 2.3024 26.5793Z" transform="matrix(1 0 0 1.03321 600.706 598.042)"/><path d="M6.39054 25.4782C6.4971 24.9712 6.40668 24.8001 6.10637 24.8001 5.6995 24.8001 5.5897 25.1585 5.43793 25.8722 5.21512 26.9152 5.2571 27.138 5.60908 27.138 5.90616 27.138 6.10637 26.8667 6.20325 26.4211L7.15908 26.4211C6.9621 27.3479 6.37439 27.7483 5.47991 27.7483 4.24637 27.7483 4.24314 26.9959 4.47241 25.9271 4.67262 24.9938 4.97616 24.193 6.23554 24.193 7.1171 24.193 7.53367 24.5869 7.34315 25.4814L6.39054 25.4814Z" transform="matrix(1 0 0 1.03321 600.706 598.042)"/><path d="M8.35388 27.6773 7.39804 27.6773 8.12461 24.2543 9.08044 24.2543 8.35388 27.6773ZM9.36138 22.9401 9.19992 23.6925 8.24732 23.6925 8.40877 22.9401 9.36138 22.9401Z" transform="matrix(1 0 0 1.03321 600.706 598.042)"/><path d="M53.0618 27.6773 52.106 27.6773 52.8325 24.2543 53.7884 24.2543 53.0618 27.6773ZM54.0693 22.9401 53.9079 23.6925 52.952 23.6925 53.1103 22.9401 54.0693 22.9401Z" transform="matrix(1 0 0 1.03321 600.706 598.042)"/><path d="M10.1977 26.1208C10.1105 26.5277 9.9943 27.138 10.4141 27.138 10.7532 27.138 10.8888 26.8118 10.9501 26.5277L11.9189 26.5277C11.8252 26.899 11.6379 27.2058 11.3635 27.4157 11.0954 27.6256 10.7306 27.7483 10.2817 27.7483 9.04815 27.7483 9.04492 26.9959 9.27419 25.9271 9.4744 24.9938 9.77794 24.193 11.0373 24.193 12.3258 24.193 12.2902 25.0261 12.0222 26.124L10.1977 26.124ZM11.1859 25.5848C11.2569 25.2522 11.3699 24.7775 10.9178 24.7775 10.4787 24.7775 10.3753 25.2909 10.314 25.5848L11.1859 25.5848Z" transform="matrix(1 0 0 1.03321 600.706 598.042)"/><path d="M13.8306 24.6031 13.8435 24.6031C14.0986 24.2995 14.3795 24.1898 14.738 24.1898 15.1933 24.1898 15.5356 24.461 15.4322 24.9357L14.8478 27.6805 13.8919 27.6805 14.3924 25.3232C14.457 25.0197 14.4538 24.7807 14.147 24.7807 13.8435 24.7807 13.7369 25.0164 13.6723 25.3232L13.1718 27.6805 12.2192 27.6805 12.9458 24.2576 13.9016 24.2576 13.8306 24.6031Z" transform="matrix(1 0 0 1.03321 600.706 598.042)"/><path d="M17.6216 25.4782C17.7282 24.9712 17.6378 24.8001 17.3374 24.8001 16.9306 24.8001 16.8208 25.1585 16.669 25.8722 16.4462 26.9152 16.4882 27.138 16.8402 27.138 17.1372 27.138 17.3374 26.8667 17.4343 26.4211L18.3902 26.4211C18.1932 27.3479 17.6055 27.7483 16.711 27.7483 15.4774 27.7483 15.4742 26.9959 15.7035 25.9271 15.9037 24.9938 16.2072 24.193 17.4666 24.193 18.3482 24.193 18.7647 24.5869 18.5742 25.4814L17.6216 25.4814Z" transform="matrix(1 0 0 1.03321 600.706 598.042)"/><path d="M19.8045 26.1208C19.7173 26.5277 19.6011 27.138 20.0209 27.138 20.36 27.138 20.4956 26.8118 20.5569 26.5277L21.5257 26.5277C21.432 26.899 21.2447 27.2058 20.9703 27.4157 20.7022 27.6256 20.3373 27.7483 19.8885 27.7483 18.6549 27.7483 18.6517 26.9959 18.881 25.9271 19.0812 24.9938 19.3847 24.193 20.6441 24.193 21.9326 24.193 21.897 25.0261 21.629 26.124L19.8045 26.124ZM20.7927 25.5848C20.8637 25.2522 20.9767 24.7775 20.5246 24.7775 20.0855 24.7775 19.9821 25.2909 19.9208 25.5848L20.7927 25.5848Z" transform="matrix(1 0 0 1.03321 600.706 598.042)"/><path d="M25.6429 23.5504C25.2618 23.5245 25.1488 23.6731 25.0746 24.0186L25.0067 24.2576 25.4524 24.2576 25.3264 24.8485 24.8808 24.8485 24.2802 27.6805 23.3243 27.6805 23.925 24.8485 23.4987 24.8485 23.6246 24.2576 24.0574 24.2576C24.2479 23.4018 24.4223 22.9271 25.433 22.9271 25.5492 22.9271 25.6558 22.9336 25.7688 22.9401L25.6429 23.5504Z" transform="matrix(1 0 0 1.03321 600.706 598.042)"/><path d="M25.3426 25.9238C25.5428 24.9906 25.8463 24.1898 27.1057 24.1898 28.3651 24.1898 28.3328 24.9906 28.1326 25.9238 27.9065 26.9959 27.5836 27.7451 26.3501 27.7451 25.1165 27.7451 25.1133 26.9959 25.3426 25.9238ZM27.1897 25.8689C27.3414 25.1585 27.3834 24.7968 26.9765 24.7968 26.5697 24.7968 26.4599 25.1553 26.3081 25.8689 26.0853 26.912 26.1273 27.1348 26.4792 27.1348 26.8312 27.138 26.9668 26.912 27.1897 25.8689Z" transform="matrix(1 0 0 1.03321 600.706 598.042)"/><path d="M29.8473 24.2576 29.7536 24.6967 29.7665 24.6967C30.0249 24.3028 30.3769 24.1898 30.7611 24.1898L30.5803 25.0423C29.7504 24.9874 29.6341 25.475 29.5631 25.814L29.1659 27.6773 28.2101 27.6773 28.9366 24.2543 29.844 24.2543 29.844 24.2576Z" transform="matrix(1 0 0 1.03321 600.706 598.042)"/><path d="M34.4004 27.0411C34.3552 27.251 34.3358 27.4674 34.3132 27.6773L33.4252 27.6773 33.4801 27.222 33.4672 27.222C33.1895 27.5739 32.8762 27.7451 32.4629 27.7451 31.7977 27.7451 31.6588 27.251 31.788 26.6536 32.0302 25.5234 32.9118 25.475 33.7966 25.4879L33.8515 25.2231C33.9128 24.9325 33.916 24.7226 33.5705 24.7226 33.2379 24.7226 33.1572 24.9744 33.0991 25.2457L32.1626 25.2457C32.2498 24.8324 32.4338 24.5676 32.6922 24.4126 32.9441 24.2511 33.267 24.1898 33.6351 24.1898 34.8493 24.1898 34.8945 24.7129 34.7589 25.3361L34.4004 27.0411ZM32.7277 26.6149C32.676 26.8603 32.6534 27.1574 32.9634 27.1574 33.5253 27.1574 33.5996 26.3985 33.6771 26.0272 33.2024 26.0465 32.8569 26.0046 32.7277 26.6149Z" transform="matrix(1 0 0 1.03321 600.706 598.042)"/><path d="M38.1818 25.4782C38.2883 24.9712 38.1979 24.8001 37.8976 24.8001 37.4907 24.8001 37.3809 25.1585 37.2292 25.8722 37.0064 26.9152 37.0483 27.138 37.4003 27.138 37.6974 27.138 37.8976 26.8667 37.9945 26.4211L38.9503 26.4211C38.7533 27.3479 38.1656 27.7483 37.2711 27.7483 36.0376 27.7483 36.0344 26.9959 36.2636 25.9271 36.4639 24.9938 36.7674 24.193 38.0268 24.193 38.9083 24.193 39.3249 24.5869 39.1344 25.4814L38.1818 25.4814Z" transform="matrix(1 0 0 1.03321 600.706 598.042)"/><path d="M45.1019 27.0411C45.0567 27.251 45.0373 27.4674 45.0147 27.6773L44.1267 27.6773 44.1816 27.222 44.1687 27.222C43.891 27.5739 43.5777 27.7451 43.1644 27.7451 42.4992 27.7451 42.3603 27.251 42.4895 26.6536 42.7317 25.5234 43.6132 25.475 44.498 25.4879L44.5529 25.2231C44.6143 24.9325 44.6175 24.7226 44.272 24.7226 43.9394 24.7226 43.8587 24.9744 43.8005 25.2457L42.8641 25.2457C42.9513 24.8324 43.1386 24.5676 43.3937 24.4126 43.6455 24.2511 43.9685 24.1898 44.3366 24.1898 45.5508 24.1898 45.5927 24.7129 45.4603 25.3361L45.1019 27.0411ZM43.4292 26.6149C43.3775 26.8603 43.3549 27.1574 43.6649 27.1574 44.2268 27.1574 44.3011 26.3985 44.3786 26.0272 43.9039 26.0465 43.5584 26.0046 43.4292 26.6149Z" transform="matrix(1 0 0 1.03321 600.706 598.042)"/><path d="M47.1976 24.6031 47.2106 24.6031C47.4657 24.2995 47.7466 24.1898 48.105 24.1898 48.5603 24.1898 48.9026 24.461 48.7993 24.9357L48.2148 27.6805 47.259 27.6805 47.7595 25.3232C47.8241 25.0197 47.8209 24.7807 47.5141 24.7807 47.2106 24.7807 47.104 25.0164 47.0394 25.3232L46.5389 27.6805 45.583 27.6805 46.3096 24.2576 47.2654 24.2576 47.1976 24.6031Z" transform="matrix(1 0 0 1.03321 600.706 598.042)"/><path d="M52.148 24.2576 51.3891 27.8226C51.3374 28.0583 51.1534 28.9948 49.8391 28.9948 49.1287 28.9948 48.5571 28.8107 48.7121 27.9776L49.6486 27.9776C49.6195 28.1197 49.6131 28.2424 49.655 28.3231 49.697 28.4103 49.7971 28.4587 49.9457 28.4587 50.1814 28.4587 50.3461 28.2359 50.4204 27.8904L50.5592 27.2316 50.5463 27.2316C50.3493 27.4964 50.049 27.6321 49.7358 27.6321 48.6863 27.6321 48.9382 26.6698 49.1028 25.898 49.2643 25.1456 49.4807 24.1898 50.4752 24.1898 50.8143 24.1898 51.0726 24.3383 51.1405 24.658L51.1534 24.658 51.2373 24.2576 52.148 24.2576ZM50.2105 27.0411C50.556 27.0411 50.6787 26.6827 50.8337 25.9561 50.9919 25.2037 51.05 24.7775 50.6981 24.7775 50.3396 24.7775 50.2234 25.0293 50.0038 26.0724 49.9327 26.3921 49.7487 27.0411 50.2105 27.0411Z" transform="matrix(1 0 0 1.03321 600.706 598.042)"/><path d="M55.3481 24.6031 55.361 24.6031C55.6161 24.2995 55.897 24.1898 56.2555 24.1898 56.7108 24.1898 57.0531 24.461 56.9497 24.9357L56.3653 27.6805 55.4094 27.6805 55.91 25.3232C55.9745 25.0197 55.9713 24.7807 55.6645 24.7807 55.361 24.7807 55.2544 25.0164 55.1898 25.3232L54.6893 27.6805 53.7335 27.6805 54.4601 24.2576 55.4159 24.2576 55.3481 24.6031Z" transform="matrix(1 0 0 1.03321 600.706 598.042)"/><path d="M60.2984 24.2576 59.5395 27.8226C59.4879 28.0583 59.3038 28.9948 57.9895 28.9948 57.2791 28.9948 56.7076 28.8107 56.8658 27.9776L57.8022 27.9776C57.7732 28.1197 57.7667 28.2424 57.8087 28.3231 57.8507 28.4103 57.9508 28.4587 58.0993 28.4587 58.3351 28.4587 58.4997 28.2359 58.574 27.8904L58.7129 27.2316 58.7 27.2316C58.503 27.4964 58.2027 27.6321 57.8894 27.6321 56.84 27.6321 57.0918 26.6698 57.2565 25.898 57.4147 25.1456 57.6343 24.1898 58.6289 24.1898 58.968 24.1898 59.2263 24.3383 59.2941 24.658L59.307 24.658 59.391 24.2576 60.2984 24.2576ZM58.3577 27.0411C58.7032 27.0411 58.8259 26.6827 58.9809 25.9561 59.1424 25.2037 59.1973 24.7775 58.8453 24.7775 58.4868 24.7775 58.3706 25.0293 58.151 26.0724 58.0832 26.3921 57.8991 27.0411 58.3577 27.0411Z" transform="matrix(1 0 0 1.03321 600.706 598.042)"/><path d="M61.7903 24.2576 62.7397 24.2576 62.6622 26.8312 62.6751 26.8312 63.815 24.2576 64.8289 24.2576 64.8419 26.8312 64.8548 26.8312 65.8946 24.2576 66.8116 24.2576 65.1874 27.6805 64.1863 27.6805 64.0895 25.4104 64.0765 25.4104 62.9302 27.6805 61.9162 27.6805 61.7903 24.2576Z" transform="matrix(1 0 0 1.03321 600.706 598.042)"/><path d="M66.6179 25.9238C66.8181 24.9906 67.1217 24.1898 68.381 24.1898 69.6404 24.1898 69.6081 24.9906 69.4079 25.9238 69.1819 26.9959 68.8589 27.7451 67.6254 27.7451 66.3951 27.7451 66.3919 26.9959 66.6179 25.9238ZM68.465 25.8689C68.6168 25.1585 68.6587 24.7968 68.2519 24.7968 67.845 24.7968 67.7352 25.1553 67.5834 25.8689 67.3606 26.912 67.4026 27.1348 67.7546 27.1348 68.1098 27.138 68.2454 26.912 68.465 25.8689Z" transform="matrix(1 0 0 1.03321 600.706 598.042)"/><path d="M71.1775 24.2576 71.0838 24.6967 71.0968 24.6967C71.3551 24.3028 71.7071 24.1898 72.0914 24.1898L71.9105 25.0423C71.0806 24.9874 70.9644 25.475 70.8933 25.814L70.4961 27.6773 69.5403 27.6773 70.2669 24.2543 71.1743 24.2543 71.1743 24.2576Z" transform="matrix(1 0 0 1.03321 600.706 598.042)"/><path d="M41.6887 24.1898C41.3302 24.1898 41.0493 24.2995 40.7942 24.6031L40.7813 24.6031 41.1332 22.9401 40.1774 22.9401 39.1699 27.6805 40.1257 27.6805 40.6263 25.3232C40.6908 25.0197 40.7942 24.7807 41.101 24.7807 41.4045 24.7807 41.411 25.0164 41.3464 25.3232L40.8458 27.6805 41.8017 27.6805 42.3862 24.9357C42.483 24.461 42.1407 24.1898 41.6887 24.1898Z" transform="matrix(1 0 0 1.03321 600.706 598.042)"/><path d="M72.7695 22.9401 71.762 27.6773 72.7178 27.6773 73.7253 22.9401Z" transform="matrix(1 0 0 1.03321 600.706 598.042)"/><path d="M75.9631 22.9401 75.6144 24.5837 75.6015 24.5837C75.4658 24.2931 75.2527 24.1898 74.904 24.1898 73.9417 24.1898 73.7415 25.2522 73.5962 25.9432 73.4476 26.6472 73.1796 27.7451 74.1677 27.7451 74.5326 27.7451 74.8232 27.6288 75.0686 27.2962L75.0816 27.2962 75.0008 27.6773 75.9082 27.6773 76.9157 22.9368 75.9631 22.9368 75.9631 22.9401ZM75.3238 25.9367C75.1397 26.7957 75.0041 27.1574 74.6779 27.1574 74.3324 27.1574 74.3485 26.7989 74.5294 25.9367 74.6747 25.2522 74.7683 24.7775 75.1817 24.7775 75.5789 24.7775 75.4723 25.2522 75.3238 25.9367Z" transform="matrix(1 0 0 1.03321 600.706 598.042)"/><path d="M6.57137 7.74033 6.63919 7.80492C8.53794 9.3969 10.5885 9.2419 12.1514 8.20211 13.1363 7.54658 17.5893 4.58543 20.1048 2.91272L20.1048 1.24323 1.34657 1.24323 1.34657 5.65752C2.48969 5.46054 4.33355 5.65429 6.57137 7.74033Z" transform="matrix(1 0 0 1.03321 600.706 598.042)"/><path d="M13.6271 15.0867 11.4119 12.9619C11.1019 12.6777 10.8339 12.4711 10.7758 12.4259 8.96419 11.1536 7.27533 11.5411 6.54877 11.8123 6.32918 11.8995 6.11929 12.0222 5.96752 12.1159L1.34657 15.2062 1.34657 20.8088 20.1048 20.8088 20.1048 16.7756C19.6915 17.0371 17.1502 18.4128 13.6271 15.0867Z" transform="matrix(1 0 0 1.03321 600.706 598.042)"/><path d="M6.40346 8.24086C6.30335 8.14721 6.19356 8.04711 6.09345 7.96638 3.87824 6.25168 1.78573 7.09127 1.34334 7.30117L1.34334 9.22898 2.42834 8.49919C2.42834 8.49919 4.10105 7.25919 6.70377 8.53148L6.40346 8.24086Z" transform="matrix(1 0 0 1.03321 600.706 598.042)"/><path d="M8.99648 10.7338C8.89961 10.6466 8.7995 10.5594 8.70263 10.4658 6.73606 8.80273 4.83731 9.22576 4.04939 9.51638 3.82657 9.6068 3.61345 9.72628 3.46168 9.81992L3.24855 9.96201 3.24855 9.96201 1.34657 11.2343 1.34657 13.2202 4.88574 10.8371C4.88574 10.8371 6.53908 9.61003 9.11596 10.8468L8.99648 10.7338Z" transform="matrix(1 0 0 1.03321 600.706 598.042)"/><path d="M20.1081 12.8134C19.3718 13.3107 18.6194 13.8176 18.3223 14.0146 17.6539 14.4602 16.1104 15.5679 13.5399 14.3408L13.8435 14.6314C13.9565 14.7347 14.0954 14.851 14.2439 14.9672 16.091 16.3461 18.0608 16.1491 19.5397 15.1674 19.7432 15.0318 19.9305 14.9059 20.1081 14.7896L20.1081 12.8134Z" transform="matrix(1 0 0 1.03321 600.706 598.042)"/><path d="M20.1081 8.83503C18.487 9.92326 16.3009 11.3958 15.8908 11.6702 15.2223 12.1159 13.6562 13.2396 11.1407 12.0384L11.4313 12.3193C11.4636 12.3484 11.4959 12.3807 11.5314 12.4097L11.5282 12.413 11.5282 12.413 11.5314 12.4097C13.485 14.0631 15.6324 13.808 17.1082 12.8231 17.9413 12.2676 19.1232 11.4668 20.1081 10.8016L20.1081 8.83503 20.1081 8.83503Z" transform="matrix(1 0 0 1.03321 600.706 598.042)"/><path d="M20.1081 4.87606C17.7734 6.44221 13.9404 9.0094 13.4754 9.3194 12.8037 9.77149 11.2149 10.9082 8.73169 9.72305L9.03201 10.0137C9.21284 10.1751 9.4518 10.3786 9.71013 10.5465 11.4281 11.6444 13.2267 11.4507 14.6927 10.4722 15.7455 9.76826 18.3353 8.04711 20.1081 6.87169L20.1081 4.87606 20.1081 4.87606Z" transform="matrix(1 0 0 1.03321 600.706 598.042)"/></g></g></g></g></svg>