<svg xmlns="http://www.w3.org/2000/svg" viewBox="0 0 473.94 188.71"><defs><style>.cls-1{fill:red;}</style></defs><title>Logo_NTV</title><g id="Capa_2" data-name="Capa 2"><g id="Capa_1-2" data-name="Capa 1"><path class="cls-1" d="M401,110.17c1.29-3,2.73-5.93,3.85-9C415.53,72.12,426.1,43,436.81,14,440,5.35,447.35.55,455.63,1.25c9.06.76,16.65,7.2,18.13,16a17.22,17.22,0,0,1-.88,8.28c-7.09,19.92-14.43,39.75-21.63,59.63-10.49,29-20.89,58-31.44,86.91-2.13,5.84-5,11.29-10.94,14.34-9.52,4.89-20.44,2-25.27-7.6-3.36-6.65-5.63-13.85-8.2-20.88Q355,102.06,334.76,46.14c-1.69-4.69-4.08-6.25-9.19-6-11.14.49-22.32.25-33.48,0-4.1-.08-5.47,1.28-5.45,5.44.17,39.49.17,79,.21,118.46,0,5.83.07,11.56-4.22,16.46-5.66,6.45-13.46,9.16-21,6.69-8.51-2.79-13.21-8.59-13.29-17.84-.21-24.65-.07-49.31-.08-74,0-16.66-.17-33.32,0-50,.06-4.5-1.53-5.7-5.79-5.64-14,.22-28,.48-42,0A19.12,19.12,0,0,1,185,10c4.09-6.17,10.21-8.63,17.58-8.62q67.22,0,134.45-.14c.67,0,1.34.06,2,0,18.22-1.63,23.61,6.85,28.55,20.9,7.85,22.29,16.33,44.36,24.5,66.54,2.59,7,5,14.07,7.54,21.11Z"/><path class="cls-1" d="M57.27,31.67c3.5-4.85,6.15-9.31,9.55-13.09C81.42,2.37,100.56-1.2,121.07.32A70.75,70.75,0,0,1,141,4.73c23.25,8.92,33.38,27.81,37.1,51.06a107.24,107.24,0,0,1,1.1,15.93q.27,32.49.2,65c0,7.4,1.84,13.45,7.95,18.39,6.47,5.22,8.17,12.75,5.4,20.41-2.92,8.09-9.38,12.23-18.11,12.6-16.62.69-30.69-9.27-35-25.4A68.12,68.12,0,0,1,137.2,146c-.25-22.49-.07-45,0-67.5,0-9.94-1.08-19.62-6.41-28.37A27.61,27.61,0,0,0,113,37.31C90.5,31.76,70.55,43.84,65.23,66.7A97.44,97.44,0,0,0,62.9,88c-.19,26,.08,52,.13,78a21.71,21.71,0,0,1-21.28,21.47c-11.31.19-20.68-9-20.89-21-.22-13.32,0-26.66,0-40,.05-24.34-.13-48.67.24-73C21.25,43.93,18.56,37.14,9.4,33A15.74,15.74,0,0,1,.24,15.79,17.56,17.56,0,0,1,14.42,1.48C23.11-.15,31.89.08,40,3.66,51.49,8.76,57.86,17.74,57.27,31.67Z"/></g></g></svg>